<svg width="180" height="30" viewBox="0 0 180 30" fill="none" xmlns="http://www.w3.org/2000/svg">
    <path fill-rule="evenodd" clip-rule="evenodd"
          d="M14.8097 2.25564C16.2779 2.25564 17.526 2.46867 18.5537 2.89474C19.5815 3.3208 20.5848 3.9223 21.5637 4.69925C21.8084 4.92481 22.0409 5.03759 22.2611 5.03759C22.7505 5.03759 23.0687 4.28572 23.2155 2.78196H24.0597C23.9619 4.56141 23.9129 7.69421 23.9129 12.1805H23.0687C22.8974 10.1754 22.5792 8.5965 22.1143 7.44361C21.6493 6.29072 20.8418 5.32582 19.6917 4.54887C18.5415 3.79699 17.4036 3.42105 16.2779 3.42105C13.7329 3.42105 11.9466 4.67417 10.9188 7.18045C9.89098 9.68673 9.37709 12.6817 9.37709 16.1654C9.37709 19.6491 9.89098 22.6441 10.9188 25.1504C11.9466 27.6567 13.7329 28.9098 16.2779 28.9098C17.4036 28.9098 18.5415 28.5338 19.6917 27.782C20.8418 27.0551 21.6493 26.0777 22.1143 24.8496C22.5792 23.6215 22.8974 21.8797 23.0687 19.6241H23.9129C23.9129 24.3108 23.9619 27.5689 24.0597 29.3985H23.2155C23.1421 28.5965 23.0381 28.0263 22.9035 27.688C22.7689 27.3496 22.5792 27.1805 22.3345 27.1805C22.1388 27.1805 21.8818 27.2807 21.5637 27.4812C20.4625 28.2832 19.4102 28.891 18.4069 29.3045C17.4036 29.7181 16.1923 29.9248 14.773 29.9248C12.0077 29.9248 9.58511 29.386 7.50505 28.3083C5.425 27.2306 3.80993 25.6704 2.65978 23.6278C1.50963 21.5852 0.93457 19.1479 0.93457 16.3158C0.93457 13.5589 1.52187 11.1153 2.69649 8.98496C3.87111 6.85463 5.51065 5.20051 7.61517 4.02256C9.7197 2.84461 12.1178 2.25564 14.8097 2.25564ZM31.4745 29.6617C29.9083 29.6617 28.7276 29.2293 27.9323 28.3647C27.137 27.5 26.7393 26.416 26.7393 25.1128C26.7393 23.985 27.0269 23.0514 27.6019 22.312C28.177 21.5727 28.8561 21.0025 29.6391 20.6015C30.4222 20.2005 31.4378 19.787 32.6858 19.3609C34.0072 18.9098 34.9738 18.4962 35.5856 18.1203C36.1974 17.7444 36.5033 17.218 36.5033 16.5414V13.1955C36.5033 12.3935 36.3075 11.6792 35.916 11.0526C35.5244 10.4261 34.8515 10.1128 33.8971 10.1128C33.1385 10.1128 32.4533 10.3258 31.8415 10.7519C32.6736 11.0526 33.2915 11.4975 33.6952 12.0865C34.099 12.6754 34.3009 13.3333 34.3009 14.0602C34.3009 15.0376 33.9644 15.8208 33.2915 16.4098C32.6185 16.9987 31.8048 17.2932 30.8505 17.2932C29.8961 17.2932 29.1436 16.9862 28.593 16.3722C28.0424 15.7581 27.7671 14.9749 27.7671 14.0226C27.7671 13.2707 27.9506 12.619 28.3177 12.0677C28.6848 11.5163 29.2598 11.015 30.0429 10.5639C31.4133 9.7619 33.371 9.3609 35.916 9.3609C37.2619 9.3609 38.4243 9.49248 39.4031 9.75564C40.382 10.0188 41.214 10.5138 41.8992 11.2406C42.3886 11.7669 42.7128 12.4248 42.8719 13.2143C43.0309 14.0038 43.1105 15.1002 43.1105 16.5038V26.5789C43.1105 27.2055 43.1533 27.6316 43.2389 27.8571C43.3246 28.0827 43.4775 28.1955 43.6978 28.1955C43.8691 28.1955 44.0526 28.1391 44.2484 28.0263C44.4442 27.9135 44.6277 27.782 44.799 27.6316L45.166 28.2707C44.1138 29.198 42.6088 29.6617 40.6511 29.6617C39.1829 29.6617 38.1551 29.4048 37.5678 28.891C36.9805 28.3772 36.6623 27.6817 36.6134 26.8045C35.4633 28.7093 33.7503 29.6617 31.4745 29.6617ZM35.1451 26.6541C35.659 26.6541 36.1118 26.4411 36.5033 26.015V18.0827C36.2831 18.4586 35.8793 18.9474 35.292 19.5489C34.6312 20.2005 34.1296 20.8333 33.787 21.4474C33.4444 22.0614 33.2731 22.8947 33.2731 23.9474C33.2731 25.7519 33.8971 26.6541 35.1451 26.6541ZM59.9221 9.3609C61.8309 9.3609 63.3725 10.1629 64.5471 11.7669C65.7217 13.3709 66.3091 15.7143 66.3091 18.797C66.3091 22.782 65.526 25.6328 63.9598 27.3496C62.3937 29.0664 60.3259 29.9248 57.7564 29.9248C56.9733 29.9248 56.3187 29.8997 55.7926 29.8496C55.2665 29.7995 54.7832 29.6742 54.3427 29.4737C53.4373 29.0977 52.4951 28.9098 51.5163 28.9098C50.7821 28.9098 50.097 29.01 49.4607 29.2105C48.8245 29.411 48.335 29.6742 47.9924 30L47.4786 29.6241C47.6499 29.0977 47.7355 28.4085 47.7355 27.5564V4.51128C47.7355 3.35839 47.5826 2.5188 47.2767 1.99248C46.9708 1.46616 46.4385 1.20301 45.6799 1.20301V0.413534C46.4385 0.488722 47.1971 0.526316 47.9557 0.526316C50.5007 0.526316 52.6297 0.350879 54.3427 0V12.1805C55.4684 10.3007 57.3282 9.3609 59.9221 9.3609ZM56.0679 29.1729C58.3193 29.1729 59.4449 26.0025 59.4449 19.6617C59.4449 16.5789 59.2247 14.4173 58.7842 13.1767C58.3437 11.9361 57.7442 11.3158 56.9856 11.3158C56.2759 11.3158 55.658 11.5727 55.1319 12.0865C54.6058 12.6003 54.3427 13.2456 54.3427 14.0226V28.7218C54.9055 29.0226 55.4806 29.1729 56.0679 29.1729ZM73.3934 0C74.6659 0 75.6509 0.275686 76.3483 0.827067C77.0457 1.37845 77.3945 2.18045 77.3945 3.23308C77.3945 4.28572 77.0457 5.08772 76.3483 5.6391C75.6509 6.19048 74.6659 6.46616 73.3934 6.46616C72.0965 6.46616 71.1054 6.19048 70.4202 5.6391C69.735 5.08772 69.3924 4.28572 69.3924 3.23308C69.3924 2.18045 69.735 1.37845 70.4202 0.827067C71.1054 0.275686 72.0965 0 73.3934 0ZM76.9173 25.9023C76.9173 26.9298 77.0702 27.6378 77.3761 28.0263C77.682 28.4148 78.2142 28.609 78.9728 28.609V29.3985C76.3299 29.2982 74.5925 29.2481 73.7605 29.2481C72.9285 29.2481 71.0932 29.2982 68.2545 29.3985V28.609C69.0131 28.609 69.5453 28.4148 69.8512 28.0263C70.1571 27.6378 70.3101 26.9298 70.3101 25.9023V13.985C70.3101 12.8321 70.1571 11.9925 69.8512 11.4662C69.5453 10.9398 69.0131 10.6767 68.2545 10.6767V9.88722C69.0376 9.96241 69.7962 10 70.5303 10C73.0753 10 75.2043 9.82456 76.9173 9.47369V25.9023ZM94.8668 9.3609C96.8245 9.3609 98.2071 9.86215 99.0146 10.8647C99.3817 11.3158 99.6509 11.9236 99.8222 12.688C99.9935 13.4524 100.079 14.4611 100.079 15.7143V25.9023C100.079 26.9298 100.232 27.6378 100.538 28.0263C100.844 28.4148 101.376 28.609 102.135 28.609V29.3985C99.4918 29.2982 97.7789 29.2481 96.9958 29.2481C96.1638 29.2481 94.4263 29.2982 91.7834 29.3985V28.609C92.4197 28.609 92.8602 28.4148 93.1049 28.0263C93.3496 27.6378 93.4719 26.9298 93.4719 25.9023V13.6842C93.4719 12.8822 93.3312 12.287 93.0498 11.8985C92.7684 11.51 92.3096 11.3158 91.6733 11.3158C90.9637 11.3158 90.3458 11.5727 89.8196 12.0865C89.2935 12.6003 89.0304 13.2456 89.0304 14.0226V25.9023C89.0304 26.9298 89.1528 27.6378 89.3975 28.0263C89.6422 28.4148 90.0827 28.609 90.7189 28.609V29.3985C88.2718 29.2982 86.6567 29.2481 85.8737 29.2481C85.0416 29.2481 83.2063 29.2982 80.3677 29.3985V28.609C81.1263 28.609 81.6585 28.4148 81.9644 28.0263C82.2703 27.6378 82.4232 26.9298 82.4232 25.9023V13.985C82.4232 12.8321 82.2703 11.9925 81.9644 11.4662C81.6585 10.9398 81.1263 10.6767 80.3677 10.6767V9.88722C81.1508 9.96241 81.9093 10 82.6435 10C85.1885 10 87.3175 9.82456 89.0304 9.47368V12.1804C90.1316 10.3007 92.0771 9.3609 94.8668 9.3609ZM116.634 0C118.322 0 119.619 0.125312 120.525 0.37594C121.43 0.626568 122.299 1.0025 123.131 1.50376C123.571 1.77945 123.957 2.18045 124.287 2.70677C124.618 3.23309 124.783 3.78446 124.783 4.3609C124.783 6.49124 123.388 7.55639 120.598 7.55639C119.228 7.55639 118.188 7.28697 117.478 6.74812C116.768 6.20927 116.414 5.4386 116.414 4.43609C116.414 3.63408 116.695 2.95113 117.258 2.38722C117.821 1.82331 118.616 1.41604 119.644 1.16541C119.448 1.06516 119.142 0.971179 118.726 0.883459C118.31 0.795739 117.894 0.75188 117.478 0.75188C115.52 0.75188 114.064 1.65413 113.11 3.45865C112.743 4.11028 112.486 4.90601 112.339 5.84587C112.192 6.78572 112.119 8.14536 112.119 9.92481H115.459C117.735 9.92481 119.509 9.89349 120.782 9.83083C122.054 9.76817 123.29 9.64913 124.489 9.47369V25.9023C124.489 26.9298 124.666 27.6378 125.021 28.0263C125.376 28.4148 126.006 28.609 126.912 28.609V29.3985C124.073 29.2982 122.225 29.2481 121.369 29.2481C120.512 29.2481 118.665 29.2982 115.826 29.3985V28.609C116.585 28.609 117.117 28.4148 117.423 28.0263C117.729 27.6378 117.882 26.9298 117.882 25.9023V13.985C117.882 12.8321 117.704 11.9925 117.35 11.4662C116.995 10.9398 116.365 10.6767 115.459 10.6767H112.119V25.9023C112.119 26.9298 112.345 27.6378 112.798 28.0263C113.251 28.4148 113.954 28.609 114.909 28.609V29.3985L113.918 29.3609C111.348 29.2857 109.709 29.2481 108.999 29.2481C108.167 29.2481 106.466 29.2857 103.897 29.3609C103.701 29.386 103.432 29.3985 103.089 29.3985V28.609C103.995 28.609 104.625 28.4148 104.979 28.0263C105.334 27.6378 105.512 26.9298 105.512 25.9023V10.6767H102.942V9.92481H105.512C105.512 7.01753 106.539 4.57395 108.595 2.59399C109.501 1.71679 110.675 1.06517 112.119 0.639098C113.563 0.21303 115.068 0 116.634 0ZM139.429 25.8271C141.215 25.8271 142.696 24.9875 143.87 23.3083L144.494 23.5338C143.956 25.2882 143.044 26.792 141.76 28.0451C140.475 29.2983 138.829 29.9248 136.822 29.9248C134.253 29.9248 132.197 29.1103 130.656 27.4812C129.114 25.8521 128.343 23.2456 128.343 19.6617C128.343 16.2281 129.206 13.6529 130.931 11.9361C132.656 10.2193 134.938 9.3609 137.777 9.3609C142.402 9.3609 144.714 12.1679 144.714 17.782H135.244C135.22 18.0827 135.207 18.5338 135.207 19.1353C135.207 21.5414 135.617 23.2581 136.437 24.2857C137.257 25.3133 138.254 25.8271 139.429 25.8271ZM137.52 10.2256C136.15 10.2256 135.342 12.5062 135.097 17.0677H139.355C139.38 15.0626 139.239 13.4211 138.933 12.1429C138.627 10.8647 138.156 10.2256 137.52 10.2256ZM154.992 25.9023C154.992 26.9298 155.145 27.6378 155.451 28.0263C155.757 28.4148 156.289 28.609 157.048 28.609V29.3985C154.405 29.2982 152.667 29.2481 151.835 29.2481C151.003 29.2481 149.168 29.2982 146.329 29.3985V28.609C147.088 28.609 147.62 28.4148 147.926 28.0263C148.232 27.6378 148.385 26.9298 148.385 25.9023V4.51128C148.385 3.35839 148.232 2.5188 147.926 1.99248C147.62 1.46616 147.088 1.20301 146.329 1.20301V0.413534C147.088 0.488722 147.847 0.526316 148.605 0.526316C151.15 0.526316 153.279 0.350879 154.992 0V25.9023ZM177.053 25.2632C177.053 26.416 177.206 27.2556 177.512 27.782C177.818 28.3083 178.35 28.5714 179.108 28.5714V29.3609C178.35 29.2857 177.591 29.2481 176.833 29.2481C174.288 29.2481 172.159 29.4236 170.446 29.7744V27.1053C169.932 28.0827 169.326 28.797 168.629 29.2481C167.931 29.6992 167.044 29.9248 165.968 29.9248C163.716 29.9248 161.905 29.0664 160.535 27.3496C159.165 25.6328 158.479 23.0201 158.479 19.5113C158.479 16.1779 159.207 13.6529 160.663 11.9361C162.119 10.2193 164.108 9.3609 166.628 9.3609C168.194 9.3609 169.467 9.67418 170.446 10.3008V4.51128C170.446 3.35839 170.293 2.5188 169.987 1.99248C169.681 1.46616 169.149 1.20301 168.39 1.20301V0.413534C169.149 0.488722 169.907 0.526316 170.666 0.526316C173.211 0.526316 175.34 0.350879 177.053 0V25.2632ZM167.803 27.9699C168.513 27.9699 169.13 27.713 169.657 27.1992C170.183 26.6855 170.446 26.0401 170.446 25.2632V11.0902C169.907 10.7644 169.332 10.6015 168.721 10.6015C167.57 10.6015 166.72 11.3471 166.169 12.8383C165.619 14.3296 165.344 16.5915 165.344 19.6241C165.344 22.7068 165.564 24.8684 166.004 26.109C166.445 27.3496 167.044 27.9699 167.803 27.9699Z"
          fill="#cc7654"/>
</svg>
