<?xml version="1.0" encoding="UTF-8"?>
<svg xmlns:xlink="http://www.w3.org/1999/xlink" width="180px" height="30px" viewBox="0 0 180 30" version="1.1"
     xmlns="http://www.w3.org/2000/svg">
    <!-- Generator: sketchtool 51.3 (57544) - http://www.bohemiancoding.com/sketch -->
    <title>0794ADCD-588B-4123-A24E-62C0B6B479A7-4463-00003CAA57358CF7</title>
    <desc>Created with sketchtool.</desc>
    <defs></defs>
    <g id="Page-1" stroke="none" stroke-width="1" fill="none" fill-rule="evenodd">
        <g id="Homepage" transform="translate(-98.000000, -2370.000000)" fill="#BBB1B1">
            <g id="footer" transform="translate(-7.000000, 2337.000000)">
                <g id="Group-22">
                    <path d="M119.017305,35.2556391 C120.500625,35.2556391 121.761429,35.4686695 122.799753,35.8947368 C123.838077,36.3208041 124.851664,36.9223019 125.840544,37.6992481 C126.087764,37.9248132 126.322619,38.037594 126.545117,38.037594 C127.039557,38.037594 127.360939,37.2857218 127.509271,35.7819549 L128.362176,35.7819549 C128.263288,37.5614124 128.213844,40.6942132 128.213844,45.1804511 L127.360939,45.1804511 C127.187885,43.1754286 126.866504,41.596497 126.396786,40.443609 C125.927068,39.2907211 125.111254,38.3258184 123.94932,37.5488722 C122.787386,36.7969887 121.63783,36.4210526 120.500618,36.4210526 C117.92953,36.4210526 116.124851,37.6741729 115.086527,40.1804511 C114.048202,42.6867293 113.529048,45.6816868 113.529048,49.1654135 C113.529048,52.6491402 114.048202,55.6440977 115.086527,58.1503759 C116.124851,60.6566541 117.92953,61.9097744 120.500618,61.9097744 C121.63783,61.9097744 122.787386,61.5338383 123.94932,60.7819549 C125.111254,60.0551342 125.927068,59.0777004 126.396786,57.8496241 C126.866504,56.6215477 127.187885,54.8797105 127.360939,52.6240602 L128.213844,52.6240602 C128.213844,57.3108004 128.263288,60.5689132 128.362176,62.3984962 L127.509271,62.3984962 C127.435105,61.5964872 127.330038,61.0263175 127.194067,60.6879699 C127.058096,60.3496224 126.866503,60.1804511 126.619283,60.1804511 C126.421507,60.1804511 126.16193,60.2807008 125.840544,60.481203 C124.728054,61.283212 123.665024,61.8909754 122.651422,62.3045113 C121.637819,62.7180472 120.414099,62.924812 118.980222,62.924812 C116.186636,62.924812 113.739195,62.3859703 111.637824,61.3082707 C109.536454,60.2305711 107.904827,58.6704363 106.742892,56.6278195 C105.580958,54.5852028 105,52.1478838 105,49.3157895 C105,46.5588835 105.593319,44.1152989 106.779975,41.9849624 C107.966631,39.8546259 109.622981,38.2005071 111.749073,37.0225564 C113.875165,35.8446056 116.297885,35.2556391 119.017305,35.2556391 Z M135.852905,62.6616541 C134.270697,62.6616541 133.077878,62.2293276 132.274413,61.3646617 C131.470948,60.4999957 131.069221,59.4160466 131.069221,58.112782 C131.069221,56.9849568 131.3597,56.0513821 131.940667,55.3120301 C132.521635,54.572678 133.20766,54.0025083 133.998764,53.6015038 C134.789868,53.2004992 135.815816,52.7869695 137.076638,52.3609023 C138.411626,51.9097722 139.38813,51.4962425 140.00618,51.1203008 C140.624231,50.744359 140.933251,50.2180485 140.933251,49.5413534 L140.933251,46.1954887 C140.933251,45.3934797 140.735478,44.6792011 140.339926,44.0526316 C139.944374,43.426062 139.264529,43.112782 138.300371,43.112782 C137.533989,43.112782 136.841783,43.3258124 136.223733,43.7518797 C137.064281,44.0526331 137.688502,44.4974908 138.096415,45.0864662 C138.504328,45.6754415 138.708282,46.3333297 138.708282,47.0601504 C138.708282,48.0375989 138.368359,48.8207991 137.688504,49.4097744 C137.008649,49.9987498 136.186655,50.2932331 135.222497,50.2932331 C134.258339,50.2932331 133.498149,49.9862186 132.941904,49.3721805 C132.385659,48.7581423 132.10754,47.9749421 132.10754,47.0225564 C132.10754,46.2706729 132.292952,45.6190504 132.663782,45.0676692 C133.034612,44.516288 133.615571,44.0150398 134.406675,43.5639098 C135.791107,42.7619008 137.768838,42.3609023 140.339926,42.3609023 C141.699636,42.3609023 142.873913,42.4924799 143.862794,42.7556391 C144.851674,43.0187983 145.692209,43.5137808 146.384425,44.2406015 C146.878865,44.7669199 147.206427,45.4248081 147.36712,46.2142857 C147.527813,47.0037633 147.608158,48.1002436 147.608158,49.5037594 L147.608158,59.5789474 C147.608158,60.2055169 147.651421,60.6315778 147.737948,60.8571429 C147.824475,61.0827079 147.978985,61.1954887 148.201483,61.1954887 C148.374537,61.1954887 148.55995,61.1390983 148.757726,61.0263158 C148.955502,60.9135333 149.140914,60.7819556 149.313968,60.6315789 L149.684796,61.2706767 C148.62175,62.1979996 147.10137,62.6616541 145.123609,62.6616541 C143.640289,62.6616541 142.601981,62.4047645 142.008653,61.8909774 C141.415325,61.3771904 141.093943,60.6817086 141.044499,59.8045113 C139.882565,61.7092827 138.152051,62.6616541 135.852905,62.6616541 Z M139.561187,59.6541353 C140.080349,59.6541353 140.537699,59.4411049 140.933251,59.0150376 L140.933251,51.0827068 C140.710753,51.4586485 140.302846,51.9473654 139.709518,52.5488722 C139.042024,53.2005045 138.53523,53.8333303 138.189122,54.4473684 C137.843014,55.0614066 137.669963,55.8947316 137.669963,56.9473684 C137.669963,58.7518887 138.300365,59.6541353 139.561187,59.6541353 Z M164.592089,42.3609023 C166.520405,42.3609023 168.077868,43.1628992 169.264524,44.7669173 C170.45118,46.3709353 171.044499,48.7142703 171.044499,51.7969925 C171.044499,55.7819748 170.253407,58.6328235 168.671199,60.3496241 C167.088991,62.0664246 165.000013,62.924812 162.404203,62.924812 C161.613099,62.924812 160.951795,62.8997496 160.420272,62.8496241 C159.888749,62.7994985 159.400497,62.6741865 158.955501,62.4736842 C158.040787,62.0977425 157.089004,61.9097744 156.100124,61.9097744 C155.358464,61.9097744 154.666258,62.0100241 154.023486,62.2105263 C153.380714,62.4110286 152.886281,62.6741838 152.540173,63 L152.021014,62.6240602 C152.194068,62.0977417 152.280593,61.4085256 152.280593,60.556391 L152.280593,37.5112782 C152.280593,36.3583902 152.126083,35.5187996 151.817058,34.9924812 C151.508033,34.4661628 150.970338,34.2030075 150.203956,34.2030075 L150.203956,33.4135338 C150.970338,33.4887222 151.736708,33.5263158 152.50309,33.5263158 C155.074178,33.5263158 157.22496,33.3508789 158.955501,33 L158.955501,45.1804511 C160.092713,43.3007425 161.971557,42.3609023 164.592089,42.3609023 Z M160.698393,62.1729323 C162.972817,62.1729323 164.110012,59.002538 164.110012,52.6616541 C164.110012,49.578932 163.887518,47.4172994 163.442522,46.1766917 C162.997526,44.936084 162.391846,44.3157895 161.625464,44.3157895 C160.908525,44.3157895 160.284304,44.5726791 159.752781,45.0864662 C159.221258,45.6002532 158.955501,46.2456102 158.955501,47.0225564 L158.955501,61.7218045 C159.524107,62.0225579 160.105065,62.1729323 160.698393,62.1729323 Z M178.201483,33 C179.487027,33 180.482073,33.2756865 181.18665,33.8270677 C181.891227,34.3784489 182.243511,35.1804459 182.243511,36.2330827 C182.243511,37.2857195 181.891227,38.0877165 181.18665,38.6390977 C180.482073,39.1904789 179.487027,39.4661654 178.201483,39.4661654 C176.891217,39.4661654 175.889991,39.1904789 175.197775,38.6390977 C174.505559,38.0877165 174.159456,37.2857195 174.159456,36.2330827 C174.159456,35.1804459 174.505559,34.3784489 175.197775,33.8270677 C175.889991,33.2756865 176.891217,33 178.201483,33 Z M181.761434,58.9022556 C181.761434,59.9298297 181.915944,60.6378427 182.224969,61.0263158 C182.533994,61.4147889 183.07169,61.6090226 183.838072,61.6090226 L183.838072,62.3984962 C181.168095,62.2982451 179.41286,62.2481203 178.572311,62.2481203 C177.731763,62.2481203 175.877641,62.2982451 173.009889,62.3984962 L173.009889,61.6090226 C173.776271,61.6090226 174.313966,61.4147889 174.622991,61.0263158 C174.932016,60.6378427 175.086527,59.9298297 175.086527,58.9022556 L175.086527,46.9849624 C175.086527,45.8320744 174.932016,44.9924838 174.622991,44.4661654 C174.313966,43.939847 173.776271,43.6766917 173.009889,43.6766917 L173.009889,42.887218 C173.800993,42.9624064 174.567363,43 175.309023,43 C177.880112,43 180.030894,42.8245632 181.761434,42.4736842 L181.761434,58.9022556 Z M199.894932,42.3609023 C201.872692,42.3609023 203.269464,42.8621504 204.08529,43.8646617 C204.456121,44.3157917 204.728058,44.9235551 204.901112,45.6879699 C205.074167,46.4523848 205.160692,47.4611466 205.160692,48.7142857 L205.160692,58.9022556 C205.160692,59.9298297 205.315202,60.6378427 205.624227,61.0263158 C205.933252,61.4147889 206.470948,61.6090226 207.23733,61.6090226 L207.23733,62.3984962 C204.567354,62.2982451 202.83684,62.2481203 202.045735,62.2481203 C201.205187,62.2481203 199.449952,62.2982451 196.779975,62.3984962 L196.779975,61.6090226 C197.422747,61.6090226 197.867737,61.4147889 198.114957,61.0263158 C198.362177,60.6378427 198.485785,59.9298297 198.485785,58.9022556 L198.485785,46.6842105 C198.485785,45.8822015 198.343636,45.2869694 198.059333,44.8984962 C197.775029,44.5100231 197.311499,44.3157895 196.668727,44.3157895 C195.951789,44.3157895 195.327568,44.5726791 194.796044,45.0864662 C194.264521,45.6002532 193.998764,46.2456102 193.998764,47.0225564 L193.998764,58.9022556 C193.998764,59.9298297 194.122372,60.6378427 194.369592,61.0263158 C194.616812,61.4147889 195.061801,61.6090226 195.704574,61.6090226 L195.704574,62.3984962 C193.232373,62.2982451 191.600746,62.2481203 190.809642,62.2481203 C189.969093,62.2481203 188.114971,62.2982451 185.247219,62.3984962 L185.247219,61.6090226 C186.013601,61.6090226 186.551296,61.4147889 186.860321,61.0263158 C187.169346,60.6378427 187.323857,59.9298297 187.323857,58.9022556 L187.323857,46.9849624 C187.323857,45.8320744 187.169346,44.9924838 186.860321,44.4661654 C186.551296,43.939847 186.013601,43.6766917 185.247219,43.6766917 L185.247219,42.887218 C186.038323,42.9624064 186.804693,43 187.546354,43 C190.117442,43 192.268224,42.8245632 193.998764,42.4736842 L193.998764,45.1804511 C195.111254,43.3007425 197.076624,42.3609023 199.894932,42.3609023 Z M221.885043,33 C223.590861,33 224.901108,33.125312 225.815822,33.3759398 C226.730536,33.6265677 227.608154,34.0025038 228.448702,34.5037594 C228.893698,34.77945 229.283064,35.1804485 229.616811,35.7067669 C229.950558,36.2330853 230.117429,36.7844583 230.117429,37.3609023 C230.117429,39.4912387 228.708296,40.556391 225.889988,40.556391 C224.505556,40.556391 223.454886,40.2869701 222.737948,39.7481203 C222.02101,39.2092705 221.662546,38.4386015 221.662546,37.4360902 C221.662546,36.6340812 221.946845,35.9511306 222.515451,35.387218 C223.084057,34.8233055 223.88751,34.4160414 224.925834,34.1654135 C224.728058,34.0651624 224.419038,33.9711784 223.998764,33.8834586 C223.57849,33.7957389 223.158222,33.7518797 222.737948,33.7518797 C220.760188,33.7518797 219.289251,34.6541263 218.325093,36.4586466 C217.954263,37.1102789 217.694686,37.9060103 217.546354,38.8458647 C217.398022,39.785719 217.323857,41.1453545 217.323857,42.924812 L220.698393,42.924812 C222.997539,42.924812 224.789858,42.893484 226.075402,42.8308271 C227.360946,42.7681701 228.609388,42.6491237 229.820766,42.4736842 L229.820766,58.9022556 C229.820766,59.9298297 229.999998,60.6378427 230.358467,61.0263158 C230.716936,61.4147889 231.353518,61.6090226 232.268232,61.6090226 L232.268232,62.3984962 C229.40048,62.2982451 227.533997,62.2481203 226.668727,62.2481203 C225.803457,62.2481203 223.936974,62.2982451 221.069221,62.3984962 L221.069221,61.6090226 C221.835603,61.6090226 222.373299,61.4147889 222.682324,61.0263158 C222.991349,60.6378427 223.145859,59.9298297 223.145859,58.9022556 L223.145859,46.9849624 C223.145859,45.8320744 222.966627,44.9924838 222.608158,44.4661654 C222.249689,43.939847 221.613107,43.6766917 220.698393,43.6766917 L217.323857,43.6766917 L217.323857,58.9022556 C217.323857,59.9298297 217.552532,60.6378427 218.009889,61.0263158 C218.467246,61.4147889 219.177993,61.6090226 220.142151,61.6090226 L220.142151,62.3984962 L219.140915,62.3609023 C216.545104,62.2857139 214.888755,62.2481203 214.171817,62.2481203 C213.331269,62.2481203 211.613116,62.2857139 209.017305,62.3609023 C208.819529,62.385965 208.547591,62.3984962 208.201483,62.3984962 L208.201483,61.6090226 C209.116197,61.6090226 209.752779,61.4147889 210.111248,61.0263158 C210.469717,60.6378427 210.648949,59.9298297 210.648949,58.9022556 L210.648949,43.6766917 L208.053152,43.6766917 L208.053152,42.924812 L210.648949,42.924812 C210.648949,40.0175293 211.687258,37.5739447 213.763906,35.593985 C214.67862,34.7167876 215.865258,34.065165 217.323857,33.6390977 C218.782455,33.2130305 220.302835,33 221.885043,33 Z M244.913473,58.8270677 C246.71818,58.8270677 248.213838,57.9874771 249.400494,56.3082707 L250.030902,56.5338346 C249.487018,58.2882293 248.566138,59.7919737 247.268232,61.0451128 C245.970327,62.2982519 244.307798,62.924812 242.280593,62.924812 C239.684783,62.924812 237.608166,62.1102838 236.05068,60.481203 C234.493194,58.8521222 233.714462,56.245632 233.714462,52.6616541 C233.714462,49.228053 234.5859,46.6528908 236.328801,44.9360902 C238.071702,43.2192897 240.376994,42.3609023 243.244747,42.3609023 C247.917205,42.3609023 250.253399,45.1678917 250.253399,50.7819549 L240.686032,50.7819549 C240.66131,51.0827083 240.648949,51.5338316 240.648949,52.1353383 C240.648949,54.5413654 241.063037,56.2581402 241.891224,57.2857143 C242.719411,58.3132883 243.726817,58.8270677 244.913473,58.8270677 Z M242.985167,43.2255639 C241.600735,43.2255639 240.784921,45.5062429 240.537701,50.0676692 L244.839308,50.0676692 C244.86403,48.0626466 244.72188,46.421059 244.412855,45.1428571 C244.10383,43.8646553 243.627939,43.2255639 242.985167,43.2255639 Z M260.636588,58.9022556 C260.636588,59.9298297 260.791099,60.6378427 261.100124,61.0263158 C261.409149,61.4147889 261.946844,61.6090226 262.713226,61.6090226 L262.713226,62.3984962 C260.04325,62.2982451 258.288014,62.2481203 257.447466,62.2481203 C256.606918,62.2481203 254.752796,62.2982451 251.885043,62.3984962 L251.885043,61.6090226 C252.651425,61.6090226 253.189121,61.4147889 253.498146,61.0263158 C253.807171,60.6378427 253.961681,59.9298297 253.961681,58.9022556 L253.961681,37.5112782 C253.961681,36.3583902 253.807171,35.5187996 253.498146,34.9924812 C253.189121,34.4661628 252.651425,34.2030075 251.885043,34.2030075 L251.885043,33.4135338 C252.651425,33.4887222 253.417796,33.5263158 254.184178,33.5263158 C256.755266,33.5263158 258.906048,33.3508789 260.636588,33 L260.636588,58.9022556 Z M282.923362,58.2631579 C282.923362,59.4160459 283.077872,60.2556365 283.386897,60.7819549 C283.695922,61.3082733 284.233618,61.5714286 285,61.5714286 L285,62.3609023 C284.233618,62.2857139 283.467247,62.2481203 282.700865,62.2481203 C280.129777,62.2481203 277.978995,62.4235571 276.248455,62.7744361 L276.248455,60.1052632 C275.729293,61.0827117 275.117432,61.7969902 274.412855,62.2481203 C273.708278,62.6992504 272.812119,62.924812 271.724351,62.924812 C269.449927,62.924812 267.620526,62.0664246 266.236094,60.3496241 C264.851662,58.6328235 264.159456,56.0200677 264.159456,52.5112782 C264.159456,49.1779282 264.894925,46.6528908 266.365884,44.9360902 C267.836843,43.2192897 269.845476,42.3609023 272.391842,42.3609023 C273.97405,42.3609023 275.259575,42.6741823 276.248455,43.3007519 L276.248455,37.5112782 C276.248455,36.3583902 276.093945,35.5187996 275.78492,34.9924812 C275.475895,34.4661628 274.938199,34.2030075 274.171817,34.2030075 L274.171817,33.4135338 C274.938199,33.4887222 275.70457,33.5263158 276.470952,33.5263158 C279.04204,33.5263158 281.192822,33.3508789 282.923362,33 L282.923362,58.2631579 Z M273.578492,60.9699248 C274.29543,60.9699248 274.919651,60.7130352 275.451174,60.1992481 C275.982697,59.6854611 276.248455,59.0401041 276.248455,58.2631579 L276.248455,44.0902256 C275.704571,43.7644094 275.123612,43.6015038 274.505562,43.6015038 C273.343628,43.6015038 272.484552,44.3471103 271.928307,45.8383459 C271.372061,47.3295814 271.093943,49.5914635 271.093943,52.6240602 C271.093943,55.7067823 271.316438,57.8684148 271.761434,59.1090226 C272.20643,60.3496303 272.81211,60.9699248 273.578492,60.9699248 Z"
                          id="Cabinfield"></path>
                </g>
            </g>
        </g>
    </g>
</svg>
