<svg width="60" height="60" viewBox="0 0 60 60" fill="none" xmlns="http://www.w3.org/2000/svg">
    <path d="M29.9813 59.568C46.3213 59.568 59.5675 46.3342 59.5675 30.0095C59.5675 13.6848 46.3213 0.45105 29.9813 0.45105C13.6412 0.45105 0.39502 13.6848 0.39502 30.0095C0.39502 46.3342 13.6412 59.568 29.9813 59.568Z"
          fill="white"/>
    <path fill-rule="evenodd" clip-rule="evenodd"
          d="M0.608297 35.9508C3.43958 49.914 15.7212 59.9542 29.9815 59.9633C33.9905 59.9709 37.9599 59.1702 41.6518 57.6089C56.9088 51.1698 64.0521 33.5933 57.6069 18.3507C51.1616 3.10808 33.5686 -4.02851 18.3117 2.41064C5.17923 7.96361 -2.22299 21.9876 0.608297 35.9508ZM1.38205 24.2256C4.13871 10.6302 16.0969 0.854485 29.9815 0.845775C33.8848 0.838046 37.7496 1.61752 41.3442 3.1375C56.1808 9.41841 63.12 26.5195 56.8496 41.349C50.5792 56.1786 33.4697 63.1302 18.6193 56.882C5.83273 51.4755 -1.37462 37.821 1.38205 24.2256Z"
          fill="#627590"/>
    <path d="M44.3182 15.4584C44.2449 15.4584 44.1745 15.4299 44.1218 15.3789C40.3325 11.7088 35.2591 9.66124 29.9815 9.67211C29.194 9.67202 28.4072 9.71702 27.6249 9.80688C27.5247 9.81847 27.4259 9.77575 27.3657 9.69483C27.3056 9.61391 27.2932 9.50707 27.3333 9.41457C27.3734 9.32206 27.4598 9.25794 27.56 9.24636C28.3639 9.15424 29.1723 9.10811 29.9815 9.1082C35.4054 9.09706 40.6196 11.2012 44.5141 14.9728C44.597 15.0526 44.623 15.1747 44.58 15.2814C44.5369 15.388 44.4333 15.4578 44.3182 15.4578V15.4584Z"
          fill="#627590"/>
    <path d="M29.9815 50.9114C22.6583 50.9087 15.8693 47.082 12.0801 40.8213C8.29083 34.5605 8.05267 26.7765 11.4521 20.2962C12.9798 17.4031 15.1606 14.9048 17.8218 12.9992C17.9037 12.9384 18.012 12.9266 18.1051 12.9681C18.1983 13.0097 18.2617 13.0982 18.2711 13.1997C18.2804 13.3012 18.2343 13.3998 18.1503 13.4577C12.7969 17.273 9.62143 23.4398 9.62724 30.0095C9.63095 38.0538 14.3801 45.34 21.7425 48.5968C29.1049 51.8536 37.6969 50.4689 43.6609 45.0646C49.6249 39.6602 51.8401 31.2517 49.3119 23.6142C49.2652 23.4672 49.3454 23.31 49.492 23.2614C49.6385 23.2128 49.797 23.2909 49.8476 23.4366C51.9639 29.8095 50.8858 36.8103 46.95 42.2529C43.0141 47.6956 36.7001 50.917 29.9793 50.9114H29.9815Z"
          fill="#627590"/>
    <path fill-rule="evenodd" clip-rule="evenodd"
          d="M40.6263 15.2317H40.6206C40.5032 15.2317 37.7268 15.2745 36.0667 16.8642L36.0425 16.8873L36.0199 16.9127L35.7603 17.2014L31.1138 22.3894L30.783 22.0973C30.2439 21.62 29.4199 21.6682 28.9401 22.205L28.7143 22.4599L28.5873 22.3443C28.2881 22.0729 27.8927 21.9321 27.4891 21.9533C27.0855 21.9745 26.7071 22.1558 26.438 22.4571L25.1843 23.8533C24.9151 24.1528 24.7761 24.5468 24.7978 24.9487C24.8195 25.3506 25.0001 25.7274 25.3 25.9962L25.4338 26.118L25.146 26.44C24.8044 26.8228 24.7177 27.3695 24.9241 27.8391C23.8167 28.1718 22.8684 28.7413 21.9715 29.5906C21.5031 30.0349 20.5604 30.3236 19.7905 30.4844V30.0332C21.2125 28.8644 21.7514 26.9321 21.1393 25.1971C20.5273 23.462 18.8948 22.2943 17.0536 22.2744H17.0141C15.4198 22.2746 13.9516 23.1404 13.1809 24.5348C12.4103 25.9291 12.4589 27.6317 13.3079 28.9798C13.6309 29.4909 14.056 29.93 14.5565 30.2695V31.4661C13.6924 31.7811 12.9095 32.2847 12.2649 32.9402C11.6682 33.556 11.4182 34.0985 11.3917 34.1582L11.2935 34.3799L11.3194 34.6206L11.5949 37.1836L11.684 37.99L12.4985 37.9872L36.6284 37.8947L46.7595 37.8558C47.1276 37.8546 47.47 37.6668 47.6687 37.3572C47.8674 37.0476 47.8953 36.6584 47.7428 36.3237L46.0111 32.2855L45.7762 31.7402H45.476C45.7422 31.1659 45.8831 30.5415 45.8891 29.9086C45.8891 28.9077 45.3924 27.9186 44.9121 26.9627L44.91 26.9585C44.5189 26.1788 44.1151 25.3737 44.1151 24.7793C44.1151 24.2295 44.4035 23.6165 44.8872 23.1389C45.4184 22.615 46.0957 22.3268 46.7945 22.3268H46.8165L48.1407 22.2947L49.2634 22.2676L48.9935 21.177C48.9783 21.115 48.6069 19.6432 47.3894 18.1849C46.2639 16.8377 44.1777 15.2317 40.6263 15.2317ZM48.1187 21.3924C48.1187 21.3924 46.8267 16.1339 40.6286 16.1339V16.1368C40.6286 16.1368 38.1123 16.1582 36.6922 17.5183L36.4319 17.8076L31.1877 23.6599L30.1847 22.7734C30.0177 22.6254 29.7622 22.6403 29.6135 22.8067L28.7781 23.7405L27.9795 23.0091C27.8582 22.9 27.6983 22.8437 27.5353 22.8528C27.3723 22.8619 27.2197 22.9356 27.1113 23.0576L25.8594 24.455C25.7501 24.5767 25.6938 24.7369 25.7029 24.9001C25.712 25.0634 25.7858 25.2163 25.908 25.3251L26.7044 26.0526L25.8199 27.0394C25.748 27.1194 25.711 27.2246 25.7169 27.3319C25.7228 27.4392 25.7713 27.5397 25.8515 27.6112L26.745 28.4108C24.8288 28.5823 23.6175 29.2708 22.5941 30.2424C21.4844 31.2975 18.888 31.5394 18.888 31.5394V29.5725C20.1819 28.7438 20.7775 27.1646 20.3526 25.6889C19.9276 24.2133 18.5831 23.1916 17.0462 23.1766H17.0141C15.4033 23.1781 14.0047 24.285 13.6345 25.8512C13.2643 27.4173 14.0197 29.0323 15.4596 29.7535V32.1219C12.9941 32.7693 12.2169 34.5208 12.2169 34.5208L12.4929 37.0838L36.625 36.9924L46.7561 36.9569C46.8187 36.9567 46.8767 36.9244 46.9096 36.8713C46.9426 36.8182 46.9458 36.7518 46.9181 36.6958L45.1808 32.6447H43.8007C43.9006 32.5426 44.986 31.4154 44.986 29.9108C44.986 29.122 44.5464 28.2463 44.1048 27.3669C43.6594 26.4798 43.212 25.5889 43.212 24.7793C43.212 23.167 44.793 21.4246 46.7945 21.4246L48.1187 21.3924ZM43.5467 32.6447H43.799L43.7906 32.6526L43.5467 32.6447ZM39.3692 25.6184C39.3692 29.6571 37.5952 31.765 36.8953 32.4417V32.44C35.6084 32.1517 34.855 31.5621 33.8712 30.792L33.7497 30.6969C32.4227 29.6582 31.462 28.9849 29.4752 28.5902L37.8819 19.1712C38.2539 19.589 39.3692 21.1578 39.3692 25.6184ZM37.7352 20.6898L31.1234 28.1007C32.399 28.5462 33.2632 29.171 34.304 29.9858L34.4349 30.0885C35.2302 30.711 35.7986 31.1554 36.6069 31.4255C36.9947 30.9619 37.3208 30.4501 37.5772 29.9029C38.1659 28.6657 38.4645 27.2238 38.4645 25.6172C38.4645 23.8014 38.276 22.3003 37.9046 21.1556C37.8481 20.9824 37.7917 20.8274 37.7352 20.6898Z"
          fill="#627590"/>
    <path d="M17.046 30.6479C16.4618 30.6479 15.8386 30.6056 15.2397 30.296L15.4734 29.8449C15.9741 30.1043 16.5244 30.1398 17.0443 30.1398C17.728 30.1409 18.397 29.9411 18.9679 29.5652L19.2473 29.9887C18.5941 30.4195 17.8286 30.6487 17.046 30.6479Z"
          fill="#627590"/>
    <path d="M12.1797 34.2626H46.22V34.8265H12.1797V34.2626Z" fill="#627590"/>
    <path d="M44.567 32.6316H38.8527L36.8687 32.4241L36.9217 31.9194L38.8792 32.1241H44.567V32.6316Z" fill="#627590"/>
    <path fill-rule="evenodd" clip-rule="evenodd"
          d="M26.2852 31.4301C26.2852 32.1152 26.8411 32.6707 27.5269 32.6707C28.2127 32.6707 28.7687 32.1152 28.7687 31.4301C28.7687 30.7449 28.2127 30.1895 27.5269 30.1895C26.8411 30.1895 26.2852 30.7449 26.2852 31.4301ZM26.7932 31.4301C26.7932 31.0252 27.1217 30.697 27.5269 30.697V30.6998C27.9311 30.6998 28.2591 31.0263 28.2607 31.4301C28.2607 31.8349 27.9322 32.1631 27.5269 32.1631C27.1217 32.1631 26.7932 31.8349 26.7932 31.4301Z"
          fill="#627590"/>
    <path d="M15.3644 32.1512L15.2515 31.6566C15.2707 31.6521 17.179 31.2145 18.97 30.9766L19.0372 31.4796C17.2688 31.7141 15.383 32.1467 15.3644 32.1512Z"
          fill="#627590"/>
    <rect width="6.44084" height="0.451365" transform="matrix(0.666103 -0.74586 0.746487 0.6654 26.667 28.156)"
          fill="#627590"/>
    <path d="M26.2832 25.9149L28.5156 23.3931L28.8538 23.692L26.6214 26.2138L26.2832 25.9149Z" fill="#627590"/>
    <path d="M29.7663 28.6775C28.178 28.2619 26.3542 28.4678 26.3362 28.47L26.2837 28.0217C26.361 28.0127 28.2084 27.8035 29.8809 28.2411L29.7663 28.6775Z"
          fill="#627590"/>
    <path d="M37.6086 19.4317C37.2135 18.5295 36.3137 17.6306 36.3047 17.6216L36.5824 17.3396C36.6219 17.3779 37.5471 18.2983 37.971 19.2727L37.6086 19.4317Z"
          fill="#627590"/>
    <rect x="11.8545" y="39.1674" width="36.4803" height="0.676689" fill="#627590"/>
    <path fill-rule="evenodd" clip-rule="evenodd"
          d="M21.012 44.9847L22.9255 45.9896L22.5603 43.8608L24.1103 42.353L21.971 42.0422L21.0143 40.1052L20.0548 42.0422L17.9155 42.353L19.4638 43.8608L19.098 45.9896L21.012 44.9847ZM22.0281 44.753L21.0121 44.2201L19.9983 44.753L20.1919 43.6252L19.3712 42.8261L20.5052 42.6614L21.0132 41.6351L21.5212 42.6614L22.6552 42.8261L21.8345 43.6252L22.0281 44.753Z"
          fill="#627590"/>
    <path fill-rule="evenodd" clip-rule="evenodd"
          d="M28.7963 43.8608L28.4305 45.9896L30.3429 44.9847L32.2563 45.9896L31.8911 43.8608L33.4433 42.353L31.3035 42.0422L30.3468 40.1052L29.3873 42.0422L27.248 42.353L28.7963 43.8608ZM31.3606 44.753L30.3446 44.2201L29.3309 44.753L29.5245 43.6252L28.7038 42.8261L29.8377 42.6614L30.3457 41.6351L30.8537 42.6614L31.9877 42.8261L31.167 43.6252L31.3606 44.753Z"
          fill="#627590"/>
    <path fill-rule="evenodd" clip-rule="evenodd"
          d="M39.6768 44.9847L41.5903 45.9896L41.2251 43.8608L42.7733 42.353L40.6341 42.0422L39.6774 40.1052L38.7178 42.0422L36.5786 42.353L38.1269 43.8608L37.7611 45.9896L39.6768 44.9847ZM40.6928 44.753L39.6768 44.2201L38.6603 44.7524L38.8539 43.6246L38.0338 42.8255L39.1672 42.6609L39.6751 41.6346L40.1831 42.6609L41.3171 42.8255L40.4992 43.6252L40.6928 44.753Z"
          fill="#627590"/>
    <rect x="18.6143" y="46.8682" width="22.9135" height="0.676693" fill="#627590"/>
    <path d="M25.0894 47.2567H25.7667V50.2939H25.0894V47.2567Z" fill="#627590"/>
    <path d="M35.0708 47.2567H35.7481V50.0119H35.0708V47.2567Z" fill="#627590"/>
    <rect x="10.564" y="37.0284" width="38.8775" height="0.902256" fill="#627590"/>
    <path d="M45.1389 52.0195C45.0444 51.9037 45.0046 51.7528 45.0299 51.6056C45.0587 51.4697 45.1518 51.3445 45.3121 51.2306C45.4724 51.1167 45.6068 51.0772 45.7423 51.0952C45.8777 51.1133 45.9963 51.1928 46.0973 51.3326C46.1906 51.4478 46.2295 51.5977 46.204 51.7437C46.1665 51.8935 46.073 52.0233 45.9426 52.1063C45.8186 52.2061 45.662 52.2567 45.5029 52.2484C45.3533 52.2305 45.2197 52.1464 45.1389 52.0195Z"
          fill="#627590"/>
    <path fill-rule="evenodd" clip-rule="evenodd"
          d="M42.6626 53.1817L43.1949 53.7761L44.2792 53.2212L41.1844 50.1592L39.8613 50.8359L40.5471 55.1278L41.6365 54.5718L41.4705 53.7902L42.6626 53.1817ZM41.5755 51.953L42.0412 52.474L41.2606 52.8727C41.1187 52.2193 41.0198 51.7836 40.9637 51.5655C40.9076 51.3475 40.8655 51.1919 40.8373 51.0986C40.9016 51.1817 41.0145 51.3161 41.1759 51.5018C41.3374 51.6875 41.4706 51.8379 41.5755 51.953Z"
          fill="#627590"/>
    <path d="M37.9427 55.4926C37.8868 55.3539 37.8938 55.1978 37.9619 55.0646C38.0296 54.9435 38.1563 54.852 38.3418 54.79C38.5179 54.7336 38.6686 54.7336 38.7933 54.79C38.9256 54.8577 39.0229 54.9785 39.0609 55.1221C39.1156 55.2598 39.108 55.4145 39.04 55.5462C38.9598 55.6782 38.8319 55.7743 38.6827 55.8146C38.5347 55.8732 38.3702 55.875 38.221 55.8197C38.0836 55.7582 37.9813 55.638 37.9427 55.4926Z"
          fill="#627590"/>
    <path d="M36.402 55.1463C36.451 55.3822 36.4288 55.6274 36.3382 55.8507C36.2411 56.0779 36.0796 56.272 35.8737 56.4089C35.6285 56.5728 35.3513 56.6827 35.0604 56.7315C34.8336 56.7784 34.6027 56.8028 34.3712 56.8042C34.1657 56.7989 33.9616 56.7688 33.7633 56.7146L33.5776 55.7413C33.8051 55.8082 34.0392 55.8506 34.2758 55.8676C34.4885 55.8858 34.7027 55.8763 34.913 55.8394C35.0756 55.8082 35.1885 55.7574 35.2517 55.6871C35.3143 55.6247 35.3414 55.5352 35.3239 55.4486C35.315 55.3963 35.2892 55.3484 35.2506 55.3121C35.2007 55.2692 35.1433 55.2359 35.0812 55.214C35.0062 55.1847 34.8097 55.1322 34.4937 55.0567C34.264 55.008 34.0419 54.9287 33.8333 54.821C33.6871 54.7401 33.5614 54.6269 33.4658 54.4899C33.3673 54.3388 33.3012 54.1688 33.2717 53.9909C33.2005 53.6183 33.2807 53.302 33.5121 53.0418C33.7435 52.7817 34.0965 52.6065 34.571 52.5163C35.015 52.4374 35.4707 52.4532 35.9081 52.5625L35.7343 53.4704C35.3226 53.3689 34.9795 53.3443 34.7048 53.3965C34.5625 53.4236 34.4639 53.4683 34.409 53.5307C34.3563 53.5844 34.3333 53.6605 34.3475 53.7343C34.3681 53.8202 34.4291 53.8908 34.5112 53.9238C34.6056 53.9708 34.8502 54.0426 35.2449 54.1392C35.6239 54.2298 35.8984 54.352 36.0684 54.5057C36.2385 54.6595 36.3497 54.873 36.402 55.1463Z"
          fill="#627590"/>
    <path d="M31.0901 56.6588C31.0701 56.5106 31.1154 56.361 31.2143 56.2488C31.3098 56.1481 31.4549 56.0905 31.6494 56.0763C31.8351 56.0627 31.9807 56.0988 32.0869 56.1857C32.193 56.2725 32.2522 56.4011 32.2652 56.5736C32.2843 56.7205 32.2388 56.8683 32.1405 56.9791C32.0304 57.0877 31.8826 57.1496 31.7279 57.1517C31.5691 57.173 31.4081 57.1344 31.2764 57.0434C31.16 56.9493 31.0917 56.8083 31.0901 56.6588Z"
          fill="#627590"/>
    <path d="M29.6183 53.0791L29.3818 55.5451C29.3303 56.0811 29.1385 56.4819 28.8067 56.7473C28.4748 57.0127 28.0232 57.1178 27.452 57.0625C26.8928 57.0091 26.4769 56.8251 26.204 56.5105C25.9312 56.1958 25.8206 55.7704 25.8722 55.2343L26.1109 52.7424L27.2245 52.849L26.9943 55.2541C26.9668 55.5436 27.0008 55.759 27.0964 55.9003C27.192 56.0417 27.3457 56.1223 27.5576 56.1422C27.7833 56.1637 27.9536 56.1144 28.0684 55.9945C28.1831 55.8746 28.2531 55.667 28.2783 55.3719L28.5086 52.9731L29.6183 53.0791Z"
          fill="#627590"/>
    <path d="M18.8865 54.7967L17.6041 54.1008L17.6662 50.8347L17.6442 50.8222C17.456 51.2407 17.3055 51.5553 17.1926 51.7662L16.3064 53.3971L15.4395 52.9268L17.406 49.3087L18.6833 50.0023L18.6347 53.233L18.6494 53.2414C18.8244 52.8655 18.9719 52.5664 19.0919 52.3442L19.9809 50.7089L20.853 51.182L18.8865 54.7967Z"
          fill="#627590"/>
    <path d="M12.855 50.9677L15.4091 47.736L16.2873 48.4284L13.7349 51.6602L12.855 50.9677Z" fill="#627590"/>
    <path fill-rule="evenodd" clip-rule="evenodd"
          d="M6.48227 27.561L7.24088 27.4172L7.32329 26.2443L3.24012 27.2762L3.13965 28.7063L7.03994 30.2818L7.12235 29.1038L6.39196 28.8512L6.48227 27.561ZM4.9238 27.8469L5.58814 27.7217L5.53057 28.5664C4.92041 28.3578 4.51006 28.2219 4.29953 28.1593C4.08899 28.0967 3.93941 28.0538 3.84798 28.0313C3.94845 28.0196 4.1159 27.9935 4.35033 27.9529C4.58476 27.9123 4.77591 27.877 4.9238 27.8469Z"
          fill="#627590"/>
    <path d="M7.92051 23.8031L4.93744 23.7467L4.93067 23.7704C5.40856 23.8764 5.77714 23.9689 6.03641 24.0478L7.69191 24.5553L7.41308 25.4666L3.60254 24.2993L4.02135 22.9296L6.96943 22.9612L6.9762 22.9403L4.50847 21.336L4.92785 19.9623L8.73839 21.1251L8.44939 22.0702L6.77865 21.5627C6.69173 21.536 6.59577 21.5053 6.49078 21.4707C6.3858 21.4362 6.12954 21.3452 5.72202 21.1978L5.71468 21.2215L8.21967 22.8253L7.92051 23.8031Z"
          fill="#627590"/>
    <path d="M9.35159 20.0261L5.80859 18.2046L6.30361 17.2432L9.84661 19.0646L9.35159 20.0261Z" fill="#627590"/>
    <path d="M10.9725 15.1094C11.1663 15.2392 11.317 15.4237 11.4054 15.6394C11.4918 15.8623 11.5114 16.1054 11.4619 16.3392C11.4031 16.6182 11.2857 16.8815 11.1176 17.1118C10.9928 17.2975 10.8496 17.4701 10.6903 17.6272C10.5447 17.7624 10.3835 17.8796 10.2099 17.9763L9.42254 17.4287C9.62515 17.3213 9.81569 17.1925 9.99093 17.0447C10.1502 16.9131 10.2917 16.7615 10.412 16.5936C10.5034 16.4622 10.548 16.3505 10.5446 16.2552C10.5454 16.1695 10.5029 16.0893 10.4318 16.0415C10.3902 16.0116 10.3401 15.996 10.289 15.9969C10.225 16.0013 10.1625 16.0173 10.1044 16.0443C10.0321 16.0748 9.86111 16.171 9.59131 16.333C9.39967 16.4543 9.19253 16.5491 8.9755 16.615C8.81973 16.658 8.65614 16.6645 8.49742 16.6342C8.32702 16.5963 8.16633 16.5236 8.02555 16.4204C7.72452 16.2114 7.56591 15.9387 7.54973 15.6022C7.53355 15.2657 7.65885 14.9062 7.92564 14.5235C8.17914 14.1688 8.50503 13.8718 8.88181 13.6522L9.37569 14.3971C9.02235 14.6047 8.76854 14.8195 8.61426 15.0417C8.53411 15.1545 8.49629 15.2537 8.50137 15.3338C8.50117 15.4067 8.53684 15.475 8.59676 15.5165C8.66921 15.5621 8.7593 15.5696 8.83834 15.5368C8.93505 15.5056 9.15274 15.39 9.4914 15.19C9.81426 14.9964 10.0865 14.8954 10.3081 14.8872C10.5481 14.8855 10.7819 14.9637 10.9725 15.1094Z"
          fill="#627590"/>
    <path d="M15.0183 12.6101L14.25 13.3714L13.1059 12.2199L12.2181 13.1002L13.3622 14.2517L12.594 15.0135L9.7876 12.1878L10.5552 11.4265L11.5961 12.4737L12.4839 11.5934L11.4431 10.5451L12.2113 9.78381L15.0183 12.6101Z"
          fill="#627590"/>
    <path d="M22.3599 8.38979L21.3682 8.82174L20.7191 7.33415L19.5721 7.83321L20.2218 9.32081L19.2295 9.75558L17.6372 6.10651L18.6267 5.67174L19.2171 7.02512L20.364 6.52606L19.7736 5.17268L20.7653 4.74072L22.3599 8.38979Z"
          fill="#627590"/>
    <path fill-rule="evenodd" clip-rule="evenodd"
          d="M25.5812 6.81871L25.9301 7.50724L27.0809 7.25968L24.9524 3.62866L23.5481 3.93035L23.1191 8.11119L24.2757 7.8625L24.3158 7.09107L25.5812 6.81871ZM24.8712 5.40047L25.1771 6.00329L24.3468 6.1843C24.3767 5.53637 24.3914 5.10498 24.3953 4.88731C24.3993 4.66964 24.3987 4.51344 24.3953 4.41983C24.4344 4.51344 24.5061 4.66701 24.6104 4.88054C24.7146 5.09408 24.8015 5.26738 24.8712 5.40047Z"
          fill="#627590"/>
    <path d="M31.6727 7.17119L30.2616 7.17739L28.794 4.37871H28.7698C28.8074 4.81969 28.8262 5.15634 28.8262 5.38867L28.8336 7.18303L27.8797 7.18698L27.8633 3.20634L29.2699 3.2007L30.7312 5.96104H30.747C30.7195 5.55841 30.7058 5.23623 30.7058 4.9945L30.6985 3.1945L31.658 3.19055L31.6727 7.17119Z"
          fill="#627590"/>
    <path fill-rule="evenodd" clip-rule="evenodd"
          d="M35.7788 7.3612C36.2108 7.08225 36.493 6.6174 36.6254 5.96665C36.7515 5.36176 36.6762 4.86458 36.3997 4.47511C36.1231 4.08563 35.6715 3.8268 35.045 3.6986L33.6937 3.42285L32.895 7.32285L34.1582 7.58056C34.8066 7.71326 35.3468 7.64014 35.7788 7.3612ZM35.4734 4.94202C35.5799 5.14352 35.5965 5.42304 35.5231 5.78055C35.4456 6.16289 35.3131 6.43168 35.1257 6.58695C34.9383 6.74221 34.6843 6.78713 34.3637 6.72172L34.1289 6.67379L34.5754 4.4892L34.8824 4.55179C35.1699 4.61044 35.3669 4.74052 35.4734 4.94202Z"
          fill="#627590"/>
    <path d="M40.0896 6.09802C39.8691 5.99978 39.6131 6.02462 39.4157 6.16343C39.2034 6.30253 39.0283 6.54313 38.8902 6.88523C38.6008 7.59463 38.7261 8.05929 39.2661 8.27922C39.4265 8.34456 39.5955 8.38671 39.7679 8.40441C39.9436 8.4215 40.1202 8.42941 40.2968 8.42809L39.953 9.27057C39.5653 9.27682 39.1806 9.20131 38.8241 9.04896C38.2672 8.82339 37.9062 8.48824 37.741 8.0435C37.5758 7.59877 37.6176 7.07245 37.8663 6.46456C38.001 6.11305 38.2163 5.79802 38.4951 5.54482C38.7436 5.32099 39.0537 5.17697 39.3852 5.13147C39.7422 5.08945 40.1039 5.14297 40.4333 5.28655C40.8295 5.44704 41.1841 5.69495 41.4708 6.01174L40.8454 6.67151C40.7381 6.55495 40.6234 6.44533 40.5022 6.34332C40.3782 6.24066 40.239 6.1579 40.0896 6.09802Z"
          fill="#627590"/>
    <path fill-rule="evenodd" clip-rule="evenodd"
          d="M41.8354 10.5393L42.6154 9.3179L42.8446 9.46452L42.7774 11.1399L43.8075 11.7952L43.7612 9.70869C44.2767 9.7399 44.6581 9.55907 44.9053 9.16621C45.3272 8.50719 45.0814 7.88689 44.1682 7.30531L43.067 6.60437L40.9277 9.96133L41.8354 10.5393ZM43.2193 8.74382L43.05 8.63555L43.5388 7.87034L43.7178 7.98312C44.029 8.18086 44.1109 8.39533 43.9633 8.62653C43.7846 8.9066 43.5366 8.9457 43.2193 8.74382Z"
          fill="#627590"/>
    <path fill-rule="evenodd" clip-rule="evenodd"
          d="M46.5245 13.2794L46.1554 13.9561L47.0122 14.7631L48.797 10.9522L47.7516 9.96814L44.063 11.9869L44.9238 12.7973L45.5825 12.3924L46.5245 13.2794ZM47.291 11.8905L46.9676 12.4837L46.3518 11.9052C46.901 11.564 47.2662 11.3322 47.4468 11.211C47.6274 11.0898 47.7555 11.0012 47.8312 10.9448C47.7766 11.0317 47.6906 11.1777 47.5732 11.383C47.4558 11.5882 47.3618 11.7574 47.291 11.8905Z"
          fill="#627590"/>
    <path d="M48.142 16.284L47.5059 15.4381L50.6927 13.0488L52.1038 14.93L51.4129 15.4483L50.6357 14.4141L50.0278 14.8697L50.7441 15.8238L50.0532 16.3421L49.3369 15.3879L48.142 16.284Z"
          fill="#627590"/>
    <path d="M50.3127 19.7717L49.8047 18.8221L52.5496 17.3683L52.0929 16.5101L52.8702 16.0973L54.2875 18.7612L53.5091 19.1729L53.0536 18.3168L50.3127 19.7717Z"
          fill="#627590"/>
    <path d="M51.9003 23.7738L51.1299 21.5413L54.8975 20.2443L55.6674 22.479L54.8507 22.761L54.4313 21.5413L53.8386 21.7448L54.227 22.8726L53.4102 23.1546L53.0213 22.0268L52.3101 22.271L52.7301 23.489L51.9003 23.7738Z"
          fill="#627590"/>
    <path fill-rule="evenodd" clip-rule="evenodd"
          d="M53.1691 27.538C53.5815 27.8432 54.1163 27.944 54.7733 27.8402C55.3836 27.744 55.8231 27.4989 56.0918 27.1049C56.3605 26.7109 56.4449 26.1981 56.3452 25.5665L56.1302 24.2058L52.1943 24.8261L52.3953 26.0983C52.4988 26.7528 52.7567 27.2327 53.1691 27.538ZM55.3298 26.405C55.1782 26.5738 54.9221 26.6866 54.5616 26.7434C54.177 26.8054 53.8788 26.7759 53.667 26.6549C53.4551 26.5338 53.3234 26.312 53.2719 25.9894L53.2346 25.7526L55.4393 25.4047L55.4884 25.7143C55.5343 26.006 55.4815 26.2362 55.3298 26.405Z"
          fill="#627590"/>
    <path d="M6.52908 42.0507L6.4224 40.7413L5.28223 40.0866L6.49521 39.5808L6.76614 38.295L7.62297 39.2915L8.93021 39.1516L8.24667 40.2738L8.78402 41.4727L7.50443 41.1693L6.52908 42.0507Z"
          fill="#627590"/>
    <path d="M50.8521 39.1189L52.1604 39.2515L53.0116 38.2494L53.2899 39.5334L54.5062 40.0325L53.37 40.6939L53.2707 42.0039L52.2902 41.1281L51.0124 41.4389L51.5429 40.2366L50.8521 39.1189Z"
          fill="#627590"/>
    <path d="M22.2616 25.0234C21.2501 24.5531 20.5327 23.5928 20.2414 22.3195C20.0994 21.7205 20.0695 21.1005 20.1534 20.4907C19.1261 19.5456 18.4279 18.305 18.1186 16.8608C17.8092 15.4166 17.9069 13.8366 18.3878 12.3811C18.7993 11.1354 19.5381 9.92191 20.5236 8.87247C21.5092 7.82304 22.6725 7.01157 23.886 6.5283L24.7745 6.17529L26.9583 8.0892C27.118 8.22905 27.6029 8.65311 27.5521 9.42172L27.481 10.514L26.4271 10.8168C24.6514 11.3283 23.4305 12.1623 22.6962 13.3674C21.7829 14.8663 21.7485 16.4841 22.1075 17.458C22.5113 17.1833 22.9487 16.9615 23.4091 16.7982C23.9087 16.6157 24.4366 16.5223 24.9686 16.5225C25.6217 16.5225 26.299 16.6685 27.0384 16.9685C27.4685 17.1458 27.8598 17.4051 28.1905 17.7321C28.5423 18.0739 28.8124 18.4907 28.9807 18.9512C29.5417 20.5426 28.7447 21.2322 27.3054 21.7708C26.8031 21.958 25.8249 22.7937 25.2441 22.7937C24.8902 22.7926 24.5372 22.76 24.1891 22.6962L24.6706 23.2685L23.0422 25.3883L22.2616 25.0234Z"
          fill="white"/>
    <path fill-rule="evenodd" clip-rule="evenodd"
          d="M22.5472 24.4099L22.8345 24.5435L23.7992 23.282L23.5954 23.039C23.4353 22.8488 23.3226 22.6235 23.2663 22.3815C23.2193 22.1694 23.2094 21.9507 23.237 21.7352L23.3075 21.7595C24.1672 22.0584 25.4411 22.3194 26.6377 21.8723C27.7762 21.4476 28.7584 20.357 28.3407 19.1728C28.2063 18.8105 27.9922 18.4829 27.7141 18.2142C27.4475 17.9494 27.1317 17.7391 26.7845 17.595C25.6212 17.1225 24.652 17.0734 23.6411 17.4377C22.9429 17.6886 22.3598 18.0484 21.9015 18.5091C21.7804 18.331 21.6732 18.1438 21.5809 17.9491C21.047 16.814 21.0041 14.8488 22.1194 13.0172C22.9446 11.6604 24.2931 10.7288 26.2398 10.1683L26.8359 9.99914L26.8765 9.37884C26.9067 8.94905 26.6442 8.71701 26.5153 8.60312L26.5119 8.60008L24.6396 6.95911L24.1367 7.15929C21.8575 8.06663 19.8058 10.2518 19.0308 12.5954C18.5871 13.9381 18.4991 15.4037 18.7813 16.7215C19.0872 18.1493 19.8153 19.3606 20.8934 20.2358C20.7439 20.8716 20.7466 21.5337 20.9013 22.1683C21.1491 23.2488 21.7181 24.0241 22.5472 24.4099ZM24.4291 7.89238L24.4822 7.87152L25.9904 9.19389C26.0881 9.27892 26.0881 9.2887 26.088 9.32448L26.088 9.32753L26.0835 9.39238L26.0208 9.41043C23.876 10.0279 22.3774 11.074 21.4427 12.6084C20.1744 14.6903 20.2381 16.9612 20.8647 18.2881C21.0533 18.6844 21.2925 19.0546 21.5764 19.3894L21.8936 19.7655L22.1922 19.3741C22.5941 18.8486 23.1738 18.4465 23.9076 18.1809C24.7322 17.8837 25.5027 17.9277 26.4854 18.327C26.7378 18.4305 26.9676 18.5824 27.1616 18.7741C27.3548 18.96 27.5039 19.1868 27.5979 19.4379C27.8784 20.233 26.9894 20.9012 26.3634 21.1352C25.3875 21.4995 24.3044 21.2723 23.5706 21.0168C23.3804 20.9514 23.2274 20.895 23.1027 20.8448L22.7076 20.6864L22.5777 21.0901C22.4203 21.5647 22.3934 22.0728 22.4999 22.5614C22.5591 22.8195 22.6618 23.0656 22.8035 23.2894L22.6144 23.5375C22.1584 23.2217 21.8366 22.6939 21.6758 21.9913C21.529 21.3501 21.5465 20.7366 21.726 20.2172L21.8208 19.9431L21.5877 19.7706C20.5435 19.0025 19.8413 17.8905 19.5557 16.5563C19.3 15.3732 19.3813 14.0548 19.7815 12.8429C20.4871 10.708 22.3548 8.71851 24.4291 7.89238ZM24.4968 20.5894C24.1685 20.5891 23.8412 20.5512 23.5215 20.4766L22.8639 20.3243L23.3189 19.8264C23.72 19.3805 24.2217 19.0366 24.7824 18.8232C24.943 18.7705 25.1091 18.7368 25.2775 18.7228C25.4807 18.7006 25.6849 18.6895 25.8893 18.6895H26.1975L26.2788 19.011C26.3304 19.1819 26.3505 19.3607 26.338 19.5388C26.2652 20.1856 25.5275 20.4974 24.862 20.5707C24.7994 20.5775 24.7362 20.5826 24.6735 20.5854C24.6109 20.5882 24.5533 20.5894 24.4968 20.5894ZM25.3666 19.5072C25.4231 19.501 25.4795 19.4959 25.536 19.492C25.4643 19.5975 25.1815 19.7401 24.7739 19.7892C24.7288 19.7943 24.6836 19.7993 24.6396 19.7993H24.577C24.7289 19.7045 24.8903 19.6255 25.0584 19.5636C25.1591 19.535 25.2623 19.5161 25.3666 19.5072Z"
          fill="#627590"/>
    <path d="M23.5938 19.7261C23.4707 19.9516 22.8352 20.1496 22.5659 21.6998L23.5938 19.7261Z" fill="white"/>
    <path d="M22.8507 21.7996L22.4082 21.7223C22.6295 20.4473 23.1002 20.0159 23.3531 19.7841C23.392 19.7517 23.4279 19.7158 23.4603 19.677L23.8554 19.893C23.8024 19.9788 23.7352 20.055 23.6568 20.1185C23.4276 20.3261 23.046 20.6757 22.8507 21.7996Z"
          fill="#627590"/>
    <path d="M22.4129 18.7748C22.2905 19.0003 21.5939 19.205 21.3247 20.7575L22.4129 18.7748Z" fill="white"/>
    <path d="M21.5468 20.7958L21.1021 20.7191C21.3227 19.4458 21.8285 19.0087 22.1005 18.7736C22.1411 18.7409 22.1788 18.7048 22.2134 18.6659L22.6085 18.8824C22.5514 18.9722 22.4786 19.0509 22.3935 19.1148C22.1508 19.3268 21.7404 19.6804 21.5468 20.7958Z"
          fill="#627590"/>
    <path d="M27.7705 20.0035C27.3477 19.3527 26.6032 19.0657 25.5573 19.1492C25.5184 19.1536 25.4791 19.1551 25.4399 19.1537L25.4783 18.7026H25.4648L25.5212 18.6986C26.3617 18.6309 27.5007 18.7601 28.1487 19.7565L27.7705 20.0035Z"
          fill="#627590"/>
</svg>
