<?xml version="1.0" encoding="UTF-8"?>
<svg width="100px" height="100px" viewBox="0 0 100 100" version="1.1" xmlns="http://www.w3.org/2000/svg" xmlns:xlink="http://www.w3.org/1999/xlink">
    <!-- Generator: sketchtool 51.3 (57544) - http://www.bohemiancoding.com/sketch -->
    <title>024A3F58-A6E6-4ECB-8E4B-EDC3B0A5C9A9</title>
    <desc>Created with sketchtool.</desc>
    <defs></defs>
    <g id="Page-1" stroke="none" stroke-width="1" fill="none" fill-rule="evenodd">
        <g id="Product_gazebo" transform="translate(-969.000000, -306.000000)">
            <g id="amish" transform="translate(969.000000, 306.000000)">
                <g id="Artboard-17">
                    <circle id="Oval" fill="#FFFFFF" fill-rule="nonzero" cx="49.8751174" cy="49.9690141" r="49.2178404"></circle>
                    <path d="M49.8751174,99.8450704 C26.1527026,99.8299719 5.72172787,83.1119863 1.01178359,59.8618333 C-3.6981607,36.6116803 8.61569522,13.260348 30.4619718,4.01408451 C55.8424379,-6.70775901 85.1091424,5.17540247 95.8309859,30.5558685 C106.552829,55.9363346 94.669668,85.2030391 69.2892019,95.9248826 C63.1474984,98.5244759 56.5443186,99.8578226 49.8751174,99.8450704 Z M49.8751174,1.4084507 C26.7775842,1.4229549 6.88471048,17.7005323 2.29889197,40.3382557 C-2.28692655,62.9759791 9.70277012,85.7121424 30.9737089,94.714554 C55.6779476,105.118327 84.1401659,93.5432093 94.5712343,68.8504835 C105.002303,44.1577577 93.4586475,15.6827644 68.7774648,5.22441315 C62.7976379,2.69348471 56.3684803,1.39558116 49.8751174,1.4084507 Z" id="Shape" fill="#B4ABAB" fill-rule="nonzero"></path>
                    <path d="M73.7248826,25.7399061 C73.6028989,25.7399008 73.4857064,25.6924177 73.3981221,25.6075117 C67.0945306,19.4964403 58.6546465,16.0870667 49.8751174,16.1051643 C48.5651741,16.1050201 47.256299,16.1799473 45.9549296,16.3295775 C45.7882056,16.3488665 45.6238558,16.277744 45.5237891,16.1430014 C45.4237224,16.0082587 45.4031413,15.8303664 45.4697985,15.6763347 C45.5364557,15.522303 45.6802244,15.4155331 45.8469484,15.3962441 C47.1841907,15.2428661 48.5291077,15.1660584 49.8751174,15.1661972 C58.8980642,15.1476537 67.5719877,18.6513165 74.0507042,24.9314554 C74.1885585,25.0643266 74.2319154,25.2675981 74.1602737,25.4451539 C74.088632,25.6227096 73.9163469,25.7389721 73.7248826,25.7389671 L73.7248826,25.7399061 Z" id="Shape" fill="#B4ABAB" fill-rule="nonzero"></path>
                    <path d="M49.8751174,84.77277 C37.6927549,84.768159 26.3988917,78.3963802 20.0953771,67.9716174 C13.7918625,57.5468546 13.3956739,44.5856067 19.0507042,33.7953052 C21.5922169,28.9779326 25.2199835,24.8181364 29.6469484,21.6450704 C29.7831766,21.5438925 29.9634006,21.5241009 30.1183395,21.5933037 C30.2732785,21.6625065 30.3788156,21.809932 30.3943809,21.9789079 C30.4099462,22.1478837 30.3331169,22.312108 30.1934272,22.4084507 C21.287848,28.7613749 16.0053629,39.0296863 16.0150235,49.9690141 C16.0211968,63.3634934 23.9216458,75.4957204 36.1692656,80.9186275 C48.4168855,86.3415346 62.7099785,84.0359937 72.631302,75.0371353 C82.5526256,66.0382769 86.2376632,52.0372582 82.0319249,39.3201878 C81.9542256,39.0753475 82.0877215,38.8135215 82.3315155,38.7325994 C82.5753096,38.6516772 82.8388737,38.7817078 82.9230047,39.0244131 C86.4435994,49.6359617 84.6502041,61.2928863 78.1027793,70.3554896 C71.5553544,79.4180928 61.0516773,84.7821329 49.8713615,84.77277 L49.8751174,84.77277 Z" id="Shape" fill="#B4ABAB" fill-rule="nonzero"></path>
                    <path d="M67.5868545,26.8647887 C77.8976526,26.8647887 80.0469484,35.6206573 80.0469484,35.6206573 L77.8441315,35.6741784 C74.514554,35.6741784 71.884507,38.5755869 71.884507,41.2600939 C71.884507,43.9446009 74.8356808,47.1661972 74.8356808,49.8046948 C74.8356808,52.3098592 73.0300469,54.1868545 72.8638498,54.3568075 L72.4413146,54.3568075 L72.8469484,54.3699531 L72.8610329,54.3568075 L75.1596244,54.3568075 L78.0497653,61.1023474 C78.0957825,61.1956395 78.0904414,61.3060665 78.0356352,61.394482 C77.9808291,61.4828974 77.8843054,61.536803 77.7802817,61.5370892 L60.9267606,61.5962441 L20.7821596,61.7483568 L20.3230047,57.4807512 C20.3230047,57.4807512 21.6159624,54.5643192 25.7173709,53.486385 L25.7173709,49.542723 C23.3219989,48.3419073 22.06545,45.6526925 22.6812315,43.0449006 C23.2970129,40.4371087 25.6237791,38.5940268 28.3032864,38.5915493 L28.3568075,38.5915493 C30.9134375,38.6165684 33.1501144,40.3177031 33.8569993,42.7747942 C34.5638841,45.2318853 33.5731351,47.8615239 31.4206573,49.2413146 L31.4206573,52.5164319 C31.4206573,52.5164319 35.7399061,52.113615 37.5859155,50.3568075 C39.2882629,48.7389671 41.3032864,47.5924883 44.4910798,47.3070423 L43.0046948,45.9755869 C42.8712184,45.8564501 42.7906526,45.6890841 42.7807869,45.5104443 C42.7709212,45.3318044 42.832567,45.1565845 42.9521127,45.0234742 L44.4234742,43.3802817 L43.0985915,42.1690141 C42.8953639,41.9878339 42.7726205,41.7332055 42.7574692,41.4613632 C42.7423179,41.189521 42.8360052,40.9228297 43.0178404,40.7201878 L45.1004695,38.3934272 C45.2806901,38.1902669 45.5345662,38.067471 45.8057187,38.052309 C46.0768712,38.037147 46.3428545,38.1308741 46.5446009,38.3126761 L47.8732394,39.5305164 L49.2629108,37.9755869 C49.5103035,37.6984897 49.9352286,37.6737164 50.2131455,37.9201878 L51.8816901,39.3962441 L60.6056338,29.6516432 L61.0384977,29.1699531 C63.400939,26.9051643 67.5868545,26.8694836 67.5868545,26.8694836 L67.5868545,26.8647887 Z M61.3765258,54.0187793 C62.5408451,52.8920188 65.4920188,49.3821596 65.4920188,42.657277 C65.4920188,35.2300469 63.6366197,32.6178404 63.0178404,31.9220657 L49.0328638,47.6056338 C52.3380282,48.2629108 53.9361502,49.3840376 56.143662,51.113615 C57.8816901,52.4732394 59.1483568,53.5164319 61.3765258,54.0159624 L61.3765258,54.0187793 Z M67.5868545,25.3624413 L67.5737089,25.3624413 C67.3784038,25.3624413 62.7596244,25.4338028 59.9981221,28.0807512 L59.9577465,28.1192488 L59.9201878,28.1615023 L59.4882629,28.6422535 L51.7586854,37.2807512 L51.2084507,36.7943662 C50.3115521,35.9996117 48.9408359,36.0797976 48.142723,36.9737089 L47.7671362,37.3981221 L47.5558685,37.2056338 C47.0580756,36.7536805 46.4003765,36.5192885 45.7289481,36.5545526 C45.0575197,36.5898167 44.4279924,36.8918151 43.9802817,37.3934272 L41.8948357,39.7183099 C41.4469892,40.2168915 41.2156502,40.8730186 41.2517525,41.5422322 C41.2878548,42.2114457 41.5884384,42.8388771 42.0873239,43.286385 L42.3098592,43.4892019 L41.8309859,44.0253521 C41.2627676,44.6627878 41.1185722,45.5730901 41.4619718,46.3549296 C39.6197183,46.9089202 38.0422535,47.857277 36.5502347,49.2713615 C35.770892,50.0112676 34.2028169,50.4920188 32.9220657,50.7596244 L32.9220657,50.0084507 C35.287511,48.0621964 36.1839816,44.8448172 35.1658138,41.9557739 C34.147646,39.0667306 31.4320419,37.1223327 28.3690141,37.0892019 L28.3032864,37.0892019 C25.6511343,37.0896261 23.2087243,38.5312588 21.9267142,40.8529739 C20.6447042,43.1746889 20.7256435,46.0096705 22.1380282,48.2544601 C22.6753137,49.1054851 23.3823798,49.836525 24.2150235,50.4018779 L24.2150235,52.3943662 C22.7775483,52.9187938 21.4751791,53.7573143 20.4028169,54.8488263 C19.4103286,55.8741784 18.9943662,56.7774648 18.9502347,56.8769953 L18.7868545,57.2460094 L18.8300469,57.6469484 L19.2882629,61.914554 L19.4366197,63.257277 L20.7915493,63.2525822 L60.9323944,63.0985915 L77.7859155,63.0338028 C78.3983345,63.0317893 78.9678965,62.7191715 79.2984449,62.2036147 C79.6289933,61.6880578 79.6753675,61.0399991 79.4215962,60.4826291 L76.5408451,53.7586854 L76.1502347,52.8507042 L75.6507042,52.8507042 C76.0936455,51.8944117 76.3279457,50.8547846 76.3380282,49.800939 C76.3380282,48.1342723 75.5117371,46.4873239 74.7126761,44.8957746 C74.0610329,43.5953052 73.3868545,42.2516432 73.3868545,41.2600939 C73.3868545,40.3446009 73.8666667,39.3239437 74.6713615,38.5286385 C75.5549296,37.656338 76.6816901,37.1765258 77.8441315,37.1765258 L77.8807512,37.1765258 L80.0835681,37.1230047 L81.9511737,37.0779343 L81.5023474,35.2619718 C81.4769953,35.1586854 80.8591549,32.7079812 78.8338028,30.2798122 C76.9615023,28.0366197 73.4910798,25.3624413 67.5830986,25.3624413 L67.5868545,25.3624413 Z M51.7746479,46.7906103 L62.7737089,34.4507042 C62.8676056,34.6798122 62.9615023,34.9380282 63.0553991,35.2262911 C63.6732394,37.1323944 63.9868545,39.6319249 63.9868545,42.6553991 C63.9868545,45.3305164 63.4901408,47.7314554 62.5107981,49.7915493 C62.0843053,50.7026651 61.5417781,51.554802 60.8967136,52.3267606 C59.5521127,51.8769953 58.6065728,51.1370892 57.2835681,50.1004695 L57.0657277,49.9295775 C55.3342723,48.57277 53.8967136,47.5323944 51.7746479,46.7906103 Z" id="Shape" fill="#B4ABAB" fill-rule="nonzero"></path>
                    <path d="M28.3568075,51.0319249 C27.3849765,51.0319249 26.3483568,50.9615023 25.3521127,50.4460094 L25.7408451,49.6948357 C26.5737089,50.1267606 27.4892019,50.1859155 28.3539906,50.1859155 C29.4914166,50.1877583 30.6042632,49.8550146 31.5539906,49.229108 L32.0187793,49.9342723 C30.9322548,50.6515203 29.658721,51.0332539 28.3568075,51.0319249 Z" id="Shape" fill="#B4ABAB" fill-rule="nonzero"></path>
                    <rect id="Rectangle-path" fill="#B4ABAB" fill-rule="nonzero" x="20.2610329" y="57.0507042" width="56.62723" height="1"></rect>
                    <polygon id="Shape" fill="#B4ABAB" fill-rule="nonzero" points="74.1389671 54.3352113 64.6328638 54.3352113 61.3323944 53.9896714 61.4206573 53.1492958 64.6769953 53.4901408 74.1389671 53.4901408"></polygon>
                    <path d="M45.7915493,54.4 C44.6506794,54.4 43.7258216,53.4751422 43.7258216,52.3342723 C43.7258216,51.1934024 44.6506794,50.2685446 45.7915493,50.2685446 C46.9324192,50.2685446 47.857277,51.1934024 47.857277,52.3342723 C47.857277,53.4751422 46.9324192,54.4 45.7915493,54.4 Z M45.7915493,51.113615 C45.1173989,51.113615 44.570892,51.6601219 44.570892,52.3342723 C44.570892,53.0084227 45.1173989,53.5549296 45.7915493,53.5549296 C46.4656997,53.5549296 47.0122066,53.0084227 47.0122066,52.3342723 C47.0096207,51.6619561 46.4638705,51.1183049 45.7915493,51.1183099 L45.7915493,51.113615 Z" id="Shape" fill="#B4ABAB" fill-rule="nonzero"></path>
                    <path d="M25.5586854,53.5352113 L25.370892,52.7117371 C25.4028169,52.7042254 28.5774648,51.9755869 31.5568075,51.5793427 L31.6685446,52.4169014 C28.7267606,52.8075117 25.5896714,53.5276995 25.5586854,53.5352113 Z" id="Shape" fill="#B4ABAB" fill-rule="nonzero"></path>
                    <rect id="Rectangle-path" fill="#B4ABAB" fill-rule="nonzero" transform="translate(48.210346, 43.133148) rotate(-48.260000) translate(-48.210346, -43.133148) " x="42.8502518" y="42.757561" width="10.7201878" height="1"></rect>
                    <rect id="Rectangle-path" fill="#B4ABAB" fill-rule="nonzero" transform="translate(45.860847, 41.300353) rotate(-48.510000) translate(-45.860847, -41.300353) " x="43.0580299" y="40.9247658" width="5.6056338" height="1"></rect>
                    <path d="M49.5173709,47.7511737 C46.8751174,47.0591549 43.8413146,47.4018779 43.8112676,47.4056338 L43.7239437,46.6591549 C43.8525822,46.6441315 46.9258216,46.2957746 49.7079812,47.0244131 L49.5173709,47.7511737 Z" id="Shape" fill="#B4ABAB" fill-rule="nonzero"></path>
                    <path d="M62.5633803,32.3558685 C61.9061033,30.8535211 60.4093897,29.3568075 60.3943662,29.341784 L60.856338,28.8723005 C60.9220657,28.9361502 62.4610329,30.4685446 63.1661972,32.0910798 L62.5633803,32.3558685 Z" id="Shape" fill="#B4ABAB" fill-rule="nonzero"></path>
                    <rect id="Rectangle-path" fill="#B4ABAB" fill-rule="nonzero" x="19.7201878" y="65.2178404" width="60.686385" height="1.12676056"></rect>
                    <path d="M38.1370892,76.5774648 L34.9539906,74.9042254 L31.7699531,76.5774648 L32.3784038,73.0328638 L29.8028169,70.5220657 L33.3615023,70.0046948 L34.9577465,66.7793427 L36.5492958,70.0046948 L40.1079812,70.5220657 L37.5295775,73.0328638 L38.1370892,76.5774648 Z M34.9539906,73.6309859 L36.6441315,74.5183099 L36.3220657,72.6403756 L37.6873239,71.3098592 L35.800939,71.0356808 L34.9558685,69.3267606 L34.1107981,71.0356808 L32.2244131,71.3098592 L33.5896714,72.6403756 L33.2676056,74.5183099 L34.9539906,73.6309859 Z" id="Shape" fill="#B4ABAB" fill-rule="nonzero"></path>
                    <path d="M47.2948357,76.5774648 L47.9032864,73.0328638 L45.3276995,70.5220657 L48.886385,70.0046948 L50.4826291,66.7793427 L52.0741784,70.0046948 L55.6338028,70.5220657 L53.0516432,73.0328638 L53.6591549,76.5774648 L50.4760563,74.9042254 L47.2948357,76.5774648 Z M50.4788732,73.6309859 L52.1690141,74.5183099 L51.8469484,72.6403756 L53.2122066,71.3098592 L51.3258216,71.0356808 L50.4807512,69.3267606 L49.6356808,71.0356808 L47.7492958,71.3098592 L49.114554,72.6403756 L48.7924883,74.5183099 L50.4788732,73.6309859 Z" id="Shape" fill="#B4ABAB" fill-rule="nonzero"></path>
                    <path d="M69.1868545,76.5774648 L66.0037559,74.9042254 L62.8169014,76.5774648 L63.4253521,73.0328638 L60.8497653,70.5220657 L64.4084507,70.0046948 L66.0046948,66.7793427 L67.5962441,70.0046948 L71.1549296,70.5220657 L68.5793427,73.0328638 L69.1868545,76.5774648 Z M66.0037559,73.6309859 L67.6938967,74.5183099 L67.371831,72.6403756 L68.7323944,71.3089202 L66.8460094,71.0347418 L66.000939,69.3258216 L65.1558685,71.0347418 L63.2704225,71.3089202 L64.6347418,72.6394366 L64.3126761,74.5173709 L66.0037559,73.6309859 Z" id="Shape" fill="#B4ABAB" fill-rule="nonzero"></path>
                    <rect id="Rectangle-path" fill="#B4ABAB" fill-rule="nonzero" x="30.9652582" y="78.0403756" width="38.1173709" height="1.12676056"></rect>
                    <rect id="Rectangle-path" fill="#B4ABAB" fill-rule="nonzero" x="41.7370892" y="78.6873239" width="1.12676056" height="5.057277"></rect>
                    <rect id="Rectangle-path" fill="#B4ABAB" fill-rule="nonzero" x="58.341784" y="78.6873239" width="1.12676056" height="4.58779343"></rect>
                    <rect id="Rectangle-path" fill="#B4ABAB" fill-rule="nonzero" x="17.5737089" y="61.656338" width="64.6741784" height="1.50234742"></rect>
                    <path d="M75.0901408,86.6178404 C74.9329259,86.4251145 74.8668363,86.1737686 74.9089202,85.9286385 C74.9568075,85.7023474 75.1117371,85.4938967 75.3784038,85.3042254 C75.6450704,85.114554 75.8685446,85.0488263 76.0938967,85.0788732 C76.3192488,85.1089202 76.5164319,85.2413146 76.684507,85.4741784 C76.8397308,85.6660162 76.9044364,85.9155951 76.8619718,86.1586854 C76.7996576,86.4081546 76.6440651,86.6242367 76.42723,86.7624413 C76.2208657,86.9286917 75.9604114,87.0129465 75.6957746,86.999061 C75.4469476,86.9692264 75.224645,86.8292964 75.0901408,86.6178404 Z" id="Shape" fill="#B4ABAB" fill-rule="nonzero"></path>
                    <path d="M71.856338,89.542723 L70.970892,88.5530516 L68.9877934,89.5661972 L69.2638498,90.8676056 L67.4516432,91.7934272 L66.3107981,84.6469484 L68.5117371,83.5201878 L73.6600939,88.6187793 L71.856338,89.542723 Z M69.9370892,87.3746479 L69.1624413,86.5070423 C68.9877934,86.315493 68.7661972,86.0651017 68.4976526,85.7558685 C68.229108,85.4466354 68.0413146,85.2228482 67.9342723,85.084507 C67.9812207,85.2397496 68.0513302,85.4989045 68.1446009,85.8619718 C68.2378717,86.2250391 68.4025039,86.9505477 68.6384977,88.0384977 L69.9370892,87.3746479 Z" id="Shape" fill="#B4ABAB" fill-rule="nonzero"></path>
                    <path d="M63.1192488,92.400939 C63.0262242,92.1699593 63.0378693,91.91 63.1511737,91.6882629 C63.2638498,91.486698 63.4744914,91.3342723 63.7830986,91.2309859 C64.0760563,91.1370892 64.3267606,91.1370892 64.5342723,91.2309859 C64.7544033,91.3438075 64.9162099,91.5448711 64.9793427,91.7840376 C65.0703638,92.0133635 65.0576946,92.2708577 64.9446009,92.4901408 C64.8113019,92.7099912 64.5984463,92.8700532 64.3502347,92.9370892 C64.1040547,93.0347437 63.8304287,93.0377543 63.5821596,92.9455399 C63.3535959,92.8431409 63.1834879,92.6430139 63.1192488,92.400939 Z" id="Shape" fill="#B4ABAB" fill-rule="nonzero"></path>
                    <path d="M60.5558685,91.8244131 C60.6373189,92.2172237 60.600393,92.6253692 60.4497653,92.9971831 C60.2881197,93.3756381 60.0195536,93.6987006 59.6769953,93.9267606 C59.2691151,94.1996136 58.8079141,94.3826857 58.3239437,94.4638498 C57.946733,94.5420589 57.5626908,94.5826334 57.1774648,94.5849765 C56.8355933,94.5761181 56.496044,94.5259897 56.1661972,94.4356808 L55.857277,92.8150235 C56.2357909,92.9265436 56.6251946,92.9970581 57.0187793,93.0253521 C57.3726855,93.0557054 57.7290359,93.0399237 58.0788732,92.9784038 C58.3492958,92.9264476 58.5370892,92.8419405 58.6422535,92.7248826 C58.7463904,92.6210224 58.7915234,92.4718719 58.7624413,92.3276995 C58.7475605,92.2406923 58.7047043,92.1609138 58.6403756,92.1004695 C58.5574633,92.0289556 58.4619305,91.9735466 58.3586854,91.9370892 C58.2338028,91.8882629 57.9070423,91.800939 57.3812207,91.6751174 C56.9991216,91.5939972 56.6296299,91.4619908 56.2826291,91.2826291 C56.0394523,91.1480004 55.8303482,90.9594534 55.6713615,90.7314554 C55.5075071,90.4797154 55.3975321,90.1967853 55.3483568,89.9004695 C55.2300469,89.2801252 55.3633803,88.7533646 55.7483568,88.3201878 C56.1333333,87.887011 56.7205008,87.5953052 57.5098592,87.4450704 C58.2484775,87.3137836 59.0064995,87.3400216 59.7342723,87.5220657 L59.4450704,89.0338028 C58.7602504,88.8647887 58.1893584,88.8237872 57.7323944,88.9107981 C57.4957746,88.9558685 57.3317684,89.0303599 57.2403756,89.1342723 C57.1526736,89.2236031 57.1144191,89.3502994 57.1380282,89.4732394 C57.1723842,89.6162765 57.27385,89.7338369 57.4103286,89.7887324 C57.5674491,89.8669797 57.9743349,89.9865415 58.6309859,90.1474178 C59.2613459,90.2982786 59.7179969,90.5017214 60.000939,90.7577465 C60.2838811,91.0137715 60.4688576,91.3693271 60.5558685,91.8244131 Z" id="Shape" fill="#B4ABAB" fill-rule="nonzero"></path>
                    <path d="M51.7192488,94.342723 C51.6859493,94.0959976 51.7613116,93.8469595 51.9258216,93.6600939 C52.08482,93.4923318 52.3261346,93.3965571 52.6497653,93.37277 C52.9586854,93.3502347 53.200939,93.4103286 53.3774648,93.5549296 C53.5539906,93.6995305 53.6525822,93.913615 53.6741784,94.200939 C53.7058556,94.4453948 53.6301803,94.6915966 53.4666667,94.8760563 C53.2835685,95.0568869 53.0375989,95.1598509 52.7802817,95.1633803 C52.516179,95.1988824 52.2483301,95.1345987 52.029108,94.9830986 C51.8355851,94.8264558 51.7219849,94.5916819 51.7192488,94.342723 Z" id="Shape" fill="#B4ABAB" fill-rule="nonzero"></path>
                    <path d="M49.2713615,88.3821596 L48.8779343,92.4882629 C48.7921753,93.3809077 48.4732394,94.0482003 47.9211268,94.4901408 C47.3690141,94.9320814 46.6178404,95.1070423 45.6676056,95.0150235 C44.7374022,94.9261346 44.0453834,94.6197183 43.5915493,94.0957746 C43.1377152,93.571831 42.9536776,92.8635368 43.0394366,91.970892 L43.4366197,87.8215962 L45.2892019,87.999061 L44.9061033,92.0037559 C44.8604069,92.485759 44.9170579,92.8444444 45.0760563,93.0798122 C45.2350548,93.31518 45.4907668,93.4494523 45.8431925,93.4826291 C46.2187793,93.5183099 46.5020344,93.4363067 46.6929577,93.2366197 C46.8838811,93.0369327 47.000313,92.6913928 47.0422535,92.2 L47.4253521,88.2056338 L49.2713615,88.3821596 Z" id="Shape" fill="#B4ABAB" fill-rule="nonzero"></path>
                    <path d="M31.4178404,91.2422535 L29.284507,90.0835681 L29.3877934,84.6450704 L29.3511737,84.6244131 C29.0381847,85.3211268 28.7877934,85.8450704 28.6,86.1962441 L27.1258216,88.9117371 L25.6835681,88.1286385 L28.9549296,82.1042254 L31.0798122,83.2591549 L30.999061,88.6384977 L31.0234742,88.6525822 C31.314554,88.0266041 31.5599374,87.5286385 31.7596244,87.1586854 L33.2384977,84.4356808 L34.6892019,85.2234742 L31.4178404,91.2422535 Z" id="Shape" fill="#B4ABAB" fill-rule="nonzero"></path>
                    <polygon id="Shape" fill="#B4ABAB" fill-rule="nonzero" points="21.3849765 84.8666667 25.6338028 79.485446 27.0948357 80.6384977 22.8488263 86.0197183"></polygon>
                    <path d="M12.0450704,45.6525822 L10.7830986,45.8920188 L10.6328638,48.0403756 L11.8478873,48.4610329 L11.7107981,50.4225352 L5.22253521,47.799061 L5.38967136,45.4178404 L12.1821596,43.6995305 L12.0450704,45.6525822 Z M9.29577465,46.1596244 L8.19061033,46.3680751 C7.94460094,46.4181534 7.62660407,46.4769953 7.23661972,46.5446009 C6.84663537,46.6122066 6.56807512,46.6557121 6.40093897,46.6751174 C6.55305164,46.7126761 6.80187793,46.7840376 7.15211268,46.8882629 C7.50234742,46.9924883 8.18497653,47.2187793 9.2,47.5661972 L9.29577465,46.1596244 Z" id="Shape" fill="#B4ABAB" fill-rule="nonzero"></path>
                    <path d="M13.1755869,39.6347418 L8.21314554,39.5408451 L8.20187793,39.5802817 C8.99687011,39.7568075 9.61001565,39.9107981 10.0413146,40.0422535 L12.7953052,40.8873239 L12.3314554,42.4046948 L5.99248826,40.4610329 L6.68920188,38.1802817 L11.5934272,38.2328638 L11.6046948,38.1981221 L7.49953052,35.5267606 L8.1971831,33.2394366 L14.5361502,35.1755869 L14.0553991,36.7492958 L11.2760563,35.9042254 C11.1314554,35.8597809 10.971831,35.8087637 10.7971831,35.7511737 C10.6225352,35.6935837 10.1962441,35.542097 9.51830986,35.2967136 L9.50610329,35.3361502 L13.6732394,38.0065728 L13.1755869,39.6347418 Z" id="Shape" fill="#B4ABAB" fill-rule="nonzero"></path>
                    <polygon id="Shape" fill="#B4ABAB" fill-rule="nonzero" points="15.5568075 33.3455399 9.6629108 30.3126761 10.486385 28.7117371 16.3802817 31.7446009"></polygon>
                    <path d="M18.2525822,25.1586854 C18.5749041,25.3749187 18.8256023,25.6821629 18.97277,26.0413146 C19.1164631,26.4123969 19.1490878,26.8172701 19.0666667,27.2065728 C18.968921,27.671067 18.7736957,28.1095238 18.4938967,28.4929577 C18.2862987,28.8021088 18.0481706,29.0896242 17.7830986,29.3511737 C17.5409954,29.5762309 17.2727175,29.7713708 16.9840376,29.9323944 L15.6741784,29.0206573 C16.0112254,28.8417837 16.3282031,28.6274224 16.6197183,28.3812207 C16.88467,28.1621321 17.1201196,27.9096393 17.3201878,27.6300469 C17.4723005,27.4112676 17.5464789,27.2253521 17.5408451,27.0666667 C17.5420305,26.9240222 17.4714771,26.7903234 17.3530516,26.7107981 C17.283978,26.6610181 17.2006196,26.6349892 17.115493,26.6366197 C17.0091736,26.6438521 16.9050928,26.6705884 16.8084507,26.715493 C16.6882629,26.7661972 16.4037559,26.9264476 15.9549296,27.1962441 C15.6361364,27.3981154 15.2915549,27.5560355 14.9305164,27.6657277 C14.6713795,27.7372741 14.3992492,27.7481979 14.1352113,27.6976526 C13.851732,27.6346687 13.5844267,27.513486 13.3502347,27.341784 C12.8494523,26.9937402 12.5856025,26.5395931 12.5586854,25.9793427 C12.5317684,25.4190923 12.7402191,24.8203443 13.1840376,24.1830986 C13.6057423,23.5925386 14.1478656,23.0980991 14.7746479,22.7323944 L15.5962441,23.97277 C15.0084507,24.3183099 14.5862285,24.6760563 14.3295775,25.0460094 C14.1962441,25.2338028 14.1333333,25.399061 14.141784,25.5323944 C14.1414489,25.6537237 14.2007771,25.7674653 14.3004695,25.8366197 C14.4209924,25.9124764 14.5708466,25.925081 14.7023474,25.8704225 C14.8632238,25.8184664 15.2253521,25.6259781 15.7887324,25.2929577 C16.3258216,24.970579 16.7787167,24.8025039 17.1474178,24.7887324 C17.5466618,24.7859353 17.9354823,24.9160926 18.2525822,25.1586854 Z" id="Shape" fill="#B4ABAB" fill-rule="nonzero"></path>
                    <polygon id="Shape" fill="#B4ABAB" fill-rule="nonzero" points="24.9830986 20.9971831 23.7051643 22.2647887 21.8018779 20.3474178 20.3248826 21.8131455 22.228169 23.7305164 20.9502347 24.999061 16.2816901 20.2938967 17.5586854 19.0262911 19.2901408 20.7699531 20.7671362 19.3042254 19.0356808 17.5586854 20.313615 16.2910798"></polygon>
                    <polygon id="Shape" fill="#B4ABAB" fill-rule="nonzero" points="37.1962441 13.9699531 35.5464789 14.6892019 34.4666667 12.2122066 32.5586854 13.0431925 33.6394366 15.5201878 31.9887324 16.2441315 29.3399061 10.1680751 30.9859155 9.44413146 31.9680751 11.6976526 33.8760563 10.8666667 32.8938967 8.61314554 34.543662 7.89389671"></polygon>
                    <path d="M43.1352113,12.5004695 L42.5549296,11.3539906 L40.4497653,11.8075117 L40.3830986,13.0920188 L38.4591549,13.5061033 L39.17277,6.54460094 L41.5089202,6.04225352 L45.0497653,12.0882629 L43.1352113,12.5004695 Z M41.8826291,9.99624413 L41.3737089,8.99248826 C41.257903,8.77089202 41.113302,8.48231612 40.9399061,8.12676056 C40.7665102,7.77120501 40.6472613,7.51549296 40.5821596,7.35962441 C40.5877934,7.51549296 40.5887324,7.77558685 40.5821596,8.13802817 C40.5755869,8.50046948 40.5511737,9.21877934 40.5014085,10.2976526 L41.8826291,9.99624413 Z" id="Shape" fill="#B4ABAB" fill-rule="nonzero"></path>
                    <path d="M52.6882629,11.9408451 L50.3408451,11.9511737 L47.8995305,7.29107981 L47.8591549,7.29107981 C47.9217527,8.02535211 47.9530516,8.58591549 47.9530516,8.97276995 L47.9652582,11.9605634 L46.3784038,11.9671362 L46.3511737,5.33896714 L48.6910798,5.32957746 L51.1220657,9.9258216 L51.1483568,9.9258216 C51.1026604,9.25539906 51.0798122,8.71893584 51.0798122,8.31643192 L51.0676056,5.31924883 L52.6638498,5.31267606 L52.6882629,11.9408451 Z" id="Shape" fill="#B4ABAB" fill-rule="nonzero"></path>
                    <path d="M60.9276995,9.93521127 C60.7073552,11.0187793 60.2378717,11.7928013 59.5192488,12.257277 C58.800626,12.7217527 57.9020344,12.8435055 56.8234742,12.6225352 L54.7220657,12.1934272 L56.0507042,5.69953052 L58.2985915,6.15868545 C59.3408451,6.37214397 60.0920188,6.80312989 60.5521127,7.45164319 C61.0122066,8.10015649 61.1374022,8.92801252 60.9276995,9.93521127 Z M59.0938967,9.62535211 C59.2159624,9.03004695 59.1884194,8.56463224 59.0112676,8.22910798 C58.8341158,7.89358372 58.5064163,7.67699531 58.028169,7.57934272 L57.5173709,7.47511737 L56.7746479,11.1126761 L57.1652582,11.1924883 C57.6985915,11.3014085 58.1211268,11.2266041 58.4328638,10.9680751 C58.7446009,10.7095462 58.9649452,10.2619718 59.0938967,9.62535211 Z" id="Shape" fill="#B4ABAB" fill-rule="nonzero"></path>
                    <path d="M66.6901408,10.1539906 C66.3233136,9.99041406 65.8974949,10.0317834 65.5690141,10.2629108 C65.2159624,10.4945227 64.9245696,10.8951487 64.6948357,11.4647887 C64.2134585,12.6460094 64.4219092,13.4197183 65.3201878,13.7859155 C65.5871155,13.8947137 65.8681903,13.9649034 66.1549296,13.9943662 C66.4473127,14.0228341 66.7409842,14.0359976 67.0347418,14.0338028 L66.4629108,15.4366197 C65.8179492,15.4470295 65.178044,15.3212882 64.5849765,15.0676056 C63.658529,14.6920188 63.057903,14.1339593 62.7830986,13.3934272 C62.5082942,12.6528951 62.5777778,11.7765258 62.9915493,10.7643192 C63.2155839,10.1790193 63.5738601,9.65446938 64.0375587,9.23286385 C64.4509657,8.86015956 64.9668803,8.62035908 65.5183099,8.54460094 C66.1121432,8.47463265 66.7139036,8.56374633 67.2619718,8.8028169 C67.9209321,9.07004757 68.5109228,9.48284848 68.9877934,10.0103286 L67.9474178,11.1089202 C67.768901,10.9148392 67.5782186,10.732311 67.3765258,10.5624413 C67.1703091,10.3915027 66.9387425,10.2537031 66.6901408,10.1539906 Z" id="Shape" fill="#B4ABAB" fill-rule="nonzero"></path>
                    <path d="M70.8920188,15.515493 L69.5943662,17.5492958 L68.084507,16.5868545 L71.6431925,10.9971831 L73.4751174,12.1643192 C74.9943662,13.1327074 75.4031299,14.1655712 74.7014085,15.2629108 C74.2901408,15.9170579 73.6557121,16.2181534 72.7981221,16.1661972 L72.8751174,19.6403756 L71.1615023,18.5492958 L71.2732394,15.7596244 L70.8920188,15.515493 Z M71.6150235,14.3793427 L71.8967136,14.5596244 C72.4244131,14.8957746 72.8369327,14.8306729 73.1342723,14.3643192 C73.3796557,13.9793427 73.2435055,13.6222222 72.7258216,13.2929577 L72.428169,13.1051643 L71.6150235,14.3793427 Z" id="Shape" fill="#B4ABAB" fill-rule="nonzero"></path>
                    <path d="M76.7812207,23.2384977 L77.3953052,22.1117371 L75.828169,20.6347418 L74.7323944,21.3089202 L73.3004695,19.9596244 L79.4366197,16.5981221 L81.1755869,18.2366197 L78.2065728,24.5821596 L76.7812207,23.2384977 Z M78.1323944,20.7868545 L78.6704225,19.799061 C78.7881064,19.5774648 78.9446009,19.2957746 79.1399061,18.9539906 C79.3352113,18.6122066 79.4782473,18.3690141 79.5690141,18.2244131 C79.4431925,18.3183099 79.2300469,18.4657277 78.9295775,18.6676056 C78.629108,18.8694836 78.0215962,19.2553991 77.1079812,19.8234742 L78.1323944,20.7868545 Z" id="Shape" fill="#B4ABAB" fill-rule="nonzero"></path>
                    <polygon id="Shape" fill="#B4ABAB" fill-rule="nonzero" points="80.085446 27.114554 79.02723 25.7061033 84.3286385 21.7276995 86.6760563 24.8600939 85.5267606 25.7230047 84.2338028 24.000939 83.2225352 24.7596244 84.4140845 26.3483568 83.2647887 27.2112676 82.0732394 25.6225352"></polygon>
                    <polygon id="Shape" fill="#B4ABAB" fill-rule="nonzero" points="83.6967136 32.9220657 82.8516432 31.3408451 87.4178404 28.9201878 86.658216 27.4910798 87.9511737 26.8037559 90.3089202 31.2394366 89.0140845 31.9248826 88.256338 30.4995305"></polygon>
                    <polygon id="Shape" fill="#B4ABAB" fill-rule="nonzero" points="86.3380282 39.5859155 85.056338 35.8685446 91.3239437 33.7089202 92.6046948 37.4300469 91.2460094 37.8995305 90.5483568 35.8685446 89.5624413 36.2075117 90.2084507 38.085446 88.8497653 38.5549296 88.2028169 36.6769953 87.0197183 37.0835681 87.7183099 39.1117371"></polygon>
                    <path d="M91.1173709,46.3568075 C90.0244131,46.5295775 89.1348983,46.3618153 88.4488263,45.8535211 C87.7627543,45.3452269 87.3336463,44.5461659 87.1615023,43.456338 L86.82723,41.3380282 L93.3746479,40.3051643 L93.7323944,42.570892 C93.8982786,43.6225352 93.7577465,44.4763693 93.3107981,45.1323944 C92.8638498,45.7884194 92.1327074,46.1965571 91.1173709,46.3568075 Z M90.7652582,44.5305164 C91.3649452,44.4359937 91.7909233,44.2482003 92.0431925,43.9671362 C92.2954617,43.686072 92.3834116,43.3026604 92.3070423,42.8169014 L92.2253521,42.3014085 L88.5577465,42.8807512 L88.6197183,43.2751174 C88.7054773,43.8122066 88.9245696,44.1815336 89.2769953,44.3830986 C89.629421,44.5846635 90.1255086,44.6338028 90.7652582,44.5305164 Z" id="Shape" fill="#B4ABAB" fill-rule="nonzero"></path>
                    <polygon id="Shape" fill="#B4ABAB" fill-rule="nonzero" points="10.8610329 70.0187793 10.6835681 67.8384977 8.78685446 66.7483568 10.8046948 65.9061033 11.2553991 63.7652582 12.6807512 65.4244131 14.8553991 65.1915493 13.7183099 67.0600939 14.6122066 69.056338 12.4835681 68.5511737"></polygon>
                    <polygon id="Shape" fill="#B4ABAB" fill-rule="nonzero" points="84.5943662 65.1370892 86.770892 65.3577465 88.1868545 63.6892019 88.6497653 65.82723 90.6732394 66.658216 88.7830986 67.7596244 88.6178404 69.9408451 86.9868545 68.4826291 84.8610329 69 85.743662 66.9981221"></polygon>
                    <path d="M37.0328638,41.6666667 C35.3502347,40.8835681 34.1568075,39.284507 33.6723005,37.1643192 C33.4360034,36.1670289 33.3863406,35.1346155 33.5258216,34.1192488 C31.8169014,32.5455399 30.6553991,30.4798122 30.1408451,28.0751174 C29.6262911,25.6704225 29.7887324,23.0394366 30.5887324,20.6159624 C31.2732394,18.541784 32.5023474,16.5211268 34.141784,14.7737089 C35.7812207,13.0262911 37.7164319,11.6751174 39.7352113,10.8704225 L41.2131455,10.2826291 L44.8460094,13.4694836 C45.1117371,13.7023474 45.9183099,14.4084507 45.8338028,15.6882629 L45.715493,17.5070423 L43.9624413,18.0112676 C41.0084507,18.8629108 38.9774648,20.2516432 37.7558685,22.258216 C36.2366197,24.7539906 36.1793427,27.4478873 36.7765258,29.0694836 C37.4482261,28.6120247 38.1759415,28.2428022 38.941784,27.970892 C39.7729686,27.6669336 40.6511314,27.511515 41.5361502,27.5117371 C42.6225352,27.5117371 43.7492958,27.7549296 44.9793427,28.2544601 C45.6947296,28.549631 46.3456892,28.9814778 46.8957746,29.5258216 C47.4809982,30.0950766 47.9303265,30.7889679 48.2103286,31.5558685 C49.143662,34.2056338 47.8178404,35.3539906 45.4234742,36.2507042 C44.5877934,36.5624413 42.9605634,37.9539906 41.9943662,37.9539906 C41.4057219,37.9521619 40.8184154,37.8977992 40.2394366,37.7915493 L41.0403756,38.7446009 L38.3314554,42.2741784 L37.0328638,41.6666667 Z" id="Shape" fill="#FFFFFF" fill-rule="nonzero"></path>
                    <path d="M37.9859155,40.8676056 L37.5079812,40.6450704 C36.1286385,40.0028169 35.1821596,38.7117371 34.7699531,36.9126761 C34.5126102,35.8560178 34.5081064,34.7535613 34.7568075,33.6948357 C32.9633803,32.2375587 31.7521127,30.2206573 31.2431925,27.8431925 C30.7737089,25.6488263 30.9201878,23.2084507 31.658216,20.97277 C32.9474178,17.0704225 36.3605634,13.4319249 40.1521127,11.9211268 L40.9887324,11.5877934 L44.1032864,14.3201878 C44.315493,14.5079812 44.7605634,14.8948357 44.7098592,15.6169014 L44.6422535,16.6497653 L43.6507042,16.9314554 C40.4122066,17.8647887 38.1690141,19.4159624 36.7962441,21.6751174 C34.9408451,24.7248826 35.0122066,27.9971831 35.9004695,29.8873239 C36.0539217,30.2114184 36.2322321,30.5231478 36.4338028,30.8197183 C37.1962441,30.0525822 38.1661972,29.4535211 39.3276995,29.0356808 C41.0093897,28.429108 42.6215962,28.5107981 44.5568075,29.2976526 C45.1343773,29.5375955 45.6596584,29.8877829 46.1032864,30.3286385 C46.5657986,30.7760041 46.9219746,31.3214988 47.1455399,31.9248826 C47.8403756,33.8967136 46.2065728,35.7126761 44.3126761,36.4197183 C42.3220657,37.1643192 40.2028169,36.7295775 38.77277,36.2319249 L38.6553991,36.1915493 C38.6095313,36.5503679 38.62605,36.9144155 38.7042254,37.2676056 C38.7977486,37.6706344 38.9853341,38.0458055 39.2516432,38.3624413 L39.5906103,38.7671362 L37.9859155,40.8676056 Z M40.7267606,13.1070423 L40.6384977,13.141784 C37.1877934,14.5173709 34.0807512,17.8300469 32.9070423,21.3849765 C32.2413146,23.4028169 32.1061033,25.5981221 32.5314554,27.5680751 C33.0065728,29.7896714 34.1746479,31.6413146 35.9117371,32.9201878 L36.2995305,33.2075117 L36.141784,33.6638498 C35.8431925,34.5286385 35.8140845,35.5502347 36.058216,36.6178404 C36.3258216,37.7877934 36.8610329,38.6666667 37.6197183,39.1924883 L37.9342723,38.7793427 C37.6984691,38.406788 37.5276522,37.9968909 37.429108,37.5671362 C37.2520852,36.7536827 37.2968372,35.9076107 37.5586854,35.1173709 L37.7746479,34.4450704 L38.4319249,34.7089202 C38.6394366,34.7924883 38.8938967,34.886385 39.2103286,34.9953052 C40.4309859,35.4206573 42.2328638,35.799061 43.856338,35.1924883 C44.8976526,34.8028169 46.3765258,33.6901408 45.9098592,32.3661972 C45.7535181,31.9482123 45.5055015,31.5705726 45.1840376,31.2610329 C44.8613282,30.9417201 44.4791642,30.6887518 44.0591549,30.5164319 C42.4244131,29.8516432 41.142723,29.7784038 39.770892,30.2732394 C38.5502347,30.715493 37.5859155,31.3849765 36.9173709,32.2600939 L36.4206573,32.9117371 L35.8929577,32.285446 C35.4206603,31.7279365 35.0226618,31.111528 34.7089202,30.4516432 C33.6666667,28.2422535 33.5605634,24.4610329 35.6704225,20.9943662 C37.2253521,18.4394366 39.7183099,16.6976526 43.286385,15.6694836 L43.3906103,15.6394366 L43.3981221,15.5314554 C43.3981221,15.4676056 43.4028169,15.4544601 43.2356808,15.3089202 L40.7267606,13.1070423 Z M40.7511737,34.2835681 C40.2049333,34.2831114 39.6605419,34.2201032 39.1286385,34.0957746 L38.0347418,33.8422535 L38.7915493,33.0131455 C39.4588335,32.2707435 40.2934835,31.6981086 41.2262911,31.342723 C41.4932974,31.2549828 41.7696798,31.1988869 42.0497653,31.1755869 C42.3877835,31.1386005 42.7275699,31.1201066 43.0676056,31.1201878 L43.5802817,31.1201878 L43.715493,31.6553991 C43.8014232,31.9399454 43.8348318,32.2377589 43.8140845,32.5342723 L43.1615023,32.4600939 L43.8140845,32.5342723 C43.6929577,33.6112676 42.4657277,34.1305164 41.3586854,34.2525822 C41.2544601,34.2638498 41.1492958,34.2723005 41.0450704,34.2769953 C40.9408451,34.2816901 40.8450704,34.2835681 40.7511737,34.2835681 Z M42.4798122,32.456338 C42.3859155,32.4629108 42.2920188,32.4713615 42.1981221,32.4816901 C42.0246208,32.4965244 41.8529426,32.5279673 41.685446,32.5755869 C41.405724,32.6786288 41.137334,32.8101493 40.884507,32.9680751 L40.9887324,32.9680751 C41.0619718,32.9680751 41.1370892,32.9596244 41.2122066,32.9511737 C41.8901408,32.8694836 42.3605634,32.6319249 42.4798122,32.456338 Z" id="Shape" fill="#B4ABAB" fill-rule="nonzero"></path>
                    <path d="M39.2488263,32.8460094 C39.0441315,33.2215962 37.9868545,33.5511737 37.5389671,36.1323944" id="Shape" fill="#FFFFFF" fill-rule="nonzero"></path>
                    <path d="M38.0131455,36.2985915 L37.2769953,36.1699531 C37.6450704,34.0469484 38.428169,33.3286385 38.8488263,32.942723 C38.9135115,32.8887119 38.973219,32.8290045 39.02723,32.7643192 L39.684507,33.1239437 C39.5962168,33.266818 39.4844801,33.3937916 39.3539906,33.4995305 C38.97277,33.8450704 38.3380282,34.42723 38.0131455,36.2985915 Z" id="Shape" fill="#B4ABAB" fill-rule="nonzero"></path>
                    <path d="M37.284507,31.2619718 C37.0807512,31.6375587 35.9220657,31.9784038 35.4741784,34.5633803" id="Shape" fill="#FFFFFF" fill-rule="nonzero"></path>
                    <path d="M35.8441315,34.62723 L35.1042254,34.4995305 C35.4713615,32.3793427 36.3126761,31.6516432 36.7652582,31.2600939 C36.832684,31.205582 36.8954951,31.1455974 36.9530516,31.0807512 L37.6103286,31.4413146 C37.51528,31.5907041 37.3940958,31.7217484 37.2525822,31.828169 C36.8488263,32.1812207 36.1661972,32.7699531 35.8441315,34.62723 Z" id="Shape" fill="#B4ABAB" fill-rule="nonzero"></path>
                    <path d="M46.1971831,33.3079812 C45.4938967,32.2244131 44.2553991,31.7464789 42.515493,31.885446 C42.4506708,31.8928313 42.3853858,31.8953423 42.3201878,31.8929577 L42.3840376,31.141784 L42.3615023,31.141784 L42.4553991,31.1352113 C43.8535211,31.0225352 45.7483568,31.2375587 46.8262911,32.8967136 L46.1971831,33.3079812 Z" id="Shape" fill="#B4ABAB" fill-rule="nonzero"></path>
                </g>
            </g>
        </g>
    </g>
</svg>