<?xml version="1.0" encoding="UTF-8"?>
<svg xmlns:xlink="http://www.w3.org/1999/xlink" width="100px" height="100px" viewBox="0 0 100 100" version="1.1"
     xmlns="http://www.w3.org/2000/svg">
    <!-- Generator: sketchtool 50.2 (55047) - http://www.bohemiancoding.com/sketch -->
    <title>D98D03CA-A080-4ECD-B546-176D2CE240B7</title>
    <desc>Created with sketchtool.</desc>
    <defs></defs>
    <g id="Page-1" stroke="none" stroke-width="1" fill="none" fill-rule="evenodd">
        <g id="Product_pageversions" transform="translate(-1063.000000, -1995.000000)">
            <g id="combinedship" transform="translate(1063.000000, 1995.000000)">
                <g id="Artboard-16">
                    <circle id="Oval" fill="#FFFFFF" fill-rule="nonzero" cx="49.8751174" cy="49.9690141"
                            r="49.2178404"></circle>
                    <path d="M49.8751174,99.8450704 C26.1527026,99.8299719 5.72172787,83.1119863 1.01178359,59.8618333 C-3.6981607,36.6116803 8.61569522,13.260348 30.4619718,4.01408451 C55.8424379,-6.70775901 85.1091424,5.17540247 95.8309859,30.5558685 C106.552829,55.9363346 94.669668,85.2030391 69.2892019,95.9248826 C63.1474984,98.5244759 56.5443186,99.8578226 49.8751174,99.8450704 Z M49.8751174,1.4084507 C26.7775842,1.4229549 6.88471048,17.7005323 2.29889197,40.3382557 C-2.28692655,62.9759791 9.70277012,85.7121424 30.9737089,94.714554 C55.6779476,105.118327 84.1401659,93.5432093 94.5712343,68.8504835 C105.002303,44.1577577 93.4586475,15.6827644 68.7774648,5.22441315 C62.7976379,2.69348471 56.3684803,1.39558116 49.8751174,1.4084507 Z"
                          id="Shape" fill="#B4ABAB" fill-rule="nonzero"></path>
                    <path d="M74.0375587,73.2769953 C73.1178519,72.4210162 72.5210043,71.2744056 72.3474178,70.0300469 C72.3273534,69.8784185 72.2580812,69.737565 72.1502347,69.629108 L72.1502347,68.9943662 C72.1502347,65.6431925 74.7746479,62.9173709 78,62.9173709 L78.8732394,62.9173709 C78.9083055,62.9255382 78.944301,62.9290115 78.9802817,62.9276995 C79.0938967,62.9211268 79.2093897,62.9173709 79.3230047,62.9173709 C79.8742976,62.916854 80.4226374,62.9978552 80.9502347,63.1577465 C81.170579,62.656964 81.3793427,62.1521127 81.5765258,61.6431925 C77.6031059,60.0041846 73.045767,61.8111688 71.2751174,65.7276995 L65.5530516,65.7276995 L65.5530516,63.7652582 L65.828169,63.7652582 C66.3833507,63.7647406 66.8332852,63.3148061 66.8338028,62.7596244 L66.8338028,60.5474178 C66.8332852,59.9922362 66.3833507,59.5423017 65.828169,59.541784 L62.1953052,59.541784 L62.1953052,31.7887324 C62.1953052,31.4516572 61.9220517,31.1784038 61.5849765,31.1784038 L40.0600939,31.1784038 C39.7230187,31.1784038 39.4497653,31.4516572 39.4497653,31.7887324 L39.4497653,64.1032864 L38.9671362,64.1032864 C38.8345147,63.9694903 38.6242993,63.9519723 38.4713615,64.0619718 L36.5164319,65.4704225 L36.5164319,63.943662 L38.6338028,63.943662 C38.8382715,63.9335424 38.9988567,63.7648128 38.9988567,63.5600939 C38.9988567,63.355375 38.8382715,63.1866454 38.6338028,63.1765258 L36.2798122,63.1765258 C36.1507481,63.0609609 35.9835706,62.9970991 35.8103286,62.9971831 L35.6319249,62.9971831 L35.6319249,60.6309859 L36.6553991,60.6309859 C36.8521121,60.6312494 37.0398701,60.5487858 37.17277,60.4037559 L38.6319249,60.4037559 C38.8363935,60.3936363 38.9969788,60.2249067 38.9969788,60.0201878 C38.9969788,59.8154689 38.8363935,59.6467393 38.6319249,59.6366197 L37.3605634,59.6366197 L37.3605634,26.5305164 L64.5830986,26.5305164 C64.5422316,26.6003189 64.5205292,26.6796784 64.5201878,26.7605634 L64.5201878,58.5774648 C64.5201878,58.8367534 64.7303827,59.0469484 64.9896714,59.0469484 C65.24896,59.0469484 65.4591549,58.8367534 65.4591549,58.5774648 L65.4591549,26.7605634 C65.458336,26.6797443 65.4366665,26.6005052 65.3962441,26.5305164 L74.7596244,26.5305164 C74.3089202,26.0478873 73.8447574,25.5784038 73.3671362,25.1220657 L36.6535211,25.1220657 C36.2645882,25.1220657 35.9492958,25.4373582 35.9492958,25.8262911 L35.9492958,59.2225352 L35.4488263,59.2225352 C34.7714747,59.2235693 34.2226304,59.7724136 34.2215962,60.4497653 L34.2215962,63.1793427 C34.2227033,63.7239451 34.5817955,64.2029893 35.1042254,64.3568075 L35.1042254,65.9455399 L25.4948357,72.6319249 C25.8967136,73.0594679 26.3092332,73.4760563 26.7323944,73.8816901 L47.3896714,73.7962441 C47.4541328,73.7954863 47.5170252,73.7762601 47.570892,73.7408451 L60.6028169,65.0460094 L61.057277,65.0460094 L61.0497653,65.9286385 L55.8704225,69.5164319 C55.7673474,69.5258023 55.6676234,69.5578679 55.5784038,69.6103286 L54.5568075,70.2225352 C54.5456341,70.2282052 54.5349551,70.234801 54.5248826,70.2422535 L47.457277,75 L27.8657277,74.9201878 C28.4253521,75.4103286 29.001252,75.8823161 29.5934272,76.3361502 L47.6685446,76.4093897 C47.8086922,76.4091504 47.9456159,76.3673217 48.0619718,76.2892019 L49.2018779,75.5286385 C49.6804684,75.621725 50.1669009,75.6685759 50.6544601,75.6685446 C53.8957746,75.6685446 56.6215962,73.6507042 57.4150235,70.9117371 L71.0647887,70.8300469 C71.3717159,72.1383598 72.0525829,73.329143 73.0244131,74.257277 C73.3693271,73.9367762 73.7070423,73.6100156 74.0375587,73.2769953 Z M47.2910798,73.1389671 L27.1117371,73.2225352 L36.2131455,66.8920188 C36.3708518,66.7821335 36.4767105,66.6124881 36.5061033,66.4225352 L38.6610329,64.8694836 L39.6319249,64.8694836 C39.7460075,64.9820361 39.899835,65.0451189 40.0600939,65.0450704 L59.4215962,65.0450704 L47.2910798,73.1389671 Z M60.9746479,63.8253521 L55.1117371,63.8253521 L55.1117371,47.284507 C55.1117371,47.1289339 54.9856201,47.0028169 54.8300469,47.0028169 C54.6744738,47.0028169 54.5483568,47.1289339 54.5483568,47.284507 L54.5483568,63.8253521 L43.5079812,63.8253521 L43.5079812,46.3849765 L51.5492958,46.3849765 C51.5801574,46.3916318 51.6116221,46.3950929 51.6431925,46.3953052 L60.971831,46.3953052 L60.9746479,63.8253521 Z M60.9746479,45.458216 L58.2985915,45.458216 L58.2985915,36.6873239 C58.2985915,36.5317508 58.1724746,36.4056338 58.0169014,36.4056338 C57.8613282,36.4056338 57.7352113,36.5317508 57.7352113,36.6873239 L57.7352113,45.458216 L52.3615023,45.458216 L52.3615023,35.7370892 L60.9746479,35.7370892 L60.9746479,45.458216 Z M60.9746479,34.4225352 L51.7042254,34.4225352 C51.3412213,34.4225352 51.0469484,34.7168081 51.0469484,35.0798122 L51.0469484,45.0704225 L42.8507042,45.0704225 C42.4877002,45.0704225 42.1934272,45.3646955 42.1934272,45.7276995 L42.1934272,63.8253521 L40.6704225,63.8253521 L40.6704225,32.399061 L60.9746479,32.399061 L60.9746479,34.4225352 Z M62.1953052,60.3089202 L65.828169,60.3089202 C65.9598876,60.3089202 66.0666667,60.4156992 66.0666667,60.5474178 L66.0666667,62.7596244 C66.0666667,62.891343 65.9598876,62.9981221 65.828169,62.9981221 L62.1953052,62.9981221 L62.1953052,60.3089202 Z M64.6140845,69.4600939 L57.7089202,69.5014085 L61.8610329,66.6244131 C61.9990992,66.5290623 62.0821191,66.3724804 62.0835681,66.2046948 L62.0948357,64.770892 C62.160632,64.6714994 62.1955857,64.5548779 62.1953052,64.4356808 L62.1953052,63.7652582 L64.6140845,63.7652582 L64.6140845,69.4600939 Z M70.6666667,69.4244131 L65.5530516,69.4544601 L65.5530516,66.4938967 L70.9859155,66.4938967 C70.7545661,67.2284814 70.6370853,67.9941654 70.6375587,68.7643192 C70.6384977,68.9840376 70.6478873,69.2018779 70.6666667,69.4244131 Z"
                          id="Shape" fill="#B4ABAB" fill-rule="nonzero"></path>
                    <path d="M75.657277,64.2075117 C73.1219012,66.3808489 72.5886271,70.0960987 74.4103286,72.8948357 C74.5446009,72.7549296 74.6779343,72.6131455 74.8103286,72.4723005 C73.227475,69.9197083 73.7412429,66.5943664 76.0206573,64.6384977 C76.1396708,64.538153 76.1548048,64.360328 76.0544601,64.2413146 C75.9541154,64.1223011 75.7762905,64.107167 75.657277,64.2075117 Z"
                          id="Shape" fill="#B4ABAB" fill-rule="nonzero"></path>
                    <path d="M75.6093897,69.0215962 C75.6076715,69.7023102 75.789654,70.3708768 76.1361502,70.9568075 C76.3089202,70.7464789 76.4791862,70.5339593 76.6469484,70.3192488 C76.4591157,69.9125593 76.3629511,69.4695607 76.3652582,69.0215962 C76.3652582,67.3981221 77.6178404,66.0779343 79.1577465,66.0779343 C79.2638301,66.0783342 79.3698001,66.0849181 79.4751174,66.0976526 C79.6053208,65.8666667 79.7333333,65.6341158 79.8591549,65.4 C79.6285314,65.351286 79.3934588,65.3267403 79.1577465,65.3267606 C77.199061,65.3267606 75.6093897,66.9840376 75.6093897,69.0215962 Z"
                          id="Shape" fill="#B4ABAB" fill-rule="nonzero"></path>
                    <path d="M67.8873239,31.6835681 C67.8873239,31.8391412 68.0134409,31.9652582 68.1690141,31.9652582 L78.886385,31.9652582 C78.770579,31.7774648 78.6532081,31.5896714 78.5342723,31.4018779 L68.1690141,31.4018779 C68.0134409,31.4018779 67.8873239,31.5279949 67.8873239,31.6835681 Z"
                          id="Shape" fill="#B4ABAB" fill-rule="nonzero"></path>
                    <path d="M35.9051643,67.7131455 L53.7671362,67.7131455 C53.8729259,67.7131455 53.9586854,67.6012167 53.9586854,67.4631455 C53.9586854,67.3250744 53.8729259,67.2131455 53.7671362,67.2131455 L35.9051643,67.2131455 C35.7993746,67.2131455 35.713615,67.3250744 35.713615,67.4631455 C35.713615,67.6012167 35.7993746,67.7131455 35.9051643,67.7131455 Z"
                          id="Shape" fill="#B4ABAB" fill-rule="nonzero"></path>
                    <path d="M33.1596244,70.500939 L48.8103286,70.500939 C48.9163777,70.500939 49.0023474,70.3890102 49.0023474,70.250939 C49.0023474,70.1128678 48.9163777,70.000939 48.8103286,70.000939 L33.1596244,70.000939 C33.0535754,70.000939 32.9676056,70.1128678 32.9676056,70.250939 C32.9676056,70.3890102 33.0535754,70.500939 33.1596244,70.500939 Z"
                          id="Shape" fill="#B4ABAB" fill-rule="nonzero"></path>
                    <polygon id="Shape" fill="#FFFFFF" fill-rule="nonzero"
                             points="29.485446 58.62723 38.285446 52.9924883 46.8957746 52.7446009 52.5859155 65.0929577 44.0835681 70.9802817 35.3286385 71.1183099"></polygon>
                    <path d="M35.3286385,71.7755869 C35.0742394,71.7761479 34.8423612,71.6298525 34.7333333,71.4 L28.8901408,58.9117371 C28.7506293,58.6131473 28.8538198,58.2574011 29.1314554,58.0798122 L37.9305164,52.4460094 C38.031303,52.3821158 38.147392,52.346446 38.2666667,52.342723 L46.8769953,52.0948357 C47.1403525,52.0872562 47.3827874,52.2376693 47.4929577,52.4769953 L53.1830986,64.8253521 C53.3122022,65.1139612 53.2175309,65.4535946 52.9577465,65.6338028 L44.456338,71.5201878 C44.3492313,71.5945877 44.2224132,71.6354441 44.0920188,71.6375587 L35.3370892,71.7755869 L35.3286385,71.7755869 Z M30.3286385,58.8732394 L35.7474178,70.457277 L43.8741784,70.3286385 L51.7615023,64.8694836 L46.484507,53.4140845 L38.4901408,53.6441315 L30.3286385,58.8732394 Z"
                          id="Shape" fill="#B4ABAB" fill-rule="nonzero"></path>
                    <path d="M43.2037559,69.5774648 C43.0935181,69.5775685 42.9933502,69.5133583 42.9474178,69.4131455 C41.4366197,66.1314554 38.5276995,59.9061033 38.4976526,59.8450704 C38.4350067,59.7049149 38.496124,59.540405 38.635083,59.475148 C38.774042,59.4098911 38.9396665,59.46792 39.0075117,59.6056338 C39.0366197,59.6685446 41.9474178,65.8967136 43.458216,69.1746479 C43.490066,69.2427095 43.4934015,69.3206757 43.4674806,69.3912087 C43.4415597,69.4617418 43.3885314,69.5189943 43.3201878,69.5502347 C43.283773,69.5675391 43.244068,69.5768249 43.2037559,69.5774648 Z"
                          id="Shape" fill="#B4ABAB" fill-rule="nonzero"></path>
                    <path d="M31.4666667,59.0769953 C31.3110935,59.078551 31.1837154,58.9536952 31.1821596,58.7981221 C31.1806039,58.6425489 31.3054597,58.5151708 31.4610329,58.513615 L38.0140845,58.3887324 L45.3896714,53.6525822 C45.4743752,53.5982375 45.5816372,53.59321 45.671053,53.6393933 C45.7604687,53.6855767 45.8184537,53.7759546 45.8231657,53.8764825 C45.8278776,53.9770105 45.7786005,54.0724159 45.6938967,54.1267606 L38.2507042,58.9061033 C38.2068838,58.9340445 38.1561878,58.9493183 38.1042254,58.9502347 L31.4723005,59.0760563 L31.4666667,59.0769953 Z"
                          id="Shape" fill="#B4ABAB" fill-rule="nonzero"></path>
                    <polygon id="Shape" fill="#B4ABAB" fill-rule="nonzero"
                             points="42.6356808 31.800939 51.7492958 38.8394366 51.7492958 35.1295775 61.3333333 35.1868545 61.5558685 31.4122066"></polygon>
                    <rect id="Rectangle-path" fill="#B4ABAB" fill-rule="nonzero" x="47.256338" y="73.486385" width="1"
                          height="2.09483568"></rect>
                    <path d="M49.9802817,85.5089202 C31.4990953,85.483105 16.0413827,71.4634777 14.2167207,53.0725689 C12.3920587,34.6816601 24.7936062,17.8979642 42.9094202,14.2411617 C61.0252341,10.5843593 78.9662474,21.2431991 84.4184418,38.9018654 C89.8706361,56.5605317 81.0616187,75.4785665 64.0375587,82.6713615 C59.5904547,84.5534205 54.8092347,85.5185429 49.9802817,85.5089202 Z M49.9802817,14.3352113 C32.0270687,14.3608724 17.0115635,27.9808212 15.2402612,45.8464587 C13.468959,63.7120962 25.5177052,80.0153509 43.1163592,83.5658291 C60.7150131,87.1163073 78.1422987,76.7597579 83.4362986,59.6048146 C88.7302986,42.4498713 80.1699474,24.0735608 63.6309859,17.0892019 C59.3123732,15.2622727 54.669416,14.3258887 49.9802817,14.3361502 L49.9802817,14.3352113 Z"
                          id="Shape" fill="#B4ABAB" fill-rule="nonzero"></path>
                    <polygon id="Shape" fill="#B4ABAB" fill-rule="nonzero"
                             points="20.0629108 24.9089202 17.6525822 28.0751174 12.3248826 24.0065728 14.7361502 20.8450704 15.8910798 21.7267606 14.5765258 23.4507042 15.4150235 24.0901408 16.6356808 22.4938967 17.7906103 23.3755869 16.5699531 24.971831 17.5755869 25.7399061 18.8901408 24.0159624"></polygon>
                    <polygon id="Shape" fill="#B4ABAB" fill-rule="nonzero"
                             points="21.314554 23.5173709 16.6685446 18.685446 17.9737089 17.4300469 21.6075117 21.2056338 23.4676056 19.4159624 24.4816901 20.4694836"></polygon>
                    <polygon id="Shape" fill="#B4ABAB" fill-rule="nonzero"
                             points="25.9220657 19.3793427 21.9361502 13.9906103 23.4 12.9079812 27.3849765 18.2976526"></polygon>
                    <path d="M29.6713615,12.3004695 L32.2262911,10.941784 L33.9220657,14.1342723 C33.3147097,14.7711577 32.605465,15.3023773 31.8234742,15.7061033 C30.9120501,16.1918623 30.0669797,16.3023474 29.2882629,16.0375587 C28.5095462,15.77277 27.857903,15.1511737 27.3333333,14.17277 C26.8250391,13.2181534 26.7023474,12.3298905 26.9652582,11.5079812 C27.228169,10.686072 27.8507042,10.0140845 28.8328638,9.49201878 C29.1862289,9.30188347 29.5585228,9.14925243 29.943662,9.03661972 C30.2716609,8.94017877 30.6085969,8.87725889 30.9492958,8.84882629 L31.1107981,10.37277 C30.5605797,10.3901997 30.0220294,10.5358494 29.5380282,10.7981221 C29.0716745,11.0485133 28.7899844,11.3928013 28.6929577,11.8309859 C28.5959311,12.2691706 28.6992175,12.7699531 29.0028169,13.3333333 C29.2964006,13.8873239 29.6359937,14.2478873 30.0215962,14.4150235 C30.4071987,14.5821596 30.8169014,14.5508607 31.2507042,14.3211268 C31.4722221,14.2062696 31.6798381,14.0663887 31.8694836,13.9042254 L31.3765258,12.9765258 L30.3201878,13.5399061 L29.6713615,12.3004695 Z"
                          id="Shape" fill="#B4ABAB" fill-rule="nonzero"></path>
                    <path d="M39.8600939,12.458216 L39.1784038,11.3530516 L37.0948357,11.9868545 L37.1370892,13.2873239 L35.2328638,13.8676056 L35.3643192,6.7915493 L37.6760563,6.08732394 L41.7549296,11.8807512 L39.8600939,12.458216 Z M38.3859155,10.0413146 L37.7887324,9.07230047 C37.6535211,8.85821596 37.4832551,8.57965571 37.2779343,8.23661972 C37.0726135,7.89358372 36.9308294,7.6456964 36.8525822,7.49295775 C36.8723005,7.65070423 36.8948357,7.91173709 36.9211268,8.27793427 C36.9474178,8.64413146 36.9821596,9.36995305 37.0215962,10.456338 L38.3859155,10.0413146 Z"
                          id="Shape" fill="#B4ABAB" fill-rule="nonzero"></path>
                    <path d="M42.3840376,5.03004695 L44.7079812,4.77183099 C45.6131455,4.67042254 46.3001565,4.72989045 46.7690141,4.95023474 C47.2378717,5.17057903 47.5039124,5.56463224 47.5671362,6.13239437 C47.6149934,6.47319476 47.5514277,6.82033582 47.3859155,7.12206573 C47.2336971,7.39941578 46.9846761,7.61100003 46.686385,7.71643192 L46.6920188,7.76150235 C47.1176839,7.82410016 47.4369327,7.97308294 47.6497653,8.2084507 C47.8625978,8.44381847 47.9921753,8.76463224 48.0384977,9.17089202 C48.1061033,9.77558685 47.9320814,10.2763693 47.5164319,10.6732394 C47.1007825,11.0701095 46.5010955,11.312989 45.7173709,11.4018779 L43.1239437,11.6901408 L42.3840376,5.03004695 Z M44.4676056,7.38591549 L45.0103286,7.3258216 C45.2234237,7.31514239 45.4273329,7.23575287 45.5915493,7.09953052 C45.7231352,6.96985275 45.7827803,6.78390048 45.7511737,6.60187793 C45.7098592,6.22629108 45.4065728,6.06979656 44.8413146,6.13239437 L44.3352113,6.18873239 L44.4676056,7.38591549 Z M44.6140845,8.70046948 L44.7699531,10.0985915 L45.4028169,10.028169 C45.9661972,9.96557121 46.2209703,9.69765258 46.1671362,9.22441315 C46.1571585,9.02659827 46.0522388,8.84578675 45.885446,8.73896714 C45.7220657,8.63693271 45.4976526,8.60187793 45.2122066,8.63380282 L44.6140845,8.70046948 Z"
                          id="Shape" fill="#B4ABAB" fill-rule="nonzero"></path>
                    <polygon id="Shape" fill="#B4ABAB" fill-rule="nonzero"
                             points="50.0985915 11.1305164 50.4657277 4.43755869 52.2741784 4.53615023 51.9868545 9.76525822 54.5643192 9.90704225 54.484507 11.3671362"></polygon>
                    <polygon id="Shape" fill="#B4ABAB" fill-rule="nonzero"
                             points="60.1314554 12.4638498 56.2375587 11.6431925 57.6215962 5.08450704 61.515493 5.90610329 61.2150235 7.32394366 59.0929577 6.87699531 58.8751174 7.90985915 60.8450704 8.3258216 60.5455399 9.74741784 58.5755869 9.33333333 58.314554 10.571831 60.4366197 11.0187793"></polygon>
                    <polygon id="Shape" fill="#B4ABAB" fill-rule="nonzero"
                             points="69.4600939 16.3924883 67.915493 15.5004695 71.2676056 9.69577465 74.6985915 11.6760563 73.971831 12.9352113 72.086385 11.8460094 71.4450704 12.9577465 73.1849765 13.9615023 72.458216 15.2206573 70.7192488 14.2159624"></polygon>
                    <path d="M79.7971831,19.9061033 C79.0704225,20.7687011 78.3064163,21.2463224 77.5051643,21.3389671 C76.7039124,21.4316119 75.8954617,21.1345853 75.0798122,20.4478873 C74.2748044,19.7674491 73.8491393,19.0212833 73.8028169,18.2093897 C73.7564945,17.3974961 74.0951487,16.5596244 74.8187793,15.6957746 C75.5380282,14.8431925 76.3001565,14.371205 77.1051643,14.2798122 C77.9101721,14.1884194 78.7198748,14.485759 79.5342723,15.171831 C80.3480438,15.8604069 80.7784038,16.6043818 80.8253521,17.4037559 C80.8723005,18.2031299 80.5295775,19.0372457 79.7971831,19.9061033 Z M76.2694836,16.9352113 C75.4338028,17.9267606 75.3611894,18.712989 76.0516432,19.2938967 C76.4015649,19.5887324 76.7630673,19.6873239 77.1361502,19.5896714 C77.5092332,19.4920188 77.9098592,19.1881064 78.3380282,18.6779343 C78.7687011,18.1665102 79.001252,17.7161189 79.0356808,17.3267606 C79.0701095,16.9374022 78.9164319,16.599061 78.5746479,16.3117371 C77.8798122,15.7239437 77.1114241,15.9305164 76.2694836,16.9314554 L76.2694836,16.9352113 Z"
                          id="Shape" fill="#B4ABAB" fill-rule="nonzero"></path>
                    <path d="M81.9117371,23.7286385 L80.0140845,25.258216 L78.8732394,23.8497653 L84.0882629,19.6384977 L85.4676056,21.3464789 C86.6125196,22.7643192 86.6710485,23.8879499 85.6431925,24.7173709 C85.0397496,25.2043818 84.3345853,25.286698 83.5276995,24.9643192 L82.4826291,28.3192488 L81.1915493,26.7230047 L82.1962441,24.084507 L81.9117371,23.7286385 Z M82.970892,22.8732394 L83.1840376,23.1370892 C83.5815336,23.6303599 83.9978091,23.7007825 84.4328638,23.3483568 C84.7915493,23.057903 84.7762128,22.6716745 84.3868545,22.1896714 L84.1624413,21.9079812 L82.970892,22.8732394 Z"
                          id="Shape" fill="#B4ABAB" fill-rule="nonzero"></path>
                    <path d="M91.2450704,54.1342723 L91.5183099,51.1633803 L95.229108,51.5042254 C95.4344031,52.3882035 95.4915176,53.3001316 95.3981221,54.2028169 C95.3017214,55.2638498 94.9189358,56.0557121 94.2497653,56.5784038 C93.5805947,57.1010955 92.6763693,57.3098592 91.5370892,57.2046948 C90.4259781,57.1032864 89.5902973,56.7067293 89.0300469,56.0150235 C88.4697966,55.3233177 88.2422535,54.4065728 88.3474178,53.2647887 C88.3833722,52.8526675 88.4623627,52.4454412 88.5830986,52.0497653 C88.6838623,51.7114226 88.8188314,51.3842249 88.9859155,51.0732394 L90.3943662,51.7953052 C90.100685,52.2801702 89.9235789,52.8265955 89.8769953,53.3915493 C89.827543,53.9355243 89.9655712,54.371831 90.2910798,54.7004695 C90.6165884,55.029108 91.1076682,55.2237872 91.7643192,55.284507 C92.4078247,55.343975 92.9104851,55.2547731 93.2723005,55.0169014 C93.6341158,54.7790297 93.8384977,54.4078247 93.885446,53.9032864 C93.9109535,53.6470629 93.9074887,53.3887804 93.8751174,53.1333333 L92.7971831,53.0338028 L92.684507,54.2629108 L91.2450704,54.1342723 Z"
                          id="Shape" fill="#B4ABAB" fill-rule="nonzero"></path>
                    <path d="M94.2910798,61.0929577 L93.5399061,63.4244131 L88.1295775,64.3295775 L88.1164319,64.3699531 C88.8638498,64.5483568 89.429421,64.6995305 89.8131455,64.8234742 L92.7784038,65.7821596 L92.2694836,67.3568075 L85.6910798,65.2309859 L86.4422535,62.9098592 L91.7877934,61.9924883 L91.7962441,61.9661972 C91.1189358,61.7934272 90.5796557,61.6422535 90.1784038,61.5126761 L87.2046948,60.5511737 L87.7126761,58.9671362 L94.2910798,61.0929577 Z"
                          id="Shape" fill="#B4ABAB" fill-rule="nonzero"></path>
                    <polygon id="Shape" fill="#B4ABAB" fill-rule="nonzero"
                             points="89.8206573 72.228169 83.7032864 69.0075117 84.5774648 67.3464789 90.6957746 70.5661972"></polygon>
                    <path d="M84.5295775,72.0694836 C85.1555556,72.5251956 85.5032864,73.0607199 85.57277,73.6760563 C85.6422535,74.2913928 85.4306729,74.9380282 84.9380282,75.6159624 L84.628169,76.0403756 L86.4788732,77.3924883 L85.3793427,78.9014085 L79.7953052,74.8253521 L81.2037559,72.8920188 C81.7201878,72.1846635 82.2616588,71.7683881 82.828169,71.6431925 C83.3946792,71.5179969 83.9618153,71.6600939 84.5295775,72.0694836 Z M83.4028169,75.142723 L83.6028169,74.8676056 C83.7579678,74.6768657 83.831232,74.4324267 83.8065728,74.1877934 C83.7692661,73.9486392 83.632916,73.736274 83.4309859,73.6028169 C83.0553991,73.3280125 82.714554,73.399061 82.4084507,73.8159624 L82.1267606,74.2056338 L83.4028169,75.142723 Z"
                          id="Shape" fill="#B4ABAB" fill-rule="nonzero"></path>
                    <path d="M80.0262911,77.9342723 C80.5589984,78.4938967 80.8050078,79.0832551 80.7643192,79.7023474 C80.7236307,80.3214397 80.399374,80.9195618 79.7915493,81.4967136 L79.4159624,81.858216 L80.9962441,83.5211268 L79.6422535,84.8075117 L74.8798122,79.7962441 L76.6140845,78.1483568 C77.2469484,77.5461659 77.8535211,77.2331768 78.4338028,77.2093897 C79.0140845,77.1856025 79.5449139,77.42723 80.0262911,77.9342723 Z M78.3624413,80.7511737 L78.6093897,80.5164319 C78.7962077,80.3567638 78.9120384,80.1294925 78.9314554,79.884507 C78.9373357,79.6412398 78.8393298,79.4069819 78.6619718,79.2403756 C78.3408451,78.9023474 77.9928013,78.9111111 77.6178404,79.2666667 L77.2685446,79.599061 L78.3624413,80.7511737 Z"
                          id="Shape" fill="#B4ABAB" fill-rule="nonzero"></path>
                    <polygon id="Shape" fill="#B4ABAB" fill-rule="nonzero"
                             points="75.4150235 87.9671362 71.429108 82.3183099 72.9633803 81.2366197 76.9492958 86.885446"></polygon>
                    <polygon id="Shape" fill="#B4ABAB" fill-rule="nonzero"
                             points="72.4741784 89.8938967 70.7840376 90.7126761 69.5549296 88.1774648 67.6056338 89.1239437 68.8347418 91.6591549 67.1446009 92.4779343 64.1314554 86.258216 65.8215962 85.4394366 66.9399061 87.7455399 68.8929577 86.7981221 67.7746479 84.4920188 69.4647887 83.6732394"></polygon>
                    <path d="M63.513615,91.5492958 C63.6241816,91.9387389 63.6160081,92.3523186 63.4901408,92.7370892 C63.3546699,93.1294342 63.1076378,93.4737127 62.7793427,93.7276995 C62.3884542,94.031289 61.9374809,94.2482938 61.456338,94.3643192 C61.0824114,94.46944 60.6990171,94.5373753 60.3117371,94.5671362 C59.965605,94.5831388 59.618807,94.5572866 59.2788732,94.4901408 L58.8525822,92.8807512 C59.2412119,92.9659322 59.6378265,93.009371 60.0356808,93.0103286 C60.3941182,93.015381 60.7517031,92.9740362 61.0995305,92.8873239 C61.3671362,92.8159624 61.5521127,92.7173709 61.6525822,92.5915493 C61.7498841,92.4794989 61.7850813,92.3263913 61.7464789,92.1830986 C61.7251958,92.0967327 61.6764246,92.0196214 61.6075117,91.9633803 C61.5179408,91.8976497 61.4170451,91.8489524 61.3098592,91.8197183 C60.9791365,91.7377965 60.6444229,91.6729223 60.3070423,91.6253521 C59.916801,91.5710924 59.5356155,91.4646636 59.1737089,91.3089202 C58.9180852,91.1913099 58.6931298,91.0161661 58.5164319,90.7971831 C58.3337273,90.5555103 58.2029767,90.2786642 58.1323944,89.9840376 C57.9690141,89.3693271 58.0657277,88.8300469 58.4225352,88.3661972 C58.7793427,87.9023474 59.3492958,87.5671362 60.1323944,87.3605634 C60.8664278,87.1760736 61.6311309,87.1485571 62.3765258,87.2798122 L62.1887324,88.8206573 C61.4882629,88.6998435 60.9107981,88.6998435 60.456338,88.8206573 C60.2215962,88.8832551 60.0619718,88.9696401 59.9774648,89.0798122 C59.8956387,89.1759711 59.8661661,89.3061418 59.8985915,89.428169 C59.9429418,89.5700966 60.0536602,89.6815157 60.1953052,89.7267606 C60.3577465,89.7943662 60.7765258,89.885446 61.4488263,90.000939 C62.0942097,90.1067293 62.5677621,90.2788732 62.8694836,90.5173709 C63.171205,90.7558685 63.3859155,91.0998435 63.513615,91.5492958 Z"
                          id="Shape" fill="#B4ABAB" fill-rule="nonzero"></path>
                    <path d="M48.6103286,92.2112676 C48.4901408,93.3586854 48.0816901,94.2093897 47.3849765,94.7633803 C46.6882629,95.3173709 45.7677621,95.5348983 44.6234742,95.4159624 L42.399061,95.1821596 L43.1201878,88.3070423 L45.4995305,88.5558685 C46.6031299,88.6735524 47.4253521,89.0453834 47.9661972,89.6713615 C48.5070423,90.2973396 48.7217527,91.143975 48.6103286,92.2112676 Z M46.6760563,92.0741784 C46.7386541,91.4438185 46.6629108,90.9636933 46.4488263,90.6338028 C46.2347418,90.3039124 45.8719875,90.1120501 45.3605634,90.058216 L44.8197183,90.0018779 L44.4159624,93.8516432 L44.8300469,93.8948357 C45.3934272,93.9536776 45.8244131,93.8331768 46.1230047,93.5333333 C46.4215962,93.2334898 46.6059468,92.7471049 46.6760563,92.0741784 Z"
                          id="Shape" fill="#B4ABAB" fill-rule="nonzero"></path>
                    <polygon id="Shape" fill="#B4ABAB" fill-rule="nonzero"
                             points="39.1051643 94.4685446 35.170892 93.2985915 37.142723 86.6723005 41.0769953 87.8422535 40.6497653 89.2798122 38.5042254 88.6384977 38.1943662 89.6816901 40.1793427 90.2723005 39.7521127 91.7089202 37.7671362 91.1183099 37.3915493 92.3690141 39.5352113 93.0065728"></polygon>
                    <path d="M31.6638498,92.0131455 L29.4985915,90.8685446 L29.541784,85.3830986 L29.5032864,85.3633803 C29.199061,86.0682316 28.9524257,86.600313 28.7633803,86.9596244 L27.3079812,89.714554 L25.8441315,88.941784 L29.0741784,82.829108 L31.2338028,83.9690141 L31.2112676,89.3896714 L31.2366197,89.4028169 C31.5233177,88.7680751 31.7652582,88.2629108 31.9624413,87.8873239 L33.42723,85.1230047 L34.8985915,85.9014085 L31.6638498,92.0131455 Z"
                          id="Shape" fill="#B4ABAB" fill-rule="nonzero"></path>
                    <polygon id="Shape" fill="#B4ABAB" fill-rule="nonzero"
                             points="21.4704225 85.6948357 25.6957746 80.2206573 27.1821596 81.3671362 22.9568075 86.8413146"></polygon>
                    <path d="M20.3586854,75.0751174 L22.0262911,76.8178404 C22.6754304,77.4995305 23.056651,78.1001565 23.1699531,78.6197183 C23.2832551,79.1392801 23.1267606,79.6040689 22.7004695,80.0140845 C22.451283,80.26575 22.1276091,80.4303857 21.7774648,80.4835681 C21.4546565,80.5324481 21.1251442,80.4609313 20.8516432,80.2826291 L20.8178404,80.315493 C21.0319249,80.7035994 21.1098592,81.058529 21.0516432,81.3802817 C20.9934272,81.7020344 20.8115806,82.0090767 20.5061033,82.3014085 C20.0528951,82.7352113 19.5330203,82.9067293 18.9464789,82.8159624 C18.3599374,82.7251956 17.7856025,82.3856025 17.2234742,81.7971831 L15.3633803,79.8535211 L20.3586854,75.0751174 Z M18.7455399,79.2065728 L17.6967136,80.2065728 L18.1511737,80.6816901 C18.5543036,81.1035994 18.9333333,81.1442879 19.2882629,80.8037559 C19.4439745,80.6714232 19.5264527,80.4722176 19.5098592,80.2685446 C19.4901408,80.0713615 19.3784038,79.8647887 19.1737089,79.6507042 L18.7455399,79.2065728 Z M19.7333333,78.2619718 L20.1220657,78.6685446 C20.2639201,78.8367629 20.4567715,78.954122 20.6713615,79.0028169 C20.8598083,79.0304647 21.0497104,78.962944 21.1784038,78.8225352 C21.4588419,78.5539906 21.3962441,78.2078247 20.9906103,77.7840376 L20.62723,77.4084507 L19.7333333,78.2619718 Z"
                          id="Shape" fill="#B4ABAB" fill-rule="nonzero"></path>
                    <path d="M10.37277,72.6413146 L13.9323944,68.885446 L13.9107981,68.8488263 C13.2153365,69.3389671 12.6657277,69.7039124 12.2619718,69.943662 L9.67981221,71.4760563 L8.83474178,70.0535211 L14.7793427,66.5230047 L16.0488263,68.6619718 L12.5652582,72.4084507 L12.5849765,72.4413146 L17.5267606,71.1502347 L18.799061,73.2929577 L12.8553991,76.8225352 L11.9784038,75.3474178 L14.5849765,73.799061 C14.7201878,73.7192488 14.8723005,73.6319249 15.0394366,73.5370892 C15.2065728,73.4422535 15.6234742,73.2206573 16.2882629,72.8704225 L16.2666667,72.8338028 L11.2807512,74.171831 L10.37277,72.6413146 Z"
                          id="Shape" fill="#B4ABAB" fill-rule="nonzero"></path>
                    <path d="M10.6873239,65.5399061 C9.57370892,65.8741784 8.64475743,65.8547731 7.90046948,65.4816901 C7.15618153,65.1086072 6.62660407,64.3956182 6.31173709,63.342723 C5.99874804,62.3042254 6.0513302,61.4203443 6.46948357,60.6910798 C6.88763693,59.9618153 7.65289515,59.429734 8.76525822,59.0948357 C9.86760563,58.7643192 10.7918623,58.7871674 11.5380282,59.1633803 C12.2841941,59.5395931 12.8162754,60.2535211 13.1342723,61.3051643 C13.4510172,62.3586854 13.4021909,63.2438185 12.9877934,63.9605634 C12.5733959,64.6773083 11.8065728,65.2037559 10.6873239,65.5399061 Z M9.32112676,60.9840376 C8.04162754,61.3677621 7.53521127,62.0050078 7.80187793,62.8957746 C7.9370892,63.3489828 8.19311424,63.6384977 8.56995305,63.7643192 C8.94679186,63.8901408 9.46447574,63.8541471 10.1230047,63.656338 C10.7840376,63.458529 11.2391236,63.201252 11.4882629,62.884507 C11.7374022,62.5677621 11.7956182,62.1890454 11.6629108,61.7483568 C11.3943662,60.8519562 10.6137715,60.5971831 9.32112676,60.9840376 Z"
                          id="Shape" fill="#B4ABAB" fill-rule="nonzero"></path>
                    <path d="M10.1830986,54.4309859 C10.1605664,54.012572 9.91941048,53.6369252 9.54835681,53.4422535 C9.16400626,53.2256651 8.65320814,53.1452269 8.01596244,53.200939 C6.69014085,53.3167449 6.0713615,53.8785603 6.15962441,54.886385 C6.1854101,55.1864177 6.25435201,55.4811602 6.36431925,55.7615023 C6.47725806,56.0461398 6.60481431,56.3247578 6.74647887,56.5962441 L5.17276995,56.7342723 C4.85661723,56.1408138 4.66852612,55.487613 4.62065728,54.8169014 C4.52989045,53.7777778 4.76181534,52.9546166 5.31643192,52.3474178 C5.87104851,51.7402191 6.71830986,51.3868545 7.85821596,51.2873239 C8.50633857,51.216957 9.16193816,51.2989472 9.77276995,51.5267606 C10.3176479,51.732524 10.7874149,52.0985167 11.1201878,52.5765258 C11.4680655,53.0937599 11.6719212,53.6943076 11.7107981,54.3164319 C11.7772711,55.0551885 11.6751753,55.7993964 11.4122066,56.4929577 L9.89765258,56.0507042 C9.99269163,55.7927663 10.0710996,55.5290018 10.1323944,55.2610329 C10.1922625,54.9886575 10.2093687,54.7086231 10.1830986,54.4309859 Z"
                          id="Shape" fill="#B4ABAB" fill-rule="nonzero"></path>
                    <polygon id="Shape" fill="#B4ABAB" fill-rule="nonzero"
                             points="7.90516432 35.6553991 9.74835681 35.6150235 10.7596244 34.0741784 11.3680751 35.8140845 13.1455399 36.3004695 11.6788732 37.4159624 11.7652582 39.258216 10.2507042 38.2065728 8.52676056 38.8591549 9.05821596 37.0938967"></polygon>
                    <polygon id="Shape" fill="#B4ABAB" fill-rule="nonzero"
                             points="90.2553991 35.1483568 91.0619718 36.8065728 92.885446 37.0816901 91.5577465 38.3615023 91.8600939 40.1793427 90.2328638 39.3126761 88.5962441 40.1615023 88.9173709 38.3464789 87.6046948 37.0525822 89.4300469 36.7971831"></polygon>
                </g>
            </g>
        </g>
    </g>
</svg>
