<svg width="60" height="61" viewBox="0 0 60 61" fill="none" xmlns="http://www.w3.org/2000/svg">
    <path d="M29.9877 59.6124C46.3359 59.6124 59.5887 46.3596 59.5887 30.0114C59.5887 13.6632 46.3359 0.4104 29.9877 0.4104C13.6395 0.4104 0.386719 13.6632 0.386719 30.0114C0.386719 46.3596 13.6395 59.6124 29.9877 59.6124Z"
          fill="white"/>
    <path fill-rule="evenodd" clip-rule="evenodd"
          d="M0.600294 35.9612C3.43299 49.9445 15.7207 59.9991 29.9881 60.0082C33.9991 60.0159 37.9704 59.214 41.6642 57.6505C56.9288 51.2021 64.0756 33.6003 57.6272 18.3358C51.1788 3.07124 33.577 -4.07563 18.3125 2.37279C5.1735 7.93375 -2.2324 21.9779 0.600294 35.9612ZM1.37401 24.2192C4.13205 10.6042 16.0962 0.814444 29.9877 0.805721C33.893 0.797981 37.7596 1.57858 41.3561 3.10075C56.2 9.39069 63.1427 26.5163 56.8692 41.3672C50.5956 56.2181 33.4777 63.1797 18.6198 56.9226C5.82691 51.5083 -1.38403 37.8342 1.37401 24.2192Z"
          fill="#627590"/>
    <path fill-rule="evenodd" clip-rule="evenodd"
          d="M8.86057 32.1733C9.93919 43.0368 19.0709 51.3176 29.9878 51.3317C32.8396 51.3375 35.6631 50.7674 38.2892 49.6556C48.3455 45.4069 53.549 34.2318 50.3281 23.8008C47.1072 13.3697 36.5091 7.07382 25.8081 9.23441C15.1071 11.395 7.78195 21.3097 8.86057 32.1733ZM9.42655 27.9022C10.476 17.3295 19.363 9.2702 29.9877 9.25614C32.7629 9.25074 35.5108 9.80545 38.0666 10.8871C47.8537 15.0217 52.9183 25.8974 49.784 36.0493C46.6497 46.2011 36.3355 52.3288 25.9209 50.2264C15.5064 48.124 8.37709 38.4749 9.42655 27.9022Z"
          fill="#627590"/>
    <path fill-rule="evenodd" clip-rule="evenodd"
          d="M22.4769 44.7348C22.1531 44.7338 21.834 44.6584 21.5439 44.5146C21.1594 44.3257 20.7991 44.0909 20.471 43.8155C17.4983 41.3928 14.5617 35.5683 13.9349 33.742L13.7338 33.2399C13.7299 33.2298 13.7265 33.2196 13.7231 33.2089C13.5051 32.5368 13.116 30.7936 14.1947 29.1214C15.3806 27.2872 17.9167 26.1403 21.7388 25.7116C21.8655 25.6974 21.9927 25.7341 22.0923 25.8138C22.1919 25.8935 22.2557 26.0095 22.2696 26.1363C22.3012 26.426 22.5729 29.0384 22.3125 31.4786C22.2105 32.4414 22.1073 33.3018 22.0162 34.0613L22.0162 34.0614L22.0098 34.1147C21.9973 34.2169 21.9853 34.318 21.9734 34.4177L21.9734 34.4182L21.9596 34.5343C22.9797 35.268 23.9001 36.1313 24.6973 37.1026C24.9571 37.4206 25.8042 38.4958 25.8053 38.995C25.8093 40.4418 25.5269 41.7288 24.9662 42.8204C24.524 43.6799 24.0378 44.1441 23.8875 44.2497C23.4324 44.5716 22.9512 44.7348 22.4769 44.7348ZM21.8313 35.6377C21.6744 36.9519 21.5838 38.2731 21.5597 39.5964C21.5264 41.7807 22.0194 42.9915 23.1974 43.5556C23.2448 43.528 23.2894 43.4992 23.3318 43.4687C23.3781 43.4292 24.8424 42.1224 24.8475 39.0401C24.7323 38.7239 23.7028 37.1026 21.8313 35.6377ZM14.8319 33.3963L14.6326 32.8982C14.4564 32.3459 14.1542 30.9562 14.9996 29.6449C15.9715 28.1393 18.1101 27.1579 21.359 26.7275C21.4369 27.6221 21.5532 29.5545 21.359 31.3797C21.2545 32.3589 21.15 33.2326 21.0574 34.0034L21.056 34.0148C20.8184 35.9944 20.6304 37.5599 20.6 39.5851C20.5819 40.7851 20.6892 42.302 21.5272 43.4071C21.3728 43.3077 21.2248 43.1987 21.0839 43.0807L21.0794 43.0768C18.2219 40.745 15.3594 34.9448 14.8404 33.42L14.8319 33.3963Z"
          fill="#627590"/>
    <path d="M25.6124 38.5132L26.7305 38.3517L27.306 38.2721C27.4043 38.2602 27.5035 38.2556 27.6025 38.2585C27.709 38.261 27.8149 38.2765 27.9176 38.3048C28.1442 38.3705 28.3099 38.5648 28.3388 38.799C28.3676 39.0331 28.2542 39.2619 28.0503 39.3806L28.0334 39.3902C27.8537 39.4869 27.6561 39.5457 27.4528 39.563C27.2495 39.5828 27.0428 39.5969 26.8345 39.6026C26.6261 39.6082 26.4143 39.606 26.2008 39.5902C25.9836 39.5776 25.7677 39.5474 25.5554 39.4998C25.3198 39.4465 25.1559 39.2327 25.1654 38.9914C25.175 38.7501 25.3553 38.55 25.5943 38.5155L25.6124 38.5132Z"
          fill="#627590"/>
    <path d="M16.5166 37.7537C16.4415 37.7545 16.3748 37.7058 16.3528 37.634C15.7474 35.7619 16.1676 34.0621 17.0406 31.9309C17.8205 30.0278 19.7829 27.9473 21.5996 26.1628C21.6436 26.1196 21.7073 26.1032 21.7667 26.1197C21.8261 26.1362 21.8721 26.1831 21.8875 26.2428C21.9029 26.3025 21.8853 26.3659 21.8413 26.409C20.0495 28.1687 18.1142 30.2164 17.3597 32.0619C16.516 34.1209 16.1083 35.7535 16.682 37.5284C16.699 37.581 16.6898 37.6385 16.6573 37.6831C16.6248 37.7278 16.5729 37.7542 16.5177 37.7543L16.5166 37.7537Z"
          fill="#627590"/>
    <path d="M21.2078 38.1946C21.5129 38.3528 21.8349 38.4755 22.1678 38.5606C22.507 38.6496 22.8525 38.7125 23.2013 38.7486C23.898 38.8236 24.6014 38.8099 25.2947 38.708C25.4087 38.6863 25.5254 38.7289 25.5987 38.8188C25.6721 38.9087 25.6903 39.0316 25.6462 39.1389C25.602 39.2462 25.5027 39.3208 25.3873 39.3331H25.3749C24.6274 39.4135 23.8728 39.3991 23.129 39.2902C22.7569 39.236 22.3894 39.1541 22.0295 39.0451C21.6631 38.9351 21.3105 38.7835 20.9785 38.5933C20.8669 38.531 20.8269 38.3899 20.8893 38.2782C20.9517 38.1666 21.0928 38.1266 21.2044 38.189L21.2078 38.1946Z"
          fill="#627590"/>
    <path fill-rule="evenodd" clip-rule="evenodd"
          d="M37.4509 26.139C37.3747 26.139 37.2996 26.1208 37.2318 26.086C36.972 25.9521 34.6409 24.738 32.7502 23.1782C31.9956 22.5557 31.3296 21.9916 30.7408 21.4927L30.7172 21.4727L30.3947 21.1994C29.2202 21.6465 27.9926 21.9388 26.7427 22.0691C26.3344 22.1109 24.97 22.2244 24.5533 21.9505C23.3436 21.1565 22.4248 20.2117 21.8234 19.1421C21.3496 18.2996 21.2304 17.6383 21.2248 17.4548C21.1949 16.5241 21.5755 15.7775 22.2978 15.3534C22.6674 15.1358 23.062 14.9639 23.4729 14.8412C27.1312 13.6982 33.6108 14.4555 35.48 14.9401L36.0097 15.0485L36.0414 15.0564C36.7219 15.245 38.3917 15.8809 39.1925 17.7027C40.0707 19.7007 39.6296 22.4508 37.8807 25.877C37.8223 25.9911 37.7206 26.077 37.5983 26.1153C37.5507 26.131 37.501 26.139 37.4509 26.139ZM23.4621 15.943C24.7609 15.943 25.9954 16.6438 26.9317 17.2825C28.6026 18.4225 29.8043 19.4413 31.3223 20.7282L31.3366 20.7403L31.5091 20.8866C32.0584 21.3523 32.6726 21.8731 33.3594 22.4373C34.7712 23.604 36.4518 24.5725 37.2401 25.0034C38.6711 22.055 39.0314 19.73 38.3097 18.089C37.6806 16.6568 36.3541 16.1429 35.7962 15.9859L35.271 15.8775L35.2461 15.8719C33.6886 15.4653 27.2706 14.6577 23.7529 15.7589H23.7467C23.5707 15.8113 23.3981 15.8747 23.23 15.9487C23.3085 15.9453 23.3853 15.943 23.4621 15.943ZM29.5445 20.484C27.2907 21.2379 25.3707 21.2046 25.0437 21.125H25.0443C22.4753 19.4223 22.1913 17.4802 22.1862 17.4193C22.1834 17.3679 22.1834 17.3159 22.1862 17.2594C23.3043 16.5891 24.5868 16.8438 26.3905 18.076C27.4815 18.8253 28.5342 19.629 29.5445 20.484Z"
          fill="#627590"/>
    <path d="M25.0607 22.0556L24.579 23.0777L24.3311 23.6018C24.2868 23.6903 24.236 23.7755 24.1792 23.8565C24.1183 23.944 24.047 24.0239 23.9668 24.0942C23.7872 24.2471 23.5337 24.2782 23.3224 24.1732C23.1111 24.0683 22.9827 23.8475 22.9961 23.6119V23.5922C23.0145 23.3893 23.0743 23.1923 23.1717 23.0133C23.2677 22.8326 23.3693 22.6525 23.48 22.4752C23.5909 22.2951 23.7108 22.1208 23.8392 21.9528C23.9693 21.7785 24.1134 21.6152 24.2701 21.4643C24.4448 21.3 24.7115 21.2825 24.9061 21.4227C25.1007 21.5629 25.1686 21.8214 25.068 22.0392L25.0607 22.0556Z"
          fill="#627590"/>
    <path d="M37.4083 25.7178C37.3257 25.7179 37.2546 25.6594 37.2389 25.5783C36.7578 23.1133 36.1145 20.3716 34.9913 18.7237C33.7376 16.885 32.5997 15.6449 30.8033 15.1451C30.7117 15.1195 30.6581 15.0244 30.6836 14.9327C30.7092 14.841 30.8043 14.7874 30.896 14.813C32.7934 15.341 33.9788 16.6263 35.2759 18.5295C36.4342 20.2287 37.0893 23.0128 37.5772 25.5122C37.5868 25.5572 37.5777 25.6041 37.552 25.6422C37.5264 25.6803 37.4863 25.7064 37.4411 25.7144C37.4303 25.7166 37.4193 25.7177 37.4083 25.7178Z"
          fill="#627590"/>
    <path d="M27.7526 18.5561C27.4525 18.7236 27.1725 18.9248 26.918 19.1558C26.6582 19.3893 26.4164 19.6421 26.1946 19.912C25.748 20.4522 25.3717 21.0469 25.0747 21.6818C24.9978 21.8331 24.8151 21.8966 24.6609 21.8258C24.5067 21.755 24.4358 21.575 24.5004 21.4181L24.5055 21.4073C24.8498 20.7383 25.2777 20.1157 25.7789 19.5545C26.0292 19.2735 26.3003 19.0119 26.5899 18.7718C26.8827 18.5262 27.2027 18.3151 27.5437 18.1427C27.6572 18.0837 27.797 18.128 27.856 18.2415C27.9149 18.355 27.8707 18.4949 27.7572 18.5538L27.7526 18.5561Z"
          fill="#627590"/>
    <path fill-rule="evenodd" clip-rule="evenodd"
          d="M37.3144 44.8804C37.1885 44.8804 37.0603 44.8753 36.9287 44.864C34.754 44.6805 32.5493 42.9784 30.3779 39.8047C30.3059 39.6995 30.2786 39.5699 30.3023 39.4445C30.3259 39.3192 30.3984 39.2084 30.5039 39.1366C30.745 38.9723 32.9254 37.5057 35.2001 36.5903C36.0761 36.2373 36.8649 35.9315 37.5661 35.6597L37.5661 35.6597L37.6696 35.6196L38.0649 35.4671C38.2336 34.2217 38.5635 33.0036 39.0464 31.8433C39.2051 31.4649 39.7574 30.2124 40.1973 29.9769C41.473 29.2935 42.7419 28.9389 43.9685 28.9214C44.9348 28.9078 45.5729 29.1196 45.7372 29.2038C46.5691 29.6228 47.0429 30.3134 47.0711 31.1492C47.085 31.5776 47.0471 32.0062 46.9581 32.4255C46.2138 36.186 42.4511 41.5175 41.1325 42.9254L40.7835 43.3387C40.7766 43.3472 40.7692 43.3553 40.7615 43.363C40.3006 43.8374 39.0871 44.8804 37.3144 44.8804ZM31.4463 39.6624C33.3522 42.329 35.222 43.7566 37.0082 43.9074C38.5669 44.039 39.6523 43.1168 40.0577 42.7046L40.4039 42.2951L40.4208 42.2759C41.5226 41.1025 45.2995 35.8505 46.0116 32.2346L46.0118 32.2326C46.0118 32.2312 46.0118 32.2298 46.0116 32.2284C46.0497 32.0486 46.0765 31.8666 46.0918 31.6835C45.5101 32.9428 44.2214 33.7498 43.1552 34.2976C41.3481 35.2231 39.8764 35.7935 38.0123 36.5152C37.8529 36.5774 37.6888 36.6411 37.5201 36.7067L37.5198 36.7068L37.5197 36.7068C36.9222 36.939 36.2665 37.1938 35.5541 37.4809C33.8543 38.1653 32.2019 39.1762 31.4463 39.6624ZM39.0962 35.0622C39.5107 32.7232 40.4589 31.0521 40.6848 30.8031C43.4078 29.3602 45.2494 30.039 45.3064 30.0616C45.3522 30.0831 45.399 30.1108 45.4465 30.1396C45.5001 31.4429 44.6626 32.447 42.7189 33.4432C41.5392 34.0433 40.3301 34.5837 39.0962 35.0622Z"
          fill="#627590"/>
    <path d="M39.8612 30.3733L39.1937 29.4613L38.8549 28.9914C38.7981 28.9101 38.7475 28.8246 38.7036 28.7356C38.6557 28.6404 38.6197 28.5397 38.5963 28.4358C38.5485 28.2052 38.6425 27.9683 38.8354 27.8332C39.0283 27.6981 39.2831 27.6908 39.4834 27.8146L39.5004 27.8247C39.67 27.9379 39.8146 28.0847 39.9251 28.2562C40.038 28.4256 40.1476 28.6023 40.2509 28.7842C40.3542 28.966 40.4514 29.153 40.5372 29.3489C40.6288 29.5466 40.7043 29.7513 40.7631 29.9611C40.8253 30.1938 40.7132 30.4378 40.4962 30.5423C40.2792 30.6468 40.0185 30.5822 39.8754 30.3886L39.8612 30.3733Z"
          fill="#627590"/>
    <path d="M37.3521 41.0663C35.4061 41.0663 32.993 40.3949 30.8392 39.7155C30.7804 39.6969 30.7361 39.6485 30.7228 39.5883C30.7095 39.5282 30.7293 39.4656 30.7748 39.424C30.8202 39.3824 30.8843 39.3683 30.9431 39.3868C33.338 40.1424 36.0538 40.8879 38.0382 40.6891C40.2525 40.4671 41.8857 40.0605 43.1834 38.721C43.2263 38.6768 43.2895 38.6589 43.3492 38.6739C43.4089 38.689 43.456 38.7347 43.4728 38.7939C43.4897 38.8531 43.4736 38.9168 43.4307 38.961C42.0602 40.3757 40.3643 40.802 38.0727 41.0319C37.8411 41.0552 37.6009 41.0667 37.3521 41.0663Z"
          fill="#627590"/>
    <path d="M41.6457 34.4111C41.6422 34.067 41.5994 33.7244 41.518 33.39C41.4372 33.0499 41.331 32.7164 41.2001 32.3922C40.9384 31.7432 40.5959 31.1298 40.1808 30.5664C40.0858 30.426 40.1184 30.2357 40.2548 30.1349C40.3912 30.0342 40.5827 30.0589 40.689 30.1909L40.6964 30.2011C41.1184 30.8232 41.46 31.4962 41.7129 32.2041C41.8404 32.5579 41.9407 32.921 42.0127 33.2901C42.0887 33.6646 42.1211 34.0466 42.1093 34.4286C42.107 34.5564 42.0014 34.6582 41.8735 34.6559C41.7457 34.6535 41.6439 34.548 41.6462 34.4201L41.6457 34.4111Z"
          fill="#627590"/>
    <path d="M42.4189 54.505L41.0015 55.0968L38.3637 52.8876L38.3388 52.8978C38.5587 53.327 38.7174 53.6583 38.8149 53.8917L39.5677 55.6965L38.6076 56.0958L36.9395 52.0936L38.3513 51.5046L40.9676 53.6771L40.984 53.6703C40.7909 53.278 40.6423 52.9595 40.5384 52.7148L39.7834 50.9077L40.7468 50.5056L42.4189 54.505Z"
          fill="#627590"/>
    <path d="M36.4765 56.6605L33.9477 57.1422L33.1367 52.8831L35.6655 52.4014L35.8417 53.3247L34.4632 53.5867L34.5909 54.257L35.8671 54.0142L36.0428 54.9375L34.7671 55.1804L34.9201 55.9845L36.298 55.7219L36.4765 56.6605Z"
          fill="#627590"/>
    <path d="M31.9202 57.3686L29.3468 57.4251L29.2559 53.0903L31.8293 53.0338L31.8491 53.9741L30.4469 54.0023L30.461 54.6839L31.7598 54.6568L31.779 55.5965L30.4802 55.6236L30.4971 56.4419L31.8982 56.4137L31.9202 57.3686Z"
          fill="#627590"/>
    <path fill-rule="evenodd" clip-rule="evenodd"
          d="M25.0822 56.9706L25.3408 55.4142L25.6333 55.4577L26.2816 57.1649L27.5924 57.3874L26.6555 55.3165C27.1844 55.1256 27.4898 54.7827 27.5715 54.2876C27.7115 53.445 27.2003 52.9272 26.0377 52.7341L24.6366 52.502L23.9268 56.7792L25.0822 56.9706ZM25.7012 54.5812L25.4849 54.5456L25.6492 53.5681L25.8751 53.606C26.2708 53.6718 26.4443 53.852 26.3958 54.1464C26.3367 54.5033 26.1051 54.6482 25.7012 54.5812Z"
          fill="#627590"/>
    <path d="M20.849 53.1249L22.5894 53.8127L21.7333 55.9857C21.1651 55.954 20.6061 55.8278 20.0792 55.6125C19.4573 55.3666 19.0481 54.9967 18.8515 54.5028C18.655 54.0088 18.6876 53.4279 18.9492 52.76C19.2067 52.1095 19.5928 51.6765 20.1075 51.4612C20.6221 51.2458 21.214 51.2703 21.883 51.5346C22.1247 51.6289 22.356 51.7482 22.5731 51.8904C22.7589 52.0107 22.932 52.1496 23.0898 52.3049L22.407 53.0238C22.1665 52.7608 21.868 52.5576 21.5351 52.4303C21.2173 52.3049 20.9307 52.3111 20.675 52.4489C20.4194 52.5867 20.2157 52.848 20.064 53.2327C19.9134 53.6092 19.8784 53.9275 19.959 54.1877C20.0395 54.4478 20.2278 54.6361 20.5237 54.7524C20.6734 54.8129 20.8295 54.8565 20.989 54.8823L21.2386 54.2503L20.5192 53.968L20.849 53.1249Z"
          fill="#627590"/>
    <path d="M11.1554 16.6789L9.80004 18.8666L6.11523 16.5818L7.47056 14.394L8.26965 14.8899L7.53043 16.082L8.10983 16.4412L8.79427 15.3371L9.59222 15.833L8.90891 16.9364L9.60465 17.3679L10.3439 16.1757L11.1554 16.6789Z"
          fill="#627590"/>
    <path d="M10.5999 11.9872C10.4177 12.1764 10.3484 12.4475 10.4175 12.701C10.4826 12.9698 10.6641 13.2386 10.9619 13.5074C11.582 14.0657 12.1043 14.1094 12.529 13.6384C12.6555 13.4984 12.7613 13.3409 12.843 13.1708C12.9255 12.9972 12.999 12.8195 13.0632 12.6383L13.7974 13.3018C13.6607 13.7008 13.4413 14.0664 13.1536 14.3748C12.7153 14.8608 12.2385 15.1055 11.7231 15.1089C11.2077 15.1123 10.6835 14.8746 10.1504 14.3957C9.84082 14.1286 9.59793 13.7929 9.4411 13.4153C9.30306 13.0771 9.27038 12.7051 9.34735 12.348C9.42265 11.99 9.60449 11.6512 9.89287 11.3315C10.2045 10.985 10.5907 10.7138 11.0223 10.5381L11.4668 11.4224C11.3079 11.4891 11.1534 11.5656 11.0042 11.6517C10.8528 11.7417 10.7164 11.8549 10.5999 11.9872Z"
          fill="#627590"/>
    <path fill-rule="evenodd" clip-rule="evenodd"
          d="M17.3831 10.0812C17.4497 9.56356 17.2687 9.00976 16.8398 8.41982C16.4099 7.82799 15.9399 7.48388 15.4297 7.38751C14.9196 7.29113 14.3856 7.44567 13.8276 7.85114C13.2716 8.25548 12.9593 8.71761 12.8908 9.23753C12.8222 9.75745 13.0001 10.3094 13.4244 10.8933C13.8529 11.4832 14.3261 11.826 14.8441 11.9216C15.3622 12.0173 15.8962 11.8652 16.4462 11.4654C17.0042 11.0603 17.3165 10.5989 17.3831 10.0812ZM15.8722 10.6742C15.4001 11.016 14.9178 10.8481 14.4254 10.1704V10.1727C13.9277 9.48825 13.9164 8.97341 14.3915 8.62818C14.6253 8.45726 14.8617 8.41265 15.1008 8.49434C15.3399 8.57604 15.5867 8.79214 15.8412 9.14264C16.0938 9.49126 16.2222 9.79 16.2263 10.0389C16.2304 10.2877 16.1124 10.4995 15.8722 10.6742Z"
          fill="#627590"/>
    <path d="M18.4064 8.76824L17.9941 7.9398L19.4946 7.19324L19.9063 8.02168L18.4064 8.76824Z" fill="#627590"/>
    <path d="M22.493 8.26569L21.4003 8.63614L20.0088 4.53288L22.4371 3.71008L22.7387 4.60065L21.4048 5.05242L21.6702 5.83569L22.9002 5.41893L23.2017 6.30667L21.9712 6.724L22.493 8.26569Z"
          fill="#627590"/>
    <path fill-rule="evenodd" clip-rule="evenodd"
          d="M26.0895 7.36048L25.8608 5.79959L26.1545 5.75893L27.2924 7.18711L28.6082 6.99002L27.0834 5.30376C27.5292 4.96079 27.7155 4.54101 27.6425 4.04443C27.5201 3.19924 26.8754 2.86191 25.7083 3.03245L24.3027 3.23801L24.9301 7.52989L26.0895 7.36048ZM25.9507 4.89591L25.7339 4.9281L25.5933 3.94774L25.8192 3.91442C26.216 3.85645 26.4362 3.97504 26.4799 4.2702C26.5318 4.62861 26.3554 4.83718 25.9507 4.89591Z"
          fill="#627590"/>
    <path d="M29.4561 7.05717L29.5074 2.7218L30.6843 2.73592L30.6329 7.07072L29.4561 7.05717Z" fill="#627590"/>
    <path d="M34.5826 7.52031L32.0352 7.15211L32.6563 2.86023L35.2038 3.22843L35.0694 4.15852L33.6813 3.95805L33.5836 4.63571L34.8695 4.82151L34.7345 5.75217L33.4492 5.56637L33.3323 6.37618L34.7221 6.57553L34.5826 7.52031Z"
          fill="#627590"/>
    <path d="M39.6033 9.17032L38.161 8.6423L37.7245 5.22913L37.6996 5.22009C37.569 5.68429 37.4604 6.03517 37.3738 6.27273L36.7018 8.10751L35.7271 7.75174L37.2185 3.68066L38.6551 4.20698L39.1001 7.57893L39.1171 7.58515C39.2413 7.16499 39.349 6.83068 39.4401 6.5822L40.1144 4.74121L41.0947 5.09755L39.6033 9.17032Z"
          fill="#627590"/>
    <path fill-rule="evenodd" clip-rule="evenodd"
          d="M43.6746 10.9837C44.2205 10.8748 44.6911 10.5172 45.0864 9.91068C45.4528 9.34784 45.5745 8.81399 45.4518 8.30913C45.3291 7.80427 44.9763 7.36172 44.3935 6.98147L43.1365 6.1615L40.772 9.79153L41.9466 10.5579C42.5527 10.9505 43.1287 11.0925 43.6746 10.9837ZM44.3271 8.41247C44.3561 8.65869 44.262 8.94839 44.0447 9.28158C43.8124 9.63773 43.5704 9.85665 43.3185 9.93835C43.0666 10.02 42.7916 9.96357 42.4934 9.76893L42.2749 9.62662L43.602 7.59363L43.8844 7.77999C44.1505 7.95543 44.2981 8.16625 44.3271 8.41247Z"
          fill="#627590"/>
    <path d="M44.7451 12.5955L47.7675 9.4895L48.6072 10.3067L46.2445 12.735L47.4411 13.8988L46.7815 14.5765L44.7451 12.5955Z"
          fill="#627590"/>
    <path d="M50.6298 15.1134L52.3731 14.7949L53.1072 15.8306L50.1261 16.1926L48.7442 17.1707L48.062 16.2073L49.4173 15.2473L50.7794 12.5366L51.5136 13.5774L50.6298 15.1134Z"
          fill="#627590"/>
    <path d="M53.3482 21.1C53.1631 21.0999 52.9968 20.9869 52.9286 20.8148L52.919 20.7917C52.8303 20.5616 52.9425 20.3029 53.1711 20.2105C53.3997 20.118 53.6602 20.2259 53.7565 20.4529L53.7678 20.4822C53.8596 20.7138 53.7467 20.976 53.5153 21.0684C53.4622 21.0896 53.4054 21.1003 53.3482 21.1Z"
          fill="#627590"/>
    <path fill-rule="evenodd" clip-rule="evenodd"
          d="M53.68 22.975C53.737 23.1666 53.9132 23.298 54.1131 23.298V23.2969C54.1568 23.2964 54.2001 23.2897 54.2419 23.2771C54.3568 23.243 54.4534 23.1646 54.5105 23.0592C54.5676 22.9538 54.5804 22.8301 54.5463 22.7152L54.5293 22.6587C54.4829 22.5041 54.3575 22.3859 54.2004 22.3488C54.0433 22.3117 53.8783 22.3612 53.7676 22.4787C53.6568 22.5962 53.6172 22.7638 53.6636 22.9185L53.68 22.975ZM54.6687 25.5569C54.453 25.5566 54.2675 25.4038 54.226 25.1921L54.2152 25.1356C54.1782 24.9753 54.2312 24.8075 54.3536 24.6976C54.4761 24.5877 54.6486 24.5531 54.8039 24.6072C54.9593 24.6612 55.073 24.7955 55.1007 24.9577L55.1126 25.0142C55.1606 25.2588 55.0014 25.4961 54.7568 25.5445C54.7279 25.5511 54.6984 25.5547 54.6687 25.5552V25.5569ZM54.5626 27.451C54.5867 27.682 54.782 27.8571 55.0143 27.8559C55.0291 27.8555 55.0438 27.8544 55.0584 27.8525C55.1776 27.8401 55.2871 27.7808 55.3626 27.6877C55.4381 27.5946 55.4735 27.4753 55.461 27.3561L55.4554 27.2996C55.4405 27.1374 55.3395 26.9957 55.191 26.9289C55.0424 26.862 54.8694 26.8803 54.7381 26.9767C54.6068 27.0731 54.5376 27.2328 54.5569 27.3945L54.5626 27.451ZM55.1506 30.1745C54.903 30.1745 54.7016 29.9754 54.6988 29.7278V29.6714C54.6971 29.5515 54.7431 29.436 54.8267 29.3501C54.9103 29.2642 55.0245 29.215 55.1443 29.2134H55.1511C55.3982 29.2134 55.5995 29.4119 55.6029 29.6589V29.7154C55.6042 29.8352 55.5579 29.9507 55.4742 30.0364C55.3904 30.122 55.276 30.1709 55.1562 30.1723L55.1506 30.1745ZM55.0356 32.499H55.0717L55.0678 32.5012C55.3061 32.503 55.5048 32.3194 55.5218 32.0817L55.5263 32.0252C55.5421 31.8623 55.4687 31.7036 55.3343 31.6103C55.1999 31.517 55.0255 31.5037 54.8785 31.5755C54.7314 31.6472 54.6347 31.7929 54.6256 31.9563L54.6211 32.0128C54.6115 32.1322 54.6499 32.2505 54.7276 32.3417C54.8053 32.4329 54.9161 32.4895 55.0356 32.499ZM54.7788 34.8075C54.6455 34.8076 54.5189 34.7489 54.433 34.6469C54.3471 34.545 54.3106 34.4103 54.3332 34.2789L54.3428 34.2225C54.3703 34.0634 54.4805 33.931 54.632 33.8752C54.7835 33.8195 54.9532 33.8487 55.0773 33.9521C55.2013 34.0554 55.2608 34.217 55.2334 34.3761L55.2232 34.4325C55.1866 34.6513 54.9967 34.8112 54.7749 34.8098L54.7788 34.8075ZM53.911 36.9018C53.9966 37.0136 54.1294 37.079 54.2701 37.0789L54.269 37.0811C54.474 37.081 54.6532 36.9428 54.7055 36.7446L54.7207 36.6881C54.7683 36.5305 54.7264 36.3596 54.6114 36.2419C54.4964 36.1242 54.3265 36.0783 54.1679 36.1222C54.0093 36.166 53.8871 36.2926 53.8488 36.4526L53.8336 36.5091C53.7968 36.6449 53.8254 36.7901 53.911 36.9018ZM53.5559 39.2931C53.5017 39.2933 53.4479 39.2835 53.3972 39.2643C53.1636 39.1767 53.0453 38.9163 53.1329 38.6827L53.1527 38.6262C53.2398 38.3923 53.5001 38.2733 53.7341 38.3605C53.968 38.4477 54.0869 38.708 53.9998 38.9419L53.9789 38.9983C53.9139 39.1766 53.7445 39.2952 53.5548 39.2954L53.5559 39.2931ZM52.2552 41.2189C52.3378 41.3509 52.4824 41.4311 52.6381 41.4312L52.637 41.4335C52.8104 41.434 52.9688 41.3353 53.0447 41.1793L53.0707 41.1257C53.1798 40.901 53.0862 40.6303 52.8614 40.5212C52.6367 40.412 52.3661 40.5057 52.2569 40.7304L52.2321 40.7818C52.164 40.9218 52.1727 41.0869 52.2552 41.2189ZM51.5267 43.4744C51.3637 43.4743 51.2134 43.3864 51.1334 43.2444C51.0534 43.1024 51.056 42.9283 51.1404 42.7888L51.1703 42.7397C51.2538 42.6015 51.4046 42.5183 51.566 42.5214C51.7274 42.5246 51.8748 42.6136 51.9528 42.755C52.0308 42.8963 52.0274 43.0685 51.944 43.2067L51.9135 43.2564C51.832 43.393 51.6846 43.4767 51.5255 43.4767L51.5267 43.4744ZM49.8287 45.1579C49.9054 45.3101 50.0612 45.4061 50.2316 45.4063L50.2305 45.4085C50.3747 45.4085 50.5103 45.3397 50.5953 45.2233L50.6303 45.1759C50.7785 44.975 50.7358 44.6921 50.5349 44.5439C50.334 44.3958 50.0511 44.4385 49.903 44.6394L49.8685 44.6863C49.7673 44.8234 49.7519 45.0058 49.8287 45.1579ZM48.7633 47.2133C48.5848 47.2141 48.4226 47.1097 48.3494 46.9469C48.2761 46.7842 48.3056 46.5936 48.4245 46.4605L48.4629 46.4176C48.6288 46.2312 48.9144 46.2147 49.1007 46.3806C49.2871 46.5465 49.3036 46.8321 49.1377 47.0185L49.0987 47.0619C49.0135 47.1577 48.8915 47.2127 48.7633 47.2133ZM47.136 48.8747C46.9505 48.8746 46.7839 48.761 46.716 48.5884C46.648 48.4157 46.6925 48.2191 46.8282 48.0926L46.87 48.0536C46.9863 47.9348 47.1586 47.8894 47.3184 47.9356C47.4782 47.9819 47.5996 48.1121 47.6346 48.2747C47.6695 48.4374 47.6122 48.606 47.4855 48.7138L47.4421 48.7539C47.3588 48.8312 47.2496 48.8744 47.136 48.8747Z"
          fill="#627590"/>
    <path d="M45.3883 50.361C45.1956 50.3602 45.0246 50.2372 44.9626 50.0547C44.9005 49.8722 44.961 49.6705 45.1133 49.5523L45.1336 49.5359C45.2608 49.4366 45.4314 49.4126 45.581 49.4731C45.7307 49.5336 45.8367 49.6693 45.8592 49.8292C45.8816 49.989 45.8171 50.1487 45.6899 50.2481L45.6662 50.2667C45.5866 50.3282 45.4888 50.3614 45.3883 50.361Z"
          fill="#627590"/>
    <path d="M15.0636 50.7207C14.9671 50.7206 14.873 50.6896 14.7954 50.6321L14.7722 50.6151C14.5717 50.4665 14.5296 50.1835 14.6782 49.9829C14.8268 49.7824 15.1099 49.7403 15.3104 49.8889L15.3325 49.9053C15.4897 50.0212 15.5546 50.2249 15.4935 50.4104C15.4323 50.5959 15.2589 50.7211 15.0636 50.7207Z"
          fill="#627590"/>
    <path fill-rule="evenodd" clip-rule="evenodd"
          d="M5.51386 24.1422C5.55075 24.1516 5.58867 24.1563 5.62673 24.1563H5.62624C5.8317 24.1557 6.01084 24.0164 6.0622 23.8175L6.07688 23.761C6.13493 23.5211 5.98971 23.279 5.75074 23.2173C5.51176 23.1556 5.26749 23.2971 5.20213 23.5351L5.18745 23.5916C5.15749 23.7079 5.17507 23.8314 5.23632 23.9347C5.29757 24.038 5.39744 24.1127 5.51386 24.1422ZM5.15467 26.4113C5.02209 26.4115 4.89611 26.3535 4.8101 26.2526C4.7241 26.1517 4.68676 26.0181 4.70797 25.8872L4.71757 25.8307C4.7411 25.6692 4.8499 25.533 5.00218 25.4743C5.15447 25.4156 5.32656 25.4436 5.45237 25.5476C5.57819 25.6515 5.63816 25.8152 5.60927 25.9759L5.60023 26.0323C5.56454 26.2508 5.3759 26.4111 5.15464 26.4113H5.15467ZM4.85915 28.7001H4.89077L4.89021 28.7029C5.12831 28.7041 5.32645 28.5203 5.34311 28.2828L5.34707 28.2263C5.35857 28.0649 5.28308 27.9096 5.14905 27.819C5.01502 27.7283 4.84281 27.716 4.69728 27.7868C4.55175 27.8575 4.45501 28.0005 4.44351 28.1619L4.43956 28.2184C4.42244 28.4673 4.61028 28.6829 4.85915 28.7001ZM4.8342 31.003C4.58818 31.0031 4.38734 30.8062 4.38242 30.5603V30.5038C4.37728 30.2543 4.57537 30.0478 4.82488 30.0427C5.07439 30.0376 5.28083 30.2357 5.28598 30.4852V30.5416C5.29102 30.7909 5.09311 30.9972 4.8438 31.0024L4.8342 31.003ZM4.53797 32.9005C4.56381 33.1287 4.75672 33.3012 4.98636 33.3015C5.00335 33.3017 5.02033 33.3007 5.03719 33.2986C5.28513 33.2709 5.46363 33.0474 5.43588 32.7994L5.4291 32.743C5.40119 32.495 5.17756 32.3166 4.92961 32.3446C4.68166 32.3725 4.50328 32.5961 4.5312 32.844L4.53797 32.9005ZM5.34816 35.575C5.1334 35.5753 4.94807 35.4245 4.90485 35.2141L4.89299 35.1576C4.84616 34.9143 5.00401 34.6787 5.24683 34.6295C5.48965 34.5802 5.72682 34.7357 5.77847 34.978L5.78977 35.0345C5.84013 35.2789 5.68287 35.5178 5.43851 35.5682C5.40868 35.5734 5.37842 35.5756 5.34816 35.575ZM5.48466 37.4855C5.54255 37.6756 5.71791 37.8056 5.91668 37.8057C5.96108 37.8071 6.00544 37.8017 6.04826 37.7899C6.16317 37.7551 6.2595 37.676 6.31598 37.57C6.37245 37.4641 6.38442 37.34 6.34925 37.2252L6.33288 37.1687C6.28804 37.0122 6.16242 36.8919 6.00409 36.8538C5.84575 36.8158 5.6792 36.8659 5.56814 36.985C5.45709 37.1041 5.41873 37.2737 5.46772 37.429L5.48466 37.4855ZM6.68865 39.9747C6.50468 39.9746 6.33918 39.8629 6.27019 39.6924L6.24873 39.6393C6.18086 39.4883 6.20094 39.3124 6.30108 39.1806C6.40121 39.0489 6.56537 38.9824 6.72897 39.0074C6.89256 39.0324 7.0294 39.1448 7.08565 39.3004L7.10711 39.3535C7.16342 39.4927 7.14688 39.6508 7.06299 39.7753C6.9791 39.8999 6.83881 39.9746 6.68865 39.9747ZM7.25589 41.8208C7.33365 41.9704 7.48824 42.0642 7.65684 42.0642C7.8147 42.0642 7.96113 41.9819 8.04308 41.8469C8.12503 41.712 8.13061 41.5441 8.05779 41.404L8.03125 41.3538C7.95963 41.2059 7.81334 41.1085 7.64924 41.0996C7.48514 41.0906 7.32912 41.1715 7.24184 41.3107C7.15455 41.45 7.14977 41.6256 7.22935 41.7694L7.25589 41.8208ZM8.81281 44.0548C8.65912 44.0549 8.51594 43.9768 8.43275 43.8476L8.40056 43.7979C8.31371 43.6618 8.30605 43.4897 8.38047 43.3465C8.4549 43.2032 8.6001 43.1105 8.76138 43.1034C8.92266 43.0962 9.07551 43.1756 9.16237 43.3117L9.19287 43.3591C9.28205 43.4981 9.28827 43.6747 9.2091 43.8196C9.12992 43.9646 8.97796 44.0548 8.81281 44.0548ZM9.78999 45.7592C9.87562 45.869 10.0071 45.9332 10.1463 45.9332C10.3189 45.933 10.4763 45.8345 10.5519 45.6794C10.6276 45.5243 10.6082 45.3396 10.5021 45.2035L10.4677 45.1595C10.3125 44.9703 10.0349 44.939 9.84149 45.0889C9.6481 45.2388 9.60924 45.5155 9.75385 45.7129L9.78999 45.7592ZM11.6452 47.6838C11.5203 47.6838 11.4009 47.6321 11.3154 47.5409L11.2759 47.4986C11.1053 47.3164 11.1146 47.0305 11.2968 46.8599C11.4789 46.6893 11.7649 46.6986 11.9355 46.8808L11.9744 46.9226C12.0979 47.0538 12.1315 47.2459 12.06 47.4114C11.9884 47.5768 11.8254 47.6838 11.6452 47.6838ZM13.2967 49.2892C13.1865 49.2893 13.0801 49.2491 12.9974 49.1763L12.9534 49.1367C12.8315 49.0296 12.7764 48.8655 12.809 48.7066C12.8416 48.5477 12.9569 48.4185 13.111 48.368C13.2652 48.3175 13.4345 48.3536 13.5548 48.4624L13.5966 48.4997C13.7376 48.6241 13.7869 48.8229 13.7202 48.9988C13.6535 49.1746 13.4848 49.2908 13.2967 49.2903V49.2892Z"
          fill="#627590"/>
    <path d="M6.30713 21.9472C6.15984 21.9473 6.02174 21.8756 5.93707 21.7551C5.85241 21.6346 5.83182 21.4803 5.8819 21.3418L5.8915 21.3153C5.93729 21.1522 6.07049 21.0284 6.23652 20.9947C6.40254 20.9609 6.57348 21.0229 6.67929 21.1552C6.78509 21.2875 6.80799 21.4679 6.73858 21.6225L6.72898 21.649C6.66466 21.8269 6.49631 21.9459 6.30713 21.9472Z"
          fill="#627590"/>
</svg>
