<?xml version="1.0" encoding="UTF-8"?>
<svg width="100px" height="100px" viewBox="0 0 100 100" version="1.1" xmlns="http://www.w3.org/2000/svg" xmlns:xlink="http://www.w3.org/1999/xlink">
    <!-- Generator: sketchtool 50.2 (55047) - http://www.bohemiancoding.com/sketch -->
    <title>9E1730C2-92CC-4EF9-9A16-D0C41466203E</title>
    <desc>Created with sketchtool.</desc>
    <defs></defs>
    <g id="Page-1" stroke="none" stroke-width="1" fill="none" fill-rule="evenodd">
        <g id="Product" transform="translate(-970.000000, -286.000000)">
            <g id="eco" transform="translate(970.000000, 286.000000)">
                <g id="Artboard-18">
                    <circle id="Oval" fill="#FFFFFF" fill-rule="nonzero" cx="49.8751174" cy="49.9690141" r="49.2178404"></circle>
                    <path d="M49.8751174,99.8450704 C26.1527026,99.8299719 5.72172787,83.1119863 1.01178359,59.8618333 C-3.6981607,36.6116803 8.61569522,13.260348 30.4619718,4.01408451 C55.8424379,-6.70775901 85.1091424,5.17540247 95.8309859,30.5558685 C106.552829,55.9363346 94.669668,85.2030391 69.2892019,95.9248826 C63.1474984,98.5244759 56.5443186,99.8578226 49.8751174,99.8450704 Z M49.8751174,1.4084507 C26.7775842,1.4229549 6.88471048,17.7005323 2.29889197,40.3382557 C-2.28692655,62.9759791 9.70277012,85.7121424 30.9737089,94.714554 C55.6779476,105.118327 84.1401659,93.5432093 94.5712343,68.8504835 C105.002303,44.1577577 93.4586475,15.6827644 68.7774648,5.22441315 C62.7976379,2.69348471 56.3684803,1.39558116 49.8751174,1.4084507 Z" id="Shape" fill="#B4ABAB" fill-rule="nonzero"></path>
                    <path d="M49.8751174,85.4187793 C31.7233885,85.395187 16.5400184,71.6267124 14.7465921,53.5637824 C12.9531658,35.5008524 25.1327115,19.0155776 42.9254138,15.4231462 C60.7181161,11.8307149 78.3397133,22.2989971 83.6950663,39.6427571 C89.0504193,56.9865171 80.3985467,75.5674408 63.6779343,82.6319249 C59.3114555,84.4803946 54.6167296,85.4282821 49.8751174,85.4187793 Z M49.8751174,15.4591549 C32.2093839,15.4825302 17.4328634,28.8827457 15.687926,46.4621051 C13.9429886,64.0414645 25.7969021,80.0850323 43.1133277,83.5807569 C60.4297532,87.0764816 77.5792332,76.8879258 82.7906355,60.0083532 C88.0020378,43.1287806 79.5811693,25.0456308 63.3079812,18.170892 C59.0583873,16.3724947 54.489573,15.4501729 49.8751174,15.4591549 Z" id="Shape" fill="#B4ABAB" fill-rule="nonzero"></path>
                    <path d="M37.3859155,74.4497653 C36.8476489,74.4479969 36.3169686,74.3227153 35.8347418,74.0835681 C35.1953308,73.7695032 34.5962935,73.3791831 34.0507042,72.9211268 C29.1079812,68.8929577 24.2253521,59.2084507 23.1830986,56.171831 L22.8488263,55.3370892 C22.8422535,55.3201878 22.8366197,55.3032864 22.8309859,55.285446 C22.4685446,54.1680751 21.8215962,51.2694836 23.6150235,48.4892019 C25.5868545,45.4394366 29.8037559,43.5323944 36.1586854,42.8197183 C36.3694228,42.796 36.5809353,42.8571265 36.7465326,42.9896043 C36.9121298,43.122082 37.0181949,43.3150177 37.0413146,43.5258216 C37.0938967,44.0075117 37.5455399,48.3511737 37.1126761,52.4084507 C36.9389671,54.0469484 36.7633803,55.5070423 36.6093897,56.7915493 C36.5802817,57.028169 36.5530516,57.2610329 36.5258216,57.4892019 C38.2220486,58.709142 39.7522733,60.1446746 41.0779343,61.7596244 C41.5098592,62.2882629 42.9183099,64.0760563 42.9201878,64.9061033 C42.9267606,67.3117371 42.457277,69.4516432 41.5248826,71.2666667 C40.7896714,72.6957746 39.9812207,73.4676056 39.7314554,73.6431925 C38.9746479,74.1784038 38.1746479,74.4497653 37.3859155,74.4497653 Z M36.3117371,59.3239437 C36.0508875,61.5090331 35.9001492,63.7058637 35.8600939,65.9061033 C35.8046948,69.5380282 36.6244131,71.5511737 38.5830986,72.4892019 C38.6619718,72.4431925 38.7361502,72.3953052 38.8065728,72.3446009 C38.8835681,72.2788732 41.3183099,70.1061033 41.3267606,64.9812207 C41.1352113,64.4553991 39.4234742,61.7596244 36.3117371,59.3239437 Z M24.341784,54.7690141 L24.6732394,55.5971831 L24.6873239,55.6366197 C25.5502347,58.171831 30.3098592,67.8159624 35.0610329,71.6929577 L35.0685446,71.6995305 C35.3026848,71.8956297 35.5488618,72.0768913 35.8056338,72.2422535 C34.4122066,70.4046948 34.2338028,67.8826291 34.2638498,65.8873239 C34.314554,62.513615 34.628169,59.9070423 35.0244131,56.6065728 C35.1784038,55.3248826 35.3521127,53.8723005 35.5258216,52.2441315 C35.8488263,49.2093897 35.6553991,45.9962441 35.5258216,44.5089202 C30.1239437,45.2244131 26.5680751,46.856338 24.9521127,49.3596244 C23.5464789,51.5399061 24.0488263,53.8507042 24.341784,54.7690141 Z" id="Shape" fill="#B4ABAB" fill-rule="nonzero"></path>
                    <path d="M42.6,64.1051643 L44.4591549,63.8366197 L45.4159624,63.7042254 C45.5794865,63.6843911 45.7442686,63.6768583 45.9089202,63.6816901 C46.0860654,63.6857639 46.2620359,63.7116234 46.4328638,63.7586854 C46.8096438,63.867777 47.0851167,64.1909717 47.1331411,64.5802758 C47.1811655,64.96958 46.9924941,65.3500314 46.6535211,65.5474178 L46.6253521,65.5633803 C46.3265884,65.7240469 45.9980877,65.8218302 45.6600939,65.8507042 C45.3220657,65.8835681 44.9784038,65.9070423 44.6319249,65.9164319 C44.285446,65.9258216 43.9333333,65.9220657 43.5784038,65.8957746 C43.2171706,65.8749293 42.8582366,65.8246848 42.5051643,65.7455399 C42.1135604,65.6568975 41.8409433,65.3014787 41.8568254,64.9002819 C41.8727076,64.4990851 42.1725674,64.166329 42.5699531,64.1089202 L42.6,64.1051643 Z" id="Shape" fill="#B4ABAB" fill-rule="nonzero"></path>
                    <path d="M27.4760563,62.8422535 C27.3512035,62.8435819 27.2403744,62.762562 27.2037559,62.6431925 C26.1971831,59.5305164 26.8957746,56.7042254 28.3474178,53.1605634 C29.6441315,49.9962441 32.9070423,46.5370892 35.9276995,43.5699531 C36.0008299,43.4981645 36.106704,43.4708437 36.20544,43.4982822 C36.3041759,43.5257207 36.3807734,43.6037499 36.4063789,43.702977 C36.4319845,43.8022041 36.4027079,43.9075541 36.3295775,43.9793427 C33.3502347,46.9051643 30.1323944,50.3098592 28.8779343,53.3784038 C27.4751174,56.8018779 26.7971831,59.5164319 27.7511737,62.4676056 C27.7793869,62.5550076 27.7641168,62.6506304 27.7100865,62.724899 C27.6560562,62.7991675 27.569777,62.8431311 27.4779343,62.8431925 L27.4760563,62.8422535 Z" id="Shape" fill="#B4ABAB" fill-rule="nonzero"></path>
                    <path d="M35.2769953,63.5755869 C35.7841787,63.8385095 36.3197301,64.0426491 36.8732394,64.1840376 C37.4371783,64.3320171 38.0116311,64.4365486 38.5915493,64.4967136 C39.7499979,64.621288 40.9195629,64.5985718 42.0723005,64.429108 C42.2618542,64.3931315 42.4558873,64.4638557 42.5778301,64.6133713 C42.6997728,64.7628868 42.7300382,64.9671777 42.6566827,65.1456263 C42.5833272,65.3240749 42.4181337,65.4480179 42.2262911,65.4685446 L42.2056338,65.4685446 C40.9628404,65.6021649 39.7081424,65.5781878 38.4713615,65.3971831 C37.8526739,65.3070623 37.2415836,65.1708459 36.6431925,64.9896714 C36.0339826,64.8067296 35.447699,64.5547001 34.8957746,64.2384977 C34.710124,64.1347822 34.6437024,63.9002046 34.7474178,63.714554 C34.8511333,63.5289033 35.0857109,63.4624817 35.2713615,63.5661972 L35.2769953,63.5755869 Z" id="Shape" fill="#B4ABAB" fill-rule="nonzero"></path>
                    <path d="M62.2826291,43.5305164 C62.1559087,43.5303998 62.031033,43.5001464 61.9183099,43.4422535 C61.486385,43.2197183 57.6103286,41.200939 54.4666667,38.6075117 C53.1953052,37.5586854 52.0751174,36.6093897 51.086385,35.771831 L50.5502347,35.3173709 C48.5974083,36.0606703 46.5561781,36.5467527 44.4779343,36.7633803 C43.799061,36.8328638 41.5305164,37.0215962 40.8375587,36.5661972 C38.8262911,35.2460094 37.2985915,33.6751174 36.2985915,31.8967136 C35.5107981,30.4957746 35.3126761,29.3962441 35.3032864,29.0910798 C35.2535211,27.543662 35.886385,26.3023474 37.0873239,25.5971831 C37.7018585,25.2354086 38.3579719,24.9494428 39.0413146,24.7455399 C45.1239437,22.8450704 55.8976526,24.1042254 59.0056338,24.9098592 L59.886385,25.0901408 L59.9389671,25.1032864 C61.0704225,25.4169014 63.8469484,26.4741784 65.1784038,29.5032864 C66.6384977,32.8253521 65.9051643,37.3981221 62.9971831,43.0948357 C62.9001635,43.2845358 62.7310025,43.4273077 62.5276995,43.4910798 C62.4486256,43.517171 62.3658964,43.5304837 62.2826291,43.5305164 Z M39.0234742,26.5774648 C41.1830986,26.5774648 43.2356808,27.742723 44.7924883,28.8046948 C47.5793427,30.7061033 49.5812207,32.4046948 52.1164319,34.5539906 C53.1014085,35.3887324 54.2169014,36.3380282 55.4798122,37.3755869 C57.82723,39.315493 60.6215962,40.9258216 61.9323944,41.6422535 C64.3117371,36.7399061 64.9107981,32.8741784 63.7107981,30.1455399 C62.6647887,27.7643192 60.4591549,26.9098592 59.5314554,26.6488263 L58.658216,26.4685446 L58.6169014,26.4591549 C56.02723,25.7830986 45.3558685,24.4403756 39.5070423,26.2713615 L39.4967136,26.2713615 C39.204039,26.3585344 38.9170953,26.4639039 38.6375587,26.5868545 C38.7680751,26.5812207 38.8957746,26.5774648 39.0234742,26.5774648 Z M41.6525822,35.1934272 C42.1962441,35.3258216 45.3887324,35.3812207 49.1361502,34.1276995 C47.4562789,32.70611 45.7060277,31.3698394 43.8920188,30.1239437 C40.8929577,28.0751174 38.7605634,27.6516432 36.9014085,28.7661972 C36.8967136,28.8600939 36.8967136,28.9464789 36.9014085,29.0319249 C36.9098592,29.1333333 37.3821596,32.3624413 41.6535211,35.1934272 L41.6525822,35.1934272 Z" id="Shape" fill="#B4ABAB" fill-rule="nonzero"></path>
                    <path d="M41.6826291,36.7408451 L40.8816901,38.4403756 L40.4694836,39.3117371 C40.3959234,39.4589722 40.3114957,39.600522 40.2169014,39.7352113 C40.115731,39.8808466 39.9971713,40.0135956 39.8638498,40.1305164 C39.5651398,40.3847581 39.1436295,40.4364532 38.7923346,40.2619298 C38.4410398,40.0874063 38.2276051,39.7202702 38.2497653,39.3286385 L38.2497653,39.2957746 C38.2804204,38.9583973 38.379799,38.6308633 38.541784,38.3333333 C38.7014085,38.0328638 38.8704225,37.7333333 39.0544601,37.4384977 C39.2388504,37.1391647 39.4381626,36.8492845 39.6516432,36.5699531 C39.8680311,36.2802355 40.1076322,36.0086039 40.3680751,35.7577465 C40.6585651,35.4844972 41.1019902,35.4555217 41.4255689,35.688645 C41.7491477,35.9217682 41.8620558,36.3515555 41.6948357,36.713615 L41.6826291,36.7408451 Z" id="Shape" fill="#B4ABAB" fill-rule="nonzero"></path>
                    <path d="M62.2131455,42.8300469 C62.075778,42.8303016 61.9575776,42.7329833 61.9314554,42.5981221 C61.1314554,38.4995305 60.0619718,33.9408451 58.1943662,31.200939 C56.1098592,28.143662 54.2178404,26.0816901 51.2309859,25.2507042 C51.0785242,25.2081809 50.9894016,25.0501143 51.0319249,24.8976526 C51.0744482,24.7451909 51.2325148,24.6560682 51.3849765,24.6985915 C54.5399061,25.5765258 56.5107981,27.713615 58.6676056,30.8779343 C60.5934272,33.7032864 61.6826291,38.3323944 62.4938967,42.4882629 C62.5098424,42.5629844 62.4947515,42.640978 62.4520847,42.7043586 C62.4094178,42.7677393 62.3428354,42.8110695 62.2676056,42.8244131 C62.2496783,42.828055 62.2314388,42.8299418 62.2131455,42.8300469 Z" id="Shape" fill="#B4ABAB" fill-rule="nonzero"></path>
                    <path d="M46.1586854,30.9220657 C45.6596612,31.2005866 45.1940512,31.5351454 44.770892,31.9192488 C44.3389339,32.3075256 43.936856,32.7278084 43.5680751,33.1765258 C42.8255755,34.0748217 42.1999321,35.0636095 41.7061033,36.1192488 C41.5781439,36.37076 41.2744683,36.4764233 41.0180224,36.358665 C40.7615766,36.2409067 40.6438063,35.9417181 40.7511737,35.6807512 L40.7596244,35.6629108 C41.3321308,34.5504875 42.0436146,33.5152865 42.8769953,32.5821596 C43.293045,32.1150318 43.7437791,31.6799919 44.2253521,31.2807512 C44.7121507,30.8724473 45.244284,30.5214725 45.8112676,30.2347418 C46.0000297,30.1367307 46.2325053,30.2102989 46.3305164,30.399061 C46.4285275,30.5878231 46.3549593,30.8202988 46.1661972,30.9183099 L46.1586854,30.9220657 Z" id="Shape" fill="#B4ABAB" fill-rule="nonzero"></path>
                    <path d="M62.056338,74.6920188 C61.8469484,74.6920188 61.6338028,74.6835681 61.4150235,74.6647887 C57.799061,74.3596244 54.1333333,71.5295775 50.5230047,66.2525822 C50.4031615,66.0776107 50.3578849,65.8621359 50.3971707,65.6537275 C50.4364565,65.4453192 50.5570738,65.261116 50.7323944,65.141784 C51.1333333,64.8685446 54.7586854,62.4300469 58.5408451,60.9079812 C60.0694836,60.2920188 61.4384977,59.7624413 62.6469484,59.2938967 L63.3042254,59.0403756 C63.5847197,56.9696769 64.1332941,54.9442441 64.9361502,53.0150235 C65.2,52.3859155 66.1183099,50.3032864 66.8497653,49.9117371 C68.970892,48.7755869 71.0807512,48.1859155 73.1201878,48.1568075 C74.7267606,48.1342723 75.7877934,48.486385 76.0610329,48.6262911 C77.4441315,49.3230047 78.2319249,50.4713615 78.2788732,51.8610329 C78.3020177,52.5733712 78.2389625,53.2858954 78.0910798,53.9830986 C76.8535211,60.2356808 70.5971831,69.1004695 68.4046948,71.4413146 L67.8244131,72.1286385 C67.812965,72.1427659 67.8007395,72.1562452 67.7877934,72.1690141 C67.0215962,72.9577465 65.0037559,74.6920188 62.056338,74.6920188 Z M52.3004695,66.0159624 C55.4694836,70.4497653 58.5784038,72.8234742 61.5483568,73.0741784 C64.1399061,73.2929577 65.9446009,71.7596244 66.6187793,71.0741784 L67.1943662,70.3934272 L67.2225352,70.3615023 C69.0544601,68.4103286 75.3342723,59.6779343 76.5183099,53.6657277 C76.518752,53.662299 76.518752,53.6588277 76.5183099,53.6553991 C76.5817528,53.3564669 76.6262856,53.0538322 76.6516432,52.7492958 C75.684507,54.8431925 73.541784,56.1849765 71.7690141,57.0957746 C68.7643192,58.6347418 66.3173709,59.5830986 63.2178404,60.7830986 C62.0140845,61.2525822 60.6497653,61.7765258 59.1305164,62.3887324 C56.3042254,63.5267606 53.5568075,65.2075117 52.3004695,66.0159624 Z M67.6600939,51.285446 C67.284507,51.6995305 65.7079812,54.4779343 65.0187793,58.3671362 C67.0704924,57.5714108 69.0808597,56.6729349 71.0422535,55.6751174 C74.2741784,54.0187793 75.6666667,52.3492958 75.5774648,50.1821596 C75.4985915,50.1342723 75.4206573,50.0882629 75.3446009,50.0525822 C75.2497653,50.0150235 72.1877934,48.886385 67.6600939,51.285446 Z" id="Shape" fill="#B4ABAB" fill-rule="nonzero"></path>
                    <path d="M66.2910798,50.570892 L65.1812207,49.0544601 L64.6178404,48.2732394 C64.5234171,48.1379628 64.4392989,47.995778 64.3661972,47.8478873 C64.2865884,47.6896005 64.2266741,47.5221557 64.1877934,47.3492958 C64.108346,46.9658849 64.2646807,46.5719722 64.5854268,46.3473887 C64.9061728,46.1228052 65.3297996,46.1106341 65.6629108,46.3164319 L65.6910798,46.3333333 C65.9731682,46.521485 66.2135205,46.7656727 66.3971831,47.0507042 C66.5849765,47.3323944 66.7671362,47.6262911 66.9389671,47.9286385 C67.1107981,48.2309859 67.2723005,48.541784 67.4150235,48.8676056 C67.5672845,49.1962761 67.6928844,49.5366519 67.7906103,49.885446 C67.8939422,50.2723534 67.7076145,50.6780772 67.3468019,50.8518272 C66.9859894,51.0255773 66.5526122,50.9182737 66.314554,50.5962441 L66.2910798,50.570892 Z" id="Shape" fill="#B4ABAB" fill-rule="nonzero"></path>
                    <path d="M62.1192488,68.3502347 C58.8835681,68.3502347 54.8713615,67.2338028 51.2901408,66.1042254 C51.1925218,66.073363 51.118783,65.9927658 51.096701,65.892794 C51.0746191,65.7928223 51.1075489,65.688664 51.183086,65.6195546 C51.2586231,65.5504452 51.3652917,65.5268841 51.4629108,65.5577465 C55.4450704,66.8140845 59.9605634,68.0535211 63.2600939,67.7230047 C66.941784,67.3539906 69.657277,66.6779343 71.8150235,64.4507042 C71.8863089,64.3772383 71.9913729,64.3473833 72.0906389,64.3723854 C72.1899049,64.3973874 72.2682921,64.473448 72.2962727,64.5719159 C72.3242533,64.6703838 72.2975765,64.7762994 72.2262911,64.8497653 C69.9474178,67.2018779 67.1276995,67.9107981 63.3173709,68.2929577 C62.9323944,68.3317684 62.5330203,68.3508607 62.1192488,68.3502347 Z" id="Shape" fill="#B4ABAB" fill-rule="nonzero"></path>
                    <path d="M69.258216,57.284507 C69.2524461,56.7123824 69.1812478,56.1427955 69.0460094,55.5868545 C68.9116661,55.0213249 68.7349543,54.4667072 68.5173709,53.9276995 C68.0821552,52.8486445 67.5127262,51.8287198 66.8225352,50.8920188 C66.6646054,50.6585274 66.7188918,50.3420353 66.9456044,50.1745199 C67.1723171,50.0070044 67.4907951,50.048065 67.6676056,50.2676056 L67.6798122,50.284507 C68.3815283,51.3188801 68.9494264,52.4379549 69.3699531,53.6150235 C69.5820738,54.2032676 69.7487599,54.8069163 69.8685446,55.4206573 C69.9948978,56.0433383 70.0487772,56.6785482 70.029108,57.313615 C70.0252187,57.5262317 69.8497059,57.6954386 69.6370892,57.6915493 C69.4244725,57.68766 69.2552656,57.5121472 69.2591549,57.2995305 L69.258216,57.284507 Z" id="Shape" fill="#B4ABAB" fill-rule="nonzero"></path>
                    <path d="M70.5446009,90.6948357 L68.1877934,91.6788732 L63.8018779,88.0056338 L63.7605634,88.0225352 C64.1261346,88.7361502 64.3899844,89.287011 64.5521127,89.6751174 L65.8037559,92.6760563 L64.2075117,93.3399061 L61.4338028,86.685446 L63.7812207,85.7061033 L68.1314554,89.3183099 L68.1586854,89.3070423 C67.8375587,88.6547731 67.5906103,88.1251956 67.4178404,87.7183099 L66.1624413,84.713615 L67.7643192,84.0450704 L70.5446009,90.6948357 Z" id="Shape" fill="#B4ABAB" fill-rule="nonzero"></path>
                    <polygon id="Shape" fill="#B4ABAB" fill-rule="nonzero" points="60.6638498 94.2788732 56.4591549 95.0798122 55.1107981 87.9981221 59.315493 87.1971831 59.6084507 88.7323944 57.3164319 89.1680751 57.5286385 90.2826291 59.6507042 89.8788732 59.942723 91.4140845 57.8215962 91.8178404 58.0760563 93.1549296 60.3671362 92.7183099"></polygon>
                    <polygon id="Shape" fill="#B4ABAB" fill-rule="nonzero" points="53.0882629 95.456338 48.8093897 95.5502347 48.658216 88.342723 52.9370892 88.2488263 52.9699531 89.8122066 50.6384977 89.8591549 50.6619718 90.9924883 52.8215962 90.9474178 52.8535211 92.5098592 50.6938967 92.5549296 50.7220657 93.915493 53.0516432 93.8685446"></polygon>
                    <path d="M42.1483568,92.2065728 L41.7183099,94.7943662 L39.7971831,94.4760563 L40.9774648,87.3643192 L43.3070423,87.7502347 C45.2400626,88.0713615 46.0901408,88.9323944 45.857277,90.3333333 C45.7214397,91.1564945 45.2137715,91.7267606 44.3342723,92.0441315 L45.8920188,95.4873239 L43.7126761,95.1173709 L42.6347418,92.2788732 L42.1483568,92.2065728 Z M42.3877934,90.7624413 L42.7474178,90.8215962 C43.4190923,90.9330203 43.8040689,90.6920188 43.9023474,90.0985915 C43.9830986,89.6090767 43.6945227,89.3095462 43.0366197,89.2 L42.6610329,89.1370892 L42.3877934,90.7624413 Z" id="Shape" fill="#B4ABAB" fill-rule="nonzero"></path>
                    <path d="M34.6798122,88.4 L37.5737089,89.543662 L36.1502347,93.1568075 C35.2054006,93.1039674 34.2759528,92.8942149 33.4,92.5361502 C32.3658842,92.1273865 31.685446,91.5123631 31.3586854,90.6910798 C31.0319249,89.8697966 31.086072,88.9039124 31.5211268,87.7934272 C31.9492958,86.7117371 32.5912363,85.9918623 33.4469484,85.6338028 C34.3026604,85.2757433 35.286698,85.3164319 36.399061,85.7558685 C36.801028,85.9126937 37.1855738,86.1109456 37.5464789,86.3474178 C37.8554189,86.5475271 38.1432757,86.7784417 38.4056338,87.0366197 L37.2704225,88.2319249 C36.870542,87.7946433 36.3741195,87.4567287 35.8206573,87.2450704 C35.2923318,87.0366197 34.8156495,87.0469484 34.3906103,87.2760563 C33.9655712,87.5051643 33.6269171,87.9395931 33.3746479,88.5793427 C33.1242567,89.2053208 33.0660407,89.7345853 33.2,90.1671362 C33.3339593,90.599687 33.6469484,90.9126761 34.1389671,91.1061033 C34.3879881,91.2067813 34.6475122,91.2792212 34.9126761,91.3220657 L35.3276995,90.2713615 L34.1314554,89.8018779 L34.6798122,88.4 Z" id="Shape" fill="#B4ABAB" fill-rule="nonzero"></path>
                    <polygon id="Shape" fill="#B4ABAB" fill-rule="nonzero" points="18.5615023 27.800939 16.3079812 31.4384977 10.1812207 27.6394366 12.4347418 24.0018779 13.7633803 24.8262911 12.5342723 26.8084507 13.4976526 27.4056338 14.6356808 25.5699531 15.9624413 26.3943662 14.8262911 28.229108 15.9830986 28.9464789 17.2122066 26.9643192"></polygon>
                    <path d="M17.6384977,20 C17.3354706,20.314616 17.2202701,20.7654317 17.3352113,21.1868545 C17.4435055,21.6338028 17.7452269,22.0807512 18.2403756,22.5276995 C19.2713615,23.456025 20.1399061,23.5286385 20.8460094,22.7455399 C21.0564165,22.5127634 21.2322396,22.2509262 21.3680751,21.9680751 C21.5052935,21.6794234 21.6275219,21.3838816 21.7342723,21.0826291 L22.9549296,22.1859155 C22.7276752,22.8493107 22.3629125,23.4572485 21.884507,23.9699531 C21.1558685,24.7780908 20.3630673,25.1849765 19.5061033,25.1906103 C18.6491393,25.1962441 17.7774648,24.800939 16.8910798,24.0046948 C16.3763544,23.5606337 15.9725054,23.0024475 15.7117371,22.3746479 C15.4822138,21.8123024 15.4278855,21.1937455 15.5558685,20.6 C15.6810642,20.0046948 15.9834116,19.4413146 16.4629108,18.9098592 C16.9810886,18.3337755 17.6231706,17.8827129 18.3408451,17.5906103 L19.0798122,19.0610329 C18.8157187,19.1718219 18.5588714,19.2991479 18.3107981,19.4422535 C18.0589613,19.5919405 17.8321141,19.780135 17.6384977,20 Z" id="Shape" fill="#B4ABAB" fill-rule="nonzero"></path>
                    <path d="M28.0131455,14.0685446 C28.7261346,15.0494523 29.02723,15.970266 28.9164319,16.8309859 C28.8056338,17.6917058 28.286385,18.4588419 27.3586854,19.1323944 C26.4441315,19.7971831 25.5561815,20.0500782 24.6948357,19.8910798 C23.8334898,19.7320814 23.0466354,19.1621283 22.3342723,18.1812207 C21.628795,17.2103286 21.3330203,16.2926448 21.4469484,15.428169 C21.5608764,14.5636933 22.0801252,13.7953052 23.0046948,13.1230047 C23.9323944,12.4488263 24.8203443,12.1918623 25.6685446,12.3521127 C26.5167449,12.5123631 27.2982786,13.084507 28.0131455,14.0685446 Z M24,16.9793427 C24.8187793,18.1061033 25.6206573,18.3852895 26.4056338,17.8169014 C26.8050078,17.5264476 27.001252,17.1743349 26.9943662,16.7605634 C26.9874804,16.3467919 26.7740219,15.8500782 26.3539906,15.2704225 C25.9308294,14.6876369 25.5205008,14.3283255 25.1230047,14.1924883 C24.7255086,14.056651 24.3323944,14.1308294 23.943662,14.4150235 C23.1536776,14.9890454 23.172457,15.8450704 24,16.9830986 L24,16.9793427 Z" id="Shape" fill="#B4ABAB" fill-rule="nonzero"></path>
                    <polygon id="Shape" fill="#B4ABAB" fill-rule="nonzero" points="30.6178404 14.6478873 29.9323944 13.2704225 32.42723 12.029108 33.1117371 13.4065728"></polygon>
                    <polygon id="Shape" fill="#B4ABAB" fill-rule="nonzero" points="37.4131455 13.8122066 35.5962441 14.428169 33.2826291 7.6056338 37.3201878 6.23755869 37.8215962 7.71830986 35.6037559 8.46948357 36.0450704 9.77183099 38.0901408 9.07887324 38.5915493 10.5549296 36.5455399 11.2488263"></polygon>
                    <path d="M43.0122066,9.71173709 L43.3924883,12.3070423 L41.4647887,12.5887324 L40.4215962,5.45258216 L42.7586854,5.11079812 C44.6992175,4.82723005 45.771205,5.38810642 45.9746479,6.79342723 C46.0960876,7.61909233 45.7862285,8.3170579 45.0450704,8.88732394 L47.5802817,11.6910798 L45.3924883,12.0187793 L43.5004695,9.64413146 L43.0122066,9.71173709 Z M42.800939,8.2629108 L43.1615023,8.20938967 C43.8344288,8.11173709 44.1276995,7.76494523 44.0413146,7.16901408 C43.9687011,6.67824726 43.6025039,6.48106416 42.942723,6.57746479 L42.5671362,6.63286385 L42.800939,8.2629108 Z" id="Shape" fill="#B4ABAB" fill-rule="nonzero"></path>
                    <polygon id="Shape" fill="#B4ABAB" fill-rule="nonzero" points="48.9906103 11.8028169 49.0760563 4.5943662 51.0328638 4.61784038 50.9474178 11.8253521"></polygon>
                    <polygon id="Shape" fill="#B4ABAB" fill-rule="nonzero" points="57.514554 12.57277 53.2788732 11.9605634 54.3117371 4.82441315 58.5474178 5.43661972 58.3239437 6.98309859 56.0159624 6.64976526 55.8535211 7.77652582 57.9915493 8.08544601 57.7671362 9.63286385 55.6300469 9.32394366 55.4356808 10.6704225 57.7464789 11.0018779"></polygon>
                    <path d="M65.8629108,15.3164319 L63.4647887,14.4384977 L62.7389671,8.76338028 L62.6976526,8.74835681 C62.4804382,9.52018779 62.2998435,10.1035994 62.1558685,10.4985915 L61.0384977,13.5492958 L59.4178404,12.9577465 L61.8976526,6.18873239 L64.286385,7.06384977 L65.0262911,12.6704225 L65.0544601,12.6807512 C65.2610329,11.9821596 65.4400626,11.4262911 65.5915493,11.0131455 L66.7126761,7.95211268 L68.342723,8.54460094 L65.8629108,15.3164319 Z" id="Shape" fill="#B4ABAB" fill-rule="nonzero"></path>
                    <path d="M74.9793427,16.5474178 C74.3220657,17.5558685 73.5395931,18.1505477 72.6319249,18.3314554 C71.7242567,18.5123631 70.7665102,18.2763693 69.7586854,17.6234742 L67.8056338,16.3492958 L71.7370892,10.313615 L73.82723,11.6769953 C74.7962441,12.3092332 75.3827856,13.0450704 75.5868545,13.884507 C75.7909233,14.7239437 75.5884194,15.6115806 74.9793427,16.5474178 Z M73.2478873,15.5014085 C73.6090767,14.9474178 73.7655712,14.4657277 73.7173709,14.056338 C73.6691706,13.6469484 73.4237872,13.2964006 72.9812207,13.0046948 L72.5117371,12.6948357 L70.3051643,16.0751174 L70.6685446,16.3117371 C71.1643192,16.6353678 71.6215962,16.7292645 72.0403756,16.5934272 C72.4591549,16.45759 72.8616588,16.0935837 73.2478873,15.5014085 Z" id="Shape" fill="#B4ABAB" fill-rule="nonzero"></path>
                    <polygon id="Shape" fill="#B4ABAB" fill-rule="nonzero" points="74.4112676 21.0112676 79.4366197 15.8469484 80.8328638 17.2056338 76.9042254 21.2431925 78.8938967 23.1784038 77.7971831 24.3051643"></polygon>
                    <polygon id="Shape" fill="#B4ABAB" fill-rule="nonzero" points="84.1962441 25.1981221 87.0948357 24.6685446 88.315493 26.3906103 83.3586854 26.9924883 81.0610329 28.6187793 79.9267606 27.0169014 82.1802817 25.4206573 84.4450704 20.913615 85.6657277 22.6441315"></polygon>
                    <path d="M88.715493,35.1521127 C88.4077691,35.151873 88.1313135,34.9639725 88.0178404,34.6779343 L88.0018779,34.6394366 C87.8544687,34.2568728 88.0410339,33.8267747 88.4210879,33.6730104 C88.801142,33.5192461 89.2342895,33.6986176 89.3943662,34.0760563 L89.4131455,34.1248826 C89.565904,34.5099194 89.3781353,34.9459461 88.9934272,35.0995305 C88.9050129,35.1347233 88.8106529,35.1525752 88.715493,35.1521127 Z" id="Shape" fill="#B4ABAB" fill-rule="nonzero"></path>
                    <path d="M78.3859155,81.3333333 C78.0774541,81.3330683 77.8005083,81.1442567 77.6875583,80.8572187 C77.5746083,80.5701807 77.6486158,80.2432683 77.8741784,80.0328638 L77.943662,79.9680751 C78.1371097,79.7704322 78.423512,79.6950709 78.6891832,79.7719057 C78.9548544,79.8487404 79.1568182,80.065342 79.2149063,80.3357316 C79.2729943,80.6061212 79.1778099,80.8865593 78.9671362,81.0657277 L78.8948357,81.1323944 C78.7564895,81.2609719 78.5747844,81.3327152 78.3859155,81.3333333 Z M81.0910798,78.570892 C80.7943479,78.572162 80.5246771,78.3986317 80.4028824,78.1280444 C80.2810877,77.8574572 80.3299974,77.5405298 80.5276995,77.3192488 L80.5915493,77.2478873 C80.8674324,76.9380374 81.3422628,76.9105019 81.6521127,77.186385 C81.9619626,77.4622681 81.9894981,77.9370985 81.713615,78.2469484 L81.6488263,78.3192488 C81.5070472,78.4784811 81.3042825,78.5699642 81.0910798,78.570892 Z M83.5323944,75.5661972 C83.2490461,75.5659424 82.9899506,75.406268 82.862361,75.1532715 C82.7347714,74.900275 82.7604003,74.5970102 82.9286385,74.3690141 L82.9859155,74.2910798 C83.2322397,73.9571161 83.702656,73.8860702 84.0366197,74.1323944 C84.3705835,74.3787186 84.4416293,74.8491349 84.1953052,75.1830986 L84.1370892,75.2619718 C83.995634,75.4555504 83.7702709,75.5699762 83.5305164,75.5699531 L83.5323944,75.5661972 Z M85.686385,72.3539906 C85.4153787,72.3538055 85.1654828,72.207658 85.0324528,71.971549 C84.8994227,71.7354401 84.9038856,71.44598 85.0441315,71.2140845 L85.0938967,71.1323944 C85.2326097,70.9026038 85.4833776,70.7642711 85.7517385,70.7695048 C86.0200995,70.7747384 86.2652831,70.9227434 86.394931,71.1577677 C86.524579,71.3927919 86.5189947,71.6791296 86.3802817,71.9089202 L86.3295775,71.9915493 C86.1940217,72.2186713 85.9490062,72.3577631 85.684507,72.3577465 L85.686385,72.3539906 Z M87.5342723,68.9568075 C87.275442,68.9566863 87.0349064,68.823321 86.8976923,68.6038547 C86.7604782,68.3843885 86.7459166,68.1097403 86.8591549,67.8769953 L86.9004695,67.7915493 C87.0819715,67.4179144 87.5319989,67.26216 87.9056338,67.443662 C88.2792686,67.6251641 88.4350231,68.0751914 88.2535211,68.4488263 L88.2103286,68.5380282 C88.0841783,68.797316 87.82074,68.9615089 87.5323944,68.9605634 L87.5342723,68.9568075 Z M89.0600939,65.4018779 C88.9699614,65.4021194 88.8805432,65.3858905 88.7962441,65.3539906 C88.4078389,65.2082607 88.2111006,64.7752684 88.3568075,64.3868545 L88.3896714,64.2929577 C88.5346137,63.9040249 88.9674051,63.7062314 89.356338,63.8511738 C89.7452709,63.9961161 89.9430644,64.4289075 89.7981221,64.8178404 L89.7633803,64.9117371 C89.6553421,65.208099 89.3736562,65.4053916 89.058216,65.4056338 L89.0600939,65.4018779 Z M90.2488263,61.7201878 C90.0148326,61.7204169 89.7940966,61.6115906 89.651793,61.4258413 C89.5094895,61.2400919 89.4618737,60.9986374 89.5230047,60.77277 L89.5483568,60.6788732 C89.6119627,60.4127786 89.8152124,60.2023088 90.0789256,60.1294569 C90.3426388,60.056605 90.6251066,60.1328933 90.8162876,60.328602 C91.0074686,60.5243107 91.0771255,60.8084865 90.9981221,61.0704225 L90.97277,61.1643192 C90.8858415,61.4939459 90.5878446,61.7237081 90.2469484,61.7239437 L90.2488263,61.7201878 Z M91.0938967,57.943662 C90.8722357,57.9438406 90.6618123,57.8461103 90.5189488,57.6766297 C90.3760854,57.5071491 90.3153692,57.2832234 90.3530516,57.0647887 L90.3690141,56.970892 C90.4146367,56.7063813 90.5979086,56.4863027 90.8497929,56.3935577 C91.1016772,56.3008127 91.3839068,56.3494915 91.5901685,56.5212572 C91.7964302,56.693023 91.8953879,56.9617804 91.8497653,57.2262911 L91.8328638,57.3201878 C91.7720192,57.6839325 91.4561153,57.9497056 91.0873239,57.9474178 L91.0938967,57.943662 Z M91.5802817,54.1051643 C91.5605634,54.1051643 91.5399061,54.1051643 91.5201878,54.1051643 C91.3215844,54.0893568 91.1373957,53.9952987 91.0081441,53.8436834 C90.8788925,53.6920681 90.8151664,53.4953161 90.8309859,53.2967136 L90.8384977,53.2028169 C90.8536425,52.9311731 91.0144857,52.6889507 91.2589744,52.5695982 C91.503463,52.4502458 91.7933777,52.4724211 92.0168701,52.6275689 C92.2403625,52.7827168 92.3624954,53.0465838 92.3361502,53.3173709 L92.3286385,53.4112676 C92.3004145,53.8065452 91.9699816,54.111908 91.5737089,54.1089202 L91.5802817,54.1051643 Z M91.7117371,50.2403756 C91.3001532,50.2404016 90.9651937,49.9092104 90.9605634,49.4976526 L90.9605634,49.4037559 C90.9578051,49.2045267 91.0343131,49.0123637 91.1732525,48.8695501 C91.312192,48.7267366 91.5021788,48.6449741 91.7014085,48.6422535 L91.7126761,48.6422535 C92.1235375,48.6422147 92.4582004,48.972276 92.4638498,49.3830986 L92.4638498,49.4769953 C92.4661037,49.6762227 92.389116,49.8681843 92.2498257,50.0106442 C92.1105354,50.1531042 91.9203544,50.234391 91.7211268,50.2366197 L91.7117371,50.2403756 Z M91.485446,46.3849765 C91.0992068,46.3870603 90.7743396,46.0958981 90.7342723,45.7117371 L90.7248826,45.6178404 C90.692697,45.3489015 90.8077891,45.0834618 91.0260998,44.9231357 C91.2444106,44.7628096 91.5321282,44.7324283 91.7791098,44.8436223 C92.0260915,44.9548164 92.1940848,45.190364 92.2187793,45.4600939 L92.228169,45.5539906 C92.2489192,45.752234 92.1900263,45.9505963 92.0644586,46.1053986 C91.9388909,46.2602009 91.7569451,46.358749 91.5586854,46.3793427 C91.5343817,46.3824429 91.5099379,46.3843232 91.485446,46.3849765 Z M90.9117371,42.5624413 C90.552992,42.561976 90.244645,42.3079043 90.1755869,41.9558685 L90.1577465,41.8619718 C90.0961146,41.5954428 90.1842504,41.3164809 90.387825,41.1337417 C90.5913996,40.9510025 90.8782228,40.8933818 91.1365769,40.9833228 C91.394931,41.0732638 91.5839638,41.2965445 91.6300469,41.5661972 L91.6497653,41.6600939 C91.7296485,42.0668701 91.4649059,42.4614626 91.058216,42.541784 C91.010148,42.5528372 90.9610529,42.5588167 90.9117371,42.5596244 L90.9117371,42.5624413 Z M89.9868545,38.8065728 C89.6543871,38.8066467 89.3614198,38.5881627 89.2666667,38.2694836 L89.2394366,38.1755869 C89.1622807,37.9184563 89.2281632,37.6396956 89.4122668,37.4443113 C89.5963705,37.248927 89.8707255,37.1666026 90.1319851,37.2283489 C90.3932447,37.2900951 90.6017173,37.4865314 90.6788732,37.743662 L90.7070423,37.8375587 C90.7638654,38.0285647 90.7424621,38.2343224 90.6475431,38.4095439 C90.5526241,38.5847654 90.3919692,38.7150893 90.200939,38.771831 C90.1314769,38.7927937 90.0594059,38.8038572 89.9868545,38.8046948 L89.9868545,38.8065728 Z" id="Shape" fill="#B4ABAB" fill-rule="nonzero"></path>
                    <path d="M75.4807512,83.8046948 C75.1603014,83.8033026 74.8760196,83.5987748 74.7728422,83.2953865 C74.6696647,82.9919983 74.7703134,82.6565618 75.0234742,82.4600939 L75.057277,82.4328638 C75.2687849,82.2676495 75.5523672,82.2278232 75.801201,82.3283873 C76.0500348,82.4289513 76.2263164,82.6546276 76.2636423,82.9204061 C76.3009682,83.1861845 76.1936676,83.451687 75.9821596,83.6169014 L75.942723,83.6478873 C75.8104674,83.750099 75.6478991,83.8052797 75.4807512,83.8046948 Z" id="Shape" fill="#B4ABAB" fill-rule="nonzero"></path>
                    <path d="M25.0610329,84.4028169 C24.9004264,84.4026213 24.7441109,84.3509548 24.6150235,84.2553991 L24.5765258,84.22723 C24.2430807,83.980128 24.1730858,83.5095015 24.4201878,83.1760564 C24.6672899,82.8426112 25.1379163,82.7726163 25.4713615,83.0197183 L25.5079812,83.0469484 C25.7693863,83.2395996 25.8774045,83.5784112 25.7757428,83.8868135 C25.6740811,84.1952159 25.3857586,84.4033778 25.0610329,84.4028169 Z" id="Shape" fill="#B4ABAB" fill-rule="nonzero"></path>
                    <path d="M22.1220657,82.0225352 C21.9388292,82.0227297 21.7618405,81.9559415 21.6244131,81.8347418 L21.5511737,81.7690141 C21.3485968,81.5909865 21.2570016,81.3180257 21.311188,81.0538381 C21.3653744,80.7896505 21.5570256,80.5747852 21.8133273,80.4908763 C22.0696289,80.4069674 22.3512423,80.4668937 22.5511737,80.6478873 L22.6206573,80.7098592 C22.855204,80.9167082 22.9370601,81.2472312 22.8261561,81.5396333 C22.7152522,81.8320354 22.4347927,82.0251372 22.1220657,82.0244131 L22.1220657,82.0225352 Z M19.3765258,79.3530516 C19.1687522,79.3531106 18.9702342,79.2671088 18.828169,79.115493 L18.7624413,79.0450704 C18.4787796,78.7422213 18.494334,78.2667603 18.7971831,77.9830986 C19.1000322,77.6994369 19.5754932,77.7149913 19.8591549,78.0178404 L19.9239437,78.0873239 C20.1292001,78.3056278 20.1850824,78.6250374 20.0661362,78.9000621 C19.9471901,79.1750868 19.6761702,79.3531137 19.3765258,79.3530516 Z M16.884507,76.4422535 C16.6529974,76.4423051 16.4343972,76.3356032 16.2920188,76.1530516 L16.2319249,76.0760563 C15.9914785,75.7478197 16.0560821,75.2878128 16.3776393,75.0385042 C16.6991964,74.7891957 17.1607941,74.8412301 17.4187793,75.1558685 L17.4760563,75.229108 C17.6525255,75.455369 17.6846798,75.7623965 17.5589173,76.0203095 C17.4331547,76.2782226 17.1714483,76.4419589 16.884507,76.4422535 Z M14.6676056,73.3192488 C14.412061,73.319348 14.1739942,73.1895256 14.0356808,72.9746479 L13.9821596,72.8920188 C13.8377438,72.6657506 13.8250107,72.3796252 13.9487568,72.1414233 C14.0725029,71.9032214 14.3139282,71.7491316 14.5820902,71.7371979 C14.8502521,71.7252643 15.1044105,71.8572998 15.2488263,72.0835681 L15.2995305,72.1624413 C15.4478186,72.3935689 15.4581681,72.6871941 15.3265209,72.9281886 C15.1948738,73.1691831 14.9422132,73.3191349 14.6676056,73.3192488 Z M12.7455399,70.0093897 C12.465213,70.0094541 12.208174,69.8534205 12.0788732,69.6046948 L12.0347418,69.5192488 C11.9024285,69.2801648 11.910383,68.9880882 12.0555129,68.7565601 C12.2006428,68.5250321 12.4600534,68.390577 12.7329021,68.4054627 C13.0057507,68.4203484 13.2489943,68.5822265 13.3680751,68.828169 L13.4122066,68.9117371 C13.5332744,69.1446257 13.5240007,69.4238177 13.3877455,69.648159 C13.2514903,69.8725004 13.0080176,70.00945 12.7455399,70.0093897 Z M11.1352113,66.5352113 C10.8293305,66.5349742 10.5541419,66.3492869 10.4394366,66.0657277 L10.4037559,65.9774648 C10.2909055,65.7265094 10.3242981,65.4339366 10.4907948,65.2148644 C10.6572915,64.9957922 10.9302426,64.8852857 11.2022503,64.9268257 C11.4742581,64.9683658 11.7017845,65.1553034 11.7953052,65.4140845 L11.8309859,65.5023474 C11.9246129,65.7337992 11.8971228,65.9966444 11.7576324,66.2037153 C11.6181419,66.4107861 11.3848828,66.5350178 11.1352113,66.5352113 Z M9.85164319,62.9286385 C9.52116123,62.9285073 9.22958619,62.7123987 9.13333333,62.3962441 L9.10516432,62.3023474 C9.02369644,62.0441394 9.08748881,61.7620687 9.27213689,61.5640447 C9.45678497,61.3660208 9.73371317,61.2826893 9.99697928,61.3459296 C10.2602454,61.40917 10.4691072,61.6091953 10.543662,61.8694836 L10.570892,61.9633803 C10.6293739,62.1542619 10.6094654,62.3605718 10.5155632,62.5367487 C10.4216609,62.7129255 10.26149,62.8444756 10.0704225,62.9023474 C9.99922817,62.9220379 9.92547567,62.9309009 9.85164319,62.9286385 Z M8.90610329,59.2197183 C8.54902926,59.2203288 8.24087482,58.9694872 8.16901408,58.6197183 L8.14929577,58.5258216 C8.07142556,58.1212941 8.33388921,57.7295234 8.73762421,57.6476435 C9.1413592,57.5657635 9.53571466,57.8243273 9.62159624,58.22723 L9.64037559,58.3211268 C9.72411013,58.727429 9.46263433,59.1246873 9.05633803,59.2084507 C9.00674409,59.217073 8.95642853,59.2208467 8.90610329,59.2197183 Z M8.30516432,55.4394366 C7.92333193,55.4389968 7.60258033,55.1521786 7.55962441,54.77277 L7.54835681,54.6788732 C7.50194416,54.2666043 7.79852924,53.8947695 8.21079812,53.8483568 C8.62306701,53.8019442 8.99490188,54.0985292 9.04131455,54.5107981 L9.05258216,54.6046948 C9.09871733,55.0169585 8.80193111,55.3885718 8.38967136,55.4347418 C8.36163743,55.4381768 8.33340623,55.4397452 8.30516432,55.4394366 Z M8.05164319,51.6178404 C7.64257832,51.6179222 7.30865077,51.2906732 7.30046948,50.8816901 L7.30046948,50.7877934 C7.29191296,50.3729316 7.62128845,50.0296833 8.03615023,50.0211268 C8.45101202,50.0125702 8.79426038,50.3419457 8.8028169,50.7568075 L8.8028169,50.8507042 C8.81120113,51.2652395 8.48213382,51.6081755 8.06760563,51.6169014 L8.05164319,51.6178404 Z M8.14553991,47.7887324 L8.09295775,47.7887324 C7.67915983,47.7601569 7.36684028,47.401599 7.39530516,46.9877934 L7.40187793,46.8938967 C7.42099919,46.6255282 7.58184086,46.3877465 7.82381544,46.2701218 C8.06579003,46.152497 8.35213583,46.1728991 8.57498915,46.3236429 C8.79784248,46.4743866 8.92334661,46.7325704 8.90422535,47.000939 L8.89765258,47.0948357 C8.86994493,47.4897578 8.54048897,47.7953878 8.14460094,47.7934272 L8.14553991,47.7887324 Z M8.58403756,43.9830986 C8.36359918,43.9834586 8.1541288,43.8869732 8.01113128,43.7192087 C7.86813376,43.5514442 7.80604407,43.3293358 7.84131455,43.1117371 L7.857277,43.0178404 C7.89640238,42.7493255 8.07730162,42.5227844 8.33050392,42.4252157 C8.58370623,42.327647 8.86984676,42.3742196 9.07903888,42.5470482 C9.288231,42.7198767 9.38795204,42.9920919 9.3399061,43.2591549 L9.32488263,43.3530516 C9.26549808,43.7165089 8.95137519,43.9833145 8.58309859,43.9830986 L8.58403756,43.9830986 Z M9.36901408,40.2338028 C9.3056843,40.2338077 9.24260063,40.2259222 9.18122066,40.2103286 C8.98764933,40.1612243 8.82159872,40.0370615 8.71976093,39.8652763 C8.61792314,39.6934911 8.58868155,39.488225 8.63849765,39.2948357 L8.6629108,39.200939 C8.77158419,38.805208 9.17773632,38.5699353 9.57508332,38.6725427 C9.97243032,38.77515 10.2138882,39.1776558 10.1173709,39.5765258 L10.0929577,39.6704225 C10.0075527,40.0012024 9.70970084,40.2326935 9.36807512,40.2338028 L9.36901408,40.2338028 Z" id="Shape" fill="#B4ABAB" fill-rule="nonzero"></path>
                    <path d="M10.5004695,36.5605634 C10.2555638,36.5607654 10.025936,36.4415657 9.88516573,36.2411598 C9.74439549,36.0407538 9.7101592,35.7843061 9.79342723,35.5539906 L9.80938967,35.5098592 C9.88553543,35.2386598 10.1070093,35.0328554 10.3830576,34.9767787 C10.6591059,34.9207021 10.9433262,35.0237793 11.1192532,35.2437724 C11.2951802,35.4637654 11.3332414,35.7636945 11.2178404,36.0206573 L11.2018779,36.0647887 C11.0949377,36.3606029 10.8150133,36.5584611 10.5004695,36.5605634 Z" id="Shape" fill="#B4ABAB" fill-rule="nonzero"></path>
                </g>
            </g>
        </g>
    </g>
</svg>