<?xml version="1.0" encoding="UTF-8"?>
<svg width="32px" height="39px" viewBox="0 0 32 39" version="1.1" xmlns="http://www.w3.org/2000/svg" xmlns:xlink="http://www.w3.org/1999/xlink">
    <!-- Generator: sketchtool 50.2 (55047) - http://www.bohemiancoding.com/sketch -->
    <title>25993FF7-0963-4B9F-95F2-289BC7B67C79</title>
    <desc>Created with sketchtool.</desc>
    <defs></defs>
    <g id="Page-1" stroke="none" stroke-width="1" fill="none" fill-rule="evenodd">
        <g id="Product_requestquote" transform="translate(-741.000000, -348.000000)" fill="#674D4D">
            <g id="Estimate_icon" transform="translate(741.000000, 348.000000)">
                <path d="M22.5417143,33.1732143 C22.5417143,32.7887857 22.2345143,32.4767857 21.856,32.4767857 L21.312,32.4767857 C20.9334857,32.4767857 20.6262857,32.7887857 20.6262857,33.1732143 C20.6262857,33.5576429 20.9334857,33.8696429 21.312,33.8696429 L21.856,33.8696429 C22.2345143,33.8696429 22.5417143,33.5576429 22.5417143,33.1732143 Z M18.3286857,33.1732143 C18.3286857,32.7887857 18.0214857,32.4767857 17.6429714,32.4767857 L17.0989714,32.4767857 C16.7204571,32.4767857 16.4132571,32.7887857 16.4132571,33.1732143 C16.4132571,33.5576429 16.7204571,33.8696429 17.0989714,33.8696429 L17.6429714,33.8696429 C18.0214857,33.8696429 18.3286857,33.5576429 18.3286857,33.1732143 Z M25.9977143,33.8176429 C26.3762286,33.8148571 26.6806857,33.501 26.6779429,33.1156429 L26.656,30.1646429 C26.6541714,29.7802143 26.3762286,29.4403571 25.9648,29.4737857 C25.5862857,29.4765714 25.2818286,29.7904286 25.2845714,30.1748571 L25.3065143,33.1267857 C25.3092571,33.5093571 25.6155429,33.8176429 25.9922286,33.8176429 L25.9977143,33.8176429 Z M22.5417143,30.0866429 C22.5417143,29.7022143 22.2345143,29.3902143 21.856,29.3902143 L21.312,29.3902143 C20.9334857,29.3902143 20.6262857,29.7022143 20.6262857,30.0866429 C20.6262857,30.4710714 20.9334857,30.7830714 21.312,30.7830714 L21.856,30.7830714 C22.2345143,30.7830714 22.5417143,30.4710714 22.5417143,30.0866429 Z M18.3286857,30.0866429 C18.3286857,29.7022143 18.0214857,29.3902143 17.6429714,29.3902143 L17.0989714,29.3902143 C16.7204571,29.3902143 16.4132571,29.7022143 16.4132571,30.0866429 C16.4132571,30.4710714 16.7204571,30.7830714 17.0989714,30.7830714 L17.6429714,30.7830714 C18.0214857,30.7830714 18.3286857,30.4710714 18.3286857,30.0866429 Z M26.7547429,27.2442857 C26.7547429,26.8598571 26.4475429,26.5478571 26.0690286,26.5478571 L25.5259429,26.5478571 C25.1474286,26.5478571 24.8402286,26.8598571 24.8402286,27.2442857 C24.8402286,27.6287143 25.1474286,27.9407143 25.5259429,27.9407143 L26.0690286,27.9407143 C26.4475429,27.9407143 26.7547429,27.6287143 26.7547429,27.2442857 Z M22.5417143,27.2442857 C22.5417143,26.8598571 22.2345143,26.5478571 21.856,26.5478571 L21.312,26.5478571 C20.9334857,26.5478571 20.6262857,26.8598571 20.6262857,27.2442857 C20.6262857,27.6287143 20.9334857,27.9407143 21.312,27.9407143 L21.856,27.9407143 C22.2345143,27.9407143 22.5417143,27.6287143 22.5417143,27.2442857 Z M18.3286857,27.2442857 C18.3286857,26.8598571 18.0214857,26.5478571 17.6429714,26.5478571 L17.0989714,26.5478571 C16.7204571,26.5478571 16.4132571,26.8598571 16.4132571,27.2442857 C16.4132571,27.6287143 16.7204571,27.9407143 17.0989714,27.9407143 L17.6429714,27.9407143 C18.0214857,27.9407143 18.3286857,27.6287143 18.3286857,27.2442857 Z M16.7707429,23.0805714 L26.6916571,23.0805714 L26.6916571,20.3793571 L16.7707429,20.3793571 L16.7707429,23.0805714 Z M27.6050286,23.5448571 L27.6050286,19.9150714 C27.6050286,19.6578571 27.4002286,19.4507857 27.1478857,19.4507857 L16.3136,19.4507857 C16.0603429,19.4507857 15.8564571,19.6578571 15.8564571,19.9150714 L15.8564571,23.5448571 C15.8564571,23.8011429 16.0603429,24.0091429 16.3136,24.0091429 L27.1478857,24.0091429 C27.4002286,24.0091429 27.6050286,23.8011429 27.6050286,23.5448571 Z M13.1446857,36.92 L30.1284571,36.92 L30.1284571,17.147 L13.1446857,17.147 L13.1446857,36.92 Z M31.7750857,37.7566429 L31.7750857,16.3112857 C31.7750857,15.8497857 31.4057143,15.4746429 30.9513143,15.4746429 L12.3209143,15.4746429 C11.8665143,15.4746429 11.4980571,15.8497857 11.4980571,16.3112857 L11.4980571,37.7566429 C11.4980571,38.2181429 11.8665143,38.5923571 12.3209143,38.5923571 L30.9513143,38.5923571 C31.4057143,38.5923571 31.7750857,38.2181429 31.7750857,37.7566429 Z M6.92662857,21.7824286 L9.57805714,21.7824286 L9.57805714,20.8538571 L6.92662857,20.8538571 C6.67428571,20.8538571 6.46948571,21.0618571 6.46948571,21.3181429 C6.46948571,21.5753571 6.67428571,21.7824286 6.92662857,21.7824286 Z M6.92662857,25.9591429 L9.57805714,25.9591429 L9.57805714,25.0305714 L6.92662857,25.0305714 C6.67428571,25.0305714 6.46948571,25.2385714 6.46948571,25.4948571 C6.46948571,25.7520714 6.67428571,25.9591429 6.92662857,25.9591429 Z M6.92662857,17.6057143 L9.57805714,17.6057143 L9.57805714,16.6771429 L6.92662857,16.6771429 C6.67428571,16.6771429 6.46948571,16.8851429 6.46948571,17.1414286 C6.46948571,17.3986429 6.67428571,17.6057143 6.92662857,17.6057143 Z M17.5049143,3.31128571 C17.1264,3.31128571 16.8192,3.62328571 16.8192,4.00771429 L16.8192,8.59207143 C16.8192,9.36928571 17.4427429,10.0025714 18.208,10.0025714 L23.0966857,10.0025714 C23.4752,10.0025714 23.7824,9.69057143 23.7824,9.30614286 C23.7824,8.92171429 23.4752,8.60971429 23.0966857,8.60971429 L18.1906286,8.59207143 L18.1906286,4.00771429 C18.1906286,3.62328571 17.8834286,3.31128571 17.5049143,3.31128571 Z M9.57805714,33.449 L1.64662857,33.449 L1.64662857,1.67235714 L18.2884571,1.67235714 L24.6857143,8.78985714 L24.6857143,13.5246429 L26.3323429,13.5246429 L26.3323429,8.46671429 C26.3323429,8.25778571 26.2555429,8.05721429 26.1165714,7.90307143 L19.2594286,0.273 C19.1030857,0.0993571429 18.8827429,0 18.6514286,0 L0.822857143,0 C0.368457143,0 0,0.375142857 0,0.836642857 L0,34.2847143 C0,34.7462143 0.368457143,35.1213571 0.822857143,35.1213571 L9.57805714,35.1213571 L9.57805714,33.449 Z M6.92662857,9.25321429 L13.1629714,9.25321429 C13.4162286,9.25321429 13.6201143,9.04614286 13.6201143,8.78892857 C13.6201143,8.53264286 13.4162286,8.32464286 13.1629714,8.32464286 L6.92662857,8.32464286 C6.67428571,8.32464286 6.46948571,8.53264286 6.46948571,8.78892857 C6.46948571,9.04614286 6.67428571,9.25321429 6.92662857,9.25321429 Z M6.46948571,12.9647143 C6.46948571,12.7084286 6.67428571,12.5004286 6.92662857,12.5004286 L18.3250286,12.5004286 C18.5773714,12.5004286 18.7821714,12.7084286 18.7821714,12.9647143 C18.7821714,13.2219286 18.5773714,13.429 18.3250286,13.429 L6.92662857,13.429 C6.67428571,13.429 6.46948571,13.2219286 6.46948571,12.9647143 Z" id="Fill-1"></path>
            </g>
        </g>
    </g>
</svg>