<?xml version="1.0" encoding="UTF-8"?>
<svg xmlns:xlink="http://www.w3.org/1999/xlink" width="100px" height="100px" viewBox="0 0 100 100" version="1.1"
     xmlns="http://www.w3.org/2000/svg">
    <!-- Generator: sketchtool 50.2 (55047) - http://www.bohemiancoding.com/sketch -->
    <title>DCE61663-B20F-41C4-B8C9-42C8CA46BCAC</title>
    <desc>Created with sketchtool.</desc>
    <defs></defs>
    <g id="Page-1" stroke="none" stroke-width="1" fill="none" fill-rule="evenodd">
        <g id="Product" transform="translate(-1064.000000, -286.000000)">
            <g id="free" transform="translate(1064.000000, 286.000000)">
                <g id="Artboard-14">
                    <circle id="Oval" fill="#FFFFFF" fill-rule="nonzero" cx="49.8751174" cy="49.9690141"
                            r="49.2178404"></circle>
                    <path d="M49.8751174,99.8450704 C26.1527026,99.8299719 5.72172787,83.1119863 1.01178359,59.8618333 C-3.6981607,36.6116803 8.61569522,13.260348 30.4619718,4.01408451 C55.8424379,-6.70775901 85.1091424,5.17540247 95.8309859,30.5558685 C106.552829,55.9363346 94.669668,85.2030391 69.2892019,95.9248826 C63.1474984,98.5244759 56.5443186,99.8578226 49.8751174,99.8450704 Z M49.8751174,1.4084507 C26.7775842,1.4229549 6.88471048,17.7005323 2.29889197,40.3382557 C-2.28692655,62.9759791 9.70277012,85.7121424 30.9737089,94.714554 C55.6779476,105.118327 84.1401659,93.5432093 94.5712343,68.8504835 C105.002303,44.1577577 93.4586475,15.6827644 68.7774648,5.22441315 C62.7976379,2.69348471 56.3684803,1.39558116 49.8751174,1.4084507 Z"
                          id="Shape" fill="#B4ABAB" fill-rule="nonzero"></path>
                    <path d="M31.9906103,23.0985915 C37.2851627,19.5654066 43.5099327,17.684609 49.8751174,17.6948357 C65.6638498,17.6948357 78.8046948,29.0309859 81.6,44.0084507"
                          id="Shape" fill="#FFFFFF" fill-rule="nonzero"></path>
                    <path d="M81.1849765,44.0873239 C79.2082501,33.5835884 72.0967063,24.770685 62.2476758,20.6194798 C52.3986453,16.4682745 41.1243315,17.5318397 32.2253521,23.4516432 L31.7558685,22.7483568 C40.8911131,16.6706425 52.4652389,15.5784885 62.5761202,19.8401059 C72.6870014,24.1017232 79.9873695,33.1492541 82.0159624,43.9323944 L81.1849765,44.0873239 Z"
                          id="Shape" fill="#B4ABAB" fill-rule="nonzero"></path>
                    <path d="M73.1230047,72.3568075 C67.0451524,78.6832213 58.648012,82.2541851 49.8751174,82.2431925 C32.0507042,82.2431925 17.6018779,67.7934272 17.6018779,49.9690141 C17.5951489,45.1987189 18.6500672,40.4867079 20.6901408,36.1746479"
                          id="Shape" fill="#FFFFFF" fill-rule="nonzero"></path>
                    <path d="M49.8751174,82.6657277 C38.672961,82.660258 28.252632,76.9229254 22.2577348,67.4598633 C16.2628375,57.9968011 15.527175,46.1241839 20.3079812,35.9934272 L21.0723005,36.3549296 C14.3922867,50.4637921 18.9217356,67.3347348 31.7699549,76.2007288 C44.6181741,85.0667228 61.9984847,83.3147467 72.8187793,72.0629108 L73.42723,72.6497653 C67.2697192,79.058814 58.7627902,82.6765396 49.8751174,82.6657277 Z"
                          id="Shape" fill="#B4ABAB" fill-rule="nonzero"></path>
                    <path d="M20.6197183,80.8497653 C20.2595702,81.1916563 19.8059377,81.4187994 19.3164319,81.5023474 C18.8143359,81.5763922 18.3015421,81.5029961 17.8403756,81.2910798 C17.2881247,81.0393059 16.7958277,80.6728039 16.3962441,80.2159624 C16.0690845,79.8700151 15.776899,79.4925957 15.5239437,79.0892019 C15.3112613,78.7231161 15.1432391,78.3328504 15.0234742,77.9267606 L16.5258216,76.5483568 C16.6545691,77.0192993 16.8333657,77.4751048 17.0591549,77.9079812 C17.2575589,78.2999722 17.5056075,78.6647866 17.7971831,78.9934272 C18.02723,79.2441315 18.2384977,79.3887324 18.4328638,79.4253521 C18.6099994,79.4673017 18.7963814,79.4179756 18.9295775,79.2938967 C19.0110373,79.2213969 19.067004,79.1246074 19.0892019,79.0178404 C19.1095335,78.8829553 19.1050787,78.7454922 19.0760563,78.6122066 C19.0460094,78.4488263 18.9261346,78.0491393 18.7164319,77.4131455 C18.5286385,76.8353678 18.428482,76.3658842 18.4159624,76.0046948 C18.3992128,75.6614077 18.4618698,75.3188831 18.599061,75.0037559 C18.7574334,74.6676698 18.983798,74.3680884 19.2638498,74.1239437 C19.8397496,73.5962441 20.4807512,73.3946792 21.1868545,73.5192488 C21.8929577,73.6438185 22.5815336,74.0719875 23.2525822,74.8037559 C23.8705206,75.4960936 24.3354199,76.3110272 24.6169014,77.1953052 L22.8384977,77.8723005 C22.571205,77.0422535 22.2431925,76.4162754 21.8544601,75.9943662 C21.6535211,75.7746479 21.4688576,75.6494523 21.3004695,75.6187793 C21.1493813,75.5849489 20.9912923,75.6270125 20.8769953,75.7314554 C20.7488928,75.8607984 20.6911835,76.0440692 20.7220657,76.2234742 C20.7408451,76.4381847 20.8791862,76.9442879 21.1370892,77.741784 C21.3874804,78.5023474 21.4697966,79.114554 21.3840376,79.5784038 C21.2982786,80.0422535 21.0435055,80.4660407 20.6197183,80.8497653 Z"
                          id="Shape" fill="#B4ABAB" fill-rule="nonzero"></path>
                    <polygon id="Shape" fill="#B4ABAB" fill-rule="nonzero"
                             points="28.2629108 89.6215962 26.3361502 88.3568075 28.2319249 85.4666667 26.0093897 84.0093897 24.113615 86.8985915 22.1859155 85.6338028 26.8356808 78.5446009 28.7605634 79.8122066 27.0366197 82.4413146 29.2619718 83.9004695 30.9859155 81.2713615 32.9107981 82.5352113"></polygon>
                    <polygon id="Shape" fill="#B4ABAB" fill-rule="nonzero"
                             points="32.8018779 91.6431925 35.8159624 83.7192488 37.9671362 84.5380282 34.9530516 92.4610329"></polygon>
                    <path d="M46.6159624,89.2018779 C46.4594679,90.1364632 46.0632238,90.8118936 45.42723,91.228169 C44.7912363,91.6444444 43.9661972,91.7680751 42.9521127,91.599061 L42.3173709,91.4920188 L41.8525822,94.2657277 L39.5934272,93.8901408 L40.9934272,85.5333333 L43.8873239,86.0093897 C44.942723,86.1859155 45.6970266,86.5492958 46.1502347,87.0995305 C46.6034429,87.6497653 46.7586854,88.3505477 46.6159624,89.2018779 Z M42.629108,89.6497653 L43.0403756,89.7192488 C43.3802817,89.7755869 43.6660407,89.7251956 43.8976526,89.5680751 C44.1292645,89.4109546 44.2735524,89.1646322 44.3305164,88.829108 C44.4244131,88.2657277 44.1589984,87.9314554 43.5342723,87.8262911 L42.9502347,87.7323944 L42.629108,89.6497653 Z"
                          id="Shape" fill="#B4ABAB" fill-rule="nonzero"></path>
                    <path d="M55.9765258,88.8638498 C56.0422535,89.8084507 55.8147105,90.5577465 55.2938967,91.1117371 C54.7730829,91.6657277 53.999687,91.9787167 52.9737089,92.0507042 L52.3314554,92.0957746 L52.5286385,94.9014085 L50.2441315,95.0610329 L49.6507042,86.6046948 L52.5821596,86.399061 C53.6463224,86.3270736 54.4632238,86.5042254 55.0328638,86.9305164 C55.6025039,87.3568075 55.9170579,88.001252 55.9765258,88.8638498 Z M52.200939,90.2347418 L52.6178404,90.2056338 C52.9193167,90.2006214 53.2064366,90.0759775 53.4159624,89.8591549 C53.6037559,89.6525822 53.686072,89.3793427 53.6629108,89.0394366 C53.6234742,88.4691706 53.2873239,88.2059468 52.6544601,88.2497653 L52.0647887,88.2920188 L52.200939,90.2347418 Z"
                          id="Shape" fill="#B4ABAB" fill-rule="nonzero"></path>
                    <polygon id="Shape" fill="#B4ABAB" fill-rule="nonzero"
                             points="60.657277 93.6910798 58.4234742 85.5126761 60.6431925 84.9061033 62.8779343 93.0835681"></polygon>
                    <path d="M74.7605634,87.6920188 L72.1126761,89.1173709 L66.5521127,85.3305164 L66.5061033,85.3558685 C67.0169014,86.1477308 67.3896714,86.7615023 67.6244131,87.1971831 L69.4384977,90.5596244 L67.6544601,91.5230047 L63.6300469,84.0619718 L66.2638498,82.6413146 L71.7746479,86.3624413 L71.8056338,86.3464789 C71.3530516,85.6209703 71.0040689,85.029734 70.7586854,84.57277 L68.9399061,81.199061 L70.7361502,80.2309859 L74.7605634,87.6920188 Z"
                          id="Shape" fill="#B4ABAB" fill-rule="nonzero"></path>
                    <path d="M77.9342723,78.5352113 L80.5408451,75.9624413 L83.7492958,79.2159624 C83.2440173,80.2069471 82.5776761,81.1071423 81.7774648,81.8798122 C80.8472613,82.7974961 79.8622848,83.2356808 78.8225352,83.1943662 C77.7827856,83.1530516 76.770266,82.6341158 75.7849765,81.6375587 C74.8241002,80.6629108 74.3546166,79.6300469 74.3765258,78.5389671 C74.3984351,77.4478873 74.9098592,76.4087637 75.9107981,75.4215962 C76.2696324,75.0662757 76.6645733,74.7493789 77.0892019,74.4760563 C77.4510683,74.2385538 77.8361475,74.0384636 78.2384977,73.8788732 L78.9896714,75.6676056 C78.3293996,75.8903477 77.7301341,76.2639241 77.2394366,76.7586854 C76.7636933,77.228169 76.5483568,77.7458529 76.5934272,78.3117371 C76.6384977,78.8776213 76.9446009,79.4485133 77.5117371,80.0244131 C78.0682316,80.5877934 78.6100156,80.9007825 79.1370892,80.9633803 C79.6641628,81.0259781 80.1492958,80.8381847 80.5924883,80.4 C80.8193931,80.1802415 81.0206761,79.9354889 81.1924883,79.6704225 L80.2600939,78.7248826 L79.1821596,79.7877934 L77.9342723,78.5352113 Z"
                          id="Shape" fill="#B4ABAB" fill-rule="nonzero"></path>
                    <polygon id="Shape" fill="#B4ABAB" fill-rule="nonzero"
                             points="36.8760563 16.371831 34.77277 17.1830986 31.7183099 9.27699531 36.3915493 7.47230047 37.0535211 9.18685446 34.484507 10.1793427 35.0676056 11.6882629 37.4366197 10.77277 38.0985915 12.4882629 35.7295775 13.4037559"></polygon>
                    <path d="M44.1474178,11.2788732 L44.5323944,14.3389671 L42.2600939,14.6206573 L41.2028169,6.21408451 L43.9586854,5.86760563 C46.2441315,5.58028169 47.4910798,6.26510172 47.6995305,7.92206573 C47.8247261,8.89546166 47.4438185,9.70923318 46.5568075,10.3633803 L49.4676056,13.7192488 L46.8901408,14.0441315 L44.7230047,11.2065728 L44.1474178,11.2788732 Z M43.9323944,9.56995305 L44.3586854,9.51643192 C45.1524257,9.41690141 45.5051643,9.01596244 45.4169014,8.31361502 C45.3449139,7.73521127 44.9192488,7.49452269 44.1399061,7.5915493 L43.6910798,7.64882629 L43.9323944,9.56995305 Z"
                          id="Shape" fill="#B4ABAB" fill-rule="nonzero"></path>
                    <polygon id="Shape" fill="#B4ABAB" fill-rule="nonzero"
                             points="56.771831 14.5117371 51.77277 13.9286385 52.7558685 5.50798122 57.7549296 6.09201878 57.541784 7.91737089 54.8187793 7.6 54.6629108 8.92018779 57.1830986 9.21877934 56.9699531 11.0441315 54.4469484 10.7502347 54.2591549 12.3399061 56.9821596 12.657277"></polygon>
                    <polygon id="Shape" fill="#B4ABAB" fill-rule="nonzero"
                             points="64.4638498 16.9211268 59.7183099 15.2375587 62.5568075 7.24882629 67.2995305 8.93239437 66.684507 10.6647887 64.1004695 9.74741784 63.6535211 11.0037559 66.0469484 11.8488263 65.4319249 13.5812207 63.0384977 12.7314554 62.5032864 14.2394366 65.0882629 15.1568075"></polygon>
                    <path d="M76.6723005,64.3737089 L82.5877934,64.3737089 C83.6206573,64.3737089 83.4657277,63.2262911 83.4657277,63.2262911 L83.457277,61.8676056 C83.4507042,60.7830986 82.5577465,60.7511737 82.5577465,60.7511737 C82.5577465,60.7511737 82.5474178,60.084507 82.5333333,59.3699531 L82.7023474,59.3699531 C82.8511678,59.3699634 82.9937993,59.3103985 83.098412,59.204551 C83.2030246,59.0987034 83.2609117,58.9553828 83.2591549,58.8065728 L83.2469484,56.5802817 C83.2469484,56.2691354 82.9947144,56.0169014 82.6835681,56.0169014 L82.4807512,56.0169014 C82.4460094,54.0497653 82.4159624,52.7830986 82.4075117,51.4159624 C82.3915493,48.6084507 79.8215962,47.3004695 79.8215962,47.3004695 L76.6892019,45.8657277 L74.6478873,39.570892 C74.9406789,39.5777964 75.2335669,39.5621004 75.5239437,39.5239437 C76.0338028,39.4600939 75.7117371,38.6629108 75.7117371,38.6629108 C75.7117371,38.6629108 75.0929577,36.4619718 74.8338028,35.6957746 C74.5746479,34.9295775 73.9690141,35.058216 73.9690141,35.058216 L72.7361502,35.058216 C71.8967136,33.3671362 70.3286385,33.5962441 70.3286385,33.5962441 L66.7164319,33.5962441 C66.4535211,29.9971831 63.0018779,29.1474178 63.0018779,29.1474178 L57.6647887,29.1474178 L57.6525822,26.6929577 L22.4535211,26.6929577 C22.4535211,26.6929577 22.4657277,46.8807512 22.4835681,49.9079812"
                          id="Shape" fill="#FFFFFF" fill-rule="nonzero"></path>
                    <path d="M82.5896714,65.0779343 L76.6741784,65.0779343 L76.6741784,63.6694836 L82.5896714,63.6694836 C82.631872,63.6726129 82.6742355,63.6661942 82.713615,63.6507042 C82.7568075,63.6103286 82.7812207,63.4084507 82.7690141,63.3192488 C82.7652985,63.289974 82.7634169,63.2604955 82.7633803,63.2309859 L82.7549296,61.8723005 C82.7549296,61.6084507 82.6826291,61.4788732 82.5248826,61.4553991 C82.3466015,61.4592619 82.1746532,61.3892593 82.0497653,61.2619718 C81.9195788,61.1289267 81.8493703,60.9484875 81.8553991,60.7624413 C81.8553991,60.7624413 81.8450704,60.0957746 81.8309859,59.3830986 C81.8274566,59.1940593 81.9000905,59.0115411 82.0325429,58.8766163 C82.1649952,58.7416915 82.346139,58.6656948 82.5352113,58.6657277 L82.5568075,58.6657277 L82.5446009,56.7276995 L82.4826291,56.7276995 C82.0984137,56.7277573 81.7850635,56.4198384 81.7784038,56.0356808 C81.7690141,55.5230047 81.7605634,55.057277 81.7521127,54.62723 C81.7295775,53.4065728 81.7107981,52.4431925 81.7051643,51.428169 C81.6920188,49.1568075 79.6694836,48.0253521 79.513615,47.941784 L76.3971831,46.513615 C76.2181867,46.4317892 76.081872,46.2784352 76.0215962,46.0910798 L73.9755869,39.7896714 C73.9040397,39.5698939 73.9450469,39.3289913 74.0852798,39.1452636 C74.2255128,38.9615359 74.4470681,38.8584395 74.6779343,38.8694836 C74.6779343,38.8694836 74.8159624,38.8741784 75.0319249,38.8629108 L75.0319249,38.8553991 C75.0262911,38.8338028 74.4150235,36.6638498 74.1643192,35.9239437 C74.1267606,35.8131455 74.085446,35.7624413 74.0704225,35.7568075 C74.0368329,35.7616429 74.0029495,35.7641528 73.9690141,35.7643192 L72.7361502,35.7643192 C72.4684421,35.7645339 72.223828,35.6127421 72.1051643,35.37277 C71.5239437,34.2018779 70.5305164,34.2826291 70.4150235,34.2957746 C70.3840556,34.3013648 70.3525714,34.3035686 70.3211268,34.3023474 L66.7164319,34.3023474 C66.3460251,34.3017228 66.0392381,34.0146227 66.0140845,33.6450704 C65.8093897,30.8544601 63.3802817,29.9934272 62.9107981,29.8516432 L57.6647887,29.8516432 C57.2774702,29.8521658 56.9626315,29.539426 56.9605634,29.1521127 L56.9502347,27.3971831 L23.1577465,27.3971831 C23.1577465,30.9962441 23.171831,47.2319249 23.1877934,49.9042254 L21.7793427,49.9126761 C21.7615023,46.915493 21.7492958,26.8957746 21.7492958,26.6938967 C21.7487962,26.5068856 21.8228007,26.3273764 21.9549499,26.195051 C22.0870991,26.0627256 22.2665095,25.988482 22.4535211,25.9887324 L57.6525822,25.9887324 C58.040053,25.9887269 58.354741,26.3017365 58.3568075,26.6892019 L58.3671362,28.4431925 L63.0046948,28.4431925 C63.0613323,28.4435224 63.1177382,28.450455 63.17277,28.4638498 C64.4431925,28.7765258 66.8225352,30.0920188 67.3380282,32.8920188 L70.2929577,32.8920188 C71.4426119,32.806488 72.5436302,33.370769 73.1455399,34.3539906 L73.9107981,34.3539906 C74.3586854,34.3004695 75.1558685,34.4704225 75.4948357,35.4694836 C75.742723,36.2018779 76.2938967,38.1492958 76.3746479,38.4384977 C76.4610329,38.6657277 76.6394366,39.2638498 76.3615023,39.7389671 C76.2019107,40.010107 75.9232124,40.189519 75.6103286,40.2225352 L75.599061,40.2225352 L77.2676056,45.3586854 L80.1173709,46.6666667 L80.142723,46.6788732 C80.2638498,46.7399061 83.0948357,48.2178404 83.113615,51.4169014 C83.1192488,52.4225352 83.1380282,53.3821596 83.1605634,54.5971831 C83.1652582,54.857277 83.170892,55.1295775 83.1755869,55.4178404 C83.6429301,55.6151131 83.9484315,56.0711514 83.9530516,56.5784038 L83.9652582,58.8046948 C83.9686945,59.1406723 83.8367032,59.4638818 83.599061,59.7014085 C83.4978745,59.8032356 83.3800677,59.8870658 83.2507042,59.9492958 C83.2507042,60.0497653 83.2507042,60.1446009 83.2507042,60.2309859 C83.7201878,60.4788732 84.1539906,60.9915493 84.1586854,61.8629108 L84.1661972,63.1849765 C84.1877934,63.4084507 84.2084507,64.0760563 83.7680751,64.5774648 C83.5737089,64.8065728 83.2056338,65.0779343 82.5896714,65.0779343 Z"
                          id="Shape" fill="#B4ABAB" fill-rule="nonzero"></path>
                    <rect id="Rectangle-path" fill="#B4ABAB" fill-rule="nonzero" x="39.1568075" y="63.7633803"
                          width="24.8394366" height="1.22065728"></rect>
                    <path d="M27.1643192,65.1248826 L22.7051643,65.1248826 C22.2950231,65.1249368 21.9606554,64.7960025 21.9539906,64.3859155 L21.9032864,61.0995305 L21.8948357,59.6657277 C21.434758,59.4859874 21.1305379,59.0441616 21.1267606,58.5502347 L21.1107981,55.8685446 C21.108609,55.3762348 21.4059709,54.9320506 21.8619718,54.7464789 L21.8309859,49.456338 L23.3333333,49.4478873 L23.3680751,55.4093897 C23.3680751,55.8242515 23.0317632,56.1605634 22.6169014,56.1605634 L22.6112676,56.1605634 L22.6234742,58.2384977 L22.6375587,58.2384977 C23.0524205,58.2384977 23.3887324,58.5748096 23.3887324,58.9896714 L23.400939,61.0807512 L23.4413146,63.6159624 L27.1643192,63.6159624 L27.1643192,65.1248826 Z"
                          id="Shape" fill="#B4ABAB" fill-rule="nonzero"></path>
                    <path d="M82.400939,59.2976526 L80.2197183,59.2976526 C79.9211268,59.2976526 79.685446,59.0159624 79.6826291,58.6516432 L79.6723005,56.7464789 C79.6657793,56.5607477 79.7333344,56.380038 79.8600939,56.2441315 C79.9499555,56.1510382 80.0734338,56.0979257 80.2028169,56.0967136 L82.3840376,56.0967136 L82.3840376,56.6600939 L80.2507042,56.6600939 C80.2395228,56.6861496 80.2343866,56.714399 80.2356808,56.742723 L80.2460094,58.6478873 C80.2462322,58.6775738 80.2522941,58.7069263 80.2638498,58.7342723 L82.400939,58.7342723 L82.400939,59.2976526 Z"
                          id="Shape" fill="#B4ABAB" fill-rule="nonzero"></path>
                    <path d="M82.2873239,54.8037559 L80.7211268,54.8037559 C80.5166581,54.7936363 80.3560728,54.6249067 80.3560728,54.4201878 C80.3560728,54.2154689 80.5166581,54.0467393 80.7211268,54.0366197 L82.2873239,54.0366197 C82.4917926,54.0467393 82.6523779,54.2154689 82.6523779,54.4201878 C82.6523779,54.6249067 82.4917926,54.7936363 82.2873239,54.8037559 Z"
                          id="Shape" fill="#B4ABAB" fill-rule="nonzero"></path>
                    <path d="M82.2779343,53.2450704 L80.7126761,53.2450704 C80.5010965,53.2450704 80.3295775,53.0735513 80.3295775,52.8619718 C80.3295775,52.6503923 80.5010965,52.4788732 80.7126761,52.4788732 L82.2779343,52.4788732 C82.4895138,52.4788732 82.6610329,52.6503923 82.6610329,52.8619718 C82.6610329,53.0735513 82.4895138,53.2450704 82.2779343,53.2450704 Z"
                          id="Shape" fill="#B4ABAB" fill-rule="nonzero"></path>
                    <path d="M70.2056338,67.5117371 C68.0773332,67.5061814 66.3491946,65.7901805 66.3286385,63.6619718 C66.3216293,62.6402342 66.7228676,61.6579898 67.4432435,60.9333827 C68.1636194,60.2087755 69.1434971,59.8017916 70.1652582,59.8028169 C72.2959449,59.8078971 74.0252717,61.5275909 74.0422535,63.658216 C74.0477555,64.6789803 73.6458512,65.6597715 72.9256394,66.383156 C72.2054276,67.1065406 71.2264125,67.5127522 70.2056338,67.5117371 Z M70.1652582,60.4544601 C69.3184704,60.4534372 68.5063451,60.7906571 67.909341,61.3911875 C67.3123369,61.9917179 66.9799057,62.805815 66.9859155,63.6525822 C67.0003197,65.4218854 68.4362779,66.8498869 70.2056338,66.8544601 C71.0514391,66.8554724 71.8627015,66.5190248 72.4595415,65.9197172 C73.0563814,65.3204095 73.3894788,64.5077657 73.3849765,63.6619718 C73.3721083,61.8915674 71.9357034,60.4618649 70.1652582,60.457277 L70.1652582,60.4544601 Z"
                          id="Shape" fill="#B4ABAB" fill-rule="nonzero"></path>
                    <path d="M24.7971831,59.0957746 L22.6375587,59.0957746 L22.6375587,58.3286385 L24.685446,58.3286385 L24.6723005,56.0422535 L22.6225352,56.0422535 L22.6225352,55.2751174 L24.7821596,55.2751174 C25.1455101,55.2761274 25.4405353,55.5690603 25.4441315,55.9323944 L25.4591549,58.4319249 C25.4606575,58.6072197 25.3920728,58.7758516 25.2686462,58.9003361 C25.1452196,59.0248207 24.9771792,59.0948421 24.8018779,59.0948357 L24.7971831,59.0957746 Z"
                          id="Shape" fill="#B4ABAB" fill-rule="nonzero"></path>
                    <rect id="Rectangle-path" fill="#B4ABAB" fill-rule="nonzero"
                          transform="translate(57.655679, 46.612677) rotate(-0.330000) translate(-57.655679, -46.612677) "
                          x="57.1861956" y="28.9431938" width="1" height="35.3389671"></rect>
                    <rect id="Rectangle-path" fill="#B4ABAB" fill-rule="nonzero" x="51.0732394" y="63.8760563"
                          width="11.3107981" height="1"></rect>
                    <rect id="Rectangle-path" fill="#B4ABAB" fill-rule="nonzero" x="57.7258216" y="33.3558685"
                          width="9.09671362" height="1"></rect>
                    <rect id="Rectangle-path" fill="#B4ABAB" fill-rule="nonzero"
                          transform="translate(60.404561, 49.075678) rotate(-0.330000) translate(-60.404561, -49.075678) "
                          x="60.0209925" y="33.7939876" width="1" height="30.5633803"></rect>
                    <rect id="Rectangle-path" fill="#B4ABAB" fill-rule="nonzero" x="75.8319249" y="60.5286385"
                          width="6.44413146" height="1"></rect>
                    <rect id="Rectangle-path" fill="#B4ABAB" fill-rule="nonzero" x="60.4769953" y="60.5286385"
                          width="4.42723005" height="1"></rect>
                    <rect id="Rectangle-path" fill="#B4ABAB" fill-rule="nonzero" x="22.8403756" y="60.5286385"
                          width="4.64788732" height="1"></rect>
                    <rect id="Rectangle-path" fill="#B4ABAB" fill-rule="nonzero" x="38.8450704" y="60.5286385"
                          width="19.0835681" height="1"></rect>
                    <path d="M65.1558685,46.5652582 C64.9765258,46.5652582 64.5286385,46.5314554 64.200939,46.22723 C63.9711737,46.0094552 63.8448571,45.7042471 63.8535211,45.3877934 L63.8018779,36.4610329 C63.8018779,35.7014085 64.3276995,35.4093897 64.685446,35.3971831 L68.8873239,35.3971831 C68.9624413,35.3971831 70.7333333,35.4178404 71.3680751,37.1812207 L71.3737089,37.1962441 L74.1906103,45.9455399 C74.2368862,46.0884822 74.2119528,46.2449384 74.123538,46.3664159 C74.0351231,46.4878934 73.8939083,46.5597166 73.743662,46.5596244 L65.1558685,46.5596244 L65.1558685,46.5652582 Z M64.7408451,36.4553991 L64.7924883,45.3821596 C64.7924883,45.4948357 64.8262911,45.5267606 64.8394366,45.5380282 C64.9373904,45.602696 65.05375,45.6336813 65.170892,45.6262911 L73.1023474,45.6262911 L70.4826291,37.4976526 C70.0713615,36.370892 68.9323944,36.3380282 68.886385,36.3370892 L64.7549296,36.3370892 C64.7425914,36.3755679 64.7374975,36.4160014 64.7399061,36.456338 L64.7408451,36.4553991 Z"
                          id="Shape" fill="#B4ABAB" fill-rule="nonzero"></path>
                    <rect id="Rectangle-path" fill="#B4ABAB" fill-rule="nonzero" x="60.4723005" y="50.3474178"
                          width="21.542723" height="1"></rect>
                    <rect id="Rectangle-path" fill="#B4ABAB" fill-rule="nonzero" x="25.1868545" y="29.9558685"
                          width="28.4319249" height="1"></rect>
                    <path d="M70.2244131,71.0169014 C66.4236157,71.0119618 63.2429638,68.1318919 62.8619718,64.3502347 L64.3568075,64.2037559 C64.6606432,67.2177278 67.1951693,69.513362 70.2244131,69.5183099 C73.2010352,69.5261833 75.7005588,67.2798171 76.0093897,64.3192488 L77.5032864,64.4779343 C77.1131694,68.201838 73.9686827,71.0266839 70.2244131,71.0169014 Z"
                          id="Shape" fill="#B4ABAB" fill-rule="nonzero"></path>
                    <path d="M77.0553991,64.4065728 L75.9342723,64.2873239 C75.9574646,64.071528 75.9684368,63.8545934 75.9671362,63.6375587 C75.9408833,60.4392615 73.3439391,57.8586529 70.1455399,57.8525822 C68.6156374,57.8510442 67.148448,58.4604318 66.0698212,59.5454056 C64.9911943,60.6303794 64.3904251,62.1011188 64.400939,63.6309859 C64.400939,63.8103286 64.4122066,63.9924883 64.429108,64.170892 L63.3079812,64.2807512 C63.2873239,64.0685446 63.2760563,63.8516432 63.2741784,63.6375587 C63.2619151,61.8077189 63.9806235,60.0486924 65.2707488,58.7509865 C66.560874,57.4532805 68.3156597,56.724279 70.1455399,56.7258216 C73.9630405,56.733415 77.0624993,59.8136069 77.0938967,63.6309859 C77.0951709,63.8900224 77.0823192,64.1489357 77.0553991,64.4065728 Z"
                          id="Shape" fill="#B4ABAB" fill-rule="nonzero"></path>
                    <path d="M33.2187793,67.4807512 C31.1072179,67.4772144 29.3925794,65.7734679 29.3755869,63.6619718 C29.3685774,62.6491993 29.7662541,61.6755527 30.4802908,60.9572847 C31.1943275,60.2390167 32.1656075,59.8355942 33.1784038,59.8366197 C35.2910547,59.8401702 37.0061408,61.5456185 37.0215962,63.658216 C37.0281005,64.6708365 36.6302607,65.6441899 35.9163336,66.3623477 C35.2024064,67.0805055 34.2314206,67.4840893 33.2187793,67.4835681 L33.2187793,67.4807512 Z M33.1784038,60.4910798 C32.3405808,60.4900567 31.5370532,60.8237151 30.9463883,61.4179064 C30.3557234,62.0120976 30.0268537,62.8175971 30.0328638,63.6553991 C30.0462511,65.4064607 31.4676702,66.8199201 33.2187793,66.8234742 C34.0566023,66.8244973 34.8601299,66.4908389 35.4507948,65.8966476 C36.0414597,65.3024564 36.3703294,64.4969569 36.3643192,63.6591549 C36.350932,61.9080933 34.9295129,60.4946339 33.1784038,60.4910798 Z"
                          id="Shape" fill="#B4ABAB" fill-rule="nonzero"></path>
                    <path d="M33.2394366,70.9530516 C29.5217331,70.9534814 26.3919014,68.171857 25.9558685,64.4798122 L27.4478873,64.3042254 C27.7944847,67.2399127 30.2833599,69.4515737 33.2394366,69.4507042 C36.2145503,69.462426 38.7032988,67.1944009 38.9671362,64.2309859 L40.4629108,64.3680751 C40.1194269,68.1029979 36.9835428,70.9590959 33.2328638,70.9530516 L33.2394366,70.9530516 Z"
                          id="Shape" fill="#B4ABAB" fill-rule="nonzero"></path>
                    <path d="M26.4140845,64.4920188 C26.3840145,64.2376974 26.3680277,63.981908 26.3661972,63.7258216 C26.3539319,61.9162395 27.0646564,60.1766535 28.3405459,58.8933594 C29.6164354,57.6100652 31.3518796,56.8892862 33.1615023,56.8910798 C36.9355928,56.8997042 39.9991722,59.9452748 40.0300469,63.7192488 C40.0300469,63.942723 40.0215962,64.1680751 40.0018779,64.3887324 L38.8798122,64.286385 C38.8967136,64.0985915 38.9042254,63.9107981 38.9032864,63.7230047 C38.8775561,60.5681126 36.3164914,58.0221253 33.1615023,58.0150235 C31.6518573,58.0132344 30.2040093,58.6143995 29.1396182,59.6849614 C28.0752271,60.7555234 27.4824417,62.2068225 27.4929577,63.7164319 C27.4947833,63.9307494 27.5079472,64.1448201 27.5323944,64.3577465 L26.4140845,64.4920188 Z"
                          id="Shape" fill="#B4ABAB" fill-rule="nonzero"></path>
                    <path d="M72.9201878,35.7333333 L71.6901408,35.7333333 C71.5345677,35.7333333 71.4084507,35.6072164 71.4084507,35.4516432 C71.4084507,35.29607 71.5345677,35.1699531 71.6901408,35.1699531 L72.9201878,35.1699531 C73.075761,35.1699531 73.2018779,35.29607 73.2018779,35.4516432 C73.2018779,35.6072164 73.075761,35.7333333 72.9201878,35.7333333 Z"
                          id="Shape" fill="#B4ABAB" fill-rule="nonzero"></path>
                    <path d="M74.3746479,39.600939 C73.686385,39.600939 73.2103286,39.4647887 72.9605634,39.1981221 C72.8638169,39.0980286 72.801348,38.9698031 72.7821596,38.8319249 L72.2497653,37.1943662 L70.6394366,37.1943662 C70.4838635,37.1943662 70.3577465,37.0682492 70.3577465,36.9126761 C70.3577465,36.7571029 70.4838635,36.6309859 70.6394366,36.6309859 L72.4544601,36.6309859 C72.5766578,36.6306687 72.6851237,36.7091738 72.7230047,36.8253521 L73.3333333,38.6929577 C73.3417623,38.7184434 73.3465051,38.7450031 73.3474178,38.771831 C73.3699531,38.8450704 73.599061,39.0375587 74.3802817,39.0375587 C74.5358549,39.0375587 74.6619718,39.1636757 74.6619718,39.3192488 C74.6619718,39.474822 74.5358549,39.600939 74.3802817,39.600939 L74.3746479,39.600939 Z"
                          id="Shape" fill="#B4ABAB" fill-rule="nonzero"></path>
                    <path d="M41.1399061,49.2431925 C40.8663987,49.2432837 40.6040216,49.1348885 40.4103286,48.941784 L35.1173709,43.6619718 C34.7133992,43.2590373 34.7125585,42.6049106 35.115493,42.200939 C35.5184275,41.7969673 36.1725542,41.7961265 36.5765258,42.199061 L41.0723005,46.6835681 L49.1633803,37.029108 C49.5320461,36.6007702 50.1765099,36.5482605 50.609653,36.9112683 C51.0427962,37.2742762 51.1037662,37.9179947 50.7464789,38.3558685 L41.9314554,48.8723005 C41.7454793,49.0940173 41.4750189,49.2275443 41.1859155,49.2403756 L41.1399061,49.2431925 Z"
                          id="Shape" fill="#B4ABAB" fill-rule="nonzero"></path>
                    <path d="M40.6037559,53.7577465 C36.4671061,53.7577801 32.8136826,51.0610802 31.5949069,47.1080489 C30.3761312,43.1550175 31.8767608,38.8692499 35.2952569,36.5399247 C38.713753,34.2105996 43.2514104,34.3819458 46.484507,36.9624413 C46.7177801,37.1593629 46.7517703,37.5062523 46.561158,37.7447085 C46.3705457,37.9831647 46.0246895,38.0264202 45.7812207,37.8422535 C44.3142367,36.6624065 42.4863141,36.0226004 40.6037559,36.0300469 C36.0312033,36.030311 32.3200219,39.7285776 32.3038178,44.3011015 C32.2876138,48.8736254 35.9724905,52.5981021 40.5449264,52.630774 C45.1173623,52.663446 48.8550859,48.9920069 48.9042254,44.4197183 C48.9073149,44.1107743 49.1586462,43.8619564 49.4676056,43.8619718 L49.4741784,43.8619718 C49.7849631,43.8655821 50.0341149,44.120196 50.0309859,44.4309859 C49.9759175,49.5978572 45.7718596,53.7575253 40.6046948,53.7577465 L40.6037559,53.7577465 Z"
                          id="Shape" fill="#B4ABAB" fill-rule="nonzero"></path>
                    <polygon id="Shape" fill="#B4ABAB" fill-rule="nonzero"
                             points="7.89389671 51.2901408 7.70140845 48.9314554 5.64882629 47.7521127 7.83286385 46.8403756 8.32018779 44.5248826 9.86197183 46.3201878 12.2150235 46.0676056 10.9840376 48.0882629 11.9511737 50.2488263 9.64882629 49.7023474"></polygon>
                    <polygon id="Shape" fill="#B4ABAB" fill-rule="nonzero"
                             points="87.6610329 46.0084507 90.0150235 46.2469484 91.5464789 44.4431925 92.0469484 46.7558685 94.2366197 47.6544601 92.1915493 48.8460094 92.0131455 51.2056338 90.2488263 49.628169 87.9492958 50.1877934 88.9032864 48.0225352"></polygon>
                </g>
            </g>
        </g>
    </g>
</svg>
