<?xml version="1.0" encoding="UTF-8"?>
<svg width="95px" height="112px" viewBox="0 0 95 112" version="1.1" xmlns="http://www.w3.org/2000/svg" xmlns:xlink="http://www.w3.org/1999/xlink">
    <!-- Generator: sketchtool 51.3 (57544) - http://www.bohemiancoding.com/sketch -->
    <title>80104B32-BE53-4A1A-9D46-21BC2AFD4E32@3x</title>
    <desc>Created with sketchtool.</desc>
    <defs>
        <polygon id="path-1" points="0.000237714286 -5.92592593e-05 63.5662263 -5.92592593e-05 63.5662263 8.96628148 0.000237714286 8.96628148"></polygon>
    </defs>
    <g id="Page-1" stroke="none" stroke-width="1" fill="none" fill-rule="evenodd">
        <g id="Hardware-catalog-steps" transform="translate(-714.000000, -182.000000)">
            <g id="hardware" transform="translate(710.000000, 182.000000)">
                <g id="Group-3" transform="translate(4.754286, 0.000000)" fill="#918483">
                    <path d="M16.4391,22.7067886 C16.4391,33.4105204 30.1007169,42.118164 46.8922565,42.118164 C63.6837962,42.118164 77.3448742,33.4105204 77.3448742,22.7067886 C77.3448742,12.0035982 63.6837962,3.29595463 46.8922565,3.29595463 C30.1007169,3.29595463 16.4391,12.0035982 16.4391,22.7067886 Z M91.1460658,37.0594583 C91.1460658,24.836599 83.1967734,14.1117532 70.0918387,8.20686206 C75.5805204,11.983567 78.9615698,17.0893732 78.9615698,22.7067886 C78.9615698,34.3059719 64.5751344,43.7423203 46.8922565,43.7423203 C29.2088398,43.7423203 14.8224044,34.3059719 14.8224044,22.7067886 C14.8224044,16.9085504 18.4173965,11.6506149 24.2218727,7.84196827 C10.7165364,13.5654953 2.63790836,24.2464888 2.63790836,37.0594583 C2.63790836,48.6716349 15.4626158,59.0337524 33.9150408,62.4287806 L33.9231242,62.3432417 C35.0461888,62.4526015 36.1864981,62.5830754 37.3418966,62.7151735 C40.4437966,63.069781 43.6513207,63.4368403 46.911118,63.4368403 C49.9197885,63.4368403 52.8928918,63.1006399 55.7684544,62.7752673 C56.960498,62.6404623 58.1379913,62.5078229 59.297162,62.4006285 L59.3090178,62.5300197 C78.0912487,59.2400203 91.1460658,48.8367574 91.1460658,37.0594583 Z M24.8992682,80.9966774 C24.8992682,88.2041419 35.1766023,94.5258998 46.8922565,94.5258998 C58.6073719,94.5258998 68.8841671,88.2041419 68.8841671,80.9966774 C68.8841671,78.1576521 68.172821,68.8745158 59.4523648,64.095165 L59.4954767,64.5564254 C59.4749986,64.5580496 59.4550593,64.5607565 59.4351201,64.5623806 L59.4351201,72.6696278 C59.4351201,72.9078374 59.3311127,73.1200605 59.1683653,73.2689415 C59.0643579,73.7919198 58.8875992,74.2894531 58.6219222,74.7225614 C58.4521691,75.0273614 58.2328374,75.2904748 58.0242837,75.5546709 C57.7871683,75.7847597 57.5753812,76.0516627 57.3140154,76.2427718 C56.3272922,77.0922055 55.1999164,77.6720294 54.0455958,78.1073033 C51.7299487,78.9756855 49.2908939,79.3080962 46.8680061,79.3210894 C44.4451183,79.3059306 42.0060635,78.9718958 39.692572,78.1024308 C38.5393291,77.6666155 37.4130312,77.0862503 36.4279247,76.2362751 C36.1665589,76.0457075 35.9558495,75.7793458 35.7187342,75.5487156 C35.5112582,75.2850609 35.2913876,75.022489 35.1227124,74.7187717 C34.758417,74.1227063 34.5574078,73.4069948 34.4900455,72.6696278 L34.6091421,72.6696278 L34.6091421,64.5916155 C34.3951994,64.5694187 34.1807177,64.5461391 33.9678528,64.5244837 C27.3124558,68.6146507 24.8992682,75.8074979 24.8992682,80.9966774 Z M57.8184244,64.7269618 C57.2197082,64.7913867 56.6166807,64.8590599 56.009342,64.9278158 C53.0750395,65.2591437 50.0410407,65.6023821 46.911118,65.6023821 C43.5289907,65.6023821 40.2594933,65.2282847 37.0977756,64.8666393 C36.8051536,64.8336148 36.516304,64.8011316 36.2258377,64.7686485 L36.2258377,73.1455056 C36.2258377,73.2543241 36.2037429,73.3577287 36.1649422,73.4530125 C36.3271506,74.1113372 36.72378,74.7609998 37.2836955,75.3007611 C38.0624039,76.0554524 39.0523606,76.6406901 40.096207,77.0976194 C41.142748,77.5583384 42.263657,77.8690937 43.4018107,78.0818581 C44.5437367,78.2816294 45.705063,78.3736649 46.8680061,78.3904478 C48.0309491,78.3725821 49.1917366,78.2800052 50.3342015,78.0791512 C51.4718163,77.865304 52.5921864,77.5540073 53.6381885,77.0922055 C54.6809571,76.6352762 55.669836,76.0489558 56.4469277,75.2942645 C57.2277916,74.5401145 57.6960945,73.5742829 57.6405879,72.6696278 L57.8184244,72.6696278 L57.8184244,64.7269618 Z M93.8971429,37.0101922 C93.8971429,43.7450273 90.2094601,50.2925429 83.5136458,55.4476152 C78.4884169,59.3163556 71.8524202,62.3367451 64.4323262,64.1812453 C71.0386835,69.9210138 71.6352441,78.1858041 71.6352441,80.9490355 C71.6352441,89.7497974 60.3302305,97.1851852 46.948302,97.1851852 C33.5669123,97.1851852 22.2618987,89.7497974 22.2618987,80.9490355 C22.2618987,75.8416051 24.3140244,69.0261037 29.7714499,64.2548737 C22.2053144,62.4136218 15.4367487,59.3493801 10.3382296,55.4118837 C3.67151576,50.2638495 0,43.7282443 0,37.0101922 C0,28.8244442 3.05501583,21.2558756 8.83416378,15.1225198 C14.2479385,9.37571325 21.8313188,5.09876818 30.7705678,2.74861394 C35.6987949,0.950131468 41.2904062,0 46.948302,0 C53.1262349,0 59.0670524,1.09901247 64.284668,3.19363278 L64.33263,3.09131093 L66.3842168,3.77941184 C83.3546707,9.47695233 93.8971429,22.2097968 93.8971429,37.0101922 Z M37.2357336,30.1752009 C36.5728884,29.9846332 35.9218989,29.7691618 35.30001,29.5358247 C35.0219384,29.4313373 34.710455,29.5737217 34.6064476,29.8530766 C34.5024402,30.1329728 34.6430927,30.4448109 34.9222421,30.5498396 C35.5705371,30.7934631 36.2495492,31.0175967 36.9388005,31.2157438 C36.9883791,31.2298198 37.0384967,31.2368578 37.0880754,31.2368578 C37.3219573,31.2368578 37.5375168,31.0820215 37.6048791,30.8448947 C37.6873306,30.5568777 37.5213498,30.2574915 37.2357336,30.1752009 Z M28.3228906,26.3167468 C26.8646312,24.6590245 26.1252624,22.8036966 26.1252624,20.8032774 C26.1252624,13.6748551 35.6352049,7.65248336 46.8922565,7.65248336 C58.1493082,7.65248336 67.6587118,13.6748551 67.6587118,20.8032774 C67.6587118,27.596582 58.925322,32.5269793 46.8922565,32.5269793 C44.4855356,32.5269793 42.1488716,32.3223356 39.9458543,31.9179207 C39.6532324,31.8643235 39.459229,31.5822617 39.5131188,31.2882894 C39.5659309,30.9943171 39.8472359,30.7967114 40.1398578,30.8530155 C42.2782072,31.24552 44.5502035,31.4442084 46.8922565,31.4442084 C58.1164353,31.4442084 66.5809147,26.8695013 66.5809147,20.8032774 C66.5809147,14.261717 57.5646032,8.73525426 46.8922565,8.73525426 C36.2193709,8.73525426 27.2030594,14.261717 27.2030594,20.8032774 C27.2030594,22.5319211 27.8513544,24.1457911 29.1301606,25.5999525 C29.3273975,25.824086 29.3063804,26.1662416 29.0832765,26.3638473 C28.8601725,26.561453 28.5195886,26.5414218 28.3228906,26.3167468 Z" id="Fill-1"></path>
                </g>
                <g id="Group-3" transform="translate(20.205714, 102.518519)">
                    <mask id="mask-2" fill="white">
                        <use xlink:href="#path-1"></use>
                    </mask>
                    <g id="Clip-2"></g>
                    <path d="M58.4767634,4.33161481 L60.0278491,4.33161481 C60.9353234,4.33161481 61.4660206,3.81368889 61.4660206,2.96272593 C61.4660206,2.13013333 60.9050149,1.59502222 60.0100206,1.59502222 L58.4767634,1.59502222 L58.4767634,4.33161481 Z M58.4767634,8.77605926 L56.6748891,8.77605926 L56.6748891,0.190577778 L60.2007863,0.190577778 C62.1815406,0.190577778 63.316032,1.23176296 63.316032,2.92717037 C63.316032,4.02761481 62.7431406,4.9805037 61.7524663,5.36687407 L63.5662263,8.77605926 L61.5254491,8.77605926 L59.9208777,5.63413333 L58.4767634,5.63413333 L58.4767634,8.77605926 Z M49.0466377,4.48628148 C49.0466377,6.28302222 49.9469806,7.41961481 51.3613806,7.41961481 C52.7692434,7.41961481 53.6707749,6.28302222 53.6707749,4.48628148 C53.6707749,2.68361481 52.7692434,1.5410963 51.3613806,1.5410963 C49.9529234,1.5410963 49.0466377,2.68361481 49.0466377,4.48628148 Z M55.5148434,4.48628148 C55.5148434,7.21754074 53.9090834,8.9248 51.3613806,8.9248 C48.8071406,8.9248 47.208512,7.21754074 47.208512,4.48628148 C47.208512,1.74968889 48.8071406,0.041837037 51.3613806,0.041837037 C53.9090834,0.041837037 55.5148434,1.74968889 55.5148434,4.48628148 Z M42.100032,6.04539259 L46.0205349,6.04539259 L46.0205349,4.52776296 L42.100032,4.52776296 L42.100032,6.04539259 Z M37.6767634,-0.000237037037 C39.520832,-0.000237037037 40.7373349,1.07117037 40.7373349,2.49872593 C40.7373349,3.55235556 40.2185234,4.20005926 38.7625234,5.58672593 L36.9547063,7.31235556 L36.9547063,7.3485037 L40.8573806,7.3485037 L40.8573806,8.77605926 L34.5977691,8.77605926 L34.5977691,7.54465185 L37.6464549,4.66465185 C38.738752,3.61754074 38.9830034,3.20746667 38.9830034,2.6125037 C38.9830034,1.92213333 38.4523063,1.39828148 37.6767634,1.39828148 C36.8174263,1.39828148 36.1672777,1.97546667 36.1672777,2.80213333 L34.4961463,2.80213333 C34.4961463,1.14820741 35.8089234,-0.000237037037 37.6767634,-0.000237037037 Z M29.3276434,6.04539259 L33.2481463,6.04539259 L33.2481463,4.52776296 L29.3276434,4.52776296 L29.3276434,6.04539259 Z M21.6346149,6.31265185 L23.2998034,6.31265185 C23.4014263,7.05694815 24.0396891,7.54465185 24.8687177,7.54465185 C25.817792,7.54465185 26.4732891,6.89576296 26.4732891,5.96183704 C26.4732891,5.03917037 25.817792,4.39146667 24.8746606,4.39146667 C24.1823177,4.39146667 23.6456777,4.71265185 23.3526949,5.23057778 L21.7837806,5.23057778 L22.177792,0.190577778 L27.673152,0.190577778 L27.673152,1.61813333 L23.6094263,1.61813333 L23.4014263,4.03413333 L23.4364891,4.03413333 C23.7948434,3.45694815 24.5050149,3.10613333 25.3762377,3.10613333 C27.0164663,3.10613333 28.1919634,4.28361481 28.1919634,5.92035556 C28.1919634,7.73487407 26.8381806,8.96628148 24.8621806,8.96628148 C23.0193006,8.96628148 21.682752,7.87176296 21.6346149,6.31265185 Z M18.3571291,2.4928 C18.3571291,1.78465185 17.772352,1.29754074 16.961152,1.29754074 C16.1434149,1.29754074 15.5645806,1.78465185 15.5645806,2.4928 C15.5645806,3.19502222 16.1434149,3.68272593 16.961152,3.68272593 C17.772352,3.68272593 18.3571291,3.19502222 18.3571291,2.4928 Z M18.5663177,6.31917037 C18.5663177,5.54524444 17.909632,4.99176296 16.961152,4.99176296 C16.0120777,4.99176296 15.3500434,5.55117037 15.3500434,6.31917037 C15.3500434,7.09842963 16.0120777,7.65724444 16.961152,7.65724444 C17.909632,7.65724444 18.5663177,7.09842963 18.5663177,6.31917037 Z M13.4703177,6.44954074 C13.4703177,5.31946667 14.3058834,4.48628148 15.4807863,4.2605037 L15.4807863,4.22435556 C14.4663406,3.98020741 13.7805349,3.24302222 13.7805349,2.3090963 C13.7805349,0.975762963 15.093312,-0.000237037037 16.961152,-0.000237037037 C18.8283977,-0.000237037037 20.1346377,0.969837037 20.1346377,2.31502222 C20.1346377,3.2365037 19.4547749,3.97428148 18.4468663,4.22435556 L18.4468663,4.2605037 C19.6217691,4.49220741 20.451392,5.32539259 20.451392,6.45605926 C20.451392,7.94346667 19.0138149,8.96628148 16.961152,8.96628148 C14.9025463,8.96628148 13.4703177,7.93754074 13.4703177,6.44954074 Z M6.02154057,6.31265185 L7.68672914,6.31265185 C7.788352,7.05694815 8.42661486,7.54465185 9.25623771,7.54465185 C10.2047177,7.54465185 10.8608091,6.89576296 10.8608091,5.96183704 C10.8608091,5.03917037 10.2047177,4.39146667 9.26218057,4.39146667 C8.56924343,4.39146667 8.03260343,4.71265185 7.74021486,5.23057778 L6.17070629,5.23057778 L6.56471771,0.190577778 L12.060672,0.190577778 L12.060672,1.61813333 L7.99694629,1.61813333 L7.788352,4.03413333 L7.82400914,4.03413333 C8.18176914,3.45694815 8.89194057,3.10613333 9.76316343,3.10613333 C11.4039863,3.10613333 12.5794834,4.28361481 12.5794834,5.92035556 C12.5794834,7.73487407 11.2251063,8.96628148 9.24970057,8.96628148 C7.40622629,8.96628148 6.06967771,7.87176296 6.02154057,6.31265185 Z M2.23118629,1.83857778 L2.19612343,1.83857778 L0.000237714286,3.32657778 L0.000237714286,1.73131852 L2.22583771,0.190577778 L4.015232,0.190577778 L4.015232,8.77605926 L2.23118629,8.77605926 L2.23118629,1.83857778 Z" id="Fill-1" fill="#CC7654" mask="url(#mask-2)"></path>
                </g>
            </g>
        </g>
    </g>
</svg>