<?xml version="1.0" encoding="UTF-8"?>
<svg width="84px" height="104px" viewBox="0 0 84 104" version="1.1" xmlns="http://www.w3.org/2000/svg" xmlns:xlink="http://www.w3.org/1999/xlink">
    <!-- Generator: sketchtool 51.3 (57544) - http://www.bohemiancoding.com/sketch -->
    <title>130485A6-B4B1-4FA5-819B-B9ED5A0A42B2@3x</title>
    <desc>Created with sketchtool.</desc>
    <defs>
        <polygon id="path-1" points="0 0 83.8870465 0 83.8870465 104 0 104"></polygon>
        <polygon id="path-3" points="0 0.000495238095 37.6630909 0.000495238095 37.6630909 13.6041354 0 13.6041354"></polygon>
    </defs>
    <g id="Page-1" stroke="none" stroke-width="1" fill="none" fill-rule="evenodd">
        <g id="Hardware-catalog-steps" transform="translate(-458.000000, -187.000000)">
            <g id="pdf3" transform="translate(458.000000, 187.000000)">
                <g id="Group-3">
                    <mask id="mask-2" fill="white">
                        <use xlink:href="#path-1"></use>
                    </mask>
                    <g id="Clip-2"></g>
                    <path d="M12.4903091,6.23559788 L12.4903091,97.5013757 C12.4903091,97.957545 12.1243091,98.3267725 11.6721273,98.3267725 C11.2199455,98.3267725 10.8539455,97.957545 10.8539455,97.5013757 L10.8539455,6.23559788 C10.8539455,5.77997884 11.2199455,5.41020106 11.6721273,5.41020106 C12.1243091,5.41020106 12.4903091,5.77997884 12.4903091,6.23559788 Z M78.6561273,101.52381 L2.45449091,101.52381 L2.45449091,2.47619048 L54.2955818,2.47619048 L54.2955818,24.2452063 C54.2955818,27.2991746 56.7577636,29.7979259 59.7839455,29.8155344 L61.1732182,29.8232381 C67.1754,29.8590053 77.3475818,29.9184339 81.2154,29.943746 L81.2154,98.9425185 C81.2154,100.365503 80.0672182,101.52381 78.6561273,101.52381 Z M56.4774,3.89477249 L80.1092182,27.7349841 L59.7964909,27.6144762 C57.9664909,27.6034709 56.4774,26.0924444 56.4774,24.2452063 L56.4774,3.89477249 Z M78.6424909,23.1430265 L58.3150364,2.63631746 L64.2277636,2.68804233 C67.9974,2.71830688 72.6163091,2.75352381 76.0134,2.77443386 C77.4632182,2.78378836 78.6424909,3.98061376 78.6424909,5.44431746 L78.6424909,23.1430265 Z M81.2154,5.05748148 L81.2154,25.7380741 L79.7334,24.2435556 L79.7334,5.44431746 C79.7334,4.24088889 79.1661273,3.16787302 78.2901273,2.47619048 L78.6561273,2.47619048 C80.0672182,2.47619048 81.2154,3.63394709 81.2154,5.05748148 Z M83.8870364,28.8575238 C83.8881273,28.5471746 83.8014,28.3309206 83.6699455,28.1707937 L83.6699455,5.05748148 C83.6699455,2.26874074 81.4210364,0 78.6561273,0 L1.22721818,0 C0.549218182,0 -5.45454545e-05,0.554666667 -5.45454545e-05,1.23809524 L-5.45454545e-05,102.761905 C-5.45454545e-05,103.445333 0.549218182,104 1.22721818,104 L78.6561273,104 C81.4210364,104 83.6699455,101.731259 83.6699455,98.9425185 L83.6699455,29.4930794 C83.8041273,29.3131429 83.8864909,29.0952381 83.8870364,28.8575238 Z" id="Fill-1" fill="#918483" mask="url(#mask-2)"></path>
                </g>
                <g id="Group-3" transform="translate(33.818182, 78.687831)">
                    <mask id="mask-4" fill="white">
                        <use xlink:href="#path-3"></use>
                    </mask>
                    <g id="Clip-2"></g>
                    <path d="M1.25934545,11.063564 C0.563890909,11.063564 -0.000109090909,11.6325376 -0.000109090909,12.3341249 C-0.000109090909,13.0357122 0.563890909,13.6041354 1.25934545,13.6041354 C1.9548,13.6041354 2.51825455,13.0357122 2.51825455,12.3341249 C2.51825455,11.6325376 1.9548,11.063564 1.25934545,11.063564 Z M29.3098909,12.4491302 L29.3098909,1.05095026 C29.3098909,0.470421164 29.7762545,0.000495238095 30.3517091,0.000495238095 L36.7869818,0.000495238095 C37.2708,0.000495238095 37.6635273,0.395585185 37.6635273,0.884220106 L37.6635273,0.921087831 C37.6635273,1.40917249 37.2708,1.80536296 36.7869818,1.80536296 L31.3869818,1.80536296 L31.3869818,6.07926772 L36.2584364,6.07926772 C36.7422545,6.07926772 37.1344364,6.47490794 37.1344364,6.96354286 C37.1344364,7.45162751 36.7422545,7.84726772 36.2584364,7.84726772 L31.3869818,7.84726772 L31.3869818,12.4491302 C31.3869818,13.0269079 30.9217091,13.4962836 30.3484364,13.4962836 C29.7751636,13.4962836 29.3098909,13.0269079 29.3098909,12.4491302 Z M18.3506182,11.6815111 L20.7980727,11.6815111 C23.6349818,11.6815111 25.2020727,9.93277037 25.2020727,6.74343704 C25.2020727,3.5634582 23.6257091,1.80536296 20.7980727,1.80536296 L18.3506182,1.80536296 L18.3506182,11.6815111 Z M20.9928,0.000495238095 C24.9702545,0.000495238095 27.3255273,2.46953228 27.3255273,6.72472804 C27.3255273,10.9898286 24.9795273,13.4962836 20.9928,13.4962836 L17.3748,13.4962836 C16.7666182,13.4962836 16.2740727,12.9993947 16.2740727,12.3858497 L16.2740727,1.11037884 C16.2740727,0.497384127 16.7666182,0.000495238095 17.3748,0.000495238095 L20.9928,0.000495238095 Z M7.11370909,7.12697143 L9.49625455,7.12697143 C11.3038909,7.12697143 12.3331636,6.14529947 12.3331636,4.44278095 C12.3331636,2.74026243 11.3038909,1.76739471 9.50552727,1.76739471 L7.11370909,1.76739471 L7.11370909,7.12697143 Z M10.0526182,0.000495238095 C12.6484364,0.000495238095 14.4560727,1.80536296 14.4560727,4.43342646 C14.4560727,7.07084444 12.6113455,8.88506667 9.98716364,8.88506667 L7.11370909,8.88506667 L7.11370909,12.4491302 C7.11370909,13.0269079 6.64843636,13.4962836 6.07516364,13.4962836 C5.50189091,13.4962836 5.03661818,13.0269079 5.03661818,12.4491302 L5.03661818,1.01078095 C5.03661818,0.452812698 5.48552727,0.000495238095 6.03916364,0.000495238095 L10.0526182,0.000495238095 Z" id="Fill-1" fill="#CC7654" mask="url(#mask-4)"></path>
                </g>
            </g>
        </g>
    </g>
</svg>