<?xml version="1.0" encoding="UTF-8"?>
<svg width="53px" height="50px" viewBox="0 0 53 50" version="1.1" xmlns="http://www.w3.org/2000/svg" xmlns:xlink="http://www.w3.org/1999/xlink">
    <!-- Generator: sketchtool 50.2 (55047) - http://www.bohemiancoding.com/sketch -->
    <title>3967B6FD-9E5C-4F00-AD35-77CFABA5F217</title>
    <desc>Created with sketchtool.</desc>
    <defs></defs>
    <g id="Page-1" stroke="none" stroke-width="1" fill="none" fill-rule="evenodd">
        <g id="Product" transform="translate(-742.000000, -610.000000)" fill="#B4AAAB">
            <g id="pictureinfo_icon" transform="translate(742.000000, 610.000000)">
                <path d="M35.654,29.395 L41.12,25.61 L47.149,29.686 L47.149,27.534 L41.108,23.45 L34.674,27.903 L21.523,15.795 L11.956,23.929 L11.956,26.27 L21.476,18.176 L34.208,29.898 L34.219,29.885 L42.495,37.612 L44.456,37.612 L35.654,29.395 Z M41.731,10.951 C41.731,12.677 40.326,14.082 38.599,14.082 C36.873,14.082 35.467,12.677 35.467,10.951 C35.467,9.224 36.873,7.819 38.599,7.819 C40.326,7.819 41.731,9.224 41.731,10.951 Z M43.514,10.951 C43.514,8.241 41.309,6.036 38.599,6.036 C35.889,6.036 33.684,8.241 33.684,10.951 C33.684,13.661 35.889,15.866 38.599,15.866 C41.309,15.866 43.514,13.661 43.514,10.951 Z M8.321,41.247 L50.784,41.247 L50.784,1.784 L8.321,1.784 L8.321,41.247 Z M6.538,43.029 L52.567,43.029 L52.567,0 L6.538,0 L6.538,43.029 Z M46.029,49.568 L0,49.568 L0,6.539 L4.374,6.539 L4.374,8.322 L1.783,8.322 L1.783,47.785 L44.246,47.785 L44.246,45.113 L46.029,45.113 L46.029,49.568 Z"></path>
            </g>
        </g>
    </g>
</svg>