<svg width="60" height="60" viewBox="0 0 60 60" fill="none" xmlns="http://www.w3.org/2000/svg">
<path d="M29.9188 59.5484C46.2246 59.5484 59.4431 46.3064 59.4431 29.9717C59.4431 13.6369 46.2246 0.39502 29.9188 0.39502C13.613 0.39502 0.394531 13.6369 0.394531 29.9717C0.394531 46.3064 13.613 59.5484 29.9188 59.5484Z" fill="white"/>
<path fill-rule="evenodd" clip-rule="evenodd" d="M0.60708 35.9163C3.43251 49.888 15.6884 59.9344 29.9187 59.9435C33.9192 59.9512 37.8802 59.1501 41.5644 57.5881C56.7264 51.1057 63.8001 33.5607 57.385 18.3481C50.9699 3.13551 33.482 -4.01519 18.2729 2.35534C5.16815 7.91193 -2.21835 21.9446 0.60708 35.9163ZM1.38036 24.1841C4.13123 10.581 16.0635 0.799618 29.9183 0.790216C33.8134 0.782616 37.6699 1.56263 41.2569 3.08354C56.0806 9.35683 63.021 26.4806 56.7589 41.3306C50.4967 56.1805 33.4032 63.1333 18.5796 56.86C5.8208 51.4496 -1.37051 37.7872 1.38036 24.1841Z" fill="#627590"/>
<path d="M29.9184 56.0019C23.1941 56.015 16.7292 53.4032 11.8951 48.7206C7.04273 44.0409 4.22553 37.7564 3.95508 31.0271L4.40583 31.0091C4.90537 43.3216 14.0974 53.5271 26.2722 55.2865C38.4471 57.0458 50.1435 49.8588 54.0963 38.1897C58.0491 26.5205 53.1345 13.6868 42.4051 7.66001C31.6758 1.63326 18.1821 4.12696 10.3056 13.5921L9.95966 13.3032C17.6765 4.01837 30.7551 1.27089 41.5453 6.66783C52.3354 12.0648 58.0023 24.1883 55.2311 35.9467C52.4599 47.7052 41.9787 56.0094 29.9184 56.0019Z" fill="#627590"/>
<path d="M4.19344 28.8715H4.18218C4.12238 28.8686 4.06619 28.842 4.02603 28.7975C3.98586 28.753 3.965 28.6944 3.96807 28.6345C4.0217 27.5835 4.13817 26.5366 4.31684 25.4996C4.32912 25.4187 4.3841 25.3508 4.46057 25.3221C4.53703 25.2934 4.62302 25.3084 4.68532 25.3612C4.74763 25.4141 4.77652 25.4966 4.76083 25.5769C4.58502 26.596 4.47063 27.6247 4.41826 28.6576C4.41197 28.7774 4.31322 28.8714 4.19344 28.8715Z" fill="#627590"/>
<path d="M6.74508 18.9165C6.66738 18.9166 6.59512 18.8766 6.55388 18.8106C6.51265 18.7446 6.50825 18.662 6.54225 18.592C6.98404 17.6839 7.47807 16.8023 8.02184 15.9515C8.06427 15.8813 8.1414 15.8397 8.22328 15.8428C8.30516 15.846 8.37889 15.8934 8.41583 15.9666C8.45277 16.0399 8.44711 16.1275 8.40104 16.1954C7.86698 17.032 7.3818 17.8989 6.94792 18.7918C6.90953 18.8687 6.83089 18.917 6.74508 18.9165Z" fill="#627590"/>
<path d="M22.6262 47.4502L23.2015 48.618L24.4878 48.8048L23.557 49.7136L23.7767 50.9971L22.6262 50.3909L21.4762 50.9971L21.6959 49.7136L20.7651 48.8048L22.0515 48.618L22.6262 47.4502Z" fill="#627590"/>
<path d="M29.6213 47.4502L30.1966 48.618L31.4823 48.8048L30.5521 49.7136L30.7718 50.9971L29.6213 50.3909L28.4708 50.9971L28.6905 49.7136L27.7603 48.8048L29.046 48.618L29.6213 47.4502Z" fill="#627590"/>
<path d="M36.6643 47.4502L37.2395 48.618L38.5253 48.8048L37.5951 49.7136L37.8148 50.9971L36.6643 50.3909L35.5143 50.9971L35.734 49.7136L34.8032 48.8048L36.089 48.618L36.6643 47.4502Z" fill="#627590"/>
<path d="M20.645 39.2759H38.3049V40.0097H20.645V39.2759Z" fill="#627590"/>
<path d="M51.524 40.0944H47.3174V39.1913H51.524C51.6311 39.1913 51.6604 39.1602 51.67 39.15C51.7319 39.0851 51.7505 38.9243 51.7472 38.8532C51.746 38.8359 51.746 38.8185 51.7472 38.8012L51.7995 37.8332C51.8136 37.5741 51.7212 37.525 51.6362 37.5143C51.5171 37.5158 51.403 37.4666 51.3223 37.3788C51.2385 37.2871 51.1976 37.164 51.2096 37.0402C51.2096 37.0402 51.231 36.5655 51.2519 36.058C51.2616 35.8157 51.4606 35.6244 51.7026 35.6246H51.7945L51.8717 34.1485H51.8057C51.6828 34.1487 51.5652 34.0985 51.48 34.0096C51.3949 33.9207 51.3498 33.8008 51.355 33.6778C51.3708 33.3126 51.3843 32.9813 51.3973 32.6737C51.4333 31.8044 51.4615 31.1181 51.5009 30.3956C51.5894 28.7587 50.1915 27.9515 50.0856 27.8923L47.931 26.8763C47.8104 26.8198 47.7211 26.7124 47.6876 26.5833L46.5043 22.0955C46.4684 21.9567 46.5004 21.8091 46.5906 21.6977C46.6807 21.5863 46.8183 21.5245 46.9613 21.531C47.0805 21.5337 47.1997 21.5299 47.3185 21.5198C47.3156 21.5064 47.3118 21.4932 47.3072 21.4802C47.3021 21.4647 47.2977 21.4489 47.2943 21.4328C47.2909 21.417 46.9495 19.871 46.803 19.3444C46.79 19.2987 46.7641 19.2242 46.7275 19.2151C46.6942 19.2259 46.6942 19.2202 46.6491 19.2202H45.7747C45.5955 19.2202 45.4334 19.1138 45.3617 18.9493C44.9791 18.0705 44.1965 18.1732 44.1886 18.1743C44.1673 18.1772 44.1459 18.1787 44.1244 18.1788H41.5579C41.3111 18.1788 41.1102 17.9801 41.1071 17.7329C41.0812 15.728 39.3526 15.1055 39.0444 15.0106H35.3127C35.1889 15.0108 35.0704 14.9599 34.9851 14.8699C34.8998 14.7799 34.8553 14.6587 34.862 14.5348L34.933 13.2575H10.8115L10.6369 16.4635L9.73535 16.4144L9.93256 12.7817C9.94544 12.5418 10.1435 12.354 10.3833 12.3544H35.4079C35.5319 12.3542 35.6505 12.4052 35.7358 12.4953C35.8211 12.5854 35.8655 12.7068 35.8587 12.8308L35.79 14.1024H39.1086C39.1453 14.1024 39.1818 14.107 39.2174 14.116C39.7176 14.2611 40.1859 14.4999 40.5972 14.8198C41.3753 15.4117 41.8755 16.2987 41.9799 17.2718H44.0956C44.8946 17.2059 45.6585 17.6128 46.0508 18.3132H46.6142C46.959 18.2691 47.487 18.4362 47.6712 19.0977C47.816 19.6193 48.1248 21.0101 48.1699 21.2121C48.2183 21.3651 48.3164 21.7675 48.122 22.0797C48.0118 22.2558 47.8269 22.3715 47.6205 22.3935L47.5191 22.4048L48.5068 26.1476L50.4839 27.0789L50.5008 27.088C50.5836 27.1314 52.5292 28.1801 52.4036 30.443C52.3647 31.1598 52.3365 31.8434 52.3004 32.7092C52.2926 32.8989 52.2847 33.0976 52.2757 33.3081C52.5979 33.4441 52.7996 33.7689 52.7788 34.1186L52.6932 35.7041C52.6745 36.047 52.4572 36.3471 52.1376 36.4712C52.1331 36.5677 52.1297 36.6575 52.1258 36.7371C52.2339 36.7937 52.3313 36.8688 52.4137 36.9589C52.5596 37.1192 52.7281 37.4104 52.7027 37.8823L52.6509 38.8278C52.6554 38.966 52.6441 39.43 52.3337 39.7642C52.1911 39.9149 51.9376 40.0944 51.524 40.0944Z" fill="#627590"/>
<path d="M9.61035 20.3241L9.70477 18.5888L10.4362 18.6287L10.3417 20.364L9.61035 20.3241Z" fill="#627590"/>
<path d="M9.24902 26.9749L9.4693 22.9265L10.2007 22.9664L9.98041 27.0148L9.24902 26.9749Z" fill="#627590"/>
<path d="M12.1197 40.0944H8.94918C8.82603 40.0945 8.7082 40.0442 8.62306 39.9551C8.53791 39.8659 8.49288 39.7458 8.49842 39.6225L8.60266 37.2824L8.659 36.2212C8.34239 36.1106 8.13793 35.8024 8.15867 35.4671L8.26234 33.5593C8.28096 33.218 8.51649 32.9274 8.84607 32.8391L9.0551 28.9924L9.95661 29.0415L9.7256 33.2873C9.71271 33.5271 9.51463 33.7149 9.27485 33.7145H9.16216L9.07144 35.3616H9.1368C9.26067 35.3614 9.37915 35.4123 9.46441 35.5023C9.54968 35.5923 9.59421 35.7135 9.58755 35.8374L9.50642 37.327L9.42359 39.1896H12.1225L12.1197 40.0944Z" fill="#627590"/>
<path d="M51.6196 35.996H50.069C49.9846 35.9953 49.9042 35.9595 49.847 35.8972C49.7652 35.8043 49.7245 35.6821 49.7343 35.5586L49.8076 34.2039C49.8206 33.9674 49.98 33.7828 50.1705 33.7828H51.7239V34.1215H50.1823C50.1591 34.1498 50.1463 34.1853 50.1462 34.222L50.0724 35.5766C50.07 35.6049 50.075 35.6333 50.0871 35.659H51.6196V35.996Z" fill="#627590"/>
<path d="M51.7357 32.7837H50.6224C50.4997 32.7776 50.4033 32.6762 50.4033 32.5531C50.4033 32.4301 50.4997 32.3286 50.6224 32.3225H51.7357C51.8207 32.3183 51.901 32.3613 51.9448 32.4344C51.9885 32.5075 51.9885 32.5988 51.9448 32.6718C51.901 32.7449 51.8207 32.7879 51.7357 32.7837Z" fill="#627590"/>
<path d="M51.7958 31.6741H50.6824C50.5597 31.668 50.4634 31.5666 50.4634 31.4435C50.4634 31.3204 50.5597 31.219 50.6824 31.2129H51.7958C51.8807 31.2087 51.9611 31.2517 52.0048 31.3248C52.0486 31.3979 52.0486 31.4891 52.0048 31.5622C51.9611 31.6353 51.8807 31.6783 51.7958 31.6741Z" fill="#627590"/>
<path fill-rule="evenodd" clip-rule="evenodd" d="M40.7221 41.0445C41.2096 41.561 41.8901 41.8504 42.5997 41.843C44.0861 41.843 45.3606 40.6317 45.4417 39.1433C45.4887 38.434 45.2382 37.7372 44.7506 37.2207C44.2631 36.7042 43.5826 36.4148 42.873 36.4221C41.3866 36.4221 40.1121 37.6329 40.031 39.1218C39.984 39.8312 40.2345 40.528 40.7221 41.0445ZM40.4249 39.1456C40.4948 37.8626 41.5929 36.8195 42.873 36.8195C43.4743 36.8119 44.0514 37.0567 44.4645 37.4944C44.8777 37.9322 45.0892 38.5231 45.0479 39.1241C44.978 40.4065 43.8799 41.4502 42.5998 41.4502C41.9986 41.4572 41.4218 41.2123 41.0088 40.7747C40.5958 40.3371 40.3841 39.7464 40.4249 39.1456Z" fill="#627590"/>
<path d="M10.6787 35.8418H9.14502V35.3807H10.6579L10.7508 33.6665H9.26334V33.2053H10.797C10.9117 33.2048 11.0216 33.2519 11.1003 33.3354C11.1791 33.419 11.2199 33.5314 11.2128 33.6462L11.1165 35.4264C11.1036 35.6593 10.9115 35.8416 10.6787 35.8418Z" fill="#627590"/>
<path d="M33.5679 39.559L34.9374 14.3901L35.5562 14.4239L34.1867 39.5928L33.5679 39.559Z" fill="#627590"/>
<path d="M29.1226 39.3307H37.164V39.7918H29.1226V39.3307Z" fill="#627590"/>
<path d="M35.1597 17.5941H41.6274V18.0553H35.1597V17.5941Z" fill="#627590"/>
<path d="M35.5894 39.6161L36.7738 17.8486L37.2334 17.8737L36.049 39.6412L35.5894 39.6161Z" fill="#627590"/>
<path d="M46.8682 36.9465H51.4501V37.4077H46.8682V36.9465Z" fill="#627590"/>
<path d="M35.9512 36.9465H38.9301V37.4077H35.9512V36.9465Z" fill="#627590"/>
<path d="M9.19385 36.9465H12.4984V37.4077H9.19385V36.9465Z" fill="#627590"/>
<path d="M20.5718 36.9465H34.1394V37.4077H20.5718V36.9465Z" fill="#627590"/>
<path fill-rule="evenodd" clip-rule="evenodd" d="M39.272 26.6737C39.485 26.8842 39.7898 26.9068 39.9121 26.9068V26.9062H46.0214C46.1087 26.9061 46.191 26.8655 46.2443 26.7962C46.2975 26.727 46.3157 26.6369 46.2936 26.5523L44.6641 20.3203C44.6613 20.3175 44.6613 20.3113 44.6613 20.3113C44.3655 19.3196 43.4482 19.0571 43.0048 19.0571H40.0185C39.7909 19.0645 39.4427 19.2536 39.4157 19.7452L39.0703 26.103C39.0497 26.3138 39.1236 26.5229 39.272 26.6737ZM39.6324 26.1335L39.9784 19.7756V19.7762C39.9812 19.7237 39.9936 19.6356 40.0448 19.6221H43.0007C43.0361 19.6221 43.8678 19.6413 44.1174 20.4687L45.6556 26.3417H39.9237C39.8792 26.3446 39.7304 26.3333 39.6679 26.2717L39.6677 26.2716C39.6574 26.2613 39.6274 26.2311 39.6324 26.1335Z" fill="#627590"/>
<path d="M36.3931 29.6743H51.7091V29.9046H36.3931V29.6743Z" fill="#627590"/>
<path d="M12.1802 15.1511H32.3942V15.3814H12.1802V15.1511Z" fill="#627590"/>
<path d="M42.4837 44.2903C41.105 44.2903 39.8355 43.7513 38.9115 42.7731C37.9874 41.795 37.5158 40.4911 37.5913 39.1077L38.4928 39.1568C38.4314 40.2902 38.8129 41.3541 39.5679 42.1522C40.3229 42.9504 41.3568 43.3872 42.4854 43.3872C44.8406 43.3872 46.8605 41.4681 46.989 39.1077L47.8905 39.1568C47.7305 41.9874 45.3065 44.2903 42.4837 44.2903Z" fill="#627590"/>
<path d="M47.7719 39.1507L47.0958 39.114C47.1589 37.9496 46.7662 36.8562 45.9903 36.035C45.2145 35.2137 44.1507 34.765 42.9911 34.765C40.5768 34.765 38.5061 36.7326 38.3749 39.1507L37.6987 39.114C37.8497 36.3426 40.2235 34.0876 42.9906 34.0876C44.3377 34.0876 45.5773 34.6137 46.4805 35.5693C47.3837 36.5249 47.8452 37.7988 47.7719 39.1507Z" fill="#627590"/>
<path fill-rule="evenodd" clip-rule="evenodd" d="M14.4434 41.0276C14.9267 41.5395 15.6013 41.8262 16.3047 41.8187C17.7775 41.8187 19.0408 40.6187 19.1219 39.1433C19.1682 38.4402 18.9199 37.7496 18.4366 37.2377C17.9534 36.7258 17.279 36.4388 16.5757 36.4458C15.1023 36.4458 13.8385 37.6464 13.7585 39.1218C13.7118 39.8249 13.9601 40.5156 14.4434 41.0276ZM14.1524 39.1433C14.2212 37.8739 15.3081 36.841 16.5752 36.841C17.1703 36.8338 17.7412 37.076 18.15 37.5093C18.5588 37.9425 18.7682 38.5271 18.7276 39.1219C18.6583 40.3907 17.5714 41.4237 16.3048 41.4237C15.7098 41.431 15.1388 41.1889 14.73 40.7558C14.3212 40.3226 14.1118 39.738 14.1524 39.1433Z" fill="#627590"/>
<path d="M16.1864 44.2452C14.8201 44.2452 13.5625 43.7112 12.6458 42.7415C11.7291 41.7718 11.262 40.4793 11.3369 39.1077L12.2384 39.1568C12.1776 40.2783 12.5551 41.3304 13.3016 42.1201C14.0482 42.9097 15.0714 43.3421 16.1881 43.3421C18.3016 43.3421 20.1886 41.7617 20.5779 39.6636L21.4642 39.8285C20.9954 42.3464 18.727 44.2452 16.1864 44.2452Z" fill="#627590"/>
<path d="M21.3543 39.8082L20.6894 39.684C20.7245 39.4957 20.7473 39.3052 20.7576 39.1139C20.8201 37.9613 20.4319 36.8793 19.6634 36.0659C18.8949 35.2526 17.8429 34.8089 16.6952 34.8089C14.3062 34.8089 12.2564 36.7562 12.1268 39.15L11.4507 39.1134C11.6 36.3668 13.9524 34.1316 16.6946 34.1316C18.03 34.1316 19.2588 34.6531 20.1541 35.5991C21.0495 36.5451 21.5064 37.8089 21.432 39.1489C21.4203 39.3701 21.3944 39.5903 21.3543 39.8082Z" fill="#627590"/>
<path d="M45.8848 19.2259H45.0103C44.917 19.2259 44.8413 19.1501 44.8413 19.0565C44.8413 18.963 44.917 18.8872 45.0103 18.8872H45.8848C45.9782 18.8872 46.0538 18.963 46.0538 19.0565C46.0538 19.1501 45.9782 19.2259 45.8848 19.2259Z" fill="#627590"/>
<path d="M46.7531 21.9239C46.2719 21.9239 45.9445 21.8297 45.7811 21.6417C45.7174 21.5729 45.6794 21.4842 45.6735 21.3905L45.3614 20.208H44.2013C44.1079 20.208 44.0322 20.1322 44.0322 20.0387C44.0322 19.9452 44.1079 19.8694 44.2013 19.8694H45.4915C45.5682 19.8694 45.6353 19.921 45.6549 19.9953L46.006 21.3251C46.0109 21.3421 46.0128 21.3599 46.0116 21.3776C46.0195 21.434 46.1688 21.583 46.7531 21.583C46.8464 21.583 46.9221 21.6588 46.9221 21.7524C46.9221 21.8459 46.8464 21.9217 46.7531 21.9217V21.9239Z" fill="#627590"/>
<path d="M10.0694 19.2953H5.26722C5.12719 19.2953 5.01367 19.1816 5.01367 19.0413C5.01367 18.9011 5.12719 18.7874 5.26722 18.7874H10.0694C10.2095 18.7874 10.323 18.9011 10.323 19.0413C10.323 19.1816 10.2095 19.2953 10.0694 19.2953Z" fill="#627590"/>
<path d="M9.80759 29.4152H3.5055C3.36547 29.4152 3.25195 29.3015 3.25195 29.1612C3.25195 29.0209 3.36547 28.9072 3.5055 28.9072H9.80759C9.94762 28.9072 10.0611 29.0209 10.0611 29.1612C10.0611 29.3015 9.94762 29.4152 9.80759 29.4152Z" fill="#627590"/>
<path d="M11.3191 22.9257H1.82679C1.68676 22.9257 1.57324 22.812 1.57324 22.6717C1.57324 22.5314 1.68676 22.4177 1.82679 22.4177H11.3191C11.4591 22.4177 11.5726 22.5314 11.5726 22.6717C11.5726 22.812 11.4591 22.9257 11.3191 22.9257Z" fill="#627590"/>
<path d="M51.6793 44.1956H42.2186C42.0474 44.1956 41.9087 44.0566 41.9087 43.8852C41.9087 43.7137 42.0474 43.5747 42.2186 43.5747H51.6793C51.8505 43.5747 51.9892 43.7137 51.9892 43.8852C51.9892 44.0566 51.8505 44.1956 51.6793 44.1956Z" fill="#627590"/>
<path d="M38.358 44.1956H16.0418C15.8707 44.1956 15.7319 44.0566 15.7319 43.8852C15.7319 43.7137 15.8707 43.5747 16.0418 43.5747H38.358C38.5292 43.5747 38.6679 43.7137 38.6679 43.8852C38.6679 44.0566 38.5292 44.1956 38.358 44.1956Z" fill="#627590"/>
<path d="M12.1365 44.1956H8.34798C8.17683 44.1956 8.03809 44.0566 8.03809 43.8852C8.03809 43.7137 8.17683 43.5747 8.34798 43.5747H12.1365C12.3077 43.5747 12.4464 43.7137 12.4464 43.8852C12.4464 44.0566 12.3077 44.1956 12.1365 44.1956Z" fill="#627590"/>
<path fill-rule="evenodd" clip-rule="evenodd" d="M16.2394 24.7501C16.8907 24.4061 17.251 23.7403 17.3201 22.7525C17.3719 22.0176 17.2324 21.4603 16.9014 21.0806C16.5705 20.7009 16.0591 20.5111 15.3672 20.5111C14.6772 20.5115 14.1376 20.7028 13.7484 21.0851C13.3593 21.4675 13.1394 22.0214 13.0886 22.7469C13.0391 23.481 13.1827 24.0398 13.5197 24.4233C13.8566 24.8067 14.3665 24.9984 15.0494 24.9984L15.0522 25.0018V25.0046L15.7515 25.9755H17.2164L16.2394 24.7501ZM15.1154 24.0169C14.5301 24.0165 14.2672 23.595 14.3266 22.7525C14.3859 21.9021 14.7097 21.4761 15.2979 21.4746C15.5872 21.475 15.7975 21.5788 15.929 21.7862C16.0604 21.9935 16.111 22.3149 16.0805 22.7502C16.0509 23.1852 15.957 23.5051 15.7988 23.7098C15.6407 23.9145 15.4129 24.0169 15.1154 24.0169Z" fill="#627590"/>
<path d="M21.9565 20.5795L21.7729 23.203C21.733 23.7731 21.5409 24.2147 21.1965 24.5277C20.852 24.8408 20.3763 24.9973 19.7693 24.9973C19.1758 24.9973 18.7307 24.8453 18.4339 24.5413C18.1372 24.2372 18.0085 23.8 18.048 23.2295L18.2339 20.5795H19.4171L19.2385 23.1375C19.2163 23.4457 19.2582 23.6692 19.3642 23.8081C19.4701 23.9469 19.6348 24.0165 19.8583 24.0169C20.0983 24.0169 20.2771 23.9479 20.3947 23.8098C20.5123 23.6717 20.5821 23.4459 20.6043 23.1324L20.7829 20.5806L21.9565 20.5795Z" fill="#627590"/>
<path d="M22.5645 24.9381L22.8698 20.5795H24.0531L23.7477 24.9381H22.5645Z" fill="#627590"/>
<path d="M26.8655 21.4831C26.5971 21.4784 26.3438 21.6074 26.1894 21.8274C26.0162 22.0565 25.9157 22.373 25.8879 22.7768C25.8289 23.6155 26.118 24.0347 26.7551 24.0343C26.9457 24.0345 27.1354 24.0075 27.3185 23.9542C27.5029 23.9008 27.6891 23.8362 27.8769 23.7606L27.8059 24.7563C27.4105 24.9212 26.9856 25.0032 26.5573 24.9973C25.9003 24.9973 25.4103 24.8065 25.0873 24.4249C24.7642 24.0434 24.6281 23.4919 24.6788 22.7706C24.7008 22.3537 24.8163 21.9472 25.0168 21.5813C25.2005 21.2489 25.4739 20.975 25.8057 20.7911C26.1566 20.6024 26.5501 20.5075 26.9483 20.5156C27.4082 20.5133 27.8623 20.6182 28.2747 20.8221L27.8498 21.7495C27.698 21.6755 27.5414 21.6118 27.381 21.5587C27.2144 21.5059 27.0403 21.4804 26.8655 21.4831Z" fill="#627590"/>
<path d="M32.3578 24.9381H31.0309L30.2872 23.2713L29.9249 23.4801L29.8229 24.9381H28.6396L28.9445 20.5795H30.1277L29.9953 22.4726C30.1169 22.2788 30.2501 22.0926 30.3942 21.9149L31.4016 20.5795H32.6868L31.1785 22.5324L32.3578 24.9381Z" fill="#627590"/>
<path d="M19.0076 31.03C18.9927 31.2896 18.9039 31.5395 18.7518 31.7502C18.5912 31.9669 18.3749 32.1359 18.1259 32.239C17.8345 32.3602 17.5212 32.4196 17.2058 32.4134C16.9628 32.4176 16.7201 32.3972 16.4812 32.3525C16.2737 32.3064 16.0727 32.2348 15.8828 32.1391L15.9566 31.0898C16.1726 31.2049 16.4007 31.2954 16.6367 31.3596C16.8518 31.4208 17.074 31.4532 17.2976 31.4562C17.4723 31.4562 17.6024 31.4262 17.6881 31.3653C17.7686 31.3138 17.8198 31.227 17.8261 31.1316C17.8316 31.0767 17.8183 31.0215 17.7884 30.9752C17.7483 30.9207 17.6979 30.8745 17.6402 30.8392C17.4587 30.7355 17.2719 30.6413 17.0807 30.557C16.86 30.4614 16.6539 30.3348 16.4688 30.1811C16.3406 30.0677 16.2423 29.9245 16.1826 29.764C16.1225 29.5846 16.1008 29.3946 16.1189 29.2063C16.1471 28.8048 16.3148 28.4919 16.622 28.2676C16.9293 28.0433 17.338 27.9305 17.8481 27.929C18.3173 27.9333 18.78 28.0402 19.2037 28.2422L18.78 29.151C18.3867 28.9628 18.0421 28.8688 17.7461 28.8688C17.5936 28.8688 17.4809 28.8955 17.408 28.9489C17.3345 28.9954 17.2899 29.0765 17.2899 29.1637C17.2899 29.2508 17.3345 29.3319 17.408 29.3784C17.4914 29.4462 17.7223 29.5694 18.1005 29.7482C18.4641 29.9171 18.7118 30.0985 18.8437 30.2923C18.9755 30.4861 19.0302 30.732 19.0076 31.03Z" fill="#627590"/>
<path d="M23.316 32.3537H22.1328L22.2573 30.5768H20.8932L20.7687 32.3537H19.5854L19.8925 27.9962H21.0758L20.9631 29.6116H22.3288L22.4415 27.9962H23.6248L23.316 32.3537Z" fill="#627590"/>
<path d="M24.2568 32.3537L24.5617 27.9962H25.7449L25.4395 32.3543L24.2568 32.3537Z" fill="#627590"/>
<path fill-rule="evenodd" clip-rule="evenodd" d="M29.2363 30.5108C29.5398 30.2448 29.7088 29.8685 29.7434 29.3819C29.7746 28.939 29.6605 28.5973 29.4014 28.3569C29.1422 28.1164 28.738 27.9962 28.1888 27.9962H26.6833L26.3779 32.3537H27.5521L27.6564 30.9087H27.9866C28.5162 30.9095 28.9328 30.7768 29.2363 30.5108ZM27.9363 29.9464H27.7217L27.7921 28.9451H28.0952C28.4205 28.9451 28.573 29.092 28.5527 29.3859C28.5489 29.5425 28.4821 29.6909 28.3674 29.7974C28.2478 29.9001 28.0937 29.9534 27.9363 29.9464Z" fill="#627590"/>
</svg>
