<?xml version="1.0" encoding="UTF-8"?>
<svg width="100px" height="100px" viewBox="0 0 100 100" version="1.1" xmlns="http://www.w3.org/2000/svg" xmlns:xlink="http://www.w3.org/1999/xlink">
    <!-- Generator: sketchtool 50.2 (55047) - http://www.bohemiancoding.com/sketch -->
    <title>641408E0-1D0A-4CB8-838F-7630434E3C0E</title>
    <desc>Created with sketchtool.</desc>
    <defs></defs>
    <g id="Page-1" stroke="none" stroke-width="1" fill="none" fill-rule="evenodd">
        <g id="Product_requestquote" transform="translate(-1064.000000, -287.000000)">
            <g id="quickship" transform="translate(1064.000000, 287.000000)">
                <g id="Artboard-15">
                    <ellipse id="Oval" fill="#FFFFFF" fill-rule="nonzero" cx="50.0943396" cy="49.8591549" rx="49.4339623" ry="49.2018779"></ellipse>
                    <path d="M50.0943396,99.7183099 C26.2678446,99.7031277 5.74723738,82.9906777 1.01647796,59.7481813 C-3.71428147,36.5056849 8.65331197,13.1619038 30.595283,3.91830986 C56.060645,-6.67930971 85.3414284,5.21615406 96.0825566,30.5228402 C106.823685,55.8295263 94.9798054,85.0163633 69.5933962,95.8 C63.42475,98.3984533 56.7926855,99.731158 50.0943396,99.7183099 Z M50.0943396,1.31455399 C26.8965464,1.33019444 6.91782152,17.6019487 2.31190197,40.2311558 C-2.29401758,62.8603629 9.74676556,85.5882755 31.109434,94.5887324 C55.9294231,105.02458 84.549831,93.4583923 95.0349047,68.7549292 C105.519978,44.051466 93.899234,15.565426 69.0792453,5.12957746 C63.0732989,2.59949176 56.61608,1.30191135 50.0943396,1.31455399 Z" id="Shape" fill="#B4ABAB" fill-rule="nonzero"></path>
                    <path d="M50.0943396,93.1615023 C38.8354329,93.1831917 28.0109245,88.838419 19.9169811,81.0488263 C11.7924528,73.2638498 7.0754717,62.8093897 6.62264151,51.6150235 L7.37735849,51.5849765 C8.21376339,72.0673548 23.6043681,89.0445898 43.9893553,91.9713346 C64.3743424,94.8980793 83.9582497,82.9422588 90.5766052,63.5301869 C97.1949607,44.1181151 88.9661626,22.7686537 71.0014986,12.7429422 C53.0368345,2.71723072 30.4436676,6.86558397 17.2556604,22.6112676 L16.6764151,22.1305164 C29.5970664,6.68494225 51.4952602,2.11440331 69.5617487,11.0924153 C87.6282372,20.0704274 97.1166069,40.2382942 92.4766795,59.7989148 C87.8367521,79.3595354 70.2875257,93.1739592 50.0943396,93.1615023 Z" id="Shape" fill="#B4ABAB" fill-rule="nonzero"></path>
                    <path d="M7.02075472,48.029108 L7.00188679,48.029108 C6.90176053,48.02425 6.80769104,47.9799392 6.74043523,47.9059528 C6.67317942,47.8319664 6.63826508,47.7343855 6.64339623,47.6347418 C6.73319597,45.8863499 6.92819968,44.1448864 7.22735849,42.4197183 C7.24791972,42.2851854 7.33998505,42.1722449 7.46801425,42.1244957 C7.59604346,42.0767464 7.74000776,42.1016583 7.84433224,42.1896144 C7.94865671,42.2775705 7.99702093,42.4148111 7.97075472,42.5483568 C7.67639738,44.2436458 7.48485589,45.9550362 7.39716981,47.6732394 C7.38664122,47.8725697 7.22130167,48.0288842 7.02075472,48.029108 Z" id="Shape" fill="#B4ABAB" fill-rule="nonzero"></path>
                    <path d="M11.2933962,31.4685446 C11.1632868,31.4686458 11.0423023,31.4020283 10.9732582,31.2922673 C10.9042141,31.1825063 10.8968506,31.0450861 10.9537736,30.9286385 C11.6934964,29.4180119 12.520673,27.9513838 13.4311321,26.5361502 C13.5021664,26.4193269 13.6313081,26.3500798 13.7684034,26.3553019 C13.9054986,26.360524 14.0289451,26.4393925 14.0908007,26.5612778 C14.1526564,26.6831631 14.1431746,26.8288595 14.0660377,26.941784 C13.1718439,28.333523 12.3594745,29.7756926 11.6330189,31.2610329 C11.5687298,31.3889108 11.4370619,31.4693608 11.2933962,31.4685446 Z" id="Shape" fill="#B4ABAB" fill-rule="nonzero"></path>
                    <polygon id="Shape" fill="#B4ABAB" fill-rule="nonzero" points="37.8839623 78.9352113 38.8471698 80.8779343 41.0009434 81.1887324 39.4424528 82.7004695 39.8103774 84.8356808 37.8839623 83.82723 35.9584906 84.8356808 36.3264151 82.7004695 34.7679245 81.1887324 36.9216981 80.8779343"></polygon>
                    <polygon id="Shape" fill="#B4ABAB" fill-rule="nonzero" points="49.5962264 78.9352113 50.559434 80.8779343 52.7122642 81.1887324 51.154717 82.7004695 51.5226415 84.8356808 49.5962264 83.82723 47.6698113 84.8356808 48.0377358 82.7004695 46.4801887 81.1887324 48.6330189 80.8779343"></polygon>
                    <polygon id="Shape" fill="#B4ABAB" fill-rule="nonzero" points="61.3886792 78.9352113 62.3518868 80.8779343 64.504717 81.1887324 62.9471698 82.7004695 63.3150943 84.8356808 61.3886792 83.82723 59.4632075 84.8356808 59.8311321 82.7004695 58.2726415 81.1887324 60.4254717 80.8779343"></polygon>
                    <rect id="Rectangle-path" fill="#B4ABAB" fill-rule="nonzero" x="34.5669811" y="65.3370892" width="29.5688679" height="1.22065728"></rect>
                    <path d="M86.2698113,66.6985915 L79.2264151,66.6985915 L79.2264151,65.1962441 L86.2698113,65.1962441 C86.4490566,65.1962441 86.4981132,65.1446009 86.5141509,65.1276995 C86.6179245,65.0197183 86.6490566,64.7521127 86.6433962,64.6338028 C86.6415092,64.6050385 86.6415092,64.5761822 86.6433962,64.5474178 L86.7311321,62.9370892 C86.754717,62.5061033 86.6,62.4244131 86.4575472,62.4065728 C86.2581819,62.4091489 86.0671239,62.3272123 85.9320755,62.1812207 C85.791764,62.0285521 85.7231802,61.8237668 85.7433962,61.6178404 C85.7433962,61.6178404 85.7792453,60.828169 85.8141509,59.9840376 C85.8303632,59.5809548 86.1635596,59.2625879 86.5688679,59.2629108 L86.7226415,59.2629108 L86.8518868,56.8075117 L86.7415094,56.8075117 C86.5356626,56.8076969 86.3386717,56.7241884 86.1961755,56.5763335 C86.0536793,56.4284787 85.9780439,56.2291085 85.9867925,56.0244131 C86.0132075,55.4169014 86.0358491,54.8657277 86.0575472,54.3539906 C86.1179245,52.9079812 86.1650943,51.7661972 86.2311321,50.5643192 C86.3792453,47.8413146 84.0386792,46.4985915 83.8613208,46.4 L80.2537736,44.7098592 C80.0518342,44.6158716 79.9024486,44.4372439 79.8462264,44.2225352 L77.8650943,36.7568075 C77.8049315,36.5259248 77.8585136,36.2803252 78.0094647,36.0950694 C78.1604158,35.9098136 78.3907933,35.806922 78.6301887,35.8178404 C78.8297535,35.8221842 79.029409,35.8159155 79.2283019,35.799061 C79.2233897,35.7767832 79.2170882,35.7548314 79.209434,35.7333333 C79.2007677,35.7074539 79.1935243,35.6811238 79.1877358,35.6544601 C79.1820755,35.628169 78.6103774,33.056338 78.3650943,32.1802817 C78.3433962,32.1042254 78.3,31.9802817 78.2386792,31.9652582 C78.1830189,31.9830986 78.1830189,31.9737089 78.1075472,31.9737089 L76.6433962,31.9737089 C76.3433767,31.9736297 76.0718946,31.7966862 75.9518868,31.5230047 C75.3113208,30.0610329 74.0009434,30.2319249 73.9877358,30.2338028 C73.9520898,30.2386393 73.916164,30.2411485 73.8801887,30.2413146 L69.5830189,30.2413146 C69.1698568,30.2413467 68.8334664,29.9107208 68.8283019,29.4995305 C68.7849057,26.1643192 65.890566,25.1286385 65.3745283,24.970892 L59.1264151,24.970892 C58.9190208,24.9711904 58.7206422,24.8865311 58.5778791,24.7368007 C58.435116,24.5870704 58.3605504,24.3854651 58.3716981,24.1793427 L58.490566,22.0544601 L18.1028302,22.0544601 L17.8103774,27.3877934 L16.3009434,27.3061033 L16.6311321,21.2629108 C16.6527111,20.8638957 16.9843718,20.5515351 17.3858491,20.5521127 L59.2858491,20.5521127 C59.4934164,20.5518 59.6919507,20.636587 59.8347438,20.7865265 C59.977537,20.936466 60.0519825,21.1383206 60.040566,21.3446009 L59.9254717,23.4600939 L65.4820755,23.4600939 C65.5434712,23.4600647 65.6046323,23.4676345 65.6641509,23.4826291 C66.5017514,23.7239718 67.2857407,24.1212951 67.9745283,24.6535211 C69.2773038,25.6381175 70.1147659,27.1136088 70.2896226,28.7323944 L73.8320755,28.7323944 C75.1697882,28.6228565 76.4488436,29.2997378 77.1056604,30.4647887 L78.0490566,30.4647887 C78.6264151,30.3915493 79.5103774,30.6694836 79.8188679,31.7699531 C80.0613208,32.6375587 80.5783019,34.9511737 80.6537736,35.2873239 C80.7349057,35.541784 80.8990566,36.2112676 80.5735849,36.7305164 C80.3890447,37.023571 80.0795054,37.2160382 79.7339623,37.2525822 L79.5641509,37.2713615 L81.2179245,43.4976526 L84.5283019,45.0469484 L84.5566038,45.0619718 C84.695283,45.1342723 87.9528302,46.8788732 87.7424528,50.6431925 C87.6773585,51.8356808 87.6301887,52.97277 87.5698113,54.4131455 C87.5566038,54.7286385 87.5433962,55.0591549 87.5283019,55.4093897 C88.0678938,55.635663 88.4054923,56.1759938 88.3707547,56.7577465 L88.2273585,59.3953052 C88.1961185,59.9656127 87.8321955,60.4648514 87.2971698,60.6713615 C87.2896226,60.8319249 87.2839623,60.9812207 87.2773585,61.113615 C87.4583115,61.2079006 87.6214291,61.3327622 87.759434,61.4826291 C88.0037736,61.7492958 88.2858491,62.2338028 88.2433962,63.0187793 L88.1566038,64.5915493 C88.1641509,64.8215962 88.145283,65.5934272 87.6254717,66.1492958 C87.3867925,66.4 86.9622642,66.6985915 86.2698113,66.6985915 Z" id="Shape" fill="#B4ABAB" fill-rule="nonzero"></path>
                    <rect id="Rectangle-path" fill="#B4ABAB" fill-rule="nonzero" transform="translate(16.782060, 32.399787) rotate(-86.880000) translate(-16.782060, -32.399787) " x="15.329702" y="31.7894584" width="2.90471698" height="1.22065728"></rect>
                    <rect id="Rectangle-path" fill="#B4ABAB" fill-rule="nonzero" transform="translate(16.282745, 41.539703) rotate(-86.880000) translate(-16.282745, -41.539703) " x="12.894537" y="40.9293742" width="6.77641509" height="1.22065728"></rect>
                    <path d="M20.2924528,66.6985915 L14.9839623,66.6985915 C14.7777732,66.6987994 14.580476,66.615035 14.437921,66.4667644 C14.2953659,66.3184938 14.2199667,66.1186283 14.2292453,65.913615 L14.4037736,62.0206573 L14.4981132,60.2553991 C13.9679967,60.0713182 13.6256584,59.5586868 13.6603774,59.000939 L13.8339623,55.82723 C13.8651411,55.2595116 14.2594903,54.7760876 14.8113208,54.629108 L15.1613208,48.2300469 L16.6707547,48.3117371 L16.2839623,55.3746479 C16.2623833,55.773663 15.9307225,56.0860236 15.5292453,56.085446 L15.340566,56.085446 L15.1886792,58.8253521 L15.2981132,58.8253521 C15.5055075,58.8250537 15.7038861,58.9097131 15.8466492,59.0594434 C15.9894123,59.2091737 16.0639779,59.410779 16.0528302,59.6169014 L15.9169811,62.0948357 L15.7783019,65.1934272 L20.2971698,65.1934272 L20.2924528,66.6985915 Z" id="Shape" fill="#B4ABAB" fill-rule="nonzero"></path>
                    <path d="M86.4292453,59.8807512 L83.8330189,59.8807512 C83.691597,59.8796012 83.5569947,59.8200966 83.4613208,59.7164319 C83.3243215,59.5618459 83.2562312,59.3585341 83.2726415,59.1530516 L83.395283,56.8995305 C83.4169811,56.5061033 83.6839623,56.199061 84.0028302,56.199061 L86.6037736,56.199061 L86.6037736,56.7624413 L84.0226415,56.7624413 C83.9837831,56.8095734 83.9624569,56.8686084 83.9622642,56.9295775 L83.8386792,59.1830986 C83.8345579,59.2301487 83.8430205,59.2774463 83.8632075,59.3201878 L86.4292453,59.3201878 L86.4292453,59.8807512 Z" id="Shape" fill="#B4ABAB" fill-rule="nonzero"></path>
                    <path d="M86.6235849,54.5370892 L84.759434,54.5370892 C84.5540008,54.5269696 84.3926581,54.35824 84.3926581,54.1535211 C84.3926581,53.9488022 84.5540008,53.7800727 84.759434,53.7699531 L86.6235849,53.7699531 C86.7658162,53.7629468 86.9003619,53.8344835 86.9735878,53.9560463 C87.0468136,54.0776092 87.0468136,54.229433 86.9735878,54.3509959 C86.9003619,54.4725588 86.7658162,54.5440955 86.6235849,54.5370892 Z" id="Shape" fill="#B4ABAB" fill-rule="nonzero"></path>
                    <path d="M86.7245283,52.6910798 L84.8603774,52.6910798 C84.6549442,52.6809602 84.4936015,52.5122306 84.4936015,52.3075117 C84.4936015,52.1027928 84.6549442,51.9340633 84.8603774,51.9239437 L86.7245283,51.9239437 C86.8667596,51.9169374 87.0013053,51.9884741 87.0745312,52.110037 C87.147757,52.2315998 87.147757,52.3834236 87.0745312,52.5049865 C87.0013053,52.6265494 86.8667596,52.6980861 86.7245283,52.6910798 Z" id="Shape" fill="#B4ABAB" fill-rule="nonzero"></path>
                    <path d="M71.3264151,69.6075117 C70.1383294,69.61978 68.9989291,69.1383391 68.1825657,68.2791132 C67.3662022,67.4198873 66.9468459,66.2607305 67.0254717,65.0807512 C67.1613208,62.6037559 69.295283,60.5896714 71.7839623,60.5896714 C72.972048,60.5774031 74.1114482,61.058844 74.9278117,61.9180699 C75.7441751,62.7772958 76.1635315,63.9364526 76.0849057,65.1164319 C75.9490566,67.5924883 73.8150943,69.6075117 71.3264151,69.6075117 Z M71.7839623,61.2507042 C69.640566,61.2507042 67.8018868,62.9859155 67.6849057,65.1201878 C67.6166585,66.1197705 67.9711189,67.1022742 68.6626466,67.8303187 C69.3541743,68.5583632 70.3198703,68.9657279 71.3264151,68.9539906 C73.4698113,68.9539906 75.3084906,67.2178404 75.4254717,65.084507 C75.4945921,64.0847073 75.1404251,63.1017025 74.448707,62.3734575 C73.7569889,61.6452126 72.7907739,61.2381113 71.7839623,61.2507042 Z" id="Shape" fill="#B4ABAB" fill-rule="nonzero"></path>
                    <path d="M17.8801887,59.6244131 L15.3122642,59.6244131 L15.3122642,58.857277 L17.845283,58.857277 L18.0009434,56.0056338 L15.5103774,56.0056338 L15.5103774,55.2384977 L18.0783019,55.2384977 C18.2703767,55.2376204 18.4542355,55.3159741 18.5861567,55.4549263 C18.7180779,55.5938786 18.7862742,55.7810137 18.7745283,55.971831 L18.6132075,58.9333333 C18.5916901,59.3207321 18.270009,59.6240085 17.8801887,59.6244131 Z" id="Shape" fill="#B4ABAB" fill-rule="nonzero"></path>
                    <rect id="Rectangle-path" fill="#B4ABAB" fill-rule="nonzero" transform="translate(57.869448, 44.901383) rotate(-86.880000) translate(-57.869448, -44.901383) " x="36.8048258" y="44.3849515" width="42.1292453" height="1.03286385"></rect>
                    <rect id="Rectangle-path" fill="#B4ABAB" fill-rule="nonzero" x="48.7613208" y="65.428169" width="13.4641509" height="1"></rect>
                    <rect id="Rectangle-path" fill="#B4ABAB" fill-rule="nonzero" x="58.8698113" y="29.2685446" width="10.8292453" height="1"></rect>
                    <rect id="Rectangle-path" fill="#B4ABAB" fill-rule="nonzero" transform="translate(60.965252, 47.818284) rotate(-86.880000) translate(-60.965252, -47.818284) " x="42.7473274" y="47.4347154" width="36.4358491" height="1"></rect>
                    <rect id="Rectangle-path" fill="#B4ABAB" fill-rule="nonzero" x="78.4735849" y="61.4619718" width="7.67169811" height="1"></rect>
                    <rect id="Rectangle-path" fill="#B4ABAB" fill-rule="nonzero" x="60.195283" y="61.4619718" width="4.98773585" height="1"></rect>
                    <rect id="Rectangle-path" fill="#B4ABAB" fill-rule="nonzero" x="15.3933962" y="61.4619718" width="5.53301887" height="1"></rect>
                    <rect id="Rectangle-path" fill="#B4ABAB" fill-rule="nonzero" x="34.4443396" y="61.4619718" width="22.7169811" height="1"></rect>
                    <path d="M66.8264151,44.7605634 C66.6216981,44.7605634 66.1113208,44.7230047 65.754717,44.37277 C65.506266,44.1218465 65.382546,43.7740987 65.4169811,43.4234742 L65.995283,32.8469484 C66.040566,32.029108 66.6235849,31.714554 67.004717,31.7023474 L72.004717,31.7023474 C72.7471698,31.7023474 74.2830189,32.1389671 74.7783019,33.7887324 C74.7783019,33.7887324 74.7783019,33.799061 74.7830189,33.8037559 L77.5113208,44.170892 C77.5484387,44.311569 77.5179514,44.4614249 77.4287722,44.5766483 C77.3395929,44.6918717 77.2017935,44.7594493 77.0556604,44.7596244 L66.8264151,44.7596244 L66.8264151,44.7605634 Z M66.9377358,32.8976526 L66.3584906,43.4741784 C66.35,43.6375587 66.4009434,43.6873239 66.4179245,43.7042254 C66.5226415,43.8065728 66.7716981,43.8253521 66.8462264,43.8206573 L76.4433962,43.8206573 L73.8679245,34.0507042 C73.45,32.6741784 72.0575472,32.6422535 71.9981132,32.6422535 L67.0490566,32.6422535 C66.9632075,32.6647887 66.9424528,32.8112676 66.9377358,32.8985915 L66.9377358,32.8976526 Z" id="Shape" fill="#B4ABAB" fill-rule="nonzero"></path>
                    <rect id="Rectangle-path" fill="#B4ABAB" fill-rule="nonzero" x="60.9349057" y="49.3643192" width="25.6443396" height="1"></rect>
                    <rect id="Rectangle-path" fill="#B4ABAB" fill-rule="nonzero" x="20.3933962" y="25.2046948" width="33.845283" height="1"></rect>
                    <path d="M71.1320755,73.6788732 C68.8235849,73.6788732 66.6981132,72.7821596 65.1509434,71.1549296 C63.6037736,69.5276995 62.8141509,67.3586854 62.940566,65.057277 L64.45,65.1389671 C64.3471698,67.0244131 64.9858491,68.7943662 66.25,70.1220657 C67.5141509,71.4497653 69.245283,72.1765258 71.1349057,72.1765258 C75.0783019,72.1765258 78.4603774,68.9840376 78.6754717,65.057277 L80.1849057,65.1389671 C79.9169811,69.8478873 75.8584906,73.6788732 71.1320755,73.6788732 Z" id="Shape" fill="#B4ABAB" fill-rule="nonzero"></path>
                    <path d="M79.9867925,65.1286385 L78.854717,65.0676056 C78.9603774,63.1305164 78.3028302,61.3117371 77.0037736,59.9455399 C75.704717,58.5793427 73.9235849,57.8328638 71.9820755,57.8328638 C67.9396226,57.8328638 64.4726415,61.1061033 64.2528302,65.1286385 L63.1207547,65.0676056 C63.3735849,60.457277 67.3481132,56.7061033 71.9811321,56.7061033 C74.2367925,56.7061033 76.3122642,57.5812207 77.8245283,59.170892 C79.3367925,60.7605634 80.109434,62.8798122 79.9867925,65.1286385 Z" id="Shape" fill="#B4ABAB" fill-rule="nonzero"></path>
                    <path d="M27.3,69.5671362 C26.1223439,69.5796587 24.992825,69.1026465 24.1835627,68.2510196 C23.3743003,67.3993926 22.9586659,66.2503633 23.0367925,65.0807512 C23.1707547,62.6262911 25.2867925,60.629108 27.7537736,60.629108 C28.9313391,60.617416 30.0605026,61.0948168 30.8696074,61.9464561 C31.6787121,62.7980954 32.094515,63.9468798 32.0169811,65.1164319 C31.8811321,67.570892 29.7660377,69.5671362 27.3,69.5671362 Z M27.7528302,61.286385 C25.6311321,61.286385 23.8113208,63.0046948 23.6962264,65.1164319 C23.6281859,66.10572 23.9788261,67.0782643 24.6633166,67.7987771 C25.3478072,68.5192899 26.3037958,68.9221376 27.3,68.9098592 C29.4207547,68.9098592 31.240566,67.1915493 31.3566038,65.0807512 C31.4246288,64.0913788 31.074014,63.1187488 30.3895556,62.3980914 C29.7050971,61.6774341 28.7491212,61.2743718 27.7528302,61.286385 Z" id="Shape" fill="#B4ABAB" fill-rule="nonzero"></path>
                    <path d="M27.1018868,73.6037559 C24.8141509,73.6037559 22.7084906,72.715493 21.1735849,71.1023474 C19.6386792,69.4892019 18.8566038,67.3389671 18.9820755,65.057277 L20.4915094,65.1389671 C20.3896226,67.0046948 21.0216981,68.7549296 22.2716981,70.0685446 C23.5216981,71.3821596 25.2349057,72.1014085 27.104717,72.1014085 C30.6433962,72.1014085 33.8028302,69.4723005 34.454717,65.9821596 L35.9386792,66.256338 C35.1537736,70.4450704 31.3556604,73.6037559 27.1018868,73.6037559 Z" id="Shape" fill="#B4ABAB" fill-rule="nonzero"></path>
                    <path d="M35.754717,66.2225352 L34.6415094,66.0159624 C34.7003154,65.7026621 34.7384473,65.3858655 34.7556604,65.0676056 C34.8603774,63.1502347 34.2103774,61.3502347 32.9235849,59.9971831 C31.6367925,58.6441315 29.8754717,57.9061033 27.9537736,57.9061033 C23.9537736,57.9061033 20.5216981,61.1455399 20.304717,65.1276995 L19.1726415,65.0666667 C19.4226415,60.4976526 23.3613208,56.7793427 27.9528302,56.7793427 C30.1886792,56.7793427 32.2462264,57.6469484 33.745283,59.2206573 C35.2443396,60.7943662 36.009434,62.8967136 35.8849057,65.1258216 C35.8653151,65.4938045 35.8218281,65.8601406 35.754717,66.2225352 Z" id="Shape" fill="#B4ABAB" fill-rule="nonzero"></path>
                    <path d="M76.8273585,31.9830986 L75.3632075,31.9830986 C75.2069005,31.9830986 75.0801887,31.8569816 75.0801887,31.7014085 C75.0801887,31.5458353 75.2069005,31.4197183 75.3632075,31.4197183 L76.8273585,31.4197183 C76.9836655,31.4197183 77.1103774,31.5458353 77.1103774,31.7014085 C77.1103774,31.8569816 76.9836655,31.9830986 76.8273585,31.9830986 Z" id="Shape" fill="#B4ABAB" fill-rule="nonzero"></path>
                    <path d="M78.2811321,36.4713615 C77.4754717,36.4713615 76.9273585,36.314554 76.6537736,36.0018779 C76.5471073,35.8874394 76.4834519,35.7398286 76.4735849,35.5840376 L75.9509434,33.6169014 L74.0084906,33.6169014 C73.8521836,33.6169014 73.7254717,33.4907844 73.7254717,33.3352113 C73.7254717,33.1796381 73.8521836,33.0535211 74.0084906,33.0535211 L76.1688679,33.0535211 C76.2972158,33.0534998 76.4095102,33.1394449 76.4424528,33.2629108 L77.0301887,35.4751174 C77.0384909,35.5034422 77.0416849,35.5330072 77.0396226,35.5624413 C77.0528302,35.656338 77.3028302,35.9042254 78.2811321,35.9042254 C78.4374391,35.9042254 78.5641509,36.0303423 78.5641509,36.1859155 C78.5641509,36.3414886 78.4374391,36.4676056 78.2811321,36.4676056 L78.2811321,36.4713615 Z" id="Shape" fill="#B4ABAB" fill-rule="nonzero"></path>
                    <path d="M16.859434,32.0985915 L8.81886792,32.0985915 C8.58440742,32.0985915 8.39433962,31.9094161 8.39433962,31.6760563 C8.39433962,31.4426966 8.58440742,31.2535211 8.81886792,31.2535211 L16.859434,31.2535211 C17.0938945,31.2535211 17.2839623,31.4426966 17.2839623,31.6760563 C17.2839623,31.9094161 17.0938945,32.0985915 16.859434,32.0985915 Z" id="Shape" fill="#B4ABAB" fill-rule="nonzero"></path>
                    <path d="M16.4216981,48.9333333 L5.86981132,48.9333333 C5.63535081,48.9333333 5.44528302,48.7441579 5.44528302,48.5107981 C5.44528302,48.2774384 5.63535081,48.0882629 5.86981132,48.0882629 L16.4216981,48.0882629 C16.6561586,48.0882629 16.8462264,48.2774384 16.8462264,48.5107981 C16.8462264,48.7441579 16.6561586,48.9333333 16.4216981,48.9333333 Z" id="Shape" fill="#B4ABAB" fill-rule="nonzero"></path>
                    <path d="M18.9518868,38.1380282 L3.05849057,38.1380282 C2.82403006,38.1380282 2.63396226,37.9488527 2.63396226,37.715493 C2.63396226,37.4821332 2.82403006,37.2929577 3.05849057,37.2929577 L18.9518868,37.2929577 C19.1863473,37.2929577 19.3764151,37.4821332 19.3764151,37.715493 C19.3764151,37.9488527 19.1863473,38.1380282 18.9518868,38.1380282 Z" id="Shape" fill="#B4ABAB" fill-rule="nonzero"></path>
                    <path d="M86.5292453,73.5211268 L70.6886792,73.5211268 C70.4021164,73.5211268 70.1698113,73.2899123 70.1698113,73.0046948 C70.1698113,72.7194774 70.4021164,72.4882629 70.6886792,72.4882629 L86.5292453,72.4882629 C86.8158081,72.4882629 87.0481132,72.7194774 87.0481132,73.0046948 C87.0481132,73.2899123 86.8158081,73.5211268 86.5292453,73.5211268 Z" id="Shape" fill="#B4ABAB" fill-rule="nonzero"></path>
                    <path d="M64.2245283,73.5211268 L26.859434,73.5211268 C26.5728711,73.5211268 26.340566,73.2899123 26.340566,73.0046948 C26.340566,72.7194774 26.5728711,72.4882629 26.859434,72.4882629 L64.2245283,72.4882629 C64.5110911,72.4882629 64.7433962,72.7194774 64.7433962,73.0046948 C64.7433962,73.2899123 64.5110911,73.5211268 64.2245283,73.5211268 Z" id="Shape" fill="#B4ABAB" fill-rule="nonzero"></path>
                    <path d="M20.3207547,73.5211268 L13.9773585,73.5211268 C13.6907956,73.5211268 13.4584906,73.2899123 13.4584906,73.0046948 C13.4584906,72.7194774 13.6907956,72.4882629 13.9773585,72.4882629 L20.3207547,72.4882629 C20.6073176,72.4882629 20.8396226,72.7194774 20.8396226,73.0046948 C20.8396226,73.2899123 20.6073176,73.5211268 20.3207547,73.5211268 Z" id="Shape" fill="#B4ABAB" fill-rule="nonzero"></path>
                    <path d="M29,37.8497653 C28.8842767,39.4929577 28.2811321,40.600626 27.190566,41.17277 L28.8264151,43.2112676 L26.3735849,43.2112676 L25.2028302,41.5962441 L25.2028302,41.5915493 L25.1981132,41.5859155 C24.054717,41.5859155 23.2009434,41.2669797 22.6367925,40.629108 C22.0726415,39.9912363 21.8320755,39.0616588 21.9150943,37.8403756 C22,36.6334898 22.368239,35.7120501 23.0198113,35.0760563 C23.6713836,34.4400626 24.5748428,34.1217527 25.7301887,34.1211268 C26.8886792,34.1211268 27.7449686,34.4369327 28.2990566,35.0685446 C28.8531447,35.7001565 29.0867925,36.62723 29,37.8497653 Z M23.9877358,37.8497653 C23.8883648,39.2513302 24.3286164,39.9524257 25.3084906,39.9530516 C25.8066038,39.9530516 26.1880503,39.7827856 26.4528302,39.4422535 C26.7176101,39.1017214 26.8748428,38.5696401 26.9245283,37.8460094 C26.9754717,37.1217527 26.8908805,36.5871674 26.6707547,36.2422535 C26.4506289,35.8973396 26.0984277,35.7245696 25.6141509,35.7239437 C24.6292453,35.7264476 24.0871069,36.4350548 23.9877358,37.8497653 Z" id="Shape" fill="#B4ABAB" fill-rule="nonzero"></path>
                    <path d="M36.7632075,34.2347418 L36.4556604,38.599061 C36.3889937,39.5474178 36.0672956,40.2820031 35.490566,40.8028169 C34.9138365,41.3236307 34.1172956,41.5840376 33.1009434,41.5840376 C32.1072327,41.5840376 31.3619497,41.3311424 30.8650943,40.8253521 C30.368239,40.3195618 30.1528302,39.5921753 30.2188679,38.6431925 L30.5301887,34.2347418 L32.5113208,34.2347418 L32.2122642,38.4901408 C32.1751572,39.0028169 32.245283,39.3746479 32.4226415,39.6056338 C32.6,39.8366197 32.8757862,39.9524257 33.25,39.9530516 C33.6518868,39.9530516 33.9512579,39.8381847 34.1481132,39.6084507 C34.3449686,39.3787167 34.4619497,39.0031299 34.4990566,38.4816901 L34.7981132,34.2366197 L36.7632075,34.2347418 Z" id="Shape" fill="#B4ABAB" fill-rule="nonzero"></path>
                    <polygon id="Shape" fill="#B4ABAB" fill-rule="nonzero" points="37.7811321 41.485446 38.2924528 34.2347418 40.2735849 34.2347418 39.7622642 41.485446"></polygon>
                    <path d="M44.9820755,35.7380282 C44.5326488,35.7303463 44.1086189,35.9448828 43.85,36.3107981 C43.5600629,36.6920188 43.3918239,37.2184664 43.345283,37.8901408 C43.2465409,39.285446 43.7305031,39.9827856 44.7971698,39.9821596 C45.1163921,39.9824012 45.4340304,39.9375083 45.740566,39.8488263 C46.0493711,39.7599374 46.3610063,39.6525822 46.6754717,39.5267606 L46.5566038,41.1830986 C45.894582,41.4574777 45.1830941,41.5939303 44.4660377,41.5840376 C43.3660377,41.5840376 42.5455975,41.2666667 42.004717,40.6319249 C41.4638365,39.9971831 41.2358491,39.0798122 41.3207547,37.8798122 C41.3576135,37.1863787 41.5510906,36.5101414 41.8867925,35.9014085 C42.1942535,35.348452 42.6519825,34.8928721 43.2075472,34.5868545 C43.7951133,34.2729864 44.4540497,34.1151702 45.1207547,34.1286385 C45.8907318,34.1247361 46.6510498,34.2992962 47.3415094,34.6384977 L46.6301887,36.1812207 C46.3759561,36.0581293 46.1137356,35.9521024 45.845283,35.8638498 C45.5662017,35.7760485 45.2747326,35.7335638 44.9820755,35.7380282 Z" id="Shape" fill="#B4ABAB" fill-rule="nonzero"></path>
                    <path d="M54.1783019,41.485446 L51.9566038,41.485446 L50.7113208,38.7126761 L50.104717,39.0600939 L49.9339623,41.485446 L47.9528302,41.485446 L48.4632075,34.2347418 L50.4443396,34.2347418 L50.2226415,37.3840376 C50.4262507,37.0616596 50.6493011,36.7518586 50.890566,36.456338 L52.5773585,34.2347418 L54.7292453,34.2347418 L52.2037736,37.4835681 L54.1783019,41.485446 Z" id="Shape" fill="#B4ABAB" fill-rule="nonzero"></path>
                    <path d="M31.8254717,51.6197183 C31.800393,52.0515672 31.6517859,52.4672774 31.3971698,52.8178404 C31.1282418,53.178369 30.7659741,53.459423 30.3490566,53.6309859 C29.8611689,53.8325273 29.3366314,53.9313156 28.8084906,53.9211268 C28.4016898,53.9280441 27.9952266,53.894069 27.595283,53.8197183 C27.2478517,53.7431258 26.9113164,53.6239044 26.5933962,53.4647887 L26.7169811,51.7192488 C27.0785528,51.910619 27.4604839,52.0611624 27.8556604,52.1680751 C28.2158241,52.2698219 28.5879052,52.3238093 28.9622642,52.3286385 C29.254717,52.3286385 29.4726415,52.2788732 29.6160377,52.1774648 C29.7507928,52.0918291 29.8365995,51.947514 29.8471698,51.7887324 C29.856418,51.6974038 29.8341237,51.6056647 29.7839623,51.5286385 C29.716847,51.4378515 29.6325655,51.3609827 29.5358491,51.3023474 C29.231922,51.1298901 28.9192406,50.9731865 28.5990566,50.8328638 C28.2294798,50.6738251 27.8845143,50.4632649 27.5745283,50.2075117 C27.3598455,50.0189873 27.1952295,49.7806407 27.095283,49.513615 C26.9947619,49.2152478 26.9584406,48.8991678 26.9886792,48.5859155 C27.0358491,47.9179969 27.3166667,47.3974961 27.8311321,47.0244131 C28.3455975,46.6513302 29.0298742,46.4635368 29.8839623,46.4610329 C30.6696583,46.4682251 31.444302,46.6460758 32.1537736,46.9821596 L31.4443396,48.4938967 C30.7858491,48.1809077 30.208805,48.0244131 29.7132075,48.0244131 C29.4578616,48.0244131 29.2691824,48.0688576 29.1471698,48.1577465 C29.0239892,48.2351581 28.9492918,48.3700274 28.9492918,48.5150235 C28.9492918,48.6600196 29.0239892,48.7948889 29.1471698,48.8723005 C29.2867925,48.9849765 29.6732704,49.1899844 30.3066038,49.4873239 C30.9154088,49.7683881 31.3301887,50.0701095 31.5509434,50.3924883 C31.7716981,50.714867 31.8632075,51.1239437 31.8254717,51.6197183 Z" id="Shape" fill="#B4ABAB" fill-rule="nonzero"></path>
                    <polygon id="Shape" fill="#B4ABAB" fill-rule="nonzero" points="39.0396226 53.8215962 37.0584906 53.8215962 37.2669811 50.8657277 34.9830189 50.8657277 34.7745283 53.8215962 32.7933962 53.8215962 33.3075472 46.57277 35.2886792 46.57277 35.1 49.2600939 37.3867925 49.2600939 37.5754717 46.57277 39.5566038 46.57277"></polygon>
                    <polygon id="Shape" fill="#B4ABAB" fill-rule="nonzero" points="40.6141509 53.8215962 41.1245283 46.57277 43.1056604 46.57277 42.5943396 53.8225352"></polygon>
                    <path d="M49.8009434,48.8779343 C49.7430818,49.6873239 49.4600629,50.313302 48.9518868,50.7558685 C48.4437107,51.1984351 47.7462264,51.4190923 46.859434,51.4178404 L46.3066038,51.4178404 L46.1320755,53.8215962 L44.1660377,53.8215962 L44.6773585,46.57277 L47.1981132,46.57277 C48.1176101,46.57277 48.7943396,46.77277 49.2283019,47.17277 C49.6622642,47.57277 49.8531447,48.1411581 49.8009434,48.8779343 Z M46.4160377,49.8169014 L46.7754717,49.8169014 C47.0389457,49.8285512 47.2969919,49.7399181 47.4971698,49.5690141 C47.6892218,49.3918992 47.801164,49.1450215 47.8075472,48.884507 C47.8415094,48.3956182 47.5861635,48.1511737 47.0415094,48.1511737 L46.5339623,48.1511737 L46.4160377,49.8169014 Z" id="Shape" fill="#B4ABAB" fill-rule="nonzero"></path>
                </g>
            </g>
        </g>
    </g>
</svg>