<?xml version="1.0" encoding="UTF-8"?>
<svg width="45px" height="45px" viewBox="0 0 45 45" version="1.1" xmlns="http://www.w3.org/2000/svg" xmlns:xlink="http://www.w3.org/1999/xlink">
    <!-- Generator: sketchtool 51.3 (57544) - http://www.bohemiancoding.com/sketch -->
    <title>773CD68F-9B16-4991-9924-2DD21C2ECF15</title>
    <desc>Created with sketchtool.</desc>
    <defs></defs>
    <g id="Page-1" stroke="none" stroke-width="1" fill="none" fill-rule="evenodd">
        <g id="Product" transform="translate(-116.000000, -1877.000000)" fill="#C6BEBE">
            <g id="Group-7" transform="translate(113.000000, 1568.000000)">
                <g id="Group" transform="translate(3.000000, 306.000000)">
                    <g id="stainwarning_icon" transform="translate(0.000000, 3.000000)">
                        <path d="M25.0498125,23.0530781 C26.5504219,21.4509375 28.4799375,20.228625 30.3020156,18.9572344 C31.5679219,18.0738281 32.9758594,17.3944688 34.3205156,16.6239844 C34.4257031,16.7549063 34.53075,16.8861094 34.6357969,17.0170313 C34.3577813,17.0721563 34.0799063,17.1271406 33.8018906,17.182125 L34.0343437,17.443125 C36.5225625,16.4297813 39.0637969,15.6292031 41.6673281,15.1021406 L41.6673281,8.9443125 C37.4932969,10.0843594 33.3711562,11.4263438 29.2327031,12.6987188 C25.9689375,13.7022188 22.7258437,14.7726563 19.4734688,15.8131406 C20.2822031,15.8004844 21.0964219,15.7580156 21.8527031,15.5265469 C25.4865937,14.4137813 29.1015,13.239 32.7300469,12.1085156 C35.1066094,11.3679844 37.4947031,10.6652813 39.8775938,9.94570313 C39.7659375,10.2141563 39.5962031,10.3109063 39.4167656,10.3840313 C34.2767812,12.4770937 29.145375,14.5915313 23.9921719,16.6519688 C22.0346719,17.4348281 20.0605781,18.1645313 18.0608906,18.8050781 L18.0608906,20.8213594 C22.8974062,18.5511094 27.7903125,16.3996875 32.6747813,14.232375 C34.0070625,13.6411875 35.3908125,13.1660156 36.7510781,12.6376875 C36.51075,13.0507031 36.18225,13.2522188 35.8382813,13.4222344 C34.2732656,14.1958125 32.6691563,14.8973906 31.1425312,15.7400156 C26.7720469,18.1517344 22.4320781,20.6188594 18.0608906,23.02875 L18.0608906,26.9391094 L22.0014844,26.9391094 C22.8286406,25.5182344 23.9235469,24.2554219 25.0498125,23.0530781 Z M34.1150625,8.80776563 C36.6201563,8.16384375 39.1315781,7.50304688 41.6673281,7.01648438 L41.6673281,4.086 C38.6962031,4.24589062 35.7260625,4.43446875 32.7556406,4.60814063 C29.9310469,4.773375 27.1094063,4.9921875 24.2846719,5.151375 C22.2101719,5.26823438 20.1358125,5.40717188 18.0608906,5.52515625 L18.0608906,12.6320625 C18.8472656,12.4988906 19.6311094,12.3539063 20.410875,12.1900781 C25.0128281,11.2234219 29.5576875,9.97903125 34.1150625,8.80776563 Z M34.4647969,4.01371875 C36.8656875,3.83414062 39.2661562,3.65695312 41.6673281,3.50339063 L41.6673281,3.33267188 L18.0608906,3.33267188 L18.0608906,4.09148438 C20.3449219,4.27078125 22.62825,4.49873437 24.9121406,4.49901563 C28.0965938,4.4994375 31.2852656,4.25165625 34.4647969,4.01371875 Z M40.6469531,25.9381406 C40.987125,25.8179063 41.3272969,25.6976719 41.6673281,25.5774375 L41.6673281,25.1017031 C41.2924219,25.2732656 40.92075,25.4546719 40.5521719,25.6452187 C40.5838125,25.7428125 40.6153125,25.8405469 40.6469531,25.9381406 Z M32.5444219,26.9391094 L35.3480625,26.9391094 C37.3833281,25.8454687 39.4898906,24.926625 41.6673281,24.1810312 L41.6673281,23.0383125 C38.5133906,23.9009062 35.5071094,25.2188438 32.6316094,26.8880625 C32.6025,26.9050781 32.5735312,26.9222344 32.5444219,26.9391094 Z M24.6467812,24.8371875 C24.1410937,25.4860312 23.6595937,26.1586406 23.2687969,26.9391094 L29.9943281,26.9391094 C33.7460625,24.8966719 37.6139531,23.2117031 41.6673281,22.1229844 L41.6673281,16.9365937 C36.4155469,17.922375 31.6974375,20.2366406 27.5235469,23.630625 C27.0362813,24.0269062 26.5328437,24.4037812 26.0575312,24.8135625 C25.5955781,25.2119531 25.1600625,25.641 24.712875,26.0565469 C27.9413438,21.8376562 32.3215313,19.3002187 37.2162656,17.6125781 C38.68425,17.1063281 40.1688281,16.6897969 41.6673281,16.3515937 L41.6673281,15.5885625 C39.3900469,16.1296875 37.132875,16.786125 34.9216875,17.5452187 C30.8072813,18.957375 27.3373594,21.3838594 24.6467812,24.8371875 Z M16.4155781,28.5844219 L43.3125,28.5844219 L43.3125,1.6875 L16.4155781,1.6875 L16.4155781,28.5844219 Z M45,30.2717813 L30.0152813,30.2717813 L30.0152813,32.2398281 L28.3277813,32.2398281 L28.3277813,30.2717813 L16.5016406,30.2717813 C15.5456719,30.7274063 14.5937813,31.1899219 13.6681875,31.7006719 C10.2176719,33.6050156 6.78473438,35.5415625 3.34335938,37.4622188 L3.34335938,35.4317344 C7.17454688,33.6809531 11.0292188,31.9798125 14.8800938,30.2717813 L14.7282188,30.2717813 L14.7282188,29.1370781 C11.8122188,30.3267656 8.89509375,31.5133594 5.97107813,32.6826563 C5.09835938,33.0315469 4.22254688,33.3698906 3.34335938,33.6967031 L3.34335938,31.5586406 C3.45234375,31.5324844 3.560625,31.5036563 3.66778125,31.4708906 C7.36298438,30.3395625 11.0400469,29.1497344 14.7282188,27.9954844 L14.7282188,27.4599844 C13.6898438,27.7838438 12.6516094,28.1072813 11.61225,28.4267813 C8.8475625,29.2768594 6.096375,30.1712344 3.34335938,31.0597031 L3.34335938,27.6121406 C7.15935938,26.7728906 10.9432969,25.7765625 14.7282188,24.7926094 L14.7282188,19.7595 C11.9134688,19.9314844 9.10110938,20.1434063 6.28565625,20.3021719 C5.3049375,20.3574375 4.32407813,20.4173438 3.34335938,20.4779531 L3.34335938,19.4571563 C4.54921875,19.540125 5.75507813,19.59975 6.96107813,19.5998906 C9.5495625,19.6001719 12.1407188,19.4480156 14.7282188,19.2632344 L14.7282188,16.5369375 L12.6250313,16.5369375 L12.6250313,14.8494375 L14.7282188,14.8494375 L14.7282188,0 L45,0 L45,30.2717813 Z M28.3277813,39.3880781 L30.0152813,39.3880781 L30.0152813,34.6225781 L28.3277813,34.6225781 L28.3277813,39.3880781 Z M5.4765,16.5369375 L10.2421406,16.5369375 L10.2421406,14.8494375 L5.4765,14.8494375 L5.4765,16.5369375 Z M0,17.9431875 L1.6875,17.9431875 L1.6875,16.5369375 L3.09375,16.5369375 L3.09375,14.8494375 L0,14.8494375 L0,17.9431875 Z M7.80567188,41.5213594 L8.13473438,41.5213594 C8.15470313,41.5039219 8.17425,41.4857813 8.19435938,41.4684844 C8.70595313,41.0273438 9.24792188,40.6216406 9.7723125,40.195125 C14.3931094,36.4379063 19.6327969,33.9093281 25.480125,32.90175 C25.8771094,32.8332656 26.274375,32.7677344 26.6720625,32.7044531 L26.6720625,32.0139844 C24.489,32.4250313 22.3316719,32.983875 20.2066875,33.7165313 C15.4548281,35.3549531 11.1535313,37.738125 7.80567188,41.5213594 Z M16.5311719,33.2531719 C16.8304219,33.1939688 17.1296719,33.1347656 17.4289219,33.0755625 C17.3157187,32.9345156 17.2025156,32.7933281 17.0894531,32.6522813 C15.642,33.4818281 14.1260625,34.2130781 12.7634062,35.1639844 C10.8019688,36.5326875 8.72479688,37.8485156 7.10957813,39.5732813 C6.51951562,40.2032813 5.93775,40.8486094 5.39282812,41.5213594 L6.654375,41.5213594 C6.66140625,41.5122188 6.6684375,41.5029375 6.67560938,41.4937969 C9.57192188,37.776375 13.3074844,35.1644063 17.7364688,33.6439688 C20.6407969,32.6470781 23.6179688,31.8114844 26.6194687,31.1695313 C26.6369062,31.165875 26.6544844,31.1630625 26.6720625,31.1595469 L26.6720625,30.7125 C23.2817344,31.2489844 19.9905469,32.2271719 16.7812031,33.5341406 L16.5311719,33.2531719 Z M19.5262031,41.5213594 C21.8296406,40.4956406 24.2094375,39.6894375 26.6720625,39.1431094 L26.6720625,38.1555 C23.3019844,38.9220469 20.0543906,40.0827656 16.8951094,41.5213594 L19.5262031,41.5213594 Z M25.5819375,41.5213594 C25.9419375,41.3685 26.3051719,41.2259062 26.6720625,41.0944219 L26.6720625,40.2485625 C25.4297813,40.6216406 24.2090156,41.0468906 23.0082188,41.5213594 L25.5819375,41.5213594 Z M28.3277813,43.1770781 L26.9215313,43.1770781 L26.9215313,44.8645781 L30.0152813,44.8645781 L30.0152813,41.7708281 L28.3277813,41.7708281 L28.3277813,43.1770781 Z M5.47664062,44.8645781 L10.2422813,44.8645781 L10.2422813,43.1770781 L5.47664062,43.1770781 L5.47664062,44.8645781 Z M12.6250313,44.8645781 L17.3905313,44.8645781 L17.3905313,43.1770781 L12.6250313,43.1770781 L12.6250313,44.8645781 Z M19.7732813,44.8645781 L24.5389219,44.8645781 L24.5389219,43.1770781 L19.7732813,43.1770781 L19.7732813,44.8645781 Z M1.6875,41.7708281 L0,41.7708281 L0,44.8645781 L3.09375,44.8645781 L3.09375,43.1770781 L1.6875,43.1770781 L1.6875,41.7708281 Z M0,25.0914375 L1.6875,25.0914375 L1.6875,20.3259375 L0,20.3259375 L0,25.0914375 Z M0,39.3882188 L1.6875,39.3882188 L1.6875,34.6225781 L0,34.6225781 L0,39.3882188 Z M0,32.2398281 L1.6875,32.2398281 L1.6875,27.4741875 L0,27.4741875 L0,32.2398281 Z" id="Fill-1"></path>
                    </g>
                </g>
            </g>
        </g>
    </g>
</svg>