<?xml version="1.0" encoding="UTF-8"?>
<svg width="309px" height="92px" viewBox="0 0 309 92" version="1.1" xmlns="http://www.w3.org/2000/svg" xmlns:xlink="http://www.w3.org/1999/xlink">
    <!-- Generator: sketchtool 50.2 (55047) - http://www.bohemiancoding.com/sketch -->
    <title>4D72264C-18B6-42A3-9798-1950B10BDFE8</title>
    <desc>Created with sketchtool.</desc>
    <defs>
        <polygon id="path-1" points="0.796238627 0.294733501 267.799823 0.294733501 267.799823 91.57277 0.796238627 91.57277"></polygon>
        <polygon id="path-3" points="0 0.975380818 22.412579 0.975380818 22.412579 19.6227364 0 19.6227364"></polygon>
    </defs>
    <g id="Page-1" stroke="none" stroke-width="1" fill="none" fill-rule="evenodd">
        <g id="ZIPcode_popup" transform="translate(-526.000000, -503.000000)">
            <g id="Group" transform="translate(459.000000, 112.000000)">
                <g id="van2" transform="translate(67.000000, 390.000000)">
                    <g id="Group">
                        <g id="Group-3" transform="translate(41.111588, 1.018812)">
                            <mask id="mask-2" fill="white">
                                <use xlink:href="#path-1"></use>
                            </mask>
                            <g id="Clip-2"></g>
                            <path d="M267.781522,78.3932244 C267.781522,76.5748509 266.814736,75.5688586 265.820101,75.1371584 L265.820101,74.8611319 C266.735166,74.5602499 267.398256,73.6968495 267.398256,72.6908572 L267.398256,68.5962462 C267.398256,67.5483921 266.69538,66.6588281 265.712681,66.3841098 C265.672895,62.4595625 265.634436,58.4578324 265.634436,55.7485866 C265.634436,48.9983653 257.039462,45.9777721 256.642934,45.8456456 L247.174007,42.929707 L240.834865,23.7909981 L242.93023,23.7909981 C243.606582,25.8958636 244.772294,29.5600826 244.866453,29.90021 C245.130363,30.7884659 246.033492,31.1809206 246.761565,31.2463297 C246.855724,31.2463297 248.831732,31.3784562 250.038556,31.2332479 C250.622076,31.1678388 251.098174,30.868265 251.377998,30.3973193 C251.934994,29.4685098 251.497355,28.2375102 251.403196,28.0020373 C251.338213,27.80581 250.06508,23.2140896 249.508084,21.567088 C248.844994,19.6296698 247.306625,19.330096 246.471131,19.4347506 L238.461003,19.4347506 C236.72238,16.6090766 233.884355,16.1237409 232.493191,16.2938046 L226.27208,16.2938046 C225.927273,14.1353036 225.026797,12.4621383 223.566672,11.2834659 C221.033668,9.26886496 217.746067,9.53050144 217.14796,9.59591056 L201.737745,9.59591056 L201.737745,0.294733501 L62.8203631,0.294733501 L62.8203631,63.6382348 C61.8787751,63.833154 61.1626378,64.671699 61.1626378,65.6659176 L61.1626378,70.7285836 C61.1626378,71.7214941 61.8787751,72.545649 62.8203631,72.7549582 L62.8203631,75.9613133 L50.5531957,84.2944354 L50.5531957,69.5629931 L33.7107064,69.5629931 L33.7107064,59.6208066 L0.796238627,59.6208066 L0.796238627,91.5731624 L75.3434833,91.5731624 L83.191818,86.4660182 C83.9503931,88.4361409 85.2222,90.1747154 86.8414661,91.5731624 L106.541874,91.5731624 C108.618672,89.7691788 110.110625,87.4013686 110.696797,84.7117456 L118.506672,84.7117456 C119.092844,87.4013686 120.584797,89.7691788 122.660269,91.5731624 L142.397809,91.5731624 C144.474608,89.7691788 145.963908,87.4013686 146.542123,84.7117456 L186.063621,84.7117456 C186.648466,87.4013686 188.140419,89.7691788 190.217217,91.5731624 L209.945475,91.5731624 C212.020947,89.7691788 213.5129,87.4013686 214.099071,84.7117456 L218.0365,84.7117456 C218.622672,87.4013686 220.114625,89.7691788 222.191423,91.5731624 L241.918355,91.5731624 C243.995153,89.7691788 245.487106,87.4013686 246.073277,84.7117456 L264.745895,84.7117456 C265.926196,84.7117456 266.629071,84.2015544 267.012337,83.782936 C267.874355,82.8148811 267.821307,81.4556795 267.781522,81.0893884 L267.781522,78.3932244 Z" id="Fill-1" fill="#FFFFFF" mask="url(#mask-2)"></path>
                        </g>
                        <g id="Group-6" transform="translate(0.000000, 72.968846)">
                            <mask id="mask-4" fill="white">
                                <use xlink:href="#path-3"></use>
                            </mask>
                            <g id="Clip-5"></g>
                            <polygon id="Fill-4" fill="#FFFFFF" mask="url(#mask-4)" points="6.76365193 0.975380818 6.76365193 1.35475372 -0.00119356223 1.35475372 -0.00119356223 19.6235213 22.412579 19.6235213 22.412579 1.35475372 7.57262189 1.35475372 7.57262189 0.975380818"></polygon>
                        </g>
                        <path d="M158.916976,33.5144564 C159.386444,33.7015265 159.84265,33.9657794 160.288246,34.3059068 C160.399645,34.4053287 160.50574,34.4550396 160.60653,34.4550396 C160.829328,34.4550396 160.975208,34.1240695 161.042843,33.4647455 L161.427435,33.4647455 C161.381019,34.2457304 161.3598,35.6206301 161.3598,37.5894447 L160.975208,37.5894447 C160.896963,36.7090379 160.752409,36.0170094 160.540221,35.5107428 C160.326706,35.0057844 159.959354,34.5806251 159.436839,34.2404977 C158.911671,33.9108357 158.391809,33.7446965 157.879903,33.7446965 C156.720821,33.7446965 155.905221,34.2954413 155.437079,35.3943146 C154.968937,36.494496 154.73553,37.8092193 154.73553,39.3384846 C154.73553,40.8677499 154.968937,42.1824732 155.437079,43.2826546 C155.905221,44.3841442 156.720821,44.9335809 157.879903,44.9335809 C158.391809,44.9335809 158.911671,44.7687499 159.436839,44.4390879 C159.959354,44.1185832 160.326706,43.6894994 160.540221,43.1505282 C160.752409,42.611557 160.896963,41.8475785 160.975208,40.8572844 L161.3598,40.8572844 C161.3598,42.9150554 161.381019,44.3448988 161.427435,45.1481228 L161.042843,45.1481228 C161.008362,44.7962217 160.96062,44.5463589 160.899615,44.3959179 C160.837285,44.2480933 160.752409,44.1735269 160.64101,44.1735269 C160.55083,44.1735269 160.434126,44.2180051 160.288246,44.3056533 C159.78695,44.6588625 159.306873,44.9257318 158.849341,45.1062609 C158.391809,45.2880983 157.840118,45.3783629 157.194268,45.3783629 C155.93307,45.3783629 154.829688,45.14289 153.88147,44.6680198 C152.933251,44.195766 152.198547,43.5115866 151.673379,42.6141734 C151.149538,41.7180684 150.886955,40.6479752 150.886955,39.4052019 C150.886955,38.1951332 151.154843,37.1224236 151.69062,36.1870731 C152.22507,35.2517227 152.973036,34.5256815 153.931864,34.0089494 C154.890693,33.4909092 155.983465,33.2331972 157.211508,33.2331972 C157.879903,33.2331972 158.447508,33.3260782 158.916976,33.5144564" id="Fill-7" fill="#D5CFCF"></path>
                        <path d="M167.096723,43.6618967 L167.096723,40.1808233 C166.99726,40.3456543 166.811594,40.5601962 166.545032,40.824449 C166.242663,41.110941 166.015886,41.3882757 165.858071,41.6577612 C165.702908,41.9272468 165.624663,42.2922297 165.624663,42.7553263 C165.624663,43.5467767 165.908466,43.9431559 166.477397,43.9431559 C166.712131,43.9431559 166.917689,43.850275 167.096723,43.6618967 M163.191122,44.6940526 C162.827749,44.3146797 162.647388,43.8385013 162.647388,43.2655174 C162.647388,42.7710245 162.777354,42.3615634 163.039938,42.0371341 C163.302521,41.7127049 163.611521,41.4615339 163.96959,41.2862374 C164.325006,41.110941 164.78917,40.9291036 165.356775,40.7420335 C165.960187,40.5431898 166.400479,40.3626606 166.678976,40.1978296 C166.957474,40.0329987 167.096723,39.8014504 167.096723,39.5031848 L167.096723,38.0354041 C167.096723,37.683503 167.007869,37.3695392 166.828835,37.0948209 C166.651127,36.8201026 166.344779,36.6827435 165.908466,36.6827435 C165.563659,36.6827435 165.25068,36.7756244 164.972182,36.9626945 C165.35147,37.0948209 165.63262,37.2910483 165.816959,37.5487602 C166.001298,37.8064722 166.092805,38.0955805 166.092805,38.414777 C166.092805,38.8438608 165.940294,39.1879128 165.63262,39.4456247 C165.326273,39.7059531 164.956268,39.8341549 164.521281,39.8341549 C164.084968,39.8341549 163.742813,39.6994121 163.490839,39.4299266 C163.241517,39.160441 163.11553,38.816389 163.11553,38.3990788 C163.11553,38.0694168 163.199079,37.7829249 163.366178,37.539603 C163.533277,37.2988974 163.795861,37.0791227 164.152603,36.880279 C164.777234,36.5283779 165.669753,36.3517733 166.828835,36.3517733 C167.442856,36.3517733 167.972002,36.4093333 168.418925,36.5257616 C168.864521,36.6408816 169.243809,36.8580399 169.555461,37.1772364 C169.77826,37.4087847 169.926792,37.6965848 169.998406,38.0432532 C170.071345,38.3912297 170.108479,38.8713327 170.108479,39.4874866 L170.108479,43.9091432 C170.108479,44.1851697 170.127045,44.3722398 170.165504,44.4703535 C170.20529,44.5697753 170.274251,44.6194863 170.376367,44.6194863 C170.453285,44.6194863 170.538161,44.5946308 170.627015,44.546228 C170.715869,44.4965171 170.799418,44.4389571 170.877663,44.3722398 L171.044762,44.6521908 C170.564685,45.0590355 169.880376,45.263112 168.987856,45.263112 C168.318135,45.263112 167.848667,45.1506083 167.582105,44.9256009 C167.314217,44.6992854 167.169663,44.3944789 167.147118,44.0098732 C166.623277,44.8444936 165.842157,45.263112 164.803758,45.263112 C164.090273,45.263112 163.55317,45.0734256 163.191122,44.6940526" id="Fill-9" fill="#D5CFCF"></path>
                        <path d="M177.552063,40.8742908 C177.552063,39.520322 177.4526,38.5718897 177.25102,38.0263776 C177.050767,37.4821737 176.777574,37.2100718 176.431441,37.2100718 C176.107853,37.2100718 175.826703,37.3225755 175.58799,37.548891 C175.346625,37.7738984 175.227269,38.057774 175.227269,38.3979014 L175.227269,44.8498572 C175.483222,44.9832918 175.745806,45.0473927 176.013694,45.0473927 C177.038831,45.0473927 177.552063,43.6567948 177.552063,40.8742908 M179.878183,37.4089155 C180.412634,38.1127177 180.680522,39.1409491 180.680522,40.4936097 C180.680522,42.2439578 180.32378,43.4945802 179.610295,44.2480933 C178.89681,45.0016063 177.953896,45.3783629 176.782879,45.3783629 C176.42481,45.3783629 176.127745,45.3678974 175.887707,45.3456583 C175.647668,45.3234192 175.427522,45.2684756 175.227269,45.1808273 C174.814827,45.0159963 174.385145,44.9335809 173.938222,44.9335809 C173.604024,44.9335809 173.292372,44.9780591 173.001939,45.0643991 C172.712831,45.1533555 172.490033,45.2684756 172.332218,45.4123756 L172.09881,45.2475446 C172.175728,45.0159963 172.21684,44.7138062 172.21684,44.3383578 L172.21684,34.2234913 C172.21684,33.7172247 172.146552,33.3483173 172.005977,33.1180772 C171.868055,32.8878371 171.624037,32.7714088 171.27923,32.7714088 L171.27923,32.4247405 C171.624037,32.457445 171.97017,32.4744514 172.316303,32.4744514 C173.476711,32.4744514 174.446149,32.3985768 175.227269,32.2429031 L175.227269,37.5894447 C175.740501,36.7639816 176.586604,36.3519041 177.769557,36.3519041 C178.639531,36.3519041 179.342406,36.7038052 179.878183,37.4089155" id="Fill-11" fill="#D5CFCF"></path>
                        <path d="M185.255314,32.6061854 C185.573597,32.8495073 185.732739,33.2001002 185.732739,33.6631968 C185.732739,34.123677 185.573597,34.4768863 185.255314,34.7189 C184.938357,34.9609137 184.488782,35.0825747 183.909241,35.0825747 C183.317764,35.0825747 182.865537,34.9609137 182.553885,34.7189 C182.242232,34.4768863 182.085743,34.123677 182.085743,33.6631968 C182.085743,33.2001002 182.242232,32.8495073 182.553885,32.6061854 C182.865537,32.3641716 183.317764,32.2438188 183.909241,32.2438188 C184.488782,32.2438188 184.938357,32.3641716 185.255314,32.6061854 Z M185.515245,43.6132323 C185.515245,44.0645553 185.584206,44.3745945 185.724782,44.5459664 C185.86403,44.7160301 186.106721,44.801062 186.451528,44.801062 L186.451528,45.1477303 C185.247357,45.1045603 184.454301,45.081013 184.076339,45.081013 C183.697052,45.081013 182.860232,45.1045603 181.567206,45.1477303 L181.567206,44.801062 C181.912013,44.801062 182.154704,44.7160301 182.295279,44.5459664 C182.434528,44.3745945 182.504816,44.0645553 182.504816,43.6132323 L182.504816,38.3818108 C182.504816,37.8755442 182.434528,37.5066368 182.295279,37.2763966 C182.154704,37.0461565 181.912013,36.9297283 181.567206,36.9297283 L181.567206,36.58306 C181.923949,36.6157645 182.270082,36.6327709 182.604279,36.6327709 C183.764687,36.6327709 184.734125,36.5568963 185.515245,36.4012226 L185.515245,43.6132323 Z" id="Fill-13" fill="#D5CFCF"></path>
                        <path d="M195.586391,37.0124054 C195.753489,37.209941 195.876824,37.4768102 195.953742,37.8117049 C196.031987,38.1479078 196.071773,38.5913816 196.071773,39.1408182 L196.071773,43.613494 C196.071773,44.0648169 196.140734,44.3748561 196.279983,44.546228 C196.420558,44.7162918 196.663249,44.8013236 197.008056,44.8013236 L197.008056,45.147992 C195.803884,45.1048219 195.022764,45.0812746 194.667348,45.0812746 C194.28806,45.0812746 193.495004,45.1048219 192.290833,45.147992 L192.290833,44.8013236 C192.57994,44.8013236 192.781519,44.7162918 192.892918,44.546228 C193.004318,44.3748561 193.061343,44.0648169 193.061343,43.613494 L193.061343,38.249946 C193.061343,37.8980449 192.996361,37.6377166 192.867721,37.4663447 C192.740408,37.296281 192.529545,37.209941 192.241764,37.209941 C191.91685,37.209941 191.6357,37.3224447 191.395661,37.5487602 C191.155622,37.7737676 191.036266,38.0576432 191.036266,38.3990788 L191.036266,43.613494 C191.036266,44.0648169 191.091966,44.3748561 191.203365,44.546228 C191.314764,44.7162918 191.516343,44.8013236 191.805451,44.8013236 L191.805451,45.147992 C190.691459,45.1048219 189.954103,45.0812746 189.597361,45.0812746 C189.218073,45.0812746 188.381253,45.1048219 187.088227,45.147992 L187.088227,44.8013236 C187.434361,44.8013236 187.675725,44.7162918 187.8163,44.546228 C187.955549,44.3748561 188.025837,44.0648169 188.025837,43.613494 L188.025837,38.3820724 C188.025837,37.8758058 187.955549,37.5068984 187.8163,37.2766583 C187.675725,37.04511 187.434361,36.9299899 187.088227,36.9299899 L187.088227,36.5833216 C187.44497,36.6160262 187.791103,36.6330325 188.1253,36.6330325 C189.285708,36.6330325 190.255146,36.5558498 191.036266,36.4014842 L191.036266,37.5893139 C191.537562,36.765159 192.424777,36.3517733 193.695258,36.3517733 C194.587777,36.3517733 195.219039,36.5728561 195.586391,37.0124054" id="Fill-15" fill="#D5CFCF"></path>
                        <path d="M205.388985,32.4081266 C205.802753,32.5180139 206.197955,32.6828449 206.577242,32.9039277 C206.777495,33.0255887 206.953877,33.1995769 207.103736,33.4311252 C207.25492,33.6626735 207.330512,33.9046873 207.330512,34.1571665 C207.330512,35.0925169 206.693946,35.559538 205.422139,35.559538 C204.798834,35.559538 204.324062,35.4418016 204.000474,35.2063288 C203.676886,34.9682396 203.516418,34.6307285 203.516418,34.189871 C203.516418,33.8392781 203.643731,33.5383962 203.90101,33.2911497 C204.156963,33.042595 204.520336,32.8659904 204.987152,32.7547949 C204.898298,32.7103167 204.759049,32.669763 204.569405,32.6318258 C204.379761,32.5925803 204.191444,32.5729575 204.000474,32.5729575 C203.107955,32.5729575 202.444864,32.9693368 202.009877,33.7607872 C201.842779,34.0472791 201.724748,34.397872 201.658439,34.8099495 C201.59213,35.2207188 201.55765,35.8185581 201.55765,36.5995431 L203.081431,36.5995431 C204.118504,36.5995431 204.926148,36.5851531 205.507015,36.5589894 C206.085229,36.5302094 206.648856,36.4778821 207.195242,36.4020075 L207.195242,43.6127091 C207.195242,44.064032 207.277465,44.3740712 207.439259,44.5454431 C207.599727,44.7155068 207.887508,44.8018469 208.29995,44.8018469 L208.29995,45.147207 C207.006924,45.104037 206.1648,45.0817979 205.773577,45.0817979 C205.38368,45.0817979 204.541555,45.104037 203.24853,45.147207 L203.24853,44.8018469 C203.593336,44.8018469 203.836027,44.7155068 203.976603,44.5454431 C204.114525,44.3740712 204.184813,44.064032 204.184813,43.6127091 L204.184813,38.3812875 C204.184813,37.8763291 204.103916,37.5061135 203.942122,37.2771816 C203.780328,37.0456333 203.492547,36.929205 203.081431,36.929205 L201.55765,36.929205 L201.55765,43.6127091 C201.55765,44.064032 201.661092,44.3740712 201.867976,44.5454431 C202.07486,44.7155068 202.39447,44.8018469 202.829457,44.8018469 L202.829457,45.147207 L202.377229,45.1315089 C201.207538,45.0974961 200.459573,45.0817979 200.135985,45.0817979 C199.758023,45.0817979 198.982208,45.0974961 197.811191,45.1315089 C197.722336,45.1419743 197.599002,45.147207 197.443839,45.147207 L197.443839,44.8018469 C197.854955,44.8018469 198.142736,44.7155068 198.30453,44.5454431 C198.466324,44.3740712 198.547221,44.064032 198.547221,43.6127091 L198.547221,36.929205 L197.376203,36.929205 L197.376203,36.5995431 L198.547221,36.5995431 C198.547221,35.3240652 199.015362,34.2513556 199.951645,33.3814143 C200.365414,32.9968087 200.899864,32.7103167 201.55765,32.5245548 C202.215435,32.3361765 202.902397,32.2432956 203.615882,32.2432956 C204.385066,32.2432956 204.976542,32.2982392 205.388985,32.4081266" id="Fill-17" fill="#D5CFCF"></path>
                        <path d="M212.03023,39.7347331 L213.971758,39.7347331 C213.982367,38.8543263 213.918711,38.1335178 213.778136,37.5736157 C213.638887,37.0124054 213.424045,36.7311462 213.134938,36.7311462 C212.508981,36.7311462 212.141629,37.733214 212.03023,39.7347331 M216.028664,42.4740671 L216.312466,42.5734889 C216.067123,43.3440084 215.652028,44.0033323 215.067183,44.5540771 C214.481011,45.1035137 213.730393,45.3782321 212.816655,45.3782321 C211.645638,45.3782321 210.709355,45.0210983 210.006479,44.3055225 C209.303603,43.5912549 208.952166,42.4465952 208.952166,40.87416 C208.952166,39.3671338 209.346041,38.235556 210.13114,37.4820429 C210.917565,36.7285298 211.95729,36.3517733 213.251642,36.3517733 C215.360269,36.3517733 216.413256,37.5840812 216.413256,40.0486968 L212.097865,40.0486968 C212.08593,40.1808233 212.080625,40.3783588 212.080625,40.6426117 C212.080625,41.6983149 212.267616,42.451828 212.641599,42.9031509 C213.014256,43.3544738 213.469136,43.5794812 214.003586,43.5794812 C214.819187,43.5794812 215.492887,43.2105738 216.028664,42.4740671" id="Fill-19" fill="#D5CFCF"></path>
                        <path d="M221.097192,43.6133631 C221.097192,44.0646861 221.167479,44.3747253 221.305402,44.5460972 C221.445977,44.7161609 221.687342,44.8011928 222.033475,44.8011928 L222.033475,45.1478611 C220.829303,45.1046911 220.037574,45.0811438 219.658286,45.0811438 C219.278999,45.0811438 218.442179,45.1046911 217.149153,45.1478611 L217.149153,44.8011928 C217.49396,44.8011928 217.737977,44.7161609 217.8759,44.5460972 C218.016475,44.3747253 218.085436,44.0646861 218.085436,43.6133631 L218.085436,34.2232297 C218.085436,33.7182713 218.016475,33.3480556 217.8759,33.1191237 C217.737977,32.8875754 217.49396,32.7711472 217.149153,32.7711472 L217.149153,32.4244788 C217.49396,32.4584916 217.840093,32.4741898 218.186226,32.4741898 C219.346634,32.4741898 220.316072,32.3983152 221.097192,32.2439497 L221.097192,43.6133631 Z" id="Fill-21" fill="#D5CFCF"></path>
                        <path d="M227.779814,44.1817684 C228.019853,43.956761 228.139209,43.6728854 228.139209,43.332758 L228.139209,37.1110424 C227.893866,36.9684505 227.631282,36.8978087 227.352784,36.8978087 C226.827617,36.8978087 226.440372,37.2248543 226.19105,37.8789455 C225.939076,38.5343449 225.814415,39.5259471 225.814415,40.8576769 C225.814415,42.2103375 225.913879,43.1600779 226.114132,43.7042818 C226.315711,44.2484857 226.588904,44.5205877 226.933711,44.5205877 C227.257299,44.5205877 227.538449,44.408084 227.779814,44.1817684 M231.359175,44.4381722 C231.498424,44.6684123 231.741115,44.7848405 232.087248,44.7848405 L232.087248,45.1315089 C231.741115,45.0974961 231.396308,45.0804897 231.050175,45.0804897 C229.889767,45.0804897 228.919003,45.1576725 228.139209,45.312038 L228.139209,44.1412148 C227.905801,44.5702986 227.62863,44.8829542 227.310346,45.0804897 C226.993389,45.2793335 226.588904,45.3787553 226.096891,45.3787553 C225.071754,45.3787553 224.24687,45.0019988 223.622239,44.2484857 C222.997608,43.4949726 222.68463,42.3490048 222.68463,40.8079659 C222.68463,39.345418 223.017501,38.2360793 223.680591,37.4825662 C224.343681,36.7290531 225.250788,36.3522966 226.399261,36.3522966 C227.112745,36.3522966 227.693612,36.4896557 228.139209,36.764374 L228.139209,34.2238838 C228.139209,33.7176172 228.068921,33.3487097 227.929673,33.1184696 C227.790424,32.8869213 227.547733,32.7704931 227.2016,32.7704931 L227.2016,32.4251329 C227.547733,32.4578375 227.893866,32.4748439 228.239999,32.4748439 C229.39908,32.4748439 230.369844,32.3976611 231.149638,32.2432956 L231.149638,43.332758 C231.149638,43.8377164 231.219926,44.2079321 231.359175,44.4381722" id="Fill-23" fill="#D5CFCF"></path>
                        <path d="M274.876056,89.6960514 C271.360352,89.6960514 268.499781,86.7317101 268.499781,83.0897302 C268.499781,79.4477503 271.360352,76.4847171 274.876056,76.4847171 C278.39176,76.4847171 281.253657,79.4477503 281.253657,83.0897302 C281.253657,86.7317101 278.39176,89.6960514 274.876056,89.6960514 M281.996318,83.0897302 C281.996318,79.0435219 278.802876,75.7521349 274.876056,75.7521349 C270.950562,75.7521349 267.75712,79.0435219 267.75712,83.0897302 C267.75712,87.1372466 270.950562,90.4299418 274.876056,90.4299418 C278.802876,90.4299418 281.996318,87.1372466 281.996318,83.0897302" id="Fill-25" fill="#D5CFCF"></path>
                        <path d="M262.677585,22.5686324 C262.677585,22.0519004 262.871207,21.9236985 262.987911,21.9080003 L272.535082,21.9080003 C272.662396,21.9080003 275.71261,21.9668685 276.778859,24.8854235 L283.210833,44.5670281 L264.005091,44.5696445 C263.859211,44.573569 263.227949,44.5565627 262.904361,44.2582971 C262.80755,44.1680325 262.677585,44.0045097 262.677585,43.6277532 L262.677585,22.5686324 Z M263.921542,46.0374252 C263.993155,46.0374252 264.039572,46.0348088 264.05416,46.0335006 L285.251825,46.0335006 L278.18461,24.4131697 C276.751009,20.4873142 272.707486,20.4415278 272.537735,20.4415278 L262.965366,20.442836 C262.253207,20.4650751 261.190936,21.0485244 261.190936,22.5686324 L261.190936,43.6277532 C261.190936,44.3184735 261.433627,44.9058474 261.889833,45.3270821 C262.587404,45.9720161 263.564799,46.0374252 263.921542,46.0374252 Z" id="Fill-27" fill="#D5CFCF"></path>
                        <path d="M174.930868,89.6960514 C171.415164,89.6960514 168.553267,86.7317101 168.553267,83.0897302 C168.553267,79.4477503 171.415164,76.4847171 174.930868,76.4847171 C178.446572,76.4847171 181.307142,79.4477503 181.307142,83.0897302 C181.307142,86.7317101 178.446572,89.6960514 174.930868,89.6960514 M182.049803,83.0897302 C182.049803,79.0435219 178.856361,75.7521349 174.930868,75.7521349 C171.004048,75.7521349 167.810606,79.0435219 167.810606,83.0897302 C167.810606,87.1372466 171.004048,90.4299418 174.930868,90.4299418 C178.856361,90.4299418 182.049803,87.1372466 182.049803,83.0897302" id="Fill-29" fill="#D5CFCF"></path>
                        <polygon id="Fill-31" fill="#D5CFCF" points="22.4096614 92.5922365 22.4096614 74.3195444 7.57633519 74.3195444 7.57633519 73.9506369 6.75808197 73.9506369 6.75808197 74.3195444 0.00251974249 74.3195444 0.00251974249 92.5922365 2.11114635 92.5922365 2.11114635 76.3995544 6.75808197 76.3995544 6.75808197 92.5922365 7.57633519 92.5922365 7.57633519 76.3995544 20.3010348 76.3995544 20.3010348 92.5922365"></polygon>
                        <path d="M124.48801,80.3484339 L104.844628,80.3484339 C104.640397,80.3484339 104.473298,80.5132649 104.473298,80.714725 C104.473298,80.9174933 104.640397,81.0823242 104.844628,81.0823242 L124.48801,81.0823242 C124.692242,81.0823242 124.859341,80.9174933 124.859341,80.714725 C124.859341,80.5132649 124.692242,80.3484339 124.48801,80.3484339" id="Fill-34" fill="#D5CFCF"></path>
                        <path d="M111.481365,88.7277348 L91.839309,88.7277348 C91.6350773,88.7277348 91.4679785,88.8925658 91.4679785,89.0940259 C91.4679785,89.2967942 91.6350773,89.4616252 91.839309,89.4616252 L111.481365,89.4616252 C111.685597,89.4616252 111.852695,89.2967942 111.852695,89.0940259 C111.852695,88.8925658 111.685597,88.7277348 111.481365,88.7277348" id="Fill-36" fill="#D5CFCF"></path>
                        <path d="M250.147568,22.4690797 C250.147568,21.9575804 250.569294,21.5415784 251.08783,21.5415784 L257.794324,21.5415784 C258.311534,21.5415784 258.734585,21.9575804 258.734585,22.4690797 L258.734585,43.7270442 C258.734585,44.2398517 258.311534,44.6558537 257.794324,44.6558537 L251.08783,44.6558537 C250.569294,44.6558537 250.147568,44.2398517 250.147568,43.7270442 L250.147568,22.4690797 Z M251.08783,45.3897441 L257.794324,45.3897441 C258.72265,45.3897441 259.477246,44.6427719 259.477246,43.7270442 L259.477246,22.4690797 C259.477246,21.553352 258.72265,20.8076881 257.794324,20.8076881 L251.08783,20.8076881 C250.159504,20.8076881 249.403581,21.553352 249.403581,22.4690797 L249.403581,43.7270442 C249.403581,44.6427719 250.159504,45.3897441 251.08783,45.3897441 Z" id="Fill-38" fill="#D5CFCF"></path>
                        <path d="M110.047764,76.3957607 C110.047764,76.5972208 110.214863,76.7620518 110.419094,76.7620518 L130.062476,76.7620518 C130.266708,76.7620518 130.433807,76.5972208 130.433807,76.3957607 C130.433807,76.1943006 130.266708,76.0294696 130.062476,76.0294696 L110.419094,76.0294696 C110.214863,76.0294696 110.047764,76.1943006 110.047764,76.3957607" id="Fill-40" fill="#D5CFCF"></path>
                        <path d="M117.851937,84.4072007 L98.2098811,84.4072007 C98.0056494,84.4072007 97.8385506,84.5720317 97.8385506,84.7734918 C97.8385506,84.9762601 98.0056494,85.141091 98.2098811,85.141091 L117.851937,85.141091 C118.056169,85.141091 118.223267,84.9762601 118.223267,84.7734918 C118.223267,84.5720317 118.056169,84.4072007 117.851937,84.4072007" id="Fill-42" fill="#D5CFCF"></path>
                        <path d="M306.450551,83.346788 C306.409439,83.3925744 306.283452,83.5338581 305.856422,83.5338581 L289.828208,83.5338581 C289.832186,83.4017317 289.845448,83.2709134 289.845448,83.138787 C289.845448,81.3125644 289.531143,79.5609081 288.9768,77.917831 L304.745083,77.917831 L304.749062,78.0748128 L305.79807,78.111442 C305.942624,78.1166747 306.672023,78.2030147 306.672023,79.4143916 L306.672023,82.1641911 L306.67998,82.3015503 C306.702525,82.4781549 306.69059,83.0786106 306.450551,83.346788 Z M273.059985,66.581122 C266.218221,66.581122 260.32998,70.6456448 257.718731,76.4513585 L248.212671,76.4513585 L248.212671,55.2326395 L304.274289,55.2326395 C304.418843,55.7179752 304.514328,56.2242418 304.514328,56.7658293 C304.514328,57.4722478 304.518306,58.2702391 304.522285,59.1284067 L301.907058,59.1284067 C301.497268,59.1284067 301.164397,59.4567605 301.164397,59.8622971 C301.164397,60.2665255 301.497268,60.5948792 301.907058,60.5948792 L304.532894,60.5948792 C304.536873,60.9807931 304.539525,61.3810969 304.543504,61.7840171 L301.907058,61.7840171 C301.497268,61.7840171 301.164397,62.1123709 301.164397,62.5165992 C301.164397,62.9221358 301.497268,63.2504896 301.907058,63.2504896 L304.556766,63.2504896 C304.56207,63.7462907 304.567375,64.2460164 304.57268,64.7535912 L301.907058,64.7535912 C301.497268,64.7535912 301.164397,65.081945 301.164397,65.4874815 C301.164397,65.8917099 301.497268,66.2200637 301.907058,66.2200637 L304.58992,66.2200637 C304.599203,66.9552622 304.605834,67.6904607 304.615118,68.4204265 L304.615118,68.4557475 L298.627414,68.4557475 C297.981564,68.4557475 297.456397,68.9750959 297.456397,69.6108725 L297.456397,73.7107163 C297.456397,74.3464929 297.981564,74.8645332 298.627414,74.8645332 L304.686731,74.8645332 L304.688058,74.9247096 C304.697341,75.623279 304.705298,76.1138474 304.710603,76.4513585 L288.402564,76.4513585 C285.791315,70.6456448 279.901748,66.581122 273.059985,66.581122 Z M288.34156,83.5338581 L286.98753,83.5338581 C286.998139,83.318008 287.020684,83.1047743 287.020684,82.8863078 C287.020684,75.8705255 281.428182,70.1616173 274.555916,70.1616173 C274.419319,70.1616173 274.282723,70.1694664 274.146126,70.173391 L274.146126,70.1616173 L272.083916,70.1616173 C265.205019,70.1616173 259.609864,75.8705255 259.609864,82.8863078 L259.609864,83.5338581 L257.786367,83.5338581 C257.782388,83.4004235 257.762495,83.2709134 257.762495,83.138787 C257.762495,74.8161304 264.625478,68.0475945 273.059985,68.0475945 C281.495817,68.0475945 288.357474,74.8161304 288.357474,83.138787 C288.357474,83.2709134 288.345538,83.4017317 288.34156,83.5338581 Z M262.463804,83.0001197 C262.463804,86.7362887 264.129487,90.0813112 266.743388,92.3300768 C263.762135,90.6451378 261.640246,87.8207719 261.195976,84.4888313 L261.096512,83.7379346 L261.096512,82.8863078 C261.096512,77.7085218 264.528667,73.3483497 269.180907,72.0388591 C265.194409,74.060001 262.463804,78.2461847 262.463804,83.0001197 Z M256.299718,83.5338581 L253.293268,83.5338581 L253.277354,83.6529027 L248.212671,83.6529027 L248.212671,77.917831 L257.143169,77.917831 C256.588826,79.5609081 256.275847,81.3125644 256.275847,83.138787 C256.275847,83.2709134 256.297066,83.4004235 256.299718,83.5338581 Z M242.247512,83.6529027 L246.726023,83.6529027 L246.726023,19.4512337 L242.247512,19.4512337 L242.247512,83.6529027 Z M240.760864,76.4513585 L188.834276,76.4513585 C187.538598,73.5707407 185.441907,71.1165905 182.814744,69.3793242 L234.97474,69.3793242 L234.97474,68.5721757 L181.504478,68.5721757 L181.504478,68.5931066 C179.121332,67.3097796 176.392053,66.581122 173.491697,66.581122 C170.607255,66.581122 167.892564,67.3019305 165.517375,68.5721757 L153.873512,68.5721757 L153.873512,69.3793242 L164.16865,69.3793242 C161.541487,71.1165905 159.444796,73.5707407 158.150444,76.4513585 L143.726907,76.4513585 L143.726907,72.8538568 L149.298191,72.8538568 C150.373723,72.8538568 151.247676,71.9904564 151.247676,70.9321368 L151.247676,66.8924695 C151.247676,65.8315335 150.373723,64.9694413 149.298191,64.9694413 L143.726907,64.9694413 L143.726907,3.50579809 L240.624268,3.50579809 L240.624268,12.8095915 L240.760864,12.8095915 L240.760864,76.4513585 Z M240.760864,83.6529027 L229.107718,83.6529027 L229.091804,83.5338581 L190.25992,83.5338581 C190.262573,83.4017317 190.275834,83.2709134 190.275834,83.138787 C190.275834,81.3125644 189.964182,79.5609081 189.407186,77.917831 L240.760864,77.917831 L240.760864,83.6529027 Z M188.773272,83.5338581 L187.419242,83.5338581 C187.431178,83.318008 187.452397,83.1047743 187.452397,82.8863078 C187.452397,75.8705255 181.859894,70.1616173 174.987628,70.1616173 C174.851032,70.1616173 174.713109,70.1694664 174.577839,70.173391 L174.577839,70.1616173 L172.514302,70.1616173 C165.636731,70.1616173 160.041577,75.8705255 160.041577,82.8863078 L160.041577,83.5338581 L158.218079,83.5338581 C158.2141,83.4004235 158.194208,83.2709134 158.194208,83.138787 C158.194208,74.8161304 165.057191,68.0475945 173.491697,68.0475945 C181.92753,68.0475945 188.789186,74.8161304 188.789186,83.138787 C188.789186,83.2709134 188.777251,83.4017317 188.773272,83.5338581 Z M162.895517,83.0001197 C162.895517,86.6996596 164.530697,90.0132857 167.099508,92.2594349 C164.179259,90.567955 162.106439,87.7776019 161.667474,84.4888313 L161.540161,83.5338581 L161.528225,83.5338581 L161.528225,82.8863078 C161.528225,77.7072136 164.961706,73.3470415 169.613946,72.0388591 C165.626122,74.0586928 162.895517,78.2461847 162.895517,83.0001197 Z M156.730105,83.5338581 L149.885688,83.5338581 L149.865796,83.69084 L143.726907,83.69084 L143.726907,77.917831 L157.576208,77.917831 C157.019212,79.5609081 156.70756,81.3125644 156.70756,83.138787 C156.70756,83.2709134 156.727452,83.4004235 156.730105,83.5338581 Z M142.240259,83.69084 L128.867058,83.69084 L138.342615,77.215337 L138.366487,74.8095895 L138.381075,74.8095895 L138.381075,72.8538568 L142.240259,72.8538568 L142.240259,83.69084 Z M125.454796,73.343117 L125.454796,55.9586807 L136.8931,55.9586807 L136.8931,64.9694413 L136.87586,64.9694413 L136.87586,72.8538568 L136.8931,72.8538568 L136.8931,73.343117 L125.454796,73.343117 Z M111.519294,91.5203118 L86.4425511,91.5203118 L106.164178,78.1415301 L106.164178,77.9269882 L110.415912,74.9050868 L113.044401,74.9050868 L113.044401,74.8095895 L136.492594,74.8095895 L111.519294,91.5203118 Z M109.999491,73.1835187 L109.999491,73.3967525 L106.164178,76.1230047 L106.164178,73.1835187 L109.999491,73.1835187 Z M104.502474,66.8048212 L106.164178,66.8048212 L106.164178,66.6138266 L109.999491,66.6138266 L109.999491,71.7170462 L106.164178,71.7170462 L106.164178,71.615008 L104.502474,71.615008 L104.502474,66.8048212 Z M110.743478,73.4386143 L112.30174,73.4386143 L112.30174,10.2507867 L110.743478,10.2507867 L110.743478,73.4386143 Z M124.021195,54.4935164 L133.027285,54.4935164 L133.027285,42.9108692 L124.021195,42.9108692 L124.021195,54.4935164 Z M124.710809,55.9586807 L124.710809,73.343117 L118.4088,73.343117 L118.4088,55.860567 L123.078281,55.860567 L123.078281,55.9586807 L124.710809,55.9586807 Z M133.771272,54.4922082 L136.8931,54.4922082 L136.8931,42.909561 L133.771272,42.909561 L133.771272,54.4922082 Z M122.534547,41.4443967 L122.534547,54.3940945 L116.922152,54.3940945 L116.922152,73.343117 L113.788388,73.343117 L113.788388,11.0252307 L136.8931,11.0252307 L136.8931,41.4443967 L122.534547,41.4443967 Z M149.298191,66.4359138 C149.552817,66.4359138 149.761027,66.6399902 149.761027,66.8924695 L149.761027,70.9321368 C149.761027,71.1833078 149.552817,71.3860761 149.298191,71.3860761 L138.381075,71.3860761 L138.381075,66.4359138 L149.298191,66.4359138 Z M106.164178,3.50579809 L142.240259,3.50579809 L142.240259,64.9694413 L138.381075,64.9694413 L138.381075,9.55875818 L113.222109,9.55875818 L113.222109,9.51689634 L109.999491,9.51689634 L109.999491,65.1473541 L106.164178,65.1473541 L106.164178,3.50579809 Z M242.247512,12.8095915 L258.334079,12.8095915 L258.485264,12.7991261 C258.514439,12.7965097 261.328594,12.4459168 263.283384,14.0235848 C264.360242,14.8909098 264.986199,16.2357213 265.197062,17.9847612 L242.247512,17.9847612 L242.247512,12.8095915 Z M265.338963,19.5061774 L273.671354,19.5061774 L273.821212,19.4970201 C273.927306,19.4813219 276.494791,19.1974463 277.9085,22.0388185 L277.969504,22.1630959 C277.928392,22.2703668 277.909826,22.3854869 277.928392,22.5123806 C277.95359,22.6863688 278.006637,22.8825962 278.086208,23.0958299 C278.218826,23.4464228 278.564959,23.6832039 278.945573,23.6832039 L279.225397,23.6832039 L286.518062,45.7025305 L297.053238,48.9494393 C297.115568,48.9716784 302.342045,50.818832 304.002422,54.4987491 L248.212671,54.4987491 L248.212671,19.4512337 L265.334985,19.4512337 L265.338963,19.5061774 Z M278.884568,22.6523561 L278.982706,22.9493135 L278.945573,22.9493135 C278.872633,22.9493135 278.80765,22.9061435 278.783779,22.8420426 C278.755929,22.7674762 278.747972,22.7177652 278.729405,22.6523561 L278.884568,22.6523561 Z M304.628379,69.5062179 L306.170727,69.5062179 C306.230405,69.5062179 306.279474,69.5546207 306.279474,69.6134889 L306.279474,73.7054835 C306.279474,73.7643517 306.230405,73.8114463 306.170727,73.8114463 L304.672143,73.8114463 L304.676122,74.1306428 L298.627414,74.1306428 C298.391354,74.1306428 298.199058,73.9435727 298.199058,73.7107163 L298.199058,69.6108725 C298.199058,69.3780161 298.391354,69.1896378 298.627414,69.1896378 L304.624401,69.1896378 L304.628379,69.5062179 Z M287.677143,22.6523561 L287.864135,22.6379661 C288.027255,22.6288088 288.299122,22.6837525 288.499375,23.2750509 C289.03913,24.8762662 290.345418,29.5556348 290.398465,29.7178494 C290.440903,29.8211958 290.482015,29.9703286 290.508538,30.1050714 C289.661109,30.1573987 288.479482,30.0985305 288.056431,30.0684423 C288.056431,30.0684423 288.052452,30.0684423 288.047148,30.0671341 C287.653272,28.8021217 286.000852,23.6256438 285.923933,23.3849383 L285.690525,22.6523561 L287.677143,22.6523561 Z M308.900006,79.4143916 C308.900006,77.5920935 307.930568,76.5847931 306.934607,76.1596338 C306.933281,76.0746019 306.931955,75.9830291 306.929302,75.8849155 C307.847019,75.573568 308.507457,74.712784 308.507457,73.7054835 L308.507457,69.6134889 C308.507457,68.5682511 307.800603,67.6839198 306.831165,67.4026606 C306.786075,63.4807297 306.742311,59.4737669 306.742311,56.7658293 C306.742311,50.0208407 298.149989,46.9976311 297.750809,46.8615801 L288.279229,43.9417169 L281.944066,24.8147817 L284.043409,24.8147817 C284.711804,26.9104899 285.881495,30.5799416 285.978306,30.9187609 C286.238238,31.8070167 287.15065,32.1942387 287.87607,32.2596479 C287.960946,32.2661888 289.944912,32.4009316 291.155714,32.2544151 C291.733929,32.1837733 292.208701,31.8841995 292.488525,31.4158702 C293.041542,30.4922934 292.61186,29.2573692 292.508418,29.01928 C292.454045,28.8230526 291.171628,24.2352568 290.613306,22.5804061 C289.960826,20.6521452 288.4145,20.3434141 287.586963,20.4559178 L279.568877,20.4559178 C277.836886,17.6223947 274.996208,17.1409835 273.59974,17.3097391 L267.378628,17.3097391 C267.045757,15.1564708 266.139976,13.4767646 264.675873,12.3059413 C262.152152,10.2847994 258.853942,10.5438196 258.266444,10.611845 L242.852251,10.611845 L242.852251,1.30805161 L103.936195,1.30805161 L103.936195,64.6528611 C102.98665,64.8517049 102.274491,65.6837089 102.274491,66.6779275 L102.274491,71.7432099 C102.274491,72.7374285 102.98665,73.5681244 103.936195,73.7682763 L103.936195,76.9837887 L91.6677013,85.3064453 L91.6677013,70.5867766 L74.8238858,70.5867766 L74.8238858,60.6393574 L41.9041133,60.6393574 L41.9041133,92.5917132 L44.0114137,92.5917132 L44.0114137,62.7180593 L51.8239416,62.7180593 L51.8239416,92.5917132 L52.6421948,92.5917132 L52.6421948,62.7180593 L72.7152592,62.7180593 L72.7152592,92.5917132 L74.8238858,92.5917132 L74.8238858,72.5385848 L77.0943064,72.5385848 L77.0943064,92.5917132 L77.9125597,92.5917132 L77.9125597,72.5385848 L89.6890403,72.5385848 L89.6890403,86.028562 L90.6041047,86.028562 L83.4347742,90.8923843 L83.4347742,92.5917132 L85.6627571,92.5917132 L85.6627571,92.2542022 L111.747397,92.2542022 L136.873208,75.4388253 L136.863924,76.4435094 L125.657701,84.0989929 L125.629852,83.9877974 L112.415791,92.5917132 L116.459315,92.5917132 L124.295714,87.4898018 C125.056942,89.4573081 126.330075,91.1945744 127.948015,92.5917132 L131.874834,92.5917132 C128.998349,91.1291653 126.812804,88.6357696 126.035663,85.6243336 L126.721298,85.1573125 L149.63504,85.1573125 C148.975929,88.3715167 146.747946,91.0519825 143.722929,92.5917132 L147.649748,92.5917132 C149.726547,90.7877297 151.217173,88.4199195 151.802019,85.7302964 L159.625156,85.7302964 C160.210002,88.4199195 161.700628,90.7877297 163.777427,92.5917132 L168.781105,92.5917132 C165.696409,90.5326341 163.638178,87.0188561 163.638178,83.0001197 C163.638178,77.3042934 167.799731,72.4784084 173.260942,71.6280898 L174.340452,71.6280898 L174.341779,71.6464044 C174.555294,71.6333226 174.770135,71.6280898 174.987628,71.6280898 C181.041641,71.6280898 185.964422,76.677674 185.964422,82.8863078 C185.964422,83.1047743 185.94453,83.318008 185.93392,83.5338581 L185.741624,83.5338581 L185.615637,84.4888313 C185.146169,88.0026093 182.812092,90.9486361 179.570907,92.5917132 L183.505684,92.5917132 C185.582482,90.7877297 187.073109,88.4199195 187.657955,85.7302964 L227.1768,85.7302964 C227.760319,88.4199195 229.250946,90.7877297 231.327744,92.5917132 L235.25589,92.5917132 C232.218937,91.0467498 229.98565,88.3505858 229.337148,85.1193752 L253.047924,85.1193752 C252.398096,88.3505858 250.166135,91.0467498 247.127856,92.5917132 L251.056002,92.5917132 C253.134126,90.7877297 254.624753,88.4199195 255.208272,85.7302964 L259.153658,85.7302964 C259.737178,88.4199195 261.227804,90.7877297 263.305929,92.5917132 L268.353371,92.5917132 C265.267349,90.5339423 263.207791,87.0201643 263.207791,83.0001197 C263.207791,77.3042934 267.366693,72.4784084 272.829229,71.6280898 L273.90874,71.6280898 L273.910066,71.6464044 C274.123581,71.6333226 274.339748,71.6280898 274.555916,71.6280898 C280.609929,71.6280898 285.534036,76.677674 285.534036,82.8863078 C285.534036,83.1047743 285.514143,83.318008 285.500882,83.5338581 L285.272779,83.5338581 L285.145465,84.4875231 C284.674671,88.0026093 282.340594,90.9486361 279.099409,92.5917132 L283.034186,92.5917132 C285.110985,90.7877297 286.601611,88.4199195 287.187783,85.7302964 L305.856422,85.7302964 C307.040701,85.7302964 307.743577,85.225338 308.122864,84.8001787 C308.98886,83.8295073 308.934487,82.4781549 308.900006,82.1079393 L308.900006,79.4143916 Z" id="Fill-44" fill="#D5CFCF"></path>
                        <polygon id="Fill-47" fill="#D5CFCF" points="149.654137 12.783297 233.125249 12.783297 233.125249 11.9761485 149.654137 11.9761485"></polygon>
                    </g>
                </g>
            </g>
        </g>
    </g>
</svg>