<svg width="180" height="30" xmlns="http://www.w3.org/2000/svg"><path d="M14.017 2.256c1.484 0 2.744.213 3.783.639 1.038.426 2.052 1.027 3.04 1.804.248.226.483.339.705.339.495 0 .816-.752.964-2.256h.853c-.099 1.78-.148 4.912-.148 9.398h-.853c-.173-2.005-.494-3.584-.964-4.736-.47-1.153-1.286-2.118-2.448-2.895-1.162-.752-2.311-1.128-3.448-1.128-2.571 0-4.376 1.253-5.414 3.76-1.039 2.506-1.558 5.5-1.558 8.984s.52 6.48 1.558 8.985c1.038 2.507 2.843 3.76 5.414 3.76 1.137 0 2.286-.376 3.448-1.128 1.162-.727 1.978-1.704 2.448-2.932s.79-2.97.964-5.226h.853c0 4.687.05 7.945.148 9.774h-.853c-.074-.802-.179-1.372-.315-1.71-.136-.338-.327-.508-.575-.508-.197 0-.457.1-.778.301-1.113.802-2.176 1.41-3.19 1.824-1.013.413-2.237.62-3.67.62-2.794 0-5.242-.539-7.343-1.617a11.601 11.601 0 0 1-4.895-4.68C.58 21.585 0 19.148 0 16.316c0-2.757.593-5.2 1.78-7.331a12.54 12.54 0 0 1 4.97-4.962c2.125-1.178 4.548-1.767 7.267-1.767zm16.836 27.406c-1.582 0-2.775-.433-3.579-1.297-.803-.865-1.205-1.949-1.205-3.252 0-1.128.29-2.062.872-2.801a6.123 6.123 0 0 1 2.058-1.71c.79-.402 1.817-.815 3.078-1.241 1.335-.451 2.311-.865 2.93-1.24.617-.377.926-.903.926-1.58v-3.346c0-.802-.198-1.516-.593-2.142-.396-.627-1.075-.94-2.04-.94-.766 0-1.458.213-2.076.639.84.3 1.465.745 1.872 1.334a3.39 3.39 0 0 1 .612 1.974c0 .978-.34 1.76-1.02 2.35-.68.589-1.501.883-2.466.883-.964 0-1.724-.307-2.28-.92-.556-.615-.834-1.398-.834-2.35 0-.752.185-1.404.556-1.955.37-.552.952-1.053 1.743-1.504 1.384-.802 3.362-1.203 5.933-1.203 1.36 0 2.534.131 3.523.395.989.263 1.83.758 2.521 1.485.495.526.822 1.184.983 1.973.16.79.241 1.886.241 3.29v10.075c0 .627.043 1.053.13 1.278.086.226.241.338.463.338.174 0 .359-.056.557-.169.198-.112.383-.244.556-.394l.37.639c-1.062.927-2.583 1.39-4.56 1.39-1.484 0-2.522-.256-3.115-.77-.594-.514-.915-1.21-.965-2.086-1.161 1.904-2.892 2.857-5.191 2.857zm3.708-3.008c.52 0 .977-.213 1.372-.639v-7.932c-.222.376-.63.864-1.223 1.466-.668.652-1.175 1.284-1.52 1.898-.347.614-.52 1.448-.52 2.5 0 1.805.63 2.707 1.891 2.707zM59.592 9.361c1.928 0 3.486.802 4.673 2.406 1.186 1.604 1.78 3.947 1.78 7.03 0 3.985-.792 6.836-2.374 8.553-1.582 1.716-3.671 2.575-6.267 2.575-.79 0-1.452-.025-1.984-.075a4.59 4.59 0 0 1-1.464-.376 7.44 7.44 0 0 0-2.856-.564c-.742 0-1.434.1-2.077.3-.642.201-1.137.464-1.483.79l-.519-.376c.173-.526.26-1.215.26-2.068V4.511c0-1.153-.155-1.992-.464-2.519-.309-.526-.847-.789-1.613-.789v-.79c.766.076 1.533.113 2.3.113 2.57 0 4.721-.175 6.452-.526v12.18c1.137-1.88 3.016-2.82 5.636-2.82zm-3.894 19.812c2.275 0 3.412-3.17 3.412-9.511 0-3.083-.222-5.245-.667-6.485-.445-1.24-1.051-1.861-1.818-1.861-.716 0-1.34.257-1.872.77-.532.514-.797 1.16-.797 1.937v14.699c.568.3 1.15.45 1.742.45zM73.201 0c1.286 0 2.281.276 2.986.827.704.551 1.057 1.353 1.057 2.406 0 1.053-.353 1.855-1.057 2.406-.705.551-1.7.827-2.986.827-1.31 0-2.311-.276-3.003-.827-.692-.551-1.039-1.353-1.039-2.406 0-1.053.347-1.855 1.039-2.406C70.89.276 71.89 0 73.2 0zm3.56 25.902c0 1.028.155 1.736.464 2.124.309.389.847.583 1.613.583v.79c-2.67-.1-4.425-.15-5.266-.15-.84 0-2.694.05-5.562.15v-.79c.766 0 1.304-.194 1.613-.583.309-.388.464-1.096.464-2.124V13.985c0-1.153-.155-1.993-.464-2.519-.309-.526-.847-.79-1.613-.79v-.789a24.31 24.31 0 0 0 2.299.113c2.571 0 4.722-.175 6.452-.526v16.428zM94.895 9.361c1.978 0 3.374.501 4.19 1.504.371.45.643 1.059.816 1.823.173.764.26 1.773.26 3.026v10.188c0 1.028.154 1.736.463 2.124.31.389.847.583 1.613.583v.79c-2.67-.1-4.4-.15-5.191-.15-.84 0-2.596.05-5.266.15v-.79c.643 0 1.088-.194 1.335-.583.247-.388.37-1.096.37-2.124V13.684c0-.802-.141-1.397-.426-1.786-.284-.388-.748-.582-1.39-.582-.717 0-1.341.257-1.873.77-.531.514-.797 1.16-.797 1.937v11.88c0 1.027.123 1.735.37 2.123.248.389.693.583 1.336.583v.79c-2.473-.1-4.104-.15-4.895-.15-.84 0-2.695.05-5.563.15v-.79c.767 0 1.304-.194 1.613-.583.31-.388.464-1.096.464-2.124V13.985c0-1.153-.155-1.993-.464-2.519-.309-.526-.846-.79-1.613-.79v-.789a24.31 24.31 0 0 0 2.3.113c2.57 0 4.721-.175 6.452-.526v2.706c1.112-1.88 3.078-2.82 5.896-2.82zM116.885 0c1.706 0 3.016.125 3.93.376.916.25 1.793.627 2.634 1.128.445.275.834.676 1.168 1.203.334.526.5 1.077.5 1.654 0 2.13-1.409 3.195-4.227 3.195-1.384 0-2.435-.269-3.152-.808-.717-.539-1.075-1.31-1.075-2.312 0-.802.284-1.485.852-2.049.57-.564 1.373-.971 2.41-1.222-.197-.1-.506-.194-.926-.282a6.156 6.156 0 0 0-1.261-.131c-1.978 0-3.449.902-4.413 2.707-.37.651-.63 1.447-.779 2.387-.148.94-.222 2.3-.222 4.079h3.374c2.3 0 4.092-.032 5.377-.094a39.563 39.563 0 0 0 3.746-.357v16.428c0 1.028.179 1.736.537 2.124.359.389.996.583 1.91.583v.79c-2.868-.1-4.734-.15-5.6-.15-.865 0-2.731.05-5.599.15v-.79c.767 0 1.304-.194 1.613-.583.31-.388.464-1.096.464-2.124V13.985c0-1.153-.18-1.993-.538-2.519-.358-.526-.995-.79-1.91-.79h-3.374v15.226c0 1.028.229 1.736.686 2.124.457.389 1.168.583 2.132.583v.79l-1.001-.038c-2.596-.075-4.252-.113-4.97-.113-.84 0-2.558.038-5.154.113-.197.025-.47.037-.816.037v-.789c.915 0 1.552-.194 1.91-.583.359-.388.538-1.096.538-2.124V10.677h-2.596v-.752h2.596c0-2.907 1.038-5.351 3.115-7.331.915-.877 2.101-1.529 3.56-1.955A16.184 16.184 0 0 1 116.885 0zm23.028 25.827c1.805 0 3.3-.84 4.487-2.519l.63.226a10.479 10.479 0 0 1-2.762 4.511c-1.298 1.253-2.96 1.88-4.987 1.88-2.596 0-4.673-.815-6.23-2.444-1.558-1.629-2.337-4.235-2.337-7.82 0-3.433.872-6.008 2.615-7.725 1.743-1.717 4.048-2.575 6.916-2.575 4.672 0 7.008 2.807 7.008 8.421h-9.567c-.025.3-.037.752-.037 1.353 0 2.406.414 4.123 1.242 5.15.828 1.028 1.836 1.542 3.022 1.542zm-1.928-15.601c-1.384 0-2.2 2.28-2.447 6.842h4.301c.025-2.005-.117-3.647-.426-4.925-.31-1.278-.785-1.917-1.428-1.917zm17.652 15.676c0 1.028.154 1.736.463 2.124.31.389.847.583 1.613.583v.79c-2.67-.1-4.425-.15-5.266-.15-.84 0-2.694.05-5.562.15v-.79c.766 0 1.304-.194 1.613-.583.31-.388.464-1.096.464-2.124V4.512c0-1.154-.155-1.993-.464-2.52-.309-.526-.847-.789-1.613-.789v-.79c.766.076 1.533.113 2.3.113 2.57 0 4.721-.175 6.452-.526v25.902zm22.286-.639c0 1.153.155 1.993.464 2.519.309.526.847.79 1.613.79v.789a23.533 23.533 0 0 0-2.3-.113c-2.57 0-4.721.176-6.452.526v-2.669c-.519.978-1.13 1.692-1.835 2.143-.705.451-1.6.677-2.689.677-2.274 0-4.103-.859-5.488-2.575-1.384-1.717-2.077-4.33-2.077-7.839 0-3.333.736-5.858 2.207-7.575 1.47-1.717 3.48-2.575 6.026-2.575 1.582 0 2.868.313 3.856.94V4.51c0-1.153-.154-1.992-.463-2.519-.31-.526-.847-.789-1.613-.789v-.79a23.28 23.28 0 0 0 2.299.113c2.571 0 4.722-.175 6.452-.526v25.263zm-9.345 2.707c.717 0 1.342-.257 1.873-.77.532-.515.797-1.16.797-1.937V11.09a3.335 3.335 0 0 0-1.742-.488c-1.162 0-2.021.745-2.578 2.236-.556 1.492-.834 3.753-.834 6.786 0 3.083.222 5.244.667 6.485.445 1.24 1.051 1.86 1.817 1.86z" fill="#BBB1B1" fill-rule="evenodd"/></svg>