<svg width="100" height="100" xmlns="http://www.w3.org/2000/svg"><g fill="none"><circle fill="#FFF" cx="49.875" cy="49.969" r="49.218"/><path d="M49.875 99.845C26.153 99.83 5.722 83.112 1.012 59.862c-4.71-23.25 7.604-46.602 29.45-55.848 25.38-10.722 54.647 1.161 65.369 26.542 10.722 25.38-1.161 54.647-26.542 65.369a49.563 49.563 0 0 1-19.414 3.92zm0-98.437C26.778 1.423 6.885 17.701 2.3 40.338c-4.586 22.638 7.404 45.374 28.675 54.377C55.678 105.118 84.14 93.543 94.57 68.85c10.431-24.692-1.112-53.167-25.794-63.626a48.25 48.25 0 0 0-18.902-3.816z" fill="#B4ABAB"/><path d="M73.725 25.74a.47.47 0 0 1-.327-.132 33.695 33.695 0 0 0-23.523-9.503c-1.31 0-2.619.075-3.92.225a.47.47 0 0 1-.108-.934 35.318 35.318 0 0 1 4.028-.23 34.632 34.632 0 0 1 24.176 9.765.47.47 0 0 1-.326.808zm-23.85 59.033a34.816 34.816 0 0 1-30.824-50.978 35.1 35.1 0 0 1 10.596-12.15.47.47 0 1 1 .546.763A33.818 33.818 0 0 0 16.015 49.97a33.865 33.865 0 1 0 66.017-10.65.47.47 0 0 1 .891-.296 34.792 34.792 0 0 1-33.052 45.749h.004z" fill="#B4ABAB"/><path d="M67.587 26.865c10.31 0 12.46 8.756 12.46 8.756l-2.203.053c-3.33 0-5.96 2.902-5.96 5.586 0 2.685 2.952 5.906 2.952 8.545 0 2.505-1.806 4.382-1.972 4.552h-.423l.406.013.014-.013h2.299l2.89 6.745a.301.301 0 0 1-.27.435l-16.853.06-40.145.151-.459-4.267s1.293-2.917 5.394-3.995v-3.943a5.782 5.782 0 0 1 2.586-10.951h.054a5.782 5.782 0 0 1 3.064 10.65v3.274s4.319-.402 6.165-2.16c1.702-1.617 3.717-2.764 6.905-3.049l-1.486-1.331a.673.673 0 0 1-.053-.953l1.471-1.643-1.323-1.21a1.024 1.024 0 0 1-.081-1.449l2.082-2.327a1.019 1.019 0 0 1 1.445-.08l1.328 1.218 1.39-1.555a.674.674 0 0 1 .95-.056l1.669 1.476 8.724-9.744.432-.482c2.363-2.265 6.549-2.3 6.549-2.3v-.005zm-6.21 27.154c1.164-1.127 4.115-4.637 4.115-11.362 0-7.427-1.855-10.04-2.474-10.735L49.033 47.606c3.305.657 4.903 1.778 7.11 3.508 1.739 1.36 3.005 2.402 5.234 2.902v.003zm6.21-28.657h-.013c-.196 0-4.814.072-7.576 2.719l-.04.038-.038.043-.432.48-7.73 8.639-.55-.487a2.176 2.176 0 0 0-3.065.18l-.376.424-.211-.192a2.521 2.521 0 0 0-3.576.187l-2.085 2.325a2.526 2.526 0 0 0 .192 3.568l.223.203-.479.536a2.182 2.182 0 0 0-.369 2.33c-1.842.554-3.42 1.502-4.912 2.916-.78.74-2.347 1.221-3.628 1.489v-.752A7.29 7.29 0 0 0 28.37 37.09h-.066a7.285 7.285 0 0 0-4.088 13.313v1.992a10.286 10.286 0 0 0-3.812 2.455c-.993 1.025-1.409 1.928-1.453 2.028l-.163.369.043.4.458 4.269.149 1.342 1.355-.004 40.14-.154 16.854-.065a1.804 1.804 0 0 0 1.636-2.551l-2.881-6.724-.39-.908h-.5a7.425 7.425 0 0 0 .687-3.05c0-1.667-.826-3.314-1.625-4.905-.652-1.3-1.326-2.644-1.326-3.636 0-.915.48-1.936 1.284-2.731.884-.873 2.01-1.352 3.173-1.352h.037l2.203-.054 1.867-.045-.449-1.816c-.025-.103-.643-2.554-2.668-4.982-1.872-2.243-5.343-4.918-11.25-4.918h.003zM51.775 46.791l10.999-12.34c.094.229.188.487.281.775.618 1.906.932 4.406.932 7.43 0 2.675-.497 5.075-1.476 7.136a11.669 11.669 0 0 1-1.614 2.535c-1.345-.45-2.29-1.19-3.613-2.227l-.218-.17c-1.732-1.357-3.17-2.398-5.291-3.14z" fill="#B4ABAB"/><path d="M28.357 51.032c-.972 0-2.009-.07-3.005-.586l.389-.751c.833.432 1.748.49 2.613.49a5.798 5.798 0 0 0 3.2-.956l.465.705a6.635 6.635 0 0 1-3.662 1.098zm-8.096 6.019h56.627v1H20.261zm53.878-2.716h-9.506l-3.3-.345.088-.84 3.256.34h9.462zm-28.347.065a2.066 2.066 0 1 1 0-4.131 2.066 2.066 0 0 1 0 4.131zm0-3.286a1.22 1.22 0 1 0 1.22 1.22 1.22 1.22 0 0 0-1.22-1.216v-.004zm-20.233 2.421l-.188-.823c.032-.008 3.206-.736 6.186-1.133l.112.838c-2.942.39-6.08 1.11-6.11 1.118zm18.803-6.652l7.137-7.999.746.666-7.137 7.999zm-.639-3.732l3.714-4.2.749.663-3.714 4.2z" fill="#B4ABAB"/><path d="M49.517 47.751c-2.642-.692-5.676-.35-5.706-.345l-.087-.747c.129-.015 3.202-.363 5.984.365l-.19.727zm13.046-15.395c-.657-1.502-2.154-3-2.169-3.014l.462-.47c.066.064 1.605 1.597 2.31 3.22l-.603.264zM19.72 65.218h60.686v1.127H19.72zm18.417 11.359l-3.183-1.673-3.184 1.673.608-3.544-2.575-2.51 3.559-.518 1.596-3.226 1.591 3.226 3.559.517-2.578 2.51.607 3.545zm-3.183-2.946l1.69.887-.322-1.878 1.365-1.33-1.886-.274-.845-1.71-.845 1.71-1.887.274 1.366 1.33-.322 1.878 1.686-.887zm12.341 2.946l.608-3.544-2.575-2.51 3.558-.518 1.597-3.226 1.591 3.226 3.56.517-2.582 2.51.607 3.545-3.183-1.673-3.181 1.673zm3.184-2.946l1.69.887-.322-1.878 1.365-1.33-1.886-.274-.845-1.71-.845 1.71-1.887.274 1.366 1.33-.323 1.878 1.687-.887zm18.708 2.946l-3.183-1.673-3.187 1.673.608-3.544-2.575-2.51 3.558-.518 1.597-3.226 1.591 3.226 3.559.517-2.576 2.51.608 3.545zm-3.183-2.946l1.69.887-.322-1.878 1.36-1.331-1.886-.274-.845-1.71-.845 1.71-1.886.274 1.365 1.33-.322 1.878 1.69-.886zM30.965 78.04h38.117v1.127H30.965z" fill="#B4ABAB"/><path fill="#B4ABAB" d="M41.737 78.687h1.127v5.057h-1.127zm16.605 0h1.127v4.588h-1.127zM17.574 61.656h64.674v1.502H17.574zM75.09 86.618a.86.86 0 0 1-.181-.69c.048-.226.203-.434.47-.624.266-.19.49-.255.715-.225.225.03.422.162.59.395.156.192.22.442.178.685a1 1 0 0 1-.435.603c-.206.167-.467.25-.731.237a.836.836 0 0 1-.606-.381zm-3.234 2.925l-.885-.99-1.983 1.013.276 1.302-1.812.925-1.141-7.146 2.2-1.127 5.15 5.099-1.805.924zm-1.919-2.168l-.775-.868a43.13 43.13 0 0 1-.664-.751c-.269-.31-.457-.533-.564-.671.047.155.117.414.21.777.094.363.259 1.089.494 2.176l1.3-.663zM63.12 92.4a.86.86 0 0 1 .031-.712c.113-.201.323-.354.632-.457.293-.094.544-.094.751 0 .22.113.382.314.445.553a.854.854 0 0 1-.034.706 1 1 0 0 1-.595.447c-.246.098-.52.1-.768.009a.83.83 0 0 1-.463-.545zm-2.564-.576c.081.393.044.801-.106 1.173-.162.379-.43.702-.773.93-.408.273-.87.456-1.353.537a5.822 5.822 0 0 1-1.147.121 4.246 4.246 0 0 1-1.01-.15l-.31-1.62c.379.112.768.182 1.162.21.354.03.71.015 1.06-.047.27-.052.458-.136.563-.253a.438.438 0 0 0 .12-.397.406.406 0 0 0-.122-.228.88.88 0 0 0-.281-.163c-.125-.049-.452-.136-.978-.262a4.368 4.368 0 0 1-1.098-.392 1.82 1.82 0 0 1-.612-.552 2.177 2.177 0 0 1-.323-.83c-.118-.62.015-1.148.4-1.58.385-.434.973-.726 1.762-.876a5.326 5.326 0 0 1 2.224.077l-.289 1.512c-.685-.17-1.256-.21-1.713-.123-.236.045-.4.12-.492.223a.381.381 0 0 0-.102.34c.034.142.136.26.272.315.157.078.564.198 1.221.358.63.151 1.087.355 1.37.61.283.257.468.612.555 1.067zm-8.836 2.519a.86.86 0 0 1 .206-.683c.159-.168.4-.263.724-.287.309-.023.55.037.727.182.177.145.276.359.297.646a.853.853 0 0 1-.207.675.996.996 0 0 1-.687.287 1.07 1.07 0 0 1-.75-.18.836.836 0 0 1-.31-.64zm-2.449-5.961l-.393 4.106c-.086.893-.405 1.56-.957 2.002-.552.442-1.303.617-2.253.525-.93-.089-1.623-.395-2.076-.92-.454-.523-.638-1.231-.553-2.124l.398-4.15 1.852.178-.383 4.005c-.046.482.011.84.17 1.076.16.235.415.37.767.403.376.035.659-.047.85-.246.19-.2.307-.546.35-1.037l.382-3.994 1.846.176zm-17.853 2.86l-2.133-1.158.103-5.439-.037-.02c-.313.696-.563 1.22-.751 1.571l-1.474 2.716-1.442-.783 3.27-6.025 2.126 1.155-.08 5.38.023.014c.292-.626.537-1.124.737-1.494l1.478-2.723 1.451.787-3.271 6.02zm-10.033-6.375l4.249-5.382 1.46 1.153-4.245 5.382zm-9.34-39.214l-1.262.239-.15 2.148 1.215.421-.137 1.962-6.488-2.624.167-2.381 6.792-1.718-.137 1.953zm-2.75.507l-1.104.208a34.574 34.574 0 0 1-1.79.307c.152.038.4.109.751.213.35.104 1.033.33 2.048.678l.096-1.406zm3.881-6.525l-4.963-.094-.011.04c.795.176 1.408.33 1.84.461l2.753.845-.464 1.518-6.339-1.944.697-2.28 4.904.052.012-.035L7.5 35.527l.697-2.288 6.34 1.937-.482 1.573-2.779-.845a24.91 24.91 0 0 1-.479-.153c-.174-.057-.6-.209-1.279-.454l-.012.04 4.167 2.67-.497 1.628zm2.381-6.289l-5.894-3.033.823-1.601 5.894 3.033zm2.696-8.187c.322.216.573.523.72.882.143.371.176.776.094 1.166a3.354 3.354 0 0 1-.573 1.286 5.56 5.56 0 0 1-.71.858 4.15 4.15 0 0 1-.8.581l-1.31-.911c.337-.18.654-.394.946-.64.265-.219.5-.471.7-.751.152-.219.226-.405.22-.563a.424.424 0 0 0-.187-.356.393.393 0 0 0-.238-.074.869.869 0 0 0-.307.078c-.12.051-.404.211-.853.481-.319.202-.663.36-1.024.47a1.77 1.77 0 0 1-.796.032 2.097 2.097 0 0 1-.785-.356c-.5-.348-.764-.802-.791-1.363-.027-.56.181-1.159.625-1.796a5.133 5.133 0 0 1 1.59-1.45l.822 1.24c-.588.345-1.01.703-1.266 1.073-.134.188-.197.353-.188.486 0 .122.059.235.158.305a.44.44 0 0 0 .402.033c.161-.052.523-.244 1.087-.577.537-.322.99-.49 1.358-.504.4-.003.788.127 1.106.37zm6.73-4.162l-1.278 1.268-1.903-1.918-1.477 1.466 1.903 1.918-1.278 1.268-4.668-4.705 1.277-1.268 1.731 1.744 1.477-1.466-1.731-1.745 1.278-1.268zm12.213-7.027l-1.65.72-1.08-2.478-1.907.831 1.08 2.477-1.65.724-2.65-6.076 1.647-.724.982 2.254 1.908-.831-.982-2.254 1.65-.72zm5.939-1.47l-.58-1.146-2.105.454-.067 1.284-1.924.414.714-6.961 2.336-.503 3.54 6.046-1.914.412zm-1.252-2.504l-.51-1.004a36.2 36.2 0 0 1-.433-.865 16.67 16.67 0 0 1-.358-.767c.006.155.007.416 0 .778-.006.362-.03 1.08-.08 2.16l1.38-.302zm10.805 1.944l-2.347.011-2.441-4.66h-.04c.062.734.093 1.295.093 1.682l.012 2.988-1.587.006-.027-6.628 2.34-.01 2.431 4.597h.026a24.86 24.86 0 0 1-.068-1.61l-.012-2.997 1.596-.006.024 6.628zm8.24-2.005c-.22 1.084-.69 1.858-1.409 2.322-.718.465-1.617.587-2.696.366l-2.1-.43L56.05 5.7l2.248.459c1.042.213 1.793.644 2.253 1.293.46.648.585 1.476.376 2.483zm-1.834-.31c.122-.595.094-1.06-.083-1.396-.177-.335-.505-.552-.983-.65l-.51-.104-.743 3.638.39.08c.534.108.956.034 1.268-.225.312-.258.532-.706.66-1.343zm7.596.529a1.14 1.14 0 0 0-1.121.109c-.353.232-.644.632-.874 1.202-.482 1.181-.273 1.955.625 2.32.267.11.548.18.835.21.292.028.586.041.88.039l-.572 1.403a4.587 4.587 0 0 1-1.878-.37c-.926-.375-1.527-.933-1.802-1.674-.275-.74-.205-1.616.209-2.629a4.005 4.005 0 0 1 1.046-1.531 2.765 2.765 0 0 1 1.48-.688 3.375 3.375 0 0 1 1.744.258c.659.267 1.249.68 1.726 1.207l-1.04 1.099a6.218 6.218 0 0 0-.571-.547 2.581 2.581 0 0 0-.687-.408zm4.202 5.361l-1.298 2.034-1.51-.962 3.56-5.59 1.831 1.167c1.52.969 1.928 2.002 1.226 3.099-.41.654-1.045.955-1.903.903l.077 3.474-1.713-1.09.111-2.79-.381-.245zm.723-1.136l.282.18c.527.337.94.272 1.237-.195.246-.385.11-.742-.408-1.071l-.298-.188-.813 1.274zm5.166 8.859l.614-1.126-1.567-1.477-1.096.674-1.432-1.35 6.137-3.36 1.739 1.638-2.97 6.345-1.425-1.344zm1.351-2.451l.538-.988c.118-.222.275-.503.47-.845.195-.342.338-.585.429-.73-.126.094-.339.242-.64.444-.3.201-.907.587-1.821 1.155l1.024.964zm1.953 6.328l-1.058-1.409 5.302-3.978 2.347 3.132-1.15.863-1.292-1.722-1.011.759 1.191 1.588-1.15.863-1.19-1.588zm3.612 5.807l-.845-1.581 4.566-2.42-.76-1.43 1.293-.687 2.358 4.435-1.295.686-.758-1.425zm2.641 6.664l-1.282-3.717 6.268-2.16 1.28 3.721-1.358.47-.698-2.031-.986.339.646 1.877-1.358.47-.647-1.878-1.183.407.698 2.028zm4.779 6.771c-1.093.173-1.982.005-2.668-.503-.686-.509-1.115-1.308-1.287-2.398l-.335-2.118 6.548-1.033.357 2.266c.166 1.052.026 1.905-.421 2.561-.447.656-1.178 1.065-2.194 1.225zm-.352-1.826c.6-.095 1.026-.283 1.278-.564.252-.28.34-.664.264-1.15l-.082-.516-3.667.58.062.394c.085.537.305.907.657 1.108.352.202.849.25 1.488.148zM10.861 70.019l-.177-2.18-1.897-1.09 2.018-.843.45-2.14 1.426 1.658 2.174-.232-1.137 1.868.894 1.996-2.128-.505zm73.733-4.882l2.177.22 1.416-1.668.463 2.138 2.023.831-1.89 1.102-.165 2.18-1.631-1.457L84.86 69l.883-2.002z"/><path d="M37.033 41.667c-1.683-.783-2.876-2.382-3.36-4.503a8.305 8.305 0 0 1-.147-3.045c-1.71-1.573-2.87-3.64-3.385-6.044-.515-2.405-.352-5.036.448-7.459.684-2.074 1.913-4.095 3.553-5.842 1.64-1.748 3.574-3.099 5.593-3.904l1.478-.587 3.633 3.186c.266.233 1.072.94.988 2.22l-.119 1.818-1.753.504c-2.954.852-4.985 2.24-6.206 4.247-1.52 2.496-1.577 5.19-.98 6.811a9.484 9.484 0 0 1 2.166-1.098 7.548 7.548 0 0 1 2.594-.46c1.087 0 2.213.244 3.443.743a5.952 5.952 0 0 1 1.917 1.272 5.43 5.43 0 0 1 1.314 2.03c.934 2.65-.392 3.798-2.787 4.695-.835.311-2.462 1.703-3.429 1.703a9.893 9.893 0 0 1-1.755-.162l.801.953-2.709 3.53-1.298-.608z" fill="#FFF"/><path d="M37.986 40.868l-.478-.223c-1.38-.642-2.326-1.933-2.738-3.732a6.915 6.915 0 0 1-.013-3.218c-1.794-1.457-3.005-3.474-3.514-5.852-.47-2.194-.323-4.635.415-6.87 1.29-3.903 4.703-7.541 8.494-9.052l.837-.333 3.114 2.732c.212.188.658.575.607 1.297l-.068 1.033-.991.281c-3.239.934-5.482 2.485-6.855 4.744-1.855 3.05-1.784 6.322-.896 8.212.154.324.332.636.534.933.762-.767 1.732-1.366 2.894-1.784 1.681-.607 3.294-.525 5.229.262.577.24 1.103.59 1.546 1.03.463.448.819.993 1.043 1.597.694 1.972-.94 3.788-2.833 4.495-1.99.744-4.11.31-5.54-.188l-.118-.04c-.045.358-.029.722.05 1.076a2.6 2.6 0 0 0 .547 1.094l.339.405-1.605 2.1zm2.74-27.761l-.088.035c-3.45 1.375-6.557 4.688-7.731 8.243-.666 2.018-.8 4.213-.376 6.183.476 2.222 1.644 4.073 3.38 5.352l.389.288-.158.456c-.299.865-.328 1.886-.084 2.954.268 1.17.803 2.049 1.562 2.574l.314-.413a3.894 3.894 0 0 1-.505-1.212 4.647 4.647 0 0 1 .13-2.45l.216-.672.657.264c.207.083.462.177.778.286 1.221.426 3.023.804 4.646.197 1.042-.39 2.52-1.502 2.054-2.826a2.987 2.987 0 0 0-.726-1.105 3.474 3.474 0 0 0-1.125-.745c-1.635-.664-2.916-.738-4.288-.243-1.22.442-2.185 1.112-2.854 1.987l-.496.652-.528-.627a8.45 8.45 0 0 1-1.184-1.833c-1.042-2.21-1.148-5.991.961-9.458 1.555-2.555 4.048-4.296 7.616-5.325l.105-.03.007-.108c0-.063.005-.077-.162-.222l-2.51-2.202zm.025 21.177c-.546 0-1.09-.064-1.622-.188l-1.094-.254.757-.829a6.28 6.28 0 0 1 2.434-1.67c.267-.088.544-.144.824-.167a9.337 9.337 0 0 1 1.018-.056h.512l.135.535c.086.285.12.583.1.88l-.653-.075.652.074c-.121 1.077-1.348 1.597-2.455 1.719a5.035 5.035 0 0 1-.608.03zm1.729-1.828a7.129 7.129 0 0 0-.282.026 2.723 2.723 0 0 0-.513.094 4.35 4.35 0 0 0-.8.392h.104c.073 0 .148-.008.223-.017.678-.082 1.149-.32 1.268-.495z" fill="#B4ABAB"/><path d="M39.249 32.846c-.205.376-1.262.705-1.71 3.286" fill="#FFF"/><path d="M38.013 36.299l-.736-.129c.368-2.123 1.151-2.841 1.572-3.227.065-.054.124-.114.178-.179l.658.36c-.089.143-.2.27-.331.376-.381.345-1.016.927-1.34 2.799z" fill="#B4ABAB"/><path d="M37.285 31.262c-.204.376-1.363.716-1.81 3.301" fill="#FFF"/><path d="M35.844 34.627l-.74-.127c.367-2.12 1.209-2.848 1.661-3.24.068-.054.13-.114.188-.18l.657.361a1.48 1.48 0 0 1-.357.387c-.404.353-1.087.942-1.409 2.8zm10.353-1.319c-.703-1.084-1.942-1.562-3.682-1.423-.064.008-.13.01-.195.008l.064-.751h-.022l.093-.007c1.399-.112 3.293.103 4.371 1.762l-.629.411z" fill="#B4ABAB"/></g></svg>