<svg width="100" height="100" xmlns="http://www.w3.org/2000/svg"><g fill="none"><circle fill="#FFF" cx="49.875" cy="49.969" r="49.218"/><path d="M49.875 99.845C26.153 99.83 5.722 83.112 1.012 59.862c-4.71-23.25 7.604-46.602 29.45-55.848 25.38-10.722 54.647 1.161 65.369 26.542 10.722 25.38-1.161 54.647-26.542 65.369a49.563 49.563 0 0 1-19.414 3.92zm0-98.437C26.778 1.423 6.885 17.701 2.3 40.338c-4.586 22.638 7.404 45.374 28.675 54.377C55.678 105.118 84.14 93.543 94.57 68.85c10.431-24.692-1.112-53.167-25.794-63.626a48.25 48.25 0 0 0-18.902-3.816z" fill="#B4ABAB"/><path d="M74.038 73.277a5.468 5.468 0 0 1-1.69-3.247.699.699 0 0 0-.198-.4v-.636c0-3.35 2.625-6.077 5.85-6.077h.873a.407.407 0 0 0 .107.01 5.592 5.592 0 0 1 1.97.23c.22-.5.43-1.005.627-1.514a7.97 7.97 0 0 0-10.302 4.085h-5.722v-1.963h.275c.555 0 1.005-.45 1.006-1.005v-2.213c0-.555-.45-1.005-1.006-1.005h-3.633V31.789a.61.61 0 0 0-.61-.61H40.06a.61.61 0 0 0-.61.61v32.314h-.483a.383.383 0 0 0-.496-.041l-1.955 1.408v-1.526h2.118a.384.384 0 0 0 0-.767H36.28a.703.703 0 0 0-.47-.18h-.178v-2.366h1.023a.7.7 0 0 0 .518-.227h1.459a.384.384 0 0 0 0-.767H37.36V26.53h27.222a.46.46 0 0 0-.063.23v31.816a.47.47 0 1 0 .94 0V26.761a.47.47 0 0 0-.064-.23h9.364a34.76 34.76 0 0 0-1.393-1.409H36.654a.704.704 0 0 0-.705.704v33.397h-.5a1.23 1.23 0 0 0-1.227 1.227v2.73a1.23 1.23 0 0 0 .882 1.177v1.589l-9.61 6.686c.403.427.815.844 1.238 1.25l20.658-.086c.064 0 .127-.02.18-.055l13.033-8.695h.454l-.007.883-5.18 3.587a.701.701 0 0 0-.292.094l-1.021.613a.224.224 0 0 0-.032.02L47.457 75l-19.591-.08c.56.49 1.135.962 1.727 1.416l18.076.073c.14 0 .277-.042.393-.12l1.14-.76c.478.093.965.14 1.452.14 3.242 0 5.968-2.018 6.761-4.757l13.65-.082a6.927 6.927 0 0 0 1.96 3.427c.344-.32.682-.647 1.013-.98zm-26.747-.138l-20.18.084 9.102-6.331a.703.703 0 0 0 .293-.47l2.155-1.553h.97a.61.61 0 0 0 .43.176h19.36l-12.13 8.094zm13.684-9.314h-5.863v-16.54a.282.282 0 0 0-.564 0v16.54h-11.04v-17.44h8.041a.46.46 0 0 0 .094.01h9.329l.003 17.43zm0-18.367h-2.676v-8.77a.282.282 0 1 0-.564 0v8.77h-5.373v-9.72h8.613v9.72zm0-11.035h-9.27a.657.657 0 0 0-.658.657v9.99H42.85a.657.657 0 0 0-.658.658v18.097H40.67V32.4h20.305v2.024zm1.22 25.886h3.633c.132 0 .239.107.239.238v2.213a.238.238 0 0 1-.239.238h-3.633v-2.69zm2.42 9.151l-6.906.041 4.152-2.877a.515.515 0 0 0 .223-.42l.01-1.433a.591.591 0 0 0 .101-.335v-.67h2.42v5.694zm6.052-.036l-5.114.03v-2.96h5.433a7.543 7.543 0 0 0-.32 2.93z" fill="#B4ABAB"/><path d="M75.657 64.208a6.658 6.658 0 0 0-1.247 8.687c.135-.14.268-.282.4-.423a6.092 6.092 0 0 1 1.21-7.834.282.282 0 0 0-.363-.43zm-.047 4.814c-.002.68.18 1.349.526 1.935.173-.21.343-.423.51-.638a3.057 3.057 0 0 1-.28-1.297c0-1.624 1.252-2.944 2.792-2.944.106 0 .212.007.317.02.13-.231.258-.464.384-.698a3.392 3.392 0 0 0-.701-.073c-1.959 0-3.549 1.657-3.549 3.695zm-7.723-37.338c0 .155.126.281.282.281h10.717a55.436 55.436 0 0 0-.352-.563H68.17a.282.282 0 0 0-.282.282zM35.905 67.713h17.862c.106 0 .192-.112.192-.25s-.086-.25-.192-.25H35.905c-.106 0-.191.112-.191.25s.085.25.191.25zM33.16 70.5h15.65c.106 0 .192-.111.192-.25 0-.137-.086-.25-.192-.25H33.16c-.106 0-.192.113-.192.25 0 .139.086.25.192.25z" fill="#B4ABAB"/><path fill="#FFF" d="M29.485 58.627l8.8-5.635 8.61-.247 5.69 12.348-8.501 5.887-8.755.138z"/><path d="M35.329 71.776a.657.657 0 0 1-.596-.376L28.89 58.912a.657.657 0 0 1 .241-.832l8.8-5.634c.1-.064.216-.1.336-.103l8.61-.248a.657.657 0 0 1 .616.382l5.69 12.348a.657.657 0 0 1-.225.809l-8.502 5.886a.657.657 0 0 1-.364.118l-8.755.138h-.008zm-5-12.903l5.418 11.584 8.127-.128 7.888-5.46-5.277-11.455-7.995.23-8.161 5.23z" fill="#B4ABAB"/><path d="M43.204 69.577a.282.282 0 0 1-.257-.164 2247.12 2247.12 0 0 0-4.45-9.568.282.282 0 0 1 .51-.24c.03.064 2.94 6.292 4.451 9.57a.282.282 0 0 1-.138.375.282.282 0 0 1-.116.027zm-11.737-10.5a.282.282 0 0 1-.006-.563l6.553-.125 7.376-4.736a.282.282 0 1 1 .304.474l-7.443 4.78a.282.282 0 0 1-.147.043l-6.632.126-.005.001zM42.636 31.8l9.113 7.04v-3.71l9.584.057.223-3.775zm4.62 41.686h1v2.095h-1z" fill="#B4ABAB"/><path d="M49.98 85.509c-18.48-.026-33.939-14.046-35.763-32.436-1.825-18.391 10.577-35.175 28.692-38.832 18.116-3.657 36.057 7.002 41.51 24.66 5.452 17.66-3.357 36.578-20.381 43.77A35.885 35.885 0 0 1 49.98 85.51zm0-71.174c-17.953.026-32.968 13.646-34.74 31.511-1.771 17.866 10.278 34.17 27.876 37.72 17.599 3.55 35.026-6.806 40.32-23.961C88.73 42.45 80.17 24.074 63.631 17.089a34.841 34.841 0 0 0-13.65-2.753z" fill="#B4ABAB"/><path fill="#B4ABAB" d="M20.063 24.909l-2.41 3.166-5.328-4.068 2.411-3.162 1.155.882-1.314 1.724.838.64 1.22-1.597 1.156.882-1.221 1.596 1.006.768 1.314-1.724zm1.252-1.392l-4.646-4.832 1.305-1.255 3.634 3.776 1.86-1.79 1.014 1.053zm4.607-4.137l-3.986-5.39 1.464-1.082 3.985 5.39zm3.749-7.08l2.555-1.358 1.696 3.192a7.921 7.921 0 0 1-2.099 1.572c-.91.486-1.756.596-2.535.332-.778-.265-1.43-.887-1.955-1.865-.508-.955-.63-1.843-.368-2.665.263-.822.886-1.494 1.868-2.016.353-.19.726-.343 1.11-.455.329-.097.666-.16 1.006-.188l.162 1.524a3.536 3.536 0 0 0-1.573.425c-.466.25-.748.595-.845 1.033-.097.438.006.939.31 1.502.293.554.633.915 1.019 1.082.385.167.795.136 1.229-.094a3.27 3.27 0 0 0 .618-.417l-.492-.927-1.057.563-.649-1.24zm10.189.158l-.682-1.105-2.083.634.042 1.3-1.904.58.131-7.075 2.312-.705 4.079 5.794-1.895.577zm-1.474-2.417l-.597-.969a42.484 42.484 0 0 1-.511-.835 14.659 14.659 0 0 1-.425-.744c.02.158.042.419.068.785.026.366.061 1.092.1 2.178l1.365-.415zm3.998-5.011l2.324-.258c.905-.102 1.592-.042 2.061.178.469.22.735.615.798 1.182a1.6 1.6 0 0 1-.181.99 1.287 1.287 0 0 1-.7.594l.006.046c.426.062.745.211.958.446.213.236.342.557.388.963.068.605-.106 1.105-.522 1.502-.415.397-1.015.64-1.799.729l-2.593.288-.74-6.66zm2.084 2.356l.542-.06a.988.988 0 0 0 .582-.226.563.563 0 0 0 .16-.498c-.042-.376-.345-.532-.91-.47l-.507.057.133 1.197zm.146 1.314l.156 1.399.633-.07c.563-.063.818-.331.764-.805a.613.613 0 0 0-.282-.485c-.163-.102-.387-.137-.673-.105l-.598.066zm5.485 2.43l.367-6.692 1.808.098-.287 5.23 2.577.141-.08 1.46zm10.032 1.334l-3.893-.82 1.384-6.56 3.893.822-.3 1.418-2.122-.447-.218 1.033 1.97.416-.3 1.421-1.97-.414-.26 1.239 2.122.447zm9.329 3.928l-1.545-.892 3.353-5.804 3.43 1.98-.726 1.26-1.886-1.09-.64 1.112 1.739 1.004-.727 1.259-1.739-1.005zm10.337 3.514c-.727.863-1.49 1.34-2.292 1.433-.801.093-1.61-.204-2.425-.891-.805-.68-1.23-1.427-1.277-2.239-.047-.812.292-1.65 1.016-2.513.719-.853 1.481-1.325 2.286-1.416.805-.092 1.615.206 2.43.892.813.688 1.243 1.432 1.29 2.232.047.8-.295 1.633-1.028 2.502zm-3.528-2.97c-.835.99-.908 1.777-.217 2.358.35.295.711.393 1.084.296.373-.098.774-.402 1.202-.912.43-.511.663-.962.698-1.351.034-.39-.12-.728-.461-1.015-.695-.588-1.464-.381-2.306.62v.003zm5.643 6.793l-1.898 1.53-1.14-1.41 5.214-4.21 1.38 1.707c1.145 1.418 1.203 2.542.175 3.371-.603.487-1.308.57-2.115.247l-1.045 3.355-1.291-1.596 1.004-2.638-.284-.356zm1.059-.856l.213.264c.398.493.814.564 1.249.211.359-.29.343-.676-.046-1.158l-.225-.282-1.191.965zm8.274 31.261l.273-2.97 3.711.34a8.2 8.2 0 0 1 .17 2.699c-.097 1.06-.48 1.853-1.15 2.375-.668.523-1.573.732-2.712.627-1.111-.102-1.947-.498-2.507-1.19s-.788-1.608-.683-2.75c.036-.412.115-.82.236-1.215.1-.339.236-.666.403-.977l1.408.722a3.662 3.662 0 0 0-.517 1.597c-.05.544.089.98.414 1.308.326.33.817.524 1.473.585.644.059 1.146-.03 1.508-.268.362-.238.566-.61.613-1.114a3.425 3.425 0 0 0-.01-.77l-1.078-.1-.112 1.23-1.44-.129zm3.046 6.959l-.751 2.331-5.41.906-.014.04c.748.178 1.313.33 1.697.453l2.965.96-.509 1.574-6.578-2.126.751-2.321 5.346-.918.008-.026a28.15 28.15 0 0 1-1.618-.453l-2.973-.962.508-1.584 6.578 2.126zM89.82 72.228l-6.117-3.22.874-1.662 6.119 3.22zm-5.29-.158c.626.455.973.99 1.043 1.606.07.615-.142 1.262-.635 1.94l-.31.424 1.85 1.352-1.099 1.51-5.584-4.077 1.409-1.933c.516-.707 1.058-1.124 1.624-1.249.567-.125 1.134.017 1.702.426zm-1.127 3.073l.2-.275a.93.93 0 0 0 .204-.68.86.86 0 0 0-.376-.585c-.376-.275-.716-.204-1.023.213l-.281.39 1.276.937zm-3.377 2.791c.533.56.779 1.15.738 1.768-.04.62-.365 1.218-.972 1.795l-.376.361 1.58 1.663-1.354 1.287-4.762-5.012 1.734-1.648c.633-.602 1.24-.915 1.82-.939.58-.023 1.11.218 1.592.725zm-1.664 2.817l.247-.235a.928.928 0 0 0 .322-.631.855.855 0 0 0-.269-.645c-.321-.338-.67-.329-1.044.027l-.35.332 1.094 1.152zm-2.947 7.216l-3.986-5.649 1.534-1.081 3.986 5.648zm-2.941 1.927l-1.69.819-1.23-2.536-1.948.947 1.229 2.535-1.69.819-3.014-6.22 1.69-.819 1.119 2.307 1.953-.948-1.118-2.306 1.69-.819zm-8.96 1.656c.11.389.102.802-.024 1.187a2.132 2.132 0 0 1-.71.99 3.499 3.499 0 0 1-1.324.637 5.9 5.9 0 0 1-1.144.203 4.304 4.304 0 0 1-1.033-.077l-.426-1.61c.388.086.785.13 1.183.13a4.15 4.15 0 0 0 1.064-.123c.267-.071.452-.17.553-.295a.446.446 0 0 0-.045-.629.906.906 0 0 0-.298-.143 9.946 9.946 0 0 0-1.003-.195 4.4 4.4 0 0 1-1.133-.316 1.824 1.824 0 0 1-.658-.512 2.197 2.197 0 0 1-.384-.813c-.163-.615-.066-1.154.29-1.618.357-.464.927-.799 1.71-1.005a5.38 5.38 0 0 1 2.245-.081l-.188 1.54c-.7-.12-1.278-.12-1.733 0-.234.063-.394.15-.479.26a.385.385 0 0 0-.078.348.456.456 0 0 0 .296.299c.163.067.582.158 1.254.274.645.106 1.119.278 1.42.516.302.239.517.583.645 1.032zm-14.904.661c-.12 1.148-.528 1.998-1.225 2.552-.697.554-1.617.772-2.762.653l-2.224-.234.721-6.875 2.38.249c1.103.118 1.925.49 2.466 1.115.541.626.756 1.473.644 2.54zm-1.934-.137c.063-.63-.013-1.11-.227-1.44-.214-.33-.577-.522-1.088-.576l-.541-.056-.404 3.85.414.043c.563.059.994-.062 1.293-.362.299-.3.483-.786.553-1.459zm-7.571 2.395l-3.934-1.17 1.972-6.627 3.934 1.17-.427 1.438-2.146-.642-.31 1.044 1.985.59-.427 1.437-1.985-.59-.375 1.25 2.143.638zm-7.441-2.456l-2.165-1.144.043-5.486-.039-.02c-.304.705-.55 1.237-.74 1.597l-1.455 2.755-1.464-.773 3.23-6.113 2.16 1.14-.023 5.42.026.014c.286-.635.528-1.14.725-1.516l1.465-2.764 1.472.778-3.235 6.112zM21.47 85.695l4.226-5.474 1.486 1.146-4.225 5.474zm-1.111-10.62l1.667 1.743c.65.682 1.03 1.282 1.144 1.802.113.52-.043.984-.47 1.394a1.647 1.647 0 0 1-.923.47 1.33 1.33 0 0 1-.925-.201l-.034.032c.214.389.292.744.234 1.065-.059.322-.24.63-.546.921-.453.434-.973.606-1.56.515-.586-.09-1.16-.43-1.723-1.019l-1.86-1.943 4.996-4.779zm-1.613 4.132l-1.05 1 .455.475c.403.422.782.462 1.137.122a.635.635 0 0 0 .222-.535c-.02-.198-.132-.404-.336-.618l-.428-.444zm.987-.945l.39.407c.14.168.334.285.548.334a.575.575 0 0 0 .507-.18c.28-.269.218-.615-.187-1.039l-.364-.376-.894.854zm-9.36-5.621l3.56-3.756-.022-.036c-.696.49-1.245.855-1.649 1.095L9.68 71.476l-.845-1.422 5.944-3.531 1.27 2.139-3.484 3.746.02.033 4.942-1.29 1.272 2.142-5.944 3.53-.877-1.476 2.607-1.548c.135-.08.287-.167.454-.262.168-.095.584-.316 1.25-.667l-.022-.036-4.986 1.338-.908-1.53zm.314-7.101c-1.113.334-2.042.315-2.787-.058-.744-.373-1.273-1.086-1.588-2.14-.313-1.038-.26-1.922.157-2.65.419-.73 1.184-1.262 2.296-1.597 1.103-.33 2.027-.308 2.773.068.746.377 1.278 1.09 1.596 2.142.317 1.054.268 1.939-.146 2.656-.415.716-1.181 1.243-2.3 1.579zm-1.366-4.556c-1.28.384-1.786 1.021-1.52 1.912.136.453.392.742.769.868s.894.09 1.553-.108c.661-.197 1.116-.455 1.365-.771.25-.317.308-.696.175-1.137-.269-.896-1.05-1.15-2.342-.764zm.862-6.553a1.189 1.189 0 0 0-.635-.989c-.384-.216-.895-.297-1.532-.241-1.326.116-1.945.678-1.856 1.685.025.3.094.595.204.876.113.284.24.563.382.834l-1.573.138a4.806 4.806 0 0 1-.552-1.917c-.091-1.04.14-1.862.695-2.47.555-.607 1.402-.96 2.542-1.06a4.186 4.186 0 0 1 1.915.24 2.883 2.883 0 0 1 1.347 1.05 3.51 3.51 0 0 1 .59 1.74 4.9 4.9 0 0 1-.298 2.176l-1.514-.442c.095-.258.173-.522.234-.79a2.69 2.69 0 0 0 .051-.83zM7.905 35.655l1.843-.04 1.012-1.54.608 1.74 1.778.485-1.467 1.116.086 1.842-1.514-1.051-1.724.652.531-1.765zm82.35-.507l.807 1.659 1.823.275-1.327 1.28.302 1.817-1.627-.866-1.637.849.321-1.816-1.312-1.293 1.825-.256z"/></g></svg>