<svg width="100" height="100" xmlns="http://www.w3.org/2000/svg"><g fill="none"><circle fill="#FFF" cx="49.875" cy="49.969" r="49.218"/><path d="M49.875 99.845C26.153 99.83 5.722 83.112 1.012 59.862c-4.71-23.25 7.604-46.602 29.45-55.848 25.38-10.722 54.647 1.161 65.369 26.542 10.722 25.38-1.161 54.647-26.542 65.369a49.563 49.563 0 0 1-19.414 3.92zm0-98.437C26.778 1.423 6.885 17.701 2.3 40.338c-4.586 22.638 7.404 45.374 28.675 54.377C55.678 105.118 84.14 93.543 94.57 68.85c10.431-24.692-1.112-53.167-25.794-63.626a48.25 48.25 0 0 0-18.902-3.816z" fill="#B4ABAB"/><path d="M49.875 85.419c-18.152-.024-33.335-13.792-35.128-31.855-1.794-18.063 10.386-34.548 28.178-38.14 17.793-3.593 35.415 6.875 40.77 24.219C89.05 56.987 80.4 75.567 63.678 82.632a35.225 35.225 0 0 1-13.803 2.787zm0-69.96c-17.666.024-32.442 13.424-34.187 31.003-1.745 17.58 10.109 33.623 27.425 37.119 17.317 3.495 34.466-6.693 39.678-23.573 5.211-16.88-3.21-34.962-19.483-41.837a34.296 34.296 0 0 0-13.433-2.712z" fill="#B4ABAB"/><path d="M37.386 74.45a3.517 3.517 0 0 1-1.551-.366 8.826 8.826 0 0 1-1.784-1.163c-4.943-4.028-9.826-13.713-10.868-16.75l-.334-.834a.833.833 0 0 1-.018-.052c-.362-1.117-1.01-4.016.784-6.796 1.972-3.05 6.189-4.957 12.544-5.67a.798.798 0 0 1 .882.707c.053.482.505 4.825.072 8.882-.174 1.639-.35 3.099-.504 4.384l-.083.697a24.078 24.078 0 0 1 4.552 4.27c.432.53 1.84 2.317 1.842 3.147.007 2.406-.463 4.546-1.395 6.36-.735 1.43-1.544 2.202-1.794 2.377-.756.535-1.556.807-2.345.807zm-1.074-15.126a65.603 65.603 0 0 0-.452 6.582c-.055 3.632.764 5.645 2.723 6.583.079-.046.153-.094.224-.144.077-.066 2.511-2.239 2.52-7.364-.192-.526-1.904-3.221-5.015-5.657zm-11.97-4.555l.331.828.014.04c.863 2.535 5.623 12.179 10.374 16.056l.008.007c.234.196.48.377.737.542-1.394-1.837-1.572-4.36-1.542-6.355.05-3.373.364-5.98.76-9.28.154-1.282.328-2.735.502-4.363.323-3.035.13-6.248 0-7.735-5.402.715-8.958 2.347-10.574 4.85-1.406 2.18-.903 4.492-.61 5.41z" fill="#B4ABAB"/><path d="M42.6 64.105l1.86-.268.956-.133c.163-.02.328-.027.493-.022.177.004.353.03.524.077a.98.98 0 0 1 .22 1.788l-.028.016a2.477 2.477 0 0 1-.965.288c-.338.033-.682.056-1.028.065-.347.01-.699.006-1.054-.02a6.661 6.661 0 0 1-1.073-.15.833.833 0 0 1 .065-1.637l.03-.004zm-15.124-1.263a.282.282 0 0 1-.272-.199c-1.007-3.112-.308-5.939 1.143-9.482 1.297-3.165 4.56-6.624 7.58-9.591a.287.287 0 0 1 .403.41c-2.98 2.925-6.198 6.33-7.452 9.398-1.403 3.424-2.08 6.138-1.127 9.09a.287.287 0 0 1-.273.375h-.002z" fill="#B4ABAB"/><path d="M35.277 63.576a7.503 7.503 0 0 0 1.596.608c.564.148 1.139.253 1.719.313 1.158.124 2.328.102 3.48-.068a.526.526 0 1 1 .154 1.04h-.02c-1.243.133-2.498.11-3.735-.072-.618-.09-1.23-.226-1.828-.407a8.34 8.34 0 0 1-1.747-.752.385.385 0 0 1 .375-.672l.006.01zM62.283 43.53a.8.8 0 0 1-.365-.088c-.432-.222-4.308-2.241-7.451-4.834-1.272-1.05-2.392-1.999-3.38-2.836l-.537-.455a24.091 24.091 0 0 1-6.072 1.446c-.679.07-2.947.259-3.64-.197-2.012-1.32-3.54-2.89-4.54-4.67-.787-1.4-.985-2.5-.995-2.805-.05-1.547.583-2.789 1.784-3.494a8.826 8.826 0 0 1 1.954-.851c6.083-1.9 16.857-.642 19.965.164l.88.18.053.013c1.131.314 3.908 1.371 5.24 4.4 1.46 3.322.726 7.895-2.182 13.592a.794.794 0 0 1-.47.396.783.783 0 0 1-.244.04zm-23.26-16.953c2.16 0 4.213 1.166 5.77 2.228 2.786 1.901 4.788 3.6 7.323 5.749.985.835 2.1 1.784 3.364 2.822 2.347 1.94 5.142 3.55 6.452 4.266 2.38-4.902 2.979-8.768 1.779-11.496-1.046-2.382-3.252-3.236-4.18-3.497l-.873-.18-.041-.01c-2.59-.676-13.261-2.019-19.11-.188h-.01c-.293.088-.58.193-.86.316.131-.006.259-.01.386-.01zm2.63 8.616c.543.133 3.736.188 7.483-1.065a65.685 65.685 0 0 0-5.244-4.004c-2.999-2.049-5.131-2.472-6.99-1.358a2.36 2.36 0 0 0 0 .266c.008.101.48 3.33 4.752 6.161h-.001z" fill="#B4ABAB"/><path d="M41.683 36.74l-.801 1.7-.413.872a3.314 3.314 0 0 1-.252.423 2.18 2.18 0 0 1-.353.396.98.98 0 0 1-1.614-.802v-.033c.03-.338.13-.665.292-.963.16-.3.328-.6.512-.895.185-.299.384-.589.598-.868.216-.29.456-.561.716-.812a.833.833 0 0 1 1.327.956l-.012.027zm20.53 6.09a.286.286 0 0 1-.282-.232c-.8-4.098-1.869-8.657-3.737-11.397-2.084-3.057-3.976-5.12-6.963-5.95a.287.287 0 0 1 .154-.552c3.155.878 5.126 3.015 7.283 6.179 1.925 2.825 3.015 7.454 3.826 11.61a.282.282 0 0 1-.28.342z" fill="#B4ABAB"/><path d="M46.159 30.922a7.512 7.512 0 0 0-1.388.997c-.432.389-.834.809-1.203 1.258a13.792 13.792 0 0 0-1.862 2.942.526.526 0 0 1-.955-.438l.009-.018a14.775 14.775 0 0 1 2.117-3.08 12.37 12.37 0 0 1 1.348-1.302 8.288 8.288 0 0 1 1.586-1.046.385.385 0 1 1 .355.683l-.007.004zm15.897 43.77c-.21 0-.422-.008-.641-.027-3.616-.305-7.282-3.135-10.892-8.412a.798.798 0 0 1 .21-1.111c.4-.273 4.026-2.712 7.808-4.234a307.284 307.284 0 0 1 4.106-1.614l.657-.254c.28-2.07.83-4.096 1.632-6.025.264-.63 1.182-2.712 1.914-3.103 2.12-1.136 4.23-1.726 6.27-1.755 1.607-.023 2.668.33 2.941.47 1.383.696 2.17 1.844 2.218 3.234a8.843 8.843 0 0 1-.188 2.122c-1.237 6.253-7.494 15.117-9.686 17.458l-.58.688a.49.49 0 0 1-.037.04c-.766.789-2.784 2.523-5.732 2.523zM52.3 66.016c3.17 4.434 6.278 6.807 9.248 7.058 2.592.219 4.397-1.314 5.07-2l.576-.68.029-.032c1.831-1.952 8.111-10.684 9.295-16.696a7.27 7.27 0 0 0 .133-.916c-.966 2.093-3.11 3.435-4.882 4.346-3.005 1.539-5.452 2.487-8.551 3.687-1.204.47-2.568.994-4.087 1.606-2.827 1.138-5.574 2.819-6.83 3.627zm15.36-14.73c-.375.414-1.952 3.192-2.641 7.081a65.59 65.59 0 0 0 6.023-2.692c3.232-1.656 4.625-3.326 4.535-5.493a2.547 2.547 0 0 0-.232-.13c-.095-.037-3.157-1.166-7.685 1.233z" fill="#B4ABAB"/><path d="M66.291 50.57l-1.11-1.516-.563-.78a3.291 3.291 0 0 1-.252-.426 2.169 2.169 0 0 1-.178-.499.98.98 0 0 1 1.475-1.033l.028.017c.282.188.523.433.706.718.188.281.37.575.542.878.172.302.333.613.476.939.152.328.278.669.376 1.017a.834.834 0 0 1-1.476.711l-.024-.025zM62.12 68.35c-3.236 0-7.249-1.116-10.83-2.246a.287.287 0 0 1 .173-.546c3.982 1.256 8.498 2.496 11.797 2.165 3.682-.369 6.397-1.045 8.555-3.272a.287.287 0 1 1 .411.399c-2.279 2.352-5.098 3.06-8.909 3.443-.385.039-.784.058-1.198.057z" fill="#B4ABAB"/><path d="M69.258 57.285a7.502 7.502 0 0 0-.212-1.698 11.586 11.586 0 0 0-.529-1.66 13.853 13.853 0 0 0-1.694-3.035.526.526 0 0 1 .845-.624l.012.017a14.805 14.805 0 0 1 1.69 3.33c.212.588.379 1.192.499 1.806.126.622.18 1.258.16 1.893a.385.385 0 1 1-.77-.014v-.015zm1.287 33.41l-2.357.984-4.386-3.673-.041.017c.365.713.629 1.264.791 1.652l1.252 3.001-1.596.664-2.774-6.655 2.347-.979 4.35 3.612.028-.011a32.819 32.819 0 0 1-.741-1.589l-1.256-3.004 1.602-.669 2.78 6.65zm-9.881 3.584l-4.205.8L55.111 88l4.204-.802.293 1.535-2.292.436.213 1.115 2.122-.404.292 1.535-2.121.404.254 1.337 2.291-.437zm-7.576 1.177l-4.279.094-.15-7.207 4.278-.094.033 1.563-2.332.047.024 1.133 2.16-.045.032 1.563-2.16.045.028 1.36 2.33-.046zm-10.94-3.249l-.43 2.587-1.92-.318 1.18-7.112 2.329.386c1.933.321 2.783 1.182 2.55 2.583-.136.823-.643 1.394-1.523 1.711l1.558 3.443-2.18-.37-1.077-2.838-.487-.072zm.24-1.445l.36.06c.671.111 1.056-.13 1.154-.723.081-.49-.207-.79-.865-.899l-.376-.063-.273 1.625zM34.68 88.4l2.894 1.144-1.424 3.613a8.527 8.527 0 0 1-2.75-.62c-1.034-.41-1.715-1.025-2.041-1.846-.327-.821-.273-1.787.162-2.898.428-1.081 1.07-1.801 1.926-2.16.856-.357 1.84-.317 2.952.123a6.22 6.22 0 0 1 1.147.591c.31.2.597.431.86.69l-1.136 1.195a3.808 3.808 0 0 0-1.45-.987c-.528-.208-1.004-.198-1.43.031-.424.23-.763.664-1.015 1.303-.25.626-.309 1.156-.175 1.588.134.433.447.746.939.94.249.1.509.172.774.215l.415-1.05-1.197-.47.549-1.402zM18.562 27.8l-2.254 3.638-6.127-3.799 2.254-3.637 1.328.824-1.229 1.982.964.598 1.138-1.836 1.326.824-1.136 1.835 1.157.717 1.23-1.982zm-.924-7.8a1.24 1.24 0 0 0-.303 1.187c.109.447.41.894.905 1.34 1.031.929 1.9 1.002 2.606.219.21-.233.386-.495.522-.778.137-.289.26-.584.366-.885l1.22 1.103a4.981 4.981 0 0 1-1.07 1.784c-.728.808-1.52 1.215-2.378 1.22-.857.006-1.729-.39-2.615-1.185a4.363 4.363 0 0 1-1.18-1.63 3.015 3.015 0 0 1-.155-1.775c.125-.595.427-1.159.907-1.69a5.124 5.124 0 0 1 1.878-1.32l.739 1.471c-.264.11-.521.238-.77.381-.251.15-.478.338-.672.558zm10.375-5.931c.713.98 1.014 1.901.903 2.762-.11.86-.63 1.628-1.557 2.301-.915.665-1.803.918-2.664.76-.862-.16-1.648-.73-2.36-1.71-.706-.972-1.002-1.89-.888-2.754.114-.864.633-1.633 1.558-2.305.927-.674 1.815-.931 2.664-.77.848.16 1.63.732 2.344 1.716zM24 16.979c.819 1.127 1.62 1.406 2.406.838.399-.29.595-.643.588-1.056-.007-.414-.22-.91-.64-1.49-.423-.583-.833-.943-1.231-1.079-.397-.135-.79-.061-1.18.223-.79.574-.77 1.43.057 2.568v-.004zm6.618-2.331l-.686-1.378 2.495-1.24.685 1.377zm6.795-.836l-1.817.616-2.313-6.822 4.037-1.368.502 1.48-2.218.751.441 1.303 2.045-.693.502 1.476-2.046.694zm5.599-4.1l.38 2.595-1.927.282-1.043-7.136 2.337-.342c1.94-.284 3.012.277 3.216 1.682.121.826-.189 1.524-.93 2.094l2.535 2.804-2.188.328L43.5 9.644l-.488.068zm-.211-1.45l.36-.053c.673-.097.967-.444.88-1.04-.072-.49-.438-.688-1.098-.592l-.376.056.234 1.63zm6.189 3.541l.086-7.209 1.957.024-.086 7.207zm8.525.77l-4.236-.612 1.033-7.137 4.235.613-.223 1.546-2.308-.333-.162 1.127 2.138.308-.225 1.548-2.137-.31-.194 1.347 2.31.332zm8.348 2.743l-2.398-.878-.726-5.675-.041-.015a26.332 26.332 0 0 1-.542 1.75l-1.118 3.051-1.62-.591 2.48-6.77 2.388.876.74 5.606.028.01c.207-.698.386-1.254.538-1.667l1.12-3.06 1.63.592-2.48 6.771zm9.117 1.231c-.658 1.009-1.44 1.604-2.348 1.784-.908.181-1.865-.055-2.873-.708l-1.953-1.274 3.931-6.035 2.09 1.363c.97.632 1.556 1.368 1.76 2.208.204.839.001 1.727-.608 2.662zm-1.732-1.046c.361-.554.518-1.035.47-1.445-.049-.41-.294-.76-.737-1.051l-.47-.31-2.206 3.38.364.237c.495.323.953.417 1.371.281.42-.135.822-.5 1.208-1.092zm1.163 5.51l5.026-5.164 1.396 1.359-3.929 4.037 1.99 1.935-1.097 1.127zm9.785 4.187l2.899-.53 1.22 1.723-4.956.601-2.298 1.627-1.134-1.602 2.253-1.596 2.265-4.507 1.22 1.73zm4.519 9.954a.751.751 0 0 1-.697-.474l-.016-.039a.751.751 0 0 1 1.392-.563l.02.049a.751.751 0 0 1-.699 1.027zM78.386 81.333a.751.751 0 0 1-.512-1.3l.07-.065a.751.751 0 1 1 1.023 1.098l-.072.066a.751.751 0 0 1-.51.201zm2.705-2.762a.751.751 0 0 1-.563-1.252l.064-.071a.751.751 0 1 1 1.122.999l-.065.072a.751.751 0 0 1-.558.252zm2.441-3.005a.751.751 0 0 1-.603-1.197l.057-.078a.751.751 0 0 1 1.21.892l-.059.079a.751.751 0 0 1-.606.308l.001-.004zm2.154-3.212a.751.751 0 0 1-.642-1.14l.05-.082a.751.751 0 1 1 1.286.777l-.05.083a.751.751 0 0 1-.645.366l.001-.004zm1.848-3.397a.751.751 0 0 1-.675-1.08l.041-.085a.752.752 0 1 1 1.354.657l-.044.089a.751.751 0 0 1-.678.423l.002-.004zm1.526-3.555a.751.751 0 0 1-.703-1.015l.033-.094a.752.752 0 0 1 1.408.525l-.035.094a.751.751 0 0 1-.705.494l.002-.004zm1.189-3.682a.751.751 0 0 1-.726-.947l.025-.094a.751.751 0 1 1 1.45.391l-.025.094a.751.751 0 0 1-.726.56l.002-.004zm.845-3.776a.751.751 0 0 1-.74-.88l.015-.093a.751.751 0 1 1 1.48.255l-.016.094a.751.751 0 0 1-.746.627l.007-.003zm.486-3.839h-.06a.751.751 0 0 1-.689-.808l.007-.094a.751.751 0 1 1 1.498.114l-.007.094a.751.751 0 0 1-.755.698l.006-.004zm.132-3.865a.751.751 0 0 1-.751-.742v-.094a.751.751 0 0 1 .74-.762h.012c.41 0 .745.33.75.741v.094a.751.751 0 0 1-.742.76l-.01.003zm-.227-3.855a.751.751 0 0 1-.75-.673l-.01-.094a.751.751 0 1 1 1.494-.158l.01.094a.751.751 0 0 1-.744.831zm-.573-3.823a.751.751 0 0 1-.736-.606l-.018-.094a.751.751 0 1 1 1.472-.296l.02.094a.751.751 0 0 1-.592.882.705.705 0 0 1-.146.018v.002zm-.925-3.755a.751.751 0 0 1-.72-.538l-.028-.093a.751.751 0 0 1 1.44-.432l.028.094a.751.751 0 0 1-.72.967v.002zM75.48 83.805a.751.751 0 0 1-.457-1.345l.034-.027a.751.751 0 0 1 .925 1.184l-.04.03a.751.751 0 0 1-.461.158zm-50.419.598a.751.751 0 0 1-.446-.148l-.038-.028a.751.751 0 0 1 .894-1.207l.037.027a.751.751 0 0 1-.447 1.356zm-2.939-2.38a.751.751 0 0 1-.498-.188l-.073-.066a.751.751 0 1 1 1-1.121l.07.062a.751.751 0 0 1-.499 1.314v-.001zm-2.745-2.67a.751.751 0 0 1-.549-.238l-.066-.07a.751.751 0 0 1 1.097-1.027l.065.07a.751.751 0 0 1-.547 1.265zm-2.492-2.91a.751.751 0 0 1-.593-.29l-.06-.077a.751.751 0 0 1 1.187-.92l.057.073a.751.751 0 0 1-.591 1.213zm-2.217-3.124a.751.751 0 0 1-.632-.344l-.054-.083a.751.751 0 0 1 1.267-.808l.05.078a.751.751 0 0 1-.631 1.157zm-1.922-3.31a.751.751 0 0 1-.667-.404l-.044-.086a.751.751 0 1 1 1.333-.69l.044.083a.751.751 0 0 1-.666 1.097zm-1.61-3.474a.751.751 0 0 1-.697-.47l-.035-.088a.751.751 0 1 1 1.391-.563l.036.088a.751.751 0 0 1-.696 1.033zM9.851 62.93a.751.751 0 0 1-.719-.533l-.028-.094a.751.751 0 1 1 1.439-.433l.027.094a.751.751 0 0 1-.5.94.736.736 0 0 1-.22.026zm-.946-3.71a.751.751 0 0 1-.737-.6l-.02-.093a.751.751 0 0 1 1.473-.299l.018.094a.751.751 0 0 1-.584.887.776.776 0 0 1-.15.012zm-.6-3.78a.751.751 0 0 1-.746-.666l-.012-.094a.751.751 0 0 1 1.493-.168l.012.094a.751.751 0 0 1-.748.834zm-.254-3.821a.751.751 0 0 1-.752-.736v-.094a.751.751 0 1 1 1.503-.031v.094a.751.751 0 0 1-.735.766h-.016zm.094-3.83h-.053a.751.751 0 0 1-.698-.8l.007-.094A.753.753 0 1 1 8.904 47l-.006.094a.751.751 0 0 1-.753.698v-.004zm.438-3.805a.751.751 0 0 1-.743-.871l.016-.094a.751.751 0 1 1 1.483.241l-.015.094a.751.751 0 0 1-.742.63h.001zm.785-3.75a.751.751 0 0 1-.73-.939l.024-.093a.751.751 0 0 1 1.454.376l-.024.093a.751.751 0 0 1-.725.564h.001zM10.5 36.56a.751.751 0 0 1-.707-1.006l.016-.044a.751.751 0 1 1 1.409.51l-.016.045a.751.751 0 0 1-.702.496z" fill="#B4ABAB"/></g></svg>