<svg width="32" height="39" xmlns="http://www.w3.org/2000/svg"><path d="M22.542 33.173a.691.691 0 0 0-.686-.696h-.544a.691.691 0 0 0-.686.696c0 .385.307.697.686.697h.544a.691.691 0 0 0 .686-.697zm-4.213 0a.691.691 0 0 0-.686-.696h-.544a.691.691 0 0 0-.686.696c0 .385.307.697.686.697h.544a.691.691 0 0 0 .686-.697zm7.669.645a.691.691 0 0 0 .68-.702l-.022-2.951c-.002-.385-.28-.725-.691-.691a.69.69 0 0 0-.68.7l.022 2.953a.69.69 0 0 0 .685.69h.006zm-3.456-3.731a.691.691 0 0 0-.686-.697h-.544a.691.691 0 0 0-.686.697c0 .384.307.696.686.696h.544a.691.691 0 0 0 .686-.696zm-4.213 0a.691.691 0 0 0-.686-.697h-.544a.691.691 0 0 0-.686.697c0 .384.307.696.686.696h.544a.691.691 0 0 0 .686-.696zm8.426-2.843a.691.691 0 0 0-.686-.696h-.543a.691.691 0 0 0-.686.696c0 .385.307.697.686.697h.543a.691.691 0 0 0 .686-.697zm-4.213 0a.691.691 0 0 0-.686-.696h-.544a.691.691 0 0 0-.686.696c0 .385.307.697.686.697h.544a.691.691 0 0 0 .686-.697zm-4.213 0a.691.691 0 0 0-.686-.696h-.544a.691.691 0 0 0-.686.696c0 .385.307.697.686.697h.544a.691.691 0 0 0 .686-.697zm-1.558-4.163h9.92v-2.702h-9.92v2.702zm10.834.464v-3.63a.46.46 0 0 0-.457-.464H16.314a.46.46 0 0 0-.458.464v3.63a.46.46 0 0 0 .458.464h10.834a.46.46 0 0 0 .457-.464zM13.145 36.92h16.983V17.147H13.145V36.92zm18.63.837V16.31a.831.831 0 0 0-.824-.836h-18.63a.83.83 0 0 0-.823.836v21.446a.83.83 0 0 0 .823.835h18.63a.83.83 0 0 0 .824-.835zM6.927 21.782h2.651v-.928H6.927a.46.46 0 0 0-.458.464.46.46 0 0 0 .458.464zm0 4.177h2.651v-.928H6.927a.46.46 0 0 0-.458.464.46.46 0 0 0 .458.464zm0-8.353h2.651v-.929H6.927a.46.46 0 0 0-.458.464.46.46 0 0 0 .458.465zM17.505 3.31a.691.691 0 0 0-.686.697v4.584c0 .777.624 1.41 1.389 1.41h4.889a.691.691 0 0 0 .685-.696.691.691 0 0 0-.685-.696l-4.906-.018V4.008a.691.691 0 0 0-.686-.697zM9.578 33.45H1.647V1.672h16.641l6.398 7.118v4.735h1.646V8.467a.84.84 0 0 0-.215-.564L19.259.273A.818.818 0 0 0 18.651 0H.823A.83.83 0 0 0 0 .837v33.448a.83.83 0 0 0 .823.836h8.755V33.45zM6.927 9.253h6.236a.46.46 0 0 0 .457-.464.46.46 0 0 0-.457-.464H6.927a.46.46 0 0 0-.458.464.46.46 0 0 0 .458.464zm-.458 3.712a.46.46 0 0 1 .458-.465h11.398a.46.46 0 0 1 .457.465.46.46 0 0 1-.457.464H6.927a.46.46 0 0 1-.458-.464z" fill="#674D4D" fill-rule="evenodd"/></svg>