<svg width="100" height="100" xmlns="http://www.w3.org/2000/svg"><g fill="none"><circle fill="#FFF" cx="49.875" cy="49.969" r="49.218"/><path d="M49.875 99.845C26.153 99.83 5.722 83.112 1.012 59.862c-4.71-23.25 7.604-46.602 29.45-55.848 25.38-10.722 54.647 1.161 65.369 26.542 10.722 25.38-1.161 54.647-26.542 65.369a49.563 49.563 0 0 1-19.414 3.92zm0-98.437C26.778 1.423 6.885 17.701 2.3 40.338c-4.586 22.638 7.404 45.374 28.675 54.377C55.678 105.118 84.14 93.543 94.57 68.85c10.431-24.692-1.112-53.167-25.794-63.626a48.25 48.25 0 0 0-18.902-3.816z" fill="#B4ABAB"/><path d="M31.99 23.099a32.127 32.127 0 0 1 17.885-5.404c15.789 0 28.93 11.336 31.725 26.313" fill="#FFF"/><path d="M81.185 44.087a31.862 31.862 0 0 0-48.96-20.635l-.47-.704a32.707 32.707 0 0 1 50.261 21.184l-.831.155z" fill="#B4ABAB"/><path d="M73.123 72.357a32.182 32.182 0 0 1-23.248 9.886c-17.824 0-32.273-14.45-32.273-32.274a32.15 32.15 0 0 1 3.088-13.794" fill="#FFF"/><path d="M49.875 82.666a32.712 32.712 0 0 1-29.567-46.673l.764.362c-6.68 14.109-2.15 30.98 10.698 39.846 12.848 8.866 30.228 7.114 41.049-4.138l.608.587a32.606 32.606 0 0 1-23.552 10.016zM20.62 80.85a2.5 2.5 0 0 1-1.304.652 2.62 2.62 0 0 1-1.476-.21 4.274 4.274 0 0 1-1.444-1.076 7.23 7.23 0 0 1-.872-1.127 5.297 5.297 0 0 1-.5-1.162l1.502-1.379c.129.471.307.927.533 1.36.199.392.447.757.738 1.085.23.251.441.396.636.432a.545.545 0 0 0 .656-.407 1.13 1.13 0 0 0-.013-.406c-.03-.163-.15-.563-.36-1.199-.187-.578-.288-1.047-.3-1.408a2.235 2.235 0 0 1 .183-1.001c.158-.336.385-.636.665-.88.576-.528 1.217-.73 1.923-.605s1.395.553 2.066 1.285a6.596 6.596 0 0 1 1.364 2.391l-1.779.677c-.267-.83-.595-1.456-.984-1.878-.2-.22-.385-.345-.554-.375a.474.474 0 0 0-.423.112.563.563 0 0 0-.155.492c.019.215.157.721.415 1.519.25.76.333 1.373.247 1.836-.086.464-.34.888-.764 1.272zm7.643 8.772l-1.927-1.265 1.896-2.89-2.223-1.458-1.895 2.89-1.928-1.265 4.65-7.09 1.925 1.268-1.724 2.63 2.225 1.458 1.724-2.629 1.925 1.264zm4.539 2.021l3.014-7.924 2.151.819-3.014 7.923zm13.814-2.441c-.157.934-.553 1.61-1.189 2.026-.636.416-1.46.54-2.475.371l-.635-.107-.464 2.774-2.26-.376 1.4-8.357 2.894.476c1.056.177 1.81.54 2.263 1.09.453.55.609 1.252.466 2.103zm-3.987.448l.411.07c.34.056.626.005.858-.152.231-.157.376-.403.433-.739.093-.563-.172-.898-.797-1.003l-.584-.094-.32 1.918zm13.348-.786c.065.944-.162 1.694-.683 2.248-.52.554-1.294.867-2.32.939l-.643.045.198 2.805-2.285.16-.593-8.456 2.931-.206c1.064-.072 1.881.105 2.45.532.57.426.885 1.07.945 1.933zm-3.776 1.37l.417-.028c.301-.005.588-.13.798-.347.188-.206.27-.48.247-.82-.04-.57-.376-.833-1.009-.79l-.59.043.137 1.943zm8.456 3.457l-2.234-8.178 2.22-.607 2.235 8.178zm14.103-5.999l-2.647 1.425-5.56-3.786-.047.025c.51.792.884 1.406 1.118 1.841l1.814 3.363-1.784.963-4.024-7.461 2.634-1.42 5.51 3.72.032-.016a33.227 33.227 0 0 1-1.047-1.773l-1.82-3.374 1.797-.968 4.025 7.461zm3.174-9.157l2.607-2.573 3.208 3.254a10.047 10.047 0 0 1-1.972 2.664c-.93.917-1.915 1.356-2.954 1.314-1.04-.04-2.053-.56-3.038-1.556-.96-.975-1.43-2.008-1.408-3.099.021-1.091.533-2.13 1.534-3.117a7.257 7.257 0 0 1 1.178-.946 6.385 6.385 0 0 1 1.15-.597l.75 1.789a4.485 4.485 0 0 0-1.75 1.09c-.475.47-.69.988-.646 1.554.045.566.352 1.137.919 1.712.556.564 1.098.877 1.625.94.527.062 1.012-.126 1.455-.564.227-.22.429-.465.6-.73l-.932-.945-1.078 1.063-1.248-1.253zM36.876 16.372l-2.103.811-3.055-7.906 4.674-1.805.662 1.715-2.57.992.584 1.51 2.369-.916.662 1.715-2.37.916zm7.271-5.093l.385 3.06-2.272.282-1.057-8.407 2.756-.346c2.285-.288 3.532.397 3.74 2.054.126.973-.255 1.787-1.142 2.441l2.91 3.356-2.577.325-2.167-2.837-.576.072zm-.215-1.709l.427-.054c.793-.1 1.146-.5 1.058-1.202-.072-.579-.498-.82-1.277-.722l-.449.057.241 1.921zm12.84 4.942l-5-.583.984-8.421 4.999.584-.213 1.825-2.723-.317-.156 1.32 2.52.299-.213 1.825-2.523-.294-.188 1.59 2.723.317zm7.692 2.409l-4.746-1.683 2.839-7.99L67.3 8.933l-.615 1.733-2.585-.918-.446 1.257 2.393.845-.615 1.732-2.394-.85-.535 1.508 2.585.918z" fill="#B4ABAB"/><path d="M76.672 64.374h5.916c1.033 0 .878-1.148.878-1.148l-.009-1.358c-.006-1.085-.9-1.117-.9-1.117s-.01-.666-.024-1.381h.17a.557.557 0 0 0 .556-.563l-.012-2.227a.563.563 0 0 0-.563-.563h-.203c-.035-1.967-.065-3.234-.073-4.601-.016-2.808-2.586-4.116-2.586-4.116l-3.133-1.434-2.041-6.295c.293.007.586-.009.876-.047.51-.064.188-.861.188-.861s-.619-2.201-.878-2.967c-.26-.766-.865-.638-.865-.638h-1.233c-.84-1.69-2.407-1.462-2.407-1.462h-3.613c-.262-3.599-3.714-4.449-3.714-4.449h-5.337l-.012-2.454h-35.2s.013 20.188.03 23.215" fill="#FFF"/><path d="M82.59 65.078h-5.916v-1.409h5.916a.282.282 0 0 0 .124-.018c.043-.04.067-.243.055-.332a.708.708 0 0 1-.006-.088l-.008-1.359c0-.264-.072-.393-.23-.417a.646.646 0 0 1-.475-.193.683.683 0 0 1-.195-.5s-.01-.666-.024-1.379a.704.704 0 0 1 .704-.717h.022l-.012-1.938h-.062a.704.704 0 0 1-.705-.692c-.009-.513-.017-.979-.026-1.409-.022-1.22-.041-2.184-.047-3.199-.013-2.271-2.036-3.403-2.191-3.486l-3.117-1.428a.7.7 0 0 1-.375-.423l-2.046-6.301a.703.703 0 0 1 .702-.92s.138.004.354-.007v-.008c-.006-.021-.617-2.191-.868-2.931-.037-.11-.079-.162-.094-.167a.737.737 0 0 1-.101.007h-1.233a.703.703 0 0 1-.63-.391c-.582-1.171-1.575-1.09-1.691-1.077a.434.434 0 0 1-.094.006h-3.605a.705.705 0 0 1-.702-.657c-.205-2.79-2.634-3.652-3.103-3.793h-5.246a.703.703 0 0 1-.704-.7l-.01-1.755H23.157c0 3.6.014 19.835.03 22.507l-1.409.009c-.017-2.998-.03-23.017-.03-23.22a.703.703 0 0 1 .705-.704h35.199c.387 0 .702.313.704.7l.01 1.754h4.638c.056 0 .113.007.168.02 1.27.314 3.65 1.629 4.165 4.429h2.955a3.077 3.077 0 0 1 2.853 1.462h.765c.448-.054 1.245.116 1.584 1.115.248.733.799 2.68.88 2.97.086.227.264.825-.013 1.3a.992.992 0 0 1-.752.484h-.01l1.668 5.136 2.85 1.308.025.012c.12.06 2.952 1.539 2.97 4.738.006 1.006.025 1.965.048 3.18l.015.82c.467.198.772.654.777 1.161l.012 2.227a1.25 1.25 0 0 1-.714 1.144v.282c.47.248.903.76.908 1.632l.007 1.322c.022.223.042.891-.398 1.392-.194.23-.562.5-1.178.5zm-43.433-1.315h24.839v1.221H39.157z" fill="#B4ABAB"/><path d="M27.164 65.125h-4.459a.751.751 0 0 1-.751-.74l-.05-3.285-.01-1.434a1.208 1.208 0 0 1-.767-1.116l-.016-2.681a1.206 1.206 0 0 1 .751-1.123l-.031-5.29 1.502-.008.035 5.961a.751.751 0 0 1-.751.752h-.006l.012 2.077h.015c.414 0 .75.337.75.752l.013 2.09.04 2.536h3.723v1.509zM82.4 59.298h-2.18c-.299 0-.535-.282-.537-.646l-.01-1.906a.7.7 0 0 1 .187-.502.483.483 0 0 1 .343-.147h2.181v.563h-2.133a.188.188 0 0 0-.015.083l.01 1.905c0 .03.006.059.018.086H82.4v.564zm-.113-4.494h-1.566a.384.384 0 0 1 0-.767h1.566a.384.384 0 0 1 0 .767zm-.009-1.559h-1.565a.383.383 0 1 1 0-.766h1.565a.383.383 0 0 1 0 .766zM70.206 67.512a3.887 3.887 0 0 1-3.877-3.85 3.833 3.833 0 0 1 3.836-3.86 3.886 3.886 0 0 1 3.877 3.856 3.833 3.833 0 0 1-3.836 3.854zm-.04-7.058a3.176 3.176 0 0 0-3.18 3.199 3.228 3.228 0 0 0 3.22 3.201 3.176 3.176 0 0 0 3.179-3.192 3.228 3.228 0 0 0-3.22-3.205v-.003z" fill="#B4ABAB"/><path d="M24.797 59.096h-2.16v-.767h2.048l-.013-2.287h-2.05v-.767h2.16a.664.664 0 0 1 .662.657l.015 2.5a.657.657 0 0 1-.657.663h-.005zm32.287-30.15l1-.006.204 35.339-1 .005z" fill="#B4ABAB"/><path fill="#B4ABAB" d="M51.073 63.876h11.311v1H51.073zm6.653-30.52h9.097v1h-9.097z"/><path fill="#B4ABAB" d="M59.933 33.796l1-.005.176 30.562-1 .006zm15.899 26.733h6.444v1h-6.444z"/><path fill="#B4ABAB" d="M60.477 60.529h4.427v1h-4.427zm-37.637 0h4.648v1H22.84zm16.005 0h19.084v1H38.845zm26.311-13.964c-.18 0-.627-.034-.955-.338a1.115 1.115 0 0 1-.347-.84l-.052-8.926c0-.76.526-1.052.883-1.064h4.202c.075 0 1.846.02 2.481 1.784l.006.015 2.817 8.75a.47.47 0 0 1-.447.614h-8.588v.005zm-.415-10.11l.051 8.927c0 .113.034.145.047.156a.54.54 0 0 0 .332.088h7.931l-2.62-8.128c-.41-1.127-1.55-1.16-1.596-1.16h-4.131a.327.327 0 0 0-.015.118zm-4.269 13.892h21.543v1H60.472zM25.187 29.956h28.432v1H25.187zm45.037 41.061a7.41 7.41 0 0 1-7.362-6.667l1.495-.146a5.907 5.907 0 0 0 5.867 5.314 5.8 5.8 0 0 0 5.785-5.199l1.494.159a7.3 7.3 0 0 1-7.279 6.539z"/><path d="M77.055 64.407l-1.12-.12a5.833 5.833 0 0 0-5.789-6.435 5.739 5.739 0 0 0-5.717 6.319l-1.121.11a6.866 6.866 0 0 1 6.838-7.555 6.962 6.962 0 0 1 6.91 7.68zM33.219 67.48a3.85 3.85 0 0 1-3.843-3.818 3.8 3.8 0 0 1 3.802-3.825 3.85 3.85 0 0 1 3.844 3.821 3.8 3.8 0 0 1-3.803 3.826v-.003zm-.04-6.989a3.142 3.142 0 0 0-3.146 3.164 3.192 3.192 0 0 0 3.186 3.168 3.142 3.142 0 0 0 3.145-3.164 3.192 3.192 0 0 0-3.186-3.168z" fill="#B4ABAB"/><path d="M33.24 70.953a7.333 7.333 0 0 1-7.284-6.473l1.492-.176a5.83 5.83 0 0 0 5.791 5.147 5.728 5.728 0 0 0 5.728-5.22l1.496.137a7.249 7.249 0 0 1-7.23 6.585h.006z" fill="#B4ABAB"/><path d="M26.414 64.492a6.789 6.789 0 0 1 6.747-7.6 6.885 6.885 0 0 1 6.84 7.497l-1.121-.103a5.755 5.755 0 0 0-5.718-6.271 5.662 5.662 0 0 0-5.63 6.343l-1.118.134zM72.92 35.733h-1.23a.282.282 0 1 1 0-.563h1.23a.282.282 0 1 1 0 .563zm1.455 3.867c-.689 0-1.165-.135-1.414-.402a.657.657 0 0 1-.179-.366l-.532-1.638h-1.61a.282.282 0 0 1 0-.563h1.814c.123 0 .231.078.269.194l.61 1.868a.282.282 0 0 1 .014.079c.023.073.252.266 1.033.266a.282.282 0 1 1 0 .563h-.005zM41.14 49.243c-.274 0-.536-.108-.73-.301l-5.293-5.28a1.033 1.033 0 1 1 1.46-1.463l4.495 4.485 8.091-9.655a1.033 1.033 0 0 1 1.583 1.327l-8.815 10.516a1.033 1.033 0 0 1-.745.368l-.046.003z" fill="#B4ABAB"/><path d="M40.604 53.758a9.427 9.427 0 1 1 5.88-16.796.563.563 0 0 1-.703.88 8.21 8.21 0 0 0-5.177-1.812 8.3 8.3 0 1 0 8.3 8.39.563.563 0 0 1 .564-.558h.006c.311.004.56.258.557.569a9.427 9.427 0 0 1-9.426 9.327h-.001zM7.894 51.29L7.7 48.931l-2.05-1.179 2.184-.912.487-2.315 1.542 1.795 2.353-.252-1.231 2.02.967 2.16-2.302-.546zm79.767-5.282l2.354.239 1.531-1.804.5 2.313 2.19.898-2.044 1.192-.179 2.36-1.764-1.578-2.3.56.954-2.165z" fill="#B4ABAB"/></g></svg>