<svg width="95" height="112" xmlns="http://www.w3.org/2000/svg" xmlns:xlink="http://www.w3.org/1999/xlink"><defs><path id="a" d="M0 0h63.566v8.966H0z"/></defs><g fill="none" fill-rule="evenodd"><path d="M17.193 22.707c0 10.704 13.662 19.411 30.454 19.411 16.791 0 30.452-8.707 30.452-19.411 0-10.703-13.66-19.411-30.452-19.411s-30.454 8.708-30.454 19.41zM91.9 37.059c0-12.222-7.949-22.947-21.054-28.852 5.489 3.777 8.87 8.882 8.87 14.5 0 11.599-14.387 21.035-32.07 21.035s-32.07-9.436-32.07-21.035c0-5.798 3.596-11.056 9.4-14.865C11.471 13.565 3.392 24.246 3.392 37.059c0 11.613 12.825 21.975 31.277 25.37l.008-.086c1.123.11 2.264.24 3.42.372 3.101.355 6.309.722 9.568.722 3.01 0 5.982-.336 8.858-.662a174.99 174.99 0 0 1 3.528-.374l.012.129C78.846 59.24 91.9 48.837 91.9 37.06zM25.654 80.997c0 7.207 10.277 13.529 21.993 13.529 11.715 0 21.991-6.322 21.991-13.53 0-2.838-.71-12.121-9.431-16.9l.043.46-.06.006v8.108a.81.81 0 0 1-.267.599 4.427 4.427 0 0 1-.547 1.454c-.17.304-.389.567-.597.832-.238.23-.45.497-.71.688-.987.85-2.115 1.429-3.27 1.864-2.315.869-4.754 1.201-7.177 1.214-2.423-.015-4.862-.35-7.175-1.219-1.153-.435-2.28-1.016-3.265-1.866-.261-.19-.472-.457-.709-.687-.207-.264-.427-.527-.596-.83-.364-.596-.565-1.312-.633-2.05h.12v-8.077l-.642-.068c-6.655 4.09-9.068 11.283-9.068 16.473zm32.919-16.27c-.599.064-1.202.132-1.81.2-2.934.332-5.968.675-9.098.675-3.382 0-6.651-.374-9.813-.735l-.872-.098v8.377a.812.812 0 0 1-.06.307c.161.658.558 1.308 1.118 1.848.779.754 1.769 1.34 2.812 1.797 1.047.46 2.168.771 3.306.984 1.142.2 2.303.292 3.466.308a21.965 21.965 0 0 0 3.466-.31c1.138-.215 2.258-.526 3.304-.988 1.043-.457 2.032-1.043 2.81-1.798.78-.754 1.248-1.72 1.193-2.624h.178v-7.943zM94.65 37.01c0 6.735-3.687 13.283-10.383 18.438-5.025 3.868-11.661 6.889-19.081 8.733 6.606 5.74 7.203 14.005 7.203 16.768 0 8.8-11.305 16.236-24.687 16.236-13.382 0-24.687-7.435-24.687-16.236 0-5.107 2.052-11.923 7.51-16.694-7.566-1.841-14.335-4.906-19.433-8.843C4.426 50.264.754 43.728.754 37.01c0-8.186 3.055-15.754 8.834-21.887C15.002 9.376 22.586 5.099 31.525 2.749 36.453.95 42.045 0 47.703 0 53.88 0 59.82 1.099 65.039 3.194l.048-.103 2.052.688C84.109 9.477 94.65 22.21 94.65 37.01zm-56.66-6.835a25.922 25.922 0 0 1-1.936-.64.542.542 0 0 0-.378 1.014c.649.244 1.328.469 2.017.667a.539.539 0 0 0 .666-.37.541.541 0 0 0-.369-.67zm-8.913-3.858c-1.458-1.658-2.197-3.513-2.197-5.514 0-7.128 9.51-13.15 20.767-13.15s20.766 6.022 20.766 13.15c0 6.794-8.733 11.724-20.766 11.724-2.407 0-4.744-.205-6.947-.61a.54.54 0 0 1-.433-.629.537.537 0 0 1 .627-.435 37.48 37.48 0 0 0 6.753.591c11.224 0 19.688-4.574 19.688-10.64 0-6.542-9.016-12.069-19.688-12.069-10.673 0-19.69 5.527-19.69 12.068 0 1.729.649 3.343 1.927 4.797a.543.543 0 0 1-.046.764.537.537 0 0 1-.76-.047z" fill="#918483"/><g transform="translate(16.206 102.519)"><mask id="b" fill="#fff"><use xlink:href="#a"/></mask><path d="M58.477 4.332h1.55c.908 0 1.439-.518 1.439-1.37 0-.832-.561-1.367-1.456-1.367h-1.533v2.737zm0 4.444h-1.802V.191H60.2c1.98 0 3.115 1.04 3.115 2.736 0 1.1-.573 2.054-1.564 2.44l1.814 3.41h-2.04L59.92 5.633h-1.444v3.142zm-9.43-4.29c0 1.797.9 2.934 2.314 2.934 1.408 0 2.31-1.137 2.31-2.934 0-1.802-.902-2.945-2.31-2.945s-2.314 1.143-2.314 2.945zm6.468 0c0 2.732-1.606 4.439-4.154 4.439-2.554 0-4.152-1.707-4.152-4.439 0-2.736 1.598-4.444 4.152-4.444 2.548 0 4.154 1.708 4.154 4.444zM42.1 6.046h3.92V4.527H42.1v1.517zM37.677 0c1.844 0 3.06 1.071 3.06 2.499 0 1.053-.518 1.701-1.974 3.088l-1.808 1.725v.037h3.902v1.427h-6.26V7.545l3.05-2.88c1.092-1.047 1.336-1.458 1.336-2.052 0-.69-.53-1.215-1.306-1.215-.86 0-1.51.577-1.51 1.404h-1.67c0-1.654 1.312-2.802 3.18-2.802zm-8.35 6.045h3.921V4.528h-3.92v1.517zm-7.692.268H23.3c.101.744.74 1.232 1.569 1.232.949 0 1.604-.65 1.604-1.583 0-.923-.655-1.57-1.598-1.57-.693 0-1.23.32-1.522.839h-1.57l.395-5.04h5.495v1.427H23.61l-.208 2.416h.035c.359-.577 1.069-.928 1.94-.928 1.64 0 2.816 1.178 2.816 2.814 0 1.815-1.354 3.046-3.33 3.046-1.843 0-3.18-1.094-3.227-2.653zm-3.278-3.82c0-.708-.585-1.195-1.396-1.195-.818 0-1.396.487-1.396 1.195 0 .702.578 1.19 1.396 1.19.811 0 1.396-.488 1.396-1.19zm.21 3.826c0-.774-.657-1.327-1.606-1.327-.949 0-1.611.56-1.611 1.327 0 .78.662 1.338 1.611 1.338s1.605-.559 1.605-1.338zm-5.097.13c0-1.13.836-1.963 2.01-2.188v-.037c-1.014-.244-1.7-.981-1.7-1.915C13.78.976 15.094 0 16.962 0c1.867 0 3.174.97 3.174 2.316 0 .922-.68 1.66-1.688 1.91v.036c1.175.231 2.004 1.064 2.004 2.195 0 1.487-1.437 2.51-3.49 2.51-2.058 0-3.49-1.028-3.49-2.516zm-7.448-.136h1.665c.101.744.74 1.232 1.57 1.232.948 0 1.604-.65 1.604-1.583 0-.923-.656-1.57-1.599-1.57-.693 0-1.23.32-1.522.839H6.17L6.566.19h5.496v1.427H7.997l-.209 2.416h.036c.358-.577 1.068-.928 1.94-.928 1.64 0 2.815 1.178 2.815 2.814 0 1.815-1.354 3.046-3.33 3.046-1.843 0-3.18-1.094-3.227-2.653zm-3.79-4.474h-.036L0 3.327V1.73L2.226.191h1.79v8.585H2.23V1.84z" fill="#CC7654" mask="url(#b)"/></g></g></svg>