<svg width="84" height="104" xmlns="http://www.w3.org/2000/svg" xmlns:xlink="http://www.w3.org/1999/xlink"><defs><path id="a" d="M0 0h83.887v104H0z"/><path id="c" d="M0 0h37.663v13.604H0z"/></defs><g fill="none" fill-rule="evenodd"><mask id="b" fill="#fff"><use xlink:href="#a"/></mask><path d="M12.49 6.236V97.5a.821.821 0 0 1-.818.826.821.821 0 0 1-.818-.826V6.236c0-.456.366-.826.818-.826.452 0 .818.37.818.826zm66.166 95.288H2.454V2.476h51.842v21.77c0 3.053 2.462 5.552 5.488 5.57l1.39.007c6.001.036 16.174.095 20.041.12v69c0 1.423-1.148 2.58-2.559 2.58zM56.477 3.894L80.11 27.736l-20.313-.12c-1.83-.012-3.319-1.523-3.319-3.37V3.895zm22.165 19.249L58.315 2.636l5.913.052c3.77.03 8.388.066 11.785.086 1.45.01 2.63 1.207 2.63 2.67v17.699zm2.573-18.086v20.681l-1.482-1.494v-18.8a3.778 3.778 0 0 0-1.443-2.968h.366c1.411 0 2.56 1.158 2.56 2.581zm2.672 23.8c.001-.31-.086-.526-.217-.686V5.057C83.67 2.27 81.42 0 78.656 0H1.227C.55 0 0 .555 0 1.238v101.524C0 103.445.55 104 1.227 104h77.43c2.764 0 5.013-2.269 5.013-5.057v-69.45c.134-.18.216-.398.217-.635z" fill="#918483" mask="url(#b)"/><g transform="translate(33.818 78.688)"><mask id="d" fill="#fff"><use xlink:href="#c"/></mask><path d="M1.26 11.064c-.696 0-1.26.569-1.26 1.27 0 .702.564 1.27 1.26 1.27.695 0 1.258-.568 1.258-1.27 0-.701-.563-1.27-1.259-1.27zm28.05 1.385V1.051c0-.58.466-1.05 1.042-1.05h6.435a.88.88 0 0 1 .877.883v.037a.88.88 0 0 1-.877.884h-5.4V6.08h4.871a.88.88 0 0 1 .876.885.88.88 0 0 1-.876.883h-4.871v4.602c0 .578-.465 1.047-1.039 1.047-.573 0-1.038-.47-1.038-1.047zm-10.96-.767h2.448c2.837 0 4.404-1.75 4.404-4.939 0-3.18-1.576-4.938-4.404-4.938h-2.447v9.877zM20.994 0c3.977 0 6.333 2.47 6.333 6.725 0 4.265-2.346 6.771-6.333 6.771h-3.618c-.608 0-1.1-.497-1.1-1.11V1.11c0-.613.492-1.11 1.1-1.11h3.618zM7.113 7.127h2.383c1.808 0 2.837-.982 2.837-2.684 0-1.703-1.03-2.676-2.827-2.676H7.114v5.36zM10.054 0c2.595 0 4.403 1.805 4.403 4.433 0 2.638-1.845 4.452-4.469 4.452H7.114v3.564c0 .578-.466 1.047-1.039 1.047s-1.038-.47-1.038-1.047V1.011C5.037.453 5.486 0 6.039 0h4.014z" fill="#CC7654" mask="url(#d)"/></g></g></svg>