<svg width="279" height="193" xmlns="http://www.w3.org/2000/svg" xmlns:xlink="http://www.w3.org/1999/xlink"><defs><path id="a" d="M0 0h279v193H0z"/></defs><g fill="none" fill-rule="evenodd"><mask id="b" fill="#fff"><use xlink:href="#a"/></mask><use fill="#FFF" xlink:href="#a"/><g mask="url(#b)" fill="#E0DBDB"><path d="M174 33.608c.8-1.152 2.19-.29 3-.41-.825.765-1.948.127-3 .41m4.11-.061c.018-.237-.024-.363-.11-.41a.968.968 0 0 1 .995 0c.068.807-.607.242-.884.41M111.885 39c-1.094-.323-.738-1.758-.885-3h.739c-.207.885.535 2.224.146 3m-6.85-3h.603c-.144 1.154.102 1.957.362 2.973-1.35.305-.929-2.042-.965-2.973m5.065 0c.346.081.217.081.563 0-.264 1.104.023 2.066.337 2.892-1.059.708-1.114-2.274-.9-2.892m-2.987 0h.443c-.145 1.018.456 2.194.444 2.993-.871.141-1.193-1.854-.887-2.993m130.73 0c.369.828.09 3.316-.843 2.967.239-.444.595-2.162.59-2.967h.253zm2.076 1.092c.242.83-.058 2.232-.919 1.84.409-.439.436-1.299.669-1.932.067.049.135.096.25.092m1.016.033c.23 1.23-.162 3.052-.935 2.861.558-.826.478-2.229.51-2.98.205-.049.185.218.425.12M235.228 37c1.029.028 1.103 3.25-.228 2.984.508-.913.05-1.998.228-2.984m-19.726 27h.476c.156.573-.567.645-.794 1-.597-.378.46-.581.318-1m-39.16 9.012c-.425-1.295-3.382-1.264-4.533-.408-1.618 4.19 5.677 3.89 4.533.408m-.156 3c.817-.579 1.949-2.117 1.094-3.272-.055 1.361-.457 2.42-1.25 3.137.008.082.023.16.156.135m-.782-4.772c.718.024 1.086.562 1.094.818.455-.519.374.573.782.546.034-.91-1.142-2.01-1.876-1.364m-3.595.409c1.09-.186 2.156-.392 3.126-.682-.81-.794-2.607-.017-3.126.682m-1.72 1.091c1.003-3.56 7.73-3.7 8.911-.136-.07.68-.33-.301-.782-.136.086.424.128.888.312 1.226-.051 4.62-9.548 4.484-8.44-.954M178.323 92c1.314.01.406 2.382-.147 3H177c1.147-.495 1.231-2.355 1.323-3"/><path d="M176 95c.919-.733 1.133-1.966 1.628-3 .891.765.115 2.986-1.628 3m-1 1c.047-.815.82-1.766.6-2.995.16-.033.17.113.299.12.312 1.228-.13 2.548-.899 2.875m4.477 6.688c-.067-.271.234-.174.245-.367-1.168-1.59-3.732-1.928-5.745-1.222-.52.092-.265.956-.977.856.06-2.122 2.668-2.091 4.033-1.834 2.527.476 3.387 1.726 4.278 4.156.442 1.206.641 2.502 1.1 3.667.531 1.351 1.04 2.254 1.589 3.056-2.889-1.39-2.367-6.19-4.523-8.312"/><path d="M180.768 106.405c-.255 1.213 1.038 2.3.557 2.839.766.385.898 1.382 1.675 1.756-3.54-1.301-2.935-7.789-6-10h.28c2.073.919 2.371 3.558 3.488 5.405M165 113c2.978-2.182 4.616-5.236 5.512-9H171c-.76 4.147-2.373 7.905-6 9m-8.651 14c-.952-3.181.134-7.34 2.169-8.999.216-.017.254.17.482.138-.474 1.189-1.47 2.026-1.928 3.462-.532 1.666-.448 3.615-.723 5.399m7.651-6c.074-1.123-.266-3.465 2-2.918-1.497.551-.601 2.198-2 2.918m36-3c1.719.308 2.141 3.44 1.962 6-.244-1.622-1.057-4.295-1.962-6"/><path d="M162.919 124c-1.932-.35-.287-3.258.153-4.098-.348-.697.373-1.185.464-1.902H164c-.016 1.934-1.335 4.112-1.081 6m36.921 1c.056-2.05-.566-4.326-1.12-5.991-.215-.364-.795-.217-.712-1 .321-.068.36.258.713.144.84 1.773 1.626 4.724 1.119 6.847"/><path d="M198.94 124c-.372-1.393-.249-4.612-1.852-5.286.15-.354-.258-.693 0-.714 1.704.036 2.08 3.567 1.852 6m-15.42 5.307c1.129 2.433 5.756 2.084 6.358-.292 1.111-4.39-7.197-4.863-6.359.292m-.591-1.604c.45-3.274 4.646-3.5 6.802-2.185-1.9-2.652-7.556-2.087-6.802 2.185m4.584 4.226c-5.77.965-7.94-8.163-1.923-8.887 5.922-.713 7.592 7.938 1.923 8.887m-25.565-5.063c-.511 1.047-.3 2.433.26 3.354-.122-1.32.156-3.788 1.694-4.472 2.09-.929 4.24.95 5.21 2.655.203-4.19-5.895-4.622-7.164-1.537m1.303 4.053c1.125 2.131 4.49.987 5.209-.838.809-2.05-2.386-4.123-4.168-3.494-1.26.444-1.918 2.67-1.041 4.332m-.391 1.536c-2.864-2.066-2.476-8.009 1.563-8.384 3.404-.552 6.167 2.184 5.47 5.31-.55 2.47-4.127 4.676-7.033 3.074m-24.505-1.56c-.554-1.19-1.086-2.35-1.354-3.895 1.015 1.972 1.889 4.147 3 5.982-.727.191-1.216-1.167-1.646-2.087m60.228 1.259c-1.476-2.598-5.76-1.612-5.354 1.955.09.798.675 1.038.868 1.954 2.916 1.535 4.986-.987 4.486-3.909m-3.039-3.21c.022.346-.075.579-.29.697-.134-.094-.905.064-1.157-.279-1.57.715-3.343 3.185-1.591 5.026-.1-2.059.858-4.366 2.749-4.607 1.2-.153 2.14.81 3.182.977-.665-.893-1.629-1.498-2.893-1.815m-3.328 6.422c-.978-1.162-1.374-2.371-1.158-4.328 1.37-1.103 1.968-2.488 3.473-2.931 1.977-.581 4.913 1.325 5.354 3.49 1.008 4.948-4.802 7.172-7.669 3.769m-38.21 2.612c.305-1.867 2.083-3.403 3.78-3.115 1.38.234 1.959 2.388 2.906 2.076-.087-4.588-8.234-3.589-6.686 1.039m6.25 1.63c-.459-.48-.31-.663-.291-1.63-.835-.978-1.84-1.782-3.633-1.78-.895.537-1.327 2.215-.727 3.41.115.514-.161.627-.29.89 1.539 1.11 4.128.588 4.94-.89m-3.633 2.374c-4.663-.467-4.837-8.161-.436-8.9 3.094-.518 5.888 1.458 5.814 5.192-.048 2.376-3.28 3.918-5.378 3.708M186.714 136c-.85-.352-1.698-.105-2.467-.425.088-.774.982-.855.864-1.807-.271-.143-.494.56-1.111.212.01-.397.138-.303 0-.638 1.399-1.125 2.677.808 1.48 1.701.327.25 1.045.164 1.48.32.17.43-.267.336-.246.637m3.41 3.333c.046-1.074-.429-1.66.225-2.333.71.467.806 2.224.449 3a3.234 3.234 0 0 0-.674-.667m-26.839 6.343v-.642c.643-.01 1.13-.336 1.142-1.766-.466-.67-.662.482-1.046.482-.003-.156-.117-.124-.19-.16-.038-1.225-.134-2.136-.191-3.371.424-.484 1.239.012 1.617-.161.207-.027.043.57.095.803-.367.295-.8.112-1.047 0-.107.503.028.424-.095.802.453.814 1.356.141 1.428 1.766.052 1.17-.915 3.407-1.713 2.247m.65 3.838c.335-.025.511-.207.491-.58-.49-.338-.952.256-.49.58m.294-2.514c.018.599-.368.798-.49 1.257.201.22.847.003 1.079.193.487.766-.077 1.603-.884 1.547-1.469-.102-1.083-2.706.295-2.997m.532 8.875c-.152-.654.378-1.29.38-2.104-.334-.329-1.017.306-1.142-.316.377-.474 1.518-.574 2-.316-.336.856-.488 1.917-.762 2.842-.269.086-.247-.149-.476-.106m3.278 5.001c.367.483 1.143.315 1.304-.295-.189-1.243-1.397-1.285-1.305.295m.218-2.948c-.269-.02-.524-.023-.652.147.037.391.285.497.543.59.091-.171.144-.396.109-.737m-.652 1.474c-1.513-1.194.152-3.525 1.304-1.77.048.507-.042.827-.108 1.18.468.348.825.846 1.196 1.327.121 3.21-3.691 1.806-2.392-.737m-37.001.246c1.066 1.331 1.585 3.264 3.062 4.195.325 1.425 2.384 1.827 2.333 3.146-1.467.193-1.667-2.171-2.917-2.697-1.26-2.2-2.878-4.033-4.082-6.292.343.046.271.52.729.45-.224.678.578.827.875 1.198m45.439 1.805c.37-.018.544-.197.914-.215.205-1.08-1.631-.577-.914.215M175 162.952c.03-.44.277-.7.522-.964-.289-.63-.657-.973-.261-1.714 1.152-.617 2.239-.1 2.739.643-.761.786-1.707 2.38-3 2.035m6.732-.882c.556.036.58.091 1.27.117 1.115-2.054-2.144-1.85-1.27-.118m-.46.354c-1.605-4.005 4.526-2.474 2.19.473-.919.295-1.61-.094-2.19-.473m-21.086 4.02c-.763-3.72 4.223-4.904 6.417-2.767-.758-1.8-2.745-2.112-5.133-1.58-1.04 1.061-2.502 2.573-1.284 4.347m.713.132c.025.24.527.59.571.922.065.496-.396.132-.142.527 1.633 2.549 5.306.577 5.561-1.45.321-2.563-2.234-3.839-4.278-3.162-1.27.421-1.85 1.809-1.712 3.163m6.987 0c-.19.882-.797 2.102-1.283 3.03.012-.472.222-.761.286-1.186-.867.43-1.403 1.164-2.283 1.581-3.847-.3-6.327-2.853-5.418-6.719 2.64-4.507 9.797-1.77 8.698 3.294M126 167c.28.326 1.246.683.941 1-.46-.248-.904-.503-.941-1m8.312 8.421c.267.385 1.138 1.048.394 1.579A178.028 178.028 0 0 1 128 167c1.235.905 1.9 2.597 2.762 3.817.97 1.37 2.374 2.909 3.55 4.604M132.97 179c-2.948-2.62-4.213-6.17-6.576-9.429-.003-.651-.204-1.105-.394-1.571h.394c1.444 2.95 3.054 5.77 5.13 8.25.61.729 1.667 1.619 1.446 2.75m92.213 3c.518.2.693.586.817 1-.595-.158-.561-.658-.817-1m-42.484 1.903c-6.544-.056-13.644-.044-19.213-.13-7.005-.107-13.674.301-20.477-.257-.035-.294.03-.484.253-.516 13.006.521 28.235-.265 40.828.13 5.402.169 11.633-.145 17.696 0 5.748.136 14.057-.033 19.214.515-12.225.453-22.695.39-38.301.258m41.385-.903c.553.744 1.24 1.367 1.916 2-.953-.31-2.358-.866-1.916-2m5.916 5.522V188c3.577.3 1.296 5.133 3.088 7.435.613.787 1.393.58 1.912 1.565-1.03-.513-1.914-.533-2.5-1.173-1.816-1.986.292-6.293-2.5-7.305"/><path d="M157.386 195.733c.62.008 1.202.257 1.783.253 2.483-.016 4.958-.371 7.128-.379 5.489-.017 14.454.029 21.514 0-.529-2.265.567-6.563-1.783-8.214-.372.205-.05.4-.255.632-.334-.13-.428-.501-.763-.632 1.175 1.726 1.825 5.456.763 7.582-.319-3.288.013-7.466-3.309-8.087 1.044 1.56 1.632 5.007.89 7.33-.745-2.553.148-7.601-3.563-7.33 1.3 1.683 1.452 5.447 1.145 7.455-.758-2.623-.317-7.4-3.564-7.455 1.166 1.204 2.34 4.159 1.91 6.95-.741-2.66-.781-6.241-4.075-6.95 1.699 1.14 2.281 4.906 1.783 7.708-.591-.3-.394-1.522-.509-2.4-.102-.78-.452-1.37-.128-1.896-.555-.881-.848-2.023-1.654-2.654-.676-.087-1.255-.27-1.528-.758h-.89c1.324 1.212 2.62 4.973 1.4 7.203-.467-1.85.023-6.257-2.928-6.698-.562.01-.367-.731-1.146-.505.409.566 1.354 1.518 1.528 2.906.136 1.089-.01 2.734-.51 3.286.12-2.933-.54-5.867-3.437-6.192.706 1.55 1.956 4.496 1.019 6.697-.513-2.63-.422-6.442-3.692-6.697 1.5 1.242 2.049 5.293 1.528 7.582-.825-2.206.02-6.62-2.929-7.077.908 1.78.737 5.18.129 8.088-.457-2.84.67-9.068-3.31-8.593 1.49 1.478 1.292 5.218 1.018 7.834-1.06-1.275-.034-4.35-.892-6.191-.56-1.206-1.728-1.355-3.181-1.643 1.611 1.102 2.284 5.727 1.909 7.708-.818-2.091-.596-4.776-1.91-6.57-.799-.097-1.415-1.342-2.928-1.138 1.487 1.6 2.654 4.718 2.292 7.33-.751-2.372-1.188-5.055-2.8-6.572-.752-.054-1.348-.263-1.656-.758 1.062 1.819 2.02 4.772 1.274 7.582-.63-.349-.196-1.38-.255-2.022-.178-1.931-1.026-3.917-1.91-5.055-.922-.122-1.082-.328-2.036-.505 2.227 1.82 1.669 5.27 1.273 8.214-.467-3.363.242-7.368-3.182-8.214 1.012 1.812 1.165 5.226.38 7.582-.135-3.195.213-8.124-3.436-7.582 1.394 1.509 1.103 3.936 1.146 6.697-.86-1.505-.407-4.313-1.4-5.686-.383-.295-.917-.438-1.019-1.011-.15.145-.449.143-.763.127.955 1.687.34 4.103 0 6.191-.078.473.348 1.15-.382 1.39-.235-2.66 1.634-7.327-2.165-7.581.513 2.12.107 4.825.128 6.95-.72-.509-.325-1.91-.383-3.033-.084-1.683-.073-3.604-1.526-4.044-.4 1.59-.39 4.55-.383 6.95-1.114-1.978-.097-4.772-.635-7.076-1.311 1.485-1.79 3.884-1.783 6.065-.536-.282-.532-1.277-.509-1.77.084-1.826.956-4.014 1.909-4.927.471.015.32.184.255.505.298-.257.872-.38 1.146 0 1.275-.73 3.177-.365 4.964-.378 4.576-.038 10.705-.057 15.148 0 1.144.013 2.141.336 2.8-.254 4.558.843 9.86.111 14.13.38.558.132.418-.428.891-.38 3.104.574 7.586.243 10.948.254 1.448.003 2.85.017 4.328 0 3.042-.038 6.387.202 9.675 0 2.316-.143 5.667.334 7.765-.254 2.422.35 5.467.496 7.51 0 .904.419 2.354.409 3.183 0 3.277.518 5.744.132 9.165.127v.002c.38-.115.817-.113 1.206-.073.006 0 .01.001.016.003.355.01.73.063 1.069.068.966.012 2.376-.402 2.673.505-1.022.026-3.268.199-4.452-.115-.642-.013-.236 1.265-.146 1.668.045.207.092.413.139.618.176.435.364.865.58 1.282.107.205-.048.387-.262.491.013.104.03.207.038.312.008.098-.091.188-.226.256-.037 1.465-.265 2.916-.509 3.828v-3.707a.6.6 0 0 1-.113-.01c-.002.23-.006.46-.013.684a8.28 8.28 0 0 1-.276-1.026c-.19-.466-.22-.967-.28-1.46-.155-.786-.362-1.533-.845-2.189-.85.268-.616-.774-1.654-.632 1.371 1.37 2.143 5.625 1.273 7.582-.501-2.617-.305-7.472-3.31-7.582 1.049 1.74 1.67 4.997 1.527 8.34-1.68-2.698.222-8.188-4.073-8.213 1.404 2.12 1.15 5.278 1.527 7.96-1.807-2.015-.134-8.919-4.582-8.087 1.54 1.04 2.677 4.215 1.655 6.571-.065-2.97-.82-6.64-4.328-6.444 1.892 1.313 2.082 4.575 1.781 7.202-.52.05-.476-1.12-.254-1.39-.277-2.885-1.236-5.762-3.946-5.812 1.389.92 2.083 3.122 1.654 5.434-.487-2.507-.948-5.04-3.564-5.434.901 1.273 1.669 4.393 1.273 6.318-.582-2.69-.7-6.289-3.564-6.318.912 1.29 1.724 5.059 1.273 6.949-.67-2.83-.307-6.686-3.564-6.95 1.227 1.722 1.625 4.47 1.4 6.95-.542-1.694-.542-3.926-1.146-5.56-.623-.77-1.6-1.19-2.8-1.39 1.036 1.369 2.082 5.136 1.4 7.456-.38-2.023-.561-4.245-1.145-6.066-.687-.667-1.663-1.044-2.673-1.39 1.37 1.28 2.105 4.794 1.654 7.582-.38-3.37-.474-7.028-3.692-7.581.95 1.348 1.592 4.568 1.274 6.57-.37-1.893-.382-4.596-1.655-5.939-1.033.057-1.305-.642-2.292-.631.647.846 1.662 2.873 1.783 4.675.033.51.184 1.39-.383 1.643.295-2.33-.572-4.56-1.908-5.687-.963.534-1.262-.323-2.038-.631 1.402 1.36 1.847 4.914 1.4 6.949-.472-2.144-.083-6.025-2.927-6.57.585 1.331 1.987 4.296.382 5.939.406-2.468-.023-5.74-2.291-5.56-.017-.312-.02-.609.127-.758-.499.196-.794-.062-1.146.126 1.004 1.478 2.449 5.011 1.274 7.582-.384-1.725.173-4.078-1.02-5.687-.392-.53-1.198-.823-1.654-1.263-.28-.27-.227-.82-.764-.758.861 1.152 1.532 3.252 1.4 5.56-.073 1.299-.213 2.395-.254 3.285 5.84-.196 14.34-.134 19.985-.126 5.679.007 13.134-.447 18.585 0 .252-.11 1.277-.582 1.4 0-.376.71-1.738.367-2.418.379-6.07.104-15.272.004-22.277.252-6.847.244-13.66-.008-20.621.126-9.89.193-21.878-.052-30.934 0-3.263.02-7.246.046-9.802.127-1.122.035-2.165.235-2.673.127-2.6-.556-6.381.412-8.656.126-.558-.133-.418.427-.891.379-.27-.194-.474-.456-.763-.632.244-.389.538-.729.89-1.01.572-.062.57.446 1.019.505 9.498.207 17.735-.227 26.477-.127M165 33.472c1.891-.844 3.904-.27 6-.409-1.396.772-4.066.138-6 .41m12.076.142c-.195-.09.052-.261 0-.612.272.445.985-.61.92.612-.336-.257-.718-.21-.92 0M61.773 51c.744.397-.576.65-.612 1-.365-.228.393-.73.612-1m80.089 82.484c-.363.055-.394.431-.883.366-3.839 6.791-4.163 15.806-5.043 25.103-.025.47.586.329.504.854-.163.167-.548.12-.882.122.003.734.039 1.5-.127 2.071-.458-.49.142-2.086 0-2.316-1.71-2.776-4.414-5.9-6.431-8.408 2.241 1.815 4.196 4.963 6.305 7.312.823-1.087-.086-1.648-.63-2.438-1.26-1.824-2.632-4.225-3.657-5.727.515-.223.843.863 1.26 1.463.425.608.957 1.219 1.388 1.584-.108.284.44.525.126.609.847.4 1.033 1.44 1.766 1.95.418-.52.214-1.954.252-2.681-2.127-1.006-2.808-4.529-4.792-5.728 1.891.772 2.85 3.502 4.54 4.874.693-.487.234-1.963.503-2.68-.351-.278-.622.122-1.008-.122-1.408-2.62-3.426-4.651-4.918-7.19 2.148 2.027 3.645 4.682 5.8 6.702.296-.486-.005-1.55.253-2.071-.115-.215-.442-.223-.63-.366-1.074-2.984-3.498-4.664-4.667-7.555 1.695 2.098 3.07 4.508 5.17 6.214-.09.373.13.444.127.731.482-.555.217-1.083.505-1.827-1.139-2.84-3.661-4.344-4.414-7.556 1.537 2.049 2.906 4.26 4.54 6.216.266-.759.322-1.721.503-2.56-1.778-2.387-3.676-4.584-4.79-7.311 1.466 1.831 3.155 4.505 4.917 6.458.538-.252.35-1.205.756-1.584-1.457-2.724-3.766-4.604-4.539-7.677 1.317 2.288 2.995 4.56 4.791 6.702.322-.583.555-1.252.883-1.828-1.44-2.346-3.367-4.22-4.16-7.19a67.202 67.202 0 0 0 4.412 6.459c.766-.747 1.285-2.3 2.397-2.316.07.557-.224.76-.127 1.34M223.972 163c-1.047-3.068-.316-7.593-1.641-10.722-.034-2-.656-4.248-.896-6.46.12.069.242.135.449.13-.29-.181-.444-.479-.598-.776-.123-1.76-.343-3.483-.745-5.038-.406-1.572-1.818-2.826-1.493-4.134 1.5 1.494 2.286 4.412 2.536 6.201.794.074.178 1.66 1.045 2.455-.396.376-.502-.591-.597-.905.387 6.322 2.216 13.228 1.94 19.249"/><path d="M223.854 160c.318.768.02 1.385 0 2-.119-.876-.556-1.555 0-2m-91.262 5.81c-.557-.742-1.395-1.213-1.394-1.906-.728-.223-.864-.966-1.548-1.226-.526-1.218-1.512-2.031-2.324-2.997.116-.42-.425-.262-.31-.681 3.349 3.003 5.879 6.726 8.984 9.944-1.717.442-2.426-1.825-3.408-3.133m.608 5.232c-1.883-1.527-2.98-3.846-4.2-6.043.288.106 1.094.855 1.019 1.414 1.612 2.318 4.062 4.891 5.981 7.328-.216-.047-.24.1-.255.258-1.07-.762-2.015-1.65-2.545-2.957M223.988 167c-.726-.459-.358-3.443 0-1.132.073.471-.212.348 0 1.132M228 185.862c-.275.48-.548-.778-1-.613.434-.805.637.595 1 .613m37-136.818c-2.444 1.008-7.414.441-11.334.77-3.176.266-6.512.235-8.8-.155-1.852.88-4-.213-5.866-.307 7.522-.058 17.411-.489 26-.308m-85.347 74.658c-3.585-1.526-6.687 1.174-5.697 4.632 3.179 2.555 8.757-.957 5.697-4.632m-6.375 2.862c-.42-4.092 4.988-5.075 7.054-3.134.008.083.021.16.137.136-2.186-3.128-9.716-1.23-7.191 2.998m.678 2.724c-.386-.024.164.89-.407.68-.083-1.27-1.292-2.555-1.492-3.95-.313-2.182.706-3.565 2.035-4.631 3.198-.768 7.426-.684 7.868 2.996.528 4.393-4.282 6.925-8.004 4.905"/><path d="M179.704 134.85c.41.068.704.517.918.123-1.453-.447-3.634-.795-5.372-.244 1.132.18 3.092-.1 4.454.122m-6.028 1.949c.238.805.244 2.037.263 2.802.918 3.948 2.408 11.022 3.931 15.838.562.12.916.247 1.441.122-1.537-6.488-2.738-13.691-4.324-19.128-.651-.077-.737.37-1.31.366m.918-1.95c-2.167-.1-3.72 1.41-4.98 2.56 1.726-.792 3.263-1.758 4.98-2.56m-6.29 8.407c.19 1.694 1.064 5 1.704 6.822.433 1.236 1.06 2.034 1.964 2.438-1.038-4.037-2.127-7.79-3.144-12.062-.404.807-.661 1.576-.524 2.802m.394 4.386c-.276-.434-.145-1.246-.525-1.584.072.547.14 1.734.525 1.584m1.572-8.771c-1.078.96-.363 2.678 0 4.385.782 3.687 1.796 7.308 2.62 10.112.518.127.662.603 1.31.61-1.562-5.074-2.095-10.861-3.93-15.107m4.716 15.593c.802.068 1.148.558 1.966.61-1.39-6.513-2.65-11.278-4.062-17.666-.668.15-1.133.49-1.571.853a137.018 137.018 0 0 0 3.667 16.203m1.835-18.396c-.415-.02-.791-.004-.918.244 1.121 7.067 2.652 13.197 4.324 19.249.537.012 1.074.024 1.441-.122-.853-5.668-2.536-10.091-3.275-15.35-.814-.765-.486-3.16-1.572-4.02m6.289 16.812c-.148-.968-.266-1.896-.393-2.68-.312-1.926-1.114-3.863-1.704-5.849-.872-2.94-.48-6.33-2.359-8.527-.247-.028-.288.137-.523.121.229 3.003 1.2 6.479 1.965 9.625.395 1.62.749 3.253 1.179 4.873.42 1.581.572 3.3 1.442 4.752.66-.534.5-1.612.393-2.315m2.3 2.9c-.09.06-.194-.353-.466-.22-.6.617-1.406.509-2.227.731v.731c1.14-.093 2.375-.666 2.694-1.242.02-.012.038-.037.057-.098-.012.033-.039.065-.057.098m-3.612-16.424c-.007-1.21-.446-2.021-.786-2.924-.465-.013-.475-.45-1.048-.365v.365c.748 4.316 2.368 9.87 3.276 14.255.291 1.41.409 2.844 1.048 4.02.772-.547.492-1.584.393-2.315-.575-4.207-2.149-8.708-2.49-12.67-.122-.13-.483-.038-.393-.366m6.027 12.184c-.327-.142-.389-.532-.524-.853-.777-3.368-1.247-8.108-2.358-11.696-.233-.754-.723-1.574-1.441-1.949 1.09 3.391 1.453 7.657 2.227 11.209.332 1.522 1.178 3.369.917 4.507-.987.228-.569-.852-.655-1.462-1.311-4.628-1.79-10.188-3.668-14.985h-.393c1.23 5.751 2.453 12.05 3.668 17.421.613-.74 1.87-.94 2.227-2.192m-1.965 3.898c1.058-.6 2.426-1.56 2.49-2.68-.599 1.109-2.02 1.452-2.49 2.68m3.275-9.258c.024-1.54-.196-2.876-.917-3.412.491.965.394 2.477.917 3.412m-1.048-1.829c-.474-2.59-1.114-4.699-2.62-5.725 1.188 4.206 1.44 7.979 2.751 11.817.834-1.87.342-3.518-.13-6.092m-21.095-3.655c-.671.716-1.055 1.7-1.573 2.559.072 2.967.46 6.173 1.835 8.163 1.27 1.837 2.67 2.474 4.455 3.655.783.519 1.603 1.17 2.358 1.462 2.272.878 6.631 1.194 8.123.487-.725-.714-3.08-.31-4.454-.244-1.298-.905-3.175-1.27-4.848-1.827-4.67-2.054-7.865-8.335-5.896-14.255m23.977 18.031c.776-1.284 2.618-2.821 2.49-4.141 1.83-2.062 1.665-5.837 1.834-8.041-.135-.221-.17.147-.262-.244-.26-1.093-.173-2.35-.394-3.533-.459-2.462-1.425-4.709-3.013-6.336-.155-.14-.464-.138-.786-.12-.851-1.969-3.352-3.028-5.029-3.86.053.063.04.182-.08.204-2.2-1.447-6.554-2.058-9.041-1.828 1.365.382 1.012 1.634 1.834 2.437-.093.441-.727.38-.917.731 3.343.14 6.479 1.199 8.254 3.167.543-.139.511.257.917.244 2.536 2.565 4.31 6.43 3.93 10.234-.385 3.889-2.804 8.715-6.943 9.868-2.468.688-3.73.539-6.683.122-1.285-.18-2.001-.029-3.013-.365-1.6-.532-4.892-2.648-5.896-3.655-2.248-2.256-3.613-6.12-3.537-9.38.046-2.003 1.192-2.76 2.096-4.143.704-1.076 1.516-2.392 2.49-3.533 1.708-1.214 3.5-2.35 6.288-2.559.068-.318-.76-.414-.261-.73.408-.174 1.908.523 2.226-.245-.655-.064-.785.308-1.047-.121-.458-.806.642-.422.524-1.219-.519-.361-1.102.484-1.442.244-.699-.72 1.26-1.115.918-1.097-3.461.437-6.586 1.187-8.91 2.68.442 1.133-.84 1.414-1.048 2.316.453.098.553-.228.786 0 .208-.498-.006-1.387.786-1.34.175 1.038.374 1.922-.262 2.801-.517-.006-.791-.238-.655-.853-.555-.092-1.552.225-1.704-.243-.217-.764.763-1.269 1.05-1.95-.694.303-1.712.79-2.36 1.34-4.964 4.221-5.245 11.934-2.489 17.544 2.148 4.375 7.058 6.44 10.744 8.285 3.511.878 6.503 1.642 10.482 1.462.467-.5 1.283-.674 2.227-.73 2.157-.96 4.169-2.053 5.896-3.413m-11.792 5.24c-.773-.1-1.493-.598-2.358-.853-1.655-.487-3.671-.588-5.11-1.097-1.04-.367-2.16-1.08-3.276-1.583-1.158-.523-2.368-.986-3.275-1.584-1.758-1.16-2.738-2.833-4.062-4.02-1.12-3.384-2.014-5.466-2.096-9.26-.094-4.372 2.144-8.934 5.503-11.33.632-.451 1.562-.759 2.358-1.219.717-.413 1.418-1.044 2.096-1.34 3.252-1.42 6.933-1.916 11.923-1.584 1.607.108 2.96.827 4.455 1.34.642.221 1.377.174 1.834.366.55.23 1.18.848 1.834 1.218 1.89 1.068 3.279 2.421 4.718 3.899 1.588 2.99 3.233 6.223 3.275 9.868.044 3.868-1.443 8.568-3.8 11.087-.816.872-2.267 1.528-2.883 2.924-1.502.388-2.655 1.743-4.323 2.193-1.69.456-5.356 1.164-6.813.975"/><path d="M151.01 147.434c.065.39.437 1.337.86 1.214-2.169-4.631 4.403-6.292 6.305-3.1-1.178-4.416-7.981-2.935-7.166 1.886m2.436 2.427c.409.398 1.606.218 2.723.27 1.046-.796 2.142-2.335 1.72-3.775-.373-1.275-3.073-2.414-4.443-1.753-1.6.773-1.643 3.78 0 5.258m3.726.54c-1.83 1.543-6.146-.151-6.878-2.158-1.029-2.817.757-5.705 3.726-6.2 5.067-.612 6.54 5.5 3.152 8.357m-2.903 9.986c.284-1.84.475-3.883 2.378-4.209 2.65-.453 3.637 1.677 4.338 3.802 1.115-3.494-2.025-5.494-5.317-5.16-1.437.954-2.386 3.874-1.399 5.567m4.897 1.765c.852-1.23 1.276-3.531 0-4.752-.772-.738-2.394-.755-3.358 0-2.097 2.978.445 5.871 3.358 4.752m2.238-6.11c1.635 3.323-.179 7.371-4.337 6.925-1.917-.206-3.944-2.021-4.057-3.802-.074-1.17.294-3.028 1.12-4.073 1.835-2.325 5.607-.416 7.274.95M187 171.622c-.094-.558-.154-1.152-.249-1.71-1.192-1.144-4.117-1.602-4.598.133-.997 3.584 3.79 3.543 4.847 1.577m-4.226-3.286c1.362-.64 2.514.298 3.854.263-.511-1.082-3.43-.943-3.854-.263m-.746-.657c3.662-2.406 7.954 2.114 4.972 5.257-.893.264-1.417.982-2.237 1.051-3.203.273-5.03-3.922-2.735-6.308"/><path d="M23.668 188.145c-.467-.32-1.305-1.329-1.273-1.92.075-1.337 3.104-2.554 5.344-2.685 4.632-.272 9.025.521 14.251.64 4.833.108 8.857.765 12.852.767 2.87 0 7.058-.112 9.797-.256.062-1.256-.913-1.47-1.145-2.43-8.94-1.73-17.652-1.297-26.848-1.792-1.722.076-4.471-.067-6.87.129-2.868.233-6.048.713-8.017 1.662-.921.445-2.121 1.14-2.545 1.791-.555.855-.728 3.154-.254 4.222.433.975 2.917 2.502 4.454 3.07 3.095 1.144 5.453-.06 7.506-1.407-2.035-.657-5.416-.53-7.252-1.791zm9.542 1.151c1.415-.218 2.833-1.095 4.327-1.407 1.813-.379 3.377-.25 5.09-.384 3.24-.254 6.178-.852 9.161-1.023 2.582-.148 5.718-.382 8.27-.128 2.36.235 4.885 1.426 6.618.256-.156-.27-.48-.372-.51-.767-.3-.239-.417.528-1.146.255-2.779-.198-5.925-.502-9.033-.64-4.848-.214-10.012-.177-14.887-.511-5.615-.384-11.997-1.636-16.923.128-2.868 1.987 1.965 3.41 4.58 3.837 1.552.254 3.192.58 4.453.384zm31.048-6.908c-.03-.396-.355-.497-.51-.767-.265.305.18.671.51.767zm18.727 17.721c.127-.001.231.026.27.105.105.215.266.388.452.538.015.006.033.007.047.016.145.096.292.187.44.277.214.018.438.196.651.37l.035.02c.023.012.037.026.042.042.116.094.228.179.33.228 1.589.748 3.592 1.16 5.09 1.535 2.11-.406 5.611-.265 6.744-1.663.002-2.56-1.794-3.313-2.926-4.734-3.069-1.898-6.577-2.891-10.16-4.046-.025.005-.052.012-.075.014-.196.024-.419.036-.604-.05-.019-.002-.037-.007-.055-.011-.6.019-1.324-.42-1.958-.511-1.873-.27-3.919-.272-5.854-.64 1.575 2.484 3.802 5.073 6.108 7.292.416.399.888.744 1.303 1.134l.015-.002c.148 0 .161.037.105.086zm-13.51-10.3c1.596 2.28 2.898 4.91 4.453 6.779.378.455.994.715 1.4 1.151 1.454 1.57 2.525 3.253 4.58 4.35.819.436 1.958.416 2.418 1.407.327.128.742.168 1.039.326.193-.026.37.002.42.123a.78.78 0 0 0 .174.236c3.78 1.695 7.843 1.91 12.364 1.234 2.451-.367 4.475-1.638 5.47-3.71a14.31 14.31 0 0 1-.38-2.048c-2.491-5.194-8.488-6.772-14.125-9.338-.639.062-1.284-.318-1.909-.51-.364-.114-.958-.1-1.287-.352a.424.424 0 0 1-.173-.05c-.021-.011-.045-.017-.067-.029-.023-.003-.046-.002-.068-.007a4.34 4.34 0 0 1-.52-.152 7.67 7.67 0 0 0-.74-.18.145.145 0 0 1-.073-.032c-.453-.104-.923-.26-1.398-.35-2.879-.551-5.833-1.258-8.525-1.152.744 1.28 1.426 2.648 3.054 3.198 1.805.61 4.565.439 6.361.768.426.078 1.032.23 1.417.544.23-.078.491-.098.59.015.033.039.059.084.086.128h.239c.11 0 .307.044.306.16 2.28.322 4.65 1.13 7.033 2.479 1.331.753 2.841 1.203 3.817 2.046.156.135.086.465.255.64.594.62 1.417.762 1.781 1.535.339.719.271 1.725.382 2.431-1.882 2.59-7.695 2.746-11.07 1.663-.87-.279-1.888-.696-2.483-1.27a.623.623 0 0 1-.377-.04c-.62-.343-1.358-.638-1.688-1.312-.007-.015.002-.031.004-.048l-.03-.029c-.149 0-.159-.038-.096-.09l-.293-.28c-4.056-3.898-8.238-8.738-10.941-14.073-.382-.171-.617-.488-.764-.895-.103-.44-.655.078-.891-.384-.146-.53.268-.499.255-.895-.763-.983-.861-2.633-2.036-3.198-.488-2.496-2.244-3.714-2.8-6.14-.125-.174-.429-.167-.508-.384-1.768-4.233-3.757-8.88-5.345-13.689-.431-1.305-1.132-2.462-1.4-3.71-.437-2.036-.68-4.13-1.017-6.268a205.768 205.768 0 0 1-.764-5.372c-.373-2.842-1.513-6.29-1.145-8.955-1.943-8.16-1.085-17.53-.509-26.736.382-6.109.782-11.972 1.146-18.166.153-2.609-.035-4.89.254-7.803.071-.722.423-1.012.509-1.535.179-1.093.078-2.326.254-3.454.378-2.407 1.316-4.823 1.91-7.292.307-1.283.525-2.499.89-3.71.516-1.711 1.134-3.268 1.654-4.86 1.192-3.654 2.98-7.4 4.835-10.618 1.241-2.154 2.669-3.998 4.453-5.5.872-.735 1.839-1.28 2.799-2.048-.04-.982-.492-1.55-.636-2.43-2.27.971-3.971 2.702-5.471 4.477-1.48 1.752-2.943 3.834-3.818 6.14-1.09 1.258-1.86 2.878-2.672 4.35-.843 1.532-1.48 3.328-2.035 4.989-2.34 6.995-4.502 14.634-5.6 21.875-.158 1.056-.022 2.298-.127 3.454-.262 2.889-.742 6.181-.89 9.466-.183 4.06.076 8.177-.127 12.281-.069 1.395-.466 2.617-.636 3.966-.358 2.824-.213 6.732 0 10.49.039.678-.054 1.374 0 2.046.217 2.718.887 5.79.763 8.443-.008.17-.256.465-.255.64.01.62.373 1.22.382 1.79.012.619-.258 1.185-.254 1.792.019 2.634.91 5.078.89 7.675 1.317 5.963 2.375 12.024 4.454 17.398 1.01 2.61 2.33 5.062 3.308 7.675.997 2.662 2.282 5.15 3.181 7.804 2.005 3.722 3.9 7.61 6.363 11.13zm-.128-8.572c-.2.19-.44.661.128.64-.07-.187.148-.662-.128-.64zm98.357-87.883c-.65-.201-1.206-.494-1.78-.769-1.655-1.896-2.824-4.45-4.072-6.395-1.263-1.124-2.53-1.405-4.582-1.92-4.264-1.068-8.246-1.826-11.579-2.558-.027-.154-.14-.079-.254 0-.106.69.05 1.324.127 1.919 3.365 1.009 6.921 1.795 10.56 2.814 1.105.31 2.747.492 3.564 1.023.645.42 1.212 1.684 1.782 2.559 1.675 2.58 3.452 4.414 6.489 5.245.063-.789-.353-1.095-.255-1.918zm1.527 1.918c-.247-.52-.579-2.06-.89-2.942-.026.554-.172 2.714.89 2.942zM82.644 183.52a.563.563 0 0 1 .117-.094c.64-.373 1.333-.421 2.04-.569.135-.028.518-.11.574.1 2.125-.597 3.796-1.059 6.112-1.72 4.697-1.34 8.233-2.265 14.124-2.303 1.533-.01 3.256.365 4.962.384.275-1.727 1.713-2.287 3.054-2.942-2.621-1.02-5.342-.575-8.016-.64.267-.731 1.834-.447 2.545-.255 1.477-.56 4.01.154 6.362.128.816-.834 1.241-2.043.89-3.455 1.235-2.98 3.1-5.325 6.49-6.14 2.003-9.015 3.192-19.568 5.598-28.271.041-.15-.06-.915.382-.768.537-5.76 1.746-12.905 6.617-15.606.378-.277-.046-.698.38-1.024.294-.307.412-.195.892-.128.514-1.061.78-2.371 1.654-3.07 3.537-.489 7.74-.566 11.961-.128.665.069 1.496.33 1.909.256.611-.11 1.959-1.474 2.798-2.047 1.05-.715 2.247-1.073 3.18-1.535 2.32-1.148 4.084-2.21 5.727-3.07.422-.22.774-.15 1.146-.384 2.99-1.885 3.477-6.704 5.216-9.978.027-.453-.597-.252-.51-.767.59-.452 1.034-.254 2.038-.256.131-.522-.23-.417-.255-.896-.026-.49.427-.816.381-1.023-.14-.633-1.065-.562-1.018-1.535-2.28.928-5.974-1.322-7.38-2.815-1.443-1.532-2.034-3.78-3.308-4.86-1.984-.921-4.036-.886-6.362-1.664-.61-.203-2.354-1.002-3.435-1.279-1.648-.422-3.527-.108-4.708-1.151.06-1.164-.412-2.36.255-3.07 2.216.16 3.789.965 5.98 1.15.068.265.601.032.255.385 3.736.594 8.665 1.094 11.196 3.326 1.457 2.373 2.2 5.465 4.963 6.524.2-.48.643-.717 1.145-.896.22-2.209 1.436-3.417 3.181-4.093.018-.805.011-.995.128-1.535-.336-.857-1.464-.917-2.418-1.152-.414-.991-1.38-1.427-1.146-3.07.903-.155 2.057-.828 2.546-1.79-.369-.179-1.075.027-1.91 0-.307-.41-.154-.452 0-.896-.524-.1-.238.612-.762.512.138-1.72-1.993-1.834-2.037-2.943.4-.574 1.184.571 1.654.767-.073-2.07-.205-5.135-.509-7.803-.38.172-.857.247-.89.768-.151.663.488.533.636.895-1.173.937.222 3.556-.382 4.606-.527.466-.324-.621-.763-.64-10.238-.169-20.722-1.82-28.375-5.117-.732-.315-1.595-.477-2.163-.767-3.09-1.576-4.873-4.572-6.998-7.036-.01-1.867-.921-2.827-1.655-3.965-.185-.392-.033-.667.128-1.025-1.71-1.268-2.541-3.5-1.654-5.372.238-.504 1.615-1.591 1.654-1.918.021-.177-.535-.648-.636-1.024-.168-.616.063-.709.127-1.152-.97-.815-1.694-1.878-2.163-3.198-.533.243-1.41.17-1.654-.255-1.593 2.061-5.15 2.375-5.853-.64-1.775 1.247-2.92-1.245-3.69-2.558-3.522.2-6.432.27-9.926.383-.332.39-.195 1.253-.763 1.408.775.31 1.848.461 2.673 1.023.77 1.756-.738 2.745-1.655 3.582 2.34.463 4.403 1.203 5.217 3.198 2.086-.093 3.167.825 3.817 2.174.331-.05.384-.381.764-.384.136.12.04.473.382.384 4.004.274 9.499.506 9.289 4.99-2.145 4.112-5.944 6.56-10.688 8.059-.774 1.055-1.057 2.605-2.546 2.942.462 2.02-1.222 2.59-2.036 3.71 1.728 4.832 7.079 9.529 13.36 7.42 1.727-.58 3.273-2.146 3.818-3.71.555-1.596.501-3.913 2.8-4.35.48.448.897 1.225 1.527 1.151 4.216 9.99 6.807 26.652 4.07 40.04-.423 2.072-.64 3.699-2.417 4.35-.7-.235-1.356-.512-2.035-.767-.487-1.771-1.302-3.212-1.782-4.99-2.345-2.828-4.71-3.566-9.288-4.35-2.578-.44-5.285-1.602-7.763-3.197-7.281-4.688-9.464-12.897-12.723-21.875-.31-.85-.582-1.892-.89-2.942-.477-1.622-1.165-2.721-.637-4.222-1.205-.576-3.3-.808-2.8-2.686-1.914-.55-4.03-.894-5.216-2.175-1.144.13-2.37-.014-3.503-.223-.282.151-.733.19-.803-.047-.004-.015-.005-.027-.01-.042-3.157-.367-5.684-.988-7.517-2.886-2.079-5.723 4.104-7.087 7.761-8.7h.254v.016a1.3 1.3 0 0 1 .19-.046c.11-.272.306-.41.574-.225-.062-2.238 1.827-2.512 3.18-3.326.198-1.744.966-3.172 2.037-4.221-.567-.326-1.029-.758-1.528-1.151-.286-2.165.803-2.947 1.91-3.71-.76-.644-1.725-1.082-2.29-1.92-.626.178-1.38.631-2.037.384-.294-.343-.596-.68-.509-1.406-.242.331-.531.617-1.176.545-.172.09-.384.116-.532.043-.06-.029-.1-.066-.146-.1-2.877-.24-5.298.26-7.816.791-.407.273-.082 1.282-.509 1.535-.7.46-1.748.27-1.908-.512-3.955 2.25-6.194 6.225-8.652 9.979-.734 2.546-1.963 4.594-3.055 6.78-2.1 7.83-5.022 15.682-5.598 24.177-.537 7.911-.583 15.212-1.145 22.77-.796 10.683-1.816 21.46 1.272 32.493.093.56-.253-.103-.255.256.848 5.167 1.489 10.048 2.418 14.967.79 4.183 2.858 8.387 4.453 12.28 1.624 3.962 3.617 7.78 5.6 11.258 4.861 1.389 10.006.009 14.668-.547.102-.028.204-.047.293-.05l.054-.004c.012-.006.024-.01.034-.017.1-.062.195-.129.287-.201.19-.15.45-.223.686-.245a.58.58 0 0 1 .243.03c.508-.25 1.215-.377 1.674-.501 2.686-.728 5.62-1.312 8.398-1.791 3.216-.554 6.41-1.36 8.653-1.023.402-.351 1.542-.339 2.29-.128-1.825.72-4.305.369-6.489.639-1.48.183-3.121.829-4.834 1.151-3.696.696-7.173 1.652-10.307 2.43a.698.698 0 0 1 .01-.14c-.09.027-.178.06-.267.089-.32.471-1.15.47-1.653.564-3.305.615-7.819 1.02-12.087 1.279-.476 1.029 1.204 1.566 1.145 2.174-.425-.364-.443-.432-.89-.64-.2.47.518.657.253.769 3.94.49 8.33-.277 12.28-.276zm40.653-1.387c-.373 1.162-.882 2.71-1.272 3.965-.546 1.76-1.023 3.235.254 3.838 1.747-3.41.765-8.236 4.326-9.722-.255-.682-.668-1.205-1.272-1.535-.69.889-1.559 1.968-2.036 3.454zm-3.69 3.837c0-.071-.103-.145-.127 0 .65.455.667 1.546 1.4 1.919 1.23-3.069 1.714-7.49 4.071-9.978-.385-.465-.574-1.128-1.145-1.407-2.376 2.173-2.17 6.943-4.199 9.466zm-1.527-2.43c.461.95.712 1.325 1.273 2.174 1.563-3.212 1.585-7.804 4.326-10.105-.452-.442-.852-.935-1.145-1.535-2.755 1.878-2.923 6.356-4.454 9.466zm3.945-10.234c-.339-.555-.77-1.017-1.018-1.663-1.426 1.18-2.16 3.044-2.927 5.373-.69 2.096-1.717 4.895-.254 5.756.844-2.717 1.68-6.364 3.307-8.698.192-.304.537-.129.638-.257-.345-.115.29-.286.254-.511zm3.563 20.468c.924-3.032.654-8.163 3.18-10.618-.583-.78-1.089-1.634-1.653-2.43-3.337 1.507-2.835 6.871-4.454 10.105.494.442.35 1.526 1.018 1.791.765-2.835 1.292-5.454 1.78-7.675.271-1.226.662-3.097 2.164-2.942.158.346.491.318.255.767-.217.25-.893.04-1.018.384-.83 2.554-1.585 5.84-2.29 8.315-.164.576-.524 1.164-.636 1.663-.16.705.943 1.766 1.399 2.558.372.649.3 1.33 1.018 1.664.43-4.326 1.826-9.048 3.308-12.793-.31-.113-.138-.715-.635-.64.043.73-.598.935-.892 1.536-1.39 2.847-1.018 7.647-2.672 9.85-.904-.27.26-1.324.128-1.535zm-3.817 5.883c.111.4.599.42.763.769.296.939.645 1.824 1.4 2.302-.048-2.267.045-4.365 1.908-5.117-.398-1.262-1.372-1.946-1.908-3.07-.117-.43-.238-.063-.637-.128v-.896c-2.618-5-6.062-9.17-8.398-14.455.56-.09.876 1.165 1.4 1.536 1.318-3.5 1.692-7.228 4.2-9.595-.222-.337-.742-1.039-.383-1.535.852.405 1.356 1.208 1.782 1.919.997 1.666 1.825 3.286 2.926 4.861 1.752 2.506 3.563 5.004 4.963 8.06.433.245.974.383 1.017 1.023.795.431 1.523-.641 2.29-.512.547.472-.901.903-1.4 1.15-2.194 2.57-2.93 6.606-3.689 10.619-1.168.26-1.05 1.944-2.545 2.174-.23 1.642-.764 2.522-.127 3.966 12.015.093 25.035.023 37.79-.127 20.25-.24 43.454-.542 63.876-.64-.002.016-.001.033-.003.049.043-.01.086-.023.13-.03v-.02c.05.003.107.001.158.003.045-.005.092-.01.136-.013a.451.451 0 0 1 .13.017c3.446.089 7.857-.604 11.281-.39.917.057 1.655.674 2.419.256-.347-1.307-.242-2.563-.637-3.583-.512-1.322-1.937-1.758-2.8-2.686-1.606-2.483-1.434-6.256-2.799-9.082-.976-2.024-4.793-2.457-5.47-4.733-.556-1.865-.47-4.413-.764-6.78-.58-4.666-1.257-9.431-1.576-14.576a9.379 9.379 0 0 1-.249-.983c.013.324.02.646.044.975-.954-5.155-2.012-12.436-3.436-18.293-.446-1.829-1.083-3.594-1.527-5.372-.495-1.978-.44-3.62-1.145-5.117-.52-1.105-1.39-2.27-2.164-3.326-1.827-2.495-4.077-4.577-6.87-6.269 1.267 2.309 3.463 4.79 5.216 7.036-.002.302.22.377.128.768.425.808 1.07 1.397 1.654 2.046.688.205 1.206.145 1.273 1.152-2.707.227-7.344-.404-11.197-.384-1.796.01-3.292-.036-5.218-.256 5.477 8.932 6.759 26.12.382 34.796-.706 2.165-1.014 5.056-1.272 7.291-.253.12-.607.417-.891.128-1.153 1.386-2.867 2.065-4.58 3.326-.618.454-.958 1.037-1.528 1.023-.658-.015-.593-.552-1.145-.767-1.819-.71-3.713.683-5.344 1.15-2.16.622-3.98 1.476-7.125 1.28-.478.283.147.167-.128.513-.85-.1-2.352-.415-2.926 0-1.47-.362-2.862-.267-4.327-.384-2.961-.238-5.322-1.605-7.888-2.303-2.356-.641-4.767-1.17-6.744-2.559-.472-.332-.87-.97-1.4-1.407-.549-.454-1.208-.706-1.654-1.151-4.068-4.07-8.547-9.997-9.67-15.863-.173-.9.1-1.905-.636-2.558.19-2.797-.465-6.747.255-10.362.337-1.695.827-3.798 1.526-5.501 1.028-2.505 1.821-4.637 3.436-6.14-2.828-.384-6.779-.226-9.162-.64-.124-.473-.456-.735-.382-1.407-2.147-3.086-4.159-6.308-6.743-8.955-.605.725-1.334 1.068-2.036 1.92.039.508-.294.642-.254 1.15-.416-.034-.27.496-.637.512-4.792 12.084-6.19 28.063-9.543 41.192 3.319 5.533 7.447 10.934 10.943 15.862.491.21 2.404-.075 2.672.768-.618.543-1.435.234-2.29.639-.318-.448-.943-.587-1.4-.895-2.069-3.517-4.84-7.183-7.125-10.618-.593-.891-1.11-1.737-1.655-2.558-.351-.53-1.468-2.316-1.908-2.43-.052-.015-1.18.264-1.146.255-1.479.39-2.693 1.465-3.18 2.814-.74 2.045-1.247 5.768-2.927 7.036-.862.651-1.816.483-2.927 1.023-.279.757-.228 1.127.255 1.536.019.565-.311-.013-.636.128.044 1.045-.234 2.085-.254 2.686 3.293 5.643 6.994 10.877 10.052 16.757zm-6.999-7.803c1.153.505 1.252 2.75 2.673 2.559-.796-1.801-2.176-3.016-3.181-4.605.045.806.553 1.148.508 2.046zm17.687 14.328c-.165-.176-.553-.127-.891-.128-.157.425.86.312.891.128zm4.071-1.151c-.648.118-2.468-.268-2.29.256.298-.212 1.74.284 2.29-.256zm6.744-.512c-.699.022-.912.533-1.4.768.61-.113 1.35-.093 1.4-.768zm-12.215 6.524c4.041.683 11.122.961 14.251-1.663-.177-1.66.438-3.248-.127-4.861-.107.148-.168.343-.127.64-1.069.015-1.593.77-2.546.895-1.151.153-2.202-.417-3.308-.384-1.222.037-2.548.45-3.944.512-.806.035-1.646-.026-2.545 0-.349.115.249.47-.254.512-1.54-.03-2.179-.71-3.308-1.024-.402 2.397.614 4.275 1.908 5.373zm99.12-7.29c-.523-.473-1.826.005-3.054-.13v-.007a1.783 1.783 0 0 1-.24-.018c-.006.007-.008.018-.013.026h-3.69c.896.602 2.653-.09 3.56.53.153-.054.315-.094.472-.086.08.005.161.02.24.032.62-.249 1.966.034 2.725-.348zm-3.463 5.87c.207-.073.434-.08.548.023 2.568.193 6.782.026 8.386-1.801-.195-1.504.304-3.093-.254-4.35-1.678 1.006-4.447 1.392-7.125 1.408-.119 0-.3.02-.483.018a1.265 1.265 0 0 1-.266.14c-.166.06-.488.168-.658.062-.066-.04-.292-.1-.073-.154-.083.021-.511.14-.552-.015-.003-.007.001-.014.001-.02-.306-.042-.646-.148-.896-.16-1.72-.072-3.665.001-4.58-1.022-.248 1.7.034 2.882-.127 4.605 1.485 1.033 3.961 1.164 6.079 1.266zm.306-54.89l-.023.53.023-.002v-.527zm-17.329-33.109c-.834-1.378-1.817-2.606-3.053-3.581-.565.225-1.557.388-2.29.255.052 1.04.768 1.976.89 2.943.487 3.848-1.009 6.287-5.599 5.757.139.545 1.173 1.293 1.527 2.046 5.344.132 10.355-.274 14.76.128-1.758-2.496-3.836-4.671-5.344-7.42-.492-.131-.524.067-.89-.128zm-55.604 8.443c-3.178-.295-5.3-.034-8.016-.128-.489-.017-1.327-.14-1.781-.511.06-.41.483-.451.509-.896-2.389-2.929-4.432-6.204-6.998-8.954-.455.565-.84 1.203-1.655 1.407 2.504 3.129 5.643 6.666 7.508 10.361 2.903.537 5.916.291 8.907.64.45-.697 1.095-1.2 1.526-1.919zm49.242 1.536c5.011.273 9.828.728 14.634.512-.655-.494-1.095-1.203-1.528-1.92-4.433-.469-9.53-.232-14.378-.256.35.63.702 1.256 1.272 1.664zm2.419 26.608c.223-.715.898-1.652.635-2.43.013.916-1.094 1.898-.635 2.43zm-5.09 8.698c-.211-.214-.747-.101-1.145-.127v-.64c-1.91-.907-4.385-3.733-6.236-2.814.183 2.64 2.458 4.26 3.945 6.012 1.654-1.058 2.477-.781 3.435-2.43zm1.653-.127c1.471-1.805 3.285-3.947 3.182-6.909-1.109 2.127-2.51 3.96-4.072 5.63.137.586.73.715.89 1.279zm-1.908 6.396c.163.007.176.164.381.128.159-1.525 2.291-5.085.51-5.757-1.054 1.457-3.02 1.995-4.2 3.326-.124 1.921-.502 3.588-.635 5.5 1.329-.206 2.144-2.015 3.69-2.43.25-.089-.031-.713.254-.767zm-3.944-3.71c-.568-1.707-2.326-2.352-3.315-3.88a7.865 7.865 0 0 1-.376-.725c.106.263.232.503.376.724.441.766.998 1.532 1.406 2.346.29.578 1.542 1.21 1.654 2.174.223 1.92-1.48 4.613-1.018 6.525.302.337.705-.309.89-.512-.631-2.267 1.013-4.757.383-6.652zm-13.106 5.629c-3.377.405-7.077.709-10.18.127-1.636-.306-2.939-1.155-4.453-1.662-2.368-.793-4.545-1.317-6.617-2.559a78.955 78.955 0 0 1-5.853-3.837c-2.547-2.556-4.444-5.766-5.852-9.467.26.293.621.484.635 1.024.735.23-.001-.39 0-.384-.826-2.866-2.159-6.553-1.653-9.21-.867-3.23.2-7.04.636-9.595-2.595 6.28-2.028 16.663.763 22.77.15.318.805.129.891.512 2.39 5.063 6.084 9.595 11.451 12.024 5.045 2.285 11.597 4.341 17.941 3.966.97-.057 1.86-.546 2.8 0 3.94-.69 8.25-2.106 10.815-4.605.1-1.66 1.033-2.794.763-4.221-.124-.664-1.14-1.832-1.653-2.559-.663-.94-1.509-1.575-1.782-2.558.333-1.285.762-2.476 2.164-2.687 2.423.847 4.314 2.23 6.743 3.07 1.479-1.515 2.372-3.273 3.308-5.244.724-1.524 1.313-2.831 1.781-4.862.617-2.673.6-4.188.51-6.78-.204-5.858-2.293-12.34-4.963-15.734-.268.198-1.123.18-1.4-.256-.106-.567.894-.444.51-.895-.541-.758-1.12-1.791-2.29-1.536-.439-.394.285-.78 0-1.023-4.358-3.338-10.22-7.308-17.56-7.803-4.171-.281-8.535-.06-11.834 1.15-.595.104-.225.51-.636.64-2.267.099-4.202 1.472-6.235 2.687-.766.458-1.526 1.033-2.29 1.535-2.308 1.518-3.2 2.58-4.962 4.605-2.491 2.863-4.497 7.952-4.963 11.897-.667 5.66.557 10.853 2.29 15.607 1.076.584 1.55 2.168 2.164 3.454.667 1.397 1.659 2.5 2.29 3.71 2.5 2.182 5.232 4.132 9.034 5.628 3.139 1.236 6.675 2.638 10.053 2.943 1.6.144 3.627-.036 5.343-.129 5.225-.281 9.954-2.074 12.725-3.581-2.136 2.263-6.382 3.352-10.434 3.838zm-33.21-56.542c-4.172.139-6.853-.136-10.689 0 1.991 3.968 4.776 7.139 7.38 10.49 2.347-.104 5.026.173 8.144.127.073-.397.599-.336.637-.767-1.156.067-2.335-1.483-3.563-.896-.722-.823-2.084-.95-2.418-2.175-.577-2.115.204-4.84.51-6.78zm51.023-.64c-.105-.362.18-.331.128-.64-2.942-2.202-7.057-3.225-11.197-4.221-4.794-1.706-7.289-5.72-8.398-11.13-1.722-2.717-6.19-2.039-10.053-1.919-1.094.919-1.767 2.132-2.035 3.838-.438 2.785-1.518 4.744-3.054 6.524-2.134 1.592-4.317 3.547-7.126 4.605-1.92.725-4.216 1.18-5.726 2.431-.52.432-.683 1.073-1.4 1.28-1.68 2.14-1.72 5.996.383 7.675 1.823.177 2.914.858 4.835.511.421-1.899-.212-4.457.255-6.14.257-.929 1.676-3.685 2.417-2.43-1.827 1.493-2.166 4.567-1.781 7.675.503-.432 1.266-.603 1.653-1.152-.502-2.28-.594-6.955 2.164-7.163-1.319 1.46-2.277 4.373-1.4 6.908 1.97-1.346 3.956-2.676 6.489-3.454-.081-1.522-.114-3.332 1.4-3.582-.195 1.168-.883 1.842-.763 3.326.757.036 1.177-.266 1.781-.384.344-1.235-.377-2.63.89-3.07.121.662-.19 1.919-.254 2.814.711.075.981-.292 1.654-.255.301-.892-.035-2.424.89-2.687.587.746-.478 1.633 0 2.559.187-.496 1.3-.06 1.655-.384.018-.792.059-1.561.254-2.175 1.064.255.195 1.39.382 2.175.503.19 1.1-.2 1.655 0 .043-.81-.238-1.945.635-1.92.238.668.16 1.219.128 1.92.961-.072 1.699.082 2.544.128-.18-.693-.429-1.898.382-2.175.563.527.045 1.415.255 2.175.66-.099 1.265.36 1.782 0 .274-.637-.628-1.718.126-2.175.843.108.498 1.89.382 2.559 1.356-.1 1.979.503 3.054.127-.316-.431-.975-2.129 0-2.302.262.803.481 1.648.51 2.686.933.127 1.69.431 2.543.64-.022-1.173-.957-2.106-.89-2.942 1.315.255 1.223 1.926 1.527 3.198.67.138 1.535.756 2.036.64-.18-1.418-1.132-3.353-.89-4.35 1.006 1.034 1.225 2.86 1.4 4.733 1.008.435 1.883 1.005 2.798 1.535-.007-2.04-.951-3.899-1.909-5.372 1.975.121 1.894 3.532 2.418 4.86.063.404-.229.452-.127.896 1.384.484 2.06 1.681 3.563 2.047.362-.148.18-.843.636-.896 1.477-.179 2.578.33 3.435-.256 1.995-1.365.092-7.488-2.036-7.291zm-29.9-19.445c.675.82 1.056.42 1.781.384 2.212-.112 3.698.272 5.598.128.072-2.427-3.27-1.472-4.963-1.407.291.176.795.14.764.64-1.082-.1-2.828-1.079-3.18.255zm9.414-6.396c-.141-4.146-5.717-5.87-8.906-3.326-.296-.056-.185-.72-.509-.384-3.21 1.616-2.12 7.25.51 8.571 1.73-.586 4.425-.146 5.724-.256 1.91-.832 3.26-2.32 3.181-4.605zm-7.888-4.861c1.728-.35 2.832-.064 3.944-.256-.106-.89-.115-1.312.255-1.919-1.926.023-2.656-.246-4.58-.128.075.413.482 1.647.38 2.303zm-2.672-5.885c-.532.106-.825.45-1.146.768.508.316.834-.479 1.146-.768zm9.798 2.303c-3.817.056-7.438-.404-10.307.128.94.69 2.447.377 3.817.384 2.342.012 5.06.809 6.49-.512zm.508-1.151c-1.442-.681-2.355-1.896-3.69-2.686-1.117.026-3.387-.046-4.708 0-.154 1.379-1.098 1.965-1.781 2.814 1.774.268 4.34.405 6.235.127.71.261 1.55.298 2.29.257.485-.028 1.396.057 1.654-.512zm-11.197-3.454c.336.038.417-.177.382-.512-.343.01-.612.292-.382.512zm10.942-.256c-.036-.347-.163-.603-.38-.768.622-.6.62-1.97.508-3.325-.156-1.88-.242-3.68-.763-6.013.331-.268.107-.499.255-.768-3.666-.27-8.29-.274-11.58.64-.276 2.895.246 6.753.636 9.21.459.223.7-.485.51.512.327.476.61-.464.763-.128-.028.468-.175.49 0 .896 3.45.207 6.79-.024 10.051-.256zm.637-1.791c.557.048.655-.365 1.145-.384-.095-2.728.01-3.844.127-6.524-.634-.045-.932-.428-1.654-.384.243 2.64.217 4.968.382 7.292zm1.782-2.559c4.953.49 10.284.218 16.032-.383 1.904-.2 3.931-.478 5.725-1.024 1.81-.55 3.96-.985 5.09-1.663.327-.195.545-.622.891-.895 1.592-1.259 2.336-1.832 3.435-3.326 1.614-2.194 3.39-4.137 3.69-7.164-1.98-.297-2.316 1.675-2.036 2.559-.274.486-.698.208-1.144.64-.434 1.398-1.588 2.071-2.291 3.197-6.887 5.36-18.681 4.93-29.52 5.756.104.5-.067 1.57.128 2.303zm35.754-12.536c.113-.152.358-1.211-.127-1.151-.135.34-.24.982.127 1.151zm1.018-3.198c-.035-.434.098-1.037-.127-1.28-1.154.314-2.778.611-3.818 0-.173.31-.205 1.325.255 1.663.953.059 2.852.089 3.69-.383zm.764-6.524c-1.053-1.563-4.592-1.484-5.6-.128-2 2.694 1.564 6.406 4.836 4.605 1.131-1.4 1.789-2.955.764-4.477zm-4.073-2.302c1.22-.02 2.173.146 2.291-1.152-.561.204-1.724.61-2.545.384.286.053.003.679.254.768zm2.927-5.374c.96-.108.412-1.573 0-2.046.15-.317.529.31.51-.256-.128-2.051.796-5.69.508-7.932.926-.465 1.153-2.691.637-3.453.458-.307 1.227-.302 1.017-1.28-1.133-.072-1.783.34-2.545.64-.69 3.212-1.39 7.786-.89 11.001-.602 1.736-1.312 3.916-3.309 3.838a21.34 21.34 0 0 1-.126 2.302c.787.253 2.137 1.35 3.435.384.021-.363-.43-.249-.254-.767.971.026 1.381-1.319 1.017-2.43zm1.655-.384c3.178-.924 4.332-10.201 1.78-12.664-.023.19-.307.117-.509.128.045.537-.48.875 0 1.151-.053-.338.382-.253.51-.128-.211.344-.54.567-.764.896.36 1.817.413 3.539.127 5.5-.312 2.148-1.886 3.215-1.144 5.117zm6.235-1.535c.016.049.026.105.04.157.085-.04.188-.07.299-.091.112-1.563 1.096-2.706 1.187-4.415.059-1.106-.3-2.217 0-3.454-.78-.522-.572-2.037-1.25-2.661-.237.044-.48-.01-.534-.22-.009-.033-.012-.066-.02-.098-1.217-.242-1.735-1.647-3.285-.73 1.994 4.437 1.248 10.323-1.273 13.303 1.576 1.661 4.193-.204 4.836-1.79zm3.307 0c1.414-3.671 1.091-8.759-2.036-10.234 1.373 3.593 1.109 7.298-.386 10.328-.182.424-.325.824-.337 1.265 1.28.251 1.89-.934 2.76-1.359zm-14.378-1.023c-.08.775-.993 1.387-.89 1.92.556-.508 1.483-.642 1.399-1.792-.172-.04-.243-.182-.509-.128zm-3.817-3.198c-4.332.051-9.373.417-14.25.512-20.229.388-41.13.773-60.44 1.152-.53.01-1.564-.343-1.909.383.279.703 1.629.384 2.29.384 13.398 0 24.4-.375 37.663-.512 11.667-.12 26.496-.681 37.41-.896.563-.011 2.022.455 2.162-.64-.58-.37-2.024-.393-2.926-.383zm.381-1.79c-7.31.289-15.555.625-23.285.383 8.357-.716 16.13-.342 25.067-.896-.18-1.69-1.845-1.28-3.054-1.279-1.444.003-3.16.088-4.58-.128-1.866.344-4.105.352-5.854.128-3.508.401-6.95.282-10.306.256-7.76-.06-16.008.216-23.157.512-10.582.437-20.98-.088-31.683.768.356.204-.18.575 0 1.023 5.082.72 9.792.023 14.633 0 2.522-.012 5.04.119 7.634 0 11.229-.517 20.006-.19 31.3-.64v.256c-.127 0-.15.104-.253.128-1.063.195-1.623.01-2.545 0-1.446-.017-2.774.07-3.945.128-3.28.159-6.3.359-9.543.384-6.349.048-12.904.383-19.34.383-5.234 0-10.325.395-14.887.384-.868-.002-2.8-.888-3.054.64 13.04.612 26.541-.384 39.571-.384 11.754 0 23.108-.444 34.864-.768 1.967-.054 3.843.25 4.836-.511-.211-1.208-1.677-.797-2.419-.768zm-.762-3.71c-7.809-.156-15.791.392-24.304.127-1.434.185-3.825.089-5.344.128-1.497.04-2.828.338-4.072-.256 2.6.107 5.683-.403 8.144.128 1.13-.444 2.574-.189 3.817-.128 1.04.05 1.225-.204 2.036-.256.766-.048 1.63.145 2.417.128.39-.008 1.789.124 1.654.128 4.796-.142 10.116-.48 16.033-.383-.827-1.696-2.171-1.033-3.945-1.024-2.002.01-5.115 0-7.889 0-11.47 0-20.927.157-32.573.128-11.095-.028-22.136.335-32.446.512-.006.274.563.611.254.767 3.436.604 7.336.256 12.088.256 1.73 0 3.508-.198 4.708-.128.258.016.907.382 1.145.384 1.236.012 2.58-.365 3.817-.384 2.872-.044 5.806.042 8.907.128-4.659.415-11.167.35-15.27.384-5.191.042-10.995.087-15.14.512-.291.218-.047.976-.127 1.407 6.232.178 15.521.065 22.394-.128 1.376-.039 2.265.03 3.308 0 17.241-.492 36.036-.422 51.787-1.28.197-.973-1.43-1.553-1.4-1.15zm.635-3.839c-.821-.157-.969.094-1.908-.127.386.805 1.13 1.252 2.035 1.535.46-.661-.489-.762-.127-1.408zm-33.082 1.28c-5.14 0-10.223.128-15.27.128-10.071 0-18.831.01-25.702.127-1.006.018-2.477-.003-2.926.64 3.377.344 6.23-.285 10.306.256 19.31-.589 40.54-.142 63.239-1.023-9.94-.703-18.789-.128-29.647-.128zm-7.635 12.792c13.456-.305 27.71-.252 40.082-.64 1.01-.03 2.765.3 2.926-.767-.024-.189-.307-.118-.51-.128-3.09-.13-7.027.189-10.56.256-20.189.385-43.634.787-64.257 1.024-1.382.015-3.242-.466-4.199.51 11.813.398 24.403.02 36.518-.255zm-1.78.64c-1.643-.037-3.392.068-4.582.128-11.529.585-19.426-.114-30.156.511.75 1.214 2.516.366 3.564.256.555-.058 1.31-.124 1.908-.128 4.84-.028 10.001-.128 15.269-.128 2.507 0 5.008.047 7.38-.127 2.332-.173 4.632.21 6.616-.512zm45.043-3.326c-.302-.7-1.725-.383-2.419-.383-6.453 0-12.767.279-19.34.383-5.294.084-10.59.358-15.777.384-13.75.068-26.318.09-39.7.511-.568.018-1.941-.11-2.29.512 1.5.613 2.162.245 3.944.256 24.596.15 51.02-.52 73.927-1.023.455-.01 1.649.225 1.655-.64zm-.764 2.558h-.255c-3.146.149-6.969.352-10.434.384-10.922.101-22.236-.023-33.337.64 11.339.31 22 .039 32.575-.128 3.329-.053 6.342.463 9.16.128.71-.084 1.818-.338 2.29-1.024zm.127 1.407c-.439.636-.23 1.978.509 2.431-.483-.495.057-2.018-.509-2.43zm-1.273 19.445c.023-.37.678-.76.382-1.024-.353.236-.504.65-.382 1.024zm-44.025 3.965c.381-.094 1.187-.275 1.782-.51-.567-.214-1.776.037-1.782.51zm8.525-2.302c.086-1.124-1.536-1.005-2.545-1.023-1.674-.031-4.138-.395-4.453.895 1.783.04 4.831.498 6.998.128zm-3.181.895c-1.357-.188-3.276-.792-4.453.256 2.6.124 4.638.59 7.89 0-.802-1.034-2.286-.096-3.437-.256zM134.24 47.173c-1.076-.794-1.524-2.22-2.29-3.326-.127.342-.262.674-.255 1.151.374.147.473-.614.637-.255-.594.852-.7 2.195-1.4 2.941.056.84.25 1.448-.255 1.92 1.365.786 3.138 2.376 3.054 4.348-.063 1.472-1.13 1.844-1.909 2.943 1.625.071.723 1.383.764 2.303.076 1.696 2.453 4.175 3.817 5.245 1.827 1.432 4.059 2.446 5.98 3.07 7.112 2.307 15.337 2.843 23.031 3.326.293-.25-.244-.824.127-1.152.896-.4.673-1.347 1.781-1.662.795-1.66 2.258-1.892 2.8-3.71 2.197-.464 4.937-.753 6.616-.512 1.16.167.932.877 1.273 1.663.403.928 1.47 1.176 2.29 1.791.033.649.133 1.23.254 1.79.683.253 1.489.38 2.163.64.269.394-.194.94-.126 1.536 2.631.758 5.797-.262 9.288-.384 7.004-.245 16.614-1.256 19.977-5.885.758-2.222 2.511-3.445 3.053-5.885-.3-.56-.423-1.743-.126-2.174-2.121-1.37-1.694-5.671.763-6.396-.272-2.244-1.78-3.242-2.418-5.117-.356.982-1.062.177-1.782.895-.943-.23-1.985-.193-2.926-.127-.953.065-1.73-.009-2.671 0-8.386.07-16.826.409-26.085.64-8.34.207-17.518-.126-26.847.255-5.563.227-12.12.062-16.033.64-.572-.193-.864-.667-1.527-.768-.592-.17-.426.425-1.018.256zm-5.09 2.046c-.315-.47 1.201-.473.764-1.023-.669.415-2.105.179-2.926-.255-.342.358-.166.91.127 1.278 1.004-.102 1.312.266 2.036 0zm-1.4 7.42c.188-.47 1.972.488 2.291-.384-.226-.029-.637.13-.508-.255 1.143.434 2.926-.609 2.544-2.048-.001.13-.223.162-.255 0 .547-.79.112-1.38 0-2.43-.39-.333-1.057-.386-1.272-.895-.787-.182-1.083.328-1.526.128 0-.17.222-.117.254-.256-3.642-1.624-5.243 5.356-1.528 6.14zm3.69 2.175c-.21-.438.218-1.194-.126-1.664-1.247.43-2.396.167-3.945.257-.092.69.14 1.054.51 1.279 1.354-.667 2.159.34 3.562.128zm-1.78.896c1.4 4.519 4.196 7.634 8.524 9.21-.31.3.142.286.255.511 4.882 1.74 10.052 2.824 15.268 3.838 3.669.714 7.692 1.317 12.216.896.085-.597-.058-1.566-.128-2.175-5.116-1.19-10.415-.969-15.905-2.43-.202.094.029.626-.381.511-1.852-.766-3.89-.68-5.726-1.151-5.662-1.452-10.085-3.97-11.961-9.339-.79.397-1.91-.462-2.29 0 .077.008.15.02.127.129zm1.526-26.865c.61-1.233.783-2.461.382-3.965-.44-.197-1.16-.114-1.781-.128-.146 1.46.083 3.232.382 4.861-.413 1.565 0 3.677-.128 5.5-.146 2.077-.296 4.64-2.036 5.885-.186-.11-.403-.192-.382-.512.584-.225 1.155-1.139.89-1.79-.458.765-1.483-.211-2.416-.129-.164.86-1.1.94-1.273 1.791.11.231.28.402.509.512-.035 2.12 3.285 3.903 4.708 1.791 1.285-4.259 1.97-8.991 1.908-13.432-.303-.25-.69.211-.763-.384zm-2.926.256c-.523.03-.542.565-1.145.512.028-.242-.144-.282-.127-.512-.534.19-1.411.032-1.655.512.298 1.068-.061 2.082.127 2.942-.218.022-.5-.725-.509-.128.403 1.356-.32 2.551.255 3.838.582.183 2.105.63 2.8.384.67-2.268.27-5.144.254-7.548zm-4.454.896c-.417-.227-.652-.597-.254-1.024-.596-.38-.876-1.08-1.781-1.151-1.178 2.953-1.4 7.468 0 9.978 1.126-.169 1.527 1.35 2.671.64-1.062-2.738-.594-5.48-.636-8.443zm-3.944-3.582c-4.262 1.08-4.342 11.694-1.146 13.304 1.186.597 2.077.03 2.8-.768-1.43-2.811-2.62-8.62-.509-11.64a3.078 3.078 0 0 0-1.145-.896zm-5.09 2.174c-1.112 2.29-.427 8.615 1.654 9.467-1.157-3.54-.64-7.971.764-10.49-.89-.605-2.041.248-2.418 1.023zm-12.85 1.919c.838 1.72 1.287 3.507 1.017 5.757 3.12.283 6.121.163 9.162-.255.218.12.208.472.635.383.173-1.59-.427-3.566.128-6.14-4.113-.068-6.744.079-10.943.255zm-2.164 13.304c1.227-.276 2.366-.357 3.054-.895.546-.428 1.384-1.591 1.145-2.303-.395-1.175-2.317-.398-3.563-.383-3.04 1.642-7.27 1.301-10.56 2.686-.107.61-.887 1.107-.383 1.919 3.293 1.299 7.367-.362 10.307-1.024zm2.544.129h-.254c-1.888.323-3.229 1.115-5.09 1.151-.457.29-.94.531-1.527.64-1.2.22-2.824-.353-3.435.639 1.765-.317 3.615-.11 5.471-.511.593-.13.982-.543 1.655-.768 1.026-.345 2.622-.207 3.18-1.151zm-13.233 8.442c2.398.844 4.613.612 7.635.384 1.725-.13 3.818-.493 5.217-.895 2.79-.803 5.663-2.126 5.853-4.99-.707-.773-.968-1.812-2.036-2.174-.392-.133-.953.125-1.272 0-.49-.194-.154-.54-.764-.512-.596.027-.78.479-1.4.768-.596.278-1.6.361-2.544.64-.848.25-1.632.761-2.29.895-.796.162-1.711.033-2.545.128-1.526.173-2.843.923-4.327.256.19 1.067-1.048.942-1.527 1.663-.734 1.106-.25 2.623 0 3.837zm-.381 3.838c2.164.476 4.829.567 7.507.384 4.466-.307 12.186-2.725 14.633-4.99 2.014-1.863.545-4.24-1.654-4.22-.077.007-.151.018-.127.127.066.19.187.323.254.512-.64.962-1.328 1.796-2.545 2.559-2.07 1.297-6.116 2.547-8.907 2.814-3.21.307-6.427.75-9.034-.512-.386-.214-.543-1.18-1.017-.895a.596.596 0 0 1-.382-.128c-.373.296-.154.61-.637.255-.407.564-1.47 1.03-1.527 1.791-.097 1.33 2.463 2.09 3.436 2.303zM98.994 71.35c4.196-.855 8.196-1.696 11.197-3.454.298-.554.658-1.044.891-1.663-6.42 2.084-16.004 3.64-21.885 4.222 2.656 1.62 6.263 1.616 9.797.895zm-.763 2.943c2.666-.243 6.19-1.104 7.761-2.176.509.071.383.071.891 0 .722-.894 2.03-1.199 2.036-2.814-3.814 1.2-8.766 2.803-13.233 3.07-.78.048-1.877-.348-2.29.512.494 1.534 2.764 1.595 4.835 1.408zm12.597 26.735c-1.255-.93-3.007-2.506-3.945-3.581-2.427-2.782-3.84-6.227-5.09-10.106-1.235-3.836-3.074-7.497-3.817-11.13-.007-.077-.018-.151-.127-.127-.116.486-.51.093-.89.127 4.221 12.898 6.934 27.313 21.757 29.551.343-.338.428-.935.51-1.535-3.666-.426-6.05-1.458-8.398-3.199zm-2.036-4.349c-2.945-2.881-4.682-6.976-6.49-11.001.767 2.68 1.647 4.722 2.545 7.42 1.566 2.499 4.2 4.971 6.49 7.163 2.36 1.5 4.802 2.88 8.27 2.943.174-.508.447-.916.382-1.664-4.663-.684-7.832-2.872-11.197-4.86zm-9.416-20.595c-.263.077-.884-.207-.764.255.035.264.474.121.51.384.1 1.586 1.324 3.964 2.035 5.757-.496-2.407-1.4-3.768-1.78-6.396zm18.577 7.035c-.29-.347-.578-.697-.636-1.279-5.742-.581-8.605-4.056-11.07-7.93-.092.418-.877.14-.891.638 2.836 3.622 6.103 7.233 10.434 8.955.688-.16 2.07.375 2.163-.384zm2.8 2.559c-.064-.662-.244-1.206-.637-1.535.167.558.316 1.13.637 1.535zm-.254 11.13c-4.838.864-9.257-3.027-10.69-6.781 1.05 1.333 2.453 2.311 3.437 3.71 1.738 1.125 3.764 1.835 5.598 2.558.32-.402 1-.444 1.782-.384-.145-4.89-.713-8.613-2.164-11.896-1.584.785-3.107.185-4.326-.384-3.992-1.862-7.577-6.28-9.798-8.954-.124.206-.34.294-.508.127 1.294 3.18 4.112 5.956 6.743 8.06.936.747 2.195 1.066 2.8 2.046 1.507.447 3.262.644 4.325 1.535-6.217.155-8.71-4.318-12.342-7.42-.808-1.106-1.602-2.227-2.036-3.71-.74.024-1.34.188-1.908.385.015 1.362.977 2.412.763 3.582 3.42 8.327 6.644 17.3 16.923 18.805.48.07.685-.018 1.145.127-.462.887-1.768.89-2.798.64-10.53-2.552-13.998-13.454-17.051-23.154-.265 2.176.84 4.094 1.527 5.884a86.398 86.398 0 0 1 1.909 5.629c1.831 3.574 3.71 7.1 6.616 9.594 3.412 1.28 6.31 3.71 9.797 3.838.312-1.27.395-2.686.256-3.838zm1.4 3.58c.687-4.772.526-9.815-.892-13.56 1.284 6.365 1.398 13.747-.764 19.19 1.198-1.344 1.36-3.587 1.655-5.63zm7.634 8.444c-2.041-1.829-4.098-3.641-7.254-4.35-.104.706-.421 1.197-.508 1.92.422.24.994.22 1.4.383 2.789 1.123 4.29 3.814 6.233 5.245 0-1.278.178-1.756.129-3.198zm0-3.198c-2.117-1.156-4.37-2.176-6.872-2.942-.189.659.304.632.382 1.023 2.823.488 4.277 2.352 6.49 3.454.143-.237-.091-.95 0-1.535zm-6.109-8.955c1.673-.207 3.788.5 5.727.64v-1.535c-1.017-.83-2.27-.68-3.436-1.407.862-.762 2.272.063 3.309.255-.137-4.554-.761-8.617-1.91-12.152-1.298 1.193-3.671 2.145-5.343 2.174 1 3.744 1.803 7.398 1.653 12.025zm-.38 4.35c-.042.3-.202.48-.128.895 2.338.538 4.423 1.671 6.617 2.687v-1.535c-1.917-.932-3.949-1.745-6.49-2.048zm.38-2.56c1.787-.11 4.22.66 5.98 1.152-.059-.475-.094-.585-.126-1.279-1.844-.548-3.533-.656-5.981-.895.078.306-.16.928.127 1.023zm5.98 2.304c-1.869-.802-3.867-1.429-6.234-1.407.089.394.089.245 0 .64 2.236.155 4.372 1.408 6.363 1.918a2.786 2.786 0 0 1-.129-1.151zm-8.143-18.55c1.9-.946 3.815-1.878 5.344-3.197-.252-.734-.354-1.37-.635-1.792.045.63-.374.933-.892.64-.862 1.735-2.242 2.949-4.198 3.582-.058.997.331 1.543.635 2.175 2.189-.008 5.627-1.265 5.345-3.582a20.918 20.918 0 0 1-5.09 2.943c-.152-.274-.69-.16-.509-.768zm9.925 27.888c-.11 1.566-.74 3.06-.382 4.606 1.551-5.28 1.804-12.431 1.528-18.55-.374-8.254-2.616-16.105-4.709-22.514-.332-.036-.547.047-.508.384-.207.087-.385.922-.383.128-.469.409.52 1.463.764 2.174.409 1.188.566 2.67.891 4.094.845 3.707 1.782 8.165 2.163 12.536.454 5.211 1.071 10.938.636 17.142zm-53.95-47.587c-1.804.809-1.545 3.326-.382 4.605 2.045 1.042 3.91 1.594 6.451 1.981.176-.283 1.006-.418.986-.032l-.004.047c6.505 1.203 13.058-.464 19.415-1.484 2.195-.352 4.264-1.288 6.362-1.791.339-.001.324-.356.51-.512 3.375-1.018 9.322-3.583 10.941-6.78.485-.955.487-3.07-.762-3.326a7.298 7.298 0 0 1-1.655 4.35c-.68.82-2.217 1.282-3.435 2.046-1.132.71-1.692 1.468-3.182 2.047-5.632 2.188-13.969 4.011-21.375 4.35-2.549.116-4.942.15-6.719-.54-.166.045-.351.06-.5-.019-.198-.102-.42-.15-.635-.217-1.974-.083-5.619-.914-6.142-3.063-.11-.448-.048-1.072.127-1.662zm4.072-2.559c-.769.329-1.3.955-1.908 1.28-.957.507-1.878.78-1.782 2.302.135 2.123 2.794 2.502 4.836 3.07.223.063.58.073.859.172.18-.067.402-.114.559-.049.226.095.463.155.692.238.585-.043 1.273.207 1.833.28 1.865.239 4.018.121 6.617-.13-.187-.415-.698.095-.636-.383 1.38.079 3.027.064 4.708-.256 2.993-.57 5.888-1.339 9.16-2.046 1.464-.317 2.643-.722 3.31-1.535 2.782-.422 6.27-2.678 8.779-4.862.606-.528 1.722-1.553 1.78-1.919.397-2.459-4.86-2.628-7.38-2.558-.195.982-.406 1.208-.634 2.047-4.577 2.77-11.233 5.744-18.068 5.756-3.137.006-7.046-.56-9.036-2.174h-1.144c-.003-.012-.003-.024-.005-.036a1.065 1.065 0 0 1-.123.03v.006c-.75.258-1.58.409-2.417.767zm19.594-24.817c-.15-.318-.805-.128-.89-.512.25-.239.04-.468 0-.767-.975-.86-2.793-.92-3.689-.896-1.976.052-4.922.253-6.49 1.151-4.425 2.535-2.236 9.624 2.29 10.874-.078.12-.296.472.128.384 2.435.107 5.628-.92 8.397-1.792-.23-.765.602-1.04.891-1.79.812-2.107.155-4.836-.637-6.652zm-5.597-5.5c-3.42.265-10.125 1.57-7.127 3.837.36.02.297-.384.637-.384.91.45 1.782-.182 2.545-.384 1.911-.505 4.217-.122 5.853-.895.242.182.553.297.89.384.25-.6 1.208-.492 1.273-1.279-.49-1.183-2.775-1.38-4.071-1.28zm-5.854.255c1.495.008 3.231-.694 4.709-.896.641-.087 1.752.398 1.908-.64-.675-1.063-8.206-1.439-6.617 1.536zm3.436-6.652c-1.506-.159-2.674-.285-3.563.512-.014 1.42.425 2.388.636 3.582 1.253-.3 2.378-.345 3.69-.256-.072-1.01-.175-2.525-.763-3.838zm-6.998 12.92c-.028-.1-.107-.148-.255-.128-.007.164-.163.178-.127.384.063 1.223-.192 2.588 0 4.094.125.983.383 2.842 1.527 2.43.125-1.073-.961-2.019-1.145-3.326-.185-1.312.414-2.484 0-3.454zm-1.273 1.024c-.213-.441-.645.494-.752.283l-.055.052c-.024.021-.055.038-.084.056v1.887c.187-.033.35-.021.39.072.032.077.05.155.065.235.092.09.164.193.2.326.016.065-.08.13-.121.153l-.147.09a.818.818 0 0 1-.066.031.319.319 0 0 1-.066.14.17.17 0 0 1-.093-.078 2.33 2.33 0 0 1-.162.052v.155a.799.799 0 0 1-.313-.092c-.111.007-.196-.011-.204-.086a2.862 2.862 0 0 1-.01-.106c-.372-.506-.174-1.586-.237-2.403-.228-.263-.67.342-1.145.256-.59 1.05.747 2.096-.127 2.815-.79-.271-.76-1.368-.89-2.303-1.935-.008-.235 2.318-.636 2.814-1.214.435-.972-1.8-1.145-2.175-1.382-.06-.122 2.111-1.146 2.175-.74.062-.205-1.158-.509-1.534-1.252.045-.479 1.32-.89 1.79-.54.276-1.021-.47-.89-1.28-.284.1-.497.27-.892.257-.369.713.137 1.536.255 2.174 3.242-.203 5.125-.804 8.27-.645a.531.531 0 0 1 .249-.245c.002-.087-.003-.18.006-.261.141.004.214.076.251.185l.012-.002a.566.566 0 0 1 .119.007v-.19c.531-.022.628.392 1.144.384-.23-1.56-.488-3.09-.38-4.99zm-10.179 6.907c-.24-.028-.282.145-.509.129-.03-.1-.004-.253-.127-.256.078.347.252.599.509.768.106-.15.168-.344.127-.64zm-1.145-4.349c-.843 1.34-.216 3.277.509 4.094.574-1.122-.859-2.876.254-3.71-.26-.122-.503-.262-.763-.384zM35.884 193.134c-2.546.175-4.677 1.124-6.236 2.175-2.295 1.547-5.197 4.325-5.344 7.547-.078 1.702.766 2.05.763 3.198 1.779 1.944 4.592 3.26 7.762 3.965 4.978 1.108 12.93 1.65 17.56 1.408 1.19-.062 2.644.26 4.07.256 5.075-.014 11.153-.322 14.38-2.558 2.627-1.822 1.422-5.573-.637-7.42-.83-.744-2.352-1.462-3.69-2.175-1.325-.706-2.681-1.57-3.944-2.047-2.496-.94-5.382-.942-7.254-1.919-1.582.082-3.333-.57-4.962-1.151-.81-.29-.361-.317-.636 0-.021.025-.28-.135-.382-.128-1.405.107-2.042-.303-3.18-.511-1.208-.222-2.704-.094-4.199-.257-1.474-.159-2.983-.458-4.071-.383zM182.082 91.818c-.135-.091-.586-.5-.763-.128.37.758-.075 1.798-.255 2.43.76-.343.987-1.224 1.018-2.302zm2.29 1.791c1.567-1.42 3.438-2.3 4.327-4.094.102-.205-.01-.669.128-.895.483-.795 1.52-1.265 1.654-2.302 1.8-1.453 4.231-2.019 6.615-2.559 2.797-.634 5.792-.64 8.017-1.919.113-.416-.469-1.231-.764-1.663-4.192.755-10.118 1.804-14.123 3.582-3.298 2.057-3.526 7.2-7.508 8.57-.03.78-.438 1.18-.508 1.92.714-.22 1.244-.626 2.163-.64zm55.86-52.576c.833-.594.893-1.256 1.399-2.047.14-1.725-.783-2.9-.89-3.966-3.222-.045-5.37.062-8.144-.127.647 2.054-.03 4.426-.381 6.267 3.039-.406 5.105-.19 8.015-.127zm2.417-2.56c.68.883.442 2.004 1.146 2.687 1.671 1.624 5.408.876 7.888.64.561-1.04 1.23-2.291 1.273-3.454.05-1.401-1.07-1.942-1.782-2.942.014-.319.239-.396 0-.64-1.309-.896-4.012-.955-6.234-.895.005.39-.117.65-.383.767-1.75.16-1.958 1.869-1.908 3.837zm-2.418 7.932c-1.553 1.118-3.153 1.281-5.09 1.407-.964 2.192-2.233 4.778-1.272 7.548 3.57.75 9.474-.036 13.996.128.662.024 4.073-.202 4.581.256-.073-.066-.42.044-.381.128 4.861-.35 8.812-.01 13.741-.64.476-.136.364.318.764.256-.029-2.848.348-4.624-.382-6.78-2.611-1.853-5.5-.658-8.397-1.919-1.623-.706-2.846-2.97-4.327-3.454-2.465-.805-5.391.985-7.889-.256.077.282.32.953-.127 1.023-2.418-1.934-3.48 1.054-5.217 2.303zm-8.525 11.386v.384c.895 2.83 1.808 6.077 2.672 8.954.324 1.077.383 2.774 1.655 3.07-1.235-3.945-1.916-7.99-3.181-12.28a2.727 2.727 0 0 0-1.146-.128zm-2.544-.257c1.045 3.859 2.308 8.16 3.435 11.514.477.289.933.597 1.527.767-1.401-3.957-2.257-8.251-3.818-12.28h-1.144zm8.906 12.665c-.872-3.87-1.5-8.99-2.672-12.28-.732.01-.603.136-1.4.127 1.029 3.322 1.752 7.73 2.8 10.874.193.578.435 1.594 1.272 1.28zm1.909.384c-.454-4.395-1.292-8.656-2.036-12.408-.335-.133-.78-.154-1.273-.129-.049.183-.152.216 0 .384.824 3.225 1.681 7.093 2.037 10.362.632.387.176 1.869 1.272 1.79zm3.563.256c.351-5.343-.207-7.765.636-12.664-.909.178-1.742-.131-2.418.127.387 2.827 1 5.489.891 8.06-1.053-2.04-1.492-5.04-2.036-8.06-.405-.02-.937-.3-1.273 0 .324 3.932 1.361 8.277 2.418 12.409.74.024.83.169 1.782.128zm2.163.128c.407-3.967.205-8.906 0-12.92-.029.099-.108.148-.255.128-.007-.079-.019-.153-.127-.129-.033.18-.279.146-.381.256-.086 4.397-.05 8.593-.383 12.665h1.146zm1.145 0h1.017c.036-2.952.071-9.565.128-12.792-.506-.094-.511-.094-1.018 0-.282 4.786-.006 9.085-.127 12.792zm2.545 0c.987-.41.707-1.822.763-2.687.223-3.419.372-6.57.636-10.105h-1.654c.07 2.541-.03 4.778 0 6.907.028 2.002-.197 3.966.255 5.885zm1.908-.128c1.242.354.852-1.357.89-2.047.211-3.737.62-7.741.638-10.746-1.77-.196-1.046 2.098-1.146 3.71-.193 3.104-.843 6.673-.382 9.083zm2.29 0c.625.146.328-.64.383-.896.838-3.897.17-7.563 1.017-12.025h-1.017v.384c-.197 2.813-.583 7.35-.637 11.001-.006.413-.556 1.408.254 1.536zm1.655 0c.851.138.313-.87.255-1.28.281-3.692 1.536-8.206 1.526-11.768h-1.018c-.284 3.352-.887 9.087-.763 13.048zm2.799-.128c-.569-.009-.162-.293-.381-.512.022-.36.604-.16.509-.64.203-4.21 1.325-7.892.763-11.768h-.763c-.495 4.672-1.303 8.402-1.654 13.048.47-.082 1.267.166 1.526-.128zm2.29-10.234c.127-1.23.3-1.613.127-2.43h-.381c.258.784-.1 2.044.254 2.43zm.255 10.362c.659-.277.173-1.903.763-2.559.024-3.395.99-6.93 1.4-10.362h-.763v.384c-.112 2.998-.918 6.411-1.4 9.466-.157.997-.647 2.319 0 3.07zm1.654 0c.958-.16 1.125-1.423 1.272-2.303.566-3.366.937-7.823 1.654-10.618h-1.017c-.385 2.105-.762 4.486-1.145 6.78-.354 2.113-.996 4.237-.764 6.14zm2.418-.128c1.463-3.771 1.76-8.751 2.545-12.793h-1.019v.384c-.527 2.266-.79 4.245-1.145 7.036-.234 1.84-1.1 3.775-.381 5.373zm1.908-.256c.777-.16.27-.895.89-1.28-.1-3.633 1.57-7.94 1.146-11.257h-.254a.606.606 0 0 1-.128.384c-.447 3.603-1.396 7.746-1.781 11.001-.03.25-.154 1.083.127 1.152zm3.817-.768c1.156-3.465 1.68-8.173 2.036-12.025-.69-.097-.986.203-1.655.129-.784 4.158-1.822 8.06-2.416 12.408.852.003 1.152-.546 2.035-.512zm-18.958-37.481c-.353-.642-1.532-.874-2.163-.512-.269-.114-.222-.545-.637-.511-1.272.035-4.823-.012-5.98.127-.505.401.101 1.043.127 1.663 2.764-.239 5.317-.455 8.27.256.162-.306.465-.47.383-1.023zm-2.8-4.222c-1.757.377-2.68-.447-4.58 0-.093.995.158 2.09 0 2.431 1.778.015 3.452.031 4.962.127-.017-1.088-.159-1.527-.382-2.558zM24.56 194.03c.612-.557 1.32-.887 1.782-1.407-.887-.474-2.735.019-2.927-1.151-.184.17-.321.585-.637.256-2.675-1.39-5.236-2.154-4.707-6.396.338-2.717 3.203-3.658 5.598-4.35 3.445-.996 9.35-1.085 12.978-.895 3.765.196 8.874.022 13.997.383.351.025.78-.274 1.145-.255.896.046 2.043.534 3.18.64 1.494.137 3.78.114 5.346.256 1.472.131 1.895-.173 3.053-.129.006-.98-.663-1.731-1.018-2.558-1.152-2.68-2.201-5.14-3.18-7.804-1.318-3.578-3.538-6.88-4.2-10.873-2.349-5.275-2.494-10.556-3.818-16.374.24-2.68-.238-6.446-.38-9.595-.38-8.385-1.384-15.783-.255-23.154.149.02.107.233.127.384.05-2.656.375-7.227.254-10.874-.051-1.55-.313-3.217-.127-4.733.049-.403.315-.736.38-1.151.18-1.108-.103-2.291 0-3.455.14-1.528.498-2.909.638-4.733.17-2.224.184-5.043.764-8.186.318-1.729.974-3.45 1.4-5.246.396-1.672.525-3.596 1.653-4.988.397-1.963.993-4.549 2.29-6.524-.193-1.023.711-2.91 1.527-4.478 1.002-1.924 1.308-3.482 2.8-4.605 1.84-4.46 4.786-7.81 8.398-10.49.518.06.863-.475 1.272-.128.268-.825.256-2.15 1.273-2.43.684-.19 1.21.613 2.035.64 1.065.033 2.953-1.045 4.327-1.536 1.423-.508 2.694-1.037 3.838-1.513.161-.099.34-.17.52-.228a.928.928 0 0 1 .282-.036c.358-.263.844-.4.83-1.037 1.317.307 1.748-.277 2.546-.768-1.52-.845-2.221-3.783.255-4.093-.124-.651-.089-2.391.89-2.942-.538-1.35-.469-2.518-.636-4.222 1.616-.974 3.986-1.723 5.726-.895.302 1.643.744 2.386.89 4.094 1.276-.175 1.771.436 2.545.767.106.318.167.685.127 1.15 1.619.62 4.017 1.746 2.672 3.839.576.401 1.04.916 1.4 1.534 3.07.24 7.526-.175 11.58-.255.289-2.438 2.171-3.4 4.834-4.35 1.029-.367 1.61-.916 2.8-.512.823.281 1.043 1.109 1.78 1.536.539-.565-.308-1.272 0-1.919.858-.076 1.367-.502 2.418-.384.623.909.706 2.362.891 3.71-1.231-.212-.603-2.294-1.273-3.07-.611-.017-1.066.122-1.399.384-.185 1.891 1.468 1.935 2.163 2.942 1.075-.268 2.94-.577 3.945-.128.13-1.414-.338-2.17 0-3.454 1.338-.427 2.604-.148 3.435-.256-.21.973.074 1.648.254 2.815 1.025-.08.699-1.516 1.527-1.792.54-.046.111.555.128.768.663-.101.544-.988 1.145-1.152.5-.075.472.379.763.512 18.076-.093 40.136-.12 60.312-.512 2.888-.055 5.748.202 8.525 0 1.274-.091 2.703.047 3.944-.127 1.054-.148 2.624-.654 3.818 0 .254 2.511 1.244 4.732 4.326 4.605.56-1.294.457-3.956 1.909-4.733 1.15.685 3.641-.119 3.308 1.535 1.373-.715 3.11-.965 4.393-.037.154-.017.301.007.394.094 2.396.572 3.88 2.063 4.884 4.037 3.2-.205 6.448.486 10.051.384-.022-.321.195-.401.382-.512-.577-.685-1.13-1.836-.763-3.07.547-.225 1.11-.498 1.526-.512.058-1.402-.234-2.016 0-3.07 1.576-.9 4.04-.433 5.854 0 .33.745.588 1.955.509 3.454.56.29 1.457.239 2.035.512.391.733.445 1.786 0 2.557 1.407 1.909 2.569 3.9 2.164 7.037.346.747 1.039.761 1.527 1.279.949 1.007 1.544 3.08 2.926 3.71 2.52 1.15 6.157-.28 8.271 1.663 1.756 1.614 1.126 5.153.89 8.059.816-.117 2.024.306 3.053.384-.418-.56-1.57-.384-1.78-1.152.911-.021 1.327.457 2.035.64.054.267-.087.339-.128.512 1.189.554 2.659.824 3.818 1.407.059 2.132-1.004 4.194-1.4 6.268-.648 3.394-.42 6.901-2.799 8.57-.373.034-.39-.288-.763-.255-1.88.96-4.34.8-6.999.896-4.659.166-9.917-.106-15.013.127-5.752.263-11.423-.113-15.779-1.535-.446-.43-.414-.84-.89-1.023-.819-4.24-3.09-9.393-3.054-14.072.37-.396.751-.78 1.145-1.151.982.459 1.809-.1 3.309 0 .147-3.452.13-8.054 3.307-8.699 1.726-.35 3.767-.627 5.217-2.047.18-.175.001-.46.128-.64.322-.458 1.612-1.223 2.163-1.662-.36-.57-.781-.017-1.146.128-3.532-.28-7.235-.237-9.924 0-.77 2.159-2.158 3.821-4.963 3.582v-.009a1.908 1.908 0 0 1-.442.06c-2.139.391-4.666 1.974-6.173-.307-.658.619-.92 1.635-1.528 2.302.34.987.116 1.69-.255 2.43 2.626.37 3.355 4.964 1.4 6.653.37.663.404 1.401.127 2.174-.259.337-.844.345-1.272.512.183 2.218-1.203 4.818-2.29 6.269-.309.41-1.36.557-1.145 1.663-.537-.194-.95.946-1.4 1.407-.88.898-2.056 1.589-3.054 2.174-.379.004-.163.604-.381.768-8.43 2.868-17.94 4.012-27.994 3.71-.34.58.307 1.117 0 1.662-.725.124-1.368.331-1.908.64-.279.845.678.952.254 1.536-.753.528-1.904.045-2.544.255.495.655 1.41 1.994 2.672 2.303-.1 2.322-1.46 3.019-3.436 3.198-1.323 2.856 3.199 2.724 3.308 5.373.769.438 1.193.43 1.91.895 4.016-1.705 3.64-6.979 7.76-8.699 2.01-.837 4.557-1.333 7-1.79 2.282-.428 4.602-1.297 6.87-1.408.68.638 1.03 1.608 1.4 2.559-3.864 2.51-9.616 1.711-13.488 3.71-.503.26-1.137.698-1.526 1.151-1.163 1.35-1.63 3.419-2.928 4.733-1.017 1.032-3.265 2.916-5.089 3.07-.569.048-1.158.011-1.781-.256-.672 1.03-1.688 1.716-2.418 2.687.035.732.683.848.636 1.663 1.832.333 2.658 1.678 3.817 2.686.89 6.07 3.95 9.347 9.29 10.746 1.275.334 2.653.798 4.07 1.28 2.532.86 4.84 1.291 6.108 3.325 1.39.191 3.577-.162 5.09.256.879 1.078 1.843 2.07 2.672 3.198 4.412.063 5.917 4.1 8.907 6.013.786 1.778 2.54 3.171 3.308 5.245.463 1.25.587 2.752 1.018 4.22 1.092 3.725 2.864 8.547 3.309 12.793.073.7.101 1.392.114 2.084l.012-.293c1.097 6.17 2.131 12.569 2.672 19.7 4.504-.688 8.219.07 12.089 1.408.533-.096-.173.488.381.511 3.464 1.065 7.078 1.896 10.689 2.559 5.814 1.068 11.999 1.897 18.322.896.88-.14 1.753-.523 2.672-.64 1.51-.193 3.141-.114 4.707-.256-1.92.535-6.333 1.109-9.16 1.408-6.387.674-13.585-.184-20.231-1.536-1.787-.363-3.532-1.099-5.344-1.535-2.998-.721-6.225-1.703-8.908-2.175-1.575-.277-3.33-.398-5.089.256.119 1.031.203 2.098.381 3.07 2.528-.68 5.328-.278 7.89.384 1.8.466 3.927 1.023 6.107 1.663 2.53.743 4.882 1.59 7.762 2.047 1.982.314 4.008.27 5.98.512.668.081 1.258.442 1.908.512 2.365.254 4.877-.05 7.126.255.657-.08-.38-.535.255-.512 1.065-.524 3.748.503 4.071-.64.546.091 1.336.18 1.145.64 6.333.528 12.381-1.569 18.45-2.174-2.087.53-4.025 1.162-6.108 1.663-2.08.5-4.282.358-6.49.895-.334.082-.769.167-1.017.512-2.913-.418-5.217-.247-8.016 0-4.707.414-9.269-.297-13.615-.768a58.815 58.815 0 0 1-11.451-2.43c-4.446-1.423-9.293-3.07-13.87-1.792.037 1.185.177 2.465.382 3.839.167 1.118.093 2.684.51 3.581.373.807 1.163.665 2.29 1.28.664.362 1.99 1.607 2.29 2.174 1.003 1.899.876 4.06 1.4 5.885.523 1.818 1.295 3.295 2.544 4.35.482.405 1.193.61 1.527 1.15.302.487.127 1.015.255 1.792.26 1.573.703 3.007.381 4.476-1.371.425-3.019.002-5.216.129-.574 1.143.03 4.017-.255 4.86-.195.573-1.03.5-.89 1.408-2.88.88-4.83 1.34-8.526 1.151v-.155c-.238.104-.561.129-.693-.006-1.446-.093-2.81-.27-3.887-.735-.196.332.71.647.637 1.28-1.634-.277-2.074-1.754-3.564-2.174.004-2.135-.024-3.73-.127-5.373-13.978.069-24.66.26-37.536.511-11.198.218-23.453.008-35.627.256.142 1.219.428 3.739.127 5.117-1.051 1.857-2.672 2.468-5.343 2.814-3.24.42-8.078 1.255-10.435-.64-.402-.176-.767.317-.89 0-1.03-.116-1.222-1.073-1.782-1.662.644-1.225-.435-2.73-.382-4.478-1.663-.485-3.927.597-5.09-1.023-.286-.276.107-.436 0-.895-1.272-1.956-1.927-4.213-3.689-5.885.346-1.13-.871-1.641-1.272-2.43a4.976 4.976 0 0 1-1.273-.384c-1.422-1.946-3.345-4.048-3.18-7.164-1.185-1.605-3.183-3.715-2.928-6.14.062-.587.489-1.01.382-1.663-3.196-.452-7.043-.568-10.561-.256-5.84.518-11.004 3.545-16.16 4.093l-.005-.026c-.062.017-.125.035-.189.051-.195.202-.642.194-.823.231-1.515.307-3.592.292-4.963.384-2.17.146-4.545.094-6.87.128-.106.527.575 1.27.763 1.919 2.875.019 6.232.75 8.779 1.279.916.19 2.045.208 2.754.715a.702.702 0 0 1 .236-.007c.03.005.059.011.087.018l.003-.002.014.004c.358.07.706.167 1.035.323.54.089 1.165.282 1.724.484 2.592.933 6.004 2.045 8.016 3.454 3.786 1.481 6.903 3.635 7.635 8.187.693-1.512-.115-2.835-.509-3.966 2.302 2.204.7 6.112-1.145 7.675-3.935 2.023-9.82 2.37-14.505.896-.572-.18-1.443-.282-1.852-.692a.823.823 0 0 1-.355.025c-.43-.085-.8-.27-1.152-.529-.052-.038-.053-.084-.03-.127-.382-.228-.77-.49-1.065-.595-.304.232.716.21.508.767-5.459-2.782-8.87-7.626-11.96-12.792-.454-.108-.698.65-.891.383-5.935-1.321-12.744-1.19-19.467-.767-3.36.212-6.963.587-9.798 1.28 5.038.146 11.437 1.999 17.432 3.454.913.22 1.743.243 2.545.51 3.334 1.112 6.52 3.303 9.161 4.862.788 1.435 2.016 1.85 2.164 4.094.455 6.923-12.362 6.99-18.96 6.78a780.1 780.1 0 0 1-10.05-.384c-1.32-.06-2.518-.486-3.819-.64-1.561-.185-3.26-.101-4.835-.384-1.732-.31-4.347-1.034-5.726-1.79-.395-.217-.646-.823-1.145-1.152-.334-.22-.821-.172-1.145-.384-2.263-1.485-2.298-5.064-1.145-7.802.208-.494.992-1.62 1.527-2.176 1.254-1.305 4.025-3.623 5.98-4.35 1.531-.567 3.551-.493 5.599-.895 4.27-.836 8.542-1.429 12.596-1.79 5.587-.499 10.596-.045 15.397.255.458.077.375-.39.763-.383.484.281 1.4.126 1.908.383-.02-.148.029-.227.128-.255.591-1.312-.58-2.569-1.781-2.815-1.588-.325-3.9.493-4.963-.64-12.288.117-28.109.23-36.263 7.42-.615.543-1.2 1.733-1.909 1.536-2.118 3.096-4.712 7.866-2.163 11.768.598.916 1.972 1.203 2.163 2.303-2.618-.696-4.309-3.821-4.072-7.164.228-3.201 3.45-7.232 5.344-8.955z"/><path d="M170.984 171.007c.159-4.232 5.889-4.087 6.543-.71.185.96-.236 1.652-.279 2.412 4.709-5.204-8.039-9.306-6.264-1.702m.835.567c.302 1.118 1.872.966 2.228 2.269.798.053 1.408-.525 2.366-.992.73-1.363.348-3.387-.696-4.113-2.124-.705-4.494.624-3.898 2.836m1.253-5.53c3.692-.359 6.44 1.475 5.847 5.956-.497 1.053-1.478 1.614-2.088 2.552-6.23 2.645-9.71-7.232-3.759-8.508m55.624 18.916c-.27-.768-1.382-.744-1.696-1.47V183c1.86 1.724 4.875 2.363 6.392 4.409.42.11.182-.4.39-.49 1.355 2.688.096 5.95 2.218 8.081-2.64-.97-1.822-4.672-2.74-6.857-1.063-1.492-2.746-2.4-4.564-3.183M26.63 210.223c4.834 1.84 10.598 3.098 15.783 3.593 3.074.292 6.163.122 9.268.266 3.062.142 6.11.27 9.143 0 2.776-.249 4.83-1.358 6.89-1.33 1.66-.808 3.245-1.699 4.884-2.529.325-.789 1.33-1.524 1.629-2.527 1.14-3.844-1.587-7.712-3.507-10.113-5.693-4.089-12.367-6.033-19.164-7.583 3.046.525 6.816.718 10.146 1.996 4.455 1.71 8.612 3.769 11.147 7.45.3.436.597.99.877 1.464 1.237 2.093 2.106 6.626 0 9.047-2.76 3.171-8.834 4.535-14.28 4.922-4.55.325-8.46-.105-13.15-.132a40.09 40.09 0 0 1-3.258-.133c-7.414-.657-13.686-2.348-18.912-5.19.02-.154-.028-.236-.126-.266a.65.65 0 0 0 .126-.398c.808.516 1.835.8 2.505 1.463"/></g></g></svg>