<svg width="53" height="50" xmlns="http://www.w3.org/2000/svg"><path d="M35.654 29.395l5.466-3.785 6.029 4.076v-2.152l-6.041-4.084-6.434 4.453-13.151-12.108-9.567 8.134v2.341l9.52-8.094 12.732 11.722.011-.013 8.276 7.727h1.961l-8.802-8.217zm6.077-18.444a3.135 3.135 0 0 1-3.132 3.131 3.136 3.136 0 0 1-3.132-3.131 3.136 3.136 0 0 1 3.132-3.132 3.136 3.136 0 0 1 3.132 3.132zm1.783 0a4.92 4.92 0 0 0-4.915-4.915 4.92 4.92 0 0 0-4.915 4.915 4.92 4.92 0 0 0 4.915 4.915 4.92 4.92 0 0 0 4.915-4.915zM8.321 41.247h42.463V1.784H8.321v39.463zm-1.783 1.782h46.029V0H6.538v43.029zm39.491 6.539H0V6.539h4.374v1.783H1.783v39.463h42.463v-2.672h1.783v4.455z" fill="#B4AAAB" fill-rule="evenodd"/></svg>