<svg width="100" height="100" xmlns="http://www.w3.org/2000/svg"><g fill="none"><ellipse fill="#FFF" cx="50.094" cy="49.859" rx="49.434" ry="49.202"/><path d="M50.094 99.718c-23.826-.015-44.347-16.727-49.078-39.97-4.73-23.242 7.637-46.586 29.58-55.83C56.06-6.679 85.34 5.216 96.082 30.523c10.74 25.307-1.103 54.493-26.49 65.277a49.986 49.986 0 0 1-19.499 3.918zm0-98.403C26.897 1.33 6.918 17.602 2.312 40.23c-4.606 22.63 7.435 45.357 28.797 54.358 24.82 10.436 53.44-1.13 63.926-25.834C105.52 44.05 93.899 15.565 69.079 5.13a48.663 48.663 0 0 0-18.985-3.815z" fill="#B4ABAB"/><path d="M50.094 93.162a43.4 43.4 0 0 1-30.177-12.113c-8.125-7.785-12.842-18.24-13.294-29.434l.754-.03c.837 20.482 16.227 37.46 36.612 40.386 20.385 2.927 39.97-9.029 46.588-28.44C97.195 44.117 88.967 22.768 71 12.742 53.037 2.717 30.444 6.866 17.256 22.61l-.58-.48C29.597 6.685 51.496 2.114 69.562 11.092 87.628 20.07 97.117 40.238 92.477 59.8c-4.64 19.56-22.19 33.375-42.383 33.363zM7.02 48.03h-.018a.378.378 0 0 1-.359-.395c.09-1.749.285-3.49.584-5.215a.376.376 0 0 1 .617-.23.375.375 0 0 1 .127.358 42.67 42.67 0 0 0-.574 5.125.377.377 0 0 1-.376.356zm4.273-16.561a.374.374 0 0 1-.34-.54 43.38 43.38 0 0 1 2.478-4.393.378.378 0 0 1 .66.025.374.374 0 0 1-.025.38 42.683 42.683 0 0 0-2.433 4.32.378.378 0 0 1-.34.208z" fill="#B4ABAB"/><path fill="#B4ABAB" d="M37.884 78.935l.963 1.943 2.154.31-1.559 1.512.368 2.136-1.926-1.009-1.926 1.009.368-2.136-1.558-1.511 2.154-.311zm11.712 0l.963 1.943 2.153.31-1.557 1.512.368 2.136-1.927-1.009-1.926 1.009.368-2.136-1.558-1.511 2.153-.311zm11.793 0l.963 1.943 2.153.31-1.558 1.512.368 2.136-1.926-1.009-1.926 1.009.368-2.136-1.558-1.511 2.152-.311zM34.567 65.337h29.569v1.221H34.567zm51.703 1.362h-7.044v-1.503h7.044c.18 0 .228-.051.244-.068.104-.108.135-.376.13-.494a.66.66 0 0 1 0-.087l.087-1.61c.024-.43-.131-.513-.273-.53a.703.703 0 0 1-.526-.226.727.727 0 0 1-.189-.563s.036-.79.071-1.634a.753.753 0 0 1 .755-.721h.154l.129-2.455h-.11a.756.756 0 0 1-.755-.784l.07-1.67c.06-1.446.108-2.588.174-3.79.148-2.723-2.192-4.065-2.37-4.164l-3.607-1.69a.746.746 0 0 1-.408-.487l-1.98-7.466a.748.748 0 0 1 .143-.662.756.756 0 0 1 .621-.277c.2.004.4-.002.598-.019a.547.547 0 0 0-.019-.066.748.748 0 0 1-.021-.079c-.006-.026-.578-2.598-.823-3.474-.022-.076-.065-.2-.126-.215-.056.018-.056.009-.131.009h-1.465a.755.755 0 0 1-.691-.451c-.64-1.462-1.951-1.291-1.964-1.29a.828.828 0 0 1-.108.008h-4.297a.753.753 0 0 1-.755-.741c-.043-3.336-2.937-4.371-3.453-4.53h-6.249a.756.756 0 0 1-.754-.79l.119-2.126H18.103l-.293 5.334-1.51-.082.331-6.043a.753.753 0 0 1 .755-.71h41.9a.756.756 0 0 1 .755.792l-.116 2.115h5.557c.061 0 .123.008.182.023a6.906 6.906 0 0 1 2.31 1.17 5.91 5.91 0 0 1 2.316 4.08h3.542a3.435 3.435 0 0 1 3.274 1.732h.943c.577-.073 1.461.204 1.77 1.305.242.868.76 3.181.835 3.517.08.255.245.924-.08 1.444a1.133 1.133 0 0 1-.84.522l-.17.018 1.654 6.227 3.31 1.549.029.015c.138.072 3.396 1.817 3.185 5.581-.065 1.193-.112 2.33-.172 3.77l-.042.996c.54.227.877.767.843 1.349l-.144 2.637a1.454 1.454 0 0 1-.93 1.276l-.02.443c.181.094.344.219.482.369.245.266.527.75.484 1.536l-.086 1.573c.007.23-.012 1.001-.532 1.557-.238.251-.663.55-1.355.55zM16.093 33.816l.158-2.9 1.22.066-.159 2.9zm-.604 11.074l.368-6.767 1.22.067-.37 6.766zm4.803 21.809h-5.308a.756.756 0 0 1-.755-.785l.175-3.893.094-1.766a1.247 1.247 0 0 1-.838-1.254l.174-3.174a1.316 1.316 0 0 1 .977-1.198l.35-6.399 1.51.082-.387 7.063a.753.753 0 0 1-.755.71h-.188l-.152 2.74h.11a.756.756 0 0 1 .754.792l-.136 2.478-.139 3.098h4.52l-.006 1.506z"/><path d="M86.43 59.88h-2.597a.511.511 0 0 1-.372-.164.758.758 0 0 1-.188-.563l.122-2.253c.022-.394.289-.7.608-.7h2.6v.562h-2.58a.264.264 0 0 0-.06.168l-.124 2.253a.267.267 0 0 0 .024.137h2.566v.56zm.194-5.343h-1.865a.385.385 0 0 1 0-.767h1.865a.382.382 0 1 1 0 .767zm.101-1.846H84.86a.385.385 0 0 1 0-.767h1.865a.382.382 0 1 1 0 .767zM71.326 69.608a4.276 4.276 0 0 1-3.143-1.329 4.234 4.234 0 0 1-1.158-3.198c.136-2.477 2.27-4.491 4.759-4.491a4.276 4.276 0 0 1 3.144 1.328 4.234 4.234 0 0 1 1.157 3.198c-.136 2.476-2.27 4.492-4.759 4.492zm.458-8.357c-2.143 0-3.982 1.735-4.1 3.87a3.58 3.58 0 0 0 .979 2.71 3.616 3.616 0 0 0 2.663 1.123c2.144 0 3.982-1.736 4.1-3.87.069-1-.286-1.982-.977-2.71a3.613 3.613 0 0 0-2.665-1.123zM17.88 59.624h-2.568v-.767h2.533l.156-2.851h-2.49v-.768h2.567a.696.696 0 0 1 .697.734l-.162 2.961a.733.733 0 0 1-.733.691zm38.327 6.283L58.5 23.84l1.032.056-2.293 42.067z" fill="#B4ABAB"/><path fill="#B4ABAB" d="M48.761 65.428h13.464v1H48.761zM58.87 29.269h10.829v1H58.87z"/><path fill="#B4ABAB" d="M59.591 65.989l1.983-36.382.999.054-1.984 36.382zm18.883-4.527h7.672v1h-7.672z"/><path fill="#B4ABAB" d="M60.195 61.462h4.988v1h-4.988zm-44.802 0h5.533v1h-5.533zm19.051 0h22.717v1H34.444zM66.826 44.76c-.204 0-.715-.037-1.071-.387a1.184 1.184 0 0 1-.338-.95l.578-10.576c.046-.818.629-1.132 1.01-1.145h5c.742 0 2.278.437 2.773 2.087 0 0 0 .01.005.015l2.728 10.367a.468.468 0 0 1-.455.589h-10.23zm.112-11.862l-.58 10.576c-.008.164.043.213.06.23.105.103.354.121.428.117h9.597l-2.575-9.77c-.418-1.377-1.81-1.409-1.87-1.409H67.05c-.086.023-.107.17-.111.257v-.001zm-6.003 16.466h25.644v1H60.935zM20.393 25.205h33.845v1H20.393zm50.739 48.474c-2.308 0-4.434-.897-5.981-2.524-1.547-1.627-2.337-3.796-2.21-6.098l1.509.082c-.103 1.885.536 3.655 1.8 4.983 1.264 1.328 2.995 2.055 4.885 2.055 3.943 0 7.325-3.193 7.54-7.12l1.51.082c-.268 4.709-4.327 8.54-9.053 8.54z"/><path d="M79.987 65.129l-1.132-.061c.105-1.937-.552-3.756-1.851-5.122-1.3-1.367-3.08-2.113-5.022-2.113-4.042 0-7.51 3.273-7.73 7.296l-1.131-.061c.253-4.61 4.227-8.362 8.86-8.362 2.256 0 4.331.875 5.844 2.465 1.512 1.59 2.284 3.709 2.162 5.958zM27.3 69.567a4.237 4.237 0 0 1-3.116-1.316c-.81-.852-1.225-2-1.147-3.17.134-2.455 2.25-4.452 4.717-4.452a4.24 4.24 0 0 1 3.116 1.317c.809.852 1.225 2 1.147 3.17-.136 2.455-2.251 4.451-4.717 4.451zm.453-8.28c-2.122 0-3.942 1.718-4.057 3.83a3.544 3.544 0 0 0 .967 2.682 3.576 3.576 0 0 0 2.637 1.11c2.12 0 3.94-1.717 4.057-3.828a3.542 3.542 0 0 0-.967-2.683 3.577 3.577 0 0 0-2.637-1.112z" fill="#B4ABAB"/><path d="M27.102 73.604c-2.288 0-4.394-.889-5.928-2.502-1.535-1.613-2.317-3.763-2.192-6.045l1.51.082c-.102 1.866.53 3.616 1.78 4.93 1.25 1.313 2.963 2.032 4.833 2.032 3.538 0 6.698-2.629 7.35-6.119l1.484.274c-.785 4.19-4.583 7.348-8.837 7.348z" fill="#B4ABAB"/><path d="M35.755 66.223l-1.113-.207c.058-.313.096-.63.114-.948.104-1.918-.546-3.718-1.832-5.07-1.287-1.354-3.049-2.092-4.97-2.092-4 0-7.432 3.24-7.65 7.222l-1.131-.061c.25-4.57 4.188-8.288 8.78-8.288 2.236 0 4.293.868 5.792 2.442 1.5 1.573 2.264 3.676 2.14 5.905-.02.368-.063.734-.13 1.097zm41.072-34.24h-1.464a.282.282 0 1 1 0-.563h1.464a.282.282 0 1 1 0 .563zm1.454 4.488c-.806 0-1.354-.156-1.627-.47a.675.675 0 0 1-.18-.417l-.523-1.967h-1.943a.282.282 0 1 1 0-.563h2.16a.28.28 0 0 1 .274.209l.588 2.212a.249.249 0 0 1 .01.087c.013.094.263.342 1.241.342a.282.282 0 1 1 0 .564v.003zM16.86 32.099H8.818a.424.424 0 1 1 0-.845h8.04a.424.424 0 1 1 0 .845zm-.438 16.834H5.87a.424.424 0 1 1 0-.845h10.552a.424.424 0 1 1 0 .845zm2.53-10.795H3.058a.424.424 0 1 1 0-.845h15.894a.424.424 0 1 1 0 .845zM86.53 73.521H70.688a.518.518 0 1 1 0-1.033h15.84a.518.518 0 1 1 0 1.033zm-22.305 0H26.859a.518.518 0 1 1 0-1.033h37.366a.518.518 0 1 1 0 1.033zm-43.905 0h-6.343a.518.518 0 1 1 0-1.033h6.344a.518.518 0 1 1 0 1.033zM29 37.85c-.116 1.643-.719 2.75-1.81 3.323l1.636 2.038h-2.452l-1.171-1.615v-.004l-.005-.006c-1.143 0-1.997-.319-2.561-.957-.564-.638-.805-1.567-.722-2.789.085-1.207.453-2.128 1.105-2.764.651-.636 1.555-.954 2.71-.955 1.159 0 2.015.316 2.57.948.553.631.787 1.558.7 2.78zm-5.012 0c-.1 1.401.34 2.102 1.32 2.103.499 0 .88-.17 1.145-.51.265-.341.422-.873.472-1.597.05-.724-.034-1.259-.254-1.604-.22-.345-.573-.517-1.057-.518-.985.002-1.527.711-1.626 2.126zm12.775-3.615l-.307 4.364c-.067.948-.389 1.683-.965 2.204-.577.52-1.374.781-2.39.781-.994 0-1.74-.253-2.236-.759-.497-.505-.712-1.233-.646-2.182l.311-4.408h1.981l-.299 4.255c-.037.513.033.885.21 1.116.178.23.454.346.828.347.402 0 .701-.115.898-.345.197-.23.314-.605.351-1.126l.3-4.245 1.964-.002zm1.018 7.25l.511-7.25h1.982l-.512 7.25zm7.201-5.747a1.358 1.358 0 0 0-1.132.573c-.29.381-.458.907-.505 1.58-.098 1.394.386 2.092 1.452 2.091.32 0 .637-.044.944-.133.308-.09.62-.196.934-.322l-.118 1.656a5.27 5.27 0 0 1-2.091.401c-1.1 0-1.92-.317-2.461-.952-.541-.635-.77-1.552-.684-2.752.037-.694.23-1.37.566-1.979a3.372 3.372 0 0 1 1.32-1.314 3.894 3.894 0 0 1 1.914-.458 4.98 4.98 0 0 1 2.22.51l-.71 1.542a6.357 6.357 0 0 0-.786-.317 2.742 2.742 0 0 0-.863-.126zm9.196 5.747h-2.221l-1.246-2.772-.606.347-.171 2.425h-1.981l.51-7.25h1.981l-.221 3.149c.203-.322.426-.632.668-.928l1.686-2.221h2.152l-2.525 3.249 1.974 4.001zM31.825 51.62a2.262 2.262 0 0 1-.428 1.198c-.269.36-.631.641-1.048.813-.488.202-1.012.3-1.54.29a6.073 6.073 0 0 1-1.214-.101 4.313 4.313 0 0 1-1.002-.355l.124-1.746a5.51 5.51 0 0 0 1.139.45c.36.1.732.155 1.106.16.293 0 .51-.05.654-.152a.5.5 0 0 0 .231-.388.402.402 0 0 0-.063-.26.868.868 0 0 0-.248-.227 10.17 10.17 0 0 0-.937-.47 4.249 4.249 0 0 1-1.024-.624 1.731 1.731 0 0 1-.48-.694 2.233 2.233 0 0 1-.106-.928c.047-.668.328-1.189.842-1.562.515-.373 1.199-.56 2.053-.563.786.007 1.56.185 2.27.521l-.71 1.512c-.658-.313-1.235-.47-1.73-.47-.256 0-.445.045-.567.134a.422.422 0 0 0 0 .714c.14.113.526.318 1.16.615.608.281 1.023.583 1.244.905.22.323.312.732.274 1.228zm7.215 2.202h-1.982l.209-2.956h-2.284l-.208 2.956h-1.982l.515-7.25h1.98L35.1 49.26h2.287l.188-2.687h1.982zm1.574 0l.51-7.25h1.982l-.512 7.25zm9.186-4.944c-.057.81-.34 1.435-.848 1.878-.508.442-1.206.663-2.093.662h-.552l-.175 2.404h-1.966l.511-7.25h2.521c.92 0 1.596.2 2.03.6.434.4.625.97.573 1.706zm-3.384.939h.36a1.04 1.04 0 0 0 .721-.248.963.963 0 0 0 .31-.684c.035-.49-.22-.734-.765-.734h-.508l-.118 1.666z" fill="#B4ABAB"/></g></svg>