<svg width="218" height="218" xmlns="http://www.w3.org/2000/svg"><path d="M17.27 85.634l3.924-1.204 3.216 2.55.067-4.104 3.418-2.27-3.882-1.332-1.103-3.953-2.466 3.28-4.1-.172 2.357 3.36-1.43 3.845zm175.237 3.705l3.295-2.446 3.883 1.327-1.309-3.89 2.462-3.282-4.103.042-2.362-3.356-1.227 3.916-3.922 1.208 3.345 2.378-.062 4.103zM17.88 130.12l-.141-.838-3.03-.518c-.125-.077-.24-.243-.346-.498a4.44 4.44 0 0 1-.256-.955c-.225-1.335.12-2.478 1.038-3.432.918-.953 2.35-1.594 4.298-1.923 1.075-.182 2.016-.229 2.823-.141.806.088 1.487.28 2.041.58.555.298.986.673 1.294 1.126.307.452.508.957.602 1.516a5.6 5.6 0 0 1 .08.848c.006.279-.016.486-.063.62l-2.894 1.644.144.858c.255.013.568.02.939.02.37 0 .748-.007 1.13-.022a16.752 16.752 0 0 0 1.933-.19c.14-.5.212-1.125.219-1.876.006-.75-.067-1.575-.218-2.474a8.94 8.94 0 0 0-.88-2.656 6.182 6.182 0 0 0-1.702-2.055c-.71-.553-1.564-.944-2.562-1.175-.999-.23-2.145-.236-3.439-.018-1.307.221-2.397.587-3.27 1.1-.874.51-1.559 1.141-2.055 1.89-.497.75-.807 1.607-.931 2.574-.124.966-.09 2.014.1 3.145.127.749.312 1.47.555 2.165.243.694.555 1.254.935 1.68.273-.046.578-.104.916-.175a18.117 18.117 0 0 0 1.98-.534c.298-.1.551-.195.76-.286zm13.893 14.322c.167.247.356.493.567.738.21.245.444.453.7.621l.736-.278-1.815-4.806-.737.278a3.76 3.76 0 0 0-.09.931c.002.36.028.702.075 1.024l-7.267 2.745c-.646.244-1.216.378-1.709.402-.493.023-.925-.046-1.296-.208a2.521 2.521 0 0 1-.943-.707 3.806 3.806 0 0 1-.627-1.103 4.719 4.719 0 0 1-.312-1.355c-.028-.425.04-.823.202-1.195.162-.37.43-.708.802-1.011.373-.304.876-.574 1.509-.814l7.462-2.819c.313.517.686.937 1.118 1.261l.736-.278-2.254-5.97-.737.279c-.054.286-.076.59-.065.91.01.321.044.618.103.891l-7.558 2.856c-1.706.644-2.768 1.584-3.187 2.82-.419 1.236-.301 2.72.353 4.451.6 1.59 1.494 2.658 2.683 3.206 1.189.547 2.61.509 4.264-.116l7.287-2.753zm1.583 12.324a22.97 22.97 0 0 1-.07-1.863 5.59 5.59 0 0 1 .216-1.587c.141-.473.437-.845.886-1.117.497-.3.98-.355 1.447-.168.468.188.853.53 1.154 1.03.179.297.323.603.432.917.11.316.172.565.186.75l-1.935 2.286.438.728c.206-.06.458-.143.757-.25.298-.108.612-.23.942-.364a21.31 21.31 0 0 0 1.837-.866 8.348 8.348 0 0 0-.541-1.96 14.75 14.75 0 0 0-1.065-2.104 7.444 7.444 0 0 0-1.199-1.527 4.5 4.5 0 0 0-1.418-.947 3.425 3.425 0 0 0-1.585-.241c-.554.044-1.121.24-1.7.59-.675.407-1.156.886-1.443 1.439a5.088 5.088 0 0 0-.543 1.767 9.529 9.529 0 0 0-.037 1.885c.05.63.08 1.234.088 1.81a5.453 5.453 0 0 1-.179 1.548c-.128.456-.41.816-.848 1.08-.604.364-1.204.431-1.801.203-.598-.228-1.093-.667-1.485-1.318-.235-.39-.369-.737-.399-1.042-.03-.304-.02-.56.032-.769l2.17-2.3-.44-.728c-.248.07-.532.16-.852.272-.32.112-.652.237-.997.372-.346.136-.69.275-1.031.416a9.658 9.658 0 0 0-.932.442c-.028.194-.01.453.057.776a11.374 11.374 0 0 0 1.367 3.47c.935 1.549 1.965 2.528 3.091 2.938 1.126.41 2.28.257 3.463-.456.65-.392 1.112-.865 1.384-1.417a5.402 5.402 0 0 0 .518-1.769c.073-.627.085-1.269.035-1.926zm13.37 15.1c.255-.15.559-.341.913-.576a35.27 35.27 0 0 0 1.087-.756c.37-.268.73-.538 1.082-.807.351-.27.652-.514.902-.732l-8.677-9.944c-.24.21-.52.472-.84.788-.32.316-.637.64-.954.97-.316.33-.617.658-.904.981-.286.323-.515.596-.687.82l.559.64 3.541-1.33 1.58 1.81-8.866 7.737a6.524 6.524 0 0 0-.897-.634 17.54 17.54 0 0 0-.877-.485l-.594.517 4.686 5.37.593-.517a5.197 5.197 0 0 0-.354-.942c-.159-.329-.33-.652-.514-.968l8.866-7.736 1.58 1.81-1.797 3.329.572.655zm11.982 5.678c-.178-.528-.53-.994-1.055-1.398-.504-.387-1.02-.588-1.55-.602-.528-.015-1.06.116-1.595.393-.535.277-1.073.682-1.614 1.216a18.004 18.004 0 0 0-1.619 1.852 13.59 13.59 0 0 0-1.332 2.073c-.349.68-.572 1.328-.669 1.941-.097.614-.057 1.185.12 1.713.178.529.525.99 1.04 1.386.47.362.965.546 1.483.552.517.006 1.046-.127 1.587-.4.54-.272 1.087-.671 1.638-1.196a16.011 16.011 0 0 0 1.636-1.84c.539-.7.985-1.39 1.34-2.066.354-.677.586-1.318.694-1.923a3.392 3.392 0 0 0-.104-1.7zm2.326 5.185c-.32.913-.807 1.797-1.463 2.651-.657.854-1.385 1.553-2.186 2.096-.8.543-1.638.902-2.511 1.075a6 6 0 0 1-2.686-.091c-.917-.235-1.825-.698-2.723-1.387-.898-.69-1.579-1.449-2.041-2.275a6.096 6.096 0 0 1-.788-2.578 6.72 6.72 0 0 1 .384-2.71c.318-.913.806-1.797 1.462-2.651.657-.854 1.385-1.553 2.186-2.096.8-.543 1.64-.9 2.52-1.069a6.098 6.098 0 0 1 2.694.098c.917.235 1.825.697 2.723 1.387.897.69 1.578 1.448 2.04 2.274a6 6 0 0 1 .78 2.572 6.816 6.816 0 0 1-.391 2.704zm17.663 4.22l-6.395 6.32-1.4 1.596-.02-.009.27-2.06.576-8.99-5.118-2.307-.324.718c.152.235.35.46.593.676.244.216.48.405.709.57l-4.777 10.595a3.924 3.924 0 0 0-.968-.096c-.359.006-.661.013-.908.023l-.324.717 4.609 2.078.323-.717a7.61 7.61 0 0 0-.642-.744 5.608 5.608 0 0 0-.682-.604l3.491-7.743 1.063-2.407.17.076-.317 2.517-.554 10.908.868.392 7.86-7.706 1.535-1.74.151.068-1.09 2.167-3.56 7.895a6.83 6.83 0 0 0-1.758-.133l-.323.718 5.646 2.546.324-.718a8.023 8.023 0 0 0-.515-.596 4.365 4.365 0 0 0-.663-.572l4.828-10.708a5.11 5.11 0 0 0 1.682.1l.324-.719-4.684-2.112zm7.245 3.393c.2.184.442.359.725.525.283.166.553.304.812.416l-2.434 11.47a4.914 4.914 0 0 0-.943.055 6.993 6.993 0 0 0-.844.18l-.163.77 10.964 2.327c.063-.297.122-.623.176-.98.054-.355.1-.708.14-1.06.04-.352.067-.696.082-1.031.014-.336.022-.638.022-.906l-.83-.176-1.62 2.345-3.953-.838 1.118-5.27 2.473.525.552 1.79.648.138c.217-.688.411-1.437.583-2.248a22.4 22.4 0 0 0 .368-2.23l-.649-.138-1.223 1.371-2.472-.525 1.053-4.965 3.79.804.425 2.59.83.176c.23-.545.446-1.134.651-1.768a32.95 32.95 0 0 0 .542-1.855l-10.66-2.262-.163.77zm22.819 6.357c.013-.511-.046-.951-.175-1.32a2.374 2.374 0 0 0-.561-.916 2.339 2.339 0 0 0-.862-.54 3.444 3.444 0 0 0-1.078-.193c-.43-.01-.779.022-1.044.098l-.146 5.779 1.23.03a2.458 2.458 0 0 0 1.83-.71c.512-.491.78-1.234.806-2.228zm3.997 9.161l.978.683-.018.705-3.459-.087-.873-.702a12.915 12.915 0 0 1-1.622-2.665 36.707 36.707 0 0 1-1.221-2.964l-1.678-.043-.121 4.851c.315.077.596.173.842.289.246.116.485.231.717.347l-.02.787-6.379-.16.02-.787c.307-.159.6-.28.88-.362.278-.082.555-.148.833-.196l.295-11.723c-.687-.17-1.248-.383-1.684-.643l.02-.788 2.196.056c.276.007.59.008.943.003a73.04 73.04 0 0 0 1.109-.024l1.182-.033c.4-.01.788-.01 1.16-.002a8.06 8.06 0 0 1 2.096.314c.638.19 1.183.463 1.637.822a3.57 3.57 0 0 1 1.045 1.328c.242.527.355 1.136.337 1.83-.025 1-.287 1.812-.787 2.438-.499.626-1.174 1.088-2.024 1.386.53.878 1.096 1.774 1.694 2.688a38.454 38.454 0 0 0 1.902 2.652zm8.414-12.746a2.085 2.085 0 0 0-.6-.637 2.388 2.388 0 0 0-.782-.343 2.749 2.749 0 0 0-.844-.075 1.169 1.169 0 0 0-.533.337 2.338 2.338 0 0 0-.417.603 1.96 1.96 0 0 0-.193.734c-.017.26.024.508.123.747.313.06.611.137.895.235.283.098.527.246.732.443.072.366-.021.74-.28 1.12-.26.379-.65.67-1.168.872l.486.901a4.334 4.334 0 0 0 1.275-.667c.382-.29.7-.617.955-.983.255-.364.441-.749.559-1.153.118-.404.154-.79.109-1.16a2.373 2.373 0 0 0-.317-.974zm15.401 3.957a5.403 5.403 0 0 0-1.546-1.002c-.58-.25-1.192-.444-1.836-.585a23.019 23.019 0 0 1-1.805-.464 5.588 5.588 0 0 1-1.459-.661c-.413-.271-.685-.661-.817-1.17-.145-.561-.06-1.04.253-1.434.313-.395.752-.665 1.316-.811.336-.087.67-.137 1.003-.152.333-.015.59-.003.772.036l1.637 2.509.822-.213c.002-.214-.006-.48-.023-.796a23.983 23.983 0 0 0-.079-1.007c-.035-.355-.08-.71-.136-1.067-.057-.356-.112-.67-.168-.94a8.34 8.34 0 0 0-2.033-.043c-.731.068-1.505.207-2.32.418a7.44 7.44 0 0 0-1.807.713 4.497 4.497 0 0 0-1.313 1.088c-.34.423-.568.906-.684 1.45-.117.543-.09 1.143.079 1.798.197.762.519 1.36.967 1.794.446.434.96.776 1.538 1.026a9.54 9.54 0 0 0 1.795.574c.62.132 1.206.276 1.76.433a5.433 5.433 0 0 1 1.432.614c.4.254.665.628.793 1.122.176.682.069 1.277-.32 1.784-.39.507-.953.856-1.689 1.046-.44.114-.812.142-1.112.084a2.285 2.285 0 0 1-.728-.25l-1.584-2.737-.822.213c-.006.257 0 .555.016.894.016.338.04.692.072 1.062.031.37.065.74.104 1.107.038.369.09.708.156 1.019.178.083.432.138.76.168a11.327 11.327 0 0 0 3.716-.318c1.752-.453 2.985-1.16 3.7-2.122.713-.962.899-2.112.553-3.45-.19-.734-.51-1.312-.963-1.73zm24.64-7.763a17.944 17.944 0 0 0-.6-.802 9.28 9.28 0 0 0-.53-.616l-.738.421.556 3.023c-.03.144-.146.31-.349.497a4.453 4.453 0 0 1-.808.568c-1.176.671-2.37.74-3.58.206-1.211-.533-2.306-1.657-3.285-3.373-.54-.948-.909-1.815-1.103-2.603-.195-.786-.248-1.492-.158-2.116.089-.623.294-1.157.612-1.602a3.783 3.783 0 0 1 1.216-1.088 5.69 5.69 0 0 1 .769-.366c.26-.1.462-.152.604-.154l2.54 2.153.756-.432a19.48 19.48 0 0 0-.304-.888c-.127-.348-.265-.7-.41-1.054a16.536 16.536 0 0 0-.844-1.75c-.517.042-1.13.189-1.836.44a14.24 14.24 0 0 0-2.248 1.057 8.965 8.965 0 0 0-2.192 1.74 6.188 6.188 0 0 0-1.344 2.305c-.274.856-.348 1.793-.221 2.81.127 1.016.516 2.095 1.166 3.234.657 1.152 1.376 2.05 2.157 2.693.78.644 1.608 1.07 2.483 1.28.874.208 1.786.204 2.736-.012.95-.217 1.923-.608 2.919-1.176a13.13 13.13 0 0 0 1.842-1.266c.568-.468.987-.953 1.256-1.457a24.55 24.55 0 0 0-.48-.799 18.525 18.525 0 0 0-.581-.873zm16.65-11.603a5.195 5.195 0 0 0-.859.418l-7.707-8.837a7.65 7.65 0 0 0 .522-.757c.165-.272.286-.543.363-.812l-.517-.594-4.731 4.126.517.593c.228-.033.469-.087.724-.163a3.41 3.41 0 0 0 .78-.35l3.295 3.778-4.137 3.609-3.296-3.779a3.2 3.2 0 0 0 .436-.682 4.36 4.36 0 0 0 .278-.738l-.518-.593-4.73 4.126.517.594a3.76 3.76 0 0 0 .793-.225c.302-.116.596-.263.882-.44l7.708 8.838a6.364 6.364 0 0 0-.5.766 6.135 6.135 0 0 0-.386.803l.517.594 4.731-4.126-.517-.593c-.277.04-.536.1-.776.181-.24.082-.483.193-.728.332l-3.526-4.043 4.137-3.609 3.527 4.044a3.742 3.742 0 0 0-.43.705 6.583 6.583 0 0 0-.284.715l.518.593 4.73-4.126-.516-.594a5.565 5.565 0 0 0-.818.246zm9.474-12.135c0-.517-.14-1.045-.42-1.582-.279-.537-.684-1.078-1.217-1.624a16.014 16.014 0 0 0-1.859-1.612 14.306 14.306 0 0 0-2.083-1.315c-.68-.346-1.324-.57-1.931-.67a3.398 3.398 0 0 0-1.699.125c-.526.184-.987.541-1.385 1.072-.38.508-.575 1.027-.583 1.556-.009.529.13 1.06.413 1.59.283.533.695 1.065 1.236 1.6.54.534 1.164 1.066 1.871 1.596.707.53 1.404.966 2.089 1.306.686.341 1.335.556 1.95.645.615.09 1.185.043 1.711-.141s.984-.536 1.373-1.056c.356-.475.534-.972.534-1.49zm1.844-2.98a6.002 6.002 0 0 1-.059 2.687c-.223.92-.674 1.834-1.353 2.74-.679.906-1.429 1.596-2.249 2.069a6.095 6.095 0 0 1-2.568.82 6.725 6.725 0 0 1-2.714-.351c-.918-.307-1.807-.785-2.67-1.43-.862-.646-1.57-1.366-2.122-2.16a6.725 6.725 0 0 1-1.1-2.506 6.104 6.104 0 0 1 .065-2.696c.224-.92.675-1.833 1.354-2.74.678-.906 1.428-1.595 2.248-2.068a6.008 6.008 0 0 1 2.563-.812 6.82 6.82 0 0 1 2.708.36c.917.308 1.807.784 2.669 1.43.862.646 1.57 1.366 2.123 2.16a6.809 6.809 0 0 1 1.105 2.497zm6.958-10.881c-.223.22-.423.438-.6.658l-10.4-5.416a4.783 4.783 0 0 0 .243-1.766l-.699-.364-2.985 5.733.698.364c.231-.144.466-.326.704-.544.238-.219.44-.441.604-.667l10.4 5.416a5.338 5.338 0 0 0-.242 1.766l.698.363 2.986-5.733-.698-.363a3.85 3.85 0 0 0-.709.553zm6.096-16.677a18.27 18.27 0 0 0-1.995-.473 9.214 9.214 0 0 0-.805-.11l-.274.804 2.417 1.897c.073.127.096.328.068.603a4.459 4.459 0 0 1-.23.962c-.437 1.281-1.286 2.122-2.547 2.524-1.26.402-2.825.283-4.695-.354-1.032-.353-1.882-.76-2.55-1.22-.667-.462-1.173-.955-1.52-1.482-.345-.527-.545-1.062-.6-1.607a3.788 3.788 0 0 1 .192-1.62c.093-.274.204-.535.333-.784.128-.247.245-.42.35-.515l3.33-.068.28-.823c-.217-.133-.49-.288-.816-.465-.326-.177-.66-.349-1.005-.518a16.377 16.377 0 0 0-1.79-.753c-.36.373-.722.889-1.085 1.545a14.243 14.243 0 0 0-.986 2.28 8.942 8.942 0 0 0-.49 2.754 6.19 6.19 0 0 0 .518 2.618c.36.824.926 1.575 1.694 2.253.768.678 1.773 1.23 3.015 1.653 1.255.428 2.388.625 3.4.59 1.01-.034 1.913-.262 2.707-.685.794-.422 1.475-1.029 2.044-1.82.569-.79 1.038-1.729 1.409-2.814.245-.718.426-1.441.542-2.168.117-.726.11-1.367-.022-1.923a22.624 22.624 0 0 0-.89-.281zm3.557-16.602a27.974 27.974 0 0 0-1.067-.076 15.34 15.34 0 0 0-1.034-.019c-.337.006-.638.016-.906.032l-.126.84 2.439 1.476-.6 3.996-5.326-.8.375-2.5 1.754-.658.098-.656a24.6 24.6 0 0 0-2.28-.446 22.49 22.49 0 0 0-2.248-.233l-.098.656 1.442 1.138-.375 2.5-5.02-.753.575-3.832 2.56-.58.125-.84a22.623 22.623 0 0 0-1.804-.542 32.784 32.784 0 0 0-1.884-.43l-1.616 10.778.778.116a4.28 4.28 0 0 0 .48-.755c.149-.292.271-.57.367-.836l11.596 1.74a4.9 4.9 0 0 0 .11.938c.067.303.144.58.232.83l.779.117 1.662-11.084c-.3-.045-.63-.084-.988-.117zm-40.075-69.541c.03.05.093.128.19.234l.294.324.294.325c.096.105.168.183.22.234.582.583 1.199.958 1.848 1.124.649.165 1.31.173 1.985.022.674-.152 1.348-.444 2.022-.877a11.698 11.698 0 0 0 1.947-1.585 9.467 9.467 0 0 0 1.41-1.79c.387-.638.65-1.29.792-1.954a4.211 4.211 0 0 0-.054-1.984c-.176-.659-.556-1.28-1.14-1.864-.18-.18-.368-.357-.559-.528a7.065 7.065 0 0 0-.513-.422l-8.736 8.741zm5.988-11.683a4.971 4.971 0 0 1-.317-.815l.573-.574 1.752 1.75c.17.17.387.377.649.619.261.241.536.49.823.747l.838.746c.272.242.498.453.679.634.876.875 1.543 1.773 2 2.693.459.92.705 1.841.741 2.762.035.92-.145 1.836-.542 2.747-.398.91-1.024 1.794-1.878 2.65-.835.835-1.716 1.474-2.641 1.917a6.506 6.506 0 0 1-2.837.665c-.966 0-1.952-.236-2.959-.708-1.006-.473-2.007-1.207-3.004-2.203-.13-.13-.3-.315-.506-.55a81.58 81.58 0 0 0-.664-.755l-.71-.8c-.236-.266-.45-.495-.64-.686l-1.662-1.66.574-.574c.27.07.55.174.837.31.287.135.566.298.838.49l8.54-8.545a8.207 8.207 0 0 1-.484-.86zm-19.53 1.064a5.306 5.306 0 0 0-.799-.287 6.74 6.74 0 0 0-.995-.189l-.458.67 9.677 6.609c.212-.286.445-.627.698-1.023.253-.396.504-.802.754-1.217.249-.415.477-.82.685-1.212.208-.392.38-.74.518-1.042l-.723-.493-3.335 2.348-3.402-2.323 6.837-10.011c.306.157.639.294.999.41.36.117.707.195 1.042.234l.457-.67-5.78-3.948-.458.67c.219.511.584 1.01 1.096 1.498l-6.813 9.976zm-14.048-6.73a7.316 7.316 0 0 0-.889-.007l-.337.738 10.504 4.797c.13-.285.262-.6.396-.946.135-.345.261-.69.38-1.035.118-.345.222-.685.312-1.019.09-.334.166-.636.226-.906l-.796-.363-2.155 1.996-3.786-1.73 2.305-5.047 2.369 1.081.153 1.924.622.284c.372-.643.735-1.353 1.09-2.13a23.41 23.41 0 0 0 .87-2.16l-.622-.284-1.537 1.104-2.368-1.081 2.172-4.757 3.63 1.658-.153 2.7.796.363a22.94 22.94 0 0 0 1.05-1.633c.349-.592.669-1.173.96-1.743l-10.211-4.664-.337.738c.16.23.365.46.611.69.247.23.488.43.724.6l-5.018 10.99a5.098 5.098 0 0 0-.961-.158zm-3.586-.8a3.971 3.971 0 0 0-.702-.604 7.947 7.947 0 0 0-.785-.473l3.372-11.6a4.95 4.95 0 0 0 1.833-.113l.226-.778-6.395-1.86-.226.78c.192.204.423.404.692.601.269.197.534.355.795.476l-3.372 11.6a5.496 5.496 0 0 0-1.833.112l-.226.779 6.395 1.858.226-.778zm-13.89-3.296a5.135 5.135 0 0 0-1.751-.875l.722-5.071 2.895.412.713 1.805.634.09c.087-.303.168-.651.246-1.043.077-.39.153-.797.227-1.218.059-.408.106-.818.143-1.23.037-.411.054-.804.05-1.179l-.634-.09-1.183 1.492-2.895-.413.792-5.557 4.099.584.617 2.632.866.123a18.8 18.8 0 0 0 .29-.896c.096-.324.186-.656.27-.997.085-.34.165-.673.24-1 .076-.327.133-.631.174-.913l-11.052-1.575-.114.803c.18.141.387.285.617.433.23.148.503.28.817.397l-1.704 11.96c-.292.03-.572.08-.84.15a6.715 6.715 0 0 0-.769.246l-.114.803 6.53.93.114-.803zM96.694 13.995c.29.129.58.244.87.344l.518 11.624a6.441 6.441 0 0 0-.932.415 7.17 7.17 0 0 0-.821.517l.036.81 5.267-.235-.036-.81a5.893 5.893 0 0 0-.908-.462 5.376 5.376 0 0 0-.964-.31l-.396-8.89-.268-1.698.064-.003.926 1.604 8.011 10.54 1.813-.081-.598-13.414a5.828 5.828 0 0 0 1.77-1.018l-.037-.831-5.288.235.038.832c.25.174.538.335.865.484a7.1 7.1 0 0 0 1.01.37l.317 7.107.188 1.825-.085.004-1.063-1.79-6.515-8.598-4.606.205.037.81c.234.147.496.284.787.414zm-11.44 2.146c.33.047.64.062.927.045l2.496 11.82c-.55.218-1.07.539-1.563.963l.168.793 6.515-1.376-.168-.794a3.959 3.959 0 0 0-.904-.202 7.98 7.98 0 0 0-.915-.046l-2.497-11.82a4.914 4.914 0 0 0 1.564-.963l-.168-.793-6.516 1.376.168.794c.266.089.564.157.894.203zm-13.037 4.286l1.87 4.975.638-.24c.227-.085.45-.18.668-.285.22-.105.424-.208.614-.31.44-.408.735-.896.887-1.462a2.734 2.734 0 0 0-.094-1.709c-.316-.84-.767-1.372-1.354-1.6-.587-.228-1.227-.212-1.92.048-.293.11-.544.212-.751.305a6.772 6.772 0 0 0-.558.278zm4.716 5.513a7.245 7.245 0 0 0-1.3.363l-1.06.398 1.93 5.135c.201-.03.41-.07.627-.122.216-.05.53-.153.944-.309.839-.315 1.404-.812 1.696-1.492.292-.68.283-1.432-.027-2.258-.19-.506-.426-.892-.709-1.159a2.13 2.13 0 0 0-.952-.532 2.774 2.774 0 0 0-1.149-.024zm-9.419-4.317l-.285-.759 3.217-1.208c.506-.19.978-.39 1.416-.6.438-.21.95-.426 1.536-.646.64-.24 1.276-.426 1.91-.558a5.58 5.58 0 0 1 1.787-.1c.556.064 1.055.26 1.498.588.442.328.79.831 1.046 1.51a3.262 3.262 0 0 1-.059 2.485 3.89 3.89 0 0 1-.696 1.06 4.666 4.666 0 0 1-1.039.846l.03.08a7.016 7.016 0 0 1 1.402-.184 4.02 4.02 0 0 1 1.409.2c.451.15.865.393 1.243.73.377.337.674.792.889 1.365.27.72.343 1.399.218 2.038a4.14 4.14 0 0 1-.809 1.763 6.316 6.316 0 0 1-1.574 1.423 10.65 10.65 0 0 1-2.071 1.04 24.9 24.9 0 0 1-.927.326l-1.014.335-.984.324c-.319.104-.584.197-.797.277l-2.378.893-.285-.76c.198-.241.42-.469.667-.683.246-.214.497-.384.754-.511l-4.248-11.31a7.104 7.104 0 0 1-.925.086c-.33.01-.641-.007-.931-.05zm-8.875 14.123l3.214-1.987-3.324-2.738-1.31-1.349-.036.023.588 1.844.868 4.207zm-.61 5.997l-2.552-14.607 1.343-.83 11.795 8.895c.272-.101.557-.181.855-.24.298-.059.576-.084.832-.075l.426.69-5.683 3.512-.426-.69c.162-.251.347-.507.554-.769a6.17 6.17 0 0 1 .627-.689l-2.837-2.236-4.03 2.49.712 3.55a5.109 5.109 0 0 1 1.905-.45l.427.69-4.485 2.772-.426-.69a4.953 4.953 0 0 1 .964-1.323zm-15.985 5.973c.922 1.008 1.848 1.747 2.78 2.216.93.47 1.859.71 2.785.72.926.012 1.842-.2 2.747-.633.906-.433 1.794-1.048 2.665-1.846a13.573 13.573 0 0 0 1.563-1.69c.465-.599.775-1.182.932-1.75a25.21 25.21 0 0 0-.664-.693 19.185 19.185 0 0 0-1.57-1.414 9.409 9.409 0 0 0-.672-.499l-.646.591 1.246 2.91c.003.152-.076.345-.237.58-.162.234-.39.486-.683.755-1.03.941-2.212 1.282-3.55 1.02-1.338-.26-2.694-1.141-4.068-2.643-.759-.83-1.325-1.617-1.7-2.364-.375-.747-.588-1.444-.64-2.09-.052-.647.032-1.23.251-1.75.22-.519.544-.975.975-1.369.22-.202.45-.382.689-.543.238-.16.43-.258.572-.292l3.041 1.585.662-.605c-.131-.227-.3-.502-.507-.823a28.285 28.285 0 0 0-.653-.966 16.91 16.91 0 0 0-1.244-1.566c-.51.16-1.093.445-1.746.86-.653.414-1.325.938-2.018 1.572a9.233 9.233 0 0 0-1.807 2.246c-.47.825-.745 1.7-.827 2.622-.08.923.058 1.881.417 2.874.358.993.994 1.988 1.907 2.985zM73.12 73.308l16.714 17.617c.029.031.065.05.105.057a.19.19 0 0 0 .174-.318L73.4 73.045a.194.194 0 0 0-.272-.008.194.194 0 0 0-.008.271zm-5.143-5.699a.192.192 0 0 0-.008.269l1.145 1.208a.206.206 0 0 0 .105.056.191.191 0 0 0 .166-.05.19.19 0 0 0 .008-.269l-1.148-1.206a.186.186 0 0 0-.268-.008zm2.453 2.583a.192.192 0 0 0-.008.271l1.132 1.192c.03.03.066.048.106.056a.186.186 0 0 0 .163-.05.189.189 0 0 0 .008-.266L70.698 70.2a.19.19 0 0 0-.268-.008zm2.353-3.525a.181.181 0 0 0 .114.066.191.191 0 0 0 .155-.04.19.19 0 0 0 .026-.268l-5.999-7.41a.192.192 0 0 0-.268-.03.189.189 0 0 0-.027.269l6 7.413zm19.925 11.908a90.557 90.557 0 0 1-.284-1.481l-4.162-8.732a.188.188 0 0 0-.253-.09.189.189 0 0 0-.092.253l4.791 10.05zm-3.99-17.902a.192.192 0 0 0 .141.12.191.191 0 0 0 .213-.255l-.57-1.492a.193.193 0 0 0-.248-.11.19.19 0 0 0-.11.244l.574 1.493zm-1.456-4.046a.195.195 0 0 0 .102-.01.19.19 0 0 0 .11-.245l-2.845-7.416a.191.191 0 0 0-.247-.11.19.19 0 0 0-.108.247l2.843 7.415a.19.19 0 0 0 .145.119zM76.4 55.69c.03.05.077.082.13.092.044.007.089 0 .131-.023a.192.192 0 0 0 .068-.262l-1.263-2.192a.191.191 0 0 0-.331.19L76.4 55.69zm-33.268 46.907c-.01.1.058.19.155.207.003.003.008.003.014.003l11.792 1.242.025-.38-11.778-1.24a.187.187 0 0 0-.208.168zm1.706 9.877l-1.804.095a.189.189 0 0 0-.179.2.19.19 0 0 0 .156.179.125.125 0 0 0 .045.005l1.803-.095a.19.19 0 0 0 .176-.2.191.191 0 0 0-.197-.184zM58.24 77.086l-4.741-3.083a.194.194 0 0 0-.266.056.193.193 0 0 0 .055.266l4.74 3.077a.206.206 0 0 0 .072.03.195.195 0 0 0 .195-.085.19.19 0 0 0-.055-.26zm-4.973 22.22a.192.192 0 0 0-.153-.223L42.221 97.06a.191.191 0 1 0-.071.376l10.896 2.022a.191.191 0 0 0 .22-.153zm-3.215 12.9l-2.763.141a.191.191 0 0 0-.182.2c.005.09.071.163.155.174a.14.14 0 0 0 .045.01l2.764-.147a.194.194 0 0 0 .182-.2c-.006-.105-.098-.19-.2-.179zm21.766-34.838c.062.01.13-.01.175-.061a.188.188 0 0 0-.012-.268L59.708 65.98a.194.194 0 0 0-.27.016.19.19 0 0 0 .012.268l12.275 11.06a.206.206 0 0 0 .093.044zM45.112 92.825L58.59 96.44c.11-.102.222-.205.334-.305L45.212 92.46a.184.184 0 0 0-.232.132.186.186 0 0 0 .132.234zm3.372-9.569l18.337 8.172.042.013a.193.193 0 0 0 .21-.11.192.192 0 0 0-.096-.254L48.639 82.91a.197.197 0 0 0-.253.095.193.193 0 0 0 .098.252zm6.062 7.129a.184.184 0 0 0-.242.116.19.19 0 0 0 .116.242l3.359 1.19c.01.005.02.008.029.008a.19.19 0 0 0 .1-.366l-3.362-1.19zM84.776 70.2c.03.05.077.081.13.092.045.008.09.002.129-.021a.193.193 0 0 0 .068-.261l-7.06-12.235a.191.191 0 0 0-.26-.069.191.191 0 0 0-.069.26L84.777 70.2zm-19.9 6.6a.193.193 0 0 0 .187-.072.193.193 0 0 0-.037-.269l-2.011-1.542a.191.191 0 0 0-.266.034.19.19 0 0 0 .034.269l2.011 1.542a.193.193 0 0 0 .082.037zm-3.807 7.09a.191.191 0 0 0-.258.077.19.19 0 0 0 .077.258l1.966 1.066a.188.188 0 0 0 .258-.076.19.19 0 0 0-.076-.258l-1.967-1.066zm5.797-5.778a.19.19 0 0 0 .037.267l17.086 13.116c.166-.031.335-.062.506-.092l-17.36-13.327a.193.193 0 0 0-.269.036zM80.552 91.81a.182.182 0 0 0-.027.13c.103.01.213.014.33.014.078 0 .165-.009.248-.013l-.288-.186a.19.19 0 0 0-.263.055zm-3.288-2.364l-13.35-8.674a.195.195 0 0 0-.265.058.19.19 0 0 0 .058.264l13.349 8.674a.223.223 0 0 0 .071.025.189.189 0 0 0 .195-.084.189.189 0 0 0-.058-.263zm-22.156 18.367l-3.836-.1a.19.19 0 1 0-.01.379l3.882.103a18.494 18.494 0 0 1-.036-.382zm12.208-20.528l-1.874-1.02a.191.191 0 0 0-.182.338l1.874 1.016a.202.202 0 0 0 .058.021c.08.014.16-.023.203-.097a.19.19 0 0 0-.079-.258zm3.09 1.896a.19.19 0 0 0 .077.257l2.436 1.323c.32.02.63.046.935.075l-3.19-1.732a.186.186 0 0 0-.258.077zm16.687-4.834c.03.037.069.06.113.069a.19.19 0 0 0 .182-.308L76.651 70.839a.192.192 0 0 0-.269-.029.193.193 0 0 0-.03.27l10.741 13.266zm-3.127-9.134c.047.008.1 0 .142-.032a.191.191 0 0 0 .05-.266l-8.308-12.09a.192.192 0 0 0-.266-.05.195.195 0 0 0-.05.265l8.308 12.091a.203.203 0 0 0 .124.082zm-6.381 7.352a.187.187 0 0 0 .177-.06.189.189 0 0 0-.014-.269l-1.714-1.542a.19.19 0 1 0-.255.284l1.714 1.542c.026.024.058.04.092.045zM90.77 80.46a.21.21 0 0 0 .133-.021.195.195 0 0 0 .068-.263l-4.14-7.18a.192.192 0 0 0-.262-.07.191.191 0 0 0-.07.26l4.145 7.182c.03.05.077.081.126.092zm.711-12.58c.002-.34.007-.678.02-1.014l-1.47-3.835a.194.194 0 0 0-.247-.11.191.191 0 0 0-.111.247l1.808 4.712zm1.332-7.808c.075-.184.154-.367.235-.549l-1.253-4.235a.189.189 0 0 0-.237-.128.188.188 0 0 0-.13.237l1.385 4.675zM80.592 85.05a.192.192 0 0 0 .015.272l6.437 5.797c.106-.003.211-.007.317-.007.087 0 .17.008.257.01l-6.755-6.085a.194.194 0 0 0-.271.013zm5.359-7.189a.191.191 0 0 0-.05.266l8.124 11.827.018-.65-7.829-11.393a.185.185 0 0 0-.263-.05zM60.596 92.728c-.035.1.018.208.116.245l1.675.593c.142-.086.285-.171.428-.254l-1.975-.7a.193.193 0 0 0-.244.116zm31.962-1.937a.19.19 0 0 0-.029.268l.435.537c.209.047.413.098.614.152l-.754-.931a.189.189 0 0 0-.266-.026zm1.589-4.351a17.64 17.64 0 0 0 0-.763l-.396-.689a.196.196 0 0 0-.264-.068.188.188 0 0 0-.068.258l.728 1.262zm-12.534 23.858c-.081-1.042.034-2.48.225-3.503.078-.422-.607-.774-.75-.23-.27 1.039-.3 2.869.083 3.825.147.37.483.453.442-.092zm33.518 56.3a.2.2 0 0 0-.169.217l1.412 10.719c.01.084.078.153.158.163a.19.19 0 0 0 .057.005.19.19 0 0 0 .164-.216l-1.411-10.724a.186.186 0 0 0-.211-.164zm-7.273-110.973c1.306-1.487-.684-1.342-1.25-.24-.692 1.38-1.327 6.165.478 8.15-.423-2.78-.596-5.424.772-7.91zm-17.08 57.082c-.808-1.954-.866-4.55-.065-6.376.968-2.206 6.061-.78 7.543.298-.943-2.027-6.84-3.601-8.274-.732-.874 1.752-1.172 4.987.074 7.024.415.68 1.01.485.721-.214zm16.258-16.62c-.395.06-.807.092-1.23.01-1.988-.353-3.434-.721-4.121-.543-.588.153-.325.61-.081.68.963.276 3.783.645 4.12.674.486.065.96.08 1.469-.02 1.44-.261 3.16-.653 4.68-.907-.876-.914-3.535.043-4.837.107zm12.327 67.731c-.135-.02-.27-.042-.405-.065l1.89 8.906a.2.2 0 0 0 .154.152c.025 0 .052 0 .073-.005a.189.189 0 0 0 .148-.226l-1.86-8.762zm14.007-.834l-.589-.347 1.446 3.035a.198.198 0 0 0 .257.084c.095-.037.133-.152.09-.247l-1.204-2.525zm-4.803.5c-.122.034-.244.069-.368.1l2.39 6.231a.186.186 0 0 0 .247.11.188.188 0 0 0 .105-.247l-2.374-6.194zM79.18 112.159c.12.023-.002-.19-.021-.9-.035-1.571.136-3.244.397-5.157.048-.356-.691-.546-.783-.079-.225 1.151-.467 4.038-.064 5.285.148.46.359.825.47.851zm9.913 35.725c.054.308.202.536.445.07.305-.941.434-2.542.146-3.364-.374-.447-.836-.624-.768.159.106.805.122 2.867.177 3.135zm-1.191 1.605c-.079-2.206.08-3.287-.18-4.694-.081-.445-.597-.684-.7-.177-.15.746-.35 3.496.84 5.782.106.046.087-.185.04-.911zM147.944 133c.13-.371.194-.742.23-1.113-.081.377-.17.752-.265 1.126.013.006.031.004.035-.013zm-1.514 38.636c.31-.186.616-.38.923-.57-.95-.538-1.897-1.083-2.845-1.617-.027-.013-.008-.093.014-.088 1.081.486 2.167.96 3.25 1.447.403-.254.803-.514 1.2-.776-.928-.537-1.848-1.1-2.76-1.66-.008-.001.004-.02.004-.02 1.085.434 2.176.871 3.259 1.352.31-.208.616-.422.923-.634-1.154-.654-2.293-1.384-3.431-2.07l.002-.006c1.333.549 2.685 1.054 4.013 1.673.401-.284.799-.574 1.195-.866-1.409-.746-2.795-1.644-4.175-2.48l.002-.007c1.484.607 2.987 1.164 4.454 1.874.055-.392.109-.778.158-1.17-1.236-.686-2.443-1.463-3.653-2.188-.006-.01-.002-.023.005-.022 1.232.508 2.487.984 3.73 1.541.048-.455.095-.91.15-1.364-.966-.567-1.928-1.179-2.892-1.754l.004-.014c.982.403 1.969.784 2.954 1.203.056-.491.12-.98.174-1.465-.83-.496-1.652-1.021-2.482-1.518l.004-.014c.842.346 1.695.68 2.544 1.036.08-.594.167-1.184.255-1.775-.696-.418-1.386-.858-2.083-1.27-.005-.008-.002-.023.005-.02.709.298 1.43.578 2.154.873.079-.486.164-.97.265-1.458.049-.273.104-.534.159-.797-.46-.285-.92-.57-1.375-.84-.007-.002-.004-.016.004-.014.473.197.947.387 1.422.576.158-.818.32-1.628.478-2.447-.234-.14-.469-.28-.702-.427-.006-.002-.003-.017.004-.015.236.102.48.199.725.295.903-4.709 1.747-9.432 2.623-14.154.843-4.49 1.894-9.117 1.935-13.768-.054-.9-2.983-1.73-4.28-1.932-.627-.097-1.247-.192-1.86-.376-.542-.167-1.07-.488-1.603-.719.377 3.676-.248 7.893-.824 11.488-.67 4.25-1.99 8.24-2.898 12.39-.962 4.48-1.711 9.058-2.681 13.537-.28 1.302-.55 3.707-1.612 6.237-.25.598-.55 1.375-.915 1.976.184.158.36.384.6.595.644.597 1.296 1.005 1.995 1.44.476.29.98.534 1.485.782zm-1.905 1.099l-.026-.015c-.522-.308-1.065-.598-1.55-1.036-.379-.34-.902-1.236-1.324-1.36.271.137.549.486.817.825.164.207.319.402.45.52.403.363.857.628 1.297.884l.235.137.088.052a.163.163 0 0 0 .013-.007zM58.062 101.47c-.003.01-.008.018-.012.027-.449 2.502-.586 7.147.355 8.942.61 1.088 1.76 2.561 3.769 3.382.133.072.273.136.416.197a4.963 4.963 0 0 1-.323-.158c-1.942-.793-3.153-2.228-3.83-3.438-.944-1.802-.828-6.357-.375-8.952zm18.94 54.958c1.616-.274 3.066-.997 4.583-1.258 1.585-.377 3.27.007 4.688-.452 1.452-.506 2.89-1.19 4.277-1.87a84.34 84.34 0 0 0 4.03-2.14 69.433 69.433 0 0 0 3.701-2.232c1.149-.757 2.281-1.533 3.134-2.346a6.725 6.725 0 0 0 1.692-2.84c.342-1.476.487-2.647-.18-4.207a4.145 4.145 0 0 0-1.072-1.523c-.395-.333-.708-.504-.88-.63-.016-.01-.025-.019-.04-.03-.914.447-1.963.816-2.823 1.133-.465.578-1.014 1.056-1.732 1.54-2.601 1.48-6.307 2.119-8.961 2.446-1.044.08-2.206.215-3.142.37-2.15.37-4.43.836-6.775 1.19-.913.136-1.835.259-2.77.346-1.806.763-3.458 1.507-3.782 2.927-.184 1.44.075 2.98.423 4.25.381 1.359.972 2.728 1.918 3.78.925 1.063 2.294 1.664 3.71 1.546zm-6.86-5.063c.483 1.762 1.141 3.094 2.068 4.19.57.667 1.25 1.2 1.967 1.54.108.051.22.098.333.143-.083-.035-.166-.07-.247-.11-.793-.374-1.468-.938-2.008-1.57-1.082-1.28-1.69-2.777-2.091-4.238-.356-1.563-.701-3.304-.4-4.764l-.02.083c-.3 1.432.048 3.19.398 4.726zm-3.573-13.694c.191 1.363.458 2.403.865 3.372.281.655.591 1.164.974 1.602.344.408.804.744 1.282.948a3.702 3.702 0 0 1-1.235-.94c-.441-.507-.75-1.072-.993-1.637-.479-1.135-.716-2.286-.874-3.4a20.656 20.656 0 0 1-.187-3.271 4.88 4.88 0 0 1 .08-.82c-.06.292-.095.59-.098.895a20.46 20.46 0 0 0 .186 3.25zm37.367-10.264a4.358 4.358 0 0 0-1.078-.968c-.327-.204-.579-.352-.762-.463-.217.161-.433.33-.648.51-1 .802-2.161 1.463-3.38 2.08a37.796 37.796 0 0 1-3.684 1.678c-.644.245-1.302.472-1.997.641-2.005.48-3.918-.068-6.206.07l-14.768-.244a21.316 21.316 0 0 1-1.506-.072c-.439.432-.606.554-1.42 1.432-.61.693-.844 1.55-.864 2.346-.023.993.04 2.05.188 3.11.152 1.058.39 2.141.825 3.12.439.98 1.085 1.81 2.053 1.998 1.03.231 2.232.191 3.399.108 1.176-.09 2.36-.248 3.532-.43 2.352-.361 4.648-.84 6.883-1.209 1.107-.178 2.233-.242 3.266-.363 2.422-.393 4.559-.69 6.61-1.547 1.399-.648 2.924-1.452 3.846-2.557.621-.845.746-1.2.851-1.043.072.118.047.583-.165 1.133.939-.315 2.311-1.042 2.875-1.388.207-.184.42-.369.63-.556-.634.452-1.366.927-2.134.936-.205-.017-.526-.069-.628-.48.174-1.029.194-2.144.096-3.12-.158-1.277-.339-2.228-.691-3.376-.028-.043.014-.066.042-.094 1.395-1.006 3.12-1.6 4.835-1.252zm-3.397 7.482h.002l.059-.013c-.013.004.263-.038.642-.164.602-.15 1.574-.57 2.22-.934.307-.343.573-.702.764-1.087.76-1.536.808-3.017.327-4.223-1.1-.6-3.462-.278-4.572.486l-.002.002-.002.002c.297 1.069.492 2.221.594 3.205.016.988.153 1.87-.032 2.726zm-.54-21.732c.749-.133 1.504.06 2.26.292-.602-.926-1.17-2.026-1.681-3.148.046 1.072-.079 1.94-.58 2.856zm-28.563 16.33l14.985.25c1.833.042 4.007.34 5.968-.115.63-.171 1.257-.397 1.876-.644a38.876 38.876 0 0 0 3.61-1.69c1.042-.552 2.228-1.199 3.193-2.062.721-.563 1.618-1.146 2.544-1.53 1.1-.418 1.506-1.596 1.489-2.929.028-1.038-.061-2.054-.295-2.892a5.95 5.95 0 0 0-.556-1.228c-1.449-.286-2.506-.29-3.88.064l-.06.022c-.032.562.141 1.25.233 1.753.15 1.044.522 2.985.388 4.882 0 .315-.828.29-.834-.124.085-1.486-.081-3.163-.35-4.575-.083-.805-.443-1.651-.161-2.308.083-.226.36-.374.496-.41 1.06-.367 3.034-.244 3.927.317a7.365 7.365 0 0 0-1.434-1.57c-.449-.35-1.113-.69-1.71-.902-.502-.16-.841-.261-1.043-.339-.2.318-.444.645-.746.99-.396.36-.864.528-1.344.644-2.426.504-4.93.007-7.613.183-3.69.341-7.368 1.063-10.77 1.079-2.001-.17-3.57-.427-5.629-.71-2.252-.304-4.371-.603-6.515-.867l-.01.024c-2.99 1.635-2.892 7.37-2.63 9.971.605 3.681 2.928 4.497 6.87 4.716zm-7.55-12.286c-1.214 3.423-.789 8.345.2 10.386.495.965 1.226 1.675 2.24 2.17-.983-.5-1.71-1.214-2.21-2.19-1.032-2.131-1.38-6.962-.23-10.366zm77.008 48.74c-.068.82-.127 1.529.242 3.74.055.354.175.549.365.594.03.008.06.02.09.034-.24-.068-.378-.303-.436-.682-.56-3.361-.14-3.275-.186-5.34l-.248-.142c-.056-.029-.111-.062-.166-.094a398.822 398.822 0 0 1-8.703-5.09l-.01.01a401.495 401.495 0 0 0 8.65 5.056c.036.022.072.043.108.06l.348.2.002.068c.016.705-.02 1.153-.056 1.587zm7.854-37.362l.029-.2c.185-1.39.324-2.784.322-4.173a148.717 148.717 0 0 1-7.156-3.425c.007.468 0 .943-.032 1.43-.046 2.215-.41 1.387-.678.01-.386-3.955-.926-5.958-2.257-8.286a110.65 110.65 0 0 0-2.803-4.226c-2.043-2.945-4.376-6.153-7.003-9.394-1.32-1.606-2.705-3.253-4.255-4.712-1.763-1.436-3.621-2.77-5.156-4.216-3.32-3.135-6.068-6.964-8.008-11.082a38.722 38.722 0 0 1-1.697-4.22c-1.172.197-2.645.173-3.593-.224-.304-.126-.321-.3-.262-.357.061-.06.212-.07.39-.076.868-.019 2.368-.051 3.216-.105-.14-.444-.273-.89-.396-1.334-.033-.111-.059-.223-.089-.334l-.294.045-.09.012c-.502.076-1.013.187-1.527.212-.397.019-.363-.225-.17-.418.421-.395.991-.505 1.473-.596.138-.03.278-.05.41-.066-.14-.658-.24-1.318-.307-1.975-.812.223-1.569.765-2.306 1.068-.567.234-.53-.045-.324-.327.212-.292 1.014-.897 1.587-1.165.177-.111.653-.303.973-.413a35.154 35.154 0 0 1-.063-2.555c.026-2.115.2-4.154.416-6.103.11-.974.23-1.927.352-2.853.143-1.563.63-3.729-.286-4.384-.253-.124-.815-.349-.32-.478.044-.003.082 0 .125 0-2.217-2.333-6.165-.077-7.973 1.48-2.036 1.843-3.877 4.257-4.835 7.03-.856 2.868-.876 6.181-.696 8.961.183 4.71 1.669 8.55 2.467 12.885.206 1.45.114 2.762.07 4.007-.255 3.84-.112 7.925-.131 11.494-1.45-3.515-1.222-8.704-1.06-12.243.032-1.199.09-2.457-.202-3.638-1.549-6.412-3.377-14.71-1.886-20.838-1.49 5.92.164 13.844 1.863 20.884.278 1.118.245 2.296.213 3.435l-.006.23c-.108 2.358-.272 5.918.206 8.989l.039.249-.218-.128a6.581 6.581 0 0 0-.557-.291l-.161-.075.095-.088-.005-.008c-.253-.042-.653-.164-1.113-.29-3.868-1.076-7.721-.961-12.236-.273-2.99.656-5.811-.71-9.129-.902-1.621-.178-3.255-.187-4.722.178-3.151.826-6.128 2.81-8.558 5.29-.543.62-1.065 1.254-1.258 2.023-.309 2.443-.233 5.132.205 7.36.815 1.658 2.551 3.1 4.161 3.739 3.222.41 7.4.855 11.025 1.405 1.777.182 3.692.63 5.386.602 3.655-.053 7.063-.952 10.565-1.095 2.183-.051 4.847.325 7.244-.211.515-.148.905-.664 1.15-1.3.666-1.846.957-5.713-1.013-7.613-.9-1.002-2.225-1.855-3.757-2.454-1.533-.602-3.275-.957-5.068-1.045-1.833-.09-3.715-.1-5.585-.15-1.8-.058-3.715-.163-5.51-.746-3.858-1.109-9.279-1.964-13.638-1.095 3.58-2.718 10.412-.672 14.291.01 1.461.404 2.994.559 4.584.604-.145-.818-.592-1.574-1.058-2.137-.319-.351-.136-.473.24-.382.804.326 1.485 1.427 1.649 2.537 1.727.04 3.489.055 5.24.147.238.013.475.03.713.052-.024-1.205-.13-2.174-.071-3.04.72.227.854 1.636.873 2.275.014.312.018.62.02.863 2.87.4 5.564 1.48 7.41 3.17-.147-1.175.031-2.1.044-2.868.445 1.533.957 3.672 1.754 5.395.802 1.715 2.974 6.393 4.176 7.986.692.847 1.206 1.875 1.605 2.867.405 1.004.722 2.024 1.01 3.037.572 2.026 1.012 4.033 1.54 5.879 1.461 4.189 3.937 8.512 7.35 10.855.914.561.944.717.792.816-.14.08-.445.03-1.126-.226-3.577-2.08-5.897-5.257-7.392-8.757-.067-.16-.128-.324-.19-.487-1.322 6.62-.595 12.154.987 18.512-3.068-2.147-3.622-15.124-1.682-20.68l-.017-.062c-.315-1.14-.603-2.32-.905-3.507a6.35 6.35 0 0 1-.237.951c-.264.715-.774 1.3-1.563 1.484a8.358 8.358 0 0 0-1.832.947c.2.042.422.105.658.198 2.953 1.424 3.286 4.53 2.164 7.27-.642 1.438-2.082 2.35-3.271 3.098a6.66 6.66 0 0 1-.752.467c.258.045.583.146.921.33 1.09.72 1.727 1.505 2.156 2.848.336 1.533.09 3.297-.435 4.58a7.91 7.91 0 0 1-2.292 3.072c-2.031 1.643-4.435 3.08-7.019 4.534a83.132 83.132 0 0 1-4.032 2.107c-.878.42-1.761.837-2.686 1.216.21.064.44.13.694.2 5.04 1.292 10.137 2.153 14.965 2.428 2.214.213 4.276-.066 6.252-.15 2.175-.03 4.367.726 6.274 1.278 3.535 1.108 7.483 1.472 10.898.833 3.363-.715 5.364-2.515 6.49-5.56.316-1.021.375-1.377.512-1.257.114.113.223.71.143 1.435-.245 1.39-.752 2.498-1.427 3.389a257.64 257.64 0 0 0 6.824 4.009c1.056-1.223 1.881-2.592 2.52-4.051a9.325 9.325 0 0 1-.448 1.5c-.107.51-.125.811-.19 1.017.203-.112.4-.233.592-.363.32-.635.665-1.28 1.185-1.729.02-.017.05.013.039.033-.143.34-.288.657-.434.982.597-.676 1.02-1.546 1.63-2.18.5-2.87 1.033-5.932 1.53-8.81-.54 1.27-.502 2.709-.995 4.006-.427 1.114-.762 2.387-1.5 3.335-.023.033-.098-.008-.089-.045.318-1.3.946-2.457 1.194-3.782.134-.725.333-1.427.462-2.16.11-.624.581-1.025.899-1.553.011-.02.043-.02.063-.007.275-1.602.558-3.24.838-4.855-.004-.528.098-1.054.161-1.575.062-.513.088-1.038.288-1.521.018-.05.052-.06.088-.052.567-3.271 1.093-6.37 1.527-8.926-.043-.649-.154-1.275-.17-1.941a91.387 91.387 0 0 0-.025-.727zm.644-.364l-.014.44c.102-.648.203-1.232.286-1.74-.025-.087-.042-.174-.061-.255a2.46 2.46 0 0 1-.181.825l-.047.003c.01.244.024.476.017.727zm.381-5.281c-.021.032-.044.063-.063.096l-.01.019c.035.013.071.024.106.038l.062-.117-.095-.036zm-6.686 50.586a7.29 7.29 0 0 1-1.128-.815c-.218-.197-.417-.448-.609-.69a6.671 6.671 0 0 0-.375-.447c-.41-.154-1.044-.568-1.214-1.658-.397-2.382-.329-3.208-.257-4.083.02-.235.039-.462.049-.73a404.806 404.806 0 0 1-7.735-4.514c-1.346.97-3.056 1.65-5.1 2.024l-.026.005-.026.003a24.12 24.12 0 0 1-3.356.238c-2.619 0-5.213-.422-8.408-1.37a82.235 82.235 0 0 1-1.05-.294c-1.373-.393-2.67-.764-3.93-.764-.117 0-.234.004-.348.01-1.164.133-2.458.2-3.849.2-.842 0-1.717-.025-2.6-.074h-.014l-.013-.001c-5.674-.433-10.661-1.251-15.246-2.5l-.05-.014-.048-.018c-.676-.244-1.481-.435-2.396-.568-.534.051-1.053.073-1.557.095-.784.033-1.524.066-2.207.2l-.013.003-.013.002c-.6.106-1.21.318-1.855.544-.952.333-1.938.677-3.008.705a6.919 6.919 0 0 1-3.125-.655c-.906-.43-1.724-1.067-2.434-1.9-1.048-1.238-1.816-2.784-2.35-4.725l-.007-.027-.006-.027c-.382-1.68-.76-3.614-.4-5.335.135-.615.31-1.114.567-1.55a4.92 4.92 0 0 1-1.599-1.236c-.472-.542-.864-1.184-1.202-1.971-.59-1.406-.83-2.796-.96-3.724a21.86 21.86 0 0 1-.2-3.463 6.017 6.017 0 0 1 .998-3.258c-1.427-.628-2.463-1.592-3.142-2.917l-.006-.013-.007-.013c-.784-1.619-1.194-4.42-1.045-7.134.076-1.37.347-3.566 1.26-5.424a6.464 6.464 0 0 1-1.464-.552c-2.341-.978-3.682-2.694-4.395-3.968l-.01-.015-.007-.016c-1.149-2.19-.97-7.178-.486-9.859l.023-.126.047-.119c.561-1.41 1.646-2.584 2.528-3.449l.01-.009.008-.008c2.999-2.83 6.657-4.758 10.3-5.427l.041-.008.042-.004c.46-.053.947-.084 1.45-.092h.01l.3-.002c1.336 0 2.633.143 3.723.283 1.481.186 2.88.478 4.234.76l.583.122c.263.053.548.079.87.079.86 0 1.83-.186 2.857-.383 1.176-.226 2.393-.46 3.65-.46.258 0 .512.01.756.03h.289c2.868 0 5.145.444 6.936 1.356-.13-2.38-.021-4.743.058-6.473l.006-.22c.03-1.045.06-2.127-.175-3.07-1.857-7.694-3.656-16.437-1.49-22.807l.005-.015.005-.015c1.071-2.91 2.93-5.566 5.533-7.9a17.49 17.49 0 0 1 1.849-1.43c1.379-.91 3.155-1.432 4.874-1.432.842 0 1.629.124 2.34.37l.021.008.023.01c1.032.4 1.723 1.2 2.03 1.826.07.13.125.251.17.36.943.674 1.45 1.948 1.444 3.663v.034l-.002.035c-.034.595-.106 1.139-.18 1.715-.023.168-.045.338-.068.523-.146 1.1-.257 2.003-.35 2.838-.26 2.367-.38 4.197-.394 5.93-.005 1.795.073 3.896.69 5.877l.006.016.004.015a37.14 37.14 0 0 0 2.276 5.99c1.893 3.92 4.565 7.518 7.727 10.407l.011.01.01.01c.785.75 1.68 1.428 2.545 2.083.922.698 1.875 1.42 2.723 2.25 1.651 1.652 3.119 3.418 4.462 5.085 2.386 2.988 4.731 6.174 7.169 9.738 2.068 2.734 3.516 5.997 4.118 9.258 1.25.62 4.195 1.961 7.909 3.33l.138-.082c.42-.252.995-.597 1.746-.597.193 0 .386.024.575.07.489.118 1.009.166 1.56.216l.397.037.213.02c.39.037.808.077 1.24.148.709-1.4 1.802-1.84 2.478-1.978l.137-.025h.125c.982 0 11.31 3.337 12.958 4 1.378.558 3.56 1.245 5.87 1.972.61.192 1.207.381 1.792.568A73.459 73.459 0 0 0 181.938 109c0-19.483-7.586-37.8-21.362-51.576C146.799 43.648 128.483 36.062 109 36.062a73.9 73.9 0 0 0-10.733.78l.225 1.74a.19.19 0 0 1-.221.213.194.194 0 0 1-.156-.163l-.226-1.732a72.172 72.172 0 0 0-21.399 6.769l8.063 16.912a.19.19 0 0 1-.09.255.183.183 0 0 1-.116.016.194.194 0 0 1-.139-.106l-8.06-16.907c-6.593 3.332-12.7 7.695-18.125 13l6.266 6.606a.19.19 0 0 1-.008.27.192.192 0 0 1-.166.048.183.183 0 0 1-.1-.055l-6.264-6.603c-.108.108-.219.211-.327.32a73.174 73.174 0 0 0-12.93 17.462l15.104 8.204a.19.19 0 0 1 .076.257.194.194 0 0 1-.203.098c-.018-.005-.036-.01-.055-.021l-15.098-8.2a72.106 72.106 0 0 0-7.128 20.902l.609.112a.195.195 0 0 1 .155.224.195.195 0 0 1-.223.153l-.61-.113a74.104 74.104 0 0 0-.445 22.016l18.783-2.468c.103-.01.2.063.214.169.013.094-.06.2-.164.21l-18.78 2.468a72.254 72.254 0 0 0 6.21 21.108l5.534-2.637a.19.19 0 0 1 .255.09.194.194 0 0 1-.092.257l-5.533 2.637a72.842 72.842 0 0 0 12.39 18.21l4.013-3.81a.189.189 0 0 1 .27.01.19.19 0 0 1-.007.269l-4.018 3.809a73.295 73.295 0 0 0 17.342 13.685l7.08-13.032.406-.14a.19.19 0 0 1 .004.185l-7.155 13.171a72.056 72.056 0 0 0 20.802 7.738l3.553-19.152.38.048-3.558 19.183A73.677 73.677 0 0 0 109 181.939c2.658 0 5.293-.146 7.898-.425l-.319-2.417a.199.199 0 0 1 .163-.216.19.19 0 0 1 .216.164l.32 2.427a72.323 72.323 0 0 0 21.666-5.925c-.004-.007-.012-.012-.016-.02l-3.122-6.554a.188.188 0 0 1 .09-.253.186.186 0 0 1 .252.09l3.128 6.55c.004.01.004.021.007.033a72.255 72.255 0 0 0 3.804-1.872zm31.37-40.914c-1.193-.514-2.54-1.119-3.784-1.415-1.468-.351-1.003-.347-2.471-.698-2.634-.625-3.295-.997-5.952-1.463-.058-.01-.062.072-.006.09 2.606.775 3.297 1.18 5.933 1.8 1.368.318.804.283 2.18.604 1.332.31 2.754 1.048 4.1 1.117.015 0 .02-.026 0-.035zm-.14 1.61c-1.7-.6-3.292-1.199-5.012-1.617-1.677-.408-1.556-.563-3.247-.748-.053-.005-.07.101-.021.121 1.643.61 1.494.693 3.166 1.085 1.724.404 3.366.952 5.111 1.17l.003-.01zm-8.64-2.659c-.508-.278-1.048-.322-1.567-.455-.505-.124-1.01-.378-1.536-.324-.015 0-.028.089-.007.098.481.29 1.098.46 1.606.574.522.121.96.145 1.503.114v-.007zm-1.675-3.459a37.81 37.81 0 0 0-.593-.144c-.389-.098-.765-.287-1.176-.228a.412.412 0 0 0-.016.134c.357.23.747.231 1.116.316.197.043.4.091.597.13.202.046.26-.16.072-.208zm8.328 2.433c-1.1-.26-1.57-.885-2.673-1.14-2.157-.507-2.464-.822-4.636-1.172-.074-.013-.087.11-.016.13 2.06.63 2.189.89 4.27 1.368 1.1.255 1.691.728 2.793.98 1.14.257 1.319.082.262-.166zm-10.219-4.12c2.645.774 3.353 1.2 6.024 1.829 1.346.321.735.252 2.084.563 1.32.304 2.73 1.057 4.054 1.114.016 0 .02-.022.007-.03-1.176-.518-2.52-.946-3.74-1.24-1.447-.35-1.067-.53-2.508-.87-2.664-.629-3.225-.966-5.907-1.453-.06-.011-.072.07-.014.088zm.25-2.967c2.378.766 2.858 1.095 5.268 1.667 2.337.554 2.73 1.156 5.093 1.472.067.008.086-.105.016-.13-2.308-.777-2.93-1.181-5.27-1.721-2.414-.558-2.674-.945-5.104-1.302-.007-.002-.01.008-.003.014zm-.39 1.409c2.433.727 2.936 1.087 5.39 1.665 1.369.324.84.229 2.21.547.63.147 2.647.923 3.277 1.07.776.18 1.027.058.34-.107-.63-.153-2.644-.94-3.279-1.096-1.367-.33-.9-.43-2.267-.755-2.56-.612-3.079-1.007-5.654-1.462-.087-.017-.11.112-.017.138zm-1.677-1.558c.003-.015-.013-.011-.01.008.338 3.453-.3 7.273-.882 10.61-.276 1.54-.42 3.072-.568 4.65-.17 1.806-1.76 8.573-1.916 10.375.004.016 1.289-4.025 1.292-4.04.19-1.595 1.146-3.59 1.347-5.17.272-2.129.496-4.624.861-6.732.514-2.924 1.185-8.024-.124-9.701zm-13.955 50.347l-.013.008.214.118c-.466.275-.936.543-1.409.808l-.22-.127c-10.878 5.989-23.149 9.176-35.911 9.176-19.933 0-38.674-7.763-52.768-21.858C42.137 147.674 34.374 128.933 34.374 109s7.763-38.673 21.858-52.768C70.326 42.137 89.067 34.375 109 34.375s38.673 7.762 52.768 21.857c14.095 14.095 21.857 32.835 21.857 52.768 0 14.492-4.106 28.351-11.763 40.255a74.93 74.93 0 0 1-20.115 21.158c.018-.085.032-.17.05-.256-.153.107-.308.21-.46.316l.186.096-.598.415c-.063-.032-.125-.068-.188-.1-.34.231-.685.459-1.03.684.069.033.138.063.206.096-.193.128-.386.256-.58.382l-.195-.107c-.309.197-.62.391-.93.584.058.042.119.081.177.126-.605.38-1.216.75-1.833 1.113-.07-.038-.141-.08-.213-.119zM215.42 109c0-28.426-11.07-55.15-31.17-75.25S137.426 2.58 109 2.58c-28.426 0-55.15 11.07-75.25 31.17C13.648 53.85 2.58 80.574 2.58 109c0 28.426 11.069 55.15 31.17 75.25 20.1 20.1 46.824 31.17 75.25 31.17 28.426 0 55.15-11.07 75.25-31.17s31.17-46.824 31.17-75.25zm2.58 0c0 29.115-11.338 56.487-31.926 77.074C165.487 206.662 138.115 218 109 218c-29.115 0-56.487-11.338-77.075-31.926C11.338 165.487 0 138.115 0 109c0-29.115 11.338-56.487 31.925-77.074C52.513 11.338 79.885 0 109 0c29.115 0 56.487 11.338 77.074 31.926C206.662 52.513 218 79.885 218 109zM95.287 123.567c.689-1.394.41-3.806.111-5.096-.142-.615-.84-.677-.66.222.155 1.16.46 3.223.55 4.874zm2.801 22.674c.939.468 3.987-1.111 4.633-3.137-1.202 1.329-3.013 2.678-3.697 2.153.036-2.539-.042-4.25-.498-5.995-.47-.82-.993-.157-.83.604.435 2.056.446 4.668.392 6.375zm-5.2-19.256c1.126-.837 1.07-5.66.488-8.384-.142-.39-.78-.442-.77.237.26 2.726.324 6.747.282 8.147zm4.892 4.445a.704.704 0 0 0-.758.095c-.018.014-.018.017-.016.026.173 1.733.1 3.146-.011 4.915.05.067.194.023.388-.305.758-1.254.623-3.428.434-4.703a.112.112 0 0 0-.037-.028zm-6.067 37.232c-.1-.015-.205.037-.234.137l-.798 2.985c-.028.1.032.206.132.237h.016a.188.188 0 0 0 .218-.137l.8-2.985a.193.193 0 0 0-.134-.237zm-32.115-36.6l-2.72 1.3a.189.189 0 0 0-.09.253c.027.057.08.094.138.105.04.01.08.005.118-.016l2.717-1.295a.193.193 0 0 0 .092-.258.196.196 0 0 0-.255-.09zm-6.21 3.384a.189.189 0 0 0 .092-.252.196.196 0 0 0-.255-.09l-1.888.895a.195.195 0 0 0-.09.258.197.197 0 0 0 .138.106c.04.005.078 0 .118-.016l1.885-.9zm8.458.348a.193.193 0 0 0-.26-.068l-10.06 5.807a.192.192 0 0 0-.07.263c.028.047.076.08.132.09.042.01.089 0 .128-.022l10.059-5.807a.193.193 0 0 0 .07-.263zm-.77-8.76l-13.898 5.332a.19.19 0 0 0 .032.364c.034.01.07.006.105-.01l13.865-5.316a12.89 12.89 0 0 1-.104-.37zm-7.588-5.976a.18.18 0 0 0 .074 0l7.077-1.502c.017-.134.036-.268.055-.402l-7.212 1.53a.192.192 0 0 0-.147.226c.016.08.079.137.153.148zm-3.454.558a.187.187 0 0 0-.226-.148l-5.47 1.159a.199.199 0 0 0-.148.231c.016.074.08.132.153.148h.074l5.47-1.169a.184.184 0 0 0 .147-.22zm3.346 3.822a.183.183 0 0 0 .15.132c.029.01.058.005.09 0l6.911-2.047c-.008-.13-.016-.26-.022-.391l-7 2.07a.194.194 0 0 0-.129.236zm12.16 17.758l-8.304 6.724a.19.19 0 0 0 .085.337.19.19 0 0 0 .155-.042l8.268-6.691a7.804 7.804 0 0 1-.204-.328zm6.685 20.302a.19.19 0 0 0 .056.263.197.197 0 0 0 .07.032.208.208 0 0 0 .196-.085l2.334-3.592a8.33 8.33 0 0 1-.4-.09l-2.256 3.472zm-8.023-6.207a.19.19 0 0 0 .016.268.165.165 0 0 0 .092.048.2.2 0 0 0 .176-.059l3.57-3.964c-.05-.133-.095-.274-.142-.41l-3.712 4.117zm37.89 4.5a.19.19 0 0 0-.21.164l-.492 4.67c-.01.1.058.19.155.205.006 0 .01 0 .016.006a.197.197 0 0 0 .21-.174l.488-4.665c.012-.1-.056-.184-.166-.205zm3.841 3.94a.187.187 0 0 0 .153.184c.01.005.021.005.032.005a.195.195 0 0 0 .195-.185l.102-3.833a49.81 49.81 0 0 1-.382.005l-.1 3.823zm-13.864.878c-.03.1.031.206.134.232.005 0 .01.005.016.005a.191.191 0 0 0 .218-.142l1.602-5.975c-.126-.022-.251-.043-.376-.066l-1.594 5.946zm9.131 3.654a.191.191 0 0 0-.21.169l-.342 3.221c-.011.1.057.19.155.206.006 0 .01 0 .016.005.105.01.2-.068.21-.174l.34-3.216c.01-.106-.064-.19-.169-.211zm-45.042-58.38l-2.452.127a.192.192 0 0 0-.182.2.197.197 0 0 0 .201.184l2.658-.139c-.08-.127-.155-.251-.225-.373zm53.992 49.826l.64 12.25c.006.09.071.163.155.179.017.005.03.005.045.005a.192.192 0 0 0 .182-.205l-.64-12.202a6.312 6.312 0 0 0-.382-.027zm-25.173-1.512a.19.19 0 0 0-.253.1l-3.59 8.06c-.045.1 0 .21.092.253.016.01.029.01.044.016a.188.188 0 0 0 .208-.111l3.591-8.066a.192.192 0 0 0-.092-.252zm3.63 2.253a.189.189 0 0 0 .116.242c.007 0 .018.005.028.005a.181.181 0 0 0 .211-.121l.952-2.686c-.123-.028-.247-.055-.37-.085l-.937 2.645zm1.019-75.582a.186.186 0 0 0-.269-.026.188.188 0 0 0-.029.266l1.688 2.085c.028.037.07.058.113.065a.191.191 0 0 0 .184-.308l-1.687-2.082zm48.981 7.74a.199.199 0 0 0-.258-.09l-6.653 3.174.248.303 6.574-3.132a.195.195 0 0 0 .09-.256zm.269 2.785a.198.198 0 0 0-.248-.111l-4.717 1.808a.19.19 0 0 0-.105.248.182.182 0 0 0 .142.118.167.167 0 0 0 .1-.007l4.717-1.809a.197.197 0 0 0 .11-.247zm3.206-7.9a.187.187 0 0 0-.258-.071l-11.5 6.637.25.294 11.439-6.6a.192.192 0 0 0 .069-.26zm1.2 9.334a.196.196 0 0 0-.237-.129l-8.557 2.533.248.326 8.415-2.493a.191.191 0 0 0 .132-.237zm-12.22-5.554a.187.187 0 0 0-.263-.05l-1.871 1.286c.087.094.177.188.264.283l1.823-1.253c.09-.061.11-.18.048-.266zm30.536-.066l-15.868 4.699a.186.186 0 0 0-.126.234.18.18 0 0 0 .147.132.248.248 0 0 0 .09 0l15.868-4.7a.188.188 0 0 0 .127-.236.192.192 0 0 0-.238-.13zm-.979-9.305l-16.794 8.01a.19.19 0 0 0-.09.255.19.19 0 0 0 .252.09l16.796-8.01a.195.195 0 0 0 .094-.253.194.194 0 0 0-.258-.092zm.88 26.716a.198.198 0 0 0-.196.19c0 .094.064.173.158.189h.027l2.464.068a.188.188 0 0 0 .195-.184c0-.105-.08-.19-.19-.2l-2.458-.063zm-15.574-9.37a.186.186 0 0 0-.226-.144l-9.752 2.07.249.338 9.587-2.034a.189.189 0 0 0 .142-.23zm11.062 5.56a.194.194 0 0 0-.2-.181l-17.712.928.253.367 17.474-.91a.198.198 0 0 0 .185-.203zm-10.672 3.6a.194.194 0 0 0-.19-.196l-5.323-.14c.082.13.167.258.247.39l5.066.135c.11 0 .195-.085.2-.19zm-5.924-5.329a.194.194 0 0 0-.215-.166l-2.708.357.251.35 2.504-.328a.195.195 0 0 0 .168-.213zm31.974.927a.19.19 0 0 0-.205-.18l-11.473.598a.189.189 0 0 0-.178.2.189.189 0 0 0 .152.18.297.297 0 0 0 .048.002l11.472-.6a.194.194 0 0 0 .184-.2zm-19.1 4.39a.194.194 0 0 0-.196.19.18.18 0 0 0 .153.19c.01.005.02.005.032.01l5.991.158c.105 0 .19-.084.195-.19 0-.105-.08-.194-.184-.194l-5.992-.164zm11.582-8.726l-21.918 2.883a.194.194 0 0 0-.168.213.202.202 0 0 0 .158.163.193.193 0 0 0 .058 0l21.922-2.882a.185.185 0 0 0 .164-.211.194.194 0 0 0-.216-.166zm3.301-15.508a.185.185 0 0 0-.242-.11l-25.503 9.782a.19.19 0 0 0-.11.247.196.196 0 0 0 .147.119.165.165 0 0 0 .1-.008l25.502-9.785a.19.19 0 0 0 .106-.245zm-47.641-13.164a.193.193 0 0 0-.248.116l-3.268 9.224c.087.137.174.275.263.41l3.368-9.505a.2.2 0 0 0-.115-.245zm29.198 2.556l8.276-6.697a.186.186 0 0 0 .027-.269.189.189 0 0 0-.269-.026l-8.276 6.697a.19.19 0 0 0-.026.268.184.184 0 0 0 .116.067.18.18 0 0 0 .152-.04zm-19.727 4.836a.194.194 0 0 0 .184-.071l1.427-1.862a.187.187 0 0 0-.031-.268.195.195 0 0 0-.269.037l-1.427 1.858a.192.192 0 0 0 .037.269.174.174 0 0 0 .079.037zm-5.85-1.414a.191.191 0 0 0-.257.077l-3.942 7.26c.088.102.175.207.265.309l4.014-7.388a.19.19 0 0 0-.08-.258zm6.73-12.393a.192.192 0 0 0-.259.076l-5.67 10.45a.186.186 0 0 0 .074.256.27.27 0 0 0 .058.021.191.191 0 0 0 .2-.094l5.675-10.451a.186.186 0 0 0-.079-.258zm-11.036 15.391a.193.193 0 0 0-.253.098l-1.089 2.445c.086.115.178.226.265.34l1.172-2.63a.194.194 0 0 0-.095-.253zm-4.043-3.053c-.1-.032-.206.031-.237.134l-.131.49c.086.172.173.343.263.513l.242-.903a.194.194 0 0 0-.137-.234zm32.531 34.75c.01-.1-.068-.205-.168-.205l-5.826-.614c.06.132.113.266.171.398l5.612.59c.106.015.2-.063.211-.169zM129.662 75.45a.194.194 0 0 0-.268.057l-7.619 11.725a.193.193 0 0 0 .059.266.15.15 0 0 0 .068.026.187.187 0 0 0 .194-.084l7.619-11.725a.196.196 0 0 0-.053-.265zm5.928 14.718a.208.208 0 0 0 .121.078c.048.008.1 0 .142-.03l18.317-12.587a.19.19 0 0 0 .052-.265.196.196 0 0 0-.268-.05L135.638 89.9a.194.194 0 0 0-.048.266zm9.667-11.012l2.585-2.087a.187.187 0 0 0 .026-.269.192.192 0 0 0-.269-.029l-2.575 2.088a.195.195 0 0 0-.03.27c.03.038.073.059.115.064a.17.17 0 0 0 .148-.037zm-2.68 1.927c-.069-.079-.19-.095-.269-.027L127.48 93.057c.095.087.19.174.284.263l14.781-11.97a.192.192 0 0 0 .032-.268zm-14.084.787l-3.274 4.267a.19.19 0 0 0 .036.266.206.206 0 0 0 .08.037.2.2 0 0 0 .189-.07l3.275-4.268a.193.193 0 0 0-.037-.269.193.193 0 0 0-.269.037zm-4.201 5.784a.186.186 0 0 0-.263.034l-1.219 1.587c.093.086.187.172.283.256l1.236-1.611a.19.19 0 0 0-.037-.266zm8.55-10.825l9.24-12.033a.193.193 0 0 0-.306-.234l-9.234 12.035a.193.193 0 0 0 .037.269.174.174 0 0 0 .079.034.185.185 0 0 0 .184-.071zm-1.4 9.95a.19.19 0 0 0-.269-.01l-5.101 4.843a.192.192 0 0 0-.02.25l.086.067c.01.004.019.009.028.01a.19.19 0 0 0 .163-.047l5.107-4.844a.19.19 0 0 0 .006-.268zm2.953-7.134a.191.191 0 0 0-.269.017L124.33 90.54l.304.234 9.778-10.858a.194.194 0 0 0-.016-.272zm-34.27-28.654l-1.028-7.817a.187.187 0 0 0-.213-.16.186.186 0 0 0-.166.21l1.054 8.02a16.4 16.4 0 0 1 .353-.253zm16.48 9.896a.196.196 0 0 0 .227-.153l.61-3.282a.197.197 0 0 0-.152-.224.197.197 0 0 0-.227.153l-.61 3.285a.195.195 0 0 0 .152.22zm1.21-6.502a.194.194 0 0 0 .223-.152l.463-2.486a.195.195 0 0 0-.153-.223.188.188 0 0 0-.22.152l-.465 2.485a.19.19 0 0 0 .153.224zm-4.506 2.335l-.004.069c-.022.393-.06.766-.104 1.13a.194.194 0 0 0 .03-.08l1.337-12.717a.184.184 0 0 0-.168-.208.19.19 0 0 0-.211.165l-1.04 9.865c.103.5.163 1.065.16 1.709v.067zm9.356 10.167c.01.005.021.007.032.007a.192.192 0 0 0 .216-.124l3.7-10.442a.2.2 0 0 0-.115-.245.194.194 0 0 0-.247.113l-3.702 10.448a.187.187 0 0 0 .116.243zm.521-15.582s.005 0 .01.003c.1.016.195-.042.222-.14l1.121-4.177a.19.19 0 0 0-.137-.235c-.1-.031-.205.037-.231.134l-1.122 4.178a.194.194 0 0 0 .137.237zm-10.356 10.33l.127-1.211a.19.19 0 0 0-.057-.155c-.07.546-.129 1.043-.182 1.516a.185.185 0 0 0 .112-.15zm3.56 15.007l.015.003a.194.194 0 0 0 .221-.14l5.997-22.373a.197.197 0 0 0-.137-.234.183.183 0 0 0-.226.137l-6.002 22.373c-.032.1.031.205.131.234zm2.205-26.49a.197.197 0 0 0 .227-.152l2.327-12.528a.195.195 0 0 0-.153-.221.195.195 0 0 0-.226.15l-2.322 12.53c-.016.102.053.203.147.221zM65.16 149.656a.2.2 0 0 0 .103.058.182.182 0 0 0 .166-.053l1.54-1.46a10.851 10.851 0 0 1-.004-.52l-1.8 1.707a.189.189 0 0 0-.005.268zm47.305-85.225a51.99 51.99 0 0 0-.103 1.645l.158-1.497a.184.184 0 0 0-.055-.148zm-51.47 76.98a.2.2 0 0 0 .122.08c.05.01.1 0 .145-.032l2.911-2a17.64 17.64 0 0 1-.08-.408l-3.047 2.092a.195.195 0 0 0-.05.269zm34.87-86.408c.102-.126.205-.25.31-.374l-1.806-8.513a.192.192 0 0 0-.226-.148.193.193 0 0 0-.147.227l1.869 8.808zm47.706 61.253l13.922 2.583a4.97 4.97 0 0 1 .621-.276l-14.67-2.724c.041.14.087.278.127.417zm-83.484-.437a.1.1 0 0 0 .058 0l.02-.002a5.84 5.84 0 0 1-.222-.125.194.194 0 0 0 .144.127zM104.31 47.05a.19.19 0 0 0 .224-.197l-.107-2.04a.188.188 0 0 0-.2-.18.19.19 0 0 0-.179.2l.104 2.038c.005.09.07.164.158.18zm9.641 29.198l2.438-13.15a.186.186 0 0 0-.152-.221.192.192 0 0 0-.221.152l-2.32 12.503c.085.238.166.48.255.716zm57.114 3.06a.199.199 0 0 0 .115-.016l2.565-1.224c.1-.047.136-.16.094-.255a.194.194 0 0 0-.258-.09l-2.564 1.227c-.095.044-.137.158-.095.253a.215.215 0 0 0 .143.105zm-21.06 21.075c.016.079.08.134.153.15a.252.252 0 0 0 .073-.003l20.65-4.382a.187.187 0 0 0 .147-.227.19.19 0 0 0-.227-.147l-20.648 4.382c-.105.027-.174.125-.148.227zm13.03-17.421c.027.057.08.094.138.105a.194.194 0 0 0 .12-.015l5.329-2.541c.1-.047.137-.16.094-.256a.194.194 0 0 0-.257-.089l-5.334 2.543a.194.194 0 0 0-.09.253zm16.558 39.586l-1.816-.337c-.105-.016-.205.052-.22.152a.192.192 0 0 0 .152.227l1.811.337a.2.2 0 0 0 .226-.153.2.2 0 0 0-.153-.226zm-7.512-6.37a.182.182 0 0 0-.169-.206l-20.733-2.19a.189.189 0 0 0-.205.168c-.01.1.058.19.153.211h.016l20.733 2.185c.1.01.194-.063.205-.169zm-3.517-14.803a.19.19 0 0 0 .152.164.355.355 0 0 0 .064 0l11.409-1.498a.191.191 0 0 0 .163-.216.194.194 0 0 0-.216-.164l-11.409 1.498a.19.19 0 0 0-.163.216zM144.63 88.024a.2.2 0 0 0 .132.092.191.191 0 0 0 .131-.021l18.801-10.85a.192.192 0 0 0 .068-.261.187.187 0 0 0-.257-.072l-18.806 10.851a.191.191 0 0 0-.069.26zm-23.523-16.64a.191.191 0 0 0 .215-.124l.7-1.966a.2.2 0 0 0-.115-.245.194.194 0 0 0-.248.116l-.694 1.966a.19.19 0 0 0 .115.245.131.131 0 0 0 .027.008zm54.096 50.348l-7.308-1.359a.197.197 0 0 0-.22.158.196.196 0 0 0 .076.184l.169.055 7.209 1.341a.2.2 0 0 0 .226-.153.2.2 0 0 0-.152-.226zm-34.127-73.947a.192.192 0 0 0 .258-.08l1.369-2.532a.182.182 0 0 0-.074-.255.184.184 0 0 0-.258.074l-1.374 2.532a.196.196 0 0 0 .08.26zm1.595 7.28l-11.983 18.446a.19.19 0 0 0 .059.264c.02.015.042.023.068.028a.192.192 0 0 0 .195-.084l11.983-18.442a.192.192 0 0 0-.322-.211zM120.58 80.267l.042.013a.19.19 0 0 0 .21-.11l13.252-29.752a.194.194 0 0 0-.094-.252.184.184 0 0 0-.248.097l-13.256 29.751c-.043.098 0 .21.094.253zm11.072-15.136a.192.192 0 0 0 .258-.079l8.466-15.584a.193.193 0 0 0-.079-.258.192.192 0 0 0-.258.076l-8.466 15.584a.195.195 0 0 0 .079.26zm6.329 10.537a.17.17 0 0 0 .095.045.175.175 0 0 0 .173-.06l12.767-14.166a.193.193 0 0 0-.016-.27.19.19 0 0 0-.268.015l-12.768 14.165c-.068.08-.063.2.017.271zm-3.849 8.558a.19.19 0 0 0 .105.058.18.18 0 0 0 .163-.05l17.448-16.55a.188.188 0 0 0 .01-.266.193.193 0 0 0-.273-.008l-17.448 16.547a.19.19 0 0 0-.005.269zm19.512-18.506a.186.186 0 0 1 .004-.268l6.918-6.566c.08-.073.2-.068.269.009a.186.186 0 0 1-.005.268l-6.918 6.563a.192.192 0 0 1-.169.053.193.193 0 0 1-.1-.059z" fill="#725A5A" fill-rule="evenodd"/></svg>