<svg width="45" height="45" xmlns="http://www.w3.org/2000/svg"><path d="M25.05 23.053c1.5-1.602 3.43-2.824 5.252-4.096 1.266-.883 2.674-1.563 4.019-2.333l.315.393-.834.165.232.261c2.489-1.013 5.03-1.814 7.633-2.34v-6.16c-4.174 1.14-8.296 2.482-12.434 3.755-3.264 1.003-6.507 2.074-9.76 3.114.81-.013 1.623-.055 2.38-.286 3.634-1.113 7.248-2.288 10.877-3.418 2.377-.741 4.765-1.444 7.148-2.163-.112.268-.282.365-.461.438-5.14 2.093-10.272 4.208-15.425 6.268a89.602 89.602 0 0 1-5.931 2.153v2.016c4.836-2.27 9.73-4.421 14.614-6.589 1.332-.59 2.716-1.066 4.076-1.594-.24.413-.569.614-.913.784-1.565.774-3.169 1.475-4.695 2.318-4.371 2.412-8.71 4.879-13.082 7.289v3.91H22c.828-1.42 1.923-2.684 3.049-3.886zm9.065-14.245c2.505-.644 5.017-1.305 7.552-1.792v-2.93c-2.97.16-5.94.348-8.911.522-2.825.165-5.647.384-8.471.543-2.075.117-4.15.256-6.224.374v7.107c.786-.133 1.57-.278 2.35-.442 4.602-.967 9.147-2.211 13.704-3.382zm.35-4.794c2.4-.18 4.801-.357 7.202-.51v-.171H18.061v.758c2.284.18 4.567.408 6.851.408 3.185 0 6.373-.247 9.553-.485zm6.182 21.924l1.02-.36v-.476c-.375.171-.746.353-1.115.543l.095.293zm-8.103 1.001h2.804a42.232 42.232 0 0 1 6.32-2.758v-1.143c-3.155.863-6.16 2.18-9.036 3.85l-.088.051zm-7.897-2.102c-.506.649-.987 1.322-1.378 2.102h6.725c3.752-2.042 7.62-3.727 11.673-4.816v-5.186c-5.251.985-9.97 3.3-14.143 6.694-.488.396-.991.773-1.466 1.183-.462.398-.898.827-1.345 1.243 3.228-4.22 7.609-6.757 12.503-8.444a41.996 41.996 0 0 1 4.451-1.261v-.763a72.244 72.244 0 0 0-6.745 1.956c-4.115 1.412-7.585 3.839-10.275 7.292zm-8.231 3.747h26.896V1.688H16.416v26.896zM45 30.272H30.015v1.968h-1.687v-1.968H16.502a53.38 53.38 0 0 0-2.834 1.429c-3.45 1.904-6.883 3.84-10.325 5.761v-2.03c3.832-1.751 7.686-3.452 11.537-5.16h-.152v-1.135c-2.916 1.19-5.833 2.376-8.757 3.546-.873.349-1.748.687-2.628 1.014v-2.138c.11-.027.218-.055.325-.088 3.695-1.131 7.372-2.321 11.06-3.476v-.535c-1.038.324-2.076.647-3.116.967-2.764.85-5.516 1.744-8.269 2.633v-3.448c3.816-.84 7.6-1.835 11.385-2.82V19.76c-2.815.172-5.627.384-8.442.543-.981.055-1.962.115-2.943.176v-1.02a53.35 53.35 0 0 0 3.618.142c2.589 0 5.18-.152 7.767-.337v-2.726h-2.103V14.85h2.103V0H45v30.272zm-16.672 9.116h1.687v-4.765h-1.687v4.765zM5.476 16.537h4.766v-1.688H5.476v1.688zM0 17.943h1.688v-1.406h1.406v-1.688H0v3.094zm7.806 23.578h.329l.06-.053c.511-.44 1.053-.846 1.577-1.273 4.621-3.757 9.86-6.286 15.708-7.293a92.71 92.71 0 0 1 1.192-.198v-.69c-2.183.411-4.34.97-6.465 1.703-4.752 1.638-9.053 4.021-12.401 7.804zm8.725-8.268l.898-.177-.34-.424c-1.447.83-2.963 1.561-4.326 2.512-1.961 1.369-4.038 2.685-5.653 4.41-.59.63-1.172 1.275-1.717 1.947h1.261l.022-.027c2.896-3.718 6.631-6.33 11.06-7.85a77.09 77.09 0 0 1 8.883-2.474l.053-.01v-.448c-3.39.537-6.681 1.515-9.89 2.822l-.25-.28zm2.995 8.268a37.524 37.524 0 0 1 7.146-2.378v-.987c-3.37.766-6.618 1.927-9.777 3.365h2.631zm6.056 0c.36-.153.723-.295 1.09-.427v-.845a45.862 45.862 0 0 0-3.664 1.272h2.574zm2.746 1.656h-1.406v1.688h3.093V41.77h-1.687v1.406zM5.477 44.865h4.765v-1.688H5.477v1.688zm7.148 0h4.766v-1.688h-4.766v1.688zm7.148 0h4.766v-1.688h-4.766v1.688zM1.688 41.77H0v3.094h3.094v-1.688H1.688V41.77zM0 25.09h1.688v-4.765H0v4.765zm0 14.297h1.688v-4.765H0v4.765zm0-7.148h1.688v-4.766H0v4.766z" fill="#C6BEBE" fill-rule="evenodd"/></svg>