<svg width="309" height="92" xmlns="http://www.w3.org/2000/svg" xmlns:xlink="http://www.w3.org/1999/xlink"><defs><path id="a" d="M.796.295H267.8v91.278H.796z"/><path id="c" d="M0 .975h22.413v18.648H0z"/></defs><g fill="none" fill-rule="evenodd"><g transform="translate(41.112 .019)"><mask id="b" fill="#fff"><use xlink:href="#a"/></mask><path d="M267.782 78.393c0-1.818-.967-2.824-1.962-3.256v-.276a2.295 2.295 0 0 0 1.578-2.17v-4.095a2.297 2.297 0 0 0-1.685-2.212c-.04-3.924-.079-7.926-.079-10.635 0-6.75-8.595-9.771-8.991-9.903l-9.469-2.916-6.34-19.139h2.096c.677 2.105 1.842 5.77 1.936 6.11.264.887 1.167 1.28 1.896 1.345.094 0 2.07.132 3.277-.013.583-.065 1.06-.365 1.339-.836.557-.928.12-2.16.025-2.395-.065-.196-1.338-4.788-1.895-6.435-.663-1.937-2.201-2.237-3.037-2.132h-8.01c-1.739-2.826-4.577-3.311-5.968-3.141h-6.22c-.346-2.159-1.246-3.832-2.706-5.01-2.533-2.015-5.82-1.753-6.419-1.688h-15.41V.295H62.82v63.343a2.083 2.083 0 0 0-1.657 2.028v5.063c0 .992.716 1.817 1.657 2.026v3.206l-12.267 8.333V69.563H33.711v-9.942H.796v31.952h74.547l7.849-5.107c.758 1.97 2.03 3.709 3.65 5.107h19.7c2.077-1.804 3.569-4.172 4.155-6.861h7.81c.586 2.69 2.078 5.057 4.153 6.861h19.738c2.077-1.804 3.566-4.172 4.144-6.861h39.522c.584 2.69 2.076 5.057 4.153 6.861h19.728c2.076-1.804 3.568-4.172 4.154-6.861h3.938c.586 2.69 2.078 5.057 4.154 6.861h19.727c2.077-1.804 3.57-4.172 4.155-6.861h18.673c1.18 0 1.883-.51 2.266-.93.862-.967.81-2.326.77-2.693v-2.696z" fill="#FFF" mask="url(#b)"/></g><g transform="translate(0 71.969)"><mask id="d" fill="#fff"><use xlink:href="#c"/></mask><path fill="#FFF" mask="url(#d)" d="M6.764.975v.38H-.001v18.269h22.414V1.354H7.573V.976z"/></g><path d="M158.917 32.514c.47.188.926.452 1.371.792.112.1.218.149.319.149.222 0 .368-.33.436-.99h.384c-.046.78-.067 2.156-.067 4.124h-.385c-.078-.88-.223-1.572-.435-2.078-.213-.505-.58-.93-1.103-1.27-.525-.33-1.045-.496-1.557-.496-1.16 0-1.975.55-2.443 1.65-.468 1.1-.701 2.414-.701 3.943 0 1.53.233 2.844.701 3.945.468 1.101 1.284 1.65 2.443 1.65.512 0 1.032-.164 1.557-.494.522-.32.89-.75 1.103-1.288.212-.54.357-1.303.435-2.294h.385c0 2.058.021 3.488.067 4.291h-.384c-.035-.352-.082-.602-.143-.752-.063-.148-.148-.222-.259-.222-.09 0-.207.044-.353.132-.501.353-.981.62-1.439.8-.457.182-1.009.272-1.655.272-1.26 0-2.364-.235-3.313-.71a5.17 5.17 0 0 1-2.208-2.054c-.523-.896-.786-1.966-.786-3.209 0-1.21.268-2.283.804-3.218a5.575 5.575 0 0 1 2.24-2.178c.96-.518 2.052-.776 3.28-.776.669 0 1.237.093 1.706.281m8.18 10.148V39.18c-.1.165-.285.38-.552.643-.302.287-.53.564-.687.834-.155.27-.233.634-.233 1.097 0 .792.283 1.188.852 1.188.235 0 .44-.093.62-.281m-3.906 1.032c-.363-.38-.544-.855-.544-1.428 0-.495.13-.904.393-1.229.263-.324.572-.575.93-.75a10.9 10.9 0 0 1 1.387-.545c.603-.199 1.043-.38 1.322-.544.278-.165.418-.397.418-.695v-1.468c0-.351-.09-.665-.268-.94-.178-.275-.484-.412-.92-.412-.345 0-.658.093-.937.28.38.132.66.328.845.586.184.257.276.547.276.866 0 .429-.153.773-.46 1.03-.307.261-.677.39-1.112.39-.436 0-.778-.136-1.03-.405-.25-.27-.375-.614-.375-1.03 0-.33.083-.617.25-.86.167-.241.43-.46.787-.66.624-.352 1.517-.528 2.676-.528.614 0 1.143.057 1.59.174.446.115.825.332 1.136.651.223.232.372.52.443.866.073.348.11.828.11 1.444v4.422c0 .276.019.463.058.561.04.1.108.15.21.15a.533.533 0 0 0 .251-.074c.089-.05.172-.107.25-.174l.168.28c-.48.407-1.165.611-2.057.611-.67 0-1.14-.112-1.406-.337-.268-.227-.412-.532-.435-.916-.524.834-1.305 1.253-2.343 1.253-.714 0-1.25-.19-1.613-.569m14.361-3.819c0-1.354-.1-2.302-.301-2.848-.2-.544-.473-.816-.82-.816-.323 0-.604.113-.843.339-.241.225-.36.509-.36.849v6.452c.255.133.518.197.786.197 1.025 0 1.538-1.39 1.538-4.173m2.326-3.465c.535.704.803 1.732.803 3.085 0 1.75-.357 3-1.07 3.754-.714.754-1.657 1.13-2.828 1.13-.358 0-.655-.01-.895-.032a2.125 2.125 0 0 1-.66-.165 3.442 3.442 0 0 0-1.29-.247c-.334 0-.646.044-.936.13-.29.09-.512.204-.67.348l-.233-.164c.077-.232.118-.534.118-.91V33.223c0-.506-.07-.875-.211-1.105-.138-.23-.382-.347-.727-.347v-.346c.345.032.691.05 1.037.05 1.16 0 2.13-.076 2.911-.232v5.346c.514-.825 1.36-1.237 2.543-1.237.87 0 1.572.352 2.108 1.057m5.377-4.803c.319.244.478.594.478 1.057 0 .46-.16.814-.478 1.056-.317.242-.766.364-1.346.364-.591 0-1.043-.122-1.355-.364-.312-.242-.468-.595-.468-1.056 0-.463.156-.813.468-1.057.312-.242.764-.362 1.355-.362.58 0 1.03.12 1.346.362zm.26 11.007c0 .452.07.762.21.933.139.17.382.255.727.255v.347a87.89 87.89 0 0 0-2.376-.067 103 103 0 0 0-2.509.067V43.8c.345 0 .588-.085.728-.255.14-.171.21-.481.21-.933v-5.231c0-.506-.07-.875-.21-1.106-.14-.23-.383-.346-.728-.346v-.347c.357.033.703.05 1.037.05 1.16 0 2.13-.076 2.911-.232v7.212zm10.071-6.601c.167.198.29.465.368.8.078.336.118.78.118 1.329v4.472c0 .452.069.762.208.933.14.17.383.255.728.255v.347a89.22 89.22 0 0 0-2.34-.067c-.38 0-1.173.024-2.377.067v-.347c.289 0 .49-.085.602-.255.111-.171.168-.481.168-.933V37.25c0-.352-.065-.612-.193-.784-.128-.17-.338-.256-.626-.256-.325 0-.606.112-.846.339-.24.225-.36.509-.36.85v5.214c0 .452.056.762.167.933.112.17.313.255.602.255v.347a74.9 74.9 0 0 0-2.208-.067 103 103 0 0 0-2.509.067v-.347c.346 0 .588-.085.728-.255.14-.171.21-.481.21-.933v-5.23c0-.507-.07-.876-.21-1.106-.14-.232-.382-.347-.728-.347v-.347c.357.033.703.05 1.037.05 1.16 0 2.13-.077 2.911-.232v1.188c.502-.824 1.389-1.237 2.66-1.237.892 0 1.523.22 1.89.66m9.803-4.604c.414.11.809.275 1.188.496.2.122.377.296.527.527.15.232.227.474.227.726 0 .936-.637 1.403-1.909 1.403-.623 0-1.098-.118-1.422-.354-.323-.238-.484-.575-.484-1.016 0-.35.128-.652.385-.899.256-.248.62-.425 1.086-.536a1.778 1.778 0 0 0-.418-.123 2.791 2.791 0 0 0-.569-.059c-.892 0-1.555.396-1.99 1.188a3.028 3.028 0 0 0-.352 1.049c-.066.41-.1 1.009-.1 1.79h1.523c1.038 0 1.845-.015 2.426-.041a19.233 19.233 0 0 0 1.688-.157v7.21c0 .452.082.762.244.933.16.17.449.257.861.257v.345a99.735 99.735 0 0 0-2.526-.065c-.39 0-1.232.022-2.525.065v-.345c.344 0 .587-.086.728-.257.138-.17.208-.481.208-.932V37.38c0-.505-.081-.875-.243-1.104-.162-.231-.45-.348-.86-.348h-1.524v6.684c0 .451.103.761.31.932.207.17.526.257.961.257v.345l-.452-.015a101.09 101.09 0 0 0-2.241-.05c-.378 0-1.154.015-2.325.05-.089.01-.212.015-.367.015v-.345c.411 0 .699-.086.86-.257.162-.17.243-.481.243-.932v-6.684h-1.17v-.33h1.17c0-1.275.468-2.348 1.405-3.218.413-.384.948-.67 1.606-.856a7.443 7.443 0 0 1 2.058-.282c.77 0 1.36.055 1.773.165m6.641 7.328h1.942c.01-.88-.053-1.601-.194-2.161-.14-.562-.354-.843-.643-.843-.626 0-.993 1.002-1.105 3.004m3.999 2.74l.283.098a4.582 4.582 0 0 1-1.245 1.981c-.586.55-1.337.824-2.25.824-1.171 0-2.108-.357-2.81-1.072-.703-.715-1.055-1.86-1.055-3.432 0-1.507.394-2.638 1.18-3.392.786-.753 1.825-1.13 3.12-1.13 2.108 0 3.161 1.232 3.161 3.697h-4.315a7.26 7.26 0 0 0-.017.594c0 1.055.187 1.809.56 2.26.373.451.828.676 1.363.676.815 0 1.489-.368 2.025-1.105m5.068 1.139c0 .452.07.762.208.933.141.17.382.255.728.255v.347a87.747 87.747 0 0 0-2.375-.067 103 103 0 0 0-2.509.067V43.8c.345 0 .589-.085.727-.255.14-.171.21-.481.21-.933v-9.39c0-.505-.07-.875-.21-1.104-.138-.231-.382-.348-.727-.348v-.347c.345.034.691.05 1.037.05 1.16 0 2.13-.076 2.911-.23v11.37zm6.683.569c.24-.225.36-.51.36-.85v-6.221a1.54 1.54 0 0 0-.787-.213c-.525 0-.913.327-1.162.98-.252.656-.377 1.648-.377 2.98 0 1.352.1 2.302.3 2.846.202.544.475.817.82.817.323 0 .604-.113.846-.34m3.58.257c.138.23.381.347.727.347v.347c-.346-.035-.69-.052-1.037-.052-1.16 0-2.131.078-2.91.232v-1.17c-.234.428-.511.741-.83.938-.317.2-.721.299-1.213.299-1.025 0-1.85-.377-2.475-1.13-.624-.754-.937-1.9-.937-3.441 0-1.463.333-2.572.996-3.325.663-.754 1.57-1.13 2.718-1.13.714 0 1.295.137 1.74.411v-2.54c0-.506-.07-.875-.21-1.106-.139-.231-.381-.348-.727-.348v-.345c.346.033.692.05 1.038.05 1.16 0 2.13-.077 2.91-.232v11.09c0 .505.07.875.21 1.105m43.516 45.258c-3.516 0-6.376-2.964-6.376-6.606s2.86-6.605 6.376-6.605c3.516 0 6.378 2.963 6.378 6.605 0 3.642-2.862 6.606-6.378 6.606m7.12-6.606c0-4.046-3.193-7.338-7.12-7.338-3.925 0-7.119 3.292-7.119 7.338 0 4.047 3.194 7.34 7.12 7.34s7.12-3.293 7.12-7.34m-19.319-60.521c0-.517.193-.645.31-.661h9.547c.127 0 3.178.059 4.244 2.977l6.432 19.682-19.206.003c-.146.004-.777-.013-1.1-.312-.097-.09-.227-.253-.227-.63v-21.06zm1.244 23.468c.071 0 .118-.002.132-.003h21.198l-7.067-21.62c-1.434-3.927-5.478-3.972-5.647-3.972h-9.573c-.712.023-1.774.607-1.774 2.127v21.059c0 .69.243 1.278.699 1.7.697.644 1.675.71 2.032.71zM174.93 88.696c-3.515 0-6.377-2.964-6.377-6.606s2.862-6.605 6.378-6.605 6.376 2.963 6.376 6.605c0 3.642-2.86 6.606-6.376 6.606m7.119-6.606c0-4.046-3.194-7.338-7.12-7.338s-7.12 3.292-7.12 7.338c0 4.047 3.194 7.34 7.12 7.34s7.12-3.293 7.12-7.34M22.41 91.592V73.32H7.576v-.37h-.818v.37H.003v18.272H2.11V75.4h4.647v16.192h.818V75.4H20.3v16.192zm102.078-12.244h-19.643a.37.37 0 0 0-.372.367.37.37 0 0 0 .372.367h19.643a.37.37 0 0 0 .371-.367.37.37 0 0 0-.371-.367m-13.007 8.38H91.84a.37.37 0 0 0-.371.366.37.37 0 0 0 .371.368h19.642a.37.37 0 0 0 .372-.368.37.37 0 0 0-.372-.366M250.148 21.47c0-.512.421-.928.94-.928h6.706c.518 0 .94.416.94.927v21.258a.936.936 0 0 1-.94.929h-6.706a.935.935 0 0 1-.94-.929V21.469zm.94 22.92h6.706c.929 0 1.683-.747 1.683-1.663V21.469c0-.916-.754-1.661-1.683-1.661h-6.706c-.928 0-1.684.745-1.684 1.661v21.258c0 .916.756 1.663 1.684 1.663zm-141.04 31.006a.37.37 0 0 0 .371.366h19.643a.37.37 0 0 0 .372-.366.37.37 0 0 0-.372-.367H110.42a.37.37 0 0 0-.371.367m7.803 8.011H98.21a.37.37 0 0 0-.371.366.37.37 0 0 0 .37.368h19.643a.37.37 0 0 0 .371-.368.37.37 0 0 0-.371-.366" fill="#D5CFCF"/><path d="M306.45 82.347c-.04.046-.167.187-.594.187h-16.028c.004-.132.017-.263.017-.395 0-1.826-.314-3.578-.868-5.221h15.768l.004.157 1.05.036c.144.006.873.092.873 1.303v2.75l.008.138c.023.176.01.777-.23 1.045zM273.06 65.58c-6.842 0-12.73 4.065-15.341 9.87h-9.506V54.233h56.061c.145.485.24.991.24 1.533 0 .706.004 1.504.008 2.362h-2.615a.738.738 0 0 0-.743.734c0 .405.333.733.743.733h2.626l.01 1.189h-2.636a.738.738 0 0 0-.743.733c0 .405.333.733.743.733h2.65l.016 1.504h-2.666a.738.738 0 0 0-.743.733c0 .405.333.733.743.733h2.683c.01.735.016 1.47.025 2.2v.036h-5.988c-.645 0-1.17.52-1.17 1.155v4.1c0 .635.525 1.154 1.17 1.154h6.06l.001.06.023 1.526h-16.308c-2.612-5.805-8.501-9.87-15.343-9.87zm15.282 16.953h-1.354c.01-.216.033-.43.033-.648 0-7.015-5.593-12.724-12.465-12.724-.137 0-.273.007-.41.011v-.011h-2.062c-6.879 0-12.474 5.709-12.474 12.724v.648h-1.824c-.004-.134-.024-.263-.024-.395 0-8.323 6.863-15.091 15.298-15.091 8.436 0 15.297 6.768 15.297 15.09 0 .133-.011.264-.015.396zM262.464 82a12.28 12.28 0 0 0 4.28 9.33c-2.982-1.685-5.104-4.51-5.548-7.841l-.1-.751v-.852c0-5.177 3.433-9.538 8.085-10.847A12.316 12.316 0 0 0 262.464 82zm-6.164.534h-3.007l-.016.119h-5.064v-5.735h8.93a16.291 16.291 0 0 0-.867 5.22c0 .133.021.262.024.396zm-14.052.119h4.478V18.45h-4.478v64.202zm-1.487-7.202h-51.927a16.71 16.71 0 0 0-6.02-7.072h52.16v-.807h-53.47v.021a16.85 16.85 0 0 0-8.012-2.012c-2.885 0-5.6.72-7.975 1.991h-11.643v.807h10.295a16.698 16.698 0 0 0-6.019 7.072h-14.423v-3.597h5.571c1.076 0 1.95-.864 1.95-1.922v-4.04c0-1.06-.874-1.923-1.95-1.923h-5.571V2.506h96.897v9.304h.137v63.64zm0 7.202h-11.653l-.016-.12H190.26c.003-.131.016-.262.016-.394a16.22 16.22 0 0 0-.869-5.221h51.354v5.735zm-51.988-.12h-1.354c.012-.215.033-.428.033-.647 0-7.015-5.592-12.724-12.464-12.724-.137 0-.275.007-.41.011v-.011h-2.064c-6.877 0-12.472 5.709-12.472 12.724v.648h-1.824c-.004-.134-.024-.263-.024-.395 0-8.323 6.863-15.091 15.298-15.091 8.436 0 15.297 6.768 15.297 15.09 0 .133-.012.264-.016.396zM162.896 82c0 3.7 1.635 7.013 4.204 9.26-2.92-1.692-4.994-4.482-5.433-7.771l-.127-.955h-.012v-.648c0-5.179 3.434-9.539 8.086-10.847A12.313 12.313 0 0 0 162.896 82zm-6.166.534h-6.844l-.02.157h-6.14v-5.773h13.85a16.22 16.22 0 0 0-.868 5.22c0 .133.02.262.022.396zm-14.49.157h-13.373l9.476-6.476.023-2.405h.015v-1.956h3.86V82.69zm-16.785-10.348V54.96h11.438v9.01h-.017v7.885h.017v.49h-11.438zM111.519 90.52H86.443l19.721-13.378v-.215l4.252-3.022h2.628v-.095h23.449l-24.974 16.71zM110 72.184v.213l-3.835 2.726v-2.94H110zm-5.497-6.38h1.662v-.19H110v5.103h-3.835v-.102h-1.662v-4.81zm6.241 6.635h1.559V9.25h-1.559v63.188zm13.278-18.945h9.006V41.91h-9.006v11.583zm.69 1.465v17.384h-6.302V54.861h4.67v.098h1.632zm9.06-1.467h3.122V41.91h-3.122v11.582zm-11.236-13.048v12.95h-5.613v18.95h-3.134v-62.32h23.105v30.42h-14.358zm26.763 24.992a.46.46 0 0 1 .463.456v4.04a.459.459 0 0 1-.463.454h-10.917v-4.95h10.917zm-43.134-62.93h36.076v61.463h-3.859V8.56h-25.159v-.042H110v55.63h-3.835V2.506zm136.084 9.304h16.086l.151-.01c.03-.003 2.844-.354 4.798 1.224 1.077.867 1.703 2.212 1.914 3.96h-22.95V11.81zm23.091 6.696h8.332l.15-.009c.106-.016 2.674-.3 4.087 2.542l.062.124c-.042.107-.06.222-.042.35.026.173.079.37.158.583.133.35.479.587.86.587h.28l7.292 22.02 10.535 3.246c.063.023 5.289 1.87 6.95 5.55h-55.79V18.45h17.122l.004.055zm13.546 3.146l.098.297h-.037a.171.171 0 0 1-.162-.107c-.028-.075-.036-.124-.055-.19h.156zm25.743 46.854h1.543c.06 0 .108.049.108.107v4.092c0 .06-.049.106-.108.106h-1.499l.004.32h-6.049a.424.424 0 0 1-.428-.42v-4.1c0-.233.192-.421.428-.421h5.997l.004.316zm-16.95-46.854l.186-.014c.163-.01.435.046.635.637.54 1.601 1.846 6.28 1.9 6.443.042.103.083.252.11.387-.848.052-2.03-.006-2.453-.037h-.009c-.394-1.266-2.046-6.442-2.123-6.683l-.233-.733h1.986zM308.9 78.414c0-1.822-.97-2.83-1.965-3.254l-.006-.275a2.312 2.312 0 0 0 1.578-2.18v-4.092a2.31 2.31 0 0 0-1.676-2.21c-.045-3.922-.089-7.93-.089-10.637 0-6.745-8.592-9.768-8.991-9.904l-9.472-2.92-6.335-19.127h2.1a931.666 931.666 0 0 1 1.934 6.104c.26.888 1.173 1.275 1.898 1.34.085.007 2.069.142 3.28-.005.578-.07 1.053-.37 1.333-.838.553-.924.123-2.159.02-2.397-.055-.196-1.337-4.784-1.896-6.439-.652-1.928-2.199-2.237-3.026-2.124h-8.018c-1.732-2.834-4.573-3.315-5.97-3.146h-6.22c-.333-2.154-1.239-3.833-2.703-5.004-2.524-2.021-5.822-1.762-6.41-1.694h-15.414V.308H103.936v63.345a2.079 2.079 0 0 0-1.662 2.025v5.065a2.08 2.08 0 0 0 1.662 2.025v3.216l-12.268 8.322v-14.72H74.824V59.64h-32.92v31.953h2.107V61.718h7.813v29.874h.818V61.718h20.073v29.874h2.109V71.539h2.27v20.053h.819V71.539h11.776v13.49h.915l-7.17 4.863v1.7h2.229v-.338h26.084l25.126-16.815-.01 1.005-11.205 7.655-.028-.111-13.214 8.604h4.043l7.837-5.102c.76 1.967 2.034 3.705 3.652 5.102h3.927c-2.877-1.463-5.062-3.956-5.84-6.968l.686-.467h22.914c-.66 3.215-2.887 5.895-5.912 7.435h3.927c2.077-1.804 3.567-4.172 4.152-6.862h7.823c.585 2.69 2.076 5.058 4.152 6.862h5.004c-3.085-2.06-5.143-5.573-5.143-9.592 0-5.696 4.162-10.522 9.623-11.372h1.08v.018c.214-.013.43-.018.647-.018 6.054 0 10.976 5.05 10.976 11.258 0 .219-.02.432-.03.648h-.192l-.126.955c-.47 3.514-2.804 6.46-6.045 8.103h3.935c2.076-1.804 3.567-4.172 4.152-6.862h39.519c.583 2.69 2.074 5.058 4.15 6.862h3.929c-3.037-1.545-5.27-4.241-5.919-7.473h23.71c-.649 3.232-2.88 5.928-5.92 7.473h3.929c2.078-1.804 3.569-4.172 4.152-6.862h3.946c.583 2.69 2.074 5.058 4.152 6.862h5.047c-3.086-2.058-5.145-5.572-5.145-9.592 0-5.696 4.159-10.522 9.621-11.372h1.08l.001.018c.214-.013.43-.018.646-.018 6.054 0 10.978 5.05 10.978 11.258 0 .219-.02.432-.033.648h-.228l-.128.954c-.47 3.515-2.804 6.46-6.046 8.104h3.935c2.077-1.804 3.568-4.172 4.154-6.862h18.668c1.185 0 1.888-.505 2.267-.93.866-.97.811-2.322.777-2.692v-2.694z" fill="#D5CFCF"/><path fill="#D5CFCF" d="M149.654 11.783h83.471v-.807h-83.47z"/></g></svg>