<?xml version="1.0" encoding="utf-8"?>
<!-- Generator: Adobe Illustrator 23.0.0, SVG Export Plug-In . SVG Version: 6.00 Build 0)  -->
<svg version="1.1" id="Слой_1" xmlns="http://www.w3.org/2000/svg" xmlns:xlink="http://www.w3.org/1999/xlink" x="0px" y="0px"
	 viewBox="0 0 1108 344" style="enable-background:new 0 0 1108 344;" xml:space="preserve">
<style type="text/css">
	.st0{fill:#B3ADAE;}
</style>
<g>
	<path class="st0" d="M673.56,216.45c1.47-1.83,2.87-3.83,3.87-6.11c0.99-2.28,1.53-4.84,1.45-7.34c-0.09-4.95-2.07-9.81-5.39-13.45
		c-1.68-1.81-3.66-3.35-5.87-4.45c-1.11-0.53-2.26-1.02-3.46-1.33c-0.59-0.2-1.2-0.29-1.81-0.42c-0.59-0.11-1.12-0.19-1.69-0.28
		c-4.47-0.71-8.94-1.24-13.37-1.89c-2.22-0.32-4.41-0.67-6.63-1.05c-2.24-0.38-4.49-0.7-6.72-1c-4.47-0.62-8.91-1.12-13.25-2.01
		c-4.42-0.91-8.89-1.37-13.42-1.31c-0.34-0.2-1.21-1.01-0.18-3.68c0.45-1.15,0.87-2.12,1.24-2.97c1-2.29,1.72-3.94,1.72-6.5
		c0-3.64-1.93-5.59-2.02-5.67c-0.19-0.19-0.42-0.3-0.73-0.29c-0.27,0.01-0.53,0.12-0.71,0.32c-0.04,0.05-4.26,4.6-8.21,5.48
		c-4.22,0.94-13.74,0.69-19.58-0.52c-4.81-1-9.91-1.44-11.96-1.59c-0.14-2.96-0.62-5.86-1.26-8.73c-0.35-1.55-0.76-3.09-1.2-4.62
		c-0.44-1.53-0.9-3.06-1.43-4.58s-1.09-3.03-1.76-4.53c-0.69-1.48-1.42-2.94-2.26-4.33c-0.84-1.4-1.76-2.75-2.77-4.02
		c-1.01-1.28-2.05-2.5-3.31-3.63l-0.03-0.03l-0.01-0.01c-0.19-0.18-0.44-0.28-0.72-0.28l-7.15,0.07c-2.36,0.04-4.73-0.1-7.11-0.23
		c-4.75-0.28-9.51-0.66-14.27-1.08s-9.51-0.89-14.26-1.38c-4.75-0.48-9.51-1.03-14.33-1.3c-4.82-0.28-9.64-0.18-14.43,0
		c-4.78,0.15-9.62,0.52-14.38,1.09c-9.32,1.1-18.54,2.68-27.73,4.52c-1.4-2.22-2.87-4.39-4.46-6.52c-0.21-0.29-0.57-0.44-0.94-0.38
		h-0.02c-5.64,0.96-11.4,1.59-17.14,1.87c-5.74,0.25-11.54,0.21-17.33,0.19l-34.76-0.19l-34.76-0.72c-2.9-0.03-5.79-0.09-8.74,0.01
		c-3,0.12-5.87,0.72-8.73,1.27c-5.44,1.11-10.8,2.45-16.16,3.87c-0.1-0.08-0.19-0.16-0.29-0.24c-1.24-0.96-2.55-1.83-3.95-2.56
		c-1.42-0.73-2.81-1.34-4.53-1.7c-0.13-0.02-0.29-0.02-0.43,0.02l-0.04,0.01h-0.01c-1.62,0.43-3.44,0.74-5.19,1.03
		c-1.77,0.29-3.55,0.53-5.33,0.76c-3.55,0.48-7.11,0.69-10.71,0.8c-7.19,0.2-14.43,0.18-21.66,0.27
		c-14.46,0.15-28.92,0.45-43.38,0.9c-14.46,0.48-28.92,1.1-43.36,2.31c-7.22,0.61-14.44,1.38-21.61,2.56
		c-3.59,0.6-7.16,1.27-10.71,2.17c-1.77,0.44-3.53,0.96-5.28,1.57c-0.87,0.31-1.74,0.64-2.6,1.05c-0.44,0.2-0.86,0.42-1.29,0.67
		c-0.21,0.13-0.42,0.25-0.64,0.41c-0.11,0.07-0.22,0.15-0.33,0.25c-0.05,0.05-0.1,0.08-0.17,0.15s-0.1,0.09-0.23,0.24
		c-0.15,0.18-0.23,0.43-0.2,0.69l0.02,0.13v0.01c0.25,2.13,0.59,4.22,1.01,6.32c0.22,1.05,0.43,2.1,0.73,3.17
		c0.3,1.08,0.64,2.1,0.98,3.1c0.69,1.98,1.36,3.95,1.77,5.81c0.09,0.46,0.17,0.91,0.19,1.32c0.02,0.21,0.02,0.4,0.01,0.57
		l-0.03,0.79c-0.03,1.12-0.03,2.16-0.04,3.23c-0.02,4.24,0.08,8.46,0.22,12.69c0.14,3.83,0.34,7.66,0.61,11.49
		c-1.39-0.21-2.78-0.36-4.18-0.44c-1.81-0.1-3.62-0.14-5.45-0.01c-1.82,0.12-3.66,0.37-5.5,0.86c-1.82,0.49-3.69,1.16-5.36,2.46
		c-0.8,0.6-1.4,1.16-2.11,1.78c-0.68,0.6-1.35,1.24-2,1.92c-1.31,1.34-2.5,2.86-3.46,4.54c-0.95,1.68-1.65,3.5-2.15,5.33
		c-0.5,1.85-0.72,3.71-0.87,5.56c-0.05,0.92-0.07,1.84-0.09,2.76c0.02,0.91,0.02,1.83,0.07,2.74c0.07,0.91,0.12,1.79,0.22,2.73
		c0.08,0.49,0.13,0.99,0.23,1.47c0.12,0.48,0.23,0.97,0.37,1.44c0.58,1.89,1.52,3.66,2.68,5.2c1.17,1.54,2.53,2.88,3.99,4.05
		c2.93,2.33,6.18,4.07,9.54,5.42c3.13,1.22,6.3,2.19,9.6,2.83l-0.08,44.86l-0.02,11.42c-0.02,3.81-0.01,7.62,0.11,11.44
		c0.22,7.63,0.62,15.24,1.14,22.85c0.03,0.55,0.51,1,1.06,0.96c0.55-0.04,0.97-0.52,0.93-1.07v-0.01
		c-0.51-7.57-0.91-15.17-1.13-22.76c-0.12-3.79-0.13-7.58-0.11-11.39l0.02-11.41l0.08-44.35c5.78,1.74,11.56,3.49,17.32,5.29
		c6.19,1.94,12.36,3.93,18.53,5.94c6.15,2.03,12.31,4.06,18.43,6.19c6.12,2.12,12.24,4.3,18.13,6.86c1.48,0.63,2.89,1.34,4.34,2
		c1.35,0.75,2.66,1.37,3.96,2.3c2.58,1.74,5,3.65,6.92,5.83c1.91,2.19,3.21,4.68,3.97,7.61c0.2,0.73,0.37,1.48,0.54,2.25
		c0.17,0.78,0.32,1.56,0.44,2.29c0.24,1.51,0.44,3.1,0.61,4.69c0.64,6.38,1.12,12.85,1.55,19.31c0.09,1.6,0.23,3.25,0.26,4.82
		l0.18,4.86c0.13,3.24,0.24,6.48,0.41,9.72c0.03,0.51,0.43,0.92,0.95,0.95c0.55,0.03,1.02-0.4,1.05-0.95
		c0.18-3.25,0.29-6.5,0.41-9.75l0.18-4.88c0.04-1.68-0.01-3.27-0.02-4.91c-0.1-6.51-0.22-13.01-0.71-19.56
		c-0.12-1.64-0.26-3.28-0.5-4.98c-0.13-0.87-0.27-1.69-0.43-2.5c-0.17-0.83-0.34-1.66-0.55-2.5c-0.42-1.68-0.99-3.4-1.81-5.03
		c-0.81-1.64-1.86-3.15-3.04-4.5c-2.37-2.7-5.21-4.73-8.11-6.43c-1.39-0.88-3.06-1.61-4.6-2.31c-1.55-0.59-3.09-1.23-4.64-1.76
		c-4.87-1.71-9.75-3.34-14.62-4.95c-0.89-0.72-1.75-1.47-2.55-2.26c-1.14-1.19-2.15-2.47-2.99-3.85c-1.69-2.75-2.65-5.86-2.8-9.01
		c-0.17-3.16,0.46-6.34,1.67-9.29c1.23-2.95,3.01-5.68,5.19-8.07c1.1-1.19,2.27-2.31,3.54-3.32c1.26-1.04,2.63-1.85,3.97-2.73
		c2.81-1.54,5.86-2.64,9.06-3.25c4.26-0.83,8.75-0.85,13.2-0.29c3.24,0.83,6.4,1.86,9.4,3.22c2.03,0.93,4.01,1.97,5.85,3.2
		c1.83,1.25,3.57,2.6,5.11,4.18c3.09,3.15,5.68,6.87,7.83,10.84c2.18,3.96,3.96,8.17,5.49,12.46c1.51,4.3,2.88,8.69,3.71,13.11
		c0.84,4.47,1.37,9.04,1.78,13.62c0.39,4.58,0.66,9.2,0.84,13.79l0.17,13.9c0.04,4.64,0.11,9.27,0.2,13.91l0.28,13.91
		c0.01,0.53,0.44,0.97,0.98,0.98c0.55,0.01,1.01-0.43,1.02-0.98l0.28-13.93c0.09-4.64,0.16-9.29,0.2-13.93l0.14-13.93
		c-0.05-4.11-0.26-8.19-0.55-12.28c2.5-1.71,5.55-5.41,8.08-10.93c0.16,0.3,0.35,0.58,0.59,0.83c1.86,2.02,5.4,1.66,9.15,1.29
		c0.45-0.05,0.9-0.09,1.35-0.13c1.33-0.12,3.16-0.45,3.63-1.88c0.32-0.99-0.19-2.01-1.03-3c6.98-0.58,29.82-2.38,48.02-2.75
		c4.95,0.59,9.98,1.86,14.83,3.35c4.87,1.54,9.68,3.26,14.39,5.27c4.73,1.99,9.4,4.13,13.95,6.42c4.55,2.29,8.94,4.86,12.95,7.87
		c2.02,1.5,3.88,3.16,5.63,4.92c0.88,0.87,1.68,1.81,2.49,2.75c0.76,0.97,1.56,1.95,2.11,2.88c1.16,1.97,1.9,4.31,2.37,6.69
		c0.48,2.39,0.69,4.86,0.68,7.33c-0.05,4.92-0.86,9.95-3.02,14.29c-1.1,2.13-2.5,4.12-4.37,5.52c-1.82,1.47-4.13,2.18-6.52,2.34
		h-0.04c-0.51,0.04-0.91,0.45-0.93,0.97c-0.02,0.55,0.42,1.01,0.97,1.03c2.27,0.07,4.65-0.41,6.73-1.5
		c10.91-0.91,21.82-1.86,32.72-2.97c2.78-0.29,5.57-0.6,8.36-0.96l2.11-0.31l2.1-0.37c1.31-0.25,2.71-0.43,4.08-0.62
		c5.51-0.73,11.06-1.35,16.61-1.96l33.34-3.56c5.48-0.6,11.08-0.98,16.66-1.56c2.8-0.29,5.59-0.6,8.41-1.06
		c1.41-0.23,2.82-0.5,4.28-0.91c1.46-0.4,3.03-1.09,4.3-2.2c0.19-0.16,0.35-0.34,0.52-0.51c0.15,0.28,0.34,0.55,0.6,0.78
		c0.48,0.44,1.06,0.65,1.55,0.76c1,0.2,1.84,0.14,2.67,0.1c0.82-0.05,1.61-0.13,2.4-0.22c3.14-0.35,6.22-0.59,9.34-0.6
		c6.43-0.14,12.73-0.71,19.04-1.35c6.3-0.65,12.59-1.4,18.88-2.23c6.29-0.85,12.55-1.71,18.87-2.99l2.39-0.59
		c0.73-0.19,1.46-0.39,2.22-0.55c1.49-0.35,3.03-0.63,4.56-0.91c3.07-0.53,6.19-0.99,9.31-1.43c3.13-0.45,6.26-0.86,9.46-1.44
		c0.8-0.15,1.63-0.33,2.47-0.55c0.1-0.03,0.21-0.06,0.32-0.08c0.04,6.97,0.21,26.33,0.99,29.2c0.12,0.45,0.52,0.74,0.96,0.74
		c0.09,0,0.18-0.01,0.26-0.04c0.53-0.15,0.85-0.69,0.7-1.23c-0.66-2.41-0.88-20.57-0.92-29.24c0.02-0.01,0.03-0.01,0.05-0.02
		c0.85-0.3,1.79-0.66,2.63-1.3c0.45-0.28,0.8-0.68,1.18-1.03c0.31-0.39,0.66-0.79,0.91-1.2c1.03-1.66,1.57-3.36,1.94-5
		c0.4-1.65,0.62-3.28,0.82-4.9c0.34-3.24,0.54-6.42,0.49-9.73c-0.08-3.28-0.51-6.61-1.6-9.81c-0.52-1.6-1.25-3.15-2.17-4.6
		c-0.47-0.72-0.99-1.41-1.58-2.05c-0.5-0.52-0.97-0.98-1.6-1.42c0.69-7.52,1.18-15.05,2.02-22.49c0.39-3.82,0.97-7.59,1.64-11.32
		c0.71-3.72,1.67-7.37,2.89-10.88c1.22-3.51,2.91-6.81,4.99-9.79c0.52-0.74,1.02-1.51,1.64-2.17c0.61-0.68,1.13-1.41,1.81-2.05
		l1.97-1.96l2.07-1.85l2.18-1.72l2.27-1.6c1.57-0.99,3.16-1.94,4.83-2.75c1.66-0.83,3.39-1.52,5.15-2.11
		c1.03-0.33,2.09-0.63,3.15-0.87l4.23,0.67c0.54,0.09,1.12,0.18,1.63,0.28c0.49,0.11,0.99,0.19,1.47,0.35
		c0.98,0.25,1.91,0.66,2.82,1.1c1.81,0.92,3.43,2.2,4.8,3.7c2.72,3.03,4.31,7.05,4.36,11.1c0.14,4.02-1.8,7.71-4.51,11.04
		c-1.34,1.65-2.88,3.32-4.4,4.76c-1.56,1.46-3.29,2.78-5.09,4.11c-1.8,1.33-3.68,2.69-5.43,4.36c-1.74,1.65-3.33,3.62-4.42,5.84
		c-2.15,4.4-2.95,9.14-3.23,13.75c-0.28,4.62-0.1,9.14-0.04,13.61c-0.01,4.48-0.12,8.99-0.17,13.48
		c-0.29,17.98-0.5,35.96-0.61,53.95v0.01c0,0.53,0.42,0.98,0.96,1c0.55,0.02,1.02-0.41,1.04-0.96c0.7-17.99,1.29-35.99,1.81-53.99
		c0.12-4.5,0.29-8.99,0.37-13.51c0.03-4.52-0.13-9.01,0.15-13.37c0.27-4.34,1.08-8.65,2.91-12.35c1.8-3.67,5.15-6.25,8.82-8.89
		c1.82-1.33,3.69-2.74,5.43-4.34C670.53,219.92,672.05,218.28,673.56,216.45z M598.81,164.46c3.44-0.77,6.85-3.72,8.39-5.21
		c0.39,0.7,0.84,1.85,0.84,3.42c0,2.14-0.58,3.48-1.55,5.7c-0.38,0.87-0.81,1.86-1.27,3.05c-0.74,1.9-0.81,3.49-0.23,4.71
		c0.21,0.44,0.48,0.78,0.75,1.02c-0.73,1.43-2.08,4.46-2.17,7.27c-0.01,0.5-0.03,1.27-0.04,2.26c-0.1,6-0.34,20.04-1.99,24.18
		c-0.87,2.19-2.46,6.37-4.13,10.79c-2.18,5.76-4.43,11.71-5.43,14.08c-0.96,2.27-1.54,3.91-1.9,5.08c-0.57-1.12-1.29-2.65-1.89-4.02
		c-0.18-0.41-0.62-0.65-1.06-0.58c-0.45,0.07-0.79,0.42-0.85,0.87c-0.03,0.21-0.57,5.35,6.32,13.04c1.57,1.76,2.17,2.64,2.39,3.07
		c-0.45,0.02-1.16-0.03-1.72-0.08c-0.7-0.05-1.5-0.11-2.31-0.11c-4.3,0-17.29-0.55-27.86-1.83c-10.91-1.32-26.43-1.18-30.86-0.99
		c-3.21,0.15-5.95,1.52-7.52,2.5c-0.42-1.42-1.32-2.87-2.09-4c-0.6-0.87-0.47-1.46,0.31-4.45c0.51-1.95,1.27-4.9,2.07-9.37
		c1.56-8.68,3.18-13.9,4.25-17.36c0.29-0.94,0.54-1.75,0.73-2.45c0.16-0.6,0.32-1.11,0.46-1.56c0.66-2.11,1.05-3.38-0.04-6.58
		c-1.19-3.45-1.31-4.51,0.33-7.02c2.19-3.34,2.96-6.08,2.35-8.36c-0.08-0.32-0.15-0.59-0.2-0.82c-0.21-0.87-0.36-1.49-1.05-1.71
		c-0.68-0.21-1.16,0.22-1.72,0.72l-0.26,0.24c-0.89,0.81-1.26,1.14-5.3,2.66c-2.92,1.1-5.57,0.04-8.65-1.19
		c-1.12-0.45-2.28-0.91-3.49-1.27c-2.03-0.61-4.35-0.94-6.8-1.29c-2.63-0.38-5.34-0.79-7.93-1.55c0.09-0.67,0.27-1.42,0.48-2.1
		c0.28-0.95,0.66-1.89,1.08-2.8c0.88-1.82,1.97-3.55,3.21-5.17c1.29-1.65,2.57-3.4,3.72-5.18c1.17-1.77,2.24-3.61,3.38-5.3
		c0.58-0.85,1.17-1.65,1.84-2.35c0.33-0.35,0.68-0.66,1.05-0.96l1.28-0.9c1.87-1.39,3.16-3.36,4.08-5.33
		c0.47-0.99,0.87-1.98,1.27-2.93c0.41-0.98,0.8-1.75,1.41-2.55c0.93-1.24,2.04-2.42,3.2-3.53c0.57,1.11,1.19,2.17,1.9,3.22
		c0.49,0.71,1.02,1.4,1.67,2.06c0.66,0.67,1.5,1.21,2.29,1.59c1.61,0.79,3.29,1.15,4.5,1.85c0.63,0.34,0.93,0.73,1.47,1.44
		c0.46,0.62,0.97,1.33,1.28,1.89l0.02,0.03c0.19,0.35,0.57,0.56,0.99,0.52c2.29-0.22,4.64-0.32,6.95-0.27
		c2.32,0.06,4.59,0.26,6.76,0.9c2.43,0.66,4.85,0.84,7.25,0.95c2.34,0.09,4.64,0.06,6.98-0.08c0.03,0,0.05,0.02,0.08,0.02
		c0.07,0,6.67,0.38,12.59,1.61C584.55,165.22,594.29,165.46,598.81,164.46z M591.32,243.6c0.04-0.07,0.08-0.14,0.1-0.22
		c-0.01,0.03-0.03,0.09-0.11,0.26C591.31,243.63,591.31,243.61,591.32,243.6z M475.77,250.49l-0.79-0.26
		c-0.33-0.11-0.7-0.21-1.06-0.32c-0.37-0.1-0.81-0.19-1.18-0.25c-2.95-0.41-5.71-0.47-8.54-0.57c-2.81-0.08-5.62-0.11-8.42-0.11
		c-2.8,0.01-5.61,0.02-8.41,0.1c-1.39,0.04-2.8,0.07-4.27,0.21c-1.46,0.15-2.94,0.34-4.5,1.08c-0.38,0.2-0.77,0.45-1.12,0.77
		c-0.35,0.31-0.64,0.71-0.73,0.79c0,0,0,0,0,0c-0.02,0-0.04,0.01-0.09,0c-0.17,0.01-0.48-0.07-0.65-0.13
		c-0.36-0.16-0.46-0.26-0.56-0.69c-0.08-0.43-0.02-1.04,0.11-1.65c0.13-0.6,0.32-1.31,0.53-1.8c0.22-0.51,0.49-0.89,0.91-1.18
		c0.84-0.6,2.33-0.96,3.66-1.6c0.49-0.23,0.72-0.8,0.51-1.31v-0.01l-0.01-0.02c-0.53-1.22-0.79-2.43-0.92-3.79
		c-0.12-1.35-0.19-2.76-0.26-4.16c-0.08-1.43-0.13-2.73,0.01-4.04c0.12-1.3,0.46-2.51,0.94-3.79c0.48-1.28,1.03-2.66,1.45-4.06
		c0.38-1.17,0.98-2.37,1.65-3.55c0.68-1.18,1.43-2.35,2.19-3.54c0.38-0.6,0.77-1.2,1.14-1.84c0.38-0.64,0.75-1.29,1.06-2.15
		l0.11-0.33l0.09-0.42c0.07-0.32,0.06-0.47,0.08-0.67l0.06-1.04c0.05-0.64,0.14-1.15,0.34-1.6c0.38-0.9,1.24-1.72,2.27-2.44
		l0.83-0.54c0.33-0.22,0.66-0.42,0.99-0.69c0.33-0.24,0.67-0.54,1.01-0.94c0.32-0.38,0.75-1,0.79-1.9c0.01-0.47-0.11-0.88-0.28-1.24
		c-0.09-0.15-0.18-0.3-0.27-0.44c-0.09-0.12-0.18-0.22-0.27-0.33c-0.35-0.38-0.66-0.63-0.89-0.85c-0.23-0.21-0.37-0.37-0.41-0.44
		c-0.09-0.14-0.11-0.23-0.11-0.29c-0.02-0.08,0.05-0.36,0.39-0.74c0.16-0.19,0.36-0.38,0.58-0.57c0.22-0.19,0.44-0.35,0.79-0.63
		c0.64-0.52,1.35-1.23,1.78-2.16c0.43-0.92,0.58-1.89,0.58-2.73c0.01-0.86-0.09-1.64-0.22-2.4c-0.06-0.39-0.14-0.75-0.22-1.12
		c-0.07-0.34-0.14-0.63-0.17-0.89c-0.01-0.06-0.02-0.13-0.02-0.19l0.11-0.08c0.21-0.15,0.43-0.35,0.64-0.58
		c0.19-0.22,0.36-0.47,0.5-0.7c0.26-0.48,0.41-0.92,0.55-1.35c0.06-0.23,0.1-0.46,0.15-0.7c0.8-0.19,2.07-0.14,3.61,1.14
		c3.51,2.93,6.36,4.12,9.86,4.12c0.82,0,2.36-0.11,4.32-0.26c5.94-0.44,15.87-1.16,19.79,0.2c0.1,0.04,0.2,0.06,0.3,0.1
		c0.09,0.05,0.19,0.07,0.29,0.09c2.95,0.95,5.99,1.39,8.93,1.81c2.38,0.34,4.63,0.66,6.51,1.23c1.13,0.34,2.25,0.78,3.33,1.21
		c3.17,1.26,6.45,2.57,10.09,1.2c3.99-1.5,4.73-1.97,5.79-2.91c0.03,0.14,0.07,0.29,0.11,0.45c0.45,1.68-0.26,3.95-2.09,6.76
		c-2.13,3.25-1.82,5.08-0.55,8.76c0.88,2.58,0.63,3.39,0.02,5.34c-0.15,0.48-0.31,1.01-0.48,1.63c-0.19,0.68-0.43,1.46-0.72,2.38
		c-1.08,3.5-2.72,8.8-4.31,17.59c-0.79,4.39-1.51,7.18-2.04,9.22c-0.81,3.13-1.15,4.43-0.02,6.08c1.72,2.52,2.02,3.83,1.97,4.49
		c-0.01,0.04-0.01,0.08-0.01,0.12c-0.01,0.08-0.02,0.15-0.04,0.2c-0.06,0.19-0.21,0.47-0.78,0.68c-3.19,1.18-14.23,2.98-20.21,0.04
		C496.45,252.65,481.48,251.03,475.77,250.49z M466.39,124.79c4.74-0.57,9.44-0.94,14.22-1.08c4.77-0.18,9.52-0.28,14.25-0.01
		c4.72,0.27,9.47,0.82,14.23,1.3c4.76,0.49,9.52,0.96,14.29,1.38s9.54,0.8,14.33,1.08c2.4,0.13,4.81,0.27,7.23,0.24l6.69-0.07
		c1.79,2.25,3.33,4.82,4.66,7.41c1.38,2.72,2.44,5.53,3.35,8.49c1.75,5.52,2.91,11.26,4.86,16.82c-1.9,0.08-3.81,0.12-5.7,0.04
		c-2.31-0.1-4.65-0.29-6.78-0.88c-2.38-0.7-4.86-0.91-7.26-0.97c-2.2-0.04-4.38,0.05-6.57,0.25c-0.37-0.59-0.73-1.07-1.13-1.61
		c-0.28-0.35-0.46-0.63-0.86-1.05c-0.37-0.37-0.78-0.68-1.19-0.91c-1.67-0.93-3.29-1.23-4.63-1.92c-0.69-0.34-1.26-0.7-1.75-1.21
		c-0.51-0.52-0.99-1.14-1.43-1.78c-0.88-1.29-1.67-2.73-2.34-4.15l-0.02-0.03c-0.04-0.08-0.1-0.16-0.16-0.23
		c-0.36-0.4-0.98-0.43-1.39-0.07c-1.62,1.46-3.12,2.97-4.46,4.75c-0.68,0.87-1.25,1.98-1.64,2.95c-0.42,0.98-0.81,1.94-1.24,2.85
		c-0.86,1.82-1.96,3.46-3.48,4.6l-1.3,0.92c-0.45,0.36-0.88,0.75-1.27,1.16c-0.79,0.83-1.44,1.72-2.05,2.61
		c-1.21,1.79-2.26,3.59-3.4,5.33c-1.14,1.75-2.34,3.39-3.63,5.06c-1.32,1.72-2.48,3.56-3.43,5.53c-0.46,1-0.87,2.02-1.19,3.08
		c-0.2,0.69-0.36,1.35-0.48,2.07c-4.64-1.21-14.1-0.52-19.88-0.1c-1.91,0.14-3.42,0.25-4.17,0.25c-2.98,0-5.47-1.06-8.58-3.66
		c-1.7-1.41-3.31-1.77-4.61-1.67c0.15-2.23-0.15-4.39-0.54-6.39c-0.55-2.86-1.3-5.62-2.09-8.36c-1.58-5.48-3.52-10.81-5.62-16.08
		c-2.16-5.23-4.36-10.48-7.11-15.5c-1.13-2.06-2.32-4.09-3.55-6.09C448.44,127.37,457.41,125.85,466.39,124.79z M311.92,124.69
		c2.81-0.56,5.65-1.17,8.44-1.29c2.85-0.12,5.75-0.09,8.64-0.07l34.7,0.75c5.81,0.1,11.61,0.03,17.39,0.1l17.38,0.19
		c5.8,0.05,11.59,0.12,17.43-0.1c5.63-0.25,11.2-0.82,16.78-1.72c3.14,4.33,5.93,9.02,8.27,13.85c1.23,2.51,2.31,5.05,3.33,7.66
		c1.03,2.6,2.02,5.23,2.95,7.87c1.9,5.28,3.73,10.58,5.34,15.91c0.79,2.67,1.53,5.35,2.06,8.03l0.35,2
		c0.07,0.65,0.16,1.32,0.19,1.95c0.07,1.18-0.06,2.63-0.32,3.67l-0.12,0.35c-0.04,0.11-0.09,0.17-0.12,0.26
		c-0.1,0.13-0.1,0.18-0.25,0.28l-0.18,0.13l-0.34,0.26c-0.16,0.15-0.33,0.32-0.46,0.52c-0.12,0.21-0.26,0.46-0.31,0.66
		c-0.05,0.19-0.09,0.38-0.12,0.58c-0.01,0.16-0.01,0.29-0.01,0.44c-0.01,0.31,0.04,0.49,0.06,0.73c0.06,0.44,0.16,0.83,0.23,1.18
		c0.06,0.32,0.14,0.65,0.19,0.96c0.11,0.63,0.19,1.26,0.18,1.81c-0.03,1.16-0.27,1.69-1.16,2.44c-0.19,0.16-0.54,0.42-0.85,0.69
		c-0.31,0.27-0.62,0.56-0.92,0.92s-0.59,0.76-0.82,1.28c-0.23,0.51-0.37,1.16-0.31,1.81c0.06,0.65,0.3,1.23,0.59,1.68
		c0.34,0.52,0.71,0.86,1,1.12c0.24,0.21,0.42,0.37,0.56,0.5c-0.11,0.13-0.27,0.28-0.47,0.43c-0.21,0.18-0.48,0.35-0.74,0.53
		l-0.93,0.63c-1.24,0.9-2.55,2.07-3.26,3.8c-0.35,0.84-0.48,1.75-0.52,2.52l-0.05,1.08c-0.01,0.16-0.02,0.36-0.04,0.38
		c0,0.03-0.01,0.06-0.01,0.1l-0.06,0.17c-0.16,0.47-0.46,1.07-0.79,1.65c-0.32,0.58-0.69,1.17-1.05,1.77
		c-0.73,1.19-1.49,2.41-2.19,3.69c-0.69,1.28-1.36,2.62-1.8,4.15c-0.35,1.31-0.81,2.57-1.29,3.94c-0.48,1.38-0.87,2.92-0.96,4.43
		c-0.12,1.5,0,3.02,0.11,4.4c0.11,1.41,0.21,2.82,0.41,4.27c0.14,1.12,0.42,2.3,0.84,3.41c-0.32,0.12-0.64,0.23-0.98,0.35
		c-0.66,0.24-1.4,0.48-2.14,0.98c-0.75,0.48-1.34,1.27-1.68,2.03c0,0.01-0.01,0.02-0.01,0.03c-7.99,0.12-44.99,2.97-60.32,4.46
		l-1.02,0.1c-16.02,1.56-34.15,3.32-55.06,3.8c0.51-2.55,1.05-5.09,1.6-7.63l1-4.38l0.52-2.2c0.14-0.77,0.34-1.57,0.42-2.33
		c0.44-3.07,0.62-6.1,0.77-9.13c0.15-3.03,0.21-6.06,0.25-9.08c0.04-12.1-0.47-24.15-1.85-36.22c-0.78-6.06-1.91-12.07-3.55-17.94
		c-0.79-2.94-1.71-5.84-2.69-8.73c-1.02-2.87-2.11-5.72-3.35-8.51c-1.22-2.8-2.54-5.56-4.05-8.23c-1.51-2.67-3.12-5.3-5.05-7.74
		c-1.35-1.71-2.84-3.31-4.46-4.78C302.11,126.97,307,125.74,311.92,124.69z M179.52,211.49c-3.26,1.86-6.13,4.17-8.59,6.95
		c-2.48,2.74-4.45,5.96-5.79,9.45c-1.35,3.49-1.91,7.32-1.54,11.07c0.39,3.75,1.75,7.42,3.98,10.39c0.66,0.9,1.4,1.74,2.17,2.54
		c-5.54-1.78-11.1-3.52-16.67-5.22c-6.22-1.89-12.44-3.76-18.67-5.58l-18.69-5.51c-0.07-0.02-0.13-0.01-0.2-0.02
		c-3.25-0.9-6.51-2.07-9.57-3.51c-3.1-1.47-6.09-3.18-8.6-5.36c-2.5-2.17-4.5-4.83-5.35-7.81c-0.1-0.38-0.17-0.76-0.26-1.13
		c-0.08-0.38-0.1-0.77-0.16-1.15c-0.07-0.81-0.1-1.7-0.16-2.54c-0.04-0.85-0.03-1.7-0.05-2.55c0.02-0.84,0.05-1.68,0.1-2.52
		c0.27-3.34,1-6.56,2.55-9.36c0.78-1.39,1.77-2.68,2.88-3.9c1.1-1.19,2.4-2.42,3.66-3.46c1.08-0.96,2.57-1.61,4.11-2.1
		c1.55-0.5,3.21-0.82,4.9-1.01c3.35-0.44,6.85-0.45,10.25-0.26c8.83,2.78,17.7,5.37,26.61,7.87c8.97,2.5,17.92,4.84,26.88,7.29
		l13.45,3.62l2.1,0.54C185.63,208.82,182.45,209.9,179.52,211.49z M265.61,262.85c-0.46,0.04-0.92,0.09-1.37,0.13
		c-3.1,0.31-6.3,0.63-7.48-0.65c-0.6-0.65-0.75-1.83-0.44-3.5c0.09-0.51-0.22-1.01-0.72-1.15c-0.5-0.14-1.03,0.14-1.2,0.63
		c-2.32,6.46-5.42,10.91-7.96,13.1c-0.37-4.45-0.87-8.89-1.67-13.34c-0.86-4.71-2.23-9.22-3.77-13.68
		c-1.61-4.44-3.47-8.8-5.78-12.97c-1.14-2.09-2.4-4.12-3.81-6.07c-1.38-1.97-2.97-3.81-4.67-5.54c-1.71-1.74-3.65-3.24-5.66-4.6
		c-2.02-1.34-4.17-2.46-6.36-3.45c-4.39-1.96-9.01-3.25-13.62-4.21l-3.44-0.68c-1.13-0.22-2.21-0.45-3.34-0.72l-6.73-1.65
		l-13.48-3.44l-26.97-6.88c-3.1-0.8-6.2-1.63-9.29-2.46c0-1.66-0.11-4.94-0.96-7.58c-0.96-3.02-0.75-4.38-0.5-4.67
		c0.04-0.05,0.15-0.06,0.31-0.04c7.88,1.15,12.23,5.24,14.5,8.47c0.31,0.44,0.9,0.56,1.35,0.27c0.45-0.28,0.6-0.87,0.34-1.34
		c-0.86-1.54-2.47-4.41-2.33-4.97c0.01-0.01,0.19-0.13,0.94-0.13c2.38,0,3.88-1.34,4.98-2.31c0.39-0.34,0.78-0.7,1.03-0.8
		c0.94-0.39,3.88-0.29,5.6,2.23c0.19,0.29,0.52,0.46,0.87,0.43c0.34-0.01,0.66-0.21,0.83-0.5c0.71-1.25,1.07-2.14,1.34-2.79
		c0.58-1.43,0.59-1.46,4.53-2.68c3.67-1.14,5.04-2.35,6.14-3.32c0.74-0.65,1.33-1.17,2.55-1.58c1.17-0.39,1.84-0.5,2.44-0.61
		c1.18-0.2,1.95-0.38,4.01-1.72c3.46-2.24,7.28-6.39,8.52-9.25c0.45-1.03,1.07-1.47,1.46-1.43c0.4,0.03,0.77,0.52,0.96,1.27
		c0.23,0.92,0.63,1.51,0.96,1.99c0.65,0.96,1.27,1.86-0.35,6.95c-0.14,0.43,0.03,0.89,0.4,1.14c2.04,1.34,6.62,5.63,12.96,11.57
		c2.82,2.64,6,5.62,9.5,8.85c1.07,0.99,2.1,1.93,3.08,2.83c9.62,8.8,14.92,13.64,18.87,25.35l1.26,3.75
		c3.87,11.52,7.21,21.48,9.88,25.79c2.85,4.6,8,9.23,10.47,11.45l0.85,0.76c0.81,0.71,2.97,2.61,2.9,3.24
		C267.52,262.34,267.24,262.71,265.61,262.85z M266.53,258.12c-0.2-0.17-0.39-0.35-0.58-0.52l-0.83-0.74
		c-2.41-2.16-7.41-6.66-10.11-11.01c-2.55-4.11-5.86-13.96-9.68-25.37l-1.26-3.75c-4.11-12.2-9.87-17.46-19.41-26.19
		c-0.98-0.9-2.01-1.83-3.08-2.82c-3.5-3.22-6.67-6.2-9.49-8.84c-6.07-5.69-10.26-9.61-12.61-11.34c1.51-5.02,0.93-6.44-0.12-7.98
		c-0.28-0.42-0.53-0.77-0.67-1.35c-0.41-1.63-1.43-2.67-2.73-2.78c-1.37-0.11-2.7,0.89-3.46,2.62c-1.09,2.51-4.65,6.34-7.78,8.37
		c-1.82,1.18-2.33,1.27-3.26,1.43c-0.63,0.11-1.42,0.24-2.73,0.68c-1.6,0.53-2.43,1.27-3.24,1.97c-1.01,0.89-2.15,1.9-5.41,2.91
		c-4.48,1.39-4.91,1.67-5.79,3.83c-0.15,0.36-0.32,0.78-0.55,1.28c-2.36-2.27-5.58-2.32-6.99-1.74c-0.56,0.23-1.07,0.68-1.6,1.16
		c-0.95,0.85-2.03,1.81-3.65,1.81c-0.86,0-2.07,0.11-2.63,1.08c-0.24,0.42-0.32,0.89-0.24,1.45c-2.73-2.17-6.5-4.08-11.63-4.83
		c-0.87-0.13-1.63,0.13-2.13,0.72c-0.95,1.12-0.91,3.33,0.12,6.57c0.68,2.12,0.83,4.8,0.85,6.44c-4.94-1.33-9.86-2.68-14.78-4.06
		c0.23-3.98,0.39-7.94,0.49-11.91c0.11-4.22,0.18-8.44,0.22-12.65c0.02-1.04,0.03-2.11,0.07-3.1l0.03-0.79
		c0.01-0.36,0-0.69-0.03-1.01c-0.06-0.65-0.17-1.23-0.29-1.81c-0.51-2.26-1.33-4.26-2.11-6.24c-0.4-0.99-0.81-1.94-1.14-2.87
		c-0.33-0.94-0.66-1.94-0.97-2.93c-0.57-1.81-1.13-3.65-1.73-5.47c0.14-0.1,0.29-0.19,0.44-0.28c0.35-0.2,0.73-0.4,1.12-0.58
		c0.77-0.37,1.59-0.68,2.42-0.98c1.67-0.58,3.37-1.09,5.11-1.51c3.46-0.87,7-1.54,10.54-2.13c7.09-1.16,14.26-1.93,21.45-2.54
		c14.38-1.2,28.81-1.83,43.25-2.3c14.44-0.45,28.89-0.75,43.34-0.9c7.22-0.09,14.44-0.07,21.7-0.27c3.62-0.11,7.29-0.33,10.9-0.82
		c1.8-0.23,3.6-0.48,5.4-0.77c1.71-0.29,3.38-0.57,5.15-1.02c1.17,0.34,2.47,0.97,3.62,1.67c1.23,0.73,2.4,1.57,3.49,2.51
		c2.2,1.86,4.15,4.04,5.84,6.4c3.38,4.74,6.03,10.07,8.24,15.55c4.39,10.99,7.39,22.59,8.84,34.31c0.66,5.91,1.15,11.87,1.48,17.84
		c0.36,5.97,0.59,11.95,0.71,17.93c0.05,2.98,0.1,5.97,0.04,8.95c-0.04,2.97-0.13,5.96-0.45,8.85c-0.05,0.73-0.19,1.41-0.28,2.12
		l-0.4,2.22l-0.77,4.46c-0.46,2.71-0.86,5.43-1.2,8.17C295.44,255.69,270.11,257.81,266.53,258.12z M509.5,308.49
		c-0.85,0.73-1.89,1.23-3.11,1.57c-1.23,0.35-2.57,0.61-3.91,0.83c-2.69,0.44-5.45,0.76-8.21,1.05c-5.53,0.59-11.08,0.99-16.7,1.62
		l-33.3,3.8c-5.55,0.66-11.1,1.33-16.66,2.11c-1.39,0.2-2.77,0.39-4.2,0.67l-2.03,0.37l-2.04,0.31c-2.74,0.39-5.5,0.74-8.27,1.07
		c-9.71,1.15-19.46,2.16-29.2,3.12c1.43-1.35,2.6-2.96,3.53-4.64c1.33-2.41,2.22-5,2.86-7.62c0.64-2.62,0.96-5.31,1.02-8
		c0.06-2.69-0.08-5.39-0.61-8.07c-0.51-2.67-1.31-5.34-2.75-7.85c-0.76-1.3-1.63-2.3-2.46-3.36c-0.89-1.02-1.77-2.03-2.73-2.97
		c-1.9-1.89-3.92-3.65-6.06-5.22c-8.59-6.3-18.23-10.5-27.86-14.32c-4.85-1.91-9.78-3.63-14.83-4.96c-1.53-0.4-3.06-0.78-4.59-1.12
		c16.96-0.71,32-2.17,45.54-3.49l1.02-0.1c16.3-1.59,50.66-4.22,59.47-4.44c-0.01,0.05-0.03,0.1-0.04,0.16
		c-0.17,0.75-0.32,1.55-0.18,2.51c0.08,0.48,0.26,1.01,0.61,1.47c0.36,0.46,0.84,0.77,1.3,0.97c0.49,0.18,0.86,0.29,1.39,0.32
		c0.22,0.03,0.58,0.01,0.91-0.08c0.36-0.09,0.72-0.33,0.92-0.53c0.4-0.4,0.51-0.58,0.7-0.73c0.17-0.15,0.38-0.27,0.61-0.39
		c0.99-0.44,2.32-0.64,3.64-0.73c1.32-0.09,2.7-0.09,4.1-0.1c2.78-0.01,5.57-0.01,8.35,0.03c2.79,0.04,5.57,0.1,8.34,0.22
		c2.75,0.13,5.58,0.25,8.16,0.65c0.32,0.06,0.56,0.11,0.87,0.19c0.31,0.1,0.61,0.19,0.94,0.3l1.94,0.68c1.3,0.47,2.6,0.96,3.89,1.46
		c2.59,1,5.16,2.03,7.71,3.12c2.54,1.09,5.07,2.23,7.47,3.49c0.61,0.31,1.19,0.64,1.75,0.98c0.29,0.17,0.54,0.35,0.8,0.52
		c0.25,0.16,0.52,0.35,0.81,0.57c1.12,0.84,2.23,1.66,3.31,2.5c4.31,3.34,8.21,7.21,10.33,11.97c1.05,2.36,1.7,4.96,2.04,7.61
		c0.36,2.65,0.43,5.36,0.26,8.04c-0.09,1.34-0.24,2.67-0.49,3.95c-0.13,0.64-0.28,1.27-0.47,1.83l-0.34,0.93
		c-0.15,0.37-0.25,0.71-0.37,1.07C511.84,304.61,511.24,307.08,509.5,308.49z M619.91,262.32c0.6,1.33,1.05,2.73,1.39,4.17
		c0.68,2.88,1,5.89,1.05,8.92c0.06,3.02-0.11,6.16-0.42,9.21c-0.19,1.51-0.38,3.03-0.72,4.45c-0.3,1.44-0.78,2.79-1.41,3.82
		c-0.15,0.26-0.34,0.46-0.51,0.69c-0.21,0.17-0.37,0.4-0.61,0.53c-0.42,0.33-0.97,0.55-1.61,0.78c-0.63,0.22-1.4,0.41-2.18,0.63
		c-0.69,0.19-1.41,0.34-2.16,0.49c-3.02,0.56-6.16,1-9.29,1.46c-3.13,0.46-6.27,0.93-9.42,1.5c-1.57,0.3-3.15,0.6-4.73,0.97
		c-0.79,0.17-1.59,0.39-2.38,0.6l-2.21,0.55c-6.06,1.32-12.33,2.29-18.55,3.23c-6.23,0.92-12.49,1.76-18.75,2.51
		c-6.26,0.72-12.55,1.5-18.76,1.78c-3.2,0.09-6.43,0.42-9.56,0.86c-0.78,0.1-1.56,0.21-2.31,0.29c-0.74,0.07-1.5,0.12-2.05,0.02
		c-0.57-0.13-0.68-0.22-0.89-0.74c-0.07-0.21-0.11-0.47-0.14-0.74c0.27-0.47,0.52-0.95,0.71-1.43c0.61-1.44,0.95-2.84,1.36-4.11
		c0.11-0.3,0.2-0.63,0.32-0.91l0.38-1.04c0.26-0.76,0.43-1.5,0.58-2.23c0.29-1.46,0.45-2.91,0.56-4.36
		c0.19-2.89,0.12-5.79-0.26-8.68c-0.36-2.89-1.06-5.78-2.29-8.52c-2.49-5.51-6.86-9.7-11.34-13.15c-1.13-0.87-2.27-1.7-3.39-2.53
		c-0.52-0.4-1.25-0.89-1.86-1.25c-0.64-0.38-1.27-0.74-1.91-1.06c-2.55-1.33-5.12-2.47-7.72-3.57c-1.69-0.71-3.38-1.4-5.08-2.06
		c6.36,0.82,13.91,2.08,17.27,3.73c2.77,1.36,6.25,1.82,9.63,1.82c5.36,0,10.48-1.17,12.15-1.78c1.28-0.47,1.79-1.32,1.99-1.95
		c0.02-0.07,0.02-0.15,0.04-0.23c0.9-0.66,3.9-2.66,7.48-2.83c4.38-0.2,19.74-0.33,30.52,0.97c10.65,1.29,23.76,1.85,28.1,1.85
		c0.74,0,1.5,0.06,2.16,0.11c1.83,0.14,3.28,0.25,3.84-0.89c0.53-1.08-0.19-2.45-2.86-5.44c-0.4-0.45-0.77-0.88-1.11-1.3
		c0.95,0.62,1.92,1.19,2.92,1.69c2.43,1.24,5,2.26,7.42,3.25c2.45,0.99,4.86,2.06,7.23,3.17c1.18,0.57,2.35,1.15,3.48,1.77
		c1.11,0.62,2.32,1.17,3.58,1.37l0.07,0.05c0.01,0.01,0.03,0.01,0.04,0.01c0.37,0.4,0.85,1.04,1.21,1.63
		C619.28,261.02,619.63,261.64,619.91,262.32z M646.24,185.79c-3.76,1.46-7.29,3.51-10.46,6l-2.32,1.93
		c-0.75,0.67-1.47,1.38-2.19,2.08c-0.73,0.68-1.37,1.51-2.06,2.27c-0.71,0.75-1.29,1.59-1.88,2.43c-2.34,3.35-4.16,7.04-5.45,10.84
		c-1.31,3.8-2.18,7.69-2.85,11.58c-0.62,3.89-1.02,7.8-1.29,11.69c-0.45,6.94-0.52,13.85-0.52,20.75c-0.5-0.4-1.04-0.74-1.59-1.04
		c-1.21-0.65-2.44-1.24-3.67-1.82c-2.46-1.15-4.98-2.14-7.5-3.09c-2.57-0.91-5-1.75-7.41-2.77c-1.19-0.51-2.38-1.03-3.46-1.66
		c-0.55-0.31-1.04-0.65-1.49-1l-0.3-0.26l-0.24-0.25l-0.12-0.17c0-0.01,0,0,0,0l0.07-0.27c0.25-0.94,0.77-2.88,2.3-6.53
		c1.01-2.4,3.27-8.37,5.45-14.15c1.67-4.42,3.25-8.59,4.12-10.76c1.58-3.95,1.97-14.8,2.14-24.89c0.02-0.97,0.03-1.74,0.04-2.23
		c0.08-2.54,1.44-5.44,2.05-6.62c4.2,0.19,8.43,0.76,12.53,1.77c4.45,1.07,8.94,1.78,13.37,2.46c2.22,0.35,4.43,0.71,6.61,1.13
		c2.2,0.43,4.45,0.84,6.67,1.21l2.31,0.37C648.13,185.07,647.17,185.4,646.24,185.79z"/>
	<path class="st0" d="M513.85,237.78c0.34-0.15,0.68-0.3,1.04-0.48c0.19-0.09,0.36-0.18,0.59-0.31l0.19-0.12
		c0.08-0.06,0.13-0.08,0.32-0.25l0.11-0.11c0.05-0.05,0.25-0.31,0.33-0.5c0.05-0.28,0.24-0.17,0.11-1.19
		c-0.34-0.99-0.97-1.17-0.98-1.17c-0.17-0.08-0.36-0.14-0.54-0.16c-0.21-0.02-0.08,0-0.14-0.01h-0.09c-0.49-0.02-0.82,0-1.2,0
		l-1.08,0.03l-8.49,0.29c-0.75,0.02-1.5,0.02-2.25,0.03c0.26-0.1,0.51-0.2,0.78-0.3l7.98-2.97c1.34-0.52,2.66-1.02,4.05-1.66
		c0.36-0.17,0.69-0.32,1.16-0.63c0.12-0.09,0.27-0.18,0.51-0.44c0.09-0.11,0.17-0.22,0.24-0.34c0.1-0.18,0.22-0.59,0.21-0.85
		c-0.01-0.22-0.06-0.46-0.15-0.68c-0.05-0.11-0.1-0.21-0.16-0.3c-0.04-0.06-0.08-0.11-0.13-0.16c-0.46-0.48-0.65-0.48-0.89-0.6
		c-0.15-0.05-0.36-0.11-0.47-0.13c-0.53-0.1-0.91-0.12-1.31-0.14c-0.4-0.02-0.77-0.02-1.14-0.02c-1.92,0.02-3.79,0.13-5.62,0.19
		c0.27-0.11,0.54-0.23,0.81-0.34l7.89-3.16c0.66-0.28,1.32-0.56,1.99-0.86c0.34-0.15,0.67-0.31,1.02-0.49
		c0.18-0.09,0.36-0.19,0.56-0.32c0.11-0.07,0.21-0.13,0.39-0.29c0.07-0.08,0.21-0.16,0.38-0.55c0.05-0.14,0.08-0.29,0.08-0.43
		c0-0.15-0.05-0.4-0.15-0.58c-0.13-0.23-0.19-0.26-0.21-0.28l-0.12-0.1c-0.07-0.06-0.19-0.13-0.24-0.16l-0.16-0.07
		c-0.12-0.05-0.2-0.07-0.27-0.09c-0.17-0.05-0.28-0.06-0.41-0.08c-0.24-0.03-0.45-0.04-0.65-0.04c-0.4-0.01-0.77,0.01-1.14,0.03
		c-0.74,0.04-1.46,0.12-2.17,0.19l-0.69,0.08l0.75-0.49l7.17-4.55c0.29-0.18,0.39-0.56,0.27-0.82c-0.18-0.31-0.57-0.42-0.88-0.25
		c-2.48,1.37-4.97,2.73-7.43,4.16l-1.84,1.08l-0.92,0.56l-0.47,0.3l-0.24,0.16l-0.32,0.25c0-0.01-0.06,0.06-0.13,0.15
		c-0.06,0.08-0.11,0.18-0.15,0.27c-0.03,0.05-0.09,0.22-0.05,0.5c0.02,0.24,0.21,0.52,0.28,0.57c0.11,0.11,0.29,0.21,0.42,0.26
		l0.17,0.05c0.22,0.04,0.32,0.04,0.44,0.05c0.23,0.02,0.42,0.01,0.61,0.01l1.1-0.05l1.14-0.08l-6.99,2.55
		c-1.34,0.51-2.67,1.01-4.04,1.64c-0.35,0.17-0.69,0.34-1.07,0.56c-0.2,0.12-0.39,0.23-0.67,0.48c-0.1,0.09-0.14,0.12-0.26,0.28
		c-0.05,0.07-0.1,0.14-0.15,0.22c-0.07,0.14-0.13,0.29-0.17,0.44c-0.05,0.17-0.06,0.5,0,0.73c0.06,0.24,0.19,0.49,0.35,0.68
		c0.11,0.12,0.23,0.22,0.36,0.31c0.14,0.09,0.17,0.09,0.26,0.14c0.2,0.09,0.23,0.09,0.3,0.11l0.2,0.06
		c0.13,0.03,0.23,0.05,0.35,0.07c0.22,0.04,0.43,0.07,0.63,0.09c0.41,0.04,0.78,0.06,1.16,0.08c1.58,0.05,3.11,0.02,4.62-0.01
		l-7.14,2.56c-1.34,0.49-2.68,0.98-4.03,1.52c-0.68,0.27-1.35,0.55-2.06,0.89c-0.37,0.19-0.69,0.32-1.23,0.72
		c-0.09,0.07-0.13,0.09-0.26,0.22l-0.16,0.17c-0.07,0.08-0.17,0.23-0.23,0.35c-0.05,0.06-0.19,0.44-0.21,0.72
		c-0.05,0.24,0.04,0.75,0.24,1.08c0.17,0.3,0.32,0.42,0.54,0.59c0.14,0.1,0.1,0.07,0.14,0.09l0.07,0.03
		c0.18,0.08,0.38,0.16,0.57,0.22l0.29,0.09c0.07,0.02,0.11,0.02,0.17,0.03c0.43,0.06,0.88,0.13,1.24,0.14
		c0.39,0.03,0.77,0.05,1.13,0.06c0.74,0.03,1.47,0.03,2.19,0.04c1.44,0,2.87-0.01,4.3-0.05l1.71-0.05
		c-4.33,1.58-8.73,3.02-13.17,4.22c-2.7,0.74-5.42,1.38-8.17,1.87c-2.74,0.48-5.52,0.83-8.3,0.75h-0.01
		c-0.24-0.01-0.46,0.16-0.5,0.4c-0.05,0.26,0.12,0.52,0.39,0.57c2.86,0.52,5.79,0.51,8.66,0.29c2.88-0.22,5.73-0.67,8.55-1.23
		c5.63-1.15,11.14-2.75,16.54-4.73C511.16,238.89,512.5,238.37,513.85,237.78z M502.38,224.71
		C502.37,224.71,502.34,224.69,502.38,224.71L502.38,224.71z M495.79,233.68c0.01,0,0.03,0,0.04,0c0,0,0,0,0.01,0.01L495.79,233.68z
		"/>
	<path class="st0" d="M568.29,228.65c0.15,0.12,0.24,0.17,0.37,0.24c0.15,0.07,0.18,0.07,0.25,0.1l0.06,0.02
		c-1.21,0.2-2.42,0.4-3.63,0.62c-1.38,0.25-2.75,0.52-4.15,0.87c-0.71,0.19-1.4,0.37-2.19,0.69c-0.2,0.08-0.41,0.17-0.65,0.31
		c-0.24,0.17-0.52,0.25-0.94,0.87c-0.21,0.27-0.38,0.99-0.19,1.5c0.04,0.12,0.09,0.24,0.15,0.35c0.06,0.09,0.1,0.15,0.16,0.23
		c0.04,0.06,0.13,0.17,0.15,0.18l0.08,0.07c0.21,0.18,0.44,0.39,0.65,0.52c1.67,0.96,3.08,1.13,4.53,1.38
		c1.44,0.21,2.85,0.32,4.26,0.4c1.41,0.08,2.81,0.11,4.21,0.11c0.04,0,0.08,0,0.12,0c-0.22,0.07-0.44,0.14-0.67,0.21
		c-1.26,0.36-2.58,0.65-3.91,0.93c-2.67,0.56-5.35,0.98-8.13,1.54c-0.36,0.08-0.7,0.15-1.13,0.28c-0.09,0.02-0.24,0.08-0.4,0.15
		c-0.07,0.04-0.14,0.08-0.21,0.12c-0.04,0.04-0.12,0.04-0.38,0.36c-0.14,0.25-0.37,0.5-0.16,1.24c0.38,0.7,0.38,0.48,0.53,0.65
		c0.36,0.2,0.29,0.13,0.38,0.17l0.18,0.06c0.13,0.04,0.21,0.06,0.31,0.08c0.75,0.18,1.43,0.3,2.12,0.42
		c1.38,0.24,2.75,0.44,4.13,0.63c0.62,0.08,1.23,0.16,1.85,0.23c-1.17,0.12-2.35,0.21-3.55,0.28l-16.48,1.09h-0.03
		c-0.37,0.03-0.65,0.34-0.64,0.71c0.02,0.38,0.33,0.67,0.71,0.66l16.55-0.55c1.37-0.04,2.77-0.11,4.16-0.22
		c1.42-0.13,2.76-0.21,4.31-0.63c0.2-0.07,0.4-0.13,0.68-0.28c0.13-0.08,0.29-0.15,0.52-0.43c0.06-0.08,0.11-0.15,0.16-0.25
		c0.06-0.13,0.1-0.28,0.12-0.42c0.04-0.29-0.09-0.66-0.19-0.79c-0.25-0.37-0.41-0.43-0.57-0.54c-0.14-0.08-0.27-0.14-0.38-0.18
		c-0.23-0.09-0.44-0.15-0.64-0.2c-0.41-0.1-0.8-0.15-1.21-0.18l-0.53-0.02c-0.14-0.01-0.31-0.03-0.47-0.04
		c-1.31-0.13-2.68-0.34-4.02-0.55c-0.24-0.04-0.49-0.08-0.73-0.12c1.22-0.2,2.45-0.4,3.67-0.64c1.37-0.26,2.75-0.54,4.14-0.92
		c0.7-0.21,1.4-0.41,2.12-0.71c0.36-0.14,0.73-0.32,1.11-0.54c0.2-0.13,0.38-0.22,0.61-0.42c0.11-0.1,0.2-0.15,0.33-0.3
		c0.13-0.15,0.24-0.3,0.35-0.48c0.12-0.28,0.23-0.54,0.24-0.88c0-0.37-0.1-0.78-0.27-1c-0.08-0.13-0.17-0.25-0.27-0.36
		c-0.09-0.1-0.16-0.14-0.24-0.21c-0.16-0.12-0.34-0.25-0.46-0.29l-0.4-0.17l-0.35-0.1c-0.24-0.08-0.43-0.1-0.65-0.14
		c-0.83-0.13-1.63-0.12-2.27-0.13c-1.35-0.02-2.71-0.07-4.05-0.16c-1.34-0.1-2.67-0.23-3.96-0.44c-0.33-0.05-0.67-0.12-1-0.19
		c1.13-0.24,2.3-0.46,3.47-0.66c2.68-0.46,5.41-0.82,8.14-1.24c1.37-0.21,2.73-0.41,4.15-0.69c0.36-0.07,0.71-0.15,1.11-0.25
		c0.21-0.06,0.41-0.11,0.71-0.23c0.18-0.07,0.36-0.18,0.53-0.29c0.09-0.05,0.29-0.23,0.41-0.36c0.03-0.02,0.24-0.33,0.31-0.52
		c0.08-0.21,0.16-0.43,0.12-0.83c-0.03-0.36-0.23-0.75-0.31-0.84c-0.12-0.16-0.25-0.3-0.4-0.42c-0.17-0.13-0.29-0.19-0.45-0.27
		c-0.18-0.08-0.38-0.14-0.49-0.17c-0.27-0.07-0.47-0.11-0.68-0.14c-0.41-0.06-0.78-0.1-1.14-0.13c-0.1-0.01-0.2-0.01-0.31-0.02
		c2.54-0.66,5.1-1.3,7.68-2.02c0.68-0.19,1.35-0.38,2.04-0.6c0.34-0.11,0.69-0.23,1.05-0.36c0.19-0.07,0.37-0.14,0.57-0.23
		c0.21-0.09,0.4-0.17,0.73-0.38c0.06-0.04,0.21-0.15,0.31-0.24c0.04-0.03,0.18-0.18,0.25-0.28c0.09-0.11,0.17-0.24,0.24-0.41
		c0.12-0.34,0.23-0.61,0.12-1.17c-0.05-0.24-0.18-0.53-0.26-0.64c-0.09-0.12-0.19-0.24-0.3-0.35c-0.27-0.26-0.35-0.26-0.49-0.35
		c-0.14-0.08-0.27-0.13-0.34-0.15c-0.18-0.06-0.35-0.11-0.46-0.13c-0.52-0.1-0.9-0.13-1.29-0.16c-0.77-0.05-1.47-0.06-2.18-0.06
		l-3.84,0.02c0.34-0.13,0.68-0.26,1.02-0.39c1.27-0.47,2.56-0.92,3.86-1.37l1.98-0.69l0.55-0.21l0.13-0.06
		c0.04-0.02,0.1-0.05,0.19-0.1c0.06-0.04,0.15-0.09,0.31-0.22c0.07-0.09,0.45-0.31,0.63-1.04c0.28-0.97-0.57-1.79-0.67-1.83
		c-0.31-0.22-0.38-0.22-0.51-0.28c-0.2-0.08-0.31-0.1-0.4-0.12c-0.65-0.11-0.94-0.09-1.34-0.11c-1.72-0.02-3.38,0.04-5.01,0.11
		l5.81-3.05c1.23-0.65,2.45-1.29,3.7-2.02c0.32-0.19,0.63-0.38,1-0.64c0.09-0.07,0.2-0.15,0.34-0.27c0.11-0.1,0.15-0.11,0.35-0.39
		c0.02-0.01,0.28-0.43,0.3-0.88c0.05-0.49-0.25-1.09-0.48-1.27c-0.33-0.31-0.36-0.27-0.57-0.39c-0.11-0.04-0.19-0.07-0.29-0.1
		c-0.12-0.03-0.25-0.05-0.33-0.06c-0.19-0.02-0.31-0.03-0.43-0.03c-0.89,0-1.55,0.09-2.27,0.16c-2.53,0.29-5,0.67-7.43,0.91
		c2.22-1.2,4.54-2.32,6.86-3.46l1.87-0.94c0.32-0.17,0.63-0.34,0.99-0.55c0.09-0.07,0.17-0.1,0.31-0.21l0.09-0.07
		c0.02-0.01,0.06-0.04,0.14-0.12c0.07-0.06,0.13-0.13,0.19-0.2c0,0.01,0.25-0.33,0.29-0.7c0.05-0.32-0.01-0.71-0.33-1.1
		c-0.41-0.41-0.44-0.32-0.56-0.4c-0.1-0.05-0.26-0.09-0.32-0.1l-0.15-0.02c-0.23-0.03-0.3-0.02-0.45-0.02
		c-0.86,0.04-1.49,0.15-2.2,0.24l-2.04,0.29c-0.83,0.11-1.7,0.21-2.5,0.26c0.1-0.07,0.2-0.13,0.3-0.2c2.27-1.4,4.74-2.63,7.17-3.93
		l1.84-0.99c0.62-0.35,1.2-0.65,1.89-1.14c0.09-0.07,0.18-0.14,0.32-0.28c0.04-0.05,0.1-0.11,0.14-0.17
		c0.07-0.14,0.14-0.17,0.19-0.52c0-0.44-0.12-0.54-0.24-0.72c-0.16-0.19-0.27-0.24-0.32-0.26c-0.08-0.04-0.15-0.07-0.23-0.1
		l-0.13-0.03c-0.09-0.02-0.18-0.04-0.23-0.04c-0.13-0.01-0.24-0.02-0.34-0.02c-0.41,0-0.76,0.02-1.12,0.05l-2.08,0.2
		c-1.35,0.13-2.75,0.29-3.95,0.18c-0.04-0.01-0.07-0.01-0.11-0.02c0.39-0.37,0.94-0.72,1.48-1.05c2.32-1.34,4.86-2.47,7.38-3.51
		l0.01-0.03c0.23-0.09,0.34-0.35,0.26-0.59c-0.09-0.25-0.35-0.38-0.6-0.29c-2.62,0.92-5.21,1.87-7.73,3.18
		c-0.63,0.35-1.25,0.68-1.87,1.24c-0.16,0.14-0.32,0.3-0.47,0.56c-0.07,0.11-0.15,0.3-0.18,0.51c-0.04,0.23,0.01,0.51,0.15,0.74
		c0.3,0.43,0.58,0.49,0.82,0.6c0.23,0.07,0.44,0.12,0.64,0.15c1.54,0.2,2.9,0.07,4.3,0.01l0.24-0.01l-1,0.48
		c-2.49,1.18-4.98,2.35-7.45,3.78c-0.63,0.38-1.23,0.73-1.89,1.3c-0.17,0.15-0.34,0.31-0.54,0.59c-0.1,0.16-0.22,0.32-0.3,0.67
		c-0.04,0.16-0.05,0.4,0,0.63c0.02,0.12,0.07,0.24,0.12,0.35c0.05,0.09,0.08,0.14,0.13,0.21c0.41,0.53,0.76,0.6,1.04,0.72
		c0.27,0.08,0.51,0.13,0.73,0.16c0.8,0.1,1.48,0.08,2.17,0.04c-1.54,0.71-3.09,1.43-4.63,2.23c-0.63,0.33-1.26,0.67-1.9,1.05
		c-0.32,0.19-0.64,0.4-0.98,0.65c-0.17,0.13-0.34,0.25-0.55,0.46c-0.12,0.12-0.18,0.16-0.34,0.38c-0.07,0.09-0.13,0.19-0.19,0.29
		c-0.07,0.11-0.17,0.4-0.2,0.61c-0.01,0.13-0.04,0.18-0.02,0.38c0.01,0.18,0.05,0.37,0.12,0.54c0.06,0.16,0.16,0.36,0.24,0.44
		c0.07,0.09,0.16,0.17,0.25,0.25c0.45,0.37,0.61,0.36,0.77,0.43c0.33,0.11,0.57,0.14,0.8,0.17c0.45,0.05,0.84,0.06,1.22,0.06
		c0.76,0,1.47-0.05,2.18-0.1c1.22-0.1,2.42-0.23,3.61-0.38l-5.9,3.03c-1.24,0.67-2.44,1.28-3.75,2.11
		c-0.17,0.12-0.34,0.23-0.56,0.41c-0.12,0.12-0.21,0.15-0.48,0.5c-0.03,0.04-0.15,0.2-0.25,0.47c-0.06,0.06-0.22,0.84,0.06,1.38
		c0.19,0.49,0.9,0.91,0.96,0.89c0.2,0.09,0.46,0.13,0.5,0.13c0.09,0.01,0.18,0.02,0.27,0.02h0.08h0.14h0.28l0.53-0.01l1.75-0.06
		c-0.44,0.18-0.88,0.36-1.33,0.57c-0.34,0.15-0.67,0.31-1.02,0.5s-0.69,0.37-1.12,0.7c-0.1,0.08-0.22,0.16-0.36,0.31
		c-0.07,0.07-0.13,0.12-0.2,0.21c-0.09,0.12-0.18,0.25-0.26,0.39c-0.06,0.08-0.19,0.38-0.24,0.69c-0.02,0.15-0.04,0.3-0.03,0.45
		c0.02,0.18,0.06,0.37,0.13,0.55s0.16,0.35,0.26,0.5c0.07,0.09,0.15,0.17,0.23,0.25c0.15,0.14,0.4,0.32,0.49,0.36
		c0.18,0.1,0.47,0.22,0.58,0.24l0.36,0.1c0.22,0.05,0.44,0.09,0.64,0.12c1.02,0.14,1.95,0.18,2.86,0.19
		c-1.07,0.28-2.14,0.56-3.21,0.84c-1.33,0.35-2.67,0.71-4.02,1.1c-0.68,0.19-1.35,0.4-2.05,0.63c-0.35,0.12-0.7,0.24-1.1,0.41
		c-0.22,0.11-0.4,0.17-0.77,0.42l-0.15,0.12c-0.05,0.05-0.17,0.16-0.24,0.24c-0.05,0.04-0.22,0.26-0.33,0.54
		c-0.09,0.17-0.2,0.71-0.04,1.18C567.86,228.22,568.04,228.42,568.29,228.65z M594.54,190.87c0.04,0.01,0.03,0.01,0.03,0.01
		s0,0-0.01,0c-0.01,0-0.02-0.01-0.03-0.01C594.53,190.87,594.54,190.87,594.54,190.87z M576.77,218.59c-0.03-0.01-0.01,0,0.01,0
		L576.77,218.59z"/>
	<path class="st0" d="M365.13,281.21c-0.35,0.05-35.52,4.63-43.3,5.95c-4.43,0.76-8.12,0.88-13.72,1.08
		c-4.19,0.15-9.4,0.33-16.7,0.84c-16.83,1.17-36.51,1.92-36.71,1.93c-0.55,0.02-0.98,0.48-0.96,1.04c0.02,0.54,0.46,0.96,1,0.96
		c0.01,0,0.03,0,0.04,0c0.2-0.01,19.91-0.75,36.77-1.93c7.27-0.51,12.46-0.69,16.63-0.83c5.68-0.2,9.43-0.33,13.98-1.11
		c7.74-1.31,42.87-5.89,43.22-5.93c0.55-0.07,0.93-0.57,0.86-1.12S365.67,281.14,365.13,281.21z"/>
	<path class="st0" d="M499.8,269.67c-0.21,0.03-21.27,2.69-42.34,4.74c-21.07,2.05-64.43,5.01-64.86,5.04
		c-0.55,0.04-0.97,0.51-0.93,1.07c0.04,0.53,0.48,0.93,1,0.93c0.02,0,0.05,0,0.07,0c0.44-0.03,43.82-2.99,64.92-5.04
		c21.1-2.05,42.19-4.72,42.4-4.74c0.55-0.07,0.94-0.57,0.87-1.12C500.85,269.99,500.36,269.61,499.8,269.67z"/>
	<path class="st0" d="M613.37,261.67c-0.36,0.01-36.04,1.19-50.99,2.07c-14.96,0.88-40.9,3.82-41.17,3.85
		c-0.55,0.06-0.94,0.56-0.88,1.11c0.06,0.51,0.49,0.89,0.99,0.89c0.04,0,0.08,0,0.11-0.01c0.26-0.03,26.15-2.97,41.06-3.84
		c14.92-0.88,50.58-2.06,50.93-2.07c0.55-0.02,0.98-0.48,0.97-1.03C614.38,262.08,613.91,261.63,613.37,261.67z"/>
	<path class="st0" d="M1020.8,212.79c-0.22-0.03-0.48-0.07-0.78-0.1c-0.02,0-0.05-0.01-0.08-0.01c-4.68-0.6-18.57-2.01-36.51-3.75
		c2.5-3.99,3.94-9.41,4.66-16.67c1.62-16.45-2.33-23.27-4.94-27.79c-1.6-2.76-4.29-7.39-8.4-10.35c-0.09-0.06-0.18-0.12-0.27-0.18
		c0,0,0,0,0,0c-0.01,0-0.01-0.01-0.02-0.01c-2.54-1.75-5.3-2.67-8.24-2.69c-3.29-0.05-6.27,0.82-9.07,2.6
		c-0.21,0.13-0.41,0.29-0.61,0.43c-0.05,0.03-0.1,0.07-0.15,0.1c-3.79,2.68-6.58,6.64-8.81,10.23c-3.33,5.35-4.87,9.64-5.39,11.27
		c-6.21,0.36-11.61,3.37-15.32,8.59c-3.73,5.23-5.43,12.38-4.67,18.64c-26.4-2.49-50.85-4.76-62.68-5.85
		c-5.43-0.5-10.93-0.88-16.39-1.17l-4.37-55.24c-0.01-0.07-0.03-0.12-0.05-0.18c-0.02-0.06-0.02-0.12-0.05-0.18
		c-0.06-0.11-0.13-0.22-0.23-0.31c0,0,0,0,0,0c-0.1-0.09-0.22-0.16-0.34-0.2c-0.03-0.01-0.07-0.01-0.1-0.02
		c-0.08-0.02-0.17-0.04-0.26-0.04l-45.71,1.85c-0.01,0-0.03,0.01-0.04,0.01c-0.08,0.01-0.15,0.03-0.22,0.05
		c-0.05,0.02-0.11,0.03-0.16,0.05c-0.06,0.03-0.11,0.08-0.17,0.12c-0.04,0.03-0.09,0.06-0.13,0.1c-0.01,0.01-0.01,0.02-0.02,0.03
		c-0.01,0.01-0.02,0.01-0.03,0.02c-0.04,0.05-0.05,0.1-0.08,0.15c-0.03,0.06-0.07,0.11-0.09,0.17c-0.02,0.07-0.02,0.15-0.03,0.23
		c0,0.05-0.02,0.09-0.02,0.14l3.99,52.58c-7.02,0.13-12.78,0.33-16.66,0.46c-1.37,0.05-2.46,0.08-3.25,0.1
		c-21.37,0.58-31.07,2.17-35.47,3.89c-0.09,0.03-0.17,0.07-0.25,0.1c-2.33,0.96-3.07,1.95-3.29,2.83c-1.03,4.11,1.06,6.35,2.75,7.21
		v88.13l-8.87-2.46c0.81-4.1,1.47-8.22,1.92-12.38c0.29-2.61,0.49-5.23,0.64-7.86c0.06-1.32,0.15-7.25,0.6-7.91
		c0.05-0.06,0.09-0.14,0.12-0.22c0.23-0.58-0.06-1.22-0.63-1.44l-0.8-0.31c-2.52-0.96-5.02-1.96-7.55-2.89l-3.88-1.18
		c-1.29-0.37-2.57-0.83-3.9-1.08c-2.64-0.57-5.27-1.26-7.97-1.55c-1.35-0.16-2.68-0.44-4.04-0.51l-1.99-0.12c0.05-1.37,0.1-3-0.1-5
		c-0.55-5.66,0.26-23.85-1.63-31.22s-0.67-30.33,0.89-37.56c1.55-7.22,6.74-22.32,7.74-26.51c0.5-2.09,2.21-4.58,3.17-6.87
		c0.08-0.18,0.14-0.36,0.21-0.54c0.09-0.05,0.17-0.1,0.25-0.17l0.93-0.77l0.13-0.11l10.28-8.53c0.66-0.55,1.33-1.11,2-1.66
		c3.03-0.17,11.8-0.56,19.63,0.07c0.63,0.05,1.25,0.08,1.86,0.08c7.26,0,12.54-3.53,17.66-6.95c1.26-0.84,2.57-1.72,3.86-2.5
		c7.47-4.54,9.39-12.86,7.85-16.88l-0.09-0.22c-1.46-3.82-2.98-7.77-15.67-7.31c-13.16,0.48-20.38,4.08-28.63,14.26
		c-6.65,8.21-8.19,14.52-8.54,17.18c-0.64,0.49-1.27,0.98-1.92,1.47c-1.91,1.47-3.79,2.96-5.66,4.47c1.07-3.07,2.12-6.15,3.21-9.21
		c1.75-4.88,3.49-9.76,5.46-14.49l6.05-14.36c1-2.41,2-4.82,2.95-7.26c0.48-1.22,0.94-2.45,1.38-3.71c0.21-0.63,0.43-1.27,0.62-1.94
		c0.06-0.17,0.11-0.37,0.15-0.58c1.46-1.69,4.44-4.99,6.77-6.69c0.37-0.27,0.73-0.49,1.11-0.66c0.02-0.01,0.04,0,0.05-0.01
		c0.02-0.01,0.07-0.04,0.11-0.06c2.18-0.96,5.03-0.9,9.7-0.78c1.54,0.04,3.26,0.08,5.2,0.09c0.55,0,1.07,0.02,1.55,0.04
		c0.78,1.9,3.37,7.72,6.7,10.56c2.58,2.2,6.17,4.71,10.55,4.71c1.73,0,3.58-0.39,5.54-1.35c6.65-3.27,8.09-9.16,4.4-18
		c-0.01-0.02,0-0.03-0.01-0.05c-2.4-6.09-10.58-8.15-13.41-8.69c-0.03-0.39-0.15-0.84-0.42-1.32c-1.12-1.94-4.26-3.2-9.33-3.74
		c-11.5-1.22-15.34,3.12-17.78,7.99c-2.11,4.24-3.57,7.82-4.02,8.95c-0.38,0.2-0.75,0.42-1.12,0.69c-1.71,1.25-3.69,3.24-5.25,4.93
		c0.05-2.13-0.09-4.18-0.23-6.24c-0.2-2.62-0.48-5.21-0.77-7.8c-0.09-0.85-0.19-1.71-0.29-2.56c11.11-15.63,7.89-34.87,7.12-38.6
		c-1.06-5.14-2.73-7.54-4.35-9.87c-1.02-1.46-2.07-2.96-3.02-5.21c-1.86-4.39-3.94-6.19-5.61-7.63c-0.72-0.62-1.34-1.16-1.9-1.84
		c-1.3-1.6-2.68-1.89-3.64-1.85c-1.91,0.08-3.84,1.5-5.74,4.24c-2.17,3.14-2.3,6.62-2.43,10.31c-0.06,1.71-0.12,3.47-0.41,5.21
		c-0.32,1.98-0.83,3.01-1.37,4.09c-0.92,1.86-1.88,3.78-2.08,9.81c-0.31,9.07,3.25,16.89,10.88,23.88c5.25,4.81,8.86,7.1,10.27,7.91
		c0.06,0.77,0.13,1.54,0.19,2.31c0.2,2.58,0.39,5.16,0.51,7.73c0.1,2.56,0.18,5.16-0.1,7.55c-0.04,0.3-0.08,0.58-0.14,0.85
		s-0.11,0.49-0.22,0.8c-0.19,0.57-0.41,1.16-0.63,1.75c-0.45,1.18-0.95,2.37-1.45,3.55c-1.01,2.37-2.08,4.73-3.15,7.09l-6.51,14.18
		c-1.63,3.59-3.08,7.22-4.5,10.85c-0.26-0.48-0.58-0.94-0.94-1.36l-0.73-0.65c-0.25-0.21-0.45-0.32-0.67-0.49
		c-0.77-0.54-1.53-1.04-2.28-1.54c2.61-1.06,4.7-3.01,6.2-5.83c4.28-8.07,2.46-20.58,1.32-23.27c-0.61-1.44-0.48-3.79-0.34-6.29
		c0.18-3.28,0.38-6.99-1-9.97c-1.17-2.5-3.1-3.92-5.31-3.92c-0.05,0-0.1,0-0.14,0c-2.26,0.06-4.33,1.62-5.27,3.97
		c-0.82,2.05-2.07,2.84-3.95,4.04c-1.26,0.8-2.84,1.81-4.58,3.43c-4.43,4.13-6.33,8.21-5.88,21.49
		c0.41,11.85,10.58,13.95,13.21,14.3c0.46,0.65,0.98,1.24,1.55,1.78c1.6,1.53,3.38,2.67,4.95,3.89c1.93,1.22,2.19,3.56,1.73,5.95
		c-1.29,3.35-2.56,6.71-3.82,10.07c-1.98,4.25-5,11.11-6.62,16.75c-2.56,8.89-4.56,9.11-4.56,9.11s-1.08-13.39-1.85-22.39
		c-0.2-2.39-0.61-3.57-1.09-4.01l0.84-1.24l0.03-0.05v-0.01c1.14-2.01,2.45-3.98,3.62-6.09c0.57-1.07,1.14-2.15,1.53-3.41
		c0.17-0.64,0.32-1.34,0.21-2.17c-0.05-0.22-0.11-0.43-0.18-0.64l-0.19-0.43c-0.14-0.28-0.27-0.57-0.42-0.85
		c-0.59-1.12-1.37-2.18-2.33-3.06c-0.96-0.88-2.1-1.56-3.3-2.03c-1.2-0.47-2.46-0.72-3.71-0.84c-1.24-0.12-2.5-0.14-3.79-0.02
		c-0.39,0.03-0.79,0.09-1.18,0.16c-0.06-0.33-0.19-0.65-0.42-0.92l-0.05-0.06c-1.65-2.01-3.17-4.45-4.2-6.88
		c-0.52-1.23-0.92-2.5-1.11-3.75c-0.19-1.18-0.19-2.68-0.21-4.09c-0.02-2.84,0.11-5.69,0.41-8.5c0.15-1.4,0.36-2.79,0.65-4.14
		c0.28-1.37,0.69-2.56,1.26-3.88l1.78-3.98c0.27-0.63,0.52-1.3,0.73-2c1.79-1.04,6.65-4.09,8.36-7.53
		c2.04-4.09,4.03-14.25,2.64-21.52c-1.28-6.68-3.35-11.12-10.62-15.41c-3.04-1.8-4.56-3.11-5.78-4.17c-1.4-1.21-2.41-2.09-4.64-2.61
		c-2.71-0.64-4.57-0.82-6.09,0.13c-1.37,0.86-2.23,2.52-2.9,5.56c-0.99,4.52-1.35,9.58-1.7,14.47c-0.1,1.44-0.2,2.87-0.32,4.29
		c-0.6,7.29,1.6,11.88,2.97,13.96c1.61,2.46,10.84,10.33,15.46,12.75c-0.64,1.6-1.56,3.2-2.37,4.95c-0.64,1.32-1.23,2.87-1.59,4.33
		c-0.38,1.47-0.65,2.95-0.87,4.42c-0.43,2.94-0.67,5.89-0.76,8.85c0,0.02,0,0.05,0,0.07c-1.17-2.6-2.11-5.19-2.75-7.96
		c-0.7-2.82-1.16-5.8-2.27-8.76c-0.56-1.47-1.29-2.94-2.29-4.25c-0.49-0.65-1.07-1.27-1.64-1.82c-0.55-0.52-1.13-1.03-1.73-1.53
		c-1.21-0.99-2.55-1.91-4.08-2.56c-1.52-0.67-3.21-0.97-4.84-0.96c-0.53,0.01-1.06,0.05-1.58,0.1c-1.02-1.5-3.94-3.82-12.16-3.08
		c-10.91,0.98-17.43,10.74-21.38,18c-3.59,6.58-4.74,11.69,0.63,16.83c2.51,2.39,5.86,3.4,9.37,3.4c3.94,0,8.07-1.27,11.39-3.27
		c5.51-3.31,10.71-6.43,13.72-13.03c1.42-3.1,4.08-6.18,6.9-6.18c0.04,0,0.09,0,0.13,0c2.47,0.09,4.86,2.56,6.96,7.18
		c0.05,0.2,0.09,0.4,0.14,0.6c0.7,2.94,1.75,5.91,3.07,8.61c0.89,1.87,1.85,3.68,2.88,5.46c0.21,0.82,0.46,1.62,0.75,2.39
		c0.55,1.47,1.22,2.87,1.97,4.21c0.71,1.26,1.45,2.43,2.35,3.63c-0.75,0.41-1.46,0.87-2.13,1.39c-0.21,0.17-0.4,0.35-0.6,0.53
		c-1.2-0.99-2.74-1.58-4.22-1.59c-1.96-0.08-3.83,0.4-5.52,1.14s-3.26,1.72-4.67,2.91c-0.71,0.6-1.35,1.25-1.95,1.92
		c-0.62,0.67-1.18,1.39-1.72,2.13c-1.06,1.5-1.89,3.19-2.38,4.98c-0.47,1.78-0.68,3.62-0.67,5.42c0,0.45-0.01,0.89,0.05,1.38
		l0.07,0.72l0.15,0.7c0.21,0.94,0.59,1.83,1.03,2.66c0.92,1.65,2.17,3.03,3.48,4.26s2.72,2.31,4.11,3.38l2.06,1.6
		c0.69,0.55,1.43,1.12,2.23,1.59c1.57,0.97,3.56,1.62,5.53,1.37c1.96-0.26,3.65-1.14,5.18-2.08c1.54-0.94,2.98-2.16,4.21-3.45
		c1.25-1.3,2.38-2.68,3.43-4.12c0.74-0.98,1.42-2.03,2.08-3.06l0.34,1.51c0,0,0.75,11.78,1.19,16.67
		c0.44,4.89,1.26,14.78,0.37,20.67s-0.56,28.56,0.11,35.56c0.62,6.46,0.38,24.74,0.16,35.64c-4.12,0.11-8.25,0.58-12.29,1.51
		c-1.34,0.32-2.67,0.62-3.97,1.07c-0.65,0.21-1.31,0.4-1.96,0.63l-1.93,0.74c-0.65,0.24-1.27,0.53-1.9,0.82
		c-0.63,0.28-1.26,0.56-1.87,0.9c-0.61,0.32-1.23,0.63-1.83,1.01c-0.62,0.36-1.17,0.71-1.85,1.2c-0.47,0.35-0.79,0.92-0.78,1.55
		v0.11l0.13,7.67c0.05,2.73,0.27,5.28,0.48,7.89c0.45,5.18,0.98,10.34,1.57,15.49l0.93,7.72c0.33,2.6,0.79,5.25,1.5,7.8
		c0.7,2.56,1.61,5.06,2.71,7.47c1.12,2.42,2.35,4.71,3.99,6.93c0.32,0.43,0.93,0.54,1.39,0.22c0.45-0.31,0.56-0.94,0.25-1.39
		l-0.04-0.05c-1.38-1.99-2.54-4.31-3.52-6.62c-0.98-2.33-1.76-4.74-2.35-7.19c-0.6-2.46-0.96-4.93-1.2-7.47l-0.68-7.71
		c-0.42-5.15-0.79-10.3-1.07-15.44c-0.13-2.55-0.27-5.17-0.23-7.61l0.08-5.14c3.76,2.47,7.84,4.29,12.11,5.63
		c5.27,1.64,10.8,2.48,16.33,2.4c2.77-0.04,5.53-0.25,8.25-0.73c1.36-0.2,2.7-0.53,4.05-0.82c1.33-0.35,2.67-0.69,3.97-1.13
		c4.4-1.42,8.59-3.37,12.51-5.73l0.03,1.64c0.02,1.28,0.01,2.57-0.01,3.85c-0.06,2.57-0.17,5.14-0.37,7.7
		c-0.4,5.13-1.06,10.24-2.05,15.3c-1.01,5.05-2.33,10.04-3.92,14.94c-1.61,4.89-3.65,9.64-5.86,14.29l-0.01,0.03
		c-0.24,0.5-0.03,1.09,0.46,1.33c0.5,0.24,1.1,0.04,1.34-0.46c1.84-3.76,3.56-7.58,5.05-11.49l14.95,5.11v5.95c0,0.55,0.45,1,1,1
		s1-0.45,1-1v-16.3l9.77,2.74l-3.48,13.3c-0.14,0.53,0.18,1.08,0.71,1.22c0.08,0.02,0.17,0.03,0.25,0.03c0.44,0,0.85-0.3,0.97-0.75
		l3.47-13.27l4.92,1.38l-2.37,8.22c0,0.01-0.01,0.01-0.01,0.02c0,0.01,0,0.02,0,0.03l-0.89,3.09c-0.15,0.53,0.15,1.08,0.68,1.24
		c0.09,0.03,0.19,0.04,0.28,0.04c0.43,0,0.83-0.29,0.96-0.72l0.59-2.06c3.36,1.16,6.79,2.38,7.31,2.63c0.16,0.1,0.35,0.15,0.53,0.15
		c0.26,0,0.53-0.1,0.72-0.31c0.38-0.4,0.37-1.03-0.03-1.41c-0.19-0.18-0.39-0.36-7.98-2.98l2.13-7.39l42.96,12.06
		c0.09,0.02,0.18,0.04,0.27,0.04c0.22,0,0.43-0.07,0.6-0.2c0.25-0.19,0.4-0.48,0.4-0.8v-38.93l72.33,17.8v21.14c0,0.55,0.45,1,1,1
		s1-0.45,1-1v-99.97l77.56,9.64v90.33c0,0.55,0.45,1,1,1s1-0.45,1-1v-90.41l62.11-14.32v104.73c0,0.55,0.45,1,1,1s1-0.45,1-1V222.67
		c2.46-1.07,4.15-3.36,4.01-5.59C1025.61,216.04,1025,213.54,1020.8,212.79z M734.45,121.07c7.92-9.77,14.52-13.06,27.15-13.52
		c11.25-0.42,12.4,2.57,13.72,6.02l0.09,0.22c1.32,3.46-0.72,10.63-7.02,14.46c-1.33,0.81-2.65,1.69-3.93,2.55
		c-5.26,3.52-10.69,7.16-18.25,6.54c-3.27-0.26-6.7-0.35-9.81-0.35c-2.83,0-5.4,0.07-7.37,0.15c0.36-0.29,0.71-0.59,1.07-0.87
		c1.89-1.49,3.89-2.89,5.91-4.25c4.06-2.71,8.25-5.25,12.55-7.56c2.16-1.14,4.36-2.22,6.6-3.15c1.12-0.46,2.26-0.88,3.42-1.21
		c1.15-0.32,2.35-0.56,3.48-0.44h0.03c0.17,0.02,0.34-0.1,0.37-0.28c0.03-0.19-0.09-0.37-0.28-0.4c-1.32-0.23-2.6-0.05-3.83,0.19
		c-1.23,0.25-2.43,0.6-3.62,0.99c-2.37,0.78-4.66,1.76-6.92,2.78c-4.51,2.07-8.88,4.41-13.14,6.97c-2.13,1.28-4.23,2.61-6.29,4.06
		c-0.55,0.4-1.07,0.8-1.61,1.2C727.53,132.17,729.48,127.19,734.45,121.07z M783,95.43c-5.85,2.87-10.74-0.38-13.91-3.08
		c-2.54-2.17-4.71-6.56-5.74-8.86c2.05,0.25,3.49,0.68,4.98,1.12c2.23,0.67,4.55,1.35,8.95,1.38c0.04,0.64,0.13,1.28,0.32,1.89
		c0.13,0.4,0.29,0.79,0.51,1.14c0.23,0.36,0.47,0.67,0.85,0.94c0.08,0.06,0.18,0.06,0.28-0.01c0.1-0.07,0.13-0.22,0.06-0.33
		l-0.03-0.04c-0.17-0.24-0.29-0.58-0.36-0.9c-0.07-0.33-0.09-0.67-0.08-1c0.02-0.59,0.15-1.17,0.32-1.73
		c3.47-0.19,6.03-1.12,7.61-2.78c0.23-0.24,0.42-0.48,0.58-0.71C789.45,88.89,788.06,92.95,783,95.43z M786.32,79.72
		c-0.03,0.33-0.19,1.23-1.05,2.11c-1.34,1.37-3.82,2.12-7.17,2.16c-4.65,0.05-6.87-0.6-9.2-1.3c-2.3-0.69-4.68-1.4-9.34-1.42
		c-1.92-0.01-3.63-0.06-5.16-0.09c-1.65-0.04-3.1-0.08-4.41-0.06c3.06-1.72,6.61-3.91,8.49-5.73c3.19-3.09,9.52-4.39,15.08-3.08
		c0.02,0,0.04,0,0.06,0c0.01,0,0.03,0.01,0.04,0.01C773.75,72.33,783.76,73.73,786.32,79.72z M749.11,74.33
		c2.18-4.34,5.1-7.1,12.15-7.1c1.11,0,2.31,0.07,3.64,0.21c5.75,0.61,7.33,2.03,7.75,2.65c-5.89-0.98-12.13,0.54-15.56,3.87
		c-2.35,2.29-7.85,5.35-11.04,7.03C746.75,79.31,747.81,76.95,749.11,74.33z M724.46,62.48c-7.18-6.58-10.53-13.89-10.24-22.34
		c0.19-5.6,1.05-7.32,1.88-8.99c0.58-1.17,1.18-2.38,1.55-4.66c0.3-1.86,0.37-3.69,0.43-5.46c0.12-3.39,0.23-6.58,2.07-9.24
		c1.48-2.13,2.96-3.34,4.17-3.38c0.02,0,0.05,0,0.07,0c0.68,0,1.33,0.38,1.94,1.12c0.66,0.81,1.38,1.43,2.14,2.09
		c1.59,1.37,3.4,2.93,5.07,6.89c1.03,2.44,2.14,4.04,3.22,5.58c1.57,2.26,3.06,4.39,4.03,9.13c0.71,3.44,3.58,20.54-5.5,35.11
		c-0.08-0.69-0.16-1.39-0.22-2.08c-0.06-0.64-0.11-1.28-0.14-1.89c-0.02-0.59-0.05-1.37-0.14-2.02c-0.16-1.35-0.42-2.65-0.71-3.94
		c-0.6-2.57-1.35-5.09-2.25-7.57c-0.45-1.24-0.93-2.46-1.49-3.67c-0.27-0.6-0.57-1.2-0.9-1.79l-0.46-0.82
		c-0.13-0.26-0.25-0.53-0.35-0.82c-0.79-2.32-1.02-4.94-1.18-7.49c-0.14-2.57-0.14-5.17-0.02-7.74c0.01-0.25-0.17-0.46-0.38-0.49
		c-0.25-0.02-0.46,0.17-0.48,0.41c-0.2,2.61-0.28,5.22-0.23,7.84c0.09,2.62,0.21,5.26,1.01,7.9c0.11,0.33,0.23,0.66,0.38,0.99
		l0.46,0.9c0.29,0.55,0.55,1.13,0.79,1.72c0.49,1.16,0.92,2.37,1.32,3.59c0.8,2.43,1.45,4.93,1.95,7.43
		c0.24,1.25,0.44,2.51,0.55,3.75c0.06,0.65,0.06,1.16,0.06,1.87c0.01,0.68,0.04,1.34,0.08,2c0.07,1.01,0.15,2,0.23,3
		C731.42,68.26,728.42,66.11,724.46,62.48z M707.1,117.94c-0.29-0.9-0.41-1.86-0.49-2.83c-0.07-1-0.11-2.05-0.17-3.07
		c-0.11-2.05-0.18-4.1-0.16-6.13c0.03-4.06,0.54-8.14,2.2-11.84c0.09-0.2,0.01-0.44-0.19-0.54c-0.21-0.11-0.46-0.02-0.56,0.18
		c-1.91,3.76-2.64,8.01-2.87,12.15c-0.13,2.08-0.14,4.15-0.14,6.22c0.01,1.03,0,2.04,0.03,3.1c0.04,1.09,0.12,2.19,0.41,3.27
		c0.13,0.6,0.33,1.19,0.57,1.76c-3.32-0.75-9.65-3.34-9.95-12.13c-0.43-12.49,1.27-16.25,5.24-19.95c1.61-1.5,3.03-2.41,4.29-3.21
		c1.97-1.25,3.68-2.34,4.74-4.98c0.65-1.61,2.01-2.68,3.47-2.72c1.44-0.03,2.74,0.94,3.59,2.77c1.17,2.52,0.99,5.82,0.82,9.01
		c-0.15,2.73-0.29,5.31,0.5,7.18c0.93,2.19,2.74,14.04-1.24,21.55c-1.5,2.82-3.67,4.61-6.43,5.33c-0.22-0.17-0.44-0.34-0.65-0.51
		C708.67,121.29,707.6,119.77,707.1,117.94z M670.84,70.78c-1.23-1.87-3.2-6-2.65-12.7c0.12-1.43,0.22-2.87,0.32-4.31
		c0.34-4.82,0.7-9.81,1.66-14.19c0.53-2.4,1.17-3.76,2.01-4.3c0.39-0.25,0.89-0.35,1.5-0.35c0.82,0,1.83,0.19,3.06,0.48
		c1.75,0.42,2.48,1.04,3.79,2.18c1.21,1.05,2.87,2.49,6.08,4.38c6.7,3.95,8.46,7.69,9.67,14.07c1.29,6.76-0.6,16.51-2.46,20.26
		c-1.12,2.25-4.03,4.43-6.06,5.75c0.1-1.54,0.03-2.94-0.04-4.4c-0.09-1.47-0.2-2.94-0.38-4.4c-0.33-2.92-0.83-5.83-1.59-8.68
		s-1.78-5.65-3.26-8.24c-0.15-0.25-0.47-0.35-0.74-0.22c-0.28,0.14-0.39,0.47-0.25,0.75l0.01,0.01c1.27,2.53,2.08,5.29,2.69,8.07
		c0.6,2.79,0.96,5.64,1.15,8.49c0.1,1.42,0.14,2.85,0.16,4.28c0.01,1.41-0.01,2.89-0.16,4.19c-0.03,0.27-0.08,0.53-0.13,0.79
		C680.9,80.31,672.22,72.9,670.84,70.78z M666.53,90.17c-4.01-0.11-7.33,3.87-8.92,7.34c-2.76,6.04-7.47,8.87-12.93,12.15
		c-5.5,3.31-13.81,4.48-18.35,0.13c-4.51-4.32-3.63-8.25-0.25-14.43c3.73-6.85,9.84-16.07,19.8-16.96c5.7-0.51,8.35,0.55,9.57,1.49
		c-1.77,0.4-3.46,1.01-5.1,1.68c-5.66,2.45-10.55,6.63-13.63,11.91c-0.19,0.33-0.1,0.76,0.22,0.98c0.34,0.23,0.8,0.15,1.03-0.19
		c3.3-4.74,8-8.39,13.3-10.47c2.64-1.04,5.46-1.83,8.13-1.78c1.33,0.03,2.62,0.27,3.81,0.81c1.2,0.53,2.33,1.29,3.4,2.19
		c0.54,0.44,1.06,0.92,1.58,1.42c0.49,0.49,0.92,0.96,1.32,1.49c0.79,1.06,1.39,2.27,1.87,3.57c0.18,0.5,0.33,1.01,0.49,1.53
		C670.22,91.2,668.44,90.24,666.53,90.17z M928.52,185.59c0.9-1.27,2.08-2.62,3.56-3.83c0.7,1.8,2.82,4.42,9.2,5.2
		c0.33,0.04,0.67,0.08,1.02,0.11c0.05,0,0.1,0.01,0.15,0.01c0.3,0.02,0.57,0.02,0.85,0.04c0.28,0.01,0.57,0.03,0.83,0.03
		c6.71,0,9.25-3.5,10.15-5.54c1.7,1.34,3.35,3.16,4.71,5.61c3.63,6.56,3.86,13.7,1.16,19.45c-0.31,0.66-0.66,1.29-1.05,1.91
		c-1.27,2.04-2.94,3.84-5,5.32c-0.3,0.21-0.62,0.41-0.93,0.61c-0.31,0.2-0.61,0.4-0.93,0.58c-0.02,0.01-0.04,0.02-0.06,0.04
		c-5.43,3.02-11.93,3.58-17.4,1.5c-4.64-1.76-8.08-5.26-9.69-9.85c-0.17-0.48-0.31-0.97-0.43-1.47c-0.17-0.67-0.3-1.35-0.4-2.05
		C923.4,197.39,924.97,190.57,928.52,185.59z M941.74,177.89c0.34-0.03,0.68-0.04,1.03-0.06c0.23-0.01,0.46-0.02,0.7-0.02
		c0.03,0,0.06,0,0.09,0c0.01,0,0.03,0,0.04,0c0.03,0,0.09,0,0.19,0c0.93,0.01,4.83,0.18,8.83,2.64c-0.51,1.43-2.52,5-9.42,4.66
		c-0.2-0.01-0.39-0.01-0.6-0.02c-0.14-0.01-0.26-0.03-0.4-0.04c-0.35-0.03-0.69-0.07-1.01-0.11c-6.05-0.82-7.2-3.37-7.41-4.4
		C935.9,179.18,938.52,178.16,941.74,177.89z M966.21,153.22c2.11,0.02,4.12,0.58,6.02,1.65c-1.82,1.53-6.48,4.29-13.34,0.25
		C961.15,153.83,963.56,153.2,966.21,153.22z M957.06,156.34c3.26,2.11,6.17,2.86,8.62,2.86c4.14,0,7.01-2.08,8.24-3.19
		c3.58,2.73,6.02,6.91,7.5,9.46c2.48,4.3,6.24,10.79,4.68,26.59c-0.75,7.58-2.2,12.92-4.85,16.66c-0.47,0.67-0.98,1.29-1.53,1.86
		c-2.81,2.9-6.68,4.57-11.98,5.49c-4.96,0.86-8.79,0.26-11.75-1.11c2.17-1.72,3.91-3.82,5.21-6.16c0.34-0.62,0.65-1.26,0.93-1.92
		c2.65-6.23,2.37-13.8-1.4-20.61c-5.1-9.19-13.76-10.31-16.41-10.43c0.64-1.86,2.13-5.63,4.97-10.19
		C951.32,162.38,953.8,158.81,957.06,156.34z M835.48,141.98l-3.27,3.7l-33.73,0.79l-3.65-2.84L835.48,141.98z M841.2,196.91
		l-1.45-1.03l-2.79-1.98l-3.27-46.88l3.27-3.7l4.16,52.63L841.2,196.91z M831.74,147.69l3.19,45.81l-31.07,1.7l-4.61-46.74
		L831.74,147.69z M803.38,197.23l29.58-1.62l2.74-0.15l0.37,0.26l3,2.13l0.45,0.32l-40.24,3l4.05-3.89L803.38,197.23z M797.2,148.01
		l4.66,47.29l0.06,0.57l-1.5,1.44l-2.99,2.87l-0.21-2.82l-0.15-2l-3.82-50.44L797.2,148.01z M775.21,197.96
		c0.79-0.02,1.89-0.06,3.26-0.11c3.89-0.13,9.69-0.33,16.74-0.46l0.38,5.05c0,0.05,0.03,0.1,0.04,0.14
		c0.01,0.06,0.02,0.12,0.05,0.18c0.03,0.07,0.08,0.14,0.13,0.2c0.02,0.03,0.03,0.07,0.06,0.1c0.01,0.01,0.02,0.01,0.02,0.02
		c0.07,0.07,0.16,0.13,0.25,0.17c0.02,0.01,0.04,0.03,0.07,0.04c0.12,0.05,0.24,0.08,0.38,0.08c0,0,0,0,0,0c0,0,0,0,0,0s0,0,0,0
		c0.02,0,0.05,0,0.07,0l45.78-3.41c0.13-0.01,0.26-0.05,0.37-0.1c0.01,0,0.01-0.01,0.01-0.01c0.11-0.06,0.22-0.14,0.3-0.23
		c0.01-0.01,0.01-0.03,0.03-0.05c0.01-0.01,0.02-0.02,0.03-0.03c0.03-0.04,0.04-0.09,0.06-0.13c0.03-0.06,0.06-0.12,0.08-0.18
		c0.02-0.07,0.02-0.13,0.02-0.2c0-0.05,0.02-0.09,0.02-0.14l-0.06-0.82c5.35,0.29,10.73,0.66,16.05,1.15
		c11.92,1.1,36.62,3.39,63.21,5.9c0.17,0.8,0.38,1.58,0.64,2.33c1.81,5.15,5.67,9.08,10.86,11.05c2.41,0.92,5,1.37,7.62,1.37
		c3.92,0,7.91-1.01,11.47-2.99c0.33-0.18,0.62-0.39,0.94-0.59c2.42,1.33,5.41,2.18,9.12,2.18c1.5,0,3.13-0.14,4.87-0.44
		c6.31-1.09,10.83-3.33,14-7.23c13.52,1.32,24.84,2.45,31.79,3.2l-57.36,13.1l-211.64-26.66
		C750.07,199.4,759.19,198.4,775.21,197.96z M738.89,300.2v3.53l-9.92-3.25c0.13-0.55,0.27-1.1,0.4-1.65
		c0.09-0.4,0.16-0.8,0.24-1.19L738.89,300.2z M690.81,150.08c-2.03,2.77-4.28,5.41-7.12,7.17c-1.42,0.89-2.93,1.64-4.47,1.83
		c-1.53,0.18-3.05-0.29-4.45-1.15c-0.71-0.42-1.35-0.92-2.04-1.46l-2.08-1.62c-1.38-1.06-2.75-2.12-3.99-3.28
		c-1.23-1.16-2.35-2.42-3.14-3.83c-0.38-0.71-0.7-1.45-0.86-2.22l-0.13-0.58l-0.05-0.59c-0.05-0.38-0.04-0.82-0.04-1.24
		c0-1.7,0.18-3.37,0.63-4.96c0.46-1.59,1.2-3.07,2.17-4.42c0.98-1.32,2.15-2.64,3.4-3.68c1.27-1.06,2.7-1.94,4.22-2.58
		c1.51-0.65,3.14-1.02,4.67-0.94c1.1,0.03,2.09,0.41,2.89,1.04c-0.21,0.24-0.44,0.46-0.63,0.71c-0.75,0.98-1.39,2.02-2.05,3.03
		c-0.64,1-1.36,2.01-1.95,3.08c-0.63,1.06-1.11,2.2-1.53,3.35c-0.38,1.17-0.66,2.38-0.72,3.62s0.02,2.48,0.58,3.69
		c0.08,0.17,0.28,0.26,0.45,0.23c0.18-0.07,0.28-0.28,0.21-0.47l-0.02-0.05c-0.36-0.98-0.4-2.18-0.24-3.27
		c0.17-1.11,0.52-2.19,0.98-3.22c1-2.05,2.35-3.85,3.98-5.53c0.82-0.83,1.71-1.58,2.55-2.34c0.85-0.75,1.64-1.53,2.46-2.24
		c1.64-1.4,3.35-2.66,5.46-3.13c2.09-0.5,4.46-0.28,6.43,0.46c2.01,0.74,3.63,2.23,4.64,4.16c0.14,0.23,0.25,0.48,0.37,0.73
		l0.17,0.38c0.01,0.07,0.03,0.14,0.06,0.21c0.05,0.34-0.02,0.83-0.15,1.32c-0.3,1-0.82,2.03-1.36,3.04
		c-1.1,2.02-2.39,3.99-3.57,6.09l0.04-0.06l-2.92,4.39C692.71,147.26,691.84,148.68,690.81,150.08z M673.02,268.06
		c0.45-0.27,0.93-0.51,1.41-0.76c0.55-0.3,1.13-0.55,1.7-0.81c0.57-0.25,1.14-0.52,1.74-0.73l1.77-0.67
		c0.59-0.21,1.21-0.38,1.81-0.57c1.2-0.41,2.44-0.68,3.68-0.97c3.67-0.82,7.43-1.22,11.2-1.31c-0.27,2.24-1,3.89-1.84,5.14
		c-8.92,0.57-14.16,2.57-15.74,3.27c-0.36-0.14-0.73-0.28-1.09-0.43C676.09,269.59,674.53,268.86,673.02,268.06z M715.86,272.47
		c-1.25,0.37-2.53,0.62-3.79,0.93c-1.28,0.24-2.55,0.52-3.84,0.67c-2.57,0.38-5.16,0.59-7.75,0.59c-2.59,0.03-5.19-0.1-7.76-0.46
		c-2.58-0.31-5.12-0.84-7.64-1.49c-1.14-0.31-2.26-0.64-3.38-1.01c2.21-0.71,5.86-1.63,10.92-2.11c-1.68,1.64-2.6,2.08,0.82,3.18
		c6.55,2.11,11.33-2.77,11.33-2.77s0.03-0.21,0.04-0.56c4.3,0.26,9.12,0.87,14.47,1.97C718.15,271.79,717.01,272.15,715.86,272.47z
		 M722.81,270.13c-6.82-1.59-12.85-2.41-18.1-2.73c-0.16-1.09-0.51-2.35-1.28-3.41c-0.37-0.51-0.6-1.03-0.75-1.58l1.46,0.1
		c1.28,0.08,2.54,0.35,3.81,0.51c2.55,0.29,5.04,0.97,7.55,1.52c1.26,0.24,2.48,0.69,3.71,1.06l3.69,1.15
		c1.38,0.52,2.76,1.06,4.13,1.61C725.65,268.99,724.24,269.58,722.81,270.13z M724.62,315.06c0.13-0.37,0.28-0.74,0.41-1.11
		c1.32-3.79,2.48-7.63,3.47-11.52l10.39,3.41v4.51c0,0.01,0,0.03,0,0.04v9.54L724.62,315.06z M801.67,326.67l-42.63-11.96
		c-0.01,0-0.01-0.01-0.02-0.01c-0.01,0-0.01,0-0.02,0l-18.12-5.09v-99.15l60.78,7.53V326.67z M876,227.77v34.87l-72.33-13.77v-30.62
		L876,227.77z M803.67,287v-36.09L876,264.68v40.12L803.67,287z M877.13,225.9l-74.33-9.78c0,0,0,0,0,0c0,0,0,0,0,0l-62.67-7.77
		c-0.54-0.2-2.98-1.33-2.04-5.08c0.08-0.31,0.45-0.83,1.85-1.44l215.63,27.16v6.66L877.13,225.9z M1020.36,221.04l-62.81,14.48
		v-6.62l62.29-14.23c0.24,0.03,0.45,0.06,0.63,0.09c1.98,0.35,3.12,1.22,3.2,2.45C1023.77,218.55,1022.55,220.35,1020.36,221.04z"/>
	<path class="st0" d="M790.03,230.92c2.48,0,4.5-2.02,4.5-4.5s-2.02-4.5-4.5-4.5s-4.5,2.02-4.5,4.5S787.55,230.92,790.03,230.92z
		 M790.03,224.92c0.83,0,1.5,0.67,1.5,1.5s-0.67,1.5-1.5,1.5s-1.5-0.67-1.5-1.5S789.2,224.92,790.03,224.92z"/>
	<path class="st0" d="M838.89,242.09c2.48,0,4.5-2.02,4.5-4.5s-2.02-4.5-4.5-4.5s-4.5,2.02-4.5,4.5S836.41,242.09,838.89,242.09z
		 M838.89,236.09c0.83,0,1.5,0.67,1.5,1.5s-0.67,1.5-1.5,1.5s-1.5-0.67-1.5-1.5S838.06,236.09,838.89,236.09z"/>
	<path class="st0" d="M837.86,272.63c-2.48,0-4.5,2.02-4.5,4.5s2.02,4.5,4.5,4.5s4.5-2.02,4.5-4.5S840.34,272.63,837.86,272.63z
		 M837.86,278.63c-0.83,0-1.5-0.67-1.5-1.5s0.67-1.5,1.5-1.5s1.5,0.67,1.5,1.5S838.69,278.63,837.86,278.63z"/>
	<path class="st0" d="M891.95,235.28c-2.48,0-4.5,2.02-4.5,4.5s2.02,4.5,4.5,4.5s4.5-2.02,4.5-4.5S894.43,235.28,891.95,235.28z
		 M891.95,241.28c-0.83,0-1.5-0.67-1.5-1.5s0.67-1.5,1.5-1.5s1.5,0.67,1.5,1.5S892.78,241.28,891.95,241.28z"/>
	<path class="st0" d="M837.55,312.54c-2.48,0-4.5,2.02-4.5,4.5s2.02,4.5,4.5,4.5s4.5-2.02,4.5-4.5S840.03,312.54,837.55,312.54z
		 M837.55,318.54c-0.83,0-1.5-0.67-1.5-1.5s0.67-1.5,1.5-1.5s1.5,0.67,1.5,1.5S838.38,318.54,837.55,318.54z"/>
	<path class="st0" d="M807.89,167.54l5.3-4.35l-5.99,7.86c-0.26,0.35-0.28,0.84,0,1.21c0.33,0.44,0.96,0.52,1.4,0.19l9.53-7.25
		l-8.45,12.79c-0.22,0.35-0.22,0.81,0.04,1.16c0.33,0.44,0.96,0.52,1.4,0.19l0.02-0.02l7.93-6.02l-7.23,10.97l-0.01,0.02
		c-0.24,0.36-0.22,0.85,0.08,1.2c0.36,0.42,0.99,0.46,1.41,0.1l8.21-7.09l-6.54,10.63l-0.02,0.03c-0.21,0.34-0.2,0.79,0.07,1.13
		c0.34,0.43,0.96,0.5,1.39,0.16l9.65-7.64c0.21-0.17,0.27-0.49,0.11-0.72c-0.16-0.24-0.5-0.3-0.74-0.14l-6.34,4.28l7.51-12.22
		c0.22-0.36,0.19-0.84-0.1-1.18c-0.36-0.42-0.99-0.46-1.41-0.1l-6.43,5.56l7.91-10.81v-0.01c0.41-0.57,0.4-1.36-0.07-1.91
		c-0.55-0.64-1.52-0.72-2.17-0.17l-9.1,7.77l7.79-11.79c0.23-0.35,0.22-0.81-0.04-1.16c-0.33-0.44-0.96-0.52-1.4-0.19l-8.35,6.34
		l6.56-8.6l0.01-0.01l0,0l0.15-0.2c0.28-0.36,0.28-0.87-0.02-1.24c-0.35-0.43-0.98-0.49-1.41-0.14l-6.73,5.52l5.16-7.74l0.04-0.06
		c0.24-0.36,0.22-0.85-0.07-1.19c-0.35-0.42-0.98-0.46-1.39-0.11l-7.91,6.77c-0.08,0.07-0.1,0.2-0.05,0.32
		c0.06,0.1,0.2,0.14,0.31,0.07l4.84-3.03l-6.32,9.48c-0.24,0.36-0.23,0.84,0.06,1.19C806.83,167.83,807.46,167.89,807.89,167.54z"/>
	<path class="st0" d="M968.48,208.05c0.24,0.12,0.54,0.03,0.67-0.22l0.01-0.02c0.05-0.09,0.11-0.17,0.17-0.25
		c0.35-0.48,0.88-0.89,1.46-1.23c0.7-0.38,1.46-0.68,2.24-0.96c1.56-0.55,3.2-0.94,4.84-1.41c0.41-0.12,0.82-0.24,1.24-0.38
		c0.22-0.08,0.41-0.13,0.64-0.23c0.1-0.04,0.24-0.11,0.38-0.19c0.05-0.03,0.12-0.09,0.17-0.14l0.08-0.09
		c0.08-0.1,0.14-0.25,0.15-0.4c0.03-0.3-0.11-0.48-0.3-0.64c-0.12-0.08-0.1-0.05-0.15-0.08l-0.1-0.04
		c-0.43-0.12-0.59-0.09-0.84-0.11h-0.67l-1.29,0.04l-5.07,0.29c-0.14,0.01-0.29,0.01-0.44,0.02c1.38-0.7,2.82-1.36,4.25-2.02
		c1.54-0.71,3.08-1.38,4.64-2.19c0.19-0.11,0.39-0.22,0.62-0.37c0.13-0.12,0.29-0.15,0.54-0.59c0.08-0.2,0.12-0.41,0.07-0.63
		c-0.03-0.11-0.08-0.24-0.15-0.34c-0.08-0.12-0.15-0.18-0.18-0.2c-0.09-0.07-0.19-0.14-0.29-0.18l-0.17-0.06
		c-0.4-0.1-0.62-0.09-0.87-0.11c-0.24-0.01-0.47-0.01-0.69,0c-0.89,0.04-1.74,0.12-2.6,0.22c-0.45,0.05-0.9,0.12-1.35,0.18
		c0.37-0.25,0.73-0.5,1.11-0.74c1.41-0.9,2.84-1.79,4.28-2.61l1.08-0.59c0.17-0.1,0.35-0.16,0.68-0.39
		c0.03-0.02,0.12-0.09,0.17-0.14c0.02,0,0.1-0.1,0.15-0.17c0.04-0.07,0.11-0.11,0.18-0.43c0.05-0.24,0.01-0.52-0.19-0.8
		c-0.25-0.29-0.24-0.22-0.39-0.32c-0.14-0.07-0.17-0.07-0.22-0.08l-0.15-0.03c-0.27-0.04-0.37-0.02-0.52-0.02
		c-0.98,0.07-1.77,0.23-2.63,0.37l-4.99,0.88c-0.58,0.1-1.15,0.19-1.73,0.26c0.64-0.38,1.29-0.75,1.95-1.11
		c1.46-0.8,2.96-1.56,4.47-2.31l2.27-1.12l0.57-0.28c0.22-0.11,0.33-0.16,0.67-0.35c0.02-0.01,0.1-0.07,0.2-0.16
		c-0.01-0.03,0.44-0.32,0.31-1.03c-0.35-0.87-0.56-0.64-0.7-0.79c-0.07-0.03-0.2-0.06-0.22-0.06c-0.2-0.03-0.25-0.03-0.34-0.03
		c-0.15,0-0.27,0-0.39,0.01l-0.67,0.06c-1.72,0.18-3.38,0.41-5.05,0.61c-0.15,0.02-0.3,0.03-0.46,0.05
		c0.55-0.27,1.09-0.55,1.66-0.81c1.5-0.68,3.09-1.4,4.55-1.88c0.08-0.03,0.15-0.04,0.42-0.14l0.12-0.06
		c-0.14,0.06,0.4-0.07,0.56-0.83c0.03-0.58-0.19-0.75-0.54-1.01c-0.46-0.19-0.24-0.08-0.35-0.12c-0.19-0.03-0.24-0.03-0.32-0.03
		c-0.28,0-0.49,0.01-0.71,0.02l-1.29,0.09l-2.54,0.23l-1.21,0.11c0.62-0.4,1.25-0.8,1.85-1.21l1.07-0.72l0.55-0.4
		c0.09-0.08,0.18-0.15,0.29-0.24c0.05-0.05,0.1-0.08,0.17-0.16l0.1-0.1c0.06-0.06,0.12-0.16,0.17-0.24c0,0.01,0.1-0.19,0.12-0.4
		c0.01-0.21-0.01-0.39-0.11-0.56c-0.08-0.17-0.27-0.35-0.39-0.41c-0.05-0.03-0.12-0.06-0.18-0.08c-0.15-0.05-0.2-0.05-0.26-0.06
		c-0.05-0.01-0.13-0.02-0.16-0.02c-0.17-0.01-0.3-0.01-0.43,0c-0.25,0.01-0.47,0.04-0.69,0.07c-0.44,0.06-0.87,0.13-1.29,0.2
		c-1.13,0.19-2.26,0.4-3.37,0.58c0.32-0.22,0.65-0.45,0.98-0.66c1.39-0.91,2.84-1.8,4.28-2.54l0.57-0.27l0.13-0.07
		c0.04-0.03,0.05-0.03,0.11-0.08c0.05-0.07,0.14-0.06,0.3-0.42c0.21-0.67-0.49-1.12-0.52-1.05c-0.11-0.04-0.2-0.05-0.22-0.05
		c-0.1-0.01-0.13-0.01-0.18-0.01c-0.17,0-0.28,0.02-0.4,0.03c-0.46,0.05-0.88,0.13-1.3,0.2l-2.5,0.46c-0.83,0.15-1.66,0.3-2.48,0.42
		c-0.02,0-0.04,0.01-0.06,0.01l0.67-0.4l2.18-1.27c1.44-0.79,2.99-1.46,4.54-1.98l0.04-0.02c0.29-0.09,0.45-0.4,0.36-0.69
		s-0.4-0.46-0.7-0.37c-1.68,0.51-3.26,1.15-4.81,1.95l-2.24,1.23l-1.12,0.63c-0.38,0.24-0.74,0.42-1.18,0.8
		c-0.06,0.06-0.12,0.11-0.19,0.21c-0.06,0.09-0.18,0.24-0.19,0.57c0.01,0.18,0.07,0.35,0.18,0.49c0.08,0.1,0.2,0.19,0.26,0.22
		c0.16,0.09,0.25,0.1,0.34,0.13c0.33,0.07,0.57,0.07,0.82,0.07c0.47-0.01,0.9-0.06,1.33-0.11c0.83-0.1,1.64-0.22,2.45-0.35
		c-0.46,0.28-0.92,0.55-1.38,0.84c-0.73,0.46-1.45,0.93-2.16,1.47c-0.18,0.14-0.36,0.28-0.54,0.44c-0.18,0.18-0.35,0.3-0.61,0.68
		c-0.04,0.08-0.18,0.29-0.17,0.65c0.02,0.26,0.16,0.54,0.3,0.65c0.14,0.15,0.41,0.27,0.44,0.26c0.08,0.02,0.17,0.04,0.26,0.05
		l0.13,0.01h0.21c0.25-0.01,0.48-0.03,0.7-0.05c1.35-0.15,2.63-0.38,3.9-0.59c-1.14,0.71-2.28,1.41-3.47,2.31
		c-0.1,0.09-0.2,0.17-0.33,0.31c-0.03,0.02-0.09,0.09-0.13,0.15c-0.05,0.09-0.07,0.05-0.18,0.34c-0.04,0.11-0.06,0.24-0.06,0.35
		c-0.01,0.18,0.1,0.55,0.31,0.74c0.26,0.23,0.24,0.17,0.37,0.24c0.1,0.04,0.2,0.07,0.3,0.08c0.26,0.02,0.32,0.01,0.46,0.01
		l0.34-0.02l1.29-0.09l0.98-0.08c-0.56,0.27-1.13,0.53-1.69,0.81c-0.78,0.4-1.53,0.78-2.34,1.35c-0.1,0.07-0.22,0.16-0.33,0.26
		c-0.06,0.05-0.14,0.13-0.2,0.2c-0.07,0.06-0.2,0.24-0.27,0.4c-0.08,0.18-0.11,0.4-0.1,0.6c0.02,0.25,0.19,0.59,0.4,0.76
		c0.21,0.18,0.57,0.29,0.61,0.29c0.21,0.05,0.34,0.05,0.48,0.06c0.52,0.02,0.95-0.01,1.39-0.04c0.87-0.06,1.72-0.15,2.57-0.25
		c0.19-0.02,0.38-0.05,0.57-0.07c-0.98,0.51-1.96,1.02-2.94,1.56c-0.75,0.41-1.5,0.85-2.24,1.3c-0.38,0.25-0.74,0.46-1.12,0.75
		c-0.19,0.15-0.37,0.26-0.57,0.45l-0.29,0.26c-0.09,0.09-0.25,0.3-0.35,0.45l-0.08,0.13c-0.03,0.05-0.04,0.03-0.1,0.22
		c-0.02,0.07-0.04,0.15-0.05,0.22c-0.01,0.09-0.01,0.21,0.01,0.32c0.02,0.22,0.14,0.43,0.27,0.59c0.24,0.26,0.44,0.33,0.57,0.38
		c0.13,0.04,0.24,0.07,0.32,0.08c0.36,0.05,0.59,0.04,0.84,0.04c0.48-0.01,0.92-0.06,1.36-0.11c0.87-0.11,1.72-0.25,2.56-0.39
		l3.11-0.57c-0.66,0.41-1.31,0.82-1.96,1.25c-0.72,0.47-1.43,0.94-2.13,1.44c-0.35,0.25-0.7,0.5-1.05,0.77l-0.53,0.42l-0.28,0.25
		l-0.17,0.17c-0.06,0.09-0.13,0.1-0.28,0.46c-0.02,0.06-0.09,0.26-0.02,0.59c0.05,0.31,0.47,0.66,0.58,0.66
		c0.23,0.09,0.27,0.07,0.36,0.08c0.1,0,0.13-0.01,0.17-0.01c0.18-0.02,0.25-0.04,0.28-0.05l0.28-0.06l0.6-0.12l1.23-0.22
		c0.83-0.14,1.65-0.26,2.48-0.37c0.22-0.03,0.43-0.05,0.65-0.07c-0.83,0.4-1.67,0.8-2.5,1.19c-1.53,0.73-3.06,1.45-4.59,2.27
		c-0.38,0.21-0.76,0.42-1.15,0.67c-0.21,0.14-0.38,0.24-0.65,0.51c-0.04,0.03-0.18,0.22-0.24,0.35c-0.04,0.06-0.11,0.37-0.06,0.56
		c0.03,0.21,0.15,0.36,0.3,0.5c0.19,0.15,0.23,0.14,0.3,0.17c0.07,0.03,0.14,0.04,0.21,0.06c0.1,0.02,0.14,0.02,0.22,0.03
		c0.99,0.06,1.79-0.03,2.66-0.08l3.86-0.32c-1.14,0.34-2.31,0.69-3.45,1.12c-0.81,0.31-1.62,0.64-2.39,1.1
		c-0.76,0.46-1.54,1.04-2,1.97c-0.01,0.02-0.01,0.04-0.02,0.06C968.17,207.68,968.26,207.94,968.48,208.05z"/>
	<path class="st0" d="M711.03,312.47c1.82-0.77,3.74-1.49,5.62-1.83l0.39-0.06l0.21-0.04c0.03,0,0.08-0.01,0.15-0.04
		c0.09-0.06-0.07,0.08,0.23-0.14c0.23-0.23,0.22-0.59-0.12-0.82c-0.31-0.12-0.28-0.06-0.39-0.09l-0.21-0.01l-0.39-0.01l-1.52-0.02
		l-3.01-0.06c-0.99-0.04-1.99-0.09-2.97-0.2c-0.15-0.02-0.29-0.04-0.44-0.06c0.14-0.08,0.29-0.17,0.45-0.24
		c1.77-0.81,3.71-1.42,5.61-2.03l2.89-0.88l0.73-0.22l0.38-0.12c0.08-0.04,0.14-0.03,0.36-0.19c0.02,0,0.21-0.17,0.24-0.44
		c-0.01-0.44-0.21-0.53-0.3-0.6c-0.15-0.08-0.22-0.09-0.27-0.11c-0.38-0.09-0.6-0.08-0.88-0.1l-0.78-0.02
		c-2.05-0.02-4.06,0.06-6.08,0.12l-1.04,0.03c1.3-0.47,2.62-0.92,3.93-1.38l2.86-1.02l1.43-0.55l0.72-0.31
		c0.25-0.13,0.46-0.19,0.85-0.5c0.03-0.02,0.13-0.13,0.19-0.24c0.03-0.07,0.05-0.08,0.09-0.2c0.04-0.13,0.04-0.28,0.02-0.41
		c-0.04-0.25-0.19-0.4-0.34-0.53c-0.07-0.05-0.16-0.09-0.24-0.13c-0.25-0.09-0.4-0.11-0.56-0.13c-0.31-0.03-0.57-0.03-0.84-0.04
		c-0.53-0.01-1.05,0.01-1.56,0.04c-1.02,0.05-2.03,0.13-3.04,0.21l-0.26,0.02c1.37-0.58,2.75-1.14,4.14-1.7l2.82-1.12l0.72-0.3
		l0.2-0.09l0.06-0.03c0.06-0.03,0.11-0.07,0.17-0.11c0.14-0.17,0.26-0.11,0.35-0.7c0.03-0.42-0.35-0.71-0.37-0.72
		c-0.36-0.21-0.39-0.16-0.5-0.2c-0.09-0.02-0.16-0.03-0.24-0.04c-0.58-0.08-1.07-0.1-1.59-0.13l-6.06-0.22
		c-1.55-0.07-3.15-0.13-4.65-0.31c0.85-0.35,1.75-0.67,2.65-0.96c1.89-0.63,3.82-1.19,5.75-1.73l2.91-0.79l0.73-0.19
		c0.26-0.07,0.44-0.1,0.8-0.22c0.1-0.03,0.18-0.06,0.37-0.17c0.09-0.08,0.23-0.09,0.45-0.52c0.1-0.21,0.12-0.56-0.02-0.86
		c-0.06-0.15-0.26-0.36-0.3-0.38c-0.32-0.22-0.39-0.2-0.51-0.25c-0.11-0.03-0.19-0.05-0.27-0.07c-0.32-0.07-0.58-0.1-0.85-0.13
		c-1.75-0.17-3.44-0.22-5.13-0.27c0.38-0.1,0.75-0.19,1.13-0.29l5.88-1.45l0.76-0.2c0.1-0.03,0.16-0.04,0.39-0.15
		c0.13-0.08,0.07,0.01,0.34-0.25c0.28-0.02,0.47-1.18-0.04-1.6c-0.16-0.16-0.44-0.27-0.44-0.27c-0.06-0.02-0.15-0.05-0.18-0.05
		c-0.28-0.06-0.41-0.06-0.56-0.07c-0.57-0.03-1.07-0.03-1.59-0.03l-3.04,0.03c-1.33,0.01-2.65,0.03-3.97,0.03
		c3.21-1.03,6.52-1.95,9.79-2.84l0.06-0.01h0.01c0.67-0.19,1.06-0.88,0.87-1.55s-0.88-1.06-1.55-0.87
		c-3.91,1.1-7.78,2.21-11.66,3.57c-0.49,0.17-0.98,0.36-1.47,0.56c-0.25,0.1-0.5,0.21-0.76,0.34c-0.13,0.07-0.26,0.13-0.42,0.23
		c-0.07,0.04-0.15,0.08-0.26,0.17l-0.15,0.12c-0.02,0.01-0.18,0.19-0.25,0.29c-0.05,0.06-0.09,0.13-0.12,0.19
		c-0.02,0.02-0.14,0.36-0.13,0.54c-0.01,0.2,0.05,0.44,0.16,0.64c0.11,0.18,0.17,0.23,0.27,0.33c0.33,0.26,0.46,0.27,0.59,0.33
		c0.25,0.08,0.39,0.1,0.56,0.13c0.31,0.05,0.59,0.07,0.86,0.09c0.54,0.04,1.05,0.05,1.57,0.06c0.8,0.01,1.59,0,2.38-0.01
		c-1.42,0.38-2.85,0.77-4.3,1.26c-0.26,0.1-0.51,0.18-0.82,0.33c-0.08,0.04-0.16,0.07-0.29,0.16c-0.02,0.01-0.06,0.04-0.11,0.08
		c-0.06,0.05-0.07,0.05-0.16,0.15c-0.1,0.15-0.11,0.08-0.25,0.45c-0.09,0.28-0.05,0.66,0.19,0.98c0.15,0.17,0.29,0.26,0.41,0.32
		c0.07,0.03,0.13,0.06,0.2,0.08c0.11,0.03,0.17,0.04,0.24,0.05c0.11,0.02,0.21,0.03,0.29,0.03l1.54,0.03l3.02,0.05
		c0.69,0.01,1.38,0.03,2.08,0.05c-1.86,0.55-3.72,1.1-5.57,1.73c-0.97,0.33-1.93,0.67-2.9,1.09c-0.49,0.22-0.96,0.42-1.51,0.79
		c-0.15,0.11-0.3,0.21-0.49,0.46c-0.03,0.03-0.1,0.14-0.15,0.27s-0.09,0.25-0.1,0.39c0,0.18,0.04,0.39,0.12,0.56
		c0.09,0.19,0.15,0.21,0.24,0.31c0.08,0.08,0.19,0.16,0.26,0.2l0.16,0.08c0.11,0.05,0.24,0.1,0.3,0.11c0.15,0.04,0.29,0.07,0.43,0.1
		c2.16,0.37,4.14,0.38,6.18,0.46l4.52,0.12l-0.64,0.26c-1.87,0.77-3.74,1.53-5.6,2.39c-0.47,0.22-0.93,0.44-1.42,0.72
		c-0.12,0.08-0.24,0.15-0.4,0.27c-0.09,0.09-0.16,0.08-0.35,0.41c-0.06,0.17-0.12,0.23-0.07,0.55c0.07,0.29,0.2,0.41,0.36,0.53
		c0.1,0.06,0.17,0.08,0.26,0.11l0.14,0.03c0.31,0.03,0.4,0,0.54,0l0.39-0.03l3.03-0.27c1-0.09,2-0.18,2.99-0.24
		c0.02,0,0.05,0,0.07,0l-0.43,0.17l-2.83,1.04c-1.89,0.69-3.79,1.34-5.7,2.09l-0.72,0.3l-0.37,0.17c-0.15,0.09-0.22,0.09-0.5,0.33
		c-0.03,0.04-0.09,0.07-0.17,0.26c-0.11,0.04-0.01,0.75,0.17,0.77c0.23,0.19,0.23,0.13,0.33,0.18c0.09,0.03,0.09,0.02,0.14,0.03
		c0.15,0.02,0.22,0.01,0.28,0.01l0.39-0.01l0.76-0.03l3.02-0.13c1.39-0.06,2.79-0.11,4.18-0.14l-0.89,0.28
		c-1.93,0.65-3.84,1.26-5.74,2.15c-0.24,0.11-0.48,0.24-0.72,0.39c-0.13,0.07-0.25,0.16-0.38,0.27c-0.07,0.08-0.13,0.11-0.21,0.22
		c-0.07,0.11-0.16,0.2-0.19,0.47c-0.05,0.2,0.13,0.52,0.24,0.6c0.1,0.09,0.25,0.18,0.32,0.2c0.19,0.08,0.33,0.1,0.48,0.13
		c0.28,0.05,0.53,0.08,0.79,0.11c1.03,0.1,2.04,0.14,3.06,0.17l1.8,0.02c-1.06,0.36-2.08,0.77-3.11,1.21
		c-0.94,0.42-1.86,0.85-2.75,1.47c-0.22,0.18-0.44,0.31-0.67,0.66c-0.05,0.11-0.11,0.21-0.12,0.41c-0.02,0.16,0.11,0.42,0.21,0.49
		c0.24,0.21,0.4,0.21,0.56,0.26c0.57,0.11,1.07,0.13,1.59,0.15c1.03,0.03,2.04-0.01,3.03,0.01c0.46,0.02,1.01,0.04,1.29,0.16
		c-0.01,0.01-0.01,0.02-0.02,0.04c-0.1,0.15-0.26,0.3-0.43,0.44c-0.73,0.55-1.67,0.93-2.59,1.32c-0.47,0.19-0.94,0.38-1.41,0.59
		c-0.24,0.1-0.48,0.21-0.72,0.36c-0.12,0.08-0.24,0.15-0.37,0.28c-0.06,0.06-0.13,0.15-0.19,0.26c-0.07,0.13-0.09,0.32-0.03,0.48
		c0.14,0.32,0.31,0.36,0.45,0.46c0.14,0.07,0.28,0.13,0.41,0.17c0.25,0.08,0.49,0.16,0.74,0.23c0.5,0.14,1,0.25,1.5,0.35
		c0.4,0.08,0.8,0.15,1.18,0.23c-0.15,0.11-0.3,0.21-0.44,0.32c-1.59,1.28-3.08,2.63-4.59,3.98c-0.13,0.12-0.14,0.33-0.02,0.46
		s0.33,0.14,0.46,0.02c1.51-1.33,3.02-2.67,4.59-3.9c0.19-0.15,0.39-0.29,0.58-0.41l0.19-0.13c0.04-0.03,0.09-0.08,0.13-0.12
		c0.03-0.03,0.04-0.03,0.07-0.09c0.03-0.06,0.05-0.13,0.06-0.2c0.03-0.13-0.05-0.28-0.14-0.38c-0.05-0.05-0.1-0.08-0.16-0.11
		c-0.1-0.04-0.16-0.06-0.24-0.09c-0.54-0.14-1.02-0.21-1.51-0.32c-0.49-0.1-0.97-0.21-1.44-0.35c-0.24-0.06-0.47-0.15-0.7-0.22
		c-0.11-0.03-0.21-0.08-0.29-0.12c-0.01,0-0.01-0.01-0.01-0.01c0.05-0.04,0.12-0.09,0.19-0.14c0.2-0.11,0.42-0.21,0.64-0.31
		c0.45-0.2,0.92-0.38,1.39-0.57c0.93-0.39,1.89-0.75,2.79-1.4c0.22-0.18,0.43-0.37,0.62-0.64c0.09-0.14,0.21-0.33,0.18-0.64
		c-0.05-0.33-0.31-0.52-0.46-0.59c-0.65-0.27-1.13-0.23-1.66-0.27c-1.03-0.04-2.03,0-3.02-0.04c-0.45-0.02-0.92-0.05-1.33-0.13
		c0.08-0.07,0.17-0.14,0.27-0.2C709.21,313.29,710.13,312.87,711.03,312.47z"/>
	<path class="st0" d="M943.51,211.77c0.08,0.05,0.17,0.09,0.26,0.13c0.21,0.09,0.27,0.09,0.36,0.12c0.19,0.05,0.33,0.06,0.49,0.09
		c0.3,0.04,0.57,0.06,0.83,0.06c0.46,0.01,0.88-0.01,1.3-0.04c-0.23,0.16-0.47,0.32-0.7,0.47c-0.35,0.21-0.7,0.44-1.02,0.59
		c-0.31,0.16-0.66,0.26-0.71,0.29l-0.72,0.51c-0.15,0.11-0.26,0.27-0.31,0.46c-0.11,0.43,0.15,0.87,0.58,0.98
		c0.85,0.21,1.4,0.03,1.93-0.1c0.53-0.15,0.99-0.33,1.44-0.54c0.88-0.41,1.69-0.89,2.47-1.38l0.36-0.23l0.86-0.57l0.86-0.57
		l0.15-0.1c0.07-0.04,0.2-0.12,0.4-0.27l0.18-0.15c0.02-0.01,0.09-0.08,0.15-0.16c0.06-0.07,0.11-0.16,0.16-0.24
		c0.03-0.06,0.03-0.03,0.09-0.2c0.04-0.13,0.07-0.29,0.08-0.44c0.01-0.33-0.06-0.58-0.21-0.82c-0.07-0.12-0.17-0.23-0.27-0.33
		c-0.09-0.09-0.25-0.19-0.26-0.19c-0.08-0.05-0.17-0.09-0.26-0.12c-0.56-0.16-0.64-0.1-0.83-0.12c-0.17,0-0.3,0.01-0.43,0.02
		c-0.48,0.04-0.91,0.09-1.34,0.15c-0.03,0-0.05,0.01-0.08,0.01c-0.34,0.04-0.68,0.08-1.01,0.13c-0.03,0-0.06,0.01-0.09,0.01
		c0.03-0.01,0.05-0.03,0.08-0.04c0.24-0.12,0.48-0.25,0.72-0.37c0.06-0.03,0.12-0.06,0.17-0.08c0.62-0.31,1.25-0.61,1.88-0.91
		c0.93-0.44,1.86-0.87,2.81-1.32l0.32-0.15c0.11-0.05,0.21-0.09,0.4-0.2c0,0,0.01,0,0.01-0.01c0.04-0.03,0.1-0.06,0.19-0.13
		c0.06-0.06,0.11-0.07,0.28-0.28c0,0.02,0.28-0.4,0.26-0.77c0.07-0.5-0.57-1.17-0.63-1.11c-0.24-0.14-0.38-0.15-0.4-0.16
		c-0.06-0.02-0.17-0.03-0.18-0.03l-0.17-0.01l-0.19,0.01c-0.18,0.02-0.3,0.04-0.43,0.06c-0.5,0.08-0.93,0.18-1.38,0.28l-1.64,0.35
		c0.4-0.22,0.81-0.44,1.21-0.65l2.38-1.27l1.21-0.65c0.21-0.11,0.39-0.21,0.65-0.37c0.09-0.06,0.14-0.06,0.38-0.31
		c0.03-0.05,0.05-0.06,0.1-0.14c0.07-0.12,0.13-0.26,0.16-0.4c0.05-0.13,0.01-0.62-0.17-0.84c-0.12-0.17-0.26-0.28-0.42-0.37
		c-0.14-0.07-0.14-0.06-0.22-0.09c-0.05-0.01-0.15-0.03-0.16-0.03l-0.16-0.02c-0.28,0-0.39,0.02-0.53,0.04
		c-1.92,0.36-3.58,0.83-5.34,1.19c-0.17,0.04-0.34,0.07-0.52,0.1c0.93-0.49,1.91-0.95,2.87-1.41l2.44-1.16l1.23-0.61
		c0.22-0.12,0.4-0.2,0.69-0.39c0.05-0.03,0.07-0.04,0.14-0.1c0.05-0.04,0.1-0.09,0.14-0.14l0.06-0.08c0.05-0.07,0.16-0.3,0.14-0.5
		c-0.06-0.47-0.21-0.54-0.4-0.69c-0.08-0.06-0.22-0.11-0.27-0.12l-0.07-0.01c-0.09-0.02-0.2-0.02-0.23-0.02
		c-0.2,0.01-0.31,0.03-0.44,0.05c-0.96,0.16-1.81,0.37-2.69,0.55c-0.81,0.17-1.62,0.32-2.38,0.4c0.07-0.06,0.13-0.13,0.19-0.19
		c0.64-0.56,1.36-1.1,2.08-1.62c1.45-1.04,2.95-2.04,4.46-3c0.25-0.16,0.32-0.48,0.2-0.72c-0.15-0.26-0.48-0.34-0.74-0.19
		c-1.56,0.93-3.1,1.88-4.62,2.89c-0.76,0.51-1.51,1.03-2.24,1.63c-0.19,0.16-0.37,0.31-0.55,0.49c-0.18,0.18-0.36,0.35-0.56,0.72
		c-0.04,0.07-0.1,0.26-0.11,0.44c0,0.26,0.1,0.5,0.28,0.67c0.29,0.25,0.52,0.28,0.67,0.31c0.33,0.05,0.58,0.05,0.83,0.04
		c0.17-0.01,0.33-0.03,0.5-0.05c-1.49,0.67-2.96,1.33-4.45,2.22c-0.08,0.05-0.15,0.1-0.23,0.15c-0.14,0.09-0.27,0.18-0.42,0.3
		c-0.11,0.08-0.24,0.19-0.38,0.35l-0.04,0.05l-0.07,0.1l-0.05,0.08c-0.02,0.04-0.05,0.1-0.07,0.15c-0.04,0.11-0.08,0.21-0.1,0.33
		c-0.02,0.19,0.01,0.42,0.08,0.6c0.07,0.17,0.17,0.28,0.29,0.4c0.06,0.06,0.13,0.12,0.18,0.15l0.12,0.06
		c0.08,0.04,0.16,0.06,0.22,0.09c0.05,0.02,0.1,0.03,0.15,0.04c0.2,0.05,0.36,0.06,0.51,0.07c0.15,0.01,0.29,0,0.43,0
		c0.13,0,0.25-0.01,0.37-0.02c0.54-0.04,1.05-0.11,1.56-0.19c-0.56,0.3-1.13,0.61-1.69,0.94c-0.29,0.17-0.58,0.36-0.88,0.54
		c-0.13,0.08-0.26,0.16-0.4,0.25c-0.14,0.1-0.3,0.22-0.46,0.35c-0.06,0.05-0.12,0.09-0.19,0.14c-0.1,0.09-0.2,0.17-0.33,0.33
		c-0.03,0.04-0.07,0.09-0.11,0.14c-0.02,0.03-0.1,0.16-0.16,0.31c-0.03,0.07-0.05,0.15-0.07,0.22l-0.02,0.11
		c-0.01,0.07-0.01,0.15-0.01,0.23c0.05,0.54,0.29,0.83,0.55,1.01c0.11,0.08,0.22,0.14,0.32,0.19c0.15,0.05,0.37,0.1,0.49,0.11
		l0.11,0c-0.12,0.06-0.23,0.12-0.35,0.19c-0.41,0.23-0.83,0.47-1.26,0.77c-0.21,0.14-0.44,0.31-0.69,0.54
		c-0.14,0.15-0.26,0.24-0.45,0.55c-0.06,0.08-0.21,0.42-0.24,0.7c-0.06,0.36,0.13,0.97,0.37,1.17
		C943.24,211.57,943.44,211.74,943.51,211.77z M946.5,202L946.5,202l-0.01,0.01C946.49,202.01,946.5,202,946.5,202z"/>
</g>
</svg>
